<?xml version="1.0" encoding="UTF-8" standalone="no"?>
<!DOCTYPE svg PUBLIC "-//W3C//DTD SVG 1.1//EN"
 "http://www.w3.org/Graphics/SVG/1.1/DTD/svg11.dtd">
<!-- Generated by graphviz version 12.2.1 (20241206.2353)
 -->
<!-- Title: src/main/java/com/hust/ittnk68/cnpm/group/AccentToggleGroup.java Pages: 1 -->
<svg width="778pt" height="108pt"
 viewBox="0.00 0.00 778.25 108.00" xmlns="http://www.w3.org/2000/svg" xmlns:xlink="http://www.w3.org/1999/xlink">
<g id="graph0" class="graph" transform="scale(1 1) rotate(0) translate(4 104)">
<title>src/main/java/com/hust/ittnk68/cnpm/group/AccentToggleGroup.java</title>
<!-- Node1 -->
<g id="Node000001" class="node">
<title>Node1</title>
<g id="a_Node000001"><a xlink:title=" ">
<polygon fill="#999999" stroke="#666666" points="412.88,-100 248.38,-100 248.38,-56 412.88,-56 412.88,-100"/>
<text text-anchor="start" x="256.38" y="-86.5" font-family="Helvetica,sans-Serif" font-size="10.00">src/main/java/com/hust</text>
<text text-anchor="start" x="256.38" y="-74.5" font-family="Helvetica,sans-Serif" font-size="10.00">/ittnk68/cnpm/group/AccentToggle</text>
<text text-anchor="middle" x="330.62" y="-62.5" font-family="Helvetica,sans-Serif" font-size="10.00">Group.java</text>
</a>
</g>
</g>
<!-- Node2 -->
<g id="Node000002" class="node">
<title>Node2</title>
<g id="a_Node000002"><a xlink:title=" ">
<polygon fill="#e0e0e0" stroke="#999999" points="81.25,-20 0,-20 0,0 81.25,0 81.25,-20"/>
<text text-anchor="middle" x="40.62" y="-6.5" font-family="Helvetica,sans-Serif" font-size="10.00">java.util.Arrays</text>
</a>
</g>
</g>
<!-- Node1&#45;&gt;Node2 -->
<g id="edge1_Node000001_Node000002" class="edge">
<title>Node1&#45;&gt;Node2</title>
<g id="a_edge1_Node000001_Node000002"><a xlink:title=" ">
<path fill="none" stroke="#63b8ff" d="M247.91,-58.18C197.96,-46.81 135.84,-32.67 92.7,-22.85"/>
<polygon fill="#63b8ff" stroke="#63b8ff" points="93.61,-19.47 83.08,-20.66 92.06,-26.29 93.61,-19.47"/>
</a>
</g>
</g>
<!-- Node3 -->
<g id="Node000003" class="node">
<title>Node3</title>
<g id="a_Node000003"><a xlink:title=" ">
<polygon fill="#e0e0e0" stroke="#999999" points="167.88,-20 99.38,-20 99.38,0 167.88,0 167.88,-20"/>
<text text-anchor="middle" x="133.62" y="-6.5" font-family="Helvetica,sans-Serif" font-size="10.00">java.util.List</text>
</a>
</g>
</g>
<!-- Node1&#45;&gt;Node3 -->
<g id="edge2_Node000001_Node000003" class="edge">
<title>Node1&#45;&gt;Node3</title>
<g id="a_edge2_Node000001_Node000003"><a xlink:title=" ">
<path fill="none" stroke="#63b8ff" d="M266.66,-55.57C235.7,-45.2 199.52,-33.08 172.71,-24.09"/>
<polygon fill="#63b8ff" stroke="#63b8ff" points="173.87,-20.79 163.27,-20.93 171.64,-27.43 173.87,-20.79"/>
</a>
</g>
</g>
<!-- Node4 -->
<g id="Node000004" class="node">
<title>Node4</title>
<g id="a_Node000004"><a xlink:title=" ">
<polygon fill="#e0e0e0" stroke="#999999" points="323.75,-20 185.5,-20 185.5,0 323.75,0 323.75,-20"/>
<text text-anchor="middle" x="254.62" y="-6.5" font-family="Helvetica,sans-Serif" font-size="10.00">atlantafx.base.theme.Styles</text>
</a>
</g>
</g>
<!-- Node1&#45;&gt;Node4 -->
<g id="edge3_Node000001_Node000004" class="edge">
<title>Node1&#45;&gt;Node4</title>
<g id="a_edge3_Node000001_Node000004"><a xlink:title=" ">
<path fill="none" stroke="#63b8ff" d="M306.16,-55.75C295.77,-46.73 283.82,-36.36 274.05,-27.87"/>
<polygon fill="#63b8ff" stroke="#63b8ff" points="276.46,-25.33 266.61,-21.41 271.87,-30.61 276.46,-25.33"/>
</a>
</g>
</g>
<!-- Node5 -->
<g id="Node000005" class="node">
<title>Node5</title>
<g id="a_Node000005"><a xlink:title=" ">
<polygon fill="#e0e0e0" stroke="#999999" points="473.38,-20 341.88,-20 341.88,0 473.38,0 473.38,-20"/>
<text text-anchor="middle" x="407.62" y="-6.5" font-family="Helvetica,sans-Serif" font-size="10.00">javafx.event.EventHandler</text>
</a>
</g>
</g>
<!-- Node1&#45;&gt;Node5 -->
<g id="edge4_Node000001_Node000005" class="edge">
<title>Node1&#45;&gt;Node5</title>
<g id="a_edge4_Node000001_Node000005"><a xlink:title=" ">
<path fill="none" stroke="#63b8ff" d="M355.41,-55.75C365.94,-46.73 378.04,-36.36 387.94,-27.87"/>
<polygon fill="#63b8ff" stroke="#63b8ff" points="390.17,-30.57 395.49,-21.4 385.62,-25.25 390.17,-30.57"/>
</a>
</g>
</g>
<!-- Node6 -->
<g id="Node000006" class="node">
<title>Node6</title>
<g id="a_Node000006"><a xlink:title=" ">
<polygon fill="#e0e0e0" stroke="#999999" points="617.38,-20 491.88,-20 491.88,0 617.38,0 617.38,-20"/>
<text text-anchor="middle" x="554.62" y="-6.5" font-family="Helvetica,sans-Serif" font-size="10.00">javafx.event.ActionEvent</text>
</a>
</g>
</g>
<!-- Node1&#45;&gt;Node6 -->
<g id="edge5_Node000001_Node000006" class="edge">
<title>Node1&#45;&gt;Node6</title>
<g id="a_edge5_Node000001_Node000006"><a xlink:title=" ">
<path fill="none" stroke="#63b8ff" d="M403.35,-55.57C439.19,-45.01 481.17,-32.64 511.81,-23.62"/>
<polygon fill="#63b8ff" stroke="#63b8ff" points="512.49,-27.06 521.09,-20.88 510.51,-20.35 512.49,-27.06"/>
</a>
</g>
</g>
<!-- Node7 -->
<g id="Node000007" class="node">
<title>Node7</title>
<g id="a_Node000007"><a xlink:title=" ">
<polygon fill="#e0e0e0" stroke="#999999" points="770.25,-20 635,-20 635,0 770.25,0 770.25,-20"/>
<text text-anchor="middle" x="702.62" y="-6.5" font-family="Helvetica,sans-Serif" font-size="10.00">javafx.scene.control.Button</text>
</a>
</g>
</g>
<!-- Node1&#45;&gt;Node7 -->
<g id="edge6_Node000001_Node000007" class="edge">
<title>Node1&#45;&gt;Node7</title>
<g id="a_edge6_Node000001_Node000007"><a xlink:title=" ">
<path fill="none" stroke="#63b8ff" d="M413.18,-62.35C480.99,-50.32 575.69,-33.52 638.05,-22.46"/>
<polygon fill="#63b8ff" stroke="#63b8ff" points="638.58,-25.92 647.81,-20.72 637.36,-19.03 638.58,-25.92"/>
</a>
</g>
</g>
</g>
</svg>
