<?xml version="1.0" encoding="UTF-8" standalone="no"?>
<!DOCTYPE svg PUBLIC "-//W3C//DTD SVG 1.1//EN"
 "http://www.w3.org/Graphics/SVG/1.1/DTD/svg11.dtd">
<!-- Generated by graphviz version 12.2.1 (20241206.2353)
 -->
<!-- Title: src/main/java/com/hust/ittnk68/cnpm/view/AdminExpenseManagePage.java Pages: 1 -->
<svg width="6593pt" height="120pt"
 viewBox="0.00 0.00 6593.12 120.00" xmlns="http://www.w3.org/2000/svg" xmlns:xlink="http://www.w3.org/1999/xlink">
<g id="graph0" class="graph" transform="scale(1 1) rotate(0) translate(4 116)">
<title>src/main/java/com/hust/ittnk68/cnpm/view/AdminExpenseManagePage.java</title>
<!-- Node1 -->
<g id="Node000001" class="node">
<title>Node1</title>
<g id="a_Node000001"><a xlink:title=" ">
<polygon fill="#999999" stroke="#666666" points="3435.25,-112 3267.75,-112 3267.75,-68 3435.25,-68 3435.25,-112"/>
<text text-anchor="start" x="3275.75" y="-98.5" font-family="Helvetica,sans-Serif" font-size="10.00">src/main/java/com/hust</text>
<text text-anchor="start" x="3275.75" y="-86.5" font-family="Helvetica,sans-Serif" font-size="10.00">/ittnk68/cnpm/view/AdminExpense</text>
<text text-anchor="middle" x="3351.5" y="-74.5" font-family="Helvetica,sans-Serif" font-size="10.00">ManagePage.java</text>
</a>
</g>
</g>
<!-- Node2 -->
<g id="Node000002" class="node">
<title>Node2</title>
<g id="a_Node000002"><a xlink:title=" ">
<polygon fill="#e0e0e0" stroke="#999999" points="103,-26 0,-26 0,-6 103,-6 103,-26"/>
<text text-anchor="middle" x="51.5" y="-12.5" font-family="Helvetica,sans-Serif" font-size="10.00">java.time.LocalDate</text>
</a>
</g>
</g>
<!-- Node1&#45;&gt;Node2 -->
<g id="edge1_Node000001_Node000002" class="edge">
<title>Node1&#45;&gt;Node2</title>
<g id="a_edge1_Node000001_Node000002"><a xlink:title=" ">
<path fill="none" stroke="#63b8ff" d="M3267.59,-88.64C2790.85,-86.48 433.1,-73.7 112.5,-32 106.83,-31.26 100.93,-30.2 95.12,-28.97"/>
<polygon fill="#63b8ff" stroke="#63b8ff" points="96.17,-25.62 85.64,-26.8 94.61,-32.45 96.17,-25.62"/>
</a>
</g>
</g>
<!-- Node3 -->
<g id="Node000003" class="node">
<title>Node3</title>
<g id="a_Node000003"><a xlink:title=" ">
<polygon fill="#e0e0e0" stroke="#999999" points="209.88,-26 121.12,-26 121.12,-6 209.88,-6 209.88,-26"/>
<text text-anchor="middle" x="165.5" y="-12.5" font-family="Helvetica,sans-Serif" font-size="10.00">java.time.ZoneId</text>
</a>
</g>
</g>
<!-- Node1&#45;&gt;Node3 -->
<g id="edge2_Node000001_Node000003" class="edge">
<title>Node1&#45;&gt;Node3</title>
<g id="a_edge2_Node000001_Node000003"><a xlink:title=" ">
<path fill="none" stroke="#63b8ff" d="M3267.31,-88.74C2799.33,-87.11 528.19,-76.94 219.5,-32 214.84,-31.32 210.02,-30.36 205.25,-29.26"/>
<polygon fill="#63b8ff" stroke="#63b8ff" points="206.38,-25.93 195.82,-26.84 204.64,-32.71 206.38,-25.93"/>
</a>
</g>
</g>
<!-- Node4 -->
<g id="Node000004" class="node">
<title>Node4</title>
<g id="a_Node000004"><a xlink:title=" ">
<polygon fill="#e0e0e0" stroke="#999999" points="316.88,-26 228.12,-26 228.12,-6 316.88,-6 316.88,-26"/>
<text text-anchor="middle" x="272.5" y="-12.5" font-family="Helvetica,sans-Serif" font-size="10.00">java.util.Optional</text>
</a>
</g>
</g>
<!-- Node1&#45;&gt;Node4 -->
<g id="edge3_Node000001_Node000004" class="edge">
<title>Node1&#45;&gt;Node4</title>
<g id="a_edge3_Node000001_Node000004"><a xlink:title=" ">
<path fill="none" stroke="#63b8ff" d="M3267.55,-88.71C2809.63,-86.92 623.06,-76.16 325.5,-32 321.05,-31.34 316.45,-30.42 311.9,-29.35"/>
<polygon fill="#63b8ff" stroke="#63b8ff" points="312.84,-25.98 302.28,-26.84 311.07,-32.75 312.84,-25.98"/>
</a>
</g>
</g>
<!-- Node5 -->
<g id="Node000005" class="node">
<title>Node5</title>
<g id="a_Node000005"><a xlink:title=" ">
<polygon fill="#e0e0e0" stroke="#999999" points="462.38,-32 334.62,-32 334.62,0 462.38,0 462.38,-32"/>
<text text-anchor="start" x="342.62" y="-18.5" font-family="Helvetica,sans-Serif" font-size="10.00">org.kordamp.ikonli.javafx.</text>
<text text-anchor="middle" x="398.5" y="-6.5" font-family="Helvetica,sans-Serif" font-size="10.00">FontIcon</text>
</a>
</g>
</g>
<!-- Node1&#45;&gt;Node5 -->
<g id="edge4_Node000001_Node000005" class="edge">
<title>Node1&#45;&gt;Node5</title>
<g id="a_edge4_Node000001_Node000005"><a xlink:title=" ">
<path fill="none" stroke="#63b8ff" d="M3267.31,-88.25C2827.66,-84.23 803.34,-64.15 473.5,-31.99"/>
<polygon fill="#63b8ff" stroke="#63b8ff" points="474.3,-28.55 463.99,-30.99 473.58,-35.51 474.3,-28.55"/>
</a>
</g>
</g>
<!-- Node6 -->
<g id="Node000006" class="node">
<title>Node6</title>
<g id="a_Node000006"><a xlink:title=" ">
<polygon fill="#e0e0e0" stroke="#999999" points="622.12,-32 480.88,-32 480.88,0 622.12,0 622.12,-32"/>
<text text-anchor="start" x="488.88" y="-18.5" font-family="Helvetica,sans-Serif" font-size="10.00">org.kordamp.ikonli.material2.</text>
<text text-anchor="middle" x="551.5" y="-6.5" font-family="Helvetica,sans-Serif" font-size="10.00">Material2MZ</text>
</a>
</g>
</g>
<!-- Node1&#45;&gt;Node6 -->
<g id="edge5_Node000001_Node000006" class="edge">
<title>Node1&#45;&gt;Node6</title>
<g id="a_edge5_Node000001_Node000006"><a xlink:title=" ">
<path fill="none" stroke="#63b8ff" d="M3267.4,-89.13C2870.74,-89.44 1183.63,-87.49 633.67,-32.2"/>
<polygon fill="#63b8ff" stroke="#63b8ff" points="634.29,-28.75 623.98,-31.21 633.57,-35.71 634.29,-28.75"/>
</a>
</g>
</g>
<!-- Node7 -->
<g id="Node000007" class="node">
<title>Node7</title>
<g id="a_Node000007"><a xlink:title=" ">
<polygon fill="#e0e0e0" stroke="#999999" points="781.12,-32 639.88,-32 639.88,0 781.12,0 781.12,-32"/>
<text text-anchor="start" x="647.88" y="-18.5" font-family="Helvetica,sans-Serif" font-size="10.00">org.kordamp.ikonli.material2.</text>
<text text-anchor="middle" x="710.5" y="-6.5" font-family="Helvetica,sans-Serif" font-size="10.00">Material2OutlinedAL</text>
</a>
</g>
</g>
<!-- Node1&#45;&gt;Node7 -->
<g id="edge6_Node000001_Node000007" class="edge">
<title>Node1&#45;&gt;Node7</title>
<g id="a_edge6_Node000001_Node000007"><a xlink:title=" ">
<path fill="none" stroke="#63b8ff" d="M3267.27,-88.97C2885.04,-88.57 1310.32,-83.8 792.79,-32.09"/>
<polygon fill="#63b8ff" stroke="#63b8ff" points="793.32,-28.62 783.02,-31.09 792.61,-35.59 793.32,-28.62"/>
</a>
</g>
</g>
<!-- Node8 -->
<g id="Node000008" class="node">
<title>Node8</title>
<g id="a_Node000008"><a xlink:title=" ">
<polygon fill="#e0e0e0" stroke="#999999" points="957.38,-32 799.62,-32 799.62,0 957.38,0 957.38,-32"/>
<text text-anchor="start" x="807.62" y="-18.5" font-family="Helvetica,sans-Serif" font-size="10.00">com.fasterxml.jackson.databind.</text>
<text text-anchor="middle" x="878.5" y="-6.5" font-family="Helvetica,sans-Serif" font-size="10.00">ObjectMapper</text>
</a>
</g>
</g>
<!-- Node1&#45;&gt;Node8 -->
<g id="edge7_Node000001_Node000008" class="edge">
<title>Node1&#45;&gt;Node8</title>
<g id="a_edge7_Node000001_Node000008"><a xlink:title=" ">
<path fill="none" stroke="#63b8ff" d="M3267.29,-88.63C2901.75,-86.75 1449.75,-76.65 968.76,-32.09"/>
<polygon fill="#63b8ff" stroke="#63b8ff" points="969.37,-28.64 959.09,-31.18 968.71,-35.61 969.37,-28.64"/>
</a>
</g>
</g>
<!-- Node9 -->
<g id="Node000009" class="node">
<title>Node9</title>
<g id="a_Node000009"><a xlink:title=" ">
<polygon fill="#e0e0e0" stroke="#999999" points="1133.38,-32 975.62,-32 975.62,0 1133.38,0 1133.38,-32"/>
<text text-anchor="start" x="983.62" y="-18.5" font-family="Helvetica,sans-Serif" font-size="10.00">com.fasterxml.jackson.databind.</text>
<text text-anchor="middle" x="1054.5" y="-6.5" font-family="Helvetica,sans-Serif" font-size="10.00">SerializationFeature</text>
</a>
</g>
</g>
<!-- Node1&#45;&gt;Node9 -->
<g id="edge8_Node000001_Node000009" class="edge">
<title>Node1&#45;&gt;Node9</title>
<g id="a_edge8_Node000001_Node000009"><a xlink:title=" ">
<path fill="none" stroke="#63b8ff" d="M3267.38,-88.44C2919.28,-85.88 1589.32,-73.59 1144.88,-32.11"/>
<polygon fill="#63b8ff" stroke="#63b8ff" points="1145.38,-28.64 1135.09,-31.17 1144.71,-35.61 1145.38,-28.64"/>
</a>
</g>
</g>
<!-- Node10 -->
<g id="Node000010" class="node">
<title>Node10</title>
<g id="a_Node000010"><a xlink:title=" ">
<polygon fill="#e0e0e0" stroke="#999999" points="1339.38,-32 1151.62,-32 1151.62,0 1339.38,0 1339.38,-32"/>
<text text-anchor="start" x="1159.62" y="-18.5" font-family="Helvetica,sans-Serif" font-size="10.00">com.hust.ittnk68.cnpm.communication.</text>
<text text-anchor="middle" x="1245.5" y="-6.5" font-family="Helvetica,sans-Serif" font-size="10.00">AdminDeleteObject</text>
</a>
</g>
</g>
<!-- Node1&#45;&gt;Node10 -->
<g id="edge9_Node000001_Node000010" class="edge">
<title>Node1&#45;&gt;Node10</title>
<g id="a_edge9_Node000001_Node000010"><a xlink:title=" ">
<path fill="none" stroke="#63b8ff" d="M3267.27,-87.91C2940.19,-83.47 1752.97,-65.45 1351.12,-32.14"/>
<polygon fill="#63b8ff" stroke="#63b8ff" points="1351.52,-28.66 1341.26,-31.3 1350.92,-35.63 1351.52,-28.66"/>
</a>
</g>
</g>
<!-- Node11 -->
<g id="Node000011" class="node">
<title>Node11</title>
<g id="a_Node000011"><a xlink:title=" ">
<polygon fill="#e0e0e0" stroke="#999999" points="1545.38,-32 1357.62,-32 1357.62,0 1545.38,0 1545.38,-32"/>
<text text-anchor="start" x="1365.62" y="-18.5" font-family="Helvetica,sans-Serif" font-size="10.00">com.hust.ittnk68.cnpm.communication.</text>
<text text-anchor="middle" x="1451.5" y="-6.5" font-family="Helvetica,sans-Serif" font-size="10.00">ServerDeleteObjectResponse</text>
</a>
</g>
</g>
<!-- Node1&#45;&gt;Node11 -->
<g id="edge10_Node000001_Node000011" class="edge">
<title>Node1&#45;&gt;Node11</title>
<g id="a_edge10_Node000001_Node000011"><a xlink:title=" ">
<path fill="none" stroke="#63b8ff" d="M3267.4,-87.59C2962.75,-82.31 1916.41,-62.41 1557.21,-32.15"/>
<polygon fill="#63b8ff" stroke="#63b8ff" points="1557.52,-28.66 1547.26,-31.29 1556.92,-35.64 1557.52,-28.66"/>
</a>
</g>
</g>
<!-- Node12 -->
<g id="Node000012" class="node">
<title>Node12</title>
<g id="a_Node000012"><a xlink:title=" ">
<polygon fill="#e0e0e0" stroke="#999999" points="1723.88,-32 1563.12,-32 1563.12,0 1723.88,0 1723.88,-32"/>
<text text-anchor="start" x="1571.12" y="-18.5" font-family="Helvetica,sans-Serif" font-size="10.00">com.hust.ittnk68.cnpm.controller.</text>
<text text-anchor="middle" x="1643.5" y="-6.5" font-family="Helvetica,sans-Serif" font-size="10.00">ClientSceneController</text>
</a>
</g>
</g>
<!-- Node1&#45;&gt;Node12 -->
<g id="edge11_Node000001_Node000012" class="edge">
<title>Node1&#45;&gt;Node12</title>
<g id="a_edge11_Node000001_Node000012"><a xlink:title=" ">
<path fill="none" stroke="#63b8ff" d="M3267.41,-87.51C2982.9,-82.22 2056.75,-63.11 1735.15,-32.16"/>
<polygon fill="#63b8ff" stroke="#63b8ff" points="1735.77,-28.7 1725.47,-31.2 1735.08,-35.67 1735.77,-28.7"/>
</a>
</g>
</g>
<!-- Node13 -->
<g id="Node000013" class="node">
<title>Node13</title>
<g id="a_Node000013"><a xlink:title=" ">
<polygon fill="#e0e0e0" stroke="#999999" points="1889.5,-32 1741.5,-32 1741.5,0 1889.5,0 1889.5,-32"/>
<text text-anchor="start" x="1749.5" y="-18.5" font-family="Helvetica,sans-Serif" font-size="10.00">com.hust.ittnk68.cnpm.model.</text>
<text text-anchor="middle" x="1815.5" y="-6.5" font-family="Helvetica,sans-Serif" font-size="10.00">CreateExpenseModel</text>
</a>
</g>
</g>
<!-- Node1&#45;&gt;Node13 -->
<g id="edge12_Node000001_Node000013" class="edge">
<title>Node1&#45;&gt;Node13</title>
<g id="a_edge12_Node000001_Node000013"><a xlink:title=" ">
<path fill="none" stroke="#63b8ff" d="M3267.28,-87.24C3002.56,-81.48 2188.4,-61.86 1900.88,-32.12"/>
<polygon fill="#63b8ff" stroke="#63b8ff" points="1901.46,-28.67 1891.14,-31.09 1900.71,-35.63 1901.46,-28.67"/>
</a>
</g>
</g>
<!-- Node14 -->
<g id="Node000014" class="node">
<title>Node14</title>
<g id="a_Node000014"><a xlink:title=" ">
<polygon fill="#e0e0e0" stroke="#999999" points="2055.5,-32 1907.5,-32 1907.5,0 2055.5,0 2055.5,-32"/>
<text text-anchor="start" x="1915.5" y="-18.5" font-family="Helvetica,sans-Serif" font-size="10.00">com.hust.ittnk68.cnpm.model.</text>
<text text-anchor="middle" x="1981.5" y="-6.5" font-family="Helvetica,sans-Serif" font-size="10.00">Expense</text>
</a>
</g>
</g>
<!-- Node1&#45;&gt;Node14 -->
<g id="edge13_Node000001_Node000014" class="edge">
<title>Node1&#45;&gt;Node14</title>
<g id="a_edge13_Node000001_Node000014"><a xlink:title=" ">
<path fill="none" stroke="#63b8ff" d="M3267.63,-89.18C3063.59,-88.78 2525.03,-82.69 2066.79,-32.15"/>
<polygon fill="#63b8ff" stroke="#63b8ff" points="2067.47,-28.7 2057.14,-31.08 2066.69,-35.66 2067.47,-28.7"/>
</a>
</g>
</g>
<!-- Node15 -->
<g id="Node000015" class="node">
<title>Node15</title>
<g id="a_Node000015"><a xlink:title=" ">
<polygon fill="#e0e0e0" stroke="#999999" points="2221.5,-32 2073.5,-32 2073.5,0 2221.5,0 2221.5,-32"/>
<text text-anchor="start" x="2081.5" y="-18.5" font-family="Helvetica,sans-Serif" font-size="10.00">com.hust.ittnk68.cnpm.model.</text>
<text text-anchor="middle" x="2147.5" y="-6.5" font-family="Helvetica,sans-Serif" font-size="10.00">UpdateExpenseModel</text>
</a>
</g>
</g>
<!-- Node1&#45;&gt;Node15 -->
<g id="edge14_Node000001_Node000015" class="edge">
<title>Node1&#45;&gt;Node15</title>
<g id="a_edge14_Node000001_Node000015"><a xlink:title=" ">
<path fill="none" stroke="#63b8ff" d="M3267.52,-88.4C3082.38,-86.27 2625.04,-76.66 2232.93,-32.18"/>
<polygon fill="#63b8ff" stroke="#63b8ff" points="2233.48,-28.72 2223.15,-31.06 2232.68,-35.67 2233.48,-28.72"/>
</a>
</g>
</g>
<!-- Node16 -->
<g id="Node000016" class="node">
<title>Node16</title>
<g id="a_Node000016"><a xlink:title=" ">
<polygon fill="#e0e0e0" stroke="#999999" points="2357.5,-32 2239.5,-32 2239.5,0 2357.5,0 2357.5,-32"/>
<text text-anchor="start" x="2247.5" y="-18.5" font-family="Helvetica,sans-Serif" font-size="10.00">atlantafx.base.controls.</text>
<text text-anchor="middle" x="2298.5" y="-6.5" font-family="Helvetica,sans-Serif" font-size="10.00">PasswordTextField</text>
</a>
</g>
</g>
<!-- Node1&#45;&gt;Node16 -->
<g id="edge15_Node000001_Node000016" class="edge">
<title>Node1&#45;&gt;Node16</title>
<g id="a_edge15_Node000001_Node000016"><a xlink:title=" ">
<path fill="none" stroke="#63b8ff" d="M3267.39,-88.64C3098.55,-86.93 2706.34,-78.02 2368.72,-32.16"/>
<polygon fill="#63b8ff" stroke="#63b8ff" points="2369.62,-28.75 2359.24,-30.86 2368.67,-35.68 2369.62,-28.75"/>
</a>
</g>
</g>
<!-- Node17 -->
<g id="Node000017" class="node">
<title>Node17</title>
<g id="a_Node000017"><a xlink:title=" ">
<polygon fill="#e0e0e0" stroke="#999999" points="2493.5,-32 2375.5,-32 2375.5,0 2493.5,0 2493.5,-32"/>
<text text-anchor="start" x="2383.5" y="-18.5" font-family="Helvetica,sans-Serif" font-size="10.00">atlantafx.base.controls.</text>
<text text-anchor="middle" x="2434.5" y="-6.5" font-family="Helvetica,sans-Serif" font-size="10.00">Spacer</text>
</a>
</g>
</g>
<!-- Node1&#45;&gt;Node17 -->
<g id="edge16_Node000001_Node000017" class="edge">
<title>Node1&#45;&gt;Node17</title>
<g id="a_edge16_Node000001_Node000017"><a xlink:title=" ">
<path fill="none" stroke="#63b8ff" d="M3267.31,-87.53C3116.33,-83.97 2789.48,-72.11 2505.12,-32.23"/>
<polygon fill="#63b8ff" stroke="#63b8ff" points="2505.63,-28.77 2495.24,-30.83 2504.65,-35.7 2505.63,-28.77"/>
</a>
</g>
</g>
<!-- Node18 -->
<g id="Node000018" class="node">
<title>Node18</title>
<g id="a_Node000018"><a xlink:title=" ">
<polygon fill="#e0e0e0" stroke="#999999" points="2629.5,-32 2511.5,-32 2511.5,0 2629.5,0 2629.5,-32"/>
<text text-anchor="start" x="2519.5" y="-18.5" font-family="Helvetica,sans-Serif" font-size="10.00">atlantafx.base.controls.</text>
<text text-anchor="middle" x="2570.5" y="-6.5" font-family="Helvetica,sans-Serif" font-size="10.00">ToggleSwitch</text>
</a>
</g>
</g>
<!-- Node1&#45;&gt;Node18 -->
<g id="edge17_Node000001_Node000018" class="edge">
<title>Node1&#45;&gt;Node18</title>
<g id="a_edge17_Node000001_Node000018"><a xlink:title=" ">
<path fill="none" stroke="#63b8ff" d="M3267.38,-86.02C3135.74,-80.53 2872.97,-66.24 2641.11,-32.26"/>
<polygon fill="#63b8ff" stroke="#63b8ff" points="2641.65,-28.8 2631.25,-30.79 2640.62,-35.72 2641.65,-28.8"/>
</a>
</g>
</g>
<!-- Node19 -->
<g id="Node000019" class="node">
<title>Node19</title>
<g id="a_Node000019"><a xlink:title=" ">
<polygon fill="#e0e0e0" stroke="#999999" points="2779.25,-32 2647.75,-32 2647.75,0 2779.25,0 2779.25,-32"/>
<text text-anchor="start" x="2655.75" y="-18.5" font-family="Helvetica,sans-Serif" font-size="10.00">atlantafx.base.layout.Input</text>
<text text-anchor="middle" x="2713.5" y="-6.5" font-family="Helvetica,sans-Serif" font-size="10.00">Group</text>
</a>
</g>
</g>
<!-- Node1&#45;&gt;Node19 -->
<g id="edge18_Node000001_Node000019" class="edge">
<title>Node1&#45;&gt;Node19</title>
<g id="a_edge18_Node000001_Node000019"><a xlink:title=" ">
<path fill="none" stroke="#63b8ff" d="M3267.72,-83.06C3159.77,-74.83 2966.13,-58.16 2790.94,-32.28"/>
<polygon fill="#63b8ff" stroke="#63b8ff" points="2791.6,-28.84 2781.19,-30.82 2790.56,-35.76 2791.6,-28.84"/>
</a>
</g>
</g>
<!-- Node20 -->
<g id="Node000020" class="node">
<title>Node20</title>
<g id="a_Node000020"><a xlink:title=" ">
<polygon fill="#e0e0e0" stroke="#999999" points="2935.62,-26 2797.38,-26 2797.38,-6 2935.62,-6 2935.62,-26"/>
<text text-anchor="middle" x="2866.5" y="-12.5" font-family="Helvetica,sans-Serif" font-size="10.00">atlantafx.base.theme.Styles</text>
</a>
</g>
</g>
<!-- Node1&#45;&gt;Node20 -->
<g id="edge19_Node000001_Node000020" class="edge">
<title>Node1&#45;&gt;Node20</title>
<g id="a_edge19_Node000001_Node000020"><a xlink:title=" ">
<path fill="none" stroke="#63b8ff" d="M3267.52,-78.51C3185.09,-67.91 3055.88,-50.5 2944.5,-32 2938.05,-30.93 2931.32,-29.74 2924.62,-28.51"/>
<polygon fill="#63b8ff" stroke="#63b8ff" points="2925.41,-25.1 2914.94,-26.71 2924.13,-31.98 2925.41,-25.1"/>
</a>
</g>
</g>
<!-- Node21 -->
<g id="Node000021" class="node">
<title>Node21</title>
<g id="a_Node000021"><a xlink:title=" ">
<polygon fill="#e0e0e0" stroke="#999999" points="3087.75,-32 2953.25,-32 2953.25,0 3087.75,0 3087.75,-32"/>
<text text-anchor="start" x="2961.25" y="-18.5" font-family="Helvetica,sans-Serif" font-size="10.00">javafx.beans.value.Change</text>
<text text-anchor="middle" x="3020.5" y="-6.5" font-family="Helvetica,sans-Serif" font-size="10.00">Listener</text>
</a>
</g>
</g>
<!-- Node1&#45;&gt;Node21 -->
<g id="edge20_Node000001_Node000021" class="edge">
<title>Node1&#45;&gt;Node21</title>
<g id="a_edge20_Node000001_Node000021"><a xlink:title=" ">
<path fill="none" stroke="#63b8ff" d="M3267.55,-70.74C3215.91,-59.51 3150.15,-45.2 3099.46,-34.18"/>
<polygon fill="#63b8ff" stroke="#63b8ff" points="3100.23,-30.76 3089.71,-32.06 3098.74,-37.6 3100.23,-30.76"/>
</a>
</g>
</g>
<!-- Node22 -->
<g id="Node000022" class="node">
<title>Node22</title>
<g id="a_Node000022"><a xlink:title=" ">
<polygon fill="#e0e0e0" stroke="#999999" points="3255.62,-32 3105.38,-32 3105.38,0 3255.62,0 3255.62,-32"/>
<text text-anchor="start" x="3113.38" y="-18.5" font-family="Helvetica,sans-Serif" font-size="10.00">javafx.beans.value.Observable</text>
<text text-anchor="middle" x="3180.5" y="-6.5" font-family="Helvetica,sans-Serif" font-size="10.00">Value</text>
</a>
</g>
</g>
<!-- Node1&#45;&gt;Node22 -->
<g id="edge21_Node000001_Node000022" class="edge">
<title>Node1&#45;&gt;Node22</title>
<g id="a_edge21_Node000001_Node000022"><a xlink:title=" ">
<path fill="none" stroke="#63b8ff" d="M3300.66,-67.59C3277.54,-57.86 3250.35,-46.41 3227.69,-36.87"/>
<polygon fill="#63b8ff" stroke="#63b8ff" points="3229.27,-33.74 3218.7,-33.08 3226.56,-40.19 3229.27,-33.74"/>
</a>
</g>
</g>
<!-- Node23 -->
<g id="Node000023" class="node">
<title>Node23</title>
<g id="a_Node000023"><a xlink:title=" ">
<polygon fill="#e0e0e0" stroke="#999999" points="3429.62,-26 3273.38,-26 3273.38,-6 3429.62,-6 3429.62,-26"/>
<text text-anchor="middle" x="3351.5" y="-12.5" font-family="Helvetica,sans-Serif" font-size="10.00">javafx.collections.FXCollections</text>
</a>
</g>
</g>
<!-- Node1&#45;&gt;Node23 -->
<g id="edge22_Node000001_Node000023" class="edge">
<title>Node1&#45;&gt;Node23</title>
<g id="a_edge22_Node000001_Node000023"><a xlink:title=" ">
<path fill="none" stroke="#63b8ff" d="M3351.5,-67.79C3351.5,-58.32 3351.5,-47.2 3351.5,-37.78"/>
<polygon fill="#63b8ff" stroke="#63b8ff" points="3355,-37.82 3351.5,-27.82 3348,-37.82 3355,-37.82"/>
</a>
</g>
</g>
<!-- Node24 -->
<g id="Node000024" class="node">
<title>Node24</title>
<g id="a_Node000024"><a xlink:title=" ">
<polygon fill="#e0e0e0" stroke="#999999" points="3561.62,-26 3447.38,-26 3447.38,-6 3561.62,-6 3561.62,-26"/>
<text text-anchor="middle" x="3504.5" y="-12.5" font-family="Helvetica,sans-Serif" font-size="10.00">javafx.geometry.Insets</text>
</a>
</g>
</g>
<!-- Node1&#45;&gt;Node24 -->
<g id="edge23_Node000001_Node000024" class="edge">
<title>Node1&#45;&gt;Node24</title>
<g id="a_edge23_Node000001_Node000024"><a xlink:title=" ">
<path fill="none" stroke="#63b8ff" d="M3396.99,-67.59C3421.86,-55.89 3451.99,-41.71 3474.02,-31.35"/>
<polygon fill="#63b8ff" stroke="#63b8ff" points="3475.5,-34.52 3483.05,-27.09 3472.52,-28.18 3475.5,-34.52"/>
</a>
</g>
</g>
<!-- Node25 -->
<g id="Node000025" class="node">
<title>Node25</title>
<g id="a_Node000025"><a xlink:title=" ">
<polygon fill="#e0e0e0" stroke="#999999" points="3715.12,-26 3579.88,-26 3579.88,-6 3715.12,-6 3715.12,-26"/>
<text text-anchor="middle" x="3647.5" y="-12.5" font-family="Helvetica,sans-Serif" font-size="10.00">javafx.scene.control.Button</text>
</a>
</g>
</g>
<!-- Node1&#45;&gt;Node25 -->
<g id="edge24_Node000001_Node000025" class="edge">
<title>Node1&#45;&gt;Node25</title>
<g id="a_edge24_Node000001_Node000025"><a xlink:title=" ">
<path fill="none" stroke="#63b8ff" d="M3435.53,-68.56C3487.89,-55.82 3553.47,-39.87 3597.71,-29.11"/>
<polygon fill="#63b8ff" stroke="#63b8ff" points="3598.4,-32.55 3607.29,-26.78 3596.75,-25.74 3598.4,-32.55"/>
</a>
</g>
</g>
<!-- Node26 -->
<g id="Node000026" class="node">
<title>Node26</title>
<g id="a_Node000026"><a xlink:title=" ">
<polygon fill="#e0e0e0" stroke="#999999" points="3889.62,-26 3733.38,-26 3733.38,-6 3889.62,-6 3889.62,-26"/>
<text text-anchor="middle" x="3811.5" y="-12.5" font-family="Helvetica,sans-Serif" font-size="10.00">javafx.scene.control.ButtonType</text>
</a>
</g>
</g>
<!-- Node1&#45;&gt;Node26 -->
<g id="edge25_Node000001_Node000026" class="edge">
<title>Node1&#45;&gt;Node26</title>
<g id="a_edge25_Node000001_Node000026"><a xlink:title=" ">
<path fill="none" stroke="#63b8ff" d="M3435.64,-76.61C3511.29,-65.36 3625.41,-48.11 3724.5,-32 3731.63,-30.84 3739.09,-29.6 3746.51,-28.35"/>
<polygon fill="#63b8ff" stroke="#63b8ff" points="3746.93,-31.82 3756.2,-26.7 3745.75,-24.92 3746.93,-31.82"/>
</a>
</g>
</g>
<!-- Node27 -->
<g id="Node000027" class="node">
<title>Node27</title>
<g id="a_Node000027"><a xlink:title=" ">
<polygon fill="#e0e0e0" stroke="#999999" points="4059.75,-26 3907.25,-26 3907.25,-6 4059.75,-6 4059.75,-26"/>
<text text-anchor="middle" x="3983.5" y="-12.5" font-family="Helvetica,sans-Serif" font-size="10.00">javafx.scene.control.CheckBox</text>
</a>
</g>
</g>
<!-- Node1&#45;&gt;Node27 -->
<g id="edge26_Node000001_Node000027" class="edge">
<title>Node1&#45;&gt;Node27</title>
<g id="a_edge26_Node000001_Node000027"><a xlink:title=" ">
<path fill="none" stroke="#63b8ff" d="M3435.59,-82.1C3543.18,-72.85 3735.16,-54.89 3898.5,-32 3906.17,-30.93 3914.2,-29.67 3922.14,-28.36"/>
<polygon fill="#63b8ff" stroke="#63b8ff" points="3922.49,-31.85 3931.76,-26.73 3921.32,-24.95 3922.49,-31.85"/>
</a>
</g>
</g>
<!-- Node28 -->
<g id="Node000028" class="node">
<title>Node28</title>
<g id="a_Node000028"><a xlink:title=" ">
<polygon fill="#e0e0e0" stroke="#999999" points="4233.25,-26 4077.75,-26 4077.75,-6 4233.25,-6 4233.25,-26"/>
<text text-anchor="middle" x="4155.5" y="-12.5" font-family="Helvetica,sans-Serif" font-size="10.00">javafx.scene.control.ComboBox</text>
</a>
</g>
</g>
<!-- Node1&#45;&gt;Node28 -->
<g id="edge27_Node000001_Node000028" class="edge">
<title>Node1&#45;&gt;Node28</title>
<g id="a_edge27_Node000001_Node000028"><a xlink:title=" ">
<path fill="none" stroke="#63b8ff" d="M3435.65,-84.81C3569.86,-77.56 3840.53,-60.65 4068.5,-32 4076.85,-30.95 4085.63,-29.66 4094.26,-28.28"/>
<polygon fill="#63b8ff" stroke="#63b8ff" points="4094.68,-31.76 4103.98,-26.68 4093.54,-24.85 4094.68,-31.76"/>
</a>
</g>
</g>
<!-- Node29 -->
<g id="Node000029" class="node">
<title>Node29</title>
<g id="a_Node000029"><a xlink:title=" ">
<polygon fill="#e0e0e0" stroke="#999999" points="4379.38,-32 4251.62,-32 4251.62,0 4379.38,0 4379.38,-32"/>
<text text-anchor="start" x="4259.62" y="-18.5" font-family="Helvetica,sans-Serif" font-size="10.00">javafx.scene.control.Date</text>
<text text-anchor="middle" x="4315.5" y="-6.5" font-family="Helvetica,sans-Serif" font-size="10.00">Picker</text>
</a>
</g>
</g>
<!-- Node1&#45;&gt;Node29 -->
<g id="edge28_Node000001_Node000029" class="edge">
<title>Node1&#45;&gt;Node29</title>
<g id="a_edge28_Node000001_Node000029"><a xlink:title=" ">
<path fill="none" stroke="#63b8ff" d="M3435.72,-87.5C3592.35,-83.86 3939.12,-71.82 4240.35,-32.16"/>
<polygon fill="#63b8ff" stroke="#63b8ff" points="4240.54,-35.66 4249.99,-30.88 4239.62,-28.73 4240.54,-35.66"/>
</a>
</g>
</g>
<!-- Node30 -->
<g id="Node000030" class="node">
<title>Node30</title>
<g id="a_Node000030"><a xlink:title=" ">
<polygon fill="#e0e0e0" stroke="#999999" points="4527.5,-26 4397.5,-26 4397.5,-6 4527.5,-6 4527.5,-26"/>
<text text-anchor="middle" x="4462.5" y="-12.5" font-family="Helvetica,sans-Serif" font-size="10.00">javafx.scene.control.Label</text>
</a>
</g>
</g>
<!-- Node1&#45;&gt;Node30 -->
<g id="edge29_Node000001_Node000030" class="edge">
<title>Node1&#45;&gt;Node30</title>
<g id="a_edge29_Node000001_Node000030"><a xlink:title=" ">
<path fill="none" stroke="#63b8ff" d="M3435.55,-88.5C3612.55,-86.55 4036.4,-77.12 4388.5,-32 4395.5,-31.1 4402.82,-29.92 4410.03,-28.61"/>
<polygon fill="#63b8ff" stroke="#63b8ff" points="4410.54,-32.08 4419.7,-26.76 4409.22,-25.2 4410.54,-32.08"/>
</a>
</g>
</g>
<!-- Node31 -->
<g id="Node000031" class="node">
<title>Node31</title>
<g id="a_Node000031"><a xlink:title=" ">
<polygon fill="#e0e0e0" stroke="#999999" points="4667.75,-26 4545.25,-26 4545.25,-6 4667.75,-6 4667.75,-26"/>
<text text-anchor="middle" x="4606.5" y="-12.5" font-family="Helvetica,sans-Serif" font-size="10.00">javafx.scene.control.Tab</text>
</a>
</g>
</g>
<!-- Node1&#45;&gt;Node31 -->
<g id="edge30_Node000001_Node000031" class="edge">
<title>Node1&#45;&gt;Node31</title>
<g id="a_edge30_Node000001_Node000031"><a xlink:title=" ">
<path fill="none" stroke="#63b8ff" d="M3435.6,-89.65C3630.2,-90.12 4126.23,-85.46 4536.5,-32 4543.05,-31.15 4549.9,-30 4556.65,-28.72"/>
<polygon fill="#63b8ff" stroke="#63b8ff" points="4557.22,-32.17 4566.33,-26.77 4555.84,-25.31 4557.22,-32.17"/>
</a>
</g>
</g>
<!-- Node32 -->
<g id="Node000032" class="node">
<title>Node32</title>
<g id="a_Node000032"><a xlink:title=" ">
<polygon fill="#e0e0e0" stroke="#999999" points="4833.12,-26 4685.88,-26 4685.88,-6 4833.12,-6 4833.12,-26"/>
<text text-anchor="middle" x="4759.5" y="-12.5" font-family="Helvetica,sans-Serif" font-size="10.00">javafx.scene.control.TableCell</text>
</a>
</g>
</g>
<!-- Node1&#45;&gt;Node32 -->
<g id="edge31_Node000001_Node000032" class="edge">
<title>Node1&#45;&gt;Node32</title>
<g id="a_edge31_Node000001_Node000032"><a xlink:title=" ">
<path fill="none" stroke="#63b8ff" d="M3435.52,-89.33C3645.47,-89.31 4209.68,-83.98 4676.5,-32 4684.9,-31.06 4693.73,-29.79 4702.37,-28.37"/>
<polygon fill="#63b8ff" stroke="#63b8ff" points="4702.81,-31.85 4712.07,-26.71 4701.63,-24.95 4702.81,-31.85"/>
</a>
</g>
</g>
<!-- Node33 -->
<g id="Node000033" class="node">
<title>Node33</title>
<g id="a_Node000033"><a xlink:title=" ">
<polygon fill="#e0e0e0" stroke="#999999" points="4981.5,-32 4851.5,-32 4851.5,0 4981.5,0 4981.5,-32"/>
<text text-anchor="start" x="4859.5" y="-18.5" font-family="Helvetica,sans-Serif" font-size="10.00">javafx.scene.control.Table</text>
<text text-anchor="middle" x="4916.5" y="-6.5" font-family="Helvetica,sans-Serif" font-size="10.00">Column</text>
</a>
</g>
</g>
<!-- Node1&#45;&gt;Node33 -->
<g id="edge32_Node000001_Node000033" class="edge">
<title>Node1&#45;&gt;Node33</title>
<g id="a_edge32_Node000001_Node000033"><a xlink:title=" ">
<path fill="none" stroke="#63b8ff" d="M3435.55,-87.58C3704.83,-82.74 4545.26,-65.42 4840.12,-32.12"/>
<polygon fill="#63b8ff" stroke="#63b8ff" points="4840.19,-35.64 4849.72,-31 4839.38,-28.68 4840.19,-35.64"/>
</a>
</g>
</g>
<!-- Node34 -->
<g id="Node000034" class="node">
<title>Node34</title>
<g id="a_Node000034"><a xlink:title=" ">
<polygon fill="#e0e0e0" stroke="#999999" points="5151.38,-26 4999.62,-26 4999.62,-6 5151.38,-6 5151.38,-26"/>
<text text-anchor="middle" x="5075.5" y="-12.5" font-family="Helvetica,sans-Serif" font-size="10.00">javafx.scene.control.TableView</text>
</a>
</g>
</g>
<!-- Node1&#45;&gt;Node34 -->
<g id="edge33_Node000001_Node000034" class="edge">
<title>Node1&#45;&gt;Node34</title>
<g id="a_edge33_Node000001_Node000034"><a xlink:title=" ">
<path fill="none" stroke="#63b8ff" d="M3435.63,-87.63C3725.89,-82.67 4684.33,-64.18 4990.5,-32 4999.3,-31.07 5008.57,-29.78 5017.61,-28.33"/>
<polygon fill="#63b8ff" stroke="#63b8ff" points="5018.13,-31.79 5027.41,-26.68 5016.97,-24.89 5018.13,-31.79"/>
</a>
</g>
</g>
<!-- Node35 -->
<g id="Node000035" class="node">
<title>Node35</title>
<g id="a_Node000035"><a xlink:title=" ">
<polygon fill="#e0e0e0" stroke="#999999" points="5315.38,-26 5169.62,-26 5169.62,-6 5315.38,-6 5315.38,-26"/>
<text text-anchor="middle" x="5242.5" y="-12.5" font-family="Helvetica,sans-Serif" font-size="10.00">javafx.scene.control.TextArea</text>
</a>
</g>
</g>
<!-- Node1&#45;&gt;Node35 -->
<g id="edge34_Node000001_Node000035" class="edge">
<title>Node1&#45;&gt;Node35</title>
<g id="a_edge34_Node000001_Node000035"><a xlink:title=" ">
<path fill="none" stroke="#63b8ff" d="M3435.67,-88.02C3745.12,-84.15 4819.54,-68.35 5160.5,-32 5168.91,-31.1 5177.74,-29.84 5186.38,-28.41"/>
<polygon fill="#63b8ff" stroke="#63b8ff" points="5186.82,-31.89 5196.07,-26.73 5185.62,-24.99 5186.82,-31.89"/>
</a>
</g>
</g>
<!-- Node36 -->
<g id="Node000036" class="node">
<title>Node36</title>
<g id="a_Node000036"><a xlink:title=" ">
<polygon fill="#e0e0e0" stroke="#999999" points="5459.25,-32 5333.75,-32 5333.75,0 5459.25,0 5459.25,-32"/>
<text text-anchor="start" x="5341.75" y="-18.5" font-family="Helvetica,sans-Serif" font-size="10.00">javafx.scene.control.Text</text>
<text text-anchor="middle" x="5396.5" y="-6.5" font-family="Helvetica,sans-Serif" font-size="10.00">Field</text>
</a>
</g>
</g>
<!-- Node1&#45;&gt;Node36 -->
<g id="edge35_Node000001_Node000036" class="edge">
<title>Node1&#45;&gt;Node36</title>
<g id="a_edge35_Node000001_Node000036"><a xlink:title=" ">
<path fill="none" stroke="#63b8ff" d="M3435.65,-88.55C3759.66,-86.5 4927.71,-76.24 5322.23,-32.09"/>
<polygon fill="#63b8ff" stroke="#63b8ff" points="5322.35,-35.6 5331.88,-30.98 5321.55,-28.64 5322.35,-35.6"/>
</a>
</g>
</g>
<!-- Node37 -->
<g id="Node000037" class="node">
<title>Node37</title>
<g id="a_Node000037"><a xlink:title=" ">
<polygon fill="#e0e0e0" stroke="#999999" points="5601.88,-32 5477.12,-32 5477.12,0 5601.88,0 5601.88,-32"/>
<text text-anchor="start" x="5485.12" y="-18.5" font-family="Helvetica,sans-Serif" font-size="10.00">javafx.scene.control.cell.</text>
<text text-anchor="middle" x="5539.5" y="-6.5" font-family="Helvetica,sans-Serif" font-size="10.00">PropertyValueFactory</text>
</a>
</g>
</g>
<!-- Node1&#45;&gt;Node37 -->
<g id="edge36_Node000001_Node000037" class="edge">
<title>Node1&#45;&gt;Node37</title>
<g id="a_edge36_Node000001_Node000037"><a xlink:title=" ">
<path fill="none" stroke="#63b8ff" d="M3435.61,-88.77C3774.48,-87.54 5041.4,-79.85 5465.5,-32.19"/>
<polygon fill="#63b8ff" stroke="#63b8ff" points="5465.85,-35.67 5475.38,-31.05 5465.04,-28.71 5465.85,-35.67"/>
</a>
</g>
</g>
<!-- Node38 -->
<g id="Node000038" class="node">
<title>Node38</title>
<g id="a_Node000038"><a xlink:title=" ">
<polygon fill="#e0e0e0" stroke="#999999" points="5767.12,-26 5619.88,-26 5619.88,-6 5767.12,-6 5767.12,-26"/>
<text text-anchor="middle" x="5693.5" y="-12.5" font-family="Helvetica,sans-Serif" font-size="10.00">javafx.scene.layout.FlowPane</text>
</a>
</g>
</g>
<!-- Node1&#45;&gt;Node38 -->
<g id="edge37_Node000001_Node000038" class="edge">
<title>Node1&#45;&gt;Node38</title>
<g id="a_edge37_Node000001_Node000038"><a xlink:title=" ">
<path fill="none" stroke="#63b8ff" d="M3435.72,-88.61C3791.96,-86.68 5176.57,-76.42 5610.5,-32 5619.21,-31.11 5628.37,-29.82 5637.31,-28.36"/>
<polygon fill="#63b8ff" stroke="#63b8ff" points="5637.7,-31.84 5646.96,-26.7 5636.51,-24.94 5637.7,-31.84"/>
</a>
</g>
</g>
<!-- Node39 -->
<g id="Node000039" class="node">
<title>Node39</title>
<g id="a_Node000039"><a xlink:title=" ">
<polygon fill="#e0e0e0" stroke="#999999" points="5929.62,-26 5785.38,-26 5785.38,-6 5929.62,-6 5929.62,-26"/>
<text text-anchor="middle" x="5857.5" y="-12.5" font-family="Helvetica,sans-Serif" font-size="10.00">javafx.scene.layout.GridPane</text>
</a>
</g>
</g>
<!-- Node1&#45;&gt;Node39 -->
<g id="edge38_Node000001_Node000039" class="edge">
<title>Node1&#45;&gt;Node39</title>
<g id="a_edge38_Node000001_Node000039"><a xlink:title=" ">
<path fill="none" stroke="#63b8ff" d="M3435.57,-88.83C3807.61,-87.78 5308.14,-80.56 5776.5,-32 5784.91,-31.13 5793.75,-29.86 5802.38,-28.42"/>
<polygon fill="#63b8ff" stroke="#63b8ff" points="5802.81,-31.9 5812.05,-26.72 5801.6,-25.01 5802.81,-31.9"/>
</a>
</g>
</g>
<!-- Node40 -->
<g id="Node000040" class="node">
<title>Node40</title>
<g id="a_Node000040"><a xlink:title=" ">
<polygon fill="#e0e0e0" stroke="#999999" points="6075.75,-26 5947.25,-26 5947.25,-6 6075.75,-6 6075.75,-26"/>
<text text-anchor="middle" x="6011.5" y="-12.5" font-family="Helvetica,sans-Serif" font-size="10.00">javafx.scene.layout.HBox</text>
</a>
</g>
</g>
<!-- Node1&#45;&gt;Node40 -->
<g id="edge39_Node000001_Node000040" class="edge">
<title>Node1&#45;&gt;Node40</title>
<g id="a_edge39_Node000001_Node000040"><a xlink:title=" ">
<path fill="none" stroke="#63b8ff" d="M3435.63,-89.19C3822.97,-89.75 5436.99,-88.58 5938.5,-32 5945.76,-31.18 5953.36,-29.99 5960.81,-28.64"/>
<polygon fill="#63b8ff" stroke="#63b8ff" points="5961.29,-32.11 5970.44,-26.77 5959.96,-25.24 5961.29,-32.11"/>
</a>
</g>
</g>
<!-- Node41 -->
<g id="Node000041" class="node">
<title>Node41</title>
<g id="a_Node000041"><a xlink:title=" ">
<polygon fill="#e0e0e0" stroke="#999999" points="6221.38,-26 6093.62,-26 6093.62,-6 6221.38,-6 6221.38,-26"/>
<text text-anchor="middle" x="6157.5" y="-12.5" font-family="Helvetica,sans-Serif" font-size="10.00">javafx.scene.layout.VBox</text>
</a>
</g>
</g>
<!-- Node1&#45;&gt;Node41 -->
<g id="edge40_Node000001_Node000041" class="edge">
<title>Node1&#45;&gt;Node41</title>
<g id="a_edge40_Node000001_Node000041"><a xlink:title=" ">
<path fill="none" stroke="#63b8ff" d="M3435.66,-89.31C3836.27,-90.45 5552.6,-91.69 6084.5,-32 6091.76,-31.19 6099.36,-30 6106.81,-28.65"/>
<polygon fill="#63b8ff" stroke="#63b8ff" points="6107.29,-32.12 6116.44,-26.78 6105.96,-25.25 6107.29,-32.12"/>
</a>
</g>
</g>
<!-- Node42 -->
<g id="Node000042" class="node">
<title>Node42</title>
<g id="a_Node000042"><a xlink:title=" ">
<polygon fill="#e0e0e0" stroke="#999999" points="6351.88,-26 6239.12,-26 6239.12,-6 6351.88,-6 6351.88,-26"/>
<text text-anchor="middle" x="6295.5" y="-12.5" font-family="Helvetica,sans-Serif" font-size="10.00">javafx.scene.text.Text</text>
</a>
</g>
</g>
<!-- Node1&#45;&gt;Node42 -->
<g id="edge41_Node000001_Node000042" class="edge">
<title>Node1&#45;&gt;Node42</title>
<g id="a_edge41_Node000001_Node000042"><a xlink:title=" ">
<path fill="none" stroke="#63b8ff" d="M3435.67,-88.37C3880.45,-84.92 5947.4,-67.08 6230.5,-32 6236.68,-31.23 6243.13,-30.13 6249.46,-28.86"/>
<polygon fill="#63b8ff" stroke="#63b8ff" points="6250.14,-32.29 6259.17,-26.76 6248.66,-25.45 6250.14,-32.29"/>
</a>
</g>
</g>
<!-- Node43 -->
<g id="Node000043" class="node">
<title>Node43</title>
<g id="a_Node000043"><a xlink:title=" ">
<polygon fill="#e0e0e0" stroke="#999999" points="6467.38,-26 6369.62,-26 6369.62,-6 6467.38,-6 6467.38,-26"/>
<text text-anchor="middle" x="6418.5" y="-12.5" font-family="Helvetica,sans-Serif" font-size="10.00">javafx.stage.Stage</text>
</a>
</g>
</g>
<!-- Node1&#45;&gt;Node43 -->
<g id="edge42_Node000001_Node000043" class="edge">
<title>Node1&#45;&gt;Node43</title>
<g id="a_edge42_Node000001_Node000043"><a xlink:title=" ">
<path fill="none" stroke="#63b8ff" d="M3435.71,-88.58C3892.6,-86.15 6064.3,-72.54 6360.5,-32 6365.76,-31.28 6371.23,-30.25 6376.62,-29.06"/>
<polygon fill="#63b8ff" stroke="#63b8ff" points="6377.09,-32.55 6385.99,-26.81 6375.45,-25.74 6377.09,-32.55"/>
</a>
</g>
</g>
<!-- Node44 -->
<g id="Node000044" class="node">
<title>Node44</title>
<g id="a_Node000044"><a xlink:title=" ">
<polygon fill="#e0e0e0" stroke="#999999" points="6585.12,-26 6485.88,-26 6485.88,-6 6585.12,-6 6585.12,-26"/>
<text text-anchor="middle" x="6535.5" y="-12.5" font-family="Helvetica,sans-Serif" font-size="10.00">javafx.util.Callback</text>
</a>
</g>
</g>
<!-- Node1&#45;&gt;Node44 -->
<g id="edge43_Node000001_Node000044" class="edge">
<title>Node1&#45;&gt;Node44</title>
<g id="a_edge43_Node000001_Node000044"><a xlink:title=" ">
<path fill="none" stroke="#63b8ff" d="M3435.49,-88.63C3902.34,-86.39 6168.03,-73.46 6476.5,-32 6481.85,-31.28 6487.41,-30.25 6492.89,-29.07"/>
<polygon fill="#63b8ff" stroke="#63b8ff" points="6493.52,-32.51 6502.45,-26.81 6491.91,-25.7 6493.52,-32.51"/>
</a>
</g>
</g>
</g>
</svg>
