<?xml version="1.0" encoding="UTF-8" standalone="no"?>
<!DOCTYPE svg PUBLIC "-//W3C//DTD SVG 1.1//EN"
 "http://www.w3.org/Graphics/SVG/1.1/DTD/svg11.dtd">
<!-- Generated by graphviz version 12.2.1 (20241206.2353)
 -->
<!-- Title: src/main/java/com/hust/ittnk68/cnpm/view/AdminPersonManagePage.java Pages: 1 -->
<svg width="6217pt" height="120pt"
 viewBox="0.00 0.00 6217.12 120.00" xmlns="http://www.w3.org/2000/svg" xmlns:xlink="http://www.w3.org/1999/xlink">
<g id="graph0" class="graph" transform="scale(1 1) rotate(0) translate(4 116)">
<title>src/main/java/com/hust/ittnk68/cnpm/view/AdminPersonManagePage.java</title>
<!-- Node1 -->
<g id="Node000001" class="node">
<title>Node1</title>
<g id="a_Node000001"><a xlink:title=" ">
<polygon fill="#999999" stroke="#666666" points="3226.5,-112 3066.5,-112 3066.5,-68 3226.5,-68 3226.5,-112"/>
<text text-anchor="start" x="3074.5" y="-98.5" font-family="Helvetica,sans-Serif" font-size="10.00">src/main/java/com/hust</text>
<text text-anchor="start" x="3074.5" y="-86.5" font-family="Helvetica,sans-Serif" font-size="10.00">/ittnk68/cnpm/view/AdminPerson</text>
<text text-anchor="middle" x="3146.5" y="-74.5" font-family="Helvetica,sans-Serif" font-size="10.00">ManagePage.java</text>
</a>
</g>
</g>
<!-- Node2 -->
<g id="Node000002" class="node">
<title>Node2</title>
<g id="a_Node000002"><a xlink:title=" ">
<polygon fill="#e0e0e0" stroke="#999999" points="103,-26 0,-26 0,-6 103,-6 103,-26"/>
<text text-anchor="middle" x="51.5" y="-12.5" font-family="Helvetica,sans-Serif" font-size="10.00">java.time.LocalDate</text>
</a>
</g>
</g>
<!-- Node1&#45;&gt;Node2 -->
<g id="edge1_Node000001_Node000002" class="edge">
<title>Node1&#45;&gt;Node2</title>
<g id="a_edge1_Node000001_Node000002"><a xlink:title=" ">
<path fill="none" stroke="#63b8ff" d="M3066.07,-88.56C2615.33,-85.94 412.38,-71.19 112.5,-32 106.83,-31.26 100.93,-30.19 95.12,-28.97"/>
<polygon fill="#63b8ff" stroke="#63b8ff" points="96.17,-25.62 85.64,-26.79 94.61,-32.44 96.17,-25.62"/>
</a>
</g>
</g>
<!-- Node3 -->
<g id="Node000003" class="node">
<title>Node3</title>
<g id="a_Node000003"><a xlink:title=" ">
<polygon fill="#e0e0e0" stroke="#999999" points="209.88,-26 121.12,-26 121.12,-6 209.88,-6 209.88,-26"/>
<text text-anchor="middle" x="165.5" y="-12.5" font-family="Helvetica,sans-Serif" font-size="10.00">java.time.ZoneId</text>
</a>
</g>
</g>
<!-- Node1&#45;&gt;Node3 -->
<g id="edge2_Node000001_Node000003" class="edge">
<title>Node1&#45;&gt;Node3</title>
<g id="a_edge2_Node000001_Node000003"><a xlink:title=" ">
<path fill="none" stroke="#63b8ff" d="M3066.35,-88.67C2625.64,-86.66 506.65,-74.85 218.5,-32 214.05,-31.34 209.45,-30.41 204.9,-29.34"/>
<polygon fill="#63b8ff" stroke="#63b8ff" points="205.84,-25.97 195.28,-26.84 204.07,-32.75 205.84,-25.97"/>
</a>
</g>
</g>
<!-- Node4 -->
<g id="Node000004" class="node">
<title>Node4</title>
<g id="a_Node000004"><a xlink:title=" ">
<polygon fill="#e0e0e0" stroke="#999999" points="319.38,-26 227.62,-26 227.62,-6 319.38,-6 319.38,-26"/>
<text text-anchor="middle" x="273.5" y="-12.5" font-family="Helvetica,sans-Serif" font-size="10.00">java.util.ArrayList</text>
</a>
</g>
</g>
<!-- Node1&#45;&gt;Node4 -->
<g id="edge3_Node000001_Node000004" class="edge">
<title>Node1&#45;&gt;Node4</title>
<g id="a_edge3_Node000001_Node000004"><a xlink:title=" ">
<path fill="none" stroke="#63b8ff" d="M3066.22,-88.55C2635.25,-86 605.32,-71.92 328.5,-32 323.76,-31.32 318.85,-30.36 314,-29.25"/>
<polygon fill="#63b8ff" stroke="#63b8ff" points="314.92,-25.87 304.37,-26.82 313.21,-32.66 314.92,-25.87"/>
</a>
</g>
</g>
<!-- Node5 -->
<g id="Node000005" class="node">
<title>Node5</title>
<g id="a_Node000005"><a xlink:title=" ">
<polygon fill="#e0e0e0" stroke="#999999" points="405.75,-26 337.25,-26 337.25,-6 405.75,-6 405.75,-26"/>
<text text-anchor="middle" x="371.5" y="-12.5" font-family="Helvetica,sans-Serif" font-size="10.00">java.util.List</text>
</a>
</g>
</g>
<!-- Node1&#45;&gt;Node5 -->
<g id="edge4_Node000001_Node000005" class="edge">
<title>Node1&#45;&gt;Node5</title>
<g id="a_edge4_Node000001_Node000005"><a xlink:title=" ">
<path fill="none" stroke="#63b8ff" d="M3066.23,-88.79C2643.22,-87.51 681.92,-79.03 415.5,-32 412.3,-31.43 409.01,-30.68 405.75,-29.8"/>
<polygon fill="#63b8ff" stroke="#63b8ff" points="406.93,-26.5 396.34,-26.91 404.87,-33.19 406.93,-26.5"/>
</a>
</g>
</g>
<!-- Node6 -->
<g id="Node000006" class="node">
<title>Node6</title>
<g id="a_Node000006"><a xlink:title=" ">
<polygon fill="#e0e0e0" stroke="#999999" points="512.88,-26 424.12,-26 424.12,-6 512.88,-6 512.88,-26"/>
<text text-anchor="middle" x="468.5" y="-12.5" font-family="Helvetica,sans-Serif" font-size="10.00">java.util.Optional</text>
</a>
</g>
</g>
<!-- Node1&#45;&gt;Node6 -->
<g id="edge5_Node000001_Node000006" class="edge">
<title>Node1&#45;&gt;Node6</title>
<g id="a_edge5_Node000001_Node000006"><a xlink:title=" ">
<path fill="none" stroke="#63b8ff" d="M3066.02,-88.47C2652.68,-85.58 777.96,-70.44 521.5,-32 517.05,-31.33 512.45,-30.41 507.9,-29.33"/>
<polygon fill="#63b8ff" stroke="#63b8ff" points="508.84,-25.96 498.28,-26.83 507.07,-32.74 508.84,-25.96"/>
</a>
</g>
</g>
<!-- Node7 -->
<g id="Node000007" class="node">
<title>Node7</title>
<g id="a_Node000007"><a xlink:title=" ">
<polygon fill="#e0e0e0" stroke="#999999" points="658.38,-32 530.62,-32 530.62,0 658.38,0 658.38,-32"/>
<text text-anchor="start" x="538.62" y="-18.5" font-family="Helvetica,sans-Serif" font-size="10.00">org.kordamp.ikonli.javafx.</text>
<text text-anchor="middle" x="594.5" y="-6.5" font-family="Helvetica,sans-Serif" font-size="10.00">FontIcon</text>
</a>
</g>
</g>
<!-- Node1&#45;&gt;Node7 -->
<g id="edge6_Node000001_Node000007" class="edge">
<title>Node1&#45;&gt;Node7</title>
<g id="a_edge6_Node000001_Node000007"><a xlink:title=" ">
<path fill="none" stroke="#63b8ff" d="M3066.19,-89.09C2698.38,-89.23 1171.55,-86.51 669.79,-32.08"/>
<polygon fill="#63b8ff" stroke="#63b8ff" points="670.32,-28.62 659.99,-30.99 669.55,-35.57 670.32,-28.62"/>
</a>
</g>
</g>
<!-- Node8 -->
<g id="Node000008" class="node">
<title>Node8</title>
<g id="a_Node000008"><a xlink:title=" ">
<polygon fill="#e0e0e0" stroke="#999999" points="818.12,-32 676.88,-32 676.88,0 818.12,0 818.12,-32"/>
<text text-anchor="start" x="684.88" y="-18.5" font-family="Helvetica,sans-Serif" font-size="10.00">org.kordamp.ikonli.material2.</text>
<text text-anchor="middle" x="747.5" y="-6.5" font-family="Helvetica,sans-Serif" font-size="10.00">Material2MZ</text>
</a>
</g>
</g>
<!-- Node1&#45;&gt;Node8 -->
<g id="edge7_Node000001_Node000008" class="edge">
<title>Node1&#45;&gt;Node8</title>
<g id="a_edge7_Node000001_Node000008"><a xlink:title=" ">
<path fill="none" stroke="#63b8ff" d="M3066.06,-88.78C2712.98,-87.57 1297.52,-79.83 829.69,-32.21"/>
<polygon fill="#63b8ff" stroke="#63b8ff" points="830.29,-28.75 819.98,-31.2 829.57,-35.72 830.29,-28.75"/>
</a>
</g>
</g>
<!-- Node9 -->
<g id="Node000009" class="node">
<title>Node9</title>
<g id="a_Node000009"><a xlink:title=" ">
<polygon fill="#e0e0e0" stroke="#999999" points="977.12,-32 835.88,-32 835.88,0 977.12,0 977.12,-32"/>
<text text-anchor="start" x="843.88" y="-18.5" font-family="Helvetica,sans-Serif" font-size="10.00">org.kordamp.ikonli.material2.</text>
<text text-anchor="middle" x="906.5" y="-6.5" font-family="Helvetica,sans-Serif" font-size="10.00">Material2OutlinedAL</text>
</a>
</g>
</g>
<!-- Node1&#45;&gt;Node9 -->
<g id="edge8_Node000001_Node000009" class="edge">
<title>Node1&#45;&gt;Node9</title>
<g id="a_edge8_Node000001_Node000009"><a xlink:title=" ">
<path fill="none" stroke="#63b8ff" d="M3066.21,-88.62C2728.83,-86.74 1423.74,-76.76 988.84,-32.23"/>
<polygon fill="#63b8ff" stroke="#63b8ff" points="989.29,-28.76 978.98,-31.19 988.56,-35.72 989.29,-28.76"/>
</a>
</g>
</g>
<!-- Node10 -->
<g id="Node000010" class="node">
<title>Node10</title>
<g id="a_Node000010"><a xlink:title=" ">
<polygon fill="#e0e0e0" stroke="#999999" points="1136.12,-32 994.88,-32 994.88,0 1136.12,0 1136.12,-32"/>
<text text-anchor="start" x="1002.88" y="-18.5" font-family="Helvetica,sans-Serif" font-size="10.00">org.kordamp.ikonli.material2.</text>
<text text-anchor="middle" x="1065.5" y="-6.5" font-family="Helvetica,sans-Serif" font-size="10.00">Material2OutlinedMZ</text>
</a>
</g>
</g>
<!-- Node1&#45;&gt;Node10 -->
<g id="edge9_Node000001_Node000010" class="edge">
<title>Node1&#45;&gt;Node10</title>
<g id="a_edge9_Node000001_Node000010"><a xlink:title=" ">
<path fill="none" stroke="#63b8ff" d="M3066.21,-88.4C2744.94,-85.72 1550.49,-73.23 1147.9,-32.11"/>
<polygon fill="#63b8ff" stroke="#63b8ff" points="1148.33,-28.63 1138.02,-31.07 1147.6,-35.59 1148.33,-28.63"/>
</a>
</g>
</g>
<!-- Node11 -->
<g id="Node000011" class="node">
<title>Node11</title>
<g id="a_Node000011"><a xlink:title=" ">
<polygon fill="#e0e0e0" stroke="#999999" points="1312.38,-32 1154.62,-32 1154.62,0 1312.38,0 1312.38,-32"/>
<text text-anchor="start" x="1162.62" y="-18.5" font-family="Helvetica,sans-Serif" font-size="10.00">com.fasterxml.jackson.databind.</text>
<text text-anchor="middle" x="1233.5" y="-6.5" font-family="Helvetica,sans-Serif" font-size="10.00">ObjectMapper</text>
</a>
</g>
</g>
<!-- Node1&#45;&gt;Node11 -->
<g id="edge10_Node000001_Node000011" class="edge">
<title>Node1&#45;&gt;Node11</title>
<g id="a_edge10_Node000001_Node000011"><a xlink:title=" ">
<path fill="none" stroke="#63b8ff" d="M3066.11,-87.96C2763.24,-83.83 1690.22,-67.07 1324,-32.13"/>
<polygon fill="#63b8ff" stroke="#63b8ff" points="1324.38,-28.65 1314.09,-31.16 1323.7,-35.61 1324.38,-28.65"/>
</a>
</g>
</g>
<!-- Node12 -->
<g id="Node000012" class="node">
<title>Node12</title>
<g id="a_Node000012"><a xlink:title=" ">
<polygon fill="#e0e0e0" stroke="#999999" points="1488.38,-32 1330.62,-32 1330.62,0 1488.38,0 1488.38,-32"/>
<text text-anchor="start" x="1338.62" y="-18.5" font-family="Helvetica,sans-Serif" font-size="10.00">com.fasterxml.jackson.databind.</text>
<text text-anchor="middle" x="1409.5" y="-6.5" font-family="Helvetica,sans-Serif" font-size="10.00">SerializationFeature</text>
</a>
</g>
</g>
<!-- Node1&#45;&gt;Node12 -->
<g id="edge11_Node000001_Node000012" class="edge">
<title>Node1&#45;&gt;Node12</title>
<g id="a_edge11_Node000001_Node000012"><a xlink:title=" ">
<path fill="none" stroke="#63b8ff" d="M3066.36,-87.66C2783.12,-82.69 1828.99,-64.03 1499.57,-32.09"/>
<polygon fill="#63b8ff" stroke="#63b8ff" points="1500.39,-28.65 1490.09,-31.15 1499.7,-35.62 1500.39,-28.65"/>
</a>
</g>
</g>
<!-- Node13 -->
<g id="Node000013" class="node">
<title>Node13</title>
<g id="a_Node000013"><a xlink:title=" ">
<polygon fill="#e0e0e0" stroke="#999999" points="1694.38,-32 1506.62,-32 1506.62,0 1694.38,0 1694.38,-32"/>
<text text-anchor="start" x="1514.62" y="-18.5" font-family="Helvetica,sans-Serif" font-size="10.00">com.hust.ittnk68.cnpm.communication.</text>
<text text-anchor="middle" x="1600.5" y="-6.5" font-family="Helvetica,sans-Serif" font-size="10.00">AdminDeleteObject</text>
</a>
</g>
</g>
<!-- Node1&#45;&gt;Node13 -->
<g id="edge12_Node000001_Node000013" class="edge">
<title>Node1&#45;&gt;Node13</title>
<g id="a_edge12_Node000001_Node000013"><a xlink:title=" ">
<path fill="none" stroke="#63b8ff" d="M3066.13,-88.78C2848.61,-87.57 2230.06,-79.9 1705.95,-32.16"/>
<polygon fill="#63b8ff" stroke="#63b8ff" points="1706.54,-28.7 1696.26,-31.27 1705.9,-35.67 1706.54,-28.7"/>
</a>
</g>
</g>
<!-- Node14 -->
<g id="Node000014" class="node">
<title>Node14</title>
<g id="a_Node000014"><a xlink:title=" ">
<polygon fill="#e0e0e0" stroke="#999999" points="1900.38,-32 1712.62,-32 1712.62,0 1900.38,0 1900.38,-32"/>
<text text-anchor="start" x="1720.62" y="-18.5" font-family="Helvetica,sans-Serif" font-size="10.00">com.hust.ittnk68.cnpm.communication.</text>
<text text-anchor="middle" x="1806.5" y="-6.5" font-family="Helvetica,sans-Serif" font-size="10.00">ServerDeleteObjectResponse</text>
</a>
</g>
</g>
<!-- Node1&#45;&gt;Node14 -->
<g id="edge13_Node000001_Node000014" class="edge">
<title>Node1&#45;&gt;Node14</title>
<g id="a_edge13_Node000001_Node000014"><a xlink:title=" ">
<path fill="none" stroke="#63b8ff" d="M3066.35,-88.04C2870.83,-85.11 2353.68,-73.81 1912.15,-32.19"/>
<polygon fill="#63b8ff" stroke="#63b8ff" points="1912.55,-28.71 1902.26,-31.25 1911.89,-35.68 1912.55,-28.71"/>
</a>
</g>
</g>
<!-- Node15 -->
<g id="Node000015" class="node">
<title>Node15</title>
<g id="a_Node000015"><a xlink:title=" ">
<polygon fill="#e0e0e0" stroke="#999999" points="2078.88,-32 1918.12,-32 1918.12,0 2078.88,0 2078.88,-32"/>
<text text-anchor="start" x="1926.12" y="-18.5" font-family="Helvetica,sans-Serif" font-size="10.00">com.hust.ittnk68.cnpm.controller.</text>
<text text-anchor="middle" x="1998.5" y="-6.5" font-family="Helvetica,sans-Serif" font-size="10.00">ClientSceneController</text>
</a>
</g>
</g>
<!-- Node1&#45;&gt;Node15 -->
<g id="edge14_Node000001_Node000015" class="edge">
<title>Node1&#45;&gt;Node15</title>
<g id="a_edge14_Node000001_Node000015"><a xlink:title=" ">
<path fill="none" stroke="#63b8ff" d="M3066.21,-87.78C2890.81,-84.43 2460.18,-72.57 2090.18,-32.22"/>
<polygon fill="#63b8ff" stroke="#63b8ff" points="2090.8,-28.76 2080.48,-31.15 2090.03,-35.72 2090.8,-28.76"/>
</a>
</g>
</g>
<!-- Node16 -->
<g id="Node000016" class="node">
<title>Node16</title>
<g id="a_Node000016"><a xlink:title=" ">
<polygon fill="#e0e0e0" stroke="#999999" points="2244.5,-32 2096.5,-32 2096.5,0 2244.5,0 2244.5,-32"/>
<text text-anchor="start" x="2104.5" y="-18.5" font-family="Helvetica,sans-Serif" font-size="10.00">com.hust.ittnk68.cnpm.model.</text>
<text text-anchor="middle" x="2170.5" y="-6.5" font-family="Helvetica,sans-Serif" font-size="10.00">CreatePersonModel</text>
</a>
</g>
</g>
<!-- Node1&#45;&gt;Node16 -->
<g id="edge15_Node000001_Node000016" class="edge">
<title>Node1&#45;&gt;Node16</title>
<g id="a_edge15_Node000001_Node000016"><a xlink:title=" ">
<path fill="none" stroke="#63b8ff" d="M3066.17,-86.97C2911.31,-82.38 2560.59,-68.7 2255.92,-32.2"/>
<polygon fill="#63b8ff" stroke="#63b8ff" points="2256.5,-28.74 2246.15,-31.02 2255.66,-35.69 2256.5,-28.74"/>
</a>
</g>
</g>
<!-- Node17 -->
<g id="Node000017" class="node">
<title>Node17</title>
<g id="a_Node000017"><a xlink:title=" ">
<polygon fill="#e0e0e0" stroke="#999999" points="2410.5,-32 2262.5,-32 2262.5,0 2410.5,0 2410.5,-32"/>
<text text-anchor="start" x="2270.5" y="-18.5" font-family="Helvetica,sans-Serif" font-size="10.00">com.hust.ittnk68.cnpm.model.</text>
<text text-anchor="middle" x="2336.5" y="-6.5" font-family="Helvetica,sans-Serif" font-size="10.00">Person</text>
</a>
</g>
</g>
<!-- Node1&#45;&gt;Node17 -->
<g id="edge16_Node000001_Node000017" class="edge">
<title>Node1&#45;&gt;Node17</title>
<g id="a_edge16_Node000001_Node000017"><a xlink:title=" ">
<path fill="none" stroke="#63b8ff" d="M3066.08,-85.34C2933.84,-78.74 2662.02,-62.73 2422.06,-32.25"/>
<polygon fill="#63b8ff" stroke="#63b8ff" points="2422.52,-28.78 2412.16,-30.98 2421.63,-35.72 2422.52,-28.78"/>
</a>
</g>
</g>
<!-- Node18 -->
<g id="Node000018" class="node">
<title>Node18</title>
<g id="a_Node000018"><a xlink:title=" ">
<polygon fill="#e0e0e0" stroke="#999999" points="2576.5,-32 2428.5,-32 2428.5,0 2576.5,0 2576.5,-32"/>
<text text-anchor="start" x="2436.5" y="-18.5" font-family="Helvetica,sans-Serif" font-size="10.00">com.hust.ittnk68.cnpm.model.</text>
<text text-anchor="middle" x="2502.5" y="-6.5" font-family="Helvetica,sans-Serif" font-size="10.00">UpdatePersonModel</text>
</a>
</g>
</g>
<!-- Node1&#45;&gt;Node18 -->
<g id="edge17_Node000001_Node000018" class="edge">
<title>Node1&#45;&gt;Node18</title>
<g id="a_edge17_Node000001_Node000018"><a xlink:title=" ">
<path fill="none" stroke="#63b8ff" d="M3066.37,-82.82C2959.58,-74.16 2764.52,-56.8 2588,-32.28"/>
<polygon fill="#63b8ff" stroke="#63b8ff" points="2588.55,-28.83 2578.16,-30.91 2587.58,-35.76 2588.55,-28.83"/>
</a>
</g>
</g>
<!-- Node19 -->
<g id="Node000019" class="node">
<title>Node19</title>
<g id="a_Node000019"><a xlink:title=" ">
<polygon fill="#e0e0e0" stroke="#999999" points="2734.75,-32 2594.25,-32 2594.25,0 2734.75,0 2734.75,-32"/>
<text text-anchor="start" x="2602.25" y="-18.5" font-family="Helvetica,sans-Serif" font-size="10.00">com.hust.ittnk68.cnpm.type.</text>
<text text-anchor="middle" x="2664.5" y="-6.5" font-family="Helvetica,sans-Serif" font-size="10.00">Nation</text>
</a>
</g>
</g>
<!-- Node1&#45;&gt;Node19 -->
<g id="edge18_Node000001_Node000019" class="edge">
<title>Node1&#45;&gt;Node19</title>
<g id="a_edge18_Node000001_Node000019"><a xlink:title=" ">
<path fill="none" stroke="#63b8ff" d="M3066.25,-78.69C2987.54,-68.33 2863.82,-51.41 2746.47,-32.28"/>
<polygon fill="#63b8ff" stroke="#63b8ff" points="2747.07,-28.83 2736.63,-30.67 2745.94,-35.74 2747.07,-28.83"/>
</a>
</g>
</g>
<!-- Node20 -->
<g id="Node000020" class="node">
<title>Node20</title>
<g id="a_Node000020"><a xlink:title=" ">
<polygon fill="#e0e0e0" stroke="#999999" points="2893.75,-32 2753.25,-32 2753.25,0 2893.75,0 2893.75,-32"/>
<text text-anchor="start" x="2761.25" y="-18.5" font-family="Helvetica,sans-Serif" font-size="10.00">com.hust.ittnk68.cnpm.type.</text>
<text text-anchor="middle" x="2823.5" y="-6.5" font-family="Helvetica,sans-Serif" font-size="10.00">ResidenceStatus</text>
</a>
</g>
</g>
<!-- Node1&#45;&gt;Node20 -->
<g id="edge19_Node000001_Node000020" class="edge">
<title>Node1&#45;&gt;Node20</title>
<g id="a_edge19_Node000001_Node000020"><a xlink:title=" ">
<path fill="none" stroke="#63b8ff" d="M3066.24,-71.11C3016.74,-60.07 2953.46,-45.97 2903.93,-34.93"/>
<polygon fill="#63b8ff" stroke="#63b8ff" points="2904.93,-31.57 2894.41,-32.81 2903.41,-38.4 2904.93,-31.57"/>
</a>
</g>
</g>
<!-- Node21 -->
<g id="Node000021" class="node">
<title>Node21</title>
<g id="a_Node000021"><a xlink:title=" ">
<polygon fill="#e0e0e0" stroke="#999999" points="3069.38,-26 2911.62,-26 2911.62,-6 3069.38,-6 3069.38,-26"/>
<text text-anchor="middle" x="2990.5" y="-12.5" font-family="Helvetica,sans-Serif" font-size="10.00">com.hust.ittnk68.cnpm.type.Sex</text>
</a>
</g>
</g>
<!-- Node1&#45;&gt;Node21 -->
<g id="edge20_Node000001_Node000021" class="edge">
<title>Node1&#45;&gt;Node21</title>
<g id="a_edge20_Node000001_Node000021"><a xlink:title=" ">
<path fill="none" stroke="#63b8ff" d="M3100.12,-67.59C3074.65,-55.84 3043.76,-41.58 3021.27,-31.2"/>
<polygon fill="#63b8ff" stroke="#63b8ff" points="3022.89,-28.1 3012.34,-27.08 3019.96,-34.45 3022.89,-28.1"/>
</a>
</g>
</g>
<!-- Node22 -->
<g id="Node000022" class="node">
<title>Node22</title>
<g id="a_Node000022"><a xlink:title=" ">
<polygon fill="#e0e0e0" stroke="#999999" points="3205.5,-32 3087.5,-32 3087.5,0 3205.5,0 3205.5,-32"/>
<text text-anchor="start" x="3095.5" y="-18.5" font-family="Helvetica,sans-Serif" font-size="10.00">atlantafx.base.controls.</text>
<text text-anchor="middle" x="3146.5" y="-6.5" font-family="Helvetica,sans-Serif" font-size="10.00">MaskTextField</text>
</a>
</g>
</g>
<!-- Node1&#45;&gt;Node22 -->
<g id="edge21_Node000001_Node000022" class="edge">
<title>Node1&#45;&gt;Node22</title>
<g id="a_edge21_Node000001_Node000022"><a xlink:title=" ">
<path fill="none" stroke="#63b8ff" d="M3146.5,-67.79C3146.5,-60.18 3146.5,-51.52 3146.5,-43.52"/>
<polygon fill="#63b8ff" stroke="#63b8ff" points="3150,-43.64 3146.5,-33.64 3143,-43.64 3150,-43.64"/>
</a>
</g>
</g>
<!-- Node23 -->
<g id="Node000023" class="node">
<title>Node23</title>
<g id="a_Node000023"><a xlink:title=" ">
<polygon fill="#e0e0e0" stroke="#999999" points="3361.62,-26 3223.38,-26 3223.38,-6 3361.62,-6 3361.62,-26"/>
<text text-anchor="middle" x="3292.5" y="-12.5" font-family="Helvetica,sans-Serif" font-size="10.00">atlantafx.base.theme.Styles</text>
</a>
</g>
</g>
<!-- Node1&#45;&gt;Node23 -->
<g id="edge22_Node000001_Node000023" class="edge">
<title>Node1&#45;&gt;Node23</title>
<g id="a_edge22_Node000001_Node000023"><a xlink:title=" ">
<path fill="none" stroke="#63b8ff" d="M3189.91,-67.59C3213.53,-55.94 3242.13,-41.84 3263.12,-31.49"/>
<polygon fill="#63b8ff" stroke="#63b8ff" points="3264.56,-34.68 3271.98,-27.12 3261.47,-28.4 3264.56,-34.68"/>
</a>
</g>
</g>
<!-- Node24 -->
<g id="Node000024" class="node">
<title>Node24</title>
<g id="a_Node000024"><a xlink:title=" ">
<polygon fill="#e0e0e0" stroke="#999999" points="3535.62,-26 3379.38,-26 3379.38,-6 3535.62,-6 3535.62,-26"/>
<text text-anchor="middle" x="3457.5" y="-12.5" font-family="Helvetica,sans-Serif" font-size="10.00">javafx.collections.FXCollections</text>
</a>
</g>
</g>
<!-- Node1&#45;&gt;Node24 -->
<g id="edge23_Node000001_Node000024" class="edge">
<title>Node1&#45;&gt;Node24</title>
<g id="a_edge23_Node000001_Node000024"><a xlink:title=" ">
<path fill="none" stroke="#63b8ff" d="M3226.99,-70.36C3283.31,-57.33 3356.89,-40.29 3405.59,-29.02"/>
<polygon fill="#63b8ff" stroke="#63b8ff" points="3406.38,-32.43 3415.33,-26.76 3404.8,-25.61 3406.38,-32.43"/>
</a>
</g>
</g>
<!-- Node25 -->
<g id="Node000025" class="node">
<title>Node25</title>
<g id="a_Node000025"><a xlink:title=" ">
<polygon fill="#e0e0e0" stroke="#999999" points="3667.62,-26 3553.38,-26 3553.38,-6 3667.62,-6 3667.62,-26"/>
<text text-anchor="middle" x="3610.5" y="-12.5" font-family="Helvetica,sans-Serif" font-size="10.00">javafx.geometry.Insets</text>
</a>
</g>
</g>
<!-- Node1&#45;&gt;Node25 -->
<g id="edge24_Node000001_Node000025" class="edge">
<title>Node1&#45;&gt;Node25</title>
<g id="a_edge24_Node000001_Node000025"><a xlink:title=" ">
<path fill="none" stroke="#63b8ff" d="M3226.86,-79.44C3307.47,-69.39 3435.02,-52.25 3544.5,-32 3549.65,-31.05 3555,-29.97 3560.33,-28.85"/>
<polygon fill="#63b8ff" stroke="#63b8ff" points="3560.67,-32.36 3569.69,-26.81 3559.18,-25.52 3560.67,-32.36"/>
</a>
</g>
</g>
<!-- Node26 -->
<g id="Node000026" class="node">
<title>Node26</title>
<g id="a_Node000026"><a xlink:title=" ">
<polygon fill="#e0e0e0" stroke="#999999" points="3821.12,-26 3685.88,-26 3685.88,-6 3821.12,-6 3821.12,-26"/>
<text text-anchor="middle" x="3753.5" y="-12.5" font-family="Helvetica,sans-Serif" font-size="10.00">javafx.scene.control.Button</text>
</a>
</g>
</g>
<!-- Node1&#45;&gt;Node26 -->
<g id="edge25_Node000001_Node000026" class="edge">
<title>Node1&#45;&gt;Node26</title>
<g id="a_edge25_Node000001_Node000026"><a xlink:title=" ">
<path fill="none" stroke="#63b8ff" d="M3226.69,-82.52C3330.73,-73.62 3517.73,-55.96 3676.5,-32 3683.22,-30.99 3690.25,-29.8 3697.22,-28.54"/>
<polygon fill="#63b8ff" stroke="#63b8ff" points="3697.74,-32 3706.93,-26.73 3696.46,-25.12 3697.74,-32"/>
</a>
</g>
</g>
<!-- Node27 -->
<g id="Node000027" class="node">
<title>Node27</title>
<g id="a_Node000027"><a xlink:title=" ">
<polygon fill="#e0e0e0" stroke="#999999" points="3995.62,-26 3839.38,-26 3839.38,-6 3995.62,-6 3995.62,-26"/>
<text text-anchor="middle" x="3917.5" y="-12.5" font-family="Helvetica,sans-Serif" font-size="10.00">javafx.scene.control.ButtonType</text>
</a>
</g>
</g>
<!-- Node1&#45;&gt;Node27 -->
<g id="edge26_Node000001_Node000027" class="edge">
<title>Node1&#45;&gt;Node27</title>
<g id="a_edge26_Node000001_Node000027"><a xlink:title=" ">
<path fill="none" stroke="#63b8ff" d="M3226.77,-84.6C3354.8,-77.06 3613.01,-59.76 3830.5,-32 3838.75,-30.95 3847.4,-29.67 3855.93,-28.3"/>
<polygon fill="#63b8ff" stroke="#63b8ff" points="3856.22,-31.8 3865.51,-26.72 3855.08,-24.9 3856.22,-31.8"/>
</a>
</g>
</g>
<!-- Node28 -->
<g id="Node000028" class="node">
<title>Node28</title>
<g id="a_Node000028"><a xlink:title=" ">
<polygon fill="#e0e0e0" stroke="#999999" points="4169.25,-26 4013.75,-26 4013.75,-6 4169.25,-6 4169.25,-26"/>
<text text-anchor="middle" x="4091.5" y="-12.5" font-family="Helvetica,sans-Serif" font-size="10.00">javafx.scene.control.ComboBox</text>
</a>
</g>
</g>
<!-- Node1&#45;&gt;Node28 -->
<g id="edge27_Node000001_Node000028" class="edge">
<title>Node1&#45;&gt;Node28</title>
<g id="a_edge27_Node000001_Node000028"><a xlink:title=" ">
<path fill="none" stroke="#63b8ff" d="M3226.9,-86.46C3379.12,-81.03 3719.7,-65.92 4004.5,-32 4012.97,-30.99 4021.86,-29.71 4030.6,-28.33"/>
<polygon fill="#63b8ff" stroke="#63b8ff" points="4031.15,-31.79 4040.45,-26.71 4030.01,-24.88 4031.15,-31.79"/>
</a>
</g>
</g>
<!-- Node29 -->
<g id="Node000029" class="node">
<title>Node29</title>
<g id="a_Node000029"><a xlink:title=" ">
<polygon fill="#e0e0e0" stroke="#999999" points="4315.38,-32 4187.62,-32 4187.62,0 4315.38,0 4315.38,-32"/>
<text text-anchor="start" x="4195.62" y="-18.5" font-family="Helvetica,sans-Serif" font-size="10.00">javafx.scene.control.Date</text>
<text text-anchor="middle" x="4251.5" y="-6.5" font-family="Helvetica,sans-Serif" font-size="10.00">Picker</text>
</a>
</g>
</g>
<!-- Node1&#45;&gt;Node29 -->
<g id="edge28_Node000001_Node000029" class="edge">
<title>Node1&#45;&gt;Node29</title>
<g id="a_edge28_Node000001_Node000029"><a xlink:title=" ">
<path fill="none" stroke="#63b8ff" d="M3226.83,-88.59C3399.13,-86.83 3817.04,-77.9 4176.09,-32.18"/>
<polygon fill="#63b8ff" stroke="#63b8ff" points="4176.52,-35.65 4185.99,-30.9 4175.63,-28.71 4176.52,-35.65"/>
</a>
</g>
</g>
<!-- Node30 -->
<g id="Node000030" class="node">
<title>Node30</title>
<g id="a_Node000030"><a xlink:title=" ">
<polygon fill="#e0e0e0" stroke="#999999" points="4455.75,-26 4333.25,-26 4333.25,-6 4455.75,-6 4455.75,-26"/>
<text text-anchor="middle" x="4394.5" y="-12.5" font-family="Helvetica,sans-Serif" font-size="10.00">javafx.scene.control.Tab</text>
</a>
</g>
</g>
<!-- Node1&#45;&gt;Node30 -->
<g id="edge29_Node000001_Node000030" class="edge">
<title>Node1&#45;&gt;Node30</title>
<g id="a_edge29_Node000001_Node000030"><a xlink:title=" ">
<path fill="none" stroke="#63b8ff" d="M3226.89,-89.6C3418.03,-90.06 3914.37,-85.5 4324.5,-32 4331.05,-31.15 4337.9,-30 4344.65,-28.72"/>
<polygon fill="#63b8ff" stroke="#63b8ff" points="4345.22,-32.17 4354.33,-26.76 4343.84,-25.31 4345.22,-32.17"/>
</a>
</g>
</g>
<!-- Node31 -->
<g id="Node000031" class="node">
<title>Node31</title>
<g id="a_Node000031"><a xlink:title=" ">
<polygon fill="#e0e0e0" stroke="#999999" points="4621.12,-26 4473.88,-26 4473.88,-6 4621.12,-6 4621.12,-26"/>
<text text-anchor="middle" x="4547.5" y="-12.5" font-family="Helvetica,sans-Serif" font-size="10.00">javafx.scene.control.TableCell</text>
</a>
</g>
</g>
<!-- Node1&#45;&gt;Node31 -->
<g id="edge30_Node000001_Node000031" class="edge">
<title>Node1&#45;&gt;Node31</title>
<g id="a_edge30_Node000001_Node000031"><a xlink:title=" ">
<path fill="none" stroke="#63b8ff" d="M3226.65,-89.31C3432.72,-89.28 3997.59,-84.04 4464.5,-32 4472.9,-31.06 4481.73,-29.79 4490.37,-28.37"/>
<polygon fill="#63b8ff" stroke="#63b8ff" points="4490.81,-31.85 4500.07,-26.7 4489.63,-24.95 4490.81,-31.85"/>
</a>
</g>
</g>
<!-- Node32 -->
<g id="Node000032" class="node">
<title>Node32</title>
<g id="a_Node000032"><a xlink:title=" ">
<polygon fill="#e0e0e0" stroke="#999999" points="4769.5,-32 4639.5,-32 4639.5,0 4769.5,0 4769.5,-32"/>
<text text-anchor="start" x="4647.5" y="-18.5" font-family="Helvetica,sans-Serif" font-size="10.00">javafx.scene.control.Table</text>
<text text-anchor="middle" x="4704.5" y="-6.5" font-family="Helvetica,sans-Serif" font-size="10.00">Column</text>
</a>
</g>
</g>
<!-- Node1&#45;&gt;Node32 -->
<g id="edge31_Node000001_Node000032" class="edge">
<title>Node1&#45;&gt;Node32</title>
<g id="a_edge31_Node000001_Node000032"><a xlink:title=" ">
<path fill="none" stroke="#63b8ff" d="M3226.86,-87.63C3491.23,-82.84 4333.39,-65.43 4628.13,-32.12"/>
<polygon fill="#63b8ff" stroke="#63b8ff" points="4628.19,-35.64 4637.72,-31 4627.38,-28.68 4628.19,-35.64"/>
</a>
</g>
</g>
<!-- Node33 -->
<g id="Node000033" class="node">
<title>Node33</title>
<g id="a_Node000033"><a xlink:title=" ">
<polygon fill="#e0e0e0" stroke="#999999" points="4939.38,-26 4787.62,-26 4787.62,-6 4939.38,-6 4939.38,-26"/>
<text text-anchor="middle" x="4863.5" y="-12.5" font-family="Helvetica,sans-Serif" font-size="10.00">javafx.scene.control.TableView</text>
</a>
</g>
</g>
<!-- Node1&#45;&gt;Node33 -->
<g id="edge32_Node000001_Node000033" class="edge">
<title>Node1&#45;&gt;Node33</title>
<g id="a_edge32_Node000001_Node000033"><a xlink:title=" ">
<path fill="none" stroke="#63b8ff" d="M3226.8,-87.68C3511.56,-82.78 4472.41,-64.19 4778.5,-32 4787.3,-31.07 4796.57,-29.78 4805.61,-28.33"/>
<polygon fill="#63b8ff" stroke="#63b8ff" points="4806.13,-31.79 4815.41,-26.68 4804.97,-24.89 4806.13,-31.79"/>
</a>
</g>
</g>
<!-- Node34 -->
<g id="Node000034" class="node">
<title>Node34</title>
<g id="a_Node000034"><a xlink:title=" ">
<polygon fill="#e0e0e0" stroke="#999999" points="5083.25,-32 4957.75,-32 4957.75,0 5083.25,0 5083.25,-32"/>
<text text-anchor="start" x="4965.75" y="-18.5" font-family="Helvetica,sans-Serif" font-size="10.00">javafx.scene.control.Text</text>
<text text-anchor="middle" x="5020.5" y="-6.5" font-family="Helvetica,sans-Serif" font-size="10.00">Field</text>
</a>
</g>
</g>
<!-- Node1&#45;&gt;Node34 -->
<g id="edge33_Node000001_Node000034" class="edge">
<title>Node1&#45;&gt;Node34</title>
<g id="a_edge33_Node000001_Node000034"><a xlink:title=" ">
<path fill="none" stroke="#63b8ff" d="M3226.96,-88.31C3527.57,-85.47 4585.53,-72.8 4946.15,-32.1"/>
<polygon fill="#63b8ff" stroke="#63b8ff" points="4946.35,-35.6 4955.88,-30.97 4945.55,-28.65 4946.35,-35.6"/>
</a>
</g>
</g>
<!-- Node35 -->
<g id="Node000035" class="node">
<title>Node35</title>
<g id="a_Node000035"><a xlink:title=" ">
<polygon fill="#e0e0e0" stroke="#999999" points="5225.88,-32 5101.12,-32 5101.12,0 5225.88,0 5225.88,-32"/>
<text text-anchor="start" x="5109.12" y="-18.5" font-family="Helvetica,sans-Serif" font-size="10.00">javafx.scene.control.cell.</text>
<text text-anchor="middle" x="5163.5" y="-6.5" font-family="Helvetica,sans-Serif" font-size="10.00">PropertyValueFactory</text>
</a>
</g>
</g>
<!-- Node1&#45;&gt;Node35 -->
<g id="edge34_Node000001_Node000035" class="edge">
<title>Node1&#45;&gt;Node35</title>
<g id="a_edge34_Node000001_Node000035"><a xlink:title=" ">
<path fill="none" stroke="#63b8ff" d="M3226.77,-88.56C3542.39,-86.56 4699.48,-76.36 5089.57,-32.18"/>
<polygon fill="#63b8ff" stroke="#63b8ff" points="5089.85,-35.67 5099.38,-31.04 5089.04,-28.72 5089.85,-35.67"/>
</a>
</g>
</g>
<!-- Node36 -->
<g id="Node000036" class="node">
<title>Node36</title>
<g id="a_Node000036"><a xlink:title=" ">
<polygon fill="#e0e0e0" stroke="#999999" points="5391.12,-26 5243.88,-26 5243.88,-6 5391.12,-6 5391.12,-26"/>
<text text-anchor="middle" x="5317.5" y="-12.5" font-family="Helvetica,sans-Serif" font-size="10.00">javafx.scene.layout.FlowPane</text>
</a>
</g>
</g>
<!-- Node1&#45;&gt;Node36 -->
<g id="edge35_Node000001_Node000036" class="edge">
<title>Node1&#45;&gt;Node36</title>
<g id="a_edge35_Node000001_Node000036"><a xlink:title=" ">
<path fill="none" stroke="#63b8ff" d="M3226.86,-88.44C3560.1,-85.84 4834.45,-73.37 5234.5,-32 5243.21,-31.1 5252.37,-29.8 5261.3,-28.34"/>
<polygon fill="#63b8ff" stroke="#63b8ff" points="5261.69,-31.83 5270.96,-26.68 5260.51,-24.93 5261.69,-31.83"/>
</a>
</g>
</g>
<!-- Node37 -->
<g id="Node000037" class="node">
<title>Node37</title>
<g id="a_Node000037"><a xlink:title=" ">
<polygon fill="#e0e0e0" stroke="#999999" points="5553.62,-26 5409.38,-26 5409.38,-6 5553.62,-6 5553.62,-26"/>
<text text-anchor="middle" x="5481.5" y="-12.5" font-family="Helvetica,sans-Serif" font-size="10.00">javafx.scene.layout.GridPane</text>
</a>
</g>
</g>
<!-- Node1&#45;&gt;Node37 -->
<g id="edge36_Node000001_Node000037" class="edge">
<title>Node1&#45;&gt;Node37</title>
<g id="a_edge36_Node000001_Node000037"><a xlink:title=" ">
<path fill="none" stroke="#63b8ff" d="M3226.98,-88.67C3576.68,-86.97 4966.16,-77.42 5400.5,-32 5408.91,-31.12 5417.75,-29.85 5426.38,-28.41"/>
<polygon fill="#63b8ff" stroke="#63b8ff" points="5426.81,-31.89 5436.05,-26.71 5425.6,-24.99 5426.81,-31.89"/>
</a>
</g>
</g>
<!-- Node38 -->
<g id="Node000038" class="node">
<title>Node38</title>
<g id="a_Node000038"><a xlink:title=" ">
<polygon fill="#e0e0e0" stroke="#999999" points="5699.75,-26 5571.25,-26 5571.25,-6 5699.75,-6 5699.75,-26"/>
<text text-anchor="middle" x="5635.5" y="-12.5" font-family="Helvetica,sans-Serif" font-size="10.00">javafx.scene.layout.HBox</text>
</a>
</g>
</g>
<!-- Node1&#45;&gt;Node38 -->
<g id="edge37_Node000001_Node000038" class="edge">
<title>Node1&#45;&gt;Node38</title>
<g id="a_edge37_Node000001_Node000038"><a xlink:title=" ">
<path fill="none" stroke="#63b8ff" d="M3226.89,-89.04C3591.84,-88.91 5094.94,-85.12 5562.5,-32 5569.76,-31.18 5577.36,-29.99 5584.81,-28.63"/>
<polygon fill="#63b8ff" stroke="#63b8ff" points="5585.29,-32.1 5594.44,-26.76 5583.96,-25.23 5585.29,-32.1"/>
</a>
</g>
</g>
<!-- Node39 -->
<g id="Node000039" class="node">
<title>Node39</title>
<g id="a_Node000039"><a xlink:title=" ">
<polygon fill="#e0e0e0" stroke="#999999" points="5845.38,-26 5717.62,-26 5717.62,-6 5845.38,-6 5845.38,-26"/>
<text text-anchor="middle" x="5781.5" y="-12.5" font-family="Helvetica,sans-Serif" font-size="10.00">javafx.scene.layout.VBox</text>
</a>
</g>
</g>
<!-- Node1&#45;&gt;Node39 -->
<g id="edge38_Node000001_Node000039" class="edge">
<title>Node1&#45;&gt;Node39</title>
<g id="a_edge38_Node000001_Node000039"><a xlink:title=" ">
<path fill="none" stroke="#63b8ff" d="M3226.96,-89.16C3605.4,-89.64 5210.59,-88.23 5708.5,-32 5715.76,-31.18 5723.36,-29.99 5730.81,-28.64"/>
<polygon fill="#63b8ff" stroke="#63b8ff" points="5731.29,-32.11 5740.44,-26.77 5729.96,-25.24 5731.29,-32.11"/>
</a>
</g>
</g>
<!-- Node40 -->
<g id="Node000040" class="node">
<title>Node40</title>
<g id="a_Node000040"><a xlink:title=" ">
<polygon fill="#e0e0e0" stroke="#999999" points="5975.88,-26 5863.12,-26 5863.12,-6 5975.88,-6 5975.88,-26"/>
<text text-anchor="middle" x="5919.5" y="-12.5" font-family="Helvetica,sans-Serif" font-size="10.00">javafx.scene.text.Text</text>
</a>
</g>
</g>
<!-- Node1&#45;&gt;Node40 -->
<g id="edge39_Node000001_Node000040" class="edge">
<title>Node1&#45;&gt;Node40</title>
<g id="a_edge39_Node000001_Node000040"><a xlink:title=" ">
<path fill="none" stroke="#63b8ff" d="M3226.71,-88.3C3647.23,-84.47 5588.44,-65.14 5854.5,-32 5860.68,-31.23 5867.13,-30.12 5873.46,-28.85"/>
<polygon fill="#63b8ff" stroke="#63b8ff" points="5874.14,-32.29 5883.17,-26.75 5872.66,-25.45 5874.14,-32.29"/>
</a>
</g>
</g>
<!-- Node41 -->
<g id="Node000041" class="node">
<title>Node41</title>
<g id="a_Node000041"><a xlink:title=" ">
<polygon fill="#e0e0e0" stroke="#999999" points="6091.38,-26 5993.62,-26 5993.62,-6 6091.38,-6 6091.38,-26"/>
<text text-anchor="middle" x="6042.5" y="-12.5" font-family="Helvetica,sans-Serif" font-size="10.00">javafx.stage.Stage</text>
</a>
</g>
</g>
<!-- Node1&#45;&gt;Node41 -->
<g id="edge40_Node000001_Node000041" class="edge">
<title>Node1&#45;&gt;Node41</title>
<g id="a_edge40_Node000001_Node000041"><a xlink:title=" ">
<path fill="none" stroke="#63b8ff" d="M3226.99,-88.5C3660.21,-85.67 5705.38,-70.36 5984.5,-32 5989.76,-31.28 5995.23,-30.25 6000.62,-29.06"/>
<polygon fill="#63b8ff" stroke="#63b8ff" points="6001.09,-32.54 6009.99,-26.8 5999.45,-25.74 6001.09,-32.54"/>
</a>
</g>
</g>
<!-- Node42 -->
<g id="Node000042" class="node">
<title>Node42</title>
<g id="a_Node000042"><a xlink:title=" ">
<polygon fill="#e0e0e0" stroke="#999999" points="6209.12,-26 6109.88,-26 6109.88,-6 6209.12,-6 6209.12,-26"/>
<text text-anchor="middle" x="6159.5" y="-12.5" font-family="Helvetica,sans-Serif" font-size="10.00">javafx.util.Callback</text>
</a>
</g>
</g>
<!-- Node1&#45;&gt;Node42 -->
<g id="edge41_Node000001_Node000042" class="edge">
<title>Node1&#45;&gt;Node42</title>
<g id="a_edge41_Node000001_Node000042"><a xlink:title=" ">
<path fill="none" stroke="#63b8ff" d="M3226.98,-88.55C3670.7,-85.93 5809.16,-71.31 6100.5,-32 6105.85,-31.28 6111.41,-30.25 6116.89,-29.06"/>
<polygon fill="#63b8ff" stroke="#63b8ff" points="6117.52,-32.51 6126.45,-26.8 6115.91,-25.7 6117.52,-32.51"/>
</a>
</g>
</g>
</g>
</svg>
