<?xml version="1.0" encoding="UTF-8" standalone="no"?>
<!DOCTYPE svg PUBLIC "-//W3C//DTD SVG 1.1//EN"
 "http://www.w3.org/Graphics/SVG/1.1/DTD/svg11.dtd">
<!-- Generated by graphviz version 12.2.1 (20241206.2353)
 -->
<!-- Title: src/main/java/com/hust/ittnk68/cnpm/view/AdminHomeSideBar.java Pages: 1 -->
<svg width="3086pt" height="120pt"
 viewBox="0.00 0.00 3086.12 120.00" xmlns="http://www.w3.org/2000/svg" xmlns:xlink="http://www.w3.org/1999/xlink">
<g id="graph0" class="graph" transform="scale(1 1) rotate(0) translate(4 116)">
<title>src/main/java/com/hust/ittnk68/cnpm/view/AdminHomeSideBar.java</title>
<!-- Node1 -->
<g id="Node000001" class="node">
<title>Node1</title>
<g id="a_Node000001"><a xlink:title=" ">
<polygon fill="#999999" stroke="#666666" points="1685,-112 1529.5,-112 1529.5,-68 1685,-68 1685,-112"/>
<text text-anchor="start" x="1537.5" y="-98.5" font-family="Helvetica,sans-Serif" font-size="10.00">src/main/java/com/hust</text>
<text text-anchor="start" x="1537.5" y="-86.5" font-family="Helvetica,sans-Serif" font-size="10.00">/ittnk68/cnpm/view/AdminHome</text>
<text text-anchor="middle" x="1607.25" y="-74.5" font-family="Helvetica,sans-Serif" font-size="10.00">SideBar.java</text>
</a>
</g>
</g>
<!-- Node2 -->
<g id="Node000002" class="node">
<title>Node2</title>
<g id="a_Node000002"><a xlink:title=" ">
<polygon fill="#e0e0e0" stroke="#999999" points="140.5,-32 0,-32 0,0 140.5,0 140.5,-32"/>
<text text-anchor="start" x="8" y="-18.5" font-family="Helvetica,sans-Serif" font-size="10.00">com.hust.ittnk68.cnpm.view.</text>
<text text-anchor="middle" x="70.25" y="-6.5" font-family="Helvetica,sans-Serif" font-size="10.00">IconButton</text>
</a>
</g>
</g>
<!-- Node1&#45;&gt;Node2 -->
<g id="edge1_Node000001_Node000002" class="edge">
<title>Node1&#45;&gt;Node2</title>
<g id="a_edge1_Node000001_Node000002"><a xlink:title=" ">
<path fill="none" stroke="#63b8ff" d="M1529.23,-87.48C1270.7,-82.21 442.52,-63.36 152.15,-32.19"/>
<polygon fill="#63b8ff" stroke="#63b8ff" points="152.63,-28.72 142.31,-31.1 151.86,-35.68 152.63,-28.72"/>
</a>
</g>
</g>
<!-- Node3 -->
<g id="Node000003" class="node">
<title>Node3</title>
<g id="a_Node000003"><a xlink:title=" ">
<polygon fill="#e0e0e0" stroke="#999999" points="286.12,-32 158.38,-32 158.38,0 286.12,0 286.12,-32"/>
<text text-anchor="start" x="166.38" y="-18.5" font-family="Helvetica,sans-Serif" font-size="10.00">org.kordamp.ikonli.javafx.</text>
<text text-anchor="middle" x="222.25" y="-6.5" font-family="Helvetica,sans-Serif" font-size="10.00">FontIcon</text>
</a>
</g>
</g>
<!-- Node1&#45;&gt;Node3 -->
<g id="edge2_Node000001_Node000003" class="edge">
<title>Node1&#45;&gt;Node3</title>
<g id="a_edge2_Node000001_Node000003"><a xlink:title=" ">
<path fill="none" stroke="#63b8ff" d="M1529.03,-87.24C1288.05,-81.56 558.04,-62.37 297.55,-32.11"/>
<polygon fill="#63b8ff" stroke="#63b8ff" points="298.1,-28.65 287.75,-30.93 297.26,-35.6 298.1,-28.65"/>
</a>
</g>
</g>
<!-- Node4 -->
<g id="Node000004" class="node">
<title>Node4</title>
<g id="a_Node000004"><a xlink:title=" ">
<polygon fill="#e0e0e0" stroke="#999999" points="445.88,-32 304.62,-32 304.62,0 445.88,0 445.88,-32"/>
<text text-anchor="start" x="312.62" y="-18.5" font-family="Helvetica,sans-Serif" font-size="10.00">org.kordamp.ikonli.material2.</text>
<text text-anchor="middle" x="375.25" y="-6.5" font-family="Helvetica,sans-Serif" font-size="10.00">Material2AL</text>
</a>
</g>
</g>
<!-- Node1&#45;&gt;Node4 -->
<g id="edge3_Node000001_Node000004" class="edge">
<title>Node1&#45;&gt;Node4</title>
<g id="a_edge3_Node000001_Node000004"><a xlink:title=" ">
<path fill="none" stroke="#63b8ff" d="M1529.34,-88.86C1344.61,-87.71 865.51,-80.07 457.38,-32.27"/>
<polygon fill="#63b8ff" stroke="#63b8ff" points="458.08,-28.83 447.74,-31.14 457.26,-35.79 458.08,-28.83"/>
</a>
</g>
</g>
<!-- Node5 -->
<g id="Node000005" class="node">
<title>Node5</title>
<g id="a_Node000005"><a xlink:title=" ">
<polygon fill="#e0e0e0" stroke="#999999" points="604.88,-32 463.62,-32 463.62,0 604.88,0 604.88,-32"/>
<text text-anchor="start" x="471.62" y="-18.5" font-family="Helvetica,sans-Serif" font-size="10.00">org.kordamp.ikonli.material2.</text>
<text text-anchor="middle" x="534.25" y="-6.5" font-family="Helvetica,sans-Serif" font-size="10.00">Material2MZ</text>
</a>
</g>
</g>
<!-- Node1&#45;&gt;Node5 -->
<g id="edge4_Node000001_Node000005" class="edge">
<title>Node1&#45;&gt;Node5</title>
<g id="a_edge4_Node000001_Node000005"><a xlink:title=" ">
<path fill="none" stroke="#63b8ff" d="M1529.29,-87.98C1363.08,-85.06 961.47,-74.02 616.46,-32.3"/>
<polygon fill="#63b8ff" stroke="#63b8ff" points="617.09,-28.85 606.74,-31.11 616.24,-35.8 617.09,-28.85"/>
</a>
</g>
</g>
<!-- Node6 -->
<g id="Node000006" class="node">
<title>Node6</title>
<g id="a_Node000006"><a xlink:title=" ">
<polygon fill="#e0e0e0" stroke="#999999" points="763.88,-32 622.62,-32 622.62,0 763.88,0 763.88,-32"/>
<text text-anchor="start" x="630.62" y="-18.5" font-family="Helvetica,sans-Serif" font-size="10.00">org.kordamp.ikonli.material2.</text>
<text text-anchor="middle" x="693.25" y="-6.5" font-family="Helvetica,sans-Serif" font-size="10.00">Material2OutlinedAL</text>
</a>
</g>
</g>
<!-- Node1&#45;&gt;Node6 -->
<g id="edge5_Node000001_Node000006" class="edge">
<title>Node1&#45;&gt;Node6</title>
<g id="a_edge5_Node000001_Node000006"><a xlink:title=" ">
<path fill="none" stroke="#63b8ff" d="M1529.24,-86.78C1383.1,-81.96 1058.03,-68 775.54,-32.34"/>
<polygon fill="#63b8ff" stroke="#63b8ff" points="776.11,-28.88 765.75,-31.09 775.22,-35.82 776.11,-28.88"/>
</a>
</g>
</g>
<!-- Node7 -->
<g id="Node000007" class="node">
<title>Node7</title>
<g id="a_Node000007"><a xlink:title=" ">
<polygon fill="#e0e0e0" stroke="#999999" points="922.88,-32 781.62,-32 781.62,0 922.88,0 922.88,-32"/>
<text text-anchor="start" x="789.62" y="-18.5" font-family="Helvetica,sans-Serif" font-size="10.00">org.kordamp.ikonli.material2.</text>
<text text-anchor="middle" x="852.25" y="-6.5" font-family="Helvetica,sans-Serif" font-size="10.00">Material2RoundAL</text>
</a>
</g>
</g>
<!-- Node1&#45;&gt;Node7 -->
<g id="edge6_Node000001_Node000007" class="edge">
<title>Node1&#45;&gt;Node7</title>
<g id="a_edge6_Node000001_Node000007"><a xlink:title=" ">
<path fill="none" stroke="#63b8ff" d="M1529.15,-85.05C1405.08,-78.19 1155.17,-62 934.41,-32.35"/>
<polygon fill="#63b8ff" stroke="#63b8ff" points="935.13,-28.92 924.75,-31.04 934.19,-35.86 935.13,-28.92"/>
</a>
</g>
</g>
<!-- Node8 -->
<g id="Node000008" class="node">
<title>Node8</title>
<g id="a_Node000008"><a xlink:title=" ">
<polygon fill="#e0e0e0" stroke="#999999" points="1081.88,-32 940.62,-32 940.62,0 1081.88,0 1081.88,-32"/>
<text text-anchor="start" x="948.62" y="-18.5" font-family="Helvetica,sans-Serif" font-size="10.00">org.kordamp.ikonli.material2.</text>
<text text-anchor="middle" x="1011.25" y="-6.5" font-family="Helvetica,sans-Serif" font-size="10.00">Material2SharpAL</text>
</a>
</g>
</g>
<!-- Node1&#45;&gt;Node8 -->
<g id="edge7_Node000001_Node000008" class="edge">
<title>Node1&#45;&gt;Node8</title>
<g id="a_edge7_Node000001_Node000008"><a xlink:title=" ">
<path fill="none" stroke="#63b8ff" d="M1529.21,-82.23C1430.23,-73.22 1254.06,-55.81 1093.35,-32.24"/>
<polygon fill="#63b8ff" stroke="#63b8ff" points="1094.2,-28.83 1083.8,-30.83 1093.18,-35.76 1094.2,-28.83"/>
</a>
</g>
</g>
<!-- Node9 -->
<g id="Node000009" class="node">
<title>Node9</title>
<g id="a_Node000009"><a xlink:title=" ">
<polygon fill="#e0e0e0" stroke="#999999" points="1260.62,-32 1099.88,-32 1099.88,0 1260.62,0 1260.62,-32"/>
<text text-anchor="start" x="1107.88" y="-18.5" font-family="Helvetica,sans-Serif" font-size="10.00">com.hust.ittnk68.cnpm.controller.</text>
<text text-anchor="middle" x="1180.25" y="-6.5" font-family="Helvetica,sans-Serif" font-size="10.00">ClientSceneController</text>
</a>
</g>
</g>
<!-- Node1&#45;&gt;Node9 -->
<g id="edge8_Node000001_Node000009" class="edge">
<title>Node1&#45;&gt;Node9</title>
<g id="a_edge8_Node000001_Node000009"><a xlink:title=" ">
<path fill="none" stroke="#63b8ff" d="M1529.43,-75.88C1456.86,-63.64 1348.59,-45.39 1271.88,-32.45"/>
<polygon fill="#63b8ff" stroke="#63b8ff" points="1272.74,-29.05 1262.29,-30.83 1271.57,-35.95 1272.74,-29.05"/>
</a>
</g>
</g>
<!-- Node10 -->
<g id="Node000010" class="node">
<title>Node10</title>
<g id="a_Node000010"><a xlink:title=" ">
<polygon fill="#e0e0e0" stroke="#999999" points="1424.12,-32 1278.38,-32 1278.38,0 1424.12,0 1424.12,-32"/>
<text text-anchor="start" x="1286.38" y="-18.5" font-family="Helvetica,sans-Serif" font-size="10.00">com.hust.ittnk68.cnpm.group.</text>
<text text-anchor="middle" x="1351.25" y="-6.5" font-family="Helvetica,sans-Serif" font-size="10.00">AccentToggleGroup</text>
</a>
</g>
</g>
<!-- Node1&#45;&gt;Node10 -->
<g id="edge9_Node000001_Node000010" class="edge">
<title>Node1&#45;&gt;Node10</title>
<g id="a_edge9_Node000001_Node000010"><a xlink:title=" ">
<path fill="none" stroke="#63b8ff" d="M1531.13,-67.59C1494.96,-57.42 1452.13,-45.37 1417.34,-35.59"/>
<polygon fill="#63b8ff" stroke="#63b8ff" points="1418.38,-32.24 1407.8,-32.91 1416.48,-38.98 1418.38,-32.24"/>
</a>
</g>
</g>
<!-- Node11 -->
<g id="Node000011" class="node">
<title>Node11</title>
<g id="a_Node000011"><a xlink:title=" ">
<polygon fill="#e0e0e0" stroke="#999999" points="1604,-32 1442.5,-32 1442.5,0 1604,0 1604,-32"/>
<text text-anchor="start" x="1450.5" y="-18.5" font-family="Helvetica,sans-Serif" font-size="10.00">com.hust.ittnk68.cnpm.interactor.</text>
<text text-anchor="middle" x="1523.25" y="-6.5" font-family="Helvetica,sans-Serif" font-size="10.00">ClientInteractor</text>
</a>
</g>
</g>
<!-- Node1&#45;&gt;Node11 -->
<g id="edge10_Node000001_Node000011" class="edge">
<title>Node1&#45;&gt;Node11</title>
<g id="a_edge10_Node000001_Node000011"><a xlink:title=" ">
<path fill="none" stroke="#63b8ff" d="M1582.5,-67.79C1572.25,-59 1560.33,-48.78 1549.88,-39.83"/>
<polygon fill="#63b8ff" stroke="#63b8ff" points="1552.18,-37.19 1542.31,-33.34 1547.62,-42.5 1552.18,-37.19"/>
</a>
</g>
</g>
<!-- Node12 -->
<g id="Node000012" class="node">
<title>Node12</title>
<g id="a_Node000012"><a xlink:title=" ">
<polygon fill="#e0e0e0" stroke="#999999" points="1760.38,-26 1622.12,-26 1622.12,-6 1760.38,-6 1760.38,-26"/>
<text text-anchor="middle" x="1691.25" y="-12.5" font-family="Helvetica,sans-Serif" font-size="10.00">atlantafx.base.theme.Styles</text>
</a>
</g>
</g>
<!-- Node1&#45;&gt;Node12 -->
<g id="edge11_Node000001_Node000012" class="edge">
<title>Node1&#45;&gt;Node12</title>
<g id="a_edge11_Node000001_Node000012"><a xlink:title=" ">
<path fill="none" stroke="#63b8ff" d="M1632,-67.79C1644.68,-56.92 1659.89,-43.88 1671.73,-33.73"/>
<polygon fill="#63b8ff" stroke="#63b8ff" points="1673.92,-36.46 1679.24,-27.3 1669.37,-31.15 1673.92,-36.46"/>
</a>
</g>
</g>
<!-- Node13 -->
<g id="Node000013" class="node">
<title>Node13</title>
<g id="a_Node000013"><a xlink:title=" ">
<polygon fill="#e0e0e0" stroke="#999999" points="1892.38,-26 1778.12,-26 1778.12,-6 1892.38,-6 1892.38,-26"/>
<text text-anchor="middle" x="1835.25" y="-12.5" font-family="Helvetica,sans-Serif" font-size="10.00">javafx.geometry.Insets</text>
</a>
</g>
</g>
<!-- Node1&#45;&gt;Node13 -->
<g id="edge12_Node000001_Node000013" class="edge">
<title>Node1&#45;&gt;Node13</title>
<g id="a_edge12_Node000001_Node000013"><a xlink:title=" ">
<path fill="none" stroke="#63b8ff" d="M1675.04,-67.59C1713.96,-55.3 1761.53,-40.28 1794.68,-29.81"/>
<polygon fill="#63b8ff" stroke="#63b8ff" points="1795.41,-33.25 1803.89,-26.9 1793.3,-26.58 1795.41,-33.25"/>
</a>
</g>
</g>
<!-- Node14 -->
<g id="Node000014" class="node">
<title>Node14</title>
<g id="a_Node000014"><a xlink:title=" ">
<polygon fill="#e0e0e0" stroke="#999999" points="2014.5,-26 1910,-26 1910,-6 2014.5,-6 2014.5,-26"/>
<text text-anchor="middle" x="1962.25" y="-12.5" font-family="Helvetica,sans-Serif" font-size="10.00">javafx.geometry.Pos</text>
</a>
</g>
</g>
<!-- Node1&#45;&gt;Node14 -->
<g id="edge13_Node000001_Node000014" class="edge">
<title>Node1&#45;&gt;Node14</title>
<g id="a_edge13_Node000001_Node000014"><a xlink:title=" ">
<path fill="none" stroke="#63b8ff" d="M1685.46,-74.93C1744.83,-63.98 1828.38,-48.01 1901.25,-32 1905.32,-31.1 1909.54,-30.14 1913.77,-29.15"/>
<polygon fill="#63b8ff" stroke="#63b8ff" points="1914.51,-32.57 1923.42,-26.85 1912.89,-25.77 1914.51,-32.57"/>
</a>
</g>
</g>
<!-- Node15 -->
<g id="Node000015" class="node">
<title>Node15</title>
<g id="a_Node000015"><a xlink:title=" ">
<polygon fill="#e0e0e0" stroke="#999999" points="2135.75,-26 2032.75,-26 2032.75,-6 2135.75,-6 2135.75,-26"/>
<text text-anchor="middle" x="2084.25" y="-12.5" font-family="Helvetica,sans-Serif" font-size="10.00">javafx.scene.Parent</text>
</a>
</g>
</g>
<!-- Node1&#45;&gt;Node15 -->
<g id="edge14_Node000001_Node000015" class="edge">
<title>Node1&#45;&gt;Node15</title>
<g id="a_edge14_Node000001_Node000015"><a xlink:title=" ">
<path fill="none" stroke="#63b8ff" d="M1685.47,-80.76C1769.38,-71.35 1906.36,-54.32 2023.25,-32 2027.89,-31.11 2032.71,-30.1 2037.51,-29.02"/>
<polygon fill="#63b8ff" stroke="#63b8ff" points="2038.17,-32.46 2047.11,-26.78 2036.58,-25.65 2038.17,-32.46"/>
</a>
</g>
</g>
<!-- Node16 -->
<g id="Node000016" class="node">
<title>Node16</title>
<g id="a_Node000016"><a xlink:title=" ">
<polygon fill="#e0e0e0" stroke="#999999" points="2288.88,-26 2153.62,-26 2153.62,-6 2288.88,-6 2288.88,-26"/>
<text text-anchor="middle" x="2221.25" y="-12.5" font-family="Helvetica,sans-Serif" font-size="10.00">javafx.scene.control.Button</text>
</a>
</g>
</g>
<!-- Node1&#45;&gt;Node16 -->
<g id="edge15_Node000001_Node000016" class="edge">
<title>Node1&#45;&gt;Node16</title>
<g id="a_edge15_Node000001_Node000016"><a xlink:title=" ">
<path fill="none" stroke="#63b8ff" d="M1685.49,-82.92C1790.45,-74.25 1982.5,-56.63 2145.25,-32 2151.81,-31.01 2158.66,-29.84 2165.45,-28.6"/>
<polygon fill="#63b8ff" stroke="#63b8ff" points="2166.09,-32.04 2175.27,-26.75 2164.8,-25.17 2166.09,-32.04"/>
</a>
</g>
</g>
<!-- Node17 -->
<g id="Node000017" class="node">
<title>Node17</title>
<g id="a_Node000017"><a xlink:title=" ">
<polygon fill="#e0e0e0" stroke="#999999" points="2437.25,-26 2307.25,-26 2307.25,-6 2437.25,-6 2437.25,-26"/>
<text text-anchor="middle" x="2372.25" y="-12.5" font-family="Helvetica,sans-Serif" font-size="10.00">javafx.scene.control.Label</text>
</a>
</g>
</g>
<!-- Node1&#45;&gt;Node17 -->
<g id="edge16_Node000001_Node000017" class="edge">
<title>Node1&#45;&gt;Node17</title>
<g id="a_edge16_Node000001_Node000017"><a xlink:title=" ">
<path fill="none" stroke="#63b8ff" d="M1685.3,-85.56C1813.67,-79.23 2077.18,-63.41 2298.25,-32 2304.98,-31.04 2312.02,-29.86 2318.98,-28.58"/>
<polygon fill="#63b8ff" stroke="#63b8ff" points="2319.49,-32.04 2328.65,-26.72 2318.17,-25.17 2319.49,-32.04"/>
</a>
</g>
</g>
<!-- Node18 -->
<g id="Node000018" class="node">
<title>Node18</title>
<g id="a_Node000018"><a xlink:title=" ">
<polygon fill="#e0e0e0" stroke="#999999" points="2612.75,-26 2455.75,-26 2455.75,-6 2612.75,-6 2612.75,-26"/>
<text text-anchor="middle" x="2534.25" y="-12.5" font-family="Helvetica,sans-Serif" font-size="10.00">javafx.scene.layout.AnchorPane</text>
</a>
</g>
</g>
<!-- Node1&#45;&gt;Node18 -->
<g id="edge17_Node000001_Node000018" class="edge">
<title>Node1&#45;&gt;Node18</title>
<g id="a_edge17_Node000001_Node000018"><a xlink:title=" ">
<path fill="none" stroke="#63b8ff" d="M1685.28,-86.33C1833.84,-80.67 2167.36,-65.16 2446.25,-32 2454.91,-30.97 2464.01,-29.67 2472.94,-28.27"/>
<polygon fill="#63b8ff" stroke="#63b8ff" points="2473.32,-31.75 2482.62,-26.69 2472.19,-24.84 2473.32,-31.75"/>
</a>
</g>
</g>
<!-- Node19 -->
<g id="Node000019" class="node">
<title>Node19</title>
<g id="a_Node000019"><a xlink:title=" ">
<polygon fill="#e0e0e0" stroke="#999999" points="2785.62,-26 2630.88,-26 2630.88,-6 2785.62,-6 2785.62,-26"/>
<text text-anchor="middle" x="2708.25" y="-12.5" font-family="Helvetica,sans-Serif" font-size="10.00">javafx.scene.layout.BorderPane</text>
</a>
</g>
</g>
<!-- Node1&#45;&gt;Node19 -->
<g id="edge18_Node000001_Node000019" class="edge">
<title>Node1&#45;&gt;Node19</title>
<g id="a_edge18_Node000001_Node000019"><a xlink:title=" ">
<path fill="none" stroke="#63b8ff" d="M1685.19,-87.72C1855.65,-84.23 2274.2,-71.99 2622.25,-32 2630.73,-31.03 2639.64,-29.75 2648.38,-28.36"/>
<polygon fill="#63b8ff" stroke="#63b8ff" points="2648.94,-31.82 2658.24,-26.73 2647.8,-24.91 2648.94,-31.82"/>
</a>
</g>
</g>
<!-- Node20 -->
<g id="Node000020" class="node">
<title>Node20</title>
<g id="a_Node000020"><a xlink:title=" ">
<polygon fill="#e0e0e0" stroke="#999999" points="2932.5,-26 2804,-26 2804,-6 2932.5,-6 2932.5,-26"/>
<text text-anchor="middle" x="2868.25" y="-12.5" font-family="Helvetica,sans-Serif" font-size="10.00">javafx.scene.layout.HBox</text>
</a>
</g>
</g>
<!-- Node1&#45;&gt;Node20 -->
<g id="edge19_Node000001_Node000020" class="edge">
<title>Node1&#45;&gt;Node20</title>
<g id="a_edge19_Node000001_Node000020"><a xlink:title=" ">
<path fill="none" stroke="#63b8ff" d="M1685.37,-89.34C1875.78,-89.29 2378.65,-83.8 2794.25,-32 2801.34,-31.12 2808.76,-29.93 2816.05,-28.61"/>
<polygon fill="#63b8ff" stroke="#63b8ff" points="2816.68,-32.05 2825.85,-26.73 2815.37,-25.18 2816.68,-32.05"/>
</a>
</g>
</g>
<!-- Node21 -->
<g id="Node000021" class="node">
<title>Node21</title>
<g id="a_Node000021"><a xlink:title=" ">
<polygon fill="#e0e0e0" stroke="#999999" points="3078.12,-26 2950.38,-26 2950.38,-6 3078.12,-6 3078.12,-26"/>
<text text-anchor="middle" x="3014.25" y="-12.5" font-family="Helvetica,sans-Serif" font-size="10.00">javafx.scene.layout.VBox</text>
</a>
</g>
</g>
<!-- Node1&#45;&gt;Node21 -->
<g id="edge20_Node000001_Node000021" class="edge">
<title>Node1&#45;&gt;Node21</title>
<g id="a_edge20_Node000001_Node000021"><a xlink:title=" ">
<path fill="none" stroke="#63b8ff" d="M1685.47,-87.3C1932.76,-81.68 2695.8,-62.26 2941.25,-32 2948.24,-31.14 2955.57,-29.96 2962.76,-28.65"/>
<polygon fill="#63b8ff" stroke="#63b8ff" points="2963.26,-32.12 2972.41,-26.78 2961.93,-25.24 2963.26,-32.12"/>
</a>
</g>
</g>
</g>
</svg>
