<?xml version="1.0" encoding="UTF-8" standalone="no"?>
<!DOCTYPE svg PUBLIC "-//W3C//DTD SVG 1.1//EN"
 "http://www.w3.org/Graphics/SVG/1.1/DTD/svg11.dtd">
<!-- Generated by graphviz version 12.2.1 (20241206.2353)
 -->
<!-- Title: src/main/java/com/hust/ittnk68/cnpm/view/AdminAccountManagePage.java Pages: 1 -->
<svg width="4995pt" height="120pt"
 viewBox="0.00 0.00 4995.00 120.00" xmlns="http://www.w3.org/2000/svg" xmlns:xlink="http://www.w3.org/1999/xlink">
<g id="graph0" class="graph" transform="scale(1 1) rotate(0) translate(4 116)">
<title>src/main/java/com/hust/ittnk68/cnpm/view/AdminAccountManagePage.java</title>
<!-- Node1 -->
<g id="Node000001" class="node">
<title>Node1</title>
<g id="a_Node000001"><a xlink:title=" ">
<polygon fill="#999999" stroke="#666666" points="2688,-112 2522.75,-112 2522.75,-68 2688,-68 2688,-112"/>
<text text-anchor="start" x="2530.75" y="-98.5" font-family="Helvetica,sans-Serif" font-size="10.00">src/main/java/com/hust</text>
<text text-anchor="start" x="2530.75" y="-86.5" font-family="Helvetica,sans-Serif" font-size="10.00">/ittnk68/cnpm/view/AdminAccount</text>
<text text-anchor="middle" x="2605.38" y="-74.5" font-family="Helvetica,sans-Serif" font-size="10.00">ManagePage.java</text>
</a>
</g>
</g>
<!-- Node2 -->
<g id="Node000002" class="node">
<title>Node2</title>
<g id="a_Node000002"><a xlink:title=" ">
<polygon fill="#e0e0e0" stroke="#999999" points="88.75,-26 0,-26 0,-6 88.75,-6 88.75,-26"/>
<text text-anchor="middle" x="44.38" y="-12.5" font-family="Helvetica,sans-Serif" font-size="10.00">java.util.Optional</text>
</a>
</g>
</g>
<!-- Node1&#45;&gt;Node2 -->
<g id="edge1_Node000001_Node000002" class="edge">
<title>Node1&#45;&gt;Node2</title>
<g id="a_edge1_Node000001_Node000002"><a xlink:title=" ">
<path fill="none" stroke="#63b8ff" d="M2522.52,-88.36C2115.89,-85.06 341.18,-68.66 97.38,-32 92.93,-31.33 88.33,-30.4 83.78,-29.33"/>
<polygon fill="#63b8ff" stroke="#63b8ff" points="84.72,-25.96 74.16,-26.82 82.95,-32.73 84.72,-25.96"/>
</a>
</g>
</g>
<!-- Node3 -->
<g id="Node000003" class="node">
<title>Node3</title>
<g id="a_Node000003"><a xlink:title=" ">
<polygon fill="#e0e0e0" stroke="#999999" points="234.25,-32 106.5,-32 106.5,0 234.25,0 234.25,-32"/>
<text text-anchor="start" x="114.5" y="-18.5" font-family="Helvetica,sans-Serif" font-size="10.00">org.kordamp.ikonli.javafx.</text>
<text text-anchor="middle" x="170.38" y="-6.5" font-family="Helvetica,sans-Serif" font-size="10.00">FontIcon</text>
</a>
</g>
</g>
<!-- Node1&#45;&gt;Node3 -->
<g id="edge2_Node000001_Node000003" class="edge">
<title>Node1&#45;&gt;Node3</title>
<g id="a_edge2_Node000001_Node000003"><a xlink:title=" ">
<path fill="none" stroke="#63b8ff" d="M2522.55,-88.98C2161.47,-88.62 722.14,-83.93 245.78,-32.09"/>
<polygon fill="#63b8ff" stroke="#63b8ff" points="246.2,-28.62 235.87,-30.99 245.42,-35.58 246.2,-28.62"/>
</a>
</g>
</g>
<!-- Node4 -->
<g id="Node000004" class="node">
<title>Node4</title>
<g id="a_Node000004"><a xlink:title=" ">
<polygon fill="#e0e0e0" stroke="#999999" points="394,-32 252.75,-32 252.75,0 394,0 394,-32"/>
<text text-anchor="start" x="260.75" y="-18.5" font-family="Helvetica,sans-Serif" font-size="10.00">org.kordamp.ikonli.material2.</text>
<text text-anchor="middle" x="323.38" y="-6.5" font-family="Helvetica,sans-Serif" font-size="10.00">Material2MZ</text>
</a>
</g>
</g>
<!-- Node1&#45;&gt;Node4 -->
<g id="edge3_Node000001_Node000004" class="edge">
<title>Node1&#45;&gt;Node4</title>
<g id="a_edge3_Node000001_Node000004"><a xlink:title=" ">
<path fill="none" stroke="#63b8ff" d="M2522.35,-88.65C2176.48,-86.92 847.97,-77.45 405.59,-32.22"/>
<polygon fill="#63b8ff" stroke="#63b8ff" points="406.17,-28.76 395.86,-31.2 405.44,-35.72 406.17,-28.76"/>
</a>
</g>
</g>
<!-- Node5 -->
<g id="Node000005" class="node">
<title>Node5</title>
<g id="a_Node000005"><a xlink:title=" ">
<polygon fill="#e0e0e0" stroke="#999999" points="553,-32 411.75,-32 411.75,0 553,0 553,-32"/>
<text text-anchor="start" x="419.75" y="-18.5" font-family="Helvetica,sans-Serif" font-size="10.00">org.kordamp.ikonli.material2.</text>
<text text-anchor="middle" x="482.38" y="-6.5" font-family="Helvetica,sans-Serif" font-size="10.00">Material2OutlinedAL</text>
</a>
</g>
</g>
<!-- Node1&#45;&gt;Node5 -->
<g id="edge4_Node000001_Node000005" class="edge">
<title>Node1&#45;&gt;Node5</title>
<g id="a_edge4_Node000001_Node000005"><a xlink:title=" ">
<path fill="none" stroke="#63b8ff" d="M2522.27,-88.43C2192.52,-85.89 974.78,-73.91 564.7,-32.1"/>
<polygon fill="#63b8ff" stroke="#63b8ff" points="565.2,-28.63 554.89,-31.07 564.48,-35.59 565.2,-28.63"/>
</a>
</g>
</g>
<!-- Node6 -->
<g id="Node000006" class="node">
<title>Node6</title>
<g id="a_Node000006"><a xlink:title=" ">
<polygon fill="#e0e0e0" stroke="#999999" points="729.25,-32 571.5,-32 571.5,0 729.25,0 729.25,-32"/>
<text text-anchor="start" x="579.5" y="-18.5" font-family="Helvetica,sans-Serif" font-size="10.00">com.fasterxml.jackson.databind.</text>
<text text-anchor="middle" x="650.38" y="-6.5" font-family="Helvetica,sans-Serif" font-size="10.00">ObjectMapper</text>
</a>
</g>
</g>
<!-- Node1&#45;&gt;Node6 -->
<g id="edge5_Node000001_Node000006" class="edge">
<title>Node1&#45;&gt;Node6</title>
<g id="a_edge5_Node000001_Node000006"><a xlink:title=" ">
<path fill="none" stroke="#63b8ff" d="M2522.33,-87.99C2211.32,-83.99 1114.71,-67.69 740.84,-32.12"/>
<polygon fill="#63b8ff" stroke="#63b8ff" points="741.26,-28.65 730.97,-31.16 740.58,-35.61 741.26,-28.65"/>
</a>
</g>
</g>
<!-- Node7 -->
<g id="Node000007" class="node">
<title>Node7</title>
<g id="a_Node000007"><a xlink:title=" ">
<polygon fill="#e0e0e0" stroke="#999999" points="905.25,-32 747.5,-32 747.5,0 905.25,0 905.25,-32"/>
<text text-anchor="start" x="755.5" y="-18.5" font-family="Helvetica,sans-Serif" font-size="10.00">com.fasterxml.jackson.databind.</text>
<text text-anchor="middle" x="826.38" y="-6.5" font-family="Helvetica,sans-Serif" font-size="10.00">SerializationFeature</text>
</a>
</g>
</g>
<!-- Node1&#45;&gt;Node7 -->
<g id="edge6_Node000001_Node000007" class="edge">
<title>Node1&#45;&gt;Node7</title>
<g id="a_edge6_Node000001_Node000007"><a xlink:title=" ">
<path fill="none" stroke="#63b8ff" d="M2522.44,-87.69C2231.03,-82.86 1254.01,-64.66 916.7,-32.11"/>
<polygon fill="#63b8ff" stroke="#63b8ff" points="917.26,-28.65 906.97,-31.15 916.57,-35.62 917.26,-28.65"/>
</a>
</g>
</g>
<!-- Node8 -->
<g id="Node000008" class="node">
<title>Node8</title>
<g id="a_Node000008"><a xlink:title=" ">
<polygon fill="#e0e0e0" stroke="#999999" points="1111.25,-32 923.5,-32 923.5,0 1111.25,0 1111.25,-32"/>
<text text-anchor="start" x="931.5" y="-18.5" font-family="Helvetica,sans-Serif" font-size="10.00">com.hust.ittnk68.cnpm.communication.</text>
<text text-anchor="middle" x="1017.38" y="-6.5" font-family="Helvetica,sans-Serif" font-size="10.00">AdminDeleteObject</text>
</a>
</g>
</g>
<!-- Node1&#45;&gt;Node8 -->
<g id="edge7_Node000001_Node000008" class="edge">
<title>Node1&#45;&gt;Node8</title>
<g id="a_edge7_Node000001_Node000008"><a xlink:title=" ">
<path fill="none" stroke="#63b8ff" d="M2522.26,-88.9C2297.99,-87.97 1661.63,-80.95 1122.74,-32.15"/>
<polygon fill="#63b8ff" stroke="#63b8ff" points="1123.41,-28.7 1113.13,-31.27 1122.77,-35.67 1123.41,-28.7"/>
</a>
</g>
</g>
<!-- Node9 -->
<g id="Node000009" class="node">
<title>Node9</title>
<g id="a_Node000009"><a xlink:title=" ">
<polygon fill="#e0e0e0" stroke="#999999" points="1317.25,-32 1129.5,-32 1129.5,0 1317.25,0 1317.25,-32"/>
<text text-anchor="start" x="1137.5" y="-18.5" font-family="Helvetica,sans-Serif" font-size="10.00">com.hust.ittnk68.cnpm.communication.</text>
<text text-anchor="middle" x="1223.38" y="-6.5" font-family="Helvetica,sans-Serif" font-size="10.00">ServerDeleteObjectResponse</text>
</a>
</g>
</g>
<!-- Node1&#45;&gt;Node9 -->
<g id="edge8_Node000001_Node000009" class="edge">
<title>Node1&#45;&gt;Node9</title>
<g id="a_edge8_Node000001_Node000009"><a xlink:title=" ">
<path fill="none" stroke="#63b8ff" d="M2522.5,-88.18C2320.29,-85.55 1785.37,-74.87 1329.07,-32.19"/>
<polygon fill="#63b8ff" stroke="#63b8ff" points="1329.42,-28.71 1319.14,-31.25 1328.76,-35.68 1329.42,-28.71"/>
</a>
</g>
</g>
<!-- Node10 -->
<g id="Node000010" class="node">
<title>Node10</title>
<g id="a_Node000010"><a xlink:title=" ">
<polygon fill="#e0e0e0" stroke="#999999" points="1495.75,-32 1335,-32 1335,0 1495.75,0 1495.75,-32"/>
<text text-anchor="start" x="1343" y="-18.5" font-family="Helvetica,sans-Serif" font-size="10.00">com.hust.ittnk68.cnpm.controller.</text>
<text text-anchor="middle" x="1415.38" y="-6.5" font-family="Helvetica,sans-Serif" font-size="10.00">ClientSceneController</text>
</a>
</g>
</g>
<!-- Node1&#45;&gt;Node10 -->
<g id="edge9_Node000001_Node000010" class="edge">
<title>Node1&#45;&gt;Node10</title>
<g id="a_edge9_Node000001_Node000010"><a xlink:title=" ">
<path fill="none" stroke="#63b8ff" d="M2522.59,-87.97C2340.64,-85 1892.1,-73.81 1507.22,-32.23"/>
<polygon fill="#63b8ff" stroke="#63b8ff" points="1507.67,-28.76 1497.35,-31.15 1506.91,-35.72 1507.67,-28.76"/>
</a>
</g>
</g>
<!-- Node11 -->
<g id="Node000011" class="node">
<title>Node11</title>
<g id="a_Node000011"><a xlink:title=" ">
<polygon fill="#e0e0e0" stroke="#999999" points="1661.38,-32 1513.38,-32 1513.38,0 1661.38,0 1661.38,-32"/>
<text text-anchor="start" x="1521.38" y="-18.5" font-family="Helvetica,sans-Serif" font-size="10.00">com.hust.ittnk68.cnpm.model.</text>
<text text-anchor="middle" x="1587.38" y="-6.5" font-family="Helvetica,sans-Serif" font-size="10.00">CreateAccountModel</text>
</a>
</g>
</g>
<!-- Node1&#45;&gt;Node11 -->
<g id="edge10_Node000001_Node000011" class="edge">
<title>Node1&#45;&gt;Node11</title>
<g id="a_edge10_Node000001_Node000011"><a xlink:title=" ">
<path fill="none" stroke="#63b8ff" d="M2522.53,-87.23C2360.97,-83.05 1992.38,-70.03 1672.87,-32.2"/>
<polygon fill="#63b8ff" stroke="#63b8ff" points="1673.37,-28.74 1663.02,-31.03 1672.54,-35.69 1673.37,-28.74"/>
</a>
</g>
</g>
<!-- Node12 -->
<g id="Node000012" class="node">
<title>Node12</title>
<g id="a_Node000012"><a xlink:title=" ">
<polygon fill="#e0e0e0" stroke="#999999" points="1827.38,-32 1679.38,-32 1679.38,0 1827.38,0 1827.38,-32"/>
<text text-anchor="start" x="1687.38" y="-18.5" font-family="Helvetica,sans-Serif" font-size="10.00">com.hust.ittnk68.cnpm.model.</text>
<text text-anchor="middle" x="1753.38" y="-6.5" font-family="Helvetica,sans-Serif" font-size="10.00">Account</text>
</a>
</g>
</g>
<!-- Node1&#45;&gt;Node12 -->
<g id="edge11_Node000001_Node000012" class="edge">
<title>Node1&#45;&gt;Node12</title>
<g id="a_edge11_Node000001_Node000012"><a xlink:title=" ">
<path fill="none" stroke="#63b8ff" d="M2522.3,-85.7C2383.04,-79.54 2093.53,-64.04 1838.86,-32.23"/>
<polygon fill="#63b8ff" stroke="#63b8ff" points="1839.39,-28.77 1829.03,-30.99 1838.51,-35.71 1839.39,-28.77"/>
</a>
</g>
</g>
<!-- Node13 -->
<g id="Node000013" class="node">
<title>Node13</title>
<g id="a_Node000013"><a xlink:title=" ">
<polygon fill="#e0e0e0" stroke="#999999" points="1993.38,-32 1845.38,-32 1845.38,0 1993.38,0 1993.38,-32"/>
<text text-anchor="start" x="1853.38" y="-18.5" font-family="Helvetica,sans-Serif" font-size="10.00">com.hust.ittnk68.cnpm.model.</text>
<text text-anchor="middle" x="1919.38" y="-6.5" font-family="Helvetica,sans-Serif" font-size="10.00">UpdateAccountModel</text>
</a>
</g>
</g>
<!-- Node1&#45;&gt;Node13 -->
<g id="edge12_Node000001_Node000013" class="edge">
<title>Node1&#45;&gt;Node13</title>
<g id="a_edge12_Node000001_Node000013"><a xlink:title=" ">
<path fill="none" stroke="#63b8ff" d="M2522.7,-83.41C2408.56,-75.19 2196.05,-58.12 2004.93,-32.28"/>
<polygon fill="#63b8ff" stroke="#63b8ff" points="2005.42,-28.81 1995.04,-30.93 2004.47,-35.75 2005.42,-28.81"/>
</a>
</g>
</g>
<!-- Node14 -->
<g id="Node000014" class="node">
<title>Node14</title>
<g id="a_Node000014"><a xlink:title=" ">
<polygon fill="#e0e0e0" stroke="#999999" points="2129.38,-32 2011.38,-32 2011.38,0 2129.38,0 2129.38,-32"/>
<text text-anchor="start" x="2019.38" y="-18.5" font-family="Helvetica,sans-Serif" font-size="10.00">atlantafx.base.controls.</text>
<text text-anchor="middle" x="2070.38" y="-6.5" font-family="Helvetica,sans-Serif" font-size="10.00">PasswordTextField</text>
</a>
</g>
</g>
<!-- Node1&#45;&gt;Node14 -->
<g id="edge13_Node000001_Node000014" class="edge">
<title>Node1&#45;&gt;Node14</title>
<g id="a_edge13_Node000001_Node000014"><a xlink:title=" ">
<path fill="none" stroke="#63b8ff" d="M2522.36,-81.29C2431.18,-72.27 2280.24,-55.74 2140.94,-32.34"/>
<polygon fill="#63b8ff" stroke="#63b8ff" points="2141.58,-28.9 2131.14,-30.68 2140.41,-35.8 2141.58,-28.9"/>
</a>
</g>
</g>
<!-- Node15 -->
<g id="Node000015" class="node">
<title>Node15</title>
<g id="a_Node000015"><a xlink:title=" ">
<polygon fill="#e0e0e0" stroke="#999999" points="2285.5,-26 2147.25,-26 2147.25,-6 2285.5,-6 2285.5,-26"/>
<text text-anchor="middle" x="2216.38" y="-12.5" font-family="Helvetica,sans-Serif" font-size="10.00">atlantafx.base.theme.Styles</text>
</a>
</g>
</g>
<!-- Node1&#45;&gt;Node15 -->
<g id="edge14_Node000001_Node000015" class="edge">
<title>Node1&#45;&gt;Node15</title>
<g id="a_edge14_Node000001_Node000015"><a xlink:title=" ">
<path fill="none" stroke="#63b8ff" d="M2522.51,-74.01C2459.83,-62.63 2371.66,-46.51 2294.38,-32 2288.45,-30.89 2282.26,-29.72 2276.09,-28.54"/>
<polygon fill="#63b8ff" stroke="#63b8ff" points="2277.01,-25.15 2266.53,-26.71 2275.7,-32.03 2277.01,-25.15"/>
</a>
</g>
</g>
<!-- Node16 -->
<g id="Node000016" class="node">
<title>Node16</title>
<g id="a_Node000016"><a xlink:title=" ">
<polygon fill="#e0e0e0" stroke="#999999" points="2459.5,-26 2303.25,-26 2303.25,-6 2459.5,-6 2459.5,-26"/>
<text text-anchor="middle" x="2381.38" y="-12.5" font-family="Helvetica,sans-Serif" font-size="10.00">javafx.collections.FXCollections</text>
</a>
</g>
</g>
<!-- Node1&#45;&gt;Node16 -->
<g id="edge15_Node000001_Node000016" class="edge">
<title>Node1&#45;&gt;Node16</title>
<g id="a_edge15_Node000001_Node000016"><a xlink:title=" ">
<path fill="none" stroke="#63b8ff" d="M2538.77,-67.59C2500.7,-55.36 2454.21,-40.41 2421.66,-29.95"/>
<polygon fill="#63b8ff" stroke="#63b8ff" points="2422.8,-26.64 2412.21,-26.91 2420.66,-33.3 2422.8,-26.64"/>
</a>
</g>
</g>
<!-- Node17 -->
<g id="Node000017" class="node">
<title>Node17</title>
<g id="a_Node000017"><a xlink:title=" ">
<polygon fill="#e0e0e0" stroke="#999999" points="2591.5,-26 2477.25,-26 2477.25,-6 2591.5,-6 2591.5,-26"/>
<text text-anchor="middle" x="2534.38" y="-12.5" font-family="Helvetica,sans-Serif" font-size="10.00">javafx.geometry.Insets</text>
</a>
</g>
</g>
<!-- Node1&#45;&gt;Node17 -->
<g id="edge16_Node000001_Node000017" class="edge">
<title>Node1&#45;&gt;Node17</title>
<g id="a_edge16_Node000001_Node000017"><a xlink:title=" ">
<path fill="none" stroke="#63b8ff" d="M2584.46,-67.79C2573.95,-57.14 2561.39,-44.39 2551.47,-34.34"/>
<polygon fill="#63b8ff" stroke="#63b8ff" points="2554.13,-32.05 2544.62,-27.39 2549.15,-36.97 2554.13,-32.05"/>
</a>
</g>
</g>
<!-- Node18 -->
<g id="Node000018" class="node">
<title>Node18</title>
<g id="a_Node000018"><a xlink:title=" ">
<polygon fill="#e0e0e0" stroke="#999999" points="2745,-26 2609.75,-26 2609.75,-6 2745,-6 2745,-26"/>
<text text-anchor="middle" x="2677.38" y="-12.5" font-family="Helvetica,sans-Serif" font-size="10.00">javafx.scene.control.Button</text>
</a>
</g>
</g>
<!-- Node1&#45;&gt;Node18 -->
<g id="edge17_Node000001_Node000018" class="edge">
<title>Node1&#45;&gt;Node18</title>
<g id="a_edge17_Node000001_Node000018"><a xlink:title=" ">
<path fill="none" stroke="#63b8ff" d="M2626.59,-67.79C2637.24,-57.14 2649.98,-44.39 2660.04,-34.34"/>
<polygon fill="#63b8ff" stroke="#63b8ff" points="2662.4,-36.93 2666.99,-27.38 2657.45,-31.98 2662.4,-36.93"/>
</a>
</g>
</g>
<!-- Node19 -->
<g id="Node000019" class="node">
<title>Node19</title>
<g id="a_Node000019"><a xlink:title=" ">
<polygon fill="#e0e0e0" stroke="#999999" points="2919.5,-26 2763.25,-26 2763.25,-6 2919.5,-6 2919.5,-26"/>
<text text-anchor="middle" x="2841.38" y="-12.5" font-family="Helvetica,sans-Serif" font-size="10.00">javafx.scene.control.ButtonType</text>
</a>
</g>
</g>
<!-- Node1&#45;&gt;Node19 -->
<g id="edge18_Node000001_Node000019" class="edge">
<title>Node1&#45;&gt;Node19</title>
<g id="a_edge18_Node000001_Node000019"><a xlink:title=" ">
<path fill="none" stroke="#63b8ff" d="M2675.54,-67.59C2716,-55.25 2765.49,-40.15 2799.82,-29.68"/>
<polygon fill="#63b8ff" stroke="#63b8ff" points="2800.42,-33.16 2808.96,-26.89 2798.37,-26.46 2800.42,-33.16"/>
</a>
</g>
</g>
<!-- Node20 -->
<g id="Node000020" class="node">
<title>Node20</title>
<g id="a_Node000020"><a xlink:title=" ">
<polygon fill="#e0e0e0" stroke="#999999" points="3093.12,-26 2937.62,-26 2937.62,-6 3093.12,-6 3093.12,-26"/>
<text text-anchor="middle" x="3015.38" y="-12.5" font-family="Helvetica,sans-Serif" font-size="10.00">javafx.scene.control.ComboBox</text>
</a>
</g>
</g>
<!-- Node1&#45;&gt;Node20 -->
<g id="edge19_Node000001_Node000020" class="edge">
<title>Node1&#45;&gt;Node20</title>
<g id="a_edge19_Node000001_Node000020"><a xlink:title=" ">
<path fill="none" stroke="#63b8ff" d="M2688.34,-74.43C2765.75,-60.84 2879.65,-40.83 2950.57,-28.38"/>
<polygon fill="#63b8ff" stroke="#63b8ff" points="2950.84,-31.89 2960.08,-26.71 2949.63,-24.99 2950.84,-31.89"/>
</a>
</g>
</g>
<!-- Node21 -->
<g id="Node000021" class="node">
<title>Node21</title>
<g id="a_Node000021"><a xlink:title=" ">
<polygon fill="#e0e0e0" stroke="#999999" points="3233.62,-26 3111.12,-26 3111.12,-6 3233.62,-6 3233.62,-26"/>
<text text-anchor="middle" x="3172.38" y="-12.5" font-family="Helvetica,sans-Serif" font-size="10.00">javafx.scene.control.Tab</text>
</a>
</g>
</g>
<!-- Node1&#45;&gt;Node21 -->
<g id="edge20_Node000001_Node000021" class="edge">
<title>Node1&#45;&gt;Node21</title>
<g id="a_edge20_Node000001_Node000021"><a xlink:title=" ">
<path fill="none" stroke="#63b8ff" d="M2688.38,-81.96C2787.33,-73 2957.53,-55.77 3102.38,-32 3108.28,-31.03 3114.43,-29.9 3120.54,-28.69"/>
<polygon fill="#63b8ff" stroke="#63b8ff" points="3120.84,-32.21 3129.93,-26.78 3119.43,-25.35 3120.84,-32.21"/>
</a>
</g>
</g>
<!-- Node22 -->
<g id="Node000022" class="node">
<title>Node22</title>
<g id="a_Node000022"><a xlink:title=" ">
<polygon fill="#e0e0e0" stroke="#999999" points="3399,-26 3251.75,-26 3251.75,-6 3399,-6 3399,-26"/>
<text text-anchor="middle" x="3325.38" y="-12.5" font-family="Helvetica,sans-Serif" font-size="10.00">javafx.scene.control.TableCell</text>
</a>
</g>
</g>
<!-- Node1&#45;&gt;Node22 -->
<g id="edge21_Node000001_Node000022" class="edge">
<title>Node1&#45;&gt;Node22</title>
<g id="a_edge21_Node000001_Node000022"><a xlink:title=" ">
<path fill="none" stroke="#63b8ff" d="M2688.35,-83.96C2810.18,-76.01 3044.45,-58.69 3242.38,-32 3250.07,-30.96 3258.14,-29.71 3266.09,-28.38"/>
<polygon fill="#63b8ff" stroke="#63b8ff" points="3266.46,-31.87 3275.72,-26.72 3265.27,-24.97 3266.46,-31.87"/>
</a>
</g>
</g>
<!-- Node23 -->
<g id="Node000023" class="node">
<title>Node23</title>
<g id="a_Node000023"><a xlink:title=" ">
<polygon fill="#e0e0e0" stroke="#999999" points="3547.38,-32 3417.38,-32 3417.38,0 3547.38,0 3547.38,-32"/>
<text text-anchor="start" x="3425.38" y="-18.5" font-family="Helvetica,sans-Serif" font-size="10.00">javafx.scene.control.Table</text>
<text text-anchor="middle" x="3482.38" y="-6.5" font-family="Helvetica,sans-Serif" font-size="10.00">Column</text>
</a>
</g>
</g>
<!-- Node1&#45;&gt;Node23 -->
<g id="edge22_Node000001_Node000023" class="edge">
<title>Node1&#45;&gt;Node23</title>
<g id="a_edge22_Node000001_Node000023"><a xlink:title=" ">
<path fill="none" stroke="#63b8ff" d="M2688.39,-86.64C2832.52,-81.77 3138.48,-68 3405.98,-32.21"/>
<polygon fill="#63b8ff" stroke="#63b8ff" points="3406.14,-35.72 3415.58,-30.91 3405.2,-28.79 3406.14,-35.72"/>
</a>
</g>
</g>
<!-- Node24 -->
<g id="Node000024" class="node">
<title>Node24</title>
<g id="a_Node000024"><a xlink:title=" ">
<polygon fill="#e0e0e0" stroke="#999999" points="3717.25,-26 3565.5,-26 3565.5,-6 3717.25,-6 3717.25,-26"/>
<text text-anchor="middle" x="3641.38" y="-12.5" font-family="Helvetica,sans-Serif" font-size="10.00">javafx.scene.control.TableView</text>
</a>
</g>
</g>
<!-- Node1&#45;&gt;Node24 -->
<g id="edge23_Node000001_Node000024" class="edge">
<title>Node1&#45;&gt;Node24</title>
<g id="a_edge23_Node000001_Node000024"><a xlink:title=" ">
<path fill="none" stroke="#63b8ff" d="M2688.34,-87.23C2853.91,-82.99 3236.88,-69.64 3556.38,-32 3564.76,-31.01 3573.56,-29.73 3582.21,-28.34"/>
<polygon fill="#63b8ff" stroke="#63b8ff" points="3582.64,-31.81 3591.93,-26.71 3581.48,-24.91 3582.64,-31.81"/>
</a>
</g>
</g>
<!-- Node25 -->
<g id="Node000025" class="node">
<title>Node25</title>
<g id="a_Node000025"><a xlink:title=" ">
<polygon fill="#e0e0e0" stroke="#999999" points="3861.12,-32 3735.62,-32 3735.62,0 3861.12,0 3861.12,-32"/>
<text text-anchor="start" x="3743.62" y="-18.5" font-family="Helvetica,sans-Serif" font-size="10.00">javafx.scene.control.Text</text>
<text text-anchor="middle" x="3798.38" y="-6.5" font-family="Helvetica,sans-Serif" font-size="10.00">Field</text>
</a>
</g>
</g>
<!-- Node1&#45;&gt;Node25 -->
<g id="edge24_Node000001_Node000025" class="edge">
<title>Node1&#45;&gt;Node25</title>
<g id="a_edge24_Node000001_Node000025"><a xlink:title=" ">
<path fill="none" stroke="#63b8ff" d="M2688.39,-89.15C2873.03,-88.55 3331.71,-81.83 3723.96,-32.17"/>
<polygon fill="#63b8ff" stroke="#63b8ff" points="3724.28,-35.66 3733.75,-30.92 3723.39,-28.71 3724.28,-35.66"/>
</a>
</g>
</g>
<!-- Node26 -->
<g id="Node000026" class="node">
<title>Node26</title>
<g id="a_Node000026"><a xlink:title=" ">
<polygon fill="#e0e0e0" stroke="#999999" points="4003.75,-32 3879,-32 3879,0 4003.75,0 4003.75,-32"/>
<text text-anchor="start" x="3887" y="-18.5" font-family="Helvetica,sans-Serif" font-size="10.00">javafx.scene.control.cell.</text>
<text text-anchor="middle" x="3941.38" y="-6.5" font-family="Helvetica,sans-Serif" font-size="10.00">PropertyValueFactory</text>
</a>
</g>
</g>
<!-- Node1&#45;&gt;Node26 -->
<g id="edge25_Node000001_Node000026" class="edge">
<title>Node1&#45;&gt;Node26</title>
<g id="a_edge25_Node000001_Node000026"><a xlink:title=" ">
<path fill="none" stroke="#63b8ff" d="M2688.43,-87.03C2928.13,-81.06 3619.22,-61.85 3867.61,-32.18"/>
<polygon fill="#63b8ff" stroke="#63b8ff" points="3867.75,-35.69 3877.25,-30.99 3866.89,-28.75 3867.75,-35.69"/>
</a>
</g>
</g>
<!-- Node27 -->
<g id="Node000027" class="node">
<title>Node27</title>
<g id="a_Node000027"><a xlink:title=" ">
<polygon fill="#e0e0e0" stroke="#999999" points="4169,-26 4021.75,-26 4021.75,-6 4169,-6 4169,-26"/>
<text text-anchor="middle" x="4095.38" y="-12.5" font-family="Helvetica,sans-Serif" font-size="10.00">javafx.scene.layout.FlowPane</text>
</a>
</g>
</g>
<!-- Node1&#45;&gt;Node27 -->
<g id="edge26_Node000001_Node000027" class="edge">
<title>Node1&#45;&gt;Node27</title>
<g id="a_edge26_Node000001_Node000027"><a xlink:title=" ">
<path fill="none" stroke="#63b8ff" d="M2688.14,-89.63C2905.77,-90.43 3511.79,-87.11 4012.38,-32 4020.77,-31.08 4029.61,-29.81 4038.25,-28.39"/>
<polygon fill="#63b8ff" stroke="#63b8ff" points="4038.69,-31.87 4047.95,-26.73 4037.5,-24.97 4038.69,-31.87"/>
</a>
</g>
</g>
<!-- Node28 -->
<g id="Node000028" class="node">
<title>Node28</title>
<g id="a_Node000028"><a xlink:title=" ">
<polygon fill="#e0e0e0" stroke="#999999" points="4331.5,-26 4187.25,-26 4187.25,-6 4331.5,-6 4331.5,-26"/>
<text text-anchor="middle" x="4259.38" y="-12.5" font-family="Helvetica,sans-Serif" font-size="10.00">javafx.scene.layout.GridPane</text>
</a>
</g>
</g>
<!-- Node1&#45;&gt;Node28 -->
<g id="edge27_Node000001_Node000028" class="edge">
<title>Node1&#45;&gt;Node28</title>
<g id="a_edge27_Node000001_Node000028"><a xlink:title=" ">
<path fill="none" stroke="#63b8ff" d="M2688.07,-87.61C2968.98,-82.63 3885.36,-64.26 4178.38,-32 4186.58,-31.1 4195.21,-29.84 4203.65,-28.43"/>
<polygon fill="#63b8ff" stroke="#63b8ff" points="4204.25,-31.88 4213.5,-26.7 4203.04,-24.98 4204.25,-31.88"/>
</a>
</g>
</g>
<!-- Node29 -->
<g id="Node000029" class="node">
<title>Node29</title>
<g id="a_Node000029"><a xlink:title=" ">
<polygon fill="#e0e0e0" stroke="#999999" points="4477.62,-26 4349.12,-26 4349.12,-6 4477.62,-6 4477.62,-26"/>
<text text-anchor="middle" x="4413.38" y="-12.5" font-family="Helvetica,sans-Serif" font-size="10.00">javafx.scene.layout.HBox</text>
</a>
</g>
</g>
<!-- Node1&#45;&gt;Node29 -->
<g id="edge28_Node000001_Node000029" class="edge">
<title>Node1&#45;&gt;Node29</title>
<g id="a_edge28_Node000001_Node000029"><a xlink:title=" ">
<path fill="none" stroke="#63b8ff" d="M2688.43,-88.14C2988.32,-84.75 4014.62,-70.54 4340.38,-32 4347.46,-31.16 4354.88,-29.99 4362.15,-28.67"/>
<polygon fill="#63b8ff" stroke="#63b8ff" points="4362.77,-32.11 4371.93,-26.77 4361.44,-25.24 4362.77,-32.11"/>
</a>
</g>
</g>
<!-- Node30 -->
<g id="Node000030" class="node">
<title>Node30</title>
<g id="a_Node000030"><a xlink:title=" ">
<polygon fill="#e0e0e0" stroke="#999999" points="4623.25,-26 4495.5,-26 4495.5,-6 4623.25,-6 4623.25,-26"/>
<text text-anchor="middle" x="4559.38" y="-12.5" font-family="Helvetica,sans-Serif" font-size="10.00">javafx.scene.layout.VBox</text>
</a>
</g>
</g>
<!-- Node1&#45;&gt;Node30 -->
<g id="edge29_Node000001_Node000030" class="edge">
<title>Node1&#45;&gt;Node30</title>
<g id="a_edge29_Node000001_Node000030"><a xlink:title=" ">
<path fill="none" stroke="#63b8ff" d="M2688.27,-88.39C3003.89,-85.77 4130.54,-73.63 4486.38,-32 4493.63,-31.15 4501.23,-29.95 4508.68,-28.59"/>
<polygon fill="#63b8ff" stroke="#63b8ff" points="4509.16,-32.06 4518.31,-26.72 4507.83,-25.19 4509.16,-32.06"/>
</a>
</g>
</g>
<!-- Node31 -->
<g id="Node000031" class="node">
<title>Node31</title>
<g id="a_Node000031"><a xlink:title=" ">
<polygon fill="#e0e0e0" stroke="#999999" points="4753.75,-26 4641,-26 4641,-6 4753.75,-6 4753.75,-26"/>
<text text-anchor="middle" x="4697.38" y="-12.5" font-family="Helvetica,sans-Serif" font-size="10.00">javafx.scene.text.Text</text>
</a>
</g>
</g>
<!-- Node1&#45;&gt;Node31 -->
<g id="edge30_Node000001_Node000031" class="edge">
<title>Node1&#45;&gt;Node31</title>
<g id="a_edge30_Node000001_Node000031"><a xlink:title=" ">
<path fill="none" stroke="#63b8ff" d="M2688.45,-88.86C3019.71,-87.98 4247.06,-81.38 4632.38,-32 4638.48,-31.22 4644.85,-30.11 4651.11,-28.86"/>
<polygon fill="#63b8ff" stroke="#63b8ff" points="4651.67,-32.32 4660.7,-26.78 4650.19,-25.47 4651.67,-32.32"/>
</a>
</g>
</g>
<!-- Node32 -->
<g id="Node000032" class="node">
<title>Node32</title>
<g id="a_Node000032"><a xlink:title=" ">
<polygon fill="#e0e0e0" stroke="#999999" points="4869.25,-26 4771.5,-26 4771.5,-6 4869.25,-6 4869.25,-26"/>
<text text-anchor="middle" x="4820.38" y="-12.5" font-family="Helvetica,sans-Serif" font-size="10.00">javafx.stage.Stage</text>
</a>
</g>
</g>
<!-- Node1&#45;&gt;Node32 -->
<g id="edge31_Node000001_Node000032" class="edge">
<title>Node1&#45;&gt;Node32</title>
<g id="a_edge31_Node000001_Node000032"><a xlink:title=" ">
<path fill="none" stroke="#63b8ff" d="M2688.49,-89.32C3033.13,-90.25 4350.96,-89.87 4762.38,-32 4767.44,-31.29 4772.69,-30.3 4777.88,-29.16"/>
<polygon fill="#63b8ff" stroke="#63b8ff" points="4778.65,-32.57 4787.56,-26.84 4777.02,-25.77 4778.65,-32.57"/>
</a>
</g>
</g>
<!-- Node33 -->
<g id="Node000033" class="node">
<title>Node33</title>
<g id="a_Node000033"><a xlink:title=" ">
<polygon fill="#e0e0e0" stroke="#999999" points="4987,-26 4887.75,-26 4887.75,-6 4987,-6 4987,-26"/>
<text text-anchor="middle" x="4937.38" y="-12.5" font-family="Helvetica,sans-Serif" font-size="10.00">javafx.util.Callback</text>
</a>
</g>
</g>
<!-- Node1&#45;&gt;Node33 -->
<g id="edge32_Node000001_Node000033" class="edge">
<title>Node1&#45;&gt;Node33</title>
<g id="a_edge32_Node000001_Node000033"><a xlink:title=" ">
<path fill="none" stroke="#63b8ff" d="M2688.41,-89.4C3044.34,-90.75 4442.85,-92.05 4878.38,-32 4883.66,-31.27 4889.15,-30.25 4894.57,-29.07"/>
<polygon fill="#63b8ff" stroke="#63b8ff" points="4895.08,-32.55 4904.01,-26.84 4893.47,-25.73 4895.08,-32.55"/>
</a>
</g>
</g>
</g>
</svg>
