<?xml version="1.0" encoding="UTF-8" standalone="no"?>
<!DOCTYPE svg PUBLIC "-//W3C//DTD SVG 1.1//EN"
 "http://www.w3.org/Graphics/SVG/1.1/DTD/svg11.dtd">
<!-- Generated by graphviz version 12.2.1 (20241206.2353)
 -->
<!-- Title: src/main/java/com/hust/ittnk68/cnpm/view/AdminFamilyManagePage.java Pages: 1 -->
<svg width="4866pt" height="120pt"
 viewBox="0.00 0.00 4865.50 120.00" xmlns="http://www.w3.org/2000/svg" xmlns:xlink="http://www.w3.org/1999/xlink">
<g id="graph0" class="graph" transform="scale(1 1) rotate(0) translate(4 116)">
<title>src/main/java/com/hust/ittnk68/cnpm/view/AdminFamilyManagePage.java</title>
<!-- Node1 -->
<g id="Node000001" class="node">
<title>Node1</title>
<g id="a_Node000001"><a xlink:title=" ">
<polygon fill="#999999" stroke="#666666" points="2586.12,-112 2427.62,-112 2427.62,-68 2586.12,-68 2586.12,-112"/>
<text text-anchor="start" x="2435.62" y="-98.5" font-family="Helvetica,sans-Serif" font-size="10.00">src/main/java/com/hust</text>
<text text-anchor="start" x="2435.62" y="-86.5" font-family="Helvetica,sans-Serif" font-size="10.00">/ittnk68/cnpm/view/AdminFamily</text>
<text text-anchor="middle" x="2506.88" y="-74.5" font-family="Helvetica,sans-Serif" font-size="10.00">ManagePage.java</text>
</a>
</g>
</g>
<!-- Node2 -->
<g id="Node000002" class="node">
<title>Node2</title>
<g id="a_Node000002"><a xlink:title=" ">
<polygon fill="#e0e0e0" stroke="#999999" points="91.75,-26 0,-26 0,-6 91.75,-6 91.75,-26"/>
<text text-anchor="middle" x="45.88" y="-12.5" font-family="Helvetica,sans-Serif" font-size="10.00">java.util.ArrayList</text>
</a>
</g>
</g>
<!-- Node1&#45;&gt;Node2 -->
<g id="edge1_Node000001_Node000002" class="edge">
<title>Node1&#45;&gt;Node2</title>
<g id="a_edge1_Node000001_Node000002"><a xlink:title=" ">
<path fill="none" stroke="#63b8ff" d="M2427.39,-88.26C2037.33,-84.49 334.92,-66.17 100.88,-32 96.14,-31.31 91.23,-30.34 86.38,-29.23"/>
<polygon fill="#63b8ff" stroke="#63b8ff" points="87.3,-25.85 76.75,-26.8 85.59,-32.64 87.3,-25.85"/>
</a>
</g>
</g>
<!-- Node3 -->
<g id="Node000003" class="node">
<title>Node3</title>
<g id="a_Node000003"><a xlink:title=" ">
<polygon fill="#e0e0e0" stroke="#999999" points="178.12,-26 109.62,-26 109.62,-6 178.12,-6 178.12,-26"/>
<text text-anchor="middle" x="143.88" y="-12.5" font-family="Helvetica,sans-Serif" font-size="10.00">java.util.List</text>
</a>
</g>
</g>
<!-- Node1&#45;&gt;Node3 -->
<g id="edge2_Node000001_Node000003" class="edge">
<title>Node1&#45;&gt;Node3</title>
<g id="a_edge2_Node000001_Node000003"><a xlink:title=" ">
<path fill="none" stroke="#63b8ff" d="M2427.4,-88.48C2045.9,-85.78 411.75,-71.94 187.88,-32 184.67,-31.43 181.39,-30.67 178.12,-29.78"/>
<polygon fill="#63b8ff" stroke="#63b8ff" points="179.31,-26.49 168.72,-26.89 177.25,-33.18 179.31,-26.49"/>
</a>
</g>
</g>
<!-- Node4 -->
<g id="Node000004" class="node">
<title>Node4</title>
<g id="a_Node000004"><a xlink:title=" ">
<polygon fill="#e0e0e0" stroke="#999999" points="285.25,-26 196.5,-26 196.5,-6 285.25,-6 285.25,-26"/>
<text text-anchor="middle" x="240.88" y="-12.5" font-family="Helvetica,sans-Serif" font-size="10.00">java.util.Optional</text>
</a>
</g>
</g>
<!-- Node1&#45;&gt;Node4 -->
<g id="edge3_Node000001_Node000004" class="edge">
<title>Node1&#45;&gt;Node4</title>
<g id="a_edge3_Node000001_Node000004"><a xlink:title=" ">
<path fill="none" stroke="#63b8ff" d="M2427.4,-88.13C2056.85,-83.92 507.73,-64.49 293.88,-32 289.43,-31.32 284.83,-30.39 280.28,-29.32"/>
<polygon fill="#63b8ff" stroke="#63b8ff" points="281.22,-25.95 270.66,-26.81 279.45,-32.72 281.22,-25.95"/>
</a>
</g>
</g>
<!-- Node5 -->
<g id="Node000005" class="node">
<title>Node5</title>
<g id="a_Node000005"><a xlink:title=" ">
<polygon fill="#e0e0e0" stroke="#999999" points="430.75,-32 303,-32 303,0 430.75,0 430.75,-32"/>
<text text-anchor="start" x="311" y="-18.5" font-family="Helvetica,sans-Serif" font-size="10.00">org.kordamp.ikonli.javafx.</text>
<text text-anchor="middle" x="366.88" y="-6.5" font-family="Helvetica,sans-Serif" font-size="10.00">FontIcon</text>
</a>
</g>
</g>
<!-- Node1&#45;&gt;Node5 -->
<g id="edge4_Node000001_Node000005" class="edge">
<title>Node1&#45;&gt;Node5</title>
<g id="a_edge4_Node000001_Node000005"><a xlink:title=" ">
<path fill="none" stroke="#63b8ff" d="M2427.29,-88.67C2100.28,-87.02 858.11,-77.9 442.04,-32.07"/>
<polygon fill="#63b8ff" stroke="#63b8ff" points="442.7,-28.62 432.37,-30.98 441.91,-35.58 442.7,-28.62"/>
</a>
</g>
</g>
<!-- Node6 -->
<g id="Node000006" class="node">
<title>Node6</title>
<g id="a_Node000006"><a xlink:title=" ">
<polygon fill="#e0e0e0" stroke="#999999" points="590.5,-32 449.25,-32 449.25,0 590.5,0 590.5,-32"/>
<text text-anchor="start" x="457.25" y="-18.5" font-family="Helvetica,sans-Serif" font-size="10.00">org.kordamp.ikonli.material2.</text>
<text text-anchor="middle" x="519.88" y="-6.5" font-family="Helvetica,sans-Serif" font-size="10.00">Material2MZ</text>
</a>
</g>
</g>
<!-- Node1&#45;&gt;Node6 -->
<g id="edge5_Node000001_Node000006" class="edge">
<title>Node1&#45;&gt;Node6</title>
<g id="a_edge5_Node000001_Node000006"><a xlink:title=" ">
<path fill="none" stroke="#63b8ff" d="M2427.13,-88.3C2116.31,-85.29 984.74,-71.89 602.23,-32.24"/>
<polygon fill="#63b8ff" stroke="#63b8ff" points="602.67,-28.76 592.36,-31.18 601.93,-35.72 602.67,-28.76"/>
</a>
</g>
</g>
<!-- Node7 -->
<g id="Node000007" class="node">
<title>Node7</title>
<g id="a_Node000007"><a xlink:title=" ">
<polygon fill="#e0e0e0" stroke="#999999" points="749.5,-32 608.25,-32 608.25,0 749.5,0 749.5,-32"/>
<text text-anchor="start" x="616.25" y="-18.5" font-family="Helvetica,sans-Serif" font-size="10.00">org.kordamp.ikonli.material2.</text>
<text text-anchor="middle" x="678.88" y="-6.5" font-family="Helvetica,sans-Serif" font-size="10.00">Material2OutlinedAL</text>
</a>
</g>
</g>
<!-- Node1&#45;&gt;Node7 -->
<g id="edge6_Node000001_Node000007" class="edge">
<title>Node1&#45;&gt;Node7</title>
<g id="a_edge6_Node000001_Node000007"><a xlink:title=" ">
<path fill="none" stroke="#63b8ff" d="M2427.33,-88.02C2133.93,-84.16 1111.71,-68.46 761.32,-32.12"/>
<polygon fill="#63b8ff" stroke="#63b8ff" points="761.71,-28.64 751.4,-31.06 760.97,-35.6 761.71,-28.64"/>
</a>
</g>
</g>
<!-- Node8 -->
<g id="Node000008" class="node">
<title>Node8</title>
<g id="a_Node000008"><a xlink:title=" ">
<polygon fill="#e0e0e0" stroke="#999999" points="925.75,-32 768,-32 768,0 925.75,0 925.75,-32"/>
<text text-anchor="start" x="776" y="-18.5" font-family="Helvetica,sans-Serif" font-size="10.00">com.fasterxml.jackson.databind.</text>
<text text-anchor="middle" x="846.88" y="-6.5" font-family="Helvetica,sans-Serif" font-size="10.00">ObjectMapper</text>
</a>
</g>
</g>
<!-- Node1&#45;&gt;Node8 -->
<g id="edge7_Node000001_Node000008" class="edge">
<title>Node1&#45;&gt;Node8</title>
<g id="a_edge7_Node000001_Node000008"><a xlink:title=" ">
<path fill="none" stroke="#63b8ff" d="M2427.15,-87.51C2153.32,-82.17 1251.34,-62.74 937.33,-32.13"/>
<polygon fill="#63b8ff" stroke="#63b8ff" points="937.77,-28.66 927.47,-31.14 937.07,-35.62 937.77,-28.66"/>
</a>
</g>
</g>
<!-- Node9 -->
<g id="Node000009" class="node">
<title>Node9</title>
<g id="a_Node000009"><a xlink:title=" ">
<polygon fill="#e0e0e0" stroke="#999999" points="1101.75,-32 944,-32 944,0 1101.75,0 1101.75,-32"/>
<text text-anchor="start" x="952" y="-18.5" font-family="Helvetica,sans-Serif" font-size="10.00">com.fasterxml.jackson.databind.</text>
<text text-anchor="middle" x="1022.88" y="-6.5" font-family="Helvetica,sans-Serif" font-size="10.00">SerializationFeature</text>
</a>
</g>
</g>
<!-- Node1&#45;&gt;Node9 -->
<g id="edge8_Node000001_Node000009" class="edge">
<title>Node1&#45;&gt;Node9</title>
<g id="a_edge8_Node000001_Node000009"><a xlink:title=" ">
<path fill="none" stroke="#63b8ff" d="M2427.13,-89.31C2214.88,-89.37 1618.44,-84.54 1113.13,-32.14"/>
<polygon fill="#63b8ff" stroke="#63b8ff" points="1113.78,-28.69 1103.47,-31.13 1113.05,-35.65 1113.78,-28.69"/>
</a>
</g>
</g>
<!-- Node10 -->
<g id="Node000010" class="node">
<title>Node10</title>
<g id="a_Node000010"><a xlink:title=" ">
<polygon fill="#e0e0e0" stroke="#999999" points="1307.75,-32 1120,-32 1120,0 1307.75,0 1307.75,-32"/>
<text text-anchor="start" x="1128" y="-18.5" font-family="Helvetica,sans-Serif" font-size="10.00">com.hust.ittnk68.cnpm.communication.</text>
<text text-anchor="middle" x="1213.88" y="-6.5" font-family="Helvetica,sans-Serif" font-size="10.00">AdminDeleteObject</text>
</a>
</g>
</g>
<!-- Node1&#45;&gt;Node10 -->
<g id="edge9_Node000001_Node000010" class="edge">
<title>Node1&#45;&gt;Node10</title>
<g id="a_edge9_Node000001_Node000010"><a xlink:title=" ">
<path fill="none" stroke="#63b8ff" d="M2427.3,-87.85C2237.4,-84.52 1742.58,-72.46 1319.37,-32.18"/>
<polygon fill="#63b8ff" stroke="#63b8ff" points="1319.93,-28.71 1309.64,-31.24 1319.26,-35.68 1319.93,-28.71"/>
</a>
</g>
</g>
<!-- Node11 -->
<g id="Node000011" class="node">
<title>Node11</title>
<g id="a_Node000011"><a xlink:title=" ">
<polygon fill="#e0e0e0" stroke="#999999" points="1513.75,-32 1326,-32 1326,0 1513.75,0 1513.75,-32"/>
<text text-anchor="start" x="1334" y="-18.5" font-family="Helvetica,sans-Serif" font-size="10.00">com.hust.ittnk68.cnpm.communication.</text>
<text text-anchor="middle" x="1419.88" y="-6.5" font-family="Helvetica,sans-Serif" font-size="10.00">ServerDeleteObjectResponse</text>
</a>
</g>
</g>
<!-- Node1&#45;&gt;Node11 -->
<g id="edge10_Node000001_Node000011" class="edge">
<title>Node1&#45;&gt;Node11</title>
<g id="a_edge10_Node000001_Node000011"><a xlink:title=" ">
<path fill="none" stroke="#63b8ff" d="M2427.29,-86.73C2261.5,-81.5 1866.84,-66.39 1525.49,-32.21"/>
<polygon fill="#63b8ff" stroke="#63b8ff" points="1525.94,-28.73 1515.64,-31.21 1525.24,-35.7 1525.94,-28.73"/>
</a>
</g>
</g>
<!-- Node12 -->
<g id="Node000012" class="node">
<title>Node12</title>
<g id="a_Node000012"><a xlink:title=" ">
<polygon fill="#e0e0e0" stroke="#999999" points="1692.25,-32 1531.5,-32 1531.5,0 1692.25,0 1692.25,-32"/>
<text text-anchor="start" x="1539.5" y="-18.5" font-family="Helvetica,sans-Serif" font-size="10.00">com.hust.ittnk68.cnpm.controller.</text>
<text text-anchor="middle" x="1611.88" y="-6.5" font-family="Helvetica,sans-Serif" font-size="10.00">ClientSceneController</text>
</a>
</g>
</g>
<!-- Node1&#45;&gt;Node12 -->
<g id="edge11_Node000001_Node000012" class="edge">
<title>Node1&#45;&gt;Node12</title>
<g id="a_edge11_Node000001_Node000012"><a xlink:title=" ">
<path fill="none" stroke="#63b8ff" d="M2427.13,-85.91C2284.13,-79.81 1974.49,-64.07 1703.6,-32.25"/>
<polygon fill="#63b8ff" stroke="#63b8ff" points="1704.2,-28.8 1693.86,-31.1 1703.38,-35.75 1704.2,-28.8"/>
</a>
</g>
</g>
<!-- Node13 -->
<g id="Node000013" class="node">
<title>Node13</title>
<g id="a_Node000013"><a xlink:title=" ">
<polygon fill="#e0e0e0" stroke="#999999" points="1857.88,-32 1709.88,-32 1709.88,0 1857.88,0 1857.88,-32"/>
<text text-anchor="start" x="1717.88" y="-18.5" font-family="Helvetica,sans-Serif" font-size="10.00">com.hust.ittnk68.cnpm.model.</text>
<text text-anchor="middle" x="1783.88" y="-6.5" font-family="Helvetica,sans-Serif" font-size="10.00">CreateFamilyModel</text>
</a>
</g>
</g>
<!-- Node1&#45;&gt;Node13 -->
<g id="edge12_Node000001_Node000013" class="edge">
<title>Node1&#45;&gt;Node13</title>
<g id="a_edge12_Node000001_Node000013"><a xlink:title=" ">
<path fill="none" stroke="#63b8ff" d="M2427.3,-84.22C2308.21,-76.56 2076.38,-59.67 1869.43,-32.27"/>
<polygon fill="#63b8ff" stroke="#63b8ff" points="1869.91,-28.8 1859.53,-30.94 1868.98,-35.74 1869.91,-28.8"/>
</a>
</g>
</g>
<!-- Node14 -->
<g id="Node000014" class="node">
<title>Node14</title>
<g id="a_Node000014"><a xlink:title=" ">
<polygon fill="#e0e0e0" stroke="#999999" points="2023.88,-32 1875.88,-32 1875.88,0 2023.88,0 2023.88,-32"/>
<text text-anchor="start" x="1883.88" y="-18.5" font-family="Helvetica,sans-Serif" font-size="10.00">com.hust.ittnk68.cnpm.model.</text>
<text text-anchor="middle" x="1949.88" y="-6.5" font-family="Helvetica,sans-Serif" font-size="10.00">Family</text>
</a>
</g>
</g>
<!-- Node1&#45;&gt;Node14 -->
<g id="edge13_Node000001_Node000014" class="edge">
<title>Node1&#45;&gt;Node14</title>
<g id="a_edge13_Node000001_Node000014"><a xlink:title=" ">
<path fill="none" stroke="#63b8ff" d="M2427.43,-80.9C2335.51,-71.2 2179.37,-53.71 2035.29,-32.31"/>
<polygon fill="#63b8ff" stroke="#63b8ff" points="2035.96,-28.87 2025.55,-30.85 2034.92,-35.79 2035.96,-28.87"/>
</a>
</g>
</g>
<!-- Node15 -->
<g id="Node000015" class="node">
<title>Node15</title>
<g id="a_Node000015"><a xlink:title=" ">
<polygon fill="#e0e0e0" stroke="#999999" points="2189.88,-32 2041.88,-32 2041.88,0 2189.88,0 2189.88,-32"/>
<text text-anchor="start" x="2049.88" y="-18.5" font-family="Helvetica,sans-Serif" font-size="10.00">com.hust.ittnk68.cnpm.model.</text>
<text text-anchor="middle" x="2115.88" y="-6.5" font-family="Helvetica,sans-Serif" font-size="10.00">UpdateFamilyModel</text>
</a>
</g>
</g>
<!-- Node1&#45;&gt;Node15 -->
<g id="edge14_Node000001_Node000015" class="edge">
<title>Node1&#45;&gt;Node15</title>
<g id="a_edge14_Node000001_Node000015"><a xlink:title=" ">
<path fill="none" stroke="#63b8ff" d="M2427.28,-74.34C2361.5,-62.23 2268.32,-45.07 2201.05,-32.68"/>
<polygon fill="#63b8ff" stroke="#63b8ff" points="2202.02,-29.3 2191.55,-30.94 2200.75,-36.19 2202.02,-29.3"/>
</a>
</g>
</g>
<!-- Node16 -->
<g id="Node000016" class="node">
<title>Node16</title>
<g id="a_Node000016"><a xlink:title=" ">
<polygon fill="#e0e0e0" stroke="#999999" points="2348.12,-32 2207.62,-32 2207.62,0 2348.12,0 2348.12,-32"/>
<text text-anchor="start" x="2215.62" y="-18.5" font-family="Helvetica,sans-Serif" font-size="10.00">com.hust.ittnk68.cnpm.type.</text>
<text text-anchor="middle" x="2277.88" y="-6.5" font-family="Helvetica,sans-Serif" font-size="10.00">Nation</text>
</a>
</g>
</g>
<!-- Node1&#45;&gt;Node16 -->
<g id="edge15_Node000001_Node000016" class="edge">
<title>Node1&#45;&gt;Node16</title>
<g id="a_edge15_Node000001_Node000016"><a xlink:title=" ">
<path fill="none" stroke="#63b8ff" d="M2438.79,-67.59C2406.71,-57.51 2368.78,-45.58 2337.8,-35.84"/>
<polygon fill="#63b8ff" stroke="#63b8ff" points="2339.19,-32.61 2328.6,-32.95 2337.09,-39.29 2339.19,-32.61"/>
</a>
</g>
</g>
<!-- Node17 -->
<g id="Node000017" class="node">
<title>Node17</title>
<g id="a_Node000017"><a xlink:title=" ">
<polygon fill="#e0e0e0" stroke="#999999" points="2504,-26 2365.75,-26 2365.75,-6 2504,-6 2504,-26"/>
<text text-anchor="middle" x="2434.88" y="-12.5" font-family="Helvetica,sans-Serif" font-size="10.00">atlantafx.base.theme.Styles</text>
</a>
</g>
</g>
<!-- Node1&#45;&gt;Node17 -->
<g id="edge16_Node000001_Node000017" class="edge">
<title>Node1&#45;&gt;Node17</title>
<g id="a_edge16_Node000001_Node000017"><a xlink:title=" ">
<path fill="none" stroke="#63b8ff" d="M2485.66,-67.79C2475.01,-57.14 2462.27,-44.39 2452.21,-34.34"/>
<polygon fill="#63b8ff" stroke="#63b8ff" points="2454.8,-31.98 2445.26,-27.38 2449.85,-36.93 2454.8,-31.98"/>
</a>
</g>
</g>
<!-- Node18 -->
<g id="Node000018" class="node">
<title>Node18</title>
<g id="a_Node000018"><a xlink:title=" ">
<polygon fill="#e0e0e0" stroke="#999999" points="2636,-26 2521.75,-26 2521.75,-6 2636,-6 2636,-26"/>
<text text-anchor="middle" x="2578.88" y="-12.5" font-family="Helvetica,sans-Serif" font-size="10.00">javafx.geometry.Insets</text>
</a>
</g>
</g>
<!-- Node1&#45;&gt;Node18 -->
<g id="edge17_Node000001_Node000018" class="edge">
<title>Node1&#45;&gt;Node18</title>
<g id="a_edge17_Node000001_Node000018"><a xlink:title=" ">
<path fill="none" stroke="#63b8ff" d="M2528.09,-67.79C2538.74,-57.14 2551.48,-44.39 2561.54,-34.34"/>
<polygon fill="#63b8ff" stroke="#63b8ff" points="2563.9,-36.93 2568.49,-27.38 2558.95,-31.98 2563.9,-36.93"/>
</a>
</g>
</g>
<!-- Node19 -->
<g id="Node000019" class="node">
<title>Node19</title>
<g id="a_Node000019"><a xlink:title=" ">
<polygon fill="#e0e0e0" stroke="#999999" points="2789.5,-26 2654.25,-26 2654.25,-6 2789.5,-6 2789.5,-26"/>
<text text-anchor="middle" x="2721.88" y="-12.5" font-family="Helvetica,sans-Serif" font-size="10.00">javafx.scene.control.Button</text>
</a>
</g>
</g>
<!-- Node1&#45;&gt;Node19 -->
<g id="edge18_Node000001_Node000019" class="edge">
<title>Node1&#45;&gt;Node19</title>
<g id="a_edge18_Node000001_Node000019"><a xlink:title=" ">
<path fill="none" stroke="#63b8ff" d="M2570.8,-67.59C2607.18,-55.41 2651.58,-40.54 2682.8,-30.09"/>
<polygon fill="#63b8ff" stroke="#63b8ff" points="2683.86,-33.42 2692.23,-26.93 2681.63,-26.79 2683.86,-33.42"/>
</a>
</g>
</g>
<!-- Node20 -->
<g id="Node000020" class="node">
<title>Node20</title>
<g id="a_Node000020"><a xlink:title=" ">
<polygon fill="#e0e0e0" stroke="#999999" points="2964,-26 2807.75,-26 2807.75,-6 2964,-6 2964,-26"/>
<text text-anchor="middle" x="2885.88" y="-12.5" font-family="Helvetica,sans-Serif" font-size="10.00">javafx.scene.control.ButtonType</text>
</a>
</g>
</g>
<!-- Node1&#45;&gt;Node20 -->
<g id="edge19_Node000001_Node000020" class="edge">
<title>Node1&#45;&gt;Node20</title>
<g id="a_edge19_Node000001_Node000020"><a xlink:title=" ">
<path fill="none" stroke="#63b8ff" d="M2586.33,-73.91C2657.38,-60.41 2760.02,-40.91 2824.82,-28.6"/>
<polygon fill="#63b8ff" stroke="#63b8ff" points="2825.41,-32.05 2834.58,-26.75 2824.1,-25.17 2825.41,-32.05"/>
</a>
</g>
</g>
<!-- Node21 -->
<g id="Node000021" class="node">
<title>Node21</title>
<g id="a_Node000021"><a xlink:title=" ">
<polygon fill="#e0e0e0" stroke="#999999" points="3104.12,-26 2981.62,-26 2981.62,-6 3104.12,-6 3104.12,-26"/>
<text text-anchor="middle" x="3042.88" y="-12.5" font-family="Helvetica,sans-Serif" font-size="10.00">javafx.scene.control.Tab</text>
</a>
</g>
</g>
<!-- Node1&#45;&gt;Node21 -->
<g id="edge20_Node000001_Node000021" class="edge">
<title>Node1&#45;&gt;Node21</title>
<g id="a_edge20_Node000001_Node000021"><a xlink:title=" ">
<path fill="none" stroke="#63b8ff" d="M2586.34,-81.46C2679.35,-72.14 2837.84,-54.68 2972.88,-32 2978.55,-31.05 2984.47,-29.95 2990.34,-28.79"/>
<polygon fill="#63b8ff" stroke="#63b8ff" points="2990.96,-32.23 3000.05,-26.8 2989.56,-25.37 2990.96,-32.23"/>
</a>
</g>
</g>
<!-- Node22 -->
<g id="Node000022" class="node">
<title>Node22</title>
<g id="a_Node000022"><a xlink:title=" ">
<polygon fill="#e0e0e0" stroke="#999999" points="3269.5,-26 3122.25,-26 3122.25,-6 3269.5,-6 3269.5,-26"/>
<text text-anchor="middle" x="3195.88" y="-12.5" font-family="Helvetica,sans-Serif" font-size="10.00">javafx.scene.control.TableCell</text>
</a>
</g>
</g>
<!-- Node1&#45;&gt;Node22 -->
<g id="edge21_Node000001_Node000022" class="edge">
<title>Node1&#45;&gt;Node22</title>
<g id="a_edge21_Node000001_Node000022"><a xlink:title=" ">
<path fill="none" stroke="#63b8ff" d="M2586.53,-83.68C2702.63,-75.43 2924.95,-57.77 3112.88,-32 3120.38,-30.97 3128.24,-29.74 3136.01,-28.44"/>
<polygon fill="#63b8ff" stroke="#63b8ff" points="3136.52,-31.91 3145.78,-26.76 3135.33,-25.01 3136.52,-31.91"/>
</a>
</g>
</g>
<!-- Node23 -->
<g id="Node000023" class="node">
<title>Node23</title>
<g id="a_Node000023"><a xlink:title=" ">
<polygon fill="#e0e0e0" stroke="#999999" points="3417.88,-32 3287.88,-32 3287.88,0 3417.88,0 3417.88,-32"/>
<text text-anchor="start" x="3295.88" y="-18.5" font-family="Helvetica,sans-Serif" font-size="10.00">javafx.scene.control.Table</text>
<text text-anchor="middle" x="3352.88" y="-6.5" font-family="Helvetica,sans-Serif" font-size="10.00">Column</text>
</a>
</g>
</g>
<!-- Node1&#45;&gt;Node23 -->
<g id="edge22_Node000001_Node000023" class="edge">
<title>Node1&#45;&gt;Node23</title>
<g id="a_edge22_Node000001_Node000023"><a xlink:title=" ">
<path fill="none" stroke="#63b8ff" d="M2586.41,-86.44C2724.79,-81.26 3018.93,-67.04 3276.51,-32.21"/>
<polygon fill="#63b8ff" stroke="#63b8ff" points="3276.65,-35.73 3286.08,-30.91 3275.7,-28.79 3276.65,-35.73"/>
</a>
</g>
</g>
<!-- Node24 -->
<g id="Node000024" class="node">
<title>Node24</title>
<g id="a_Node000024"><a xlink:title=" ">
<polygon fill="#e0e0e0" stroke="#999999" points="3587.75,-26 3436,-26 3436,-6 3587.75,-6 3587.75,-26"/>
<text text-anchor="middle" x="3511.88" y="-12.5" font-family="Helvetica,sans-Serif" font-size="10.00">javafx.scene.control.TableView</text>
</a>
</g>
</g>
<!-- Node1&#45;&gt;Node24 -->
<g id="edge23_Node000001_Node000024" class="edge">
<title>Node1&#45;&gt;Node24</title>
<g id="a_edge23_Node000001_Node000024"><a xlink:title=" ">
<path fill="none" stroke="#63b8ff" d="M2586.52,-87.09C2746.35,-82.59 3117.4,-68.78 3426.88,-32 3435.26,-31 3444.06,-29.72 3452.7,-28.32"/>
<polygon fill="#63b8ff" stroke="#63b8ff" points="3453.14,-31.8 3462.42,-26.69 3451.98,-24.9 3453.14,-31.8"/>
</a>
</g>
</g>
<!-- Node25 -->
<g id="Node000025" class="node">
<title>Node25</title>
<g id="a_Node000025"><a xlink:title=" ">
<polygon fill="#e0e0e0" stroke="#999999" points="3731.62,-32 3606.12,-32 3606.12,0 3731.62,0 3731.62,-32"/>
<text text-anchor="start" x="3614.12" y="-18.5" font-family="Helvetica,sans-Serif" font-size="10.00">javafx.scene.control.Text</text>
<text text-anchor="middle" x="3668.88" y="-6.5" font-family="Helvetica,sans-Serif" font-size="10.00">Field</text>
</a>
</g>
</g>
<!-- Node1&#45;&gt;Node25 -->
<g id="edge24_Node000001_Node000025" class="edge">
<title>Node1&#45;&gt;Node25</title>
<g id="a_edge24_Node000001_Node000025"><a xlink:title=" ">
<path fill="none" stroke="#63b8ff" d="M2586.58,-89C2765.39,-88.1 3212.19,-80.83 3594.46,-32.17"/>
<polygon fill="#63b8ff" stroke="#63b8ff" points="3594.78,-35.66 3604.25,-30.91 3593.89,-28.72 3594.78,-35.66"/>
</a>
</g>
</g>
<!-- Node26 -->
<g id="Node000026" class="node">
<title>Node26</title>
<g id="a_Node000026"><a xlink:title=" ">
<polygon fill="#e0e0e0" stroke="#999999" points="3874.25,-32 3749.5,-32 3749.5,0 3874.25,0 3874.25,-32"/>
<text text-anchor="start" x="3757.5" y="-18.5" font-family="Helvetica,sans-Serif" font-size="10.00">javafx.scene.control.cell.</text>
<text text-anchor="middle" x="3811.88" y="-6.5" font-family="Helvetica,sans-Serif" font-size="10.00">PropertyValueFactory</text>
</a>
</g>
</g>
<!-- Node1&#45;&gt;Node26 -->
<g id="edge25_Node000001_Node000026" class="edge">
<title>Node1&#45;&gt;Node26</title>
<g id="a_edge25_Node000001_Node000026"><a xlink:title=" ">
<path fill="none" stroke="#63b8ff" d="M2586.3,-89.77C2781.22,-90.72 3298.75,-87.45 3737.91,-32.24"/>
<polygon fill="#63b8ff" stroke="#63b8ff" points="3738.27,-35.73 3747.75,-31 3737.39,-28.78 3738.27,-35.73"/>
</a>
</g>
</g>
<!-- Node27 -->
<g id="Node000027" class="node">
<title>Node27</title>
<g id="a_Node000027"><a xlink:title=" ">
<polygon fill="#e0e0e0" stroke="#999999" points="4039.5,-26 3892.25,-26 3892.25,-6 4039.5,-6 4039.5,-26"/>
<text text-anchor="middle" x="3965.88" y="-12.5" font-family="Helvetica,sans-Serif" font-size="10.00">javafx.scene.layout.FlowPane</text>
</a>
</g>
</g>
<!-- Node1&#45;&gt;Node27 -->
<g id="edge26_Node000001_Node000027" class="edge">
<title>Node1&#45;&gt;Node27</title>
<g id="a_edge26_Node000001_Node000027"><a xlink:title=" ">
<path fill="none" stroke="#63b8ff" d="M2586.27,-89.52C2797.78,-90.07 3392.14,-86.25 3882.88,-32 3891.27,-31.07 3900.11,-29.8 3908.75,-28.39"/>
<polygon fill="#63b8ff" stroke="#63b8ff" points="3909.19,-31.86 3918.45,-26.72 3908,-24.96 3909.19,-31.86"/>
</a>
</g>
</g>
<!-- Node28 -->
<g id="Node000028" class="node">
<title>Node28</title>
<g id="a_Node000028"><a xlink:title=" ">
<polygon fill="#e0e0e0" stroke="#999999" points="4202,-26 4057.75,-26 4057.75,-6 4202,-6 4202,-26"/>
<text text-anchor="middle" x="4129.88" y="-12.5" font-family="Helvetica,sans-Serif" font-size="10.00">javafx.scene.layout.GridPane</text>
</a>
</g>
</g>
<!-- Node1&#45;&gt;Node28 -->
<g id="edge27_Node000001_Node000028" class="edge">
<title>Node1&#45;&gt;Node28</title>
<g id="a_edge27_Node000001_Node000028"><a xlink:title=" ">
<path fill="none" stroke="#63b8ff" d="M2586.51,-87.6C2860.2,-82.53 3761.14,-63.79 4048.88,-32 4057.08,-31.09 4065.71,-29.83 4074.15,-28.42"/>
<polygon fill="#63b8ff" stroke="#63b8ff" points="4074.75,-31.87 4083.99,-26.69 4073.54,-24.98 4074.75,-31.87"/>
</a>
</g>
</g>
<!-- Node29 -->
<g id="Node000029" class="node">
<title>Node29</title>
<g id="a_Node000029"><a xlink:title=" ">
<polygon fill="#e0e0e0" stroke="#999999" points="4348.12,-26 4219.62,-26 4219.62,-6 4348.12,-6 4348.12,-26"/>
<text text-anchor="middle" x="4283.88" y="-12.5" font-family="Helvetica,sans-Serif" font-size="10.00">javafx.scene.layout.HBox</text>
</a>
</g>
</g>
<!-- Node1&#45;&gt;Node29 -->
<g id="edge28_Node000001_Node000029" class="edge">
<title>Node1&#45;&gt;Node29</title>
<g id="a_edge28_Node000001_Node000029"><a xlink:title=" ">
<path fill="none" stroke="#63b8ff" d="M2586.43,-88.13C2878.35,-84.64 3890.21,-70.03 4210.88,-32 4217.96,-31.16 4225.37,-29.99 4232.65,-28.66"/>
<polygon fill="#63b8ff" stroke="#63b8ff" points="4233.27,-32.11 4242.43,-26.77 4231.94,-25.23 4233.27,-32.11"/>
</a>
</g>
</g>
<!-- Node30 -->
<g id="Node000030" class="node">
<title>Node30</title>
<g id="a_Node000030"><a xlink:title=" ">
<polygon fill="#e0e0e0" stroke="#999999" points="4493.75,-26 4366,-26 4366,-6 4493.75,-6 4493.75,-26"/>
<text text-anchor="middle" x="4429.88" y="-12.5" font-family="Helvetica,sans-Serif" font-size="10.00">javafx.scene.layout.VBox</text>
</a>
</g>
</g>
<!-- Node1&#45;&gt;Node30 -->
<g id="edge29_Node000001_Node000030" class="edge">
<title>Node1&#45;&gt;Node30</title>
<g id="a_edge29_Node000001_Node000030"><a xlink:title=" ">
<path fill="none" stroke="#63b8ff" d="M2586.56,-88.37C2894.4,-85.65 4006.21,-73.12 4356.88,-32 4364.13,-31.15 4371.73,-29.94 4379.18,-28.58"/>
<polygon fill="#63b8ff" stroke="#63b8ff" points="4379.66,-32.06 4388.81,-26.71 4378.33,-25.18 4379.66,-32.06"/>
</a>
</g>
</g>
<!-- Node31 -->
<g id="Node000031" class="node">
<title>Node31</title>
<g id="a_Node000031"><a xlink:title=" ">
<polygon fill="#e0e0e0" stroke="#999999" points="4624.25,-26 4511.5,-26 4511.5,-6 4624.25,-6 4624.25,-26"/>
<text text-anchor="middle" x="4567.88" y="-12.5" font-family="Helvetica,sans-Serif" font-size="10.00">javafx.scene.text.Text</text>
</a>
</g>
</g>
<!-- Node1&#45;&gt;Node31 -->
<g id="edge30_Node000001_Node000031" class="edge">
<title>Node1&#45;&gt;Node31</title>
<g id="a_edge30_Node000001_Node000031"><a xlink:title=" ">
<path fill="none" stroke="#63b8ff" d="M2586.47,-88.83C2909.4,-87.83 4122.6,-80.82 4502.88,-32 4508.98,-31.22 4515.35,-30.11 4521.61,-28.85"/>
<polygon fill="#63b8ff" stroke="#63b8ff" points="4522.17,-32.31 4531.2,-26.78 4520.69,-25.47 4522.17,-32.31"/>
</a>
</g>
</g>
<!-- Node32 -->
<g id="Node000032" class="node">
<title>Node32</title>
<g id="a_Node000032"><a xlink:title=" ">
<polygon fill="#e0e0e0" stroke="#999999" points="4739.75,-26 4642,-26 4642,-6 4739.75,-6 4739.75,-26"/>
<text text-anchor="middle" x="4690.88" y="-12.5" font-family="Helvetica,sans-Serif" font-size="10.00">javafx.stage.Stage</text>
</a>
</g>
</g>
<!-- Node1&#45;&gt;Node32 -->
<g id="edge31_Node000001_Node000032" class="edge">
<title>Node1&#45;&gt;Node32</title>
<g id="a_edge31_Node000001_Node000032"><a xlink:title=" ">
<path fill="none" stroke="#63b8ff" d="M2586.52,-89.27C2922.63,-90.05 4226.47,-89.25 4632.88,-32 4637.94,-31.29 4643.19,-30.3 4648.38,-29.16"/>
<polygon fill="#63b8ff" stroke="#63b8ff" points="4649.15,-32.57 4658.06,-26.84 4647.52,-25.77 4649.15,-32.57"/>
</a>
</g>
</g>
<!-- Node33 -->
<g id="Node000033" class="node">
<title>Node33</title>
<g id="a_Node000033"><a xlink:title=" ">
<polygon fill="#e0e0e0" stroke="#999999" points="4857.5,-26 4758.25,-26 4758.25,-6 4857.5,-6 4857.5,-26"/>
<text text-anchor="middle" x="4807.88" y="-12.5" font-family="Helvetica,sans-Serif" font-size="10.00">javafx.util.Callback</text>
</a>
</g>
</g>
<!-- Node1&#45;&gt;Node33 -->
<g id="edge32_Node000001_Node000033" class="edge">
<title>Node1&#45;&gt;Node33</title>
<g id="a_edge32_Node000001_Node000033"><a xlink:title=" ">
<path fill="none" stroke="#63b8ff" d="M2586.43,-89.36C2933.66,-90.56 4318.33,-91.44 4748.88,-32 4754.16,-31.27 4759.65,-30.25 4765.07,-29.07"/>
<polygon fill="#63b8ff" stroke="#63b8ff" points="4765.58,-32.55 4774.51,-26.84 4763.97,-25.73 4765.58,-32.55"/>
</a>
</g>
</g>
</g>
</svg>
