<?xml version="1.0" encoding="UTF-8" standalone="no"?>
<!DOCTYPE svg PUBLIC "-//W3C//DTD SVG 1.1//EN"
 "http://www.w3.org/Graphics/SVG/1.1/DTD/svg11.dtd">
<!-- Generated by graphviz version 12.2.1 (20241206.2353)
 -->
<!-- Title: src/main/java/com/hust/ittnk68/cnpm/view/AdminPaymentStatusManagePage.java Pages: 1 -->
<!--zoomable 120 -->

<svg id="main" version="1.1" xmlns="http://www.w3.org/2000/svg" xmlns:xlink="http://www.w3.org/1999/xlink" xml:space="preserve" onload="init(evt)">

<style type="text/css"><![CDATA[
.node, .edge {opacity: 0.7;}
.node.selected, .edge.selected {opacity: 1;}
.edge:hover path { stroke: red; }
.edge:hover polygon { stroke: red; fill: red; }
]]></style>

<defs>
  <circle id="rim" cx="0" cy="0" r="7"/>
  <circle id="rim2" cx="0" cy="0" r="3.5"/>
  <g id="zoomPlus">
    <use xlink:href="#rim" fill="#404040"><set attributeName="fill" to="#808080" begin="zoomplus.mouseover" end="zoomplus.mouseout"/></use>
    <path d="M-4,0h8M0,-4v8" fill="none" stroke="white" stroke-width="1.5" pointer-events="none"/>
  </g>
  <g id="zoomMin">
    <use xlink:href="#rim" fill="#404040"><set attributeName="fill" to="#808080" begin="zoomminus.mouseover" end="zoomminus.mouseout"/></use>
    <path d="M-4,0h8" fill="none" stroke="white" stroke-width="1.5" pointer-events="none"/>
  </g>
  <g id="arrowUp" transform="translate(30 24)">
    <use xlink:href="#rim"/>
    <path pointer-events="none" fill="none" stroke="white" stroke-width="1.5" d="M0,-3.0v7 M-2.5,-0.5L0,-3.0L2.5,-0.5"/>
  </g>
  <g id="arrowRight" transform="rotate(90) translate(36 -43)">
    <use xlink:href="#rim"/>
    <path pointer-events="none" fill="none" stroke="white" stroke-width="1.5" d="M0,-3.0v7 M-2.5,-0.5L0,-3.0L2.5,-0.5"/>
  </g>
  <g id="arrowDown" transform="rotate(180) translate(-30 -48)">
    <use xlink:href="#rim"/>
    <path pointer-events="none" fill="none" stroke="white" stroke-width="1.5" d="M0,-3.0v7 M-2.5,-0.5L0,-3.0L2.5,-0.5"/>
  </g>
  <g id="arrowLeft" transform="rotate(270) translate(-36 17)">
    <use xlink:href="#rim"/>
    <path pointer-events="none" fill="none" stroke="white" stroke-width="1.5" d="M0,-3.0v7 M-2.5,-0.5L0,-3.0L2.5,-0.5"/>
  </g>
  <g id="resetDef">
    <use xlink:href="#rim2" fill="#404040"><set attributeName="fill" to="#808080" begin="reset.mouseover" end="reset.mouseout"/></use>
  </g>
</defs>
<script type="application/ecmascript">
var viewWidth = 5839;
var viewHeight = 120;
var sectionId = 'dynsection-0';
</script>
<script type="application/ecmascript" xlink:href="svg.min.js"/>
<svg id="graph" class="graph">
<g id="viewport">
<title>src/main/java/com/hust/ittnk68/cnpm/view/AdminPaymentStatusManagePage.java</title>
<!-- Node1 -->
<g id="Node000001" class="node">
<title>Node1</title>
<g id="a_Node000001"><a xlink:title=" ">
<polygon fill="#999999" stroke="#666666" points="3097.62,-112 2929.38,-112 2929.38,-68 3097.62,-68 3097.62,-112"/>
<text text-anchor="start" x="2937.38" y="-98.5" font-family="Helvetica,sans-Serif" font-size="10.00">src/main/java/com/hust</text>
<text text-anchor="start" x="2937.38" y="-86.5" font-family="Helvetica,sans-Serif" font-size="10.00">/ittnk68/cnpm/view/AdminPayment</text>
<text text-anchor="middle" x="3013.5" y="-74.5" font-family="Helvetica,sans-Serif" font-size="10.00">StatusManagePage.java</text>
</a>
</g>
</g>
<!-- Node2 -->
<g id="Node000002" class="node">
<title>Node2</title>
<g id="a_Node000002"><a xlink:title=" ">
<polygon fill="#e0e0e0" stroke="#999999" points="103,-26 0,-26 0,-6 103,-6 103,-26"/>
<text text-anchor="middle" x="51.5" y="-12.5" font-family="Helvetica,sans-Serif" font-size="10.00">java.time.LocalDate</text>
</a>
</g>
</g>
<!-- Node1&#45;&gt;Node2 -->
<g id="edge1_Node000001_Node000002" class="edge">
<title>Node1&#45;&gt;Node2</title>
<g id="a_edge1_Node000001_Node000002"><a xlink:title=" ">
<path fill="none" stroke="#63b8ff" d="M2929.04,-88.46C2481.59,-85.42 397.59,-69.38 112.5,-32 106.83,-31.26 100.93,-30.19 95.13,-28.96"/>
<polygon fill="#63b8ff" stroke="#63b8ff" points="96.18,-25.61 85.65,-26.78 94.61,-32.43 96.18,-25.61"/>
</a>
</g>
</g>
<!-- Node3 -->
<g id="Node000003" class="node">
<title>Node3</title>
<g id="a_Node000003"><a xlink:title=" ">
<polygon fill="#e0e0e0" stroke="#999999" points="209.88,-26 121.12,-26 121.12,-6 209.88,-6 209.88,-26"/>
<text text-anchor="middle" x="165.5" y="-12.5" font-family="Helvetica,sans-Serif" font-size="10.00">java.time.ZoneId</text>
</a>
</g>
</g>
<!-- Node1&#45;&gt;Node3 -->
<g id="edge2_Node000001_Node000003" class="edge">
<title>Node1&#45;&gt;Node3</title>
<g id="a_edge2_Node000001_Node000003"><a xlink:title=" ">
<path fill="none" stroke="#63b8ff" d="M2928.92,-88.54C2491.2,-85.96 492.82,-72.1 219.5,-32 214.84,-31.32 210.02,-30.36 205.25,-29.25"/>
<polygon fill="#63b8ff" stroke="#63b8ff" points="206.38,-25.92 195.83,-26.83 204.64,-32.7 206.38,-25.92"/>
</a>
</g>
</g>
<!-- Node4 -->
<g id="Node000004" class="node">
<title>Node4</title>
<g id="a_Node000004"><a xlink:title=" ">
<polygon fill="#e0e0e0" stroke="#999999" points="316.88,-26 228.12,-26 228.12,-6 316.88,-6 316.88,-26"/>
<text text-anchor="middle" x="272.5" y="-12.5" font-family="Helvetica,sans-Serif" font-size="10.00">java.util.Optional</text>
</a>
</g>
</g>
<!-- Node1&#45;&gt;Node4 -->
<g id="edge3_Node000001_Node000004" class="edge">
<title>Node1&#45;&gt;Node4</title>
<g id="a_edge3_Node000001_Node000004"><a xlink:title=" ">
<path fill="none" stroke="#63b8ff" d="M2928.98,-88.49C2501.51,-85.72 587.69,-71.23 325.5,-32 321.05,-31.33 316.45,-30.41 311.9,-29.34"/>
<polygon fill="#63b8ff" stroke="#63b8ff" points="312.84,-25.96 302.28,-26.83 311.07,-32.74 312.84,-25.96"/>
</a>
</g>
</g>
<!-- Node5 -->
<g id="Node000005" class="node">
<title>Node5</title>
<g id="a_Node000005"><a xlink:title=" ">
<polygon fill="#e0e0e0" stroke="#999999" points="462.38,-32 334.62,-32 334.62,0 462.38,0 462.38,-32"/>
<text text-anchor="start" x="342.62" y="-18.5" font-family="Helvetica,sans-Serif" font-size="10.00">org.kordamp.ikonli.javafx.</text>
<text text-anchor="middle" x="398.5" y="-6.5" font-family="Helvetica,sans-Serif" font-size="10.00">FontIcon</text>
</a>
</g>
</g>
<!-- Node1&#45;&gt;Node5 -->
<g id="edge4_Node000001_Node000005" class="edge">
<title>Node1&#45;&gt;Node5</title>
<g id="a_edge4_Node000001_Node000005"><a xlink:title=" ">
<path fill="none" stroke="#63b8ff" d="M2928.91,-89.15C2547.75,-89.52 986.56,-87.63 473.67,-32.07"/>
<polygon fill="#63b8ff" stroke="#63b8ff" points="474.32,-28.62 463.99,-30.99 473.55,-35.57 474.32,-28.62"/>
</a>
</g>
</g>
<!-- Node6 -->
<g id="Node000006" class="node">
<title>Node6</title>
<g id="a_Node000006"><a xlink:title=" ">
<polygon fill="#e0e0e0" stroke="#999999" points="622.12,-32 480.88,-32 480.88,0 622.12,0 622.12,-32"/>
<text text-anchor="start" x="488.88" y="-18.5" font-family="Helvetica,sans-Serif" font-size="10.00">org.kordamp.ikonli.material2.</text>
<text text-anchor="middle" x="551.5" y="-6.5" font-family="Helvetica,sans-Serif" font-size="10.00">Material2MZ</text>
</a>
</g>
</g>
<!-- Node1&#45;&gt;Node6 -->
<g id="edge5_Node000001_Node000006" class="edge">
<title>Node1&#45;&gt;Node6</title>
<g id="a_edge5_Node000001_Node000006"><a xlink:title=" ">
<path fill="none" stroke="#63b8ff" d="M2929.03,-88.83C2563.2,-87.84 1112.77,-80.88 633.61,-32.2"/>
<polygon fill="#63b8ff" stroke="#63b8ff" points="634.29,-28.75 623.98,-31.2 633.57,-35.72 634.29,-28.75"/>
</a>
</g>
</g>
<!-- Node7 -->
<g id="Node000007" class="node">
<title>Node7</title>
<g id="a_Node000007"><a xlink:title=" ">
<polygon fill="#e0e0e0" stroke="#999999" points="781.12,-32 639.88,-32 639.88,0 781.12,0 781.12,-32"/>
<text text-anchor="start" x="647.88" y="-18.5" font-family="Helvetica,sans-Serif" font-size="10.00">org.kordamp.ikonli.material2.</text>
<text text-anchor="middle" x="710.5" y="-6.5" font-family="Helvetica,sans-Serif" font-size="10.00">Material2OutlinedAL</text>
</a>
</g>
</g>
<!-- Node1&#45;&gt;Node7 -->
<g id="edge6_Node000001_Node000007" class="edge">
<title>Node1&#45;&gt;Node7</title>
<g id="a_edge6_Node000001_Node000007"><a xlink:title=" ">
<path fill="none" stroke="#63b8ff" d="M2929.13,-88.64C2579.2,-86.87 1239.93,-77.3 792.87,-32.1"/>
<polygon fill="#63b8ff" stroke="#63b8ff" points="793.33,-28.63 783.02,-31.08 792.6,-35.59 793.33,-28.63"/>
</a>
</g>
</g>
<!-- Node8 -->
<g id="Node000008" class="node">
<title>Node8</title>
<g id="a_Node000008"><a xlink:title=" ">
<polygon fill="#e0e0e0" stroke="#999999" points="957.38,-32 799.62,-32 799.62,0 957.38,0 957.38,-32"/>
<text text-anchor="start" x="807.62" y="-18.5" font-family="Helvetica,sans-Serif" font-size="10.00">com.fasterxml.jackson.databind.</text>
<text text-anchor="middle" x="878.5" y="-6.5" font-family="Helvetica,sans-Serif" font-size="10.00">ObjectMapper</text>
</a>
</g>
</g>
<!-- Node1&#45;&gt;Node8 -->
<g id="edge7_Node000001_Node000008" class="edge">
<title>Node1&#45;&gt;Node8</title>
<g id="a_edge7_Node000001_Node000008"><a xlink:title=" ">
<path fill="none" stroke="#63b8ff" d="M2929.11,-88.24C2597.13,-85 1379.56,-70.76 968.91,-32.11"/>
<polygon fill="#63b8ff" stroke="#63b8ff" points="969.38,-28.64 959.09,-31.17 968.71,-35.61 969.38,-28.64"/>
</a>
</g>
</g>
<!-- Node9 -->
<g id="Node000009" class="node">
<title>Node9</title>
<g id="a_Node000009"><a xlink:title=" ">
<polygon fill="#e0e0e0" stroke="#999999" points="1133.38,-32 975.62,-32 975.62,0 1133.38,0 1133.38,-32"/>
<text text-anchor="start" x="983.62" y="-18.5" font-family="Helvetica,sans-Serif" font-size="10.00">com.fasterxml.jackson.databind.</text>
<text text-anchor="middle" x="1054.5" y="-6.5" font-family="Helvetica,sans-Serif" font-size="10.00">SerializationFeature</text>
</a>
</g>
</g>
<!-- Node1&#45;&gt;Node9 -->
<g id="edge8_Node000001_Node000009" class="edge">
<title>Node1&#45;&gt;Node9</title>
<g id="a_edge8_Node000001_Node000009"><a xlink:title=" ">
<path fill="none" stroke="#63b8ff" d="M2928.92,-87.98C2615.44,-83.96 1519.08,-67.71 1144.98,-32.12"/>
<polygon fill="#63b8ff" stroke="#63b8ff" points="1145.38,-28.65 1135.09,-31.16 1144.7,-35.61 1145.38,-28.65"/>
</a>
</g>
</g>
<!-- Node10 -->
<g id="Node000010" class="node">
<title>Node10</title>
<g id="a_Node000010"><a xlink:title=" ">
<polygon fill="#e0e0e0" stroke="#999999" points="1339.38,-32 1151.62,-32 1151.62,0 1339.38,0 1339.38,-32"/>
<text text-anchor="start" x="1159.62" y="-18.5" font-family="Helvetica,sans-Serif" font-size="10.00">com.hust.ittnk68.cnpm.communication.</text>
<text text-anchor="middle" x="1245.5" y="-6.5" font-family="Helvetica,sans-Serif" font-size="10.00">AdminDeleteObject</text>
</a>
</g>
</g>
<!-- Node1&#45;&gt;Node10 -->
<g id="edge9_Node000001_Node000010" class="edge">
<title>Node1&#45;&gt;Node10</title>
<g id="a_edge9_Node000001_Node000010"><a xlink:title=" ">
<path fill="none" stroke="#63b8ff" d="M2929.27,-89.4C2686.06,-89.84 1961.66,-86.22 1350.99,-32.15"/>
<polygon fill="#63b8ff" stroke="#63b8ff" points="1351.53,-28.69 1341.26,-31.29 1350.91,-35.66 1351.53,-28.69"/>
</a>
</g>
</g>
<!-- Node11 -->
<g id="Node000011" class="node">
<title>Node11</title>
<g id="a_Node000011"><a xlink:title=" ">
<polygon fill="#e0e0e0" stroke="#999999" points="1545.38,-32 1357.62,-32 1357.62,0 1545.38,0 1545.38,-32"/>
<text text-anchor="start" x="1365.62" y="-18.5" font-family="Helvetica,sans-Serif" font-size="10.00">com.hust.ittnk68.cnpm.communication.</text>
<text text-anchor="middle" x="1451.5" y="-6.5" font-family="Helvetica,sans-Serif" font-size="10.00">ServerDeleteObjectResponse</text>
</a>
</g>
</g>
<!-- Node1&#45;&gt;Node11 -->
<g id="edge10_Node000001_Node000011" class="edge">
<title>Node1&#45;&gt;Node11</title>
<g id="a_edge10_Node000001_Node000011"><a xlink:title=" ">
<path fill="none" stroke="#63b8ff" d="M2929.01,-88.81C2706.23,-87.65 2084.33,-80.08 1557.02,-32.16"/>
<polygon fill="#63b8ff" stroke="#63b8ff" points="1557.54,-28.7 1547.26,-31.27 1556.9,-35.67 1557.54,-28.7"/>
</a>
</g>
</g>
<!-- Node12 -->
<g id="Node000012" class="node">
<title>Node12</title>
<g id="a_Node000012"><a xlink:title=" ">
<polygon fill="#e0e0e0" stroke="#999999" points="1723.88,-32 1563.12,-32 1563.12,0 1723.88,0 1723.88,-32"/>
<text text-anchor="start" x="1571.12" y="-18.5" font-family="Helvetica,sans-Serif" font-size="10.00">com.hust.ittnk68.cnpm.controller.</text>
<text text-anchor="middle" x="1643.5" y="-6.5" font-family="Helvetica,sans-Serif" font-size="10.00">ClientSceneController</text>
</a>
</g>
</g>
<!-- Node1&#45;&gt;Node12 -->
<g id="edge11_Node000001_Node000012" class="edge">
<title>Node1&#45;&gt;Node12</title>
<g id="a_edge11_Node000001_Node000012"><a xlink:title=" ">
<path fill="none" stroke="#63b8ff" d="M2928.92,-88.81C2725.1,-87.59 2190.58,-79.79 1735.38,-32.22"/>
<polygon fill="#63b8ff" stroke="#63b8ff" points="1735.79,-28.74 1725.47,-31.17 1735.05,-35.7 1735.79,-28.74"/>
</a>
</g>
</g>
<!-- Node13 -->
<g id="Node000013" class="node">
<title>Node13</title>
<g id="a_Node000013"><a xlink:title=" ">
<polygon fill="#e0e0e0" stroke="#999999" points="1889.5,-32 1741.5,-32 1741.5,0 1889.5,0 1889.5,-32"/>
<text text-anchor="start" x="1749.5" y="-18.5" font-family="Helvetica,sans-Serif" font-size="10.00">com.hust.ittnk68.cnpm.model.</text>
<text text-anchor="middle" x="1815.5" y="-6.5" font-family="Helvetica,sans-Serif" font-size="10.00">CreatePaymentStatusModel</text>
</a>
</g>
</g>
<!-- Node1&#45;&gt;Node13 -->
<g id="edge12_Node000001_Node000013" class="edge">
<title>Node1&#45;&gt;Node13</title>
<g id="a_edge12_Node000001_Node000013"><a xlink:title=" ">
<path fill="none" stroke="#63b8ff" d="M2928.92,-88.36C2744.08,-86.15 2290.19,-76.4 1900.85,-32.17"/>
<polygon fill="#63b8ff" stroke="#63b8ff" points="1901.48,-28.72 1891.15,-31.06 1900.68,-35.67 1901.48,-28.72"/>
</a>
</g>
</g>
<!-- Node14 -->
<g id="Node000014" class="node">
<title>Node14</title>
<g id="a_Node000014"><a xlink:title=" ">
<polygon fill="#e0e0e0" stroke="#999999" points="2055.5,-32 1907.5,-32 1907.5,0 2055.5,0 2055.5,-32"/>
<text text-anchor="start" x="1915.5" y="-18.5" font-family="Helvetica,sans-Serif" font-size="10.00">com.hust.ittnk68.cnpm.model.</text>
<text text-anchor="middle" x="1981.5" y="-6.5" font-family="Helvetica,sans-Serif" font-size="10.00">FindPaymentStatusModel</text>
</a>
</g>
</g>
<!-- Node1&#45;&gt;Node14 -->
<g id="edge13_Node000001_Node000014" class="edge">
<title>Node1&#45;&gt;Node14</title>
<g id="a_edge13_Node000001_Node000014"><a xlink:title=" ">
<path fill="none" stroke="#63b8ff" d="M2929.09,-87.29C2764.86,-83.24 2390.75,-70.41 2066.67,-32.16"/>
<polygon fill="#63b8ff" stroke="#63b8ff" points="2067.49,-28.74 2057.15,-31.03 2066.66,-35.69 2067.49,-28.74"/>
</a>
</g>
</g>
<!-- Node15 -->
<g id="Node000015" class="node">
<title>Node15</title>
<g id="a_Node000015"><a xlink:title=" ">
<polygon fill="#e0e0e0" stroke="#999999" points="2221.5,-32 2073.5,-32 2073.5,0 2221.5,0 2221.5,-32"/>
<text text-anchor="start" x="2081.5" y="-18.5" font-family="Helvetica,sans-Serif" font-size="10.00">com.hust.ittnk68.cnpm.model.</text>
<text text-anchor="middle" x="2147.5" y="-6.5" font-family="Helvetica,sans-Serif" font-size="10.00">PaymentStatus</text>
</a>
</g>
</g>
<!-- Node1&#45;&gt;Node15 -->
<g id="edge14_Node000001_Node000015" class="edge">
<title>Node1&#45;&gt;Node15</title>
<g id="a_edge14_Node000001_Node000015"><a xlink:title=" ">
<path fill="none" stroke="#63b8ff" d="M2928.91,-85.79C2787.05,-79.75 2492.04,-64.42 2232.8,-32.2"/>
<polygon fill="#63b8ff" stroke="#63b8ff" points="2233.51,-28.76 2223.15,-30.99 2232.64,-35.71 2233.51,-28.76"/>
</a>
</g>
</g>
<!-- Node16 -->
<g id="Node000016" class="node">
<title>Node16</title>
<g id="a_Node000016"><a xlink:title=" ">
<polygon fill="#e0e0e0" stroke="#999999" points="2387.5,-32 2239.5,-32 2239.5,0 2387.5,0 2387.5,-32"/>
<text text-anchor="start" x="2247.5" y="-18.5" font-family="Helvetica,sans-Serif" font-size="10.00">com.hust.ittnk68.cnpm.model.</text>
<text text-anchor="middle" x="2313.5" y="-6.5" font-family="Helvetica,sans-Serif" font-size="10.00">UpdatePaymentStatusModel</text>
</a>
</g>
</g>
<!-- Node1&#45;&gt;Node16 -->
<g id="edge15_Node000001_Node000016" class="edge">
<title>Node1&#45;&gt;Node16</title>
<g id="a_edge15_Node000001_Node000016"><a xlink:title=" ">
<path fill="none" stroke="#63b8ff" d="M2928.91,-83.52C2812.05,-75.42 2594.45,-58.48 2399.02,-32.27"/>
<polygon fill="#63b8ff" stroke="#63b8ff" points="2399.54,-28.81 2389.16,-30.93 2398.6,-35.74 2399.54,-28.81"/>
</a>
</g>
</g>
<!-- Node17 -->
<g id="Node000017" class="node">
<title>Node17</title>
<g id="a_Node000017"><a xlink:title=" ">
<polygon fill="#e0e0e0" stroke="#999999" points="2537.25,-32 2405.75,-32 2405.75,0 2537.25,0 2537.25,-32"/>
<text text-anchor="start" x="2413.75" y="-18.5" font-family="Helvetica,sans-Serif" font-size="10.00">atlantafx.base.layout.Input</text>
<text text-anchor="middle" x="2471.5" y="-6.5" font-family="Helvetica,sans-Serif" font-size="10.00">Group</text>
</a>
</g>
</g>
<!-- Node1&#45;&gt;Node17 -->
<g id="edge16_Node000001_Node000017" class="edge">
<title>Node1&#45;&gt;Node17</title>
<g id="a_edge16_Node000001_Node000017"><a xlink:title=" ">
<path fill="none" stroke="#63b8ff" d="M2929.29,-80.67C2838.04,-71.2 2687.93,-54.35 2548.97,-32.32"/>
<polygon fill="#63b8ff" stroke="#63b8ff" points="2549.63,-28.89 2539.2,-30.76 2548.52,-35.8 2549.63,-28.89"/>
</a>
</g>
</g>
<!-- Node18 -->
<g id="Node000018" class="node">
<title>Node18</title>
<g id="a_Node000018"><a xlink:title=" ">
<polygon fill="#e0e0e0" stroke="#999999" points="2693.62,-26 2555.38,-26 2555.38,-6 2693.62,-6 2693.62,-26"/>
<text text-anchor="middle" x="2624.5" y="-12.5" font-family="Helvetica,sans-Serif" font-size="10.00">atlantafx.base.theme.Styles</text>
</a>
</g>
</g>
<!-- Node1&#45;&gt;Node18 -->
<g id="edge17_Node000001_Node000018" class="edge">
<title>Node1&#45;&gt;Node18</title>
<g id="a_edge17_Node000001_Node000018"><a xlink:title=" ">
<path fill="none" stroke="#63b8ff" d="M2928.98,-73.72C2866.42,-62.35 2779.11,-46.39 2702.5,-32 2696.57,-30.89 2690.39,-29.72 2684.22,-28.54"/>
<polygon fill="#63b8ff" stroke="#63b8ff" points="2685.14,-25.15 2674.66,-26.71 2683.82,-32.03 2685.14,-25.15"/>
</a>
</g>
</g>
<!-- Node19 -->
<g id="Node000019" class="node">
<title>Node19</title>
<g id="a_Node000019"><a xlink:title=" ">
<polygon fill="#e0e0e0" stroke="#999999" points="2845.75,-32 2711.25,-32 2711.25,0 2845.75,0 2845.75,-32"/>
<text text-anchor="start" x="2719.25" y="-18.5" font-family="Helvetica,sans-Serif" font-size="10.00">javafx.beans.value.Change</text>
<text text-anchor="middle" x="2778.5" y="-6.5" font-family="Helvetica,sans-Serif" font-size="10.00">Listener</text>
</a>
</g>
</g>
<!-- Node1&#45;&gt;Node19 -->
<g id="edge18_Node000001_Node000019" class="edge">
<title>Node1&#45;&gt;Node19</title>
<g id="a_edge18_Node000001_Node000019"><a xlink:title=" ">
<path fill="none" stroke="#63b8ff" d="M2943.63,-67.59C2910.71,-57.51 2871.79,-45.58 2840,-35.84"/>
<polygon fill="#63b8ff" stroke="#63b8ff" points="2841.11,-32.52 2830.52,-32.94 2839.06,-39.21 2841.11,-32.52"/>
</a>
</g>
</g>
<!-- Node20 -->
<g id="Node000020" class="node">
<title>Node20</title>
<g id="a_Node000020"><a xlink:title=" ">
<polygon fill="#e0e0e0" stroke="#999999" points="3013.62,-32 2863.38,-32 2863.38,0 3013.62,0 3013.62,-32"/>
<text text-anchor="start" x="2871.38" y="-18.5" font-family="Helvetica,sans-Serif" font-size="10.00">javafx.beans.value.Observable</text>
<text text-anchor="middle" x="2938.5" y="-6.5" font-family="Helvetica,sans-Serif" font-size="10.00">Value</text>
</a>
</g>
</g>
<!-- Node1&#45;&gt;Node20 -->
<g id="edge19_Node000001_Node000020" class="edge">
<title>Node1&#45;&gt;Node20</title>
<g id="a_edge19_Node000001_Node000020"><a xlink:title=" ">
<path fill="none" stroke="#63b8ff" d="M2991.4,-67.79C2982.27,-59.02 2971.67,-48.84 2962.36,-39.91"/>
<polygon fill="#63b8ff" stroke="#63b8ff" points="2964.99,-37.58 2955.35,-33.17 2960.14,-42.62 2964.99,-37.58"/>
</a>
</g>
</g>
<!-- Node21 -->
<g id="Node000021" class="node">
<title>Node21</title>
<g id="a_Node000021"><a xlink:title=" ">
<polygon fill="#e0e0e0" stroke="#999999" points="3145.62,-26 3031.38,-26 3031.38,-6 3145.62,-6 3145.62,-26"/>
<text text-anchor="middle" x="3088.5" y="-12.5" font-family="Helvetica,sans-Serif" font-size="10.00">javafx.geometry.Insets</text>
</a>
</g>
</g>
<!-- Node1&#45;&gt;Node21 -->
<g id="edge20_Node000001_Node000021" class="edge">
<title>Node1&#45;&gt;Node21</title>
<g id="a_edge20_Node000001_Node000021"><a xlink:title=" ">
<path fill="none" stroke="#63b8ff" d="M3035.6,-67.79C3046.8,-57.03 3060.23,-44.14 3070.76,-34.03"/>
<polygon fill="#63b8ff" stroke="#63b8ff" points="3072.92,-36.81 3077.71,-27.36 3068.07,-31.76 3072.92,-36.81"/>
</a>
</g>
</g>
<!-- Node22 -->
<g id="Node000022" class="node">
<title>Node22</title>
<g id="a_Node000022"><a xlink:title=" ">
<polygon fill="#e0e0e0" stroke="#999999" points="3299.12,-26 3163.88,-26 3163.88,-6 3299.12,-6 3299.12,-26"/>
<text text-anchor="middle" x="3231.5" y="-12.5" font-family="Helvetica,sans-Serif" font-size="10.00">javafx.scene.control.Button</text>
</a>
</g>
</g>
<!-- Node1&#45;&gt;Node22 -->
<g id="edge21_Node000001_Node000022" class="edge">
<title>Node1&#45;&gt;Node22</title>
<g id="a_edge21_Node000001_Node000022"><a xlink:title=" ">
<path fill="none" stroke="#63b8ff" d="M3078.32,-67.59C3115.37,-55.36 3160.61,-40.41 3192.29,-29.95"/>
<polygon fill="#63b8ff" stroke="#63b8ff" points="3193.06,-33.38 3201.46,-26.92 3190.86,-26.74 3193.06,-33.38"/>
</a>
</g>
</g>
<!-- Node23 -->
<g id="Node000023" class="node">
<title>Node23</title>
<g id="a_Node000023"><a xlink:title=" ">
<polygon fill="#e0e0e0" stroke="#999999" points="3473.62,-26 3317.38,-26 3317.38,-6 3473.62,-6 3473.62,-26"/>
<text text-anchor="middle" x="3395.5" y="-12.5" font-family="Helvetica,sans-Serif" font-size="10.00">javafx.scene.control.ButtonType</text>
</a>
</g>
</g>
<!-- Node1&#45;&gt;Node23 -->
<g id="edge22_Node000001_Node000023" class="edge">
<title>Node1&#45;&gt;Node23</title>
<g id="a_edge22_Node000001_Node000023"><a xlink:title=" ">
<path fill="none" stroke="#63b8ff" d="M3097.8,-73.11C3169.31,-59.63 3270.2,-40.62 3334.22,-28.55"/>
<polygon fill="#63b8ff" stroke="#63b8ff" points="3334.67,-32.03 3343.85,-26.73 3333.38,-25.15 3334.67,-32.03"/>
</a>
</g>
</g>
<!-- Node24 -->
<g id="Node000024" class="node">
<title>Node24</title>
<g id="a_Node000024"><a xlink:title=" ">
<polygon fill="#e0e0e0" stroke="#999999" points="3643.75,-26 3491.25,-26 3491.25,-6 3643.75,-6 3643.75,-26"/>
<text text-anchor="middle" x="3567.5" y="-12.5" font-family="Helvetica,sans-Serif" font-size="10.00">javafx.scene.control.CheckBox</text>
</a>
</g>
</g>
<!-- Node1&#45;&gt;Node24 -->
<g id="edge23_Node000001_Node000024" class="edge">
<title>Node1&#45;&gt;Node24</title>
<g id="a_edge23_Node000001_Node000024"><a xlink:title=" ">
<path fill="none" stroke="#63b8ff" d="M3097.98,-80.12C3192.03,-69.9 3348.44,-51.96 3482.5,-32 3489.87,-30.9 3497.58,-29.67 3505.23,-28.39"/>
<polygon fill="#63b8ff" stroke="#63b8ff" points="3505.57,-31.88 3514.84,-26.74 3504.39,-24.98 3505.57,-31.88"/>
</a>
</g>
</g>
<!-- Node25 -->
<g id="Node000025" class="node">
<title>Node25</title>
<g id="a_Node000025"><a xlink:title=" ">
<polygon fill="#e0e0e0" stroke="#999999" points="3789.38,-32 3661.62,-32 3661.62,0 3789.38,0 3789.38,-32"/>
<text text-anchor="start" x="3669.62" y="-18.5" font-family="Helvetica,sans-Serif" font-size="10.00">javafx.scene.control.Date</text>
<text text-anchor="middle" x="3725.5" y="-6.5" font-family="Helvetica,sans-Serif" font-size="10.00">Picker</text>
</a>
</g>
</g>
<!-- Node1&#45;&gt;Node25 -->
<g id="edge24_Node000001_Node000025" class="edge">
<title>Node1&#45;&gt;Node25</title>
<g id="a_edge24_Node000001_Node000025"><a xlink:title=" ">
<path fill="none" stroke="#63b8ff" d="M3098.1,-84.52C3218.56,-77.47 3446.55,-61.59 3650.26,-32.22"/>
<polygon fill="#63b8ff" stroke="#63b8ff" points="3650.59,-35.71 3659.98,-30.8 3649.58,-28.78 3650.59,-35.71"/>
</a>
</g>
</g>
<!-- Node26 -->
<g id="Node000026" class="node">
<title>Node26</title>
<g id="a_Node000026"><a xlink:title=" ">
<polygon fill="#e0e0e0" stroke="#999999" points="3937.5,-26 3807.5,-26 3807.5,-6 3937.5,-6 3937.5,-26"/>
<text text-anchor="middle" x="3872.5" y="-12.5" font-family="Helvetica,sans-Serif" font-size="10.00">javafx.scene.control.Label</text>
</a>
</g>
</g>
<!-- Node1&#45;&gt;Node26 -->
<g id="edge25_Node000001_Node000026" class="edge">
<title>Node1&#45;&gt;Node26</title>
<g id="a_edge25_Node000001_Node000026"><a xlink:title=" ">
<path fill="none" stroke="#63b8ff" d="M3098.09,-86.39C3242.36,-81.16 3545.01,-66.75 3798.5,-32 3805.32,-31.06 3812.46,-29.88 3819.49,-28.59"/>
<polygon fill="#63b8ff" stroke="#63b8ff" points="3820.14,-32.03 3829.3,-26.71 3818.82,-25.16 3820.14,-32.03"/>
</a>
</g>
</g>
<!-- Node27 -->
<g id="Node000027" class="node">
<title>Node27</title>
<g id="a_Node000027"><a xlink:title=" ">
<polygon fill="#e0e0e0" stroke="#999999" points="4077.75,-26 3955.25,-26 3955.25,-6 4077.75,-6 4077.75,-26"/>
<text text-anchor="middle" x="4016.5" y="-12.5" font-family="Helvetica,sans-Serif" font-size="10.00">javafx.scene.control.Tab</text>
</a>
</g>
</g>
<!-- Node1&#45;&gt;Node27 -->
<g id="edge26_Node000001_Node000027" class="edge">
<title>Node1&#45;&gt;Node27</title>
<g id="a_edge26_Node000001_Node000027"><a xlink:title=" ">
<path fill="none" stroke="#63b8ff" d="M3097.87,-88.08C3262.03,-85.35 3635.59,-74.56 3946.5,-32 3952.97,-31.11 3959.73,-29.96 3966.39,-28.69"/>
<polygon fill="#63b8ff" stroke="#63b8ff" points="3966.85,-32.16 3975.96,-26.75 3965.46,-25.3 3966.85,-32.16"/>
</a>
</g>
</g>
<!-- Node28 -->
<g id="Node000028" class="node">
<title>Node28</title>
<g id="a_Node000028"><a xlink:title=" ">
<polygon fill="#e0e0e0" stroke="#999999" points="4243.12,-26 4095.88,-26 4095.88,-6 4243.12,-6 4243.12,-26"/>
<text text-anchor="middle" x="4169.5" y="-12.5" font-family="Helvetica,sans-Serif" font-size="10.00">javafx.scene.control.TableCell</text>
</a>
</g>
</g>
<!-- Node1&#45;&gt;Node28 -->
<g id="edge27_Node000001_Node000028" class="edge">
<title>Node1&#45;&gt;Node28</title>
<g id="a_edge27_Node000001_Node000028"><a xlink:title=" ">
<path fill="none" stroke="#63b8ff" d="M3097.97,-88.12C3279.5,-85.43 3720.08,-74.67 4086.5,-32 4094.79,-31.03 4103.51,-29.75 4112.05,-28.35"/>
<polygon fill="#63b8ff" stroke="#63b8ff" points="4112.37,-31.85 4121.63,-26.7 4111.18,-24.95 4112.37,-31.85"/>
</a>
</g>
</g>
<!-- Node29 -->
<g id="Node000029" class="node">
<title>Node29</title>
<g id="a_Node000029"><a xlink:title=" ">
<polygon fill="#e0e0e0" stroke="#999999" points="4391.5,-32 4261.5,-32 4261.5,0 4391.5,0 4391.5,-32"/>
<text text-anchor="start" x="4269.5" y="-18.5" font-family="Helvetica,sans-Serif" font-size="10.00">javafx.scene.control.Table</text>
<text text-anchor="middle" x="4326.5" y="-6.5" font-family="Helvetica,sans-Serif" font-size="10.00">Column</text>
</a>
</g>
</g>
<!-- Node1&#45;&gt;Node29 -->
<g id="edge28_Node000001_Node000029" class="edge">
<title>Node1&#45;&gt;Node29</title>
<g id="a_edge28_Node000001_Node000029"><a xlink:title=" ">
<path fill="none" stroke="#63b8ff" d="M3098.01,-89.58C3297.24,-90 3811.92,-85.44 4249.91,-32.19"/>
<polygon fill="#63b8ff" stroke="#63b8ff" points="4250.22,-35.68 4259.72,-30.98 4249.37,-28.73 4250.22,-35.68"/>
</a>
</g>
</g>
<!-- Node30 -->
<g id="Node000030" class="node">
<title>Node30</title>
<g id="a_Node000030"><a xlink:title=" ">
<polygon fill="#e0e0e0" stroke="#999999" points="4561.38,-26 4409.62,-26 4409.62,-6 4561.38,-6 4561.38,-26"/>
<text text-anchor="middle" x="4485.5" y="-12.5" font-family="Helvetica,sans-Serif" font-size="10.00">javafx.scene.control.TableView</text>
</a>
</g>
</g>
<!-- Node1&#45;&gt;Node30 -->
<g id="edge29_Node000001_Node000030" class="edge">
<title>Node1&#45;&gt;Node30</title>
<g id="a_edge29_Node000001_Node000030"><a xlink:title=" ">
<path fill="none" stroke="#63b8ff" d="M3097.83,-89.45C3314.66,-89.75 3909.02,-85.22 4400.5,-32 4409.19,-31.06 4418.34,-29.77 4427.28,-28.33"/>
<polygon fill="#63b8ff" stroke="#63b8ff" points="4427.68,-31.82 4436.96,-26.71 4426.52,-24.91 4427.68,-31.82"/>
</a>
</g>
</g>
<!-- Node31 -->
<g id="Node000031" class="node">
<title>Node31</title>
<g id="a_Node000031"><a xlink:title=" ">
<polygon fill="#e0e0e0" stroke="#999999" points="4705.25,-32 4579.75,-32 4579.75,0 4705.25,0 4705.25,-32"/>
<text text-anchor="start" x="4587.75" y="-18.5" font-family="Helvetica,sans-Serif" font-size="10.00">javafx.scene.control.Text</text>
<text text-anchor="middle" x="4642.5" y="-6.5" font-family="Helvetica,sans-Serif" font-size="10.00">Field</text>
</a>
</g>
</g>
<!-- Node1&#45;&gt;Node31 -->
<g id="edge30_Node000001_Node000031" class="edge">
<title>Node1&#45;&gt;Node31</title>
<g id="a_edge30_Node000001_Node000031"><a xlink:title=" ">
<path fill="none" stroke="#63b8ff" d="M3097.82,-87.79C3375.35,-83.52 4259.73,-67.51 4568.21,-32.1"/>
<polygon fill="#63b8ff" stroke="#63b8ff" points="4568.36,-35.61 4577.88,-30.96 4567.54,-28.65 4568.36,-35.61"/>
</a>
</g>
</g>
<!-- Node32 -->
<g id="Node000032" class="node">
<title>Node32</title>
<g id="a_Node000032"><a xlink:title=" ">
<polygon fill="#e0e0e0" stroke="#999999" points="4847.88,-32 4723.12,-32 4723.12,0 4847.88,0 4847.88,-32"/>
<text text-anchor="start" x="4731.12" y="-18.5" font-family="Helvetica,sans-Serif" font-size="10.00">javafx.scene.control.cell.</text>
<text text-anchor="middle" x="4785.5" y="-6.5" font-family="Helvetica,sans-Serif" font-size="10.00">PropertyValueFactory</text>
</a>
</g>
</g>
<!-- Node1&#45;&gt;Node32 -->
<g id="edge31_Node000001_Node000032" class="edge">
<title>Node1&#45;&gt;Node32</title>
<g id="a_edge31_Node000001_Node000032"><a xlink:title=" ">
<path fill="none" stroke="#63b8ff" d="M3098,-88.12C3392.56,-84.76 4373.95,-70.95 4711.62,-32.18"/>
<polygon fill="#63b8ff" stroke="#63b8ff" points="4711.86,-35.68 4721.38,-31.03 4711.03,-28.73 4711.86,-35.68"/>
</a>
</g>
</g>
<!-- Node33 -->
<g id="Node000033" class="node">
<title>Node33</title>
<g id="a_Node000033"><a xlink:title=" ">
<polygon fill="#e0e0e0" stroke="#999999" points="5013.12,-26 4865.88,-26 4865.88,-6 5013.12,-6 5013.12,-26"/>
<text text-anchor="middle" x="4939.5" y="-12.5" font-family="Helvetica,sans-Serif" font-size="10.00">javafx.scene.layout.FlowPane</text>
</a>
</g>
</g>
<!-- Node1&#45;&gt;Node33 -->
<g id="edge32_Node000001_Node000033" class="edge">
<title>Node1&#45;&gt;Node33</title>
<g id="a_edge32_Node000001_Node000033"><a xlink:title=" ">
<path fill="none" stroke="#63b8ff" d="M3097.89,-88.05C3411.37,-84.26 4508.59,-68.61 4856.5,-32 4865.01,-31.1 4873.95,-29.84 4882.69,-28.41"/>
<polygon fill="#63b8ff" stroke="#63b8ff" points="4883.25,-31.87 4892.52,-26.73 4882.07,-24.97 4883.25,-31.87"/>
</a>
</g>
</g>
<!-- Node34 -->
<g id="Node000034" class="node">
<title>Node34</title>
<g id="a_Node000034"><a xlink:title=" ">
<polygon fill="#e0e0e0" stroke="#999999" points="5175.62,-26 5031.38,-26 5031.38,-6 5175.62,-6 5175.62,-26"/>
<text text-anchor="middle" x="5103.5" y="-12.5" font-family="Helvetica,sans-Serif" font-size="10.00">javafx.scene.layout.GridPane</text>
</a>
</g>
</g>
<!-- Node1&#45;&gt;Node34 -->
<g id="edge33_Node000001_Node000034" class="edge">
<title>Node1&#45;&gt;Node34</title>
<g id="a_edge33_Node000001_Node000034"><a xlink:title=" ">
<path fill="none" stroke="#63b8ff" d="M3098.02,-88.35C3429.39,-85.51 4640.5,-72.54 5022.5,-32 5030.71,-31.13 5039.34,-29.89 5047.78,-28.49"/>
<polygon fill="#63b8ff" stroke="#63b8ff" points="5048.38,-31.93 5057.63,-26.76 5047.17,-25.04 5048.38,-31.93"/>
</a>
</g>
</g>
<!-- Node35 -->
<g id="Node000035" class="node">
<title>Node35</title>
<g id="a_Node000035"><a xlink:title=" ">
<polygon fill="#e0e0e0" stroke="#999999" points="5321.75,-26 5193.25,-26 5193.25,-6 5321.75,-6 5321.75,-26"/>
<text text-anchor="middle" x="5257.5" y="-12.5" font-family="Helvetica,sans-Serif" font-size="10.00">javafx.scene.layout.HBox</text>
</a>
</g>
</g>
<!-- Node1&#45;&gt;Node35 -->
<g id="edge34_Node000001_Node000035" class="edge">
<title>Node1&#45;&gt;Node35</title>
<g id="a_edge34_Node000001_Node000035"><a xlink:title=" ">
<path fill="none" stroke="#63b8ff" d="M3097.97,-88.77C3445.92,-87.53 4769.43,-79.72 5184.5,-32 5191.76,-31.17 5199.36,-29.97 5206.81,-28.61"/>
<polygon fill="#63b8ff" stroke="#63b8ff" points="5207.29,-32.09 5216.44,-26.74 5205.95,-25.21 5207.29,-32.09"/>
</a>
</g>
</g>
<!-- Node36 -->
<g id="Node000036" class="node">
<title>Node36</title>
<g id="a_Node000036"><a xlink:title=" ">
<polygon fill="#e0e0e0" stroke="#999999" points="5467.38,-26 5339.62,-26 5339.62,-6 5467.38,-6 5467.38,-26"/>
<text text-anchor="middle" x="5403.5" y="-12.5" font-family="Helvetica,sans-Serif" font-size="10.00">javafx.scene.layout.VBox</text>
</a>
</g>
</g>
<!-- Node1&#45;&gt;Node36 -->
<g id="edge35_Node000001_Node000036" class="edge">
<title>Node1&#45;&gt;Node36</title>
<g id="a_edge35_Node000001_Node000036"><a xlink:title=" ">
<path fill="none" stroke="#63b8ff" d="M3098.07,-88.94C3460.63,-88.35 4885.24,-82.81 5330.5,-32 5337.76,-31.17 5345.36,-29.98 5352.81,-28.62"/>
<polygon fill="#63b8ff" stroke="#63b8ff" points="5353.29,-32.1 5362.44,-26.76 5351.96,-25.22 5353.29,-32.1"/>
</a>
</g>
</g>
<!-- Node37 -->
<g id="Node000037" class="node">
<title>Node37</title>
<g id="a_Node000037"><a xlink:title=" ">
<polygon fill="#e0e0e0" stroke="#999999" points="5597.88,-26 5485.12,-26 5485.12,-6 5597.88,-6 5597.88,-26"/>
<text text-anchor="middle" x="5541.5" y="-12.5" font-family="Helvetica,sans-Serif" font-size="10.00">javafx.scene.text.Text</text>
</a>
</g>
</g>
<!-- Node1&#45;&gt;Node37 -->
<g id="edge36_Node000001_Node000037" class="edge">
<title>Node1&#45;&gt;Node37</title>
<g id="a_edge36_Node000001_Node000037"><a xlink:title=" ">
<path fill="none" stroke="#63b8ff" d="M3098,-89.35C3474.5,-90.57 5001.59,-91.66 5476.5,-32 5482.6,-31.23 5488.97,-30.14 5495.24,-28.89"/>
<polygon fill="#63b8ff" stroke="#63b8ff" points="5495.8,-32.35 5504.83,-26.81 5494.32,-25.5 5495.8,-32.35"/>
</a>
</g>
</g>
<!-- Node38 -->
<g id="Node000038" class="node">
<title>Node38</title>
<g id="a_Node000038"><a xlink:title=" ">
<polygon fill="#e0e0e0" stroke="#999999" points="5713.38,-26 5615.62,-26 5615.62,-6 5713.38,-6 5713.38,-26"/>
<text text-anchor="middle" x="5664.5" y="-12.5" font-family="Helvetica,sans-Serif" font-size="10.00">javafx.stage.Stage</text>
</a>
</g>
</g>
<!-- Node1&#45;&gt;Node38 -->
<g id="edge37_Node000001_Node000038" class="edge">
<title>Node1&#45;&gt;Node38</title>
<g id="a_edge37_Node000001_Node000038"><a xlink:title=" ">
<path fill="none" stroke="#63b8ff" d="M3098.11,-88.3C3516.44,-84.7 5353.8,-66.97 5606.5,-32 5611.76,-31.27 5617.23,-30.24 5622.62,-29.05"/>
<polygon fill="#63b8ff" stroke="#63b8ff" points="5623.09,-32.53 5631.99,-26.79 5621.45,-25.73 5623.09,-32.53"/>
</a>
</g>
</g>
<!-- Node39 -->
<g id="Node000039" class="node">
<title>Node39</title>
<g id="a_Node000039"><a xlink:title=" ">
<polygon fill="#e0e0e0" stroke="#999999" points="5831.12,-26 5731.88,-26 5731.88,-6 5831.12,-6 5831.12,-26"/>
<text text-anchor="middle" x="5781.5" y="-12.5" font-family="Helvetica,sans-Serif" font-size="10.00">javafx.util.Callback</text>
</a>
</g>
</g>
<!-- Node1&#45;&gt;Node39 -->
<g id="edge38_Node000001_Node000039" class="edge">
<title>Node1&#45;&gt;Node39</title>
<g id="a_edge38_Node000001_Node000039"><a xlink:title=" ">
<path fill="none" stroke="#63b8ff" d="M3097.95,-88.37C3527.26,-85 5457.6,-67.98 5722.5,-32 5727.85,-31.27 5733.41,-30.24 5738.89,-29.05"/>
<polygon fill="#63b8ff" stroke="#63b8ff" points="5739.52,-32.5 5748.44,-26.79 5737.91,-25.69 5739.52,-32.5"/>
</a>
</g>
</g>
</g>
</svg>

<g id="navigator" transform="translate(0 0)" fill="#404254">
  <rect fill="#f2f5e9" fill-opacity="0.5" stroke="#606060" stroke-width=".5" x="0" y="0" width="60" height="60"/>
  <use id="zoomplus" xlink:href="#zoomPlus" x="17" y="9" onmousedown="handleZoom(evt,'in')"/>
  <use id="zoomminus" xlink:href="#zoomMin" x="42" y="9" onmousedown="handleZoom(evt,'out')"/>
  <use id="reset" xlink:href="#resetDef" x="30" y="36" onmousedown="handleReset()"/>
   <use id="arrowup" xlink:href="#arrowUp" x="0" y="0" onmousedown="handlePan(0,-1)"/>
  <use id="arrowright" xlink:href="#arrowRight" x="0" y="0" onmousedown="handlePan(1,0)"/>
  <use id="arrowdown" xlink:href="#arrowDown" x="0" y="0" onmousedown="handlePan(0,1)"/>
  <use id="arrowleft" xlink:href="#arrowLeft" x="0" y="0" onmousedown="handlePan(-1,0)"/>
</g>
<svg viewBox="0 0 15 15" width="100%" height="30px" preserveAspectRatio="xMaxYMin meet">
 <g id="arrow_out" transform="scale(0.3 0.3)">
  <a xlink:href="AdminPaymentStatusManagePage_8java__incl_org.svg" target="_base">
   <rect id="button" ry="5" rx="5" y="6" x="6" height="38" width="38"
        fill="#f2f5e9" fill-opacity="0.5" stroke="#606060" stroke-width="1.0"/>
   <path id="arrow"
     d="M 11.500037,31.436501 C 11.940474,20.09759 22.043105,11.32322 32.158766,21.979434 L 37.068811,17.246167 C 37.068811,17.246167 37.088388,32 37.088388,32 L 22.160133,31.978069 C 22.160133,31.978069 26.997745,27.140456 26.997745,27.140456 C 18.528582,18.264221 13.291696,25.230495 11.500037,31.436501 z"
     style="fill:#404040;"/>
  </a>
 </g>
</svg>

<style type='text/css'>
<![CDATA[
[data-mouse-over-selected='false'] { opacity: 0.7; }
[data-mouse-over-selected='true']  { opacity: 1.0; }
]]>
</style>
<script type="application/ecmascript"><![CDATA[
document.addEventListener('DOMContentLoaded', (event) => {
  highlightEdges();
  highlightAdjacentNodes();
});
]]></script>
</svg>
