<?xml version="1.0" encoding="UTF-8" standalone="no"?>
<!DOCTYPE svg PUBLIC "-//W3C//DTD SVG 1.1//EN"
 "http://www.w3.org/Graphics/SVG/1.1/DTD/svg11.dtd">
<!-- Generated by graphviz version 12.2.1 (20241206.2353)
 -->
<!-- Title: src/main/java/com/hust/ittnk68/cnpm/service/ApiController.java Pages: 1 -->
<!--zoomable 120 -->

<svg id="main" version="1.1" xmlns="http://www.w3.org/2000/svg" xmlns:xlink="http://www.w3.org/1999/xlink" xml:space="preserve" onload="init(evt)">

<style type="text/css"><![CDATA[
.node, .edge {opacity: 0.7;}
.node.selected, .edge.selected {opacity: 1;}
.edge:hover path { stroke: red; }
.edge:hover polygon { stroke: red; fill: red; }
]]></style>

<defs>
  <circle id="rim" cx="0" cy="0" r="7"/>
  <circle id="rim2" cx="0" cy="0" r="3.5"/>
  <g id="zoomPlus">
    <use xlink:href="#rim" fill="#404040"><set attributeName="fill" to="#808080" begin="zoomplus.mouseover" end="zoomplus.mouseout"/></use>
    <path d="M-4,0h8M0,-4v8" fill="none" stroke="white" stroke-width="1.5" pointer-events="none"/>
  </g>
  <g id="zoomMin">
    <use xlink:href="#rim" fill="#404040"><set attributeName="fill" to="#808080" begin="zoomminus.mouseover" end="zoomminus.mouseout"/></use>
    <path d="M-4,0h8" fill="none" stroke="white" stroke-width="1.5" pointer-events="none"/>
  </g>
  <g id="arrowUp" transform="translate(30 24)">
    <use xlink:href="#rim"/>
    <path pointer-events="none" fill="none" stroke="white" stroke-width="1.5" d="M0,-3.0v7 M-2.5,-0.5L0,-3.0L2.5,-0.5"/>
  </g>
  <g id="arrowRight" transform="rotate(90) translate(36 -43)">
    <use xlink:href="#rim"/>
    <path pointer-events="none" fill="none" stroke="white" stroke-width="1.5" d="M0,-3.0v7 M-2.5,-0.5L0,-3.0L2.5,-0.5"/>
  </g>
  <g id="arrowDown" transform="rotate(180) translate(-30 -48)">
    <use xlink:href="#rim"/>
    <path pointer-events="none" fill="none" stroke="white" stroke-width="1.5" d="M0,-3.0v7 M-2.5,-0.5L0,-3.0L2.5,-0.5"/>
  </g>
  <g id="arrowLeft" transform="rotate(270) translate(-36 17)">
    <use xlink:href="#rim"/>
    <path pointer-events="none" fill="none" stroke="white" stroke-width="1.5" d="M0,-3.0v7 M-2.5,-0.5L0,-3.0L2.5,-0.5"/>
  </g>
  <g id="resetDef">
    <use xlink:href="#rim2" fill="#404040"><set attributeName="fill" to="#808080" begin="reset.mouseover" end="reset.mouseout"/></use>
  </g>
</defs>
<script type="application/ecmascript">
var viewWidth = 6507;
var viewHeight = 120;
var sectionId = 'dynsection-0';
</script>
<script type="application/ecmascript" xlink:href="svg.min.js"/>
<svg id="graph" class="graph">
<g id="viewport">
<title>src/main/java/com/hust/ittnk68/cnpm/service/ApiController.java</title>
<!-- Node1 -->
<g id="Node000001" class="node">
<title>Node1</title>
<g id="a_Node000001"><a xlink:title=" ">
<polygon fill="#999999" stroke="#666666" points="3195.88,-112 3077.88,-112 3077.88,-68 3195.88,-68 3195.88,-112"/>
<text text-anchor="start" x="3085.88" y="-98.5" font-family="Helvetica,sans-Serif" font-size="10.00">src/main/java/com/hust</text>
<text text-anchor="start" x="3085.88" y="-86.5" font-family="Helvetica,sans-Serif" font-size="10.00">/ittnk68/cnpm/service</text>
<text text-anchor="middle" x="3136.88" y="-74.5" font-family="Helvetica,sans-Serif" font-size="10.00">/ApiController.java</text>
</a>
</g>
</g>
<!-- Node2 -->
<g id="Node000002" class="node">
<title>Node2</title>
<g id="a_Node000002"><a xlink:title=" ">
<polygon fill="#e0e0e0" stroke="#999999" points="115.75,-26 0,-26 0,-6 115.75,-6 115.75,-26"/>
<text text-anchor="middle" x="57.88" y="-12.5" font-family="Helvetica,sans-Serif" font-size="10.00">java.sql.SQLException</text>
</a>
</g>
</g>
<!-- Node1&#45;&gt;Node2 -->
<g id="edge1_Node000001_Node000002" class="edge">
<title>Node1&#45;&gt;Node2</title>
<g id="a_edge1_Node000001_Node000002"><a xlink:title=" ">
<path fill="none" stroke="#63b8ff" d="M3077.55,-88.6C2681.56,-85.8 427.84,-68.4 124.88,-32 118.35,-31.22 111.54,-30.08 104.85,-28.77"/>
<polygon fill="#63b8ff" stroke="#63b8ff" points="105.79,-25.39 95.29,-26.75 104.35,-32.24 105.79,-25.39"/>
</a>
</g>
</g>
<!-- Node3 -->
<g id="Node000003" class="node">
<title>Node3</title>
<g id="a_Node000003"><a xlink:title=" ">
<polygon fill="#e0e0e0" stroke="#999999" points="202.12,-26 133.62,-26 133.62,-6 202.12,-6 202.12,-26"/>
<text text-anchor="middle" x="167.88" y="-12.5" font-family="Helvetica,sans-Serif" font-size="10.00">java.util.List</text>
</a>
</g>
</g>
<!-- Node1&#45;&gt;Node3 -->
<g id="edge2_Node000001_Node000003" class="edge">
<title>Node1&#45;&gt;Node3</title>
<g id="a_edge2_Node000001_Node000003"><a xlink:title=" ">
<path fill="none" stroke="#63b8ff" d="M3077.63,-88.97C2688.24,-88.61 502.26,-84.29 210.88,-32 207.84,-31.46 204.74,-30.73 201.65,-29.89"/>
<polygon fill="#63b8ff" stroke="#63b8ff" points="202.76,-26.57 192.17,-26.92 200.67,-33.25 202.76,-26.57"/>
</a>
</g>
</g>
<!-- Node4 -->
<g id="Node000004" class="node">
<title>Node4</title>
<g id="a_Node000004"><a xlink:title=" ">
<polygon fill="#e0e0e0" stroke="#999999" points="291.62,-26 220.12,-26 220.12,-6 291.62,-6 291.62,-26"/>
<text text-anchor="middle" x="255.88" y="-12.5" font-family="Helvetica,sans-Serif" font-size="10.00">java.util.Map</text>
</a>
</g>
</g>
<!-- Node1&#45;&gt;Node4 -->
<g id="edge3_Node000001_Node000004" class="edge">
<title>Node1&#45;&gt;Node4</title>
<g id="a_edge3_Node000001_Node000004"><a xlink:title=" ">
<path fill="none" stroke="#63b8ff" d="M3077.63,-88.88C2695.29,-87.97 583.17,-80.73 300.88,-32 297.49,-31.42 294.02,-30.63 290.58,-29.71"/>
<polygon fill="#63b8ff" stroke="#63b8ff" points="291.85,-26.44 281.27,-26.9 289.83,-33.14 291.85,-26.44"/>
</a>
</g>
</g>
<!-- Node5 -->
<g id="Node000005" class="node">
<title>Node5</title>
<g id="a_Node000005"><a xlink:title=" ">
<polygon fill="#e0e0e0" stroke="#999999" points="450.12,-32 309.62,-32 309.62,0 450.12,0 450.12,-32"/>
<text text-anchor="start" x="317.62" y="-18.5" font-family="Helvetica,sans-Serif" font-size="10.00">com.hust.ittnk68.cnpm.auth.</text>
<text text-anchor="middle" x="379.88" y="-6.5" font-family="Helvetica,sans-Serif" font-size="10.00">JwtUtil</text>
</a>
</g>
</g>
<!-- Node1&#45;&gt;Node5 -->
<g id="edge4_Node000001_Node000005" class="edge">
<title>Node1&#45;&gt;Node5</title>
<g id="a_edge4_Node000001_Node000005"><a xlink:title=" ">
<path fill="none" stroke="#63b8ff" d="M3077.48,-89.08C2735.64,-89.34 1015.22,-87.86 461.69,-32.16"/>
<polygon fill="#63b8ff" stroke="#63b8ff" points="462.24,-28.69 451.93,-31.15 461.52,-35.66 462.24,-28.69"/>
</a>
</g>
</g>
<!-- Node6 -->
<g id="Node000006" class="node">
<title>Node6</title>
<g id="a_Node000006"><a xlink:title=" ">
<polygon fill="#e0e0e0" stroke="#999999" points="655.75,-32 468,-32 468,0 655.75,0 655.75,-32"/>
<text text-anchor="start" x="476" y="-18.5" font-family="Helvetica,sans-Serif" font-size="10.00">com.hust.ittnk68.cnpm.communication.</text>
<text text-anchor="middle" x="561.88" y="-6.5" font-family="Helvetica,sans-Serif" font-size="10.00">AdminCreateObject</text>
</a>
</g>
</g>
<!-- Node1&#45;&gt;Node6 -->
<g id="edge5_Node000001_Node000006" class="edge">
<title>Node1&#45;&gt;Node6</title>
<g id="a_edge5_Node000001_Node000006"><a xlink:title=" ">
<path fill="none" stroke="#63b8ff" d="M3077.6,-88.61C2752.13,-86.34 1178.5,-73.4 667.26,-32.11"/>
<polygon fill="#63b8ff" stroke="#63b8ff" points="667.88,-28.65 657.63,-31.32 667.31,-35.63 667.88,-28.65"/>
</a>
</g>
</g>
<!-- Node7 -->
<g id="Node000007" class="node">
<title>Node7</title>
<g id="a_Node000007"><a xlink:title=" ">
<polygon fill="#e0e0e0" stroke="#999999" points="861.75,-32 674,-32 674,0 861.75,0 861.75,-32"/>
<text text-anchor="start" x="682" y="-18.5" font-family="Helvetica,sans-Serif" font-size="10.00">com.hust.ittnk68.cnpm.communication.</text>
<text text-anchor="middle" x="767.88" y="-6.5" font-family="Helvetica,sans-Serif" font-size="10.00">AdminDeleteObject</text>
</a>
</g>
</g>
<!-- Node1&#45;&gt;Node7 -->
<g id="edge6_Node000001_Node000007" class="edge">
<title>Node1&#45;&gt;Node7</title>
<g id="a_edge6_Node000001_Node000007"><a xlink:title=" ">
<path fill="none" stroke="#63b8ff" d="M3077.52,-88.47C2768.59,-85.56 1341.14,-70.28 873.33,-32.12"/>
<polygon fill="#63b8ff" stroke="#63b8ff" points="873.89,-28.65 863.63,-31.31 873.31,-35.63 873.89,-28.65"/>
</a>
</g>
</g>
<!-- Node8 -->
<g id="Node000008" class="node">
<title>Node8</title>
<g id="a_Node000008"><a xlink:title=" ">
<polygon fill="#e0e0e0" stroke="#999999" points="1067.75,-32 880,-32 880,0 1067.75,0 1067.75,-32"/>
<text text-anchor="start" x="888" y="-18.5" font-family="Helvetica,sans-Serif" font-size="10.00">com.hust.ittnk68.cnpm.communication.</text>
<text text-anchor="middle" x="973.88" y="-6.5" font-family="Helvetica,sans-Serif" font-size="10.00">AdminFindObject</text>
</a>
</g>
</g>
<!-- Node1&#45;&gt;Node8 -->
<g id="edge7_Node000001_Node000008" class="edge">
<title>Node1&#45;&gt;Node8</title>
<g id="a_edge7_Node000001_Node000008"><a xlink:title=" ">
<path fill="none" stroke="#63b8ff" d="M3077.68,-88.3C2786.59,-84.71 1504.24,-67.2 1079.52,-32.14"/>
<polygon fill="#63b8ff" stroke="#63b8ff" points="1079.89,-28.66 1069.63,-31.3 1079.3,-35.63 1079.89,-28.66"/>
</a>
</g>
</g>
<!-- Node9 -->
<g id="Node000009" class="node">
<title>Node9</title>
<g id="a_Node000009"><a xlink:title=" ">
<polygon fill="#e0e0e0" stroke="#999999" points="1273.75,-32 1086,-32 1086,0 1273.75,0 1273.75,-32"/>
<text text-anchor="start" x="1094" y="-18.5" font-family="Helvetica,sans-Serif" font-size="10.00">com.hust.ittnk68.cnpm.communication.</text>
<text text-anchor="middle" x="1179.88" y="-6.5" font-family="Helvetica,sans-Serif" font-size="10.00">AdminUpdateObject</text>
</a>
</g>
</g>
<!-- Node1&#45;&gt;Node9 -->
<g id="edge8_Node000001_Node000009" class="edge">
<title>Node1&#45;&gt;Node9</title>
<g id="a_edge8_Node000001_Node000009"><a xlink:title=" ">
<path fill="none" stroke="#63b8ff" d="M3077.78,-88.09C2805.2,-83.76 1666.87,-64.12 1285.46,-32.14"/>
<polygon fill="#63b8ff" stroke="#63b8ff" points="1285.89,-28.66 1275.63,-31.29 1285.3,-35.64 1285.89,-28.66"/>
</a>
</g>
</g>
<!-- Node10 -->
<g id="Node000010" class="node">
<title>Node10</title>
<g id="a_Node000010"><a xlink:title=" ">
<polygon fill="#e0e0e0" stroke="#999999" points="1479.75,-32 1292,-32 1292,0 1479.75,0 1479.75,-32"/>
<text text-anchor="start" x="1300" y="-18.5" font-family="Helvetica,sans-Serif" font-size="10.00">com.hust.ittnk68.cnpm.communication.</text>
<text text-anchor="middle" x="1385.88" y="-6.5" font-family="Helvetica,sans-Serif" font-size="10.00">ApiMapping</text>
</a>
</g>
</g>
<!-- Node1&#45;&gt;Node10 -->
<g id="edge9_Node000001_Node000010" class="edge">
<title>Node1&#45;&gt;Node10</title>
<g id="a_edge9_Node000001_Node000010"><a xlink:title=" ">
<path fill="none" stroke="#63b8ff" d="M3077.61,-89.3C2864.51,-89.89 2117.16,-87.67 1491.18,-32.14"/>
<polygon fill="#63b8ff" stroke="#63b8ff" points="1491.9,-28.69 1481.63,-31.28 1491.28,-35.66 1491.9,-28.69"/>
</a>
</g>
</g>
<!-- Node11 -->
<g id="Node000011" class="node">
<title>Node11</title>
<g id="a_Node000011"><a xlink:title=" ">
<polygon fill="#e0e0e0" stroke="#999999" points="1685.75,-32 1498,-32 1498,0 1685.75,0 1685.75,-32"/>
<text text-anchor="start" x="1506" y="-18.5" font-family="Helvetica,sans-Serif" font-size="10.00">com.hust.ittnk68.cnpm.communication.</text>
<text text-anchor="middle" x="1591.88" y="-6.5" font-family="Helvetica,sans-Serif" font-size="10.00">ServerCreateObjectResponse</text>
</a>
</g>
</g>
<!-- Node1&#45;&gt;Node11 -->
<g id="edge10_Node000001_Node000011" class="edge">
<title>Node1&#45;&gt;Node11</title>
<g id="a_edge10_Node000001_Node000011"><a xlink:title=" ">
<path fill="none" stroke="#63b8ff" d="M3077.67,-88.89C2882.09,-88.04 2238.89,-81.5 1697.3,-32.16"/>
<polygon fill="#63b8ff" stroke="#63b8ff" points="1697.91,-28.7 1687.63,-31.27 1697.27,-35.67 1697.91,-28.7"/>
</a>
</g>
</g>
<!-- Node12 -->
<g id="Node000012" class="node">
<title>Node12</title>
<g id="a_Node000012"><a xlink:title=" ">
<polygon fill="#e0e0e0" stroke="#999999" points="1891.75,-32 1704,-32 1704,0 1891.75,0 1891.75,-32"/>
<text text-anchor="start" x="1712" y="-18.5" font-family="Helvetica,sans-Serif" font-size="10.00">com.hust.ittnk68.cnpm.communication.</text>
<text text-anchor="middle" x="1797.88" y="-6.5" font-family="Helvetica,sans-Serif" font-size="10.00">ServerDeleteObjectResponse</text>
</a>
</g>
</g>
<!-- Node1&#45;&gt;Node12 -->
<g id="edge11_Node000001_Node000012" class="edge">
<title>Node1&#45;&gt;Node12</title>
<g id="a_edge11_Node000001_Node000012"><a xlink:title=" ">
<path fill="none" stroke="#63b8ff" d="M3077.55,-88.34C2900.59,-85.91 2360.86,-75.32 1903.26,-32.16"/>
<polygon fill="#63b8ff" stroke="#63b8ff" points="1903.92,-28.71 1893.64,-31.25 1903.26,-35.68 1903.92,-28.71"/>
</a>
</g>
</g>
<!-- Node13 -->
<g id="Node000013" class="node">
<title>Node13</title>
<g id="a_Node000013"><a xlink:title=" ">
<polygon fill="#e0e0e0" stroke="#999999" points="2097.75,-32 1910,-32 1910,0 2097.75,0 2097.75,-32"/>
<text text-anchor="start" x="1918" y="-18.5" font-family="Helvetica,sans-Serif" font-size="10.00">com.hust.ittnk68.cnpm.communication.</text>
<text text-anchor="middle" x="2003.88" y="-6.5" font-family="Helvetica,sans-Serif" font-size="10.00">ServerFindObjectResponse</text>
</a>
</g>
</g>
<!-- Node1&#45;&gt;Node13 -->
<g id="edge12_Node000001_Node000013" class="edge">
<title>Node1&#45;&gt;Node13</title>
<g id="a_edge12_Node000001_Node000013"><a xlink:title=" ">
<path fill="none" stroke="#63b8ff" d="M3077.51,-87.57C2920.95,-83.4 2483.73,-69.19 2109.47,-32.2"/>
<polygon fill="#63b8ff" stroke="#63b8ff" points="2109.94,-28.73 2099.64,-31.22 2109.24,-35.7 2109.94,-28.73"/>
</a>
</g>
</g>
<!-- Node14 -->
<g id="Node000014" class="node">
<title>Node14</title>
<g id="a_Node000014"><a xlink:title=" ">
<polygon fill="#e0e0e0" stroke="#999999" points="2303.75,-32 2116,-32 2116,0 2303.75,0 2303.75,-32"/>
<text text-anchor="start" x="2124" y="-18.5" font-family="Helvetica,sans-Serif" font-size="10.00">com.hust.ittnk68.cnpm.communication.</text>
<text text-anchor="middle" x="2209.88" y="-6.5" font-family="Helvetica,sans-Serif" font-size="10.00">ServerObjectByIdQueryResponse</text>
</a>
</g>
</g>
<!-- Node1&#45;&gt;Node14 -->
<g id="edge13_Node000001_Node000014" class="edge">
<title>Node1&#45;&gt;Node14</title>
<g id="a_edge13_Node000001_Node000014"><a xlink:title=" ">
<path fill="none" stroke="#63b8ff" d="M3077.54,-86.44C2943.57,-80.31 2607.25,-63.09 2315.37,-32.22"/>
<polygon fill="#63b8ff" stroke="#63b8ff" points="2315.96,-28.76 2305.64,-31.18 2315.22,-35.72 2315.96,-28.76"/>
</a>
</g>
</g>
<!-- Node15 -->
<g id="Node000015" class="node">
<title>Node15</title>
<g id="a_Node000015"><a xlink:title=" ">
<polygon fill="#e0e0e0" stroke="#999999" points="2509.75,-32 2322,-32 2322,0 2509.75,0 2509.75,-32"/>
<text text-anchor="start" x="2330" y="-18.5" font-family="Helvetica,sans-Serif" font-size="10.00">com.hust.ittnk68.cnpm.communication.</text>
<text text-anchor="middle" x="2415.88" y="-6.5" font-family="Helvetica,sans-Serif" font-size="10.00">ServerPaymentStatusQueryResponse</text>
</a>
</g>
</g>
<!-- Node1&#45;&gt;Node15 -->
<g id="edge14_Node000001_Node000015" class="edge">
<title>Node1&#45;&gt;Node15</title>
<g id="a_edge14_Node000001_Node000015"><a xlink:title=" ">
<path fill="none" stroke="#63b8ff" d="M3077.54,-84.57C2969.24,-76.26 2732.03,-57.01 2521.43,-32.27"/>
<polygon fill="#63b8ff" stroke="#63b8ff" points="2521.99,-28.81 2511.65,-31.11 2521.17,-35.76 2521.99,-28.81"/>
</a>
</g>
</g>
<!-- Node16 -->
<g id="Node000016" class="node">
<title>Node16</title>
<g id="a_Node000016"><a xlink:title=" ">
<polygon fill="#e0e0e0" stroke="#999999" points="2715.75,-32 2528,-32 2528,0 2715.75,0 2715.75,-32"/>
<text text-anchor="start" x="2536" y="-18.5" font-family="Helvetica,sans-Serif" font-size="10.00">com.hust.ittnk68.cnpm.communication.</text>
<text text-anchor="middle" x="2621.88" y="-6.5" font-family="Helvetica,sans-Serif" font-size="10.00">ServerQueryPersonByFIdResponse</text>
</a>
</g>
</g>
<!-- Node1&#45;&gt;Node16 -->
<g id="edge15_Node000001_Node000016" class="edge">
<title>Node1&#45;&gt;Node16</title>
<g id="a_edge15_Node000001_Node000016"><a xlink:title=" ">
<path fill="none" stroke="#63b8ff" d="M3077.5,-80.92C2999.6,-70.29 2858.34,-50.91 2727.2,-32.33"/>
<polygon fill="#63b8ff" stroke="#63b8ff" points="2728.06,-28.91 2717.67,-30.97 2727.08,-35.84 2728.06,-28.91"/>
</a>
</g>
</g>
<!-- Node17 -->
<g id="Node000017" class="node">
<title>Node17</title>
<g id="a_Node000017"><a xlink:title=" ">
<polygon fill="#e0e0e0" stroke="#999999" points="2921.75,-32 2734,-32 2734,0 2921.75,0 2921.75,-32"/>
<text text-anchor="start" x="2742" y="-18.5" font-family="Helvetica,sans-Serif" font-size="10.00">com.hust.ittnk68.cnpm.communication.</text>
<text text-anchor="middle" x="2827.88" y="-6.5" font-family="Helvetica,sans-Serif" font-size="10.00">ServerUpdateObjectResponse</text>
</a>
</g>
</g>
<!-- Node1&#45;&gt;Node17 -->
<g id="edge16_Node000001_Node000017" class="edge">
<title>Node1&#45;&gt;Node17</title>
<g id="a_edge16_Node000001_Node000017"><a xlink:title=" ">
<path fill="none" stroke="#63b8ff" d="M3077.66,-75.2C3028.74,-63.8 2958.92,-47.53 2905.52,-35.09"/>
<polygon fill="#63b8ff" stroke="#63b8ff" points="2906.4,-31.7 2895.87,-32.84 2904.81,-38.52 2906.4,-31.7"/>
</a>
</g>
</g>
<!-- Node18 -->
<g id="Node000018" class="node">
<title>Node18</title>
<g id="a_Node000018"><a xlink:title=" ">
<polygon fill="#e0e0e0" stroke="#999999" points="3127.75,-32 2940,-32 2940,0 3127.75,0 3127.75,-32"/>
<text text-anchor="start" x="2948" y="-18.5" font-family="Helvetica,sans-Serif" font-size="10.00">com.hust.ittnk68.cnpm.communication.</text>
<text text-anchor="middle" x="3033.88" y="-6.5" font-family="Helvetica,sans-Serif" font-size="10.00">UserQueryObjectById</text>
</a>
</g>
</g>
<!-- Node1&#45;&gt;Node18 -->
<g id="edge17_Node000001_Node000018" class="edge">
<title>Node1&#45;&gt;Node18</title>
<g id="a_edge17_Node000001_Node000018"><a xlink:title=" ">
<path fill="none" stroke="#63b8ff" d="M3106.25,-67.59C3093.27,-58.52 3078.16,-47.96 3065.12,-38.84"/>
<polygon fill="#63b8ff" stroke="#63b8ff" points="3067.48,-36.22 3057.28,-33.36 3063.47,-41.96 3067.48,-36.22"/>
</a>
</g>
</g>
<!-- Node19 -->
<g id="Node000019" class="node">
<title>Node19</title>
<g id="a_Node000019"><a xlink:title=" ">
<polygon fill="#e0e0e0" stroke="#999999" points="3333.75,-32 3146,-32 3146,0 3333.75,0 3333.75,-32"/>
<text text-anchor="start" x="3154" y="-18.5" font-family="Helvetica,sans-Serif" font-size="10.00">com.hust.ittnk68.cnpm.communication.</text>
<text text-anchor="middle" x="3239.88" y="-6.5" font-family="Helvetica,sans-Serif" font-size="10.00">UserQueryPaymentStatus</text>
</a>
</g>
</g>
<!-- Node1&#45;&gt;Node19 -->
<g id="edge18_Node000001_Node000019" class="edge">
<title>Node1&#45;&gt;Node19</title>
<g id="a_edge18_Node000001_Node000019"><a xlink:title=" ">
<path fill="none" stroke="#63b8ff" d="M3167.5,-67.59C3180.48,-58.52 3195.59,-47.96 3208.63,-38.84"/>
<polygon fill="#63b8ff" stroke="#63b8ff" points="3210.28,-41.96 3216.47,-33.36 3206.27,-36.22 3210.28,-41.96"/>
</a>
</g>
</g>
<!-- Node20 -->
<g id="Node000020" class="node">
<title>Node20</title>
<g id="a_Node000020"><a xlink:title=" ">
<polygon fill="#e0e0e0" stroke="#999999" points="3539.75,-32 3352,-32 3352,0 3539.75,0 3539.75,-32"/>
<text text-anchor="start" x="3360" y="-18.5" font-family="Helvetica,sans-Serif" font-size="10.00">com.hust.ittnk68.cnpm.communication.</text>
<text text-anchor="middle" x="3445.88" y="-6.5" font-family="Helvetica,sans-Serif" font-size="10.00">UserQueryPersonByFId</text>
</a>
</g>
</g>
<!-- Node1&#45;&gt;Node20 -->
<g id="edge19_Node000001_Node000020" class="edge">
<title>Node1&#45;&gt;Node20</title>
<g id="a_edge19_Node000001_Node000020"><a xlink:title=" ">
<path fill="none" stroke="#63b8ff" d="M3196.09,-75.2C3245.01,-63.8 3314.83,-47.53 3368.23,-35.09"/>
<polygon fill="#63b8ff" stroke="#63b8ff" points="3368.94,-38.52 3377.88,-32.84 3367.35,-31.7 3368.94,-38.52"/>
</a>
</g>
</g>
<!-- Node21 -->
<g id="Node000021" class="node">
<title>Node21</title>
<g id="a_Node000021"><a xlink:title=" ">
<polygon fill="#e0e0e0" stroke="#999999" points="3719.62,-32 3558.12,-32 3558.12,0 3719.62,0 3719.62,-32"/>
<text text-anchor="start" x="3566.12" y="-18.5" font-family="Helvetica,sans-Serif" font-size="10.00">com.hust.ittnk68.cnpm.database.</text>
<text text-anchor="middle" x="3638.88" y="-6.5" font-family="Helvetica,sans-Serif" font-size="10.00">GetSQLProperties</text>
</a>
</g>
</g>
<!-- Node1&#45;&gt;Node21 -->
<g id="edge20_Node000001_Node000021" class="edge">
<title>Node1&#45;&gt;Node21</title>
<g id="a_edge20_Node000001_Node000021"><a xlink:title=" ">
<path fill="none" stroke="#63b8ff" d="M3196.31,-81.3C3274.27,-71.09 3415.6,-52.17 3546.89,-32.28"/>
<polygon fill="#63b8ff" stroke="#63b8ff" points="3547.08,-35.79 3556.44,-30.83 3546.03,-28.87 3547.08,-35.79"/>
</a>
</g>
</g>
<!-- Node22 -->
<g id="Node000022" class="node">
<title>Node22</title>
<g id="a_Node000022"><a xlink:title=" ">
<polygon fill="#e0e0e0" stroke="#999999" points="3899.62,-32 3738.12,-32 3738.12,0 3899.62,0 3899.62,-32"/>
<text text-anchor="start" x="3746.12" y="-18.5" font-family="Helvetica,sans-Serif" font-size="10.00">com.hust.ittnk68.cnpm.database.</text>
<text text-anchor="middle" x="3818.88" y="-6.5" font-family="Helvetica,sans-Serif" font-size="10.00">MySQLDatabase</text>
</a>
</g>
</g>
<!-- Node1&#45;&gt;Node22 -->
<g id="edge21_Node000001_Node000022" class="edge">
<title>Node1&#45;&gt;Node22</title>
<g id="a_edge21_Node000001_Node000022"><a xlink:title=" ">
<path fill="none" stroke="#63b8ff" d="M3196.27,-84.65C3301.11,-76.67 3526.07,-58.21 3726.61,-32.24"/>
<polygon fill="#63b8ff" stroke="#63b8ff" points="3727,-35.72 3736.46,-30.95 3726.09,-28.78 3727,-35.72"/>
</a>
</g>
</g>
<!-- Node23 -->
<g id="Node000023" class="node">
<title>Node23</title>
<g id="a_Node000023"><a xlink:title=" ">
<polygon fill="#e0e0e0" stroke="#999999" points="4065.88,-32 3917.88,-32 3917.88,0 4065.88,0 4065.88,-32"/>
<text text-anchor="start" x="3925.88" y="-18.5" font-family="Helvetica,sans-Serif" font-size="10.00">com.hust.ittnk68.cnpm.model.</text>
<text text-anchor="middle" x="3991.88" y="-6.5" font-family="Helvetica,sans-Serif" font-size="10.00">Account</text>
</a>
</g>
</g>
<!-- Node1&#45;&gt;Node23 -->
<g id="edge22_Node000001_Node000023" class="edge">
<title>Node1&#45;&gt;Node23</title>
<g id="a_edge22_Node000001_Node000023"><a xlink:title=" ">
<path fill="none" stroke="#63b8ff" d="M3196.17,-86.75C3324.07,-81.43 3635.56,-66.02 3906.48,-32.22"/>
<polygon fill="#63b8ff" stroke="#63b8ff" points="3906.74,-35.71 3916.22,-30.99 3905.86,-28.77 3906.74,-35.71"/>
</a>
</g>
</g>
<!-- Node24 -->
<g id="Node000024" class="node">
<title>Node24</title>
<g id="a_Node000024"><a xlink:title=" ">
<polygon fill="#e0e0e0" stroke="#999999" points="4231.88,-32 4083.88,-32 4083.88,0 4231.88,0 4231.88,-32"/>
<text text-anchor="start" x="4091.88" y="-18.5" font-family="Helvetica,sans-Serif" font-size="10.00">com.hust.ittnk68.cnpm.model.</text>
<text text-anchor="middle" x="4157.88" y="-6.5" font-family="Helvetica,sans-Serif" font-size="10.00">PaymentStatus</text>
</a>
</g>
</g>
<!-- Node1&#45;&gt;Node24 -->
<g id="edge23_Node000001_Node000024" class="edge">
<title>Node1&#45;&gt;Node24</title>
<g id="a_edge23_Node000001_Node000024"><a xlink:title=" ">
<path fill="none" stroke="#63b8ff" d="M3196.36,-87.82C3343.4,-84.38 3735.88,-72.03 4072.77,-32.16"/>
<polygon fill="#63b8ff" stroke="#63b8ff" points="4072.71,-35.69 4082.23,-31.03 4071.88,-28.74 4072.71,-35.69"/>
</a>
</g>
</g>
<!-- Node25 -->
<g id="Node000025" class="node">
<title>Node25</title>
<g id="a_Node000025"><a xlink:title=" ">
<polygon fill="#e0e0e0" stroke="#999999" points="4397.88,-32 4249.88,-32 4249.88,0 4397.88,0 4397.88,-32"/>
<text text-anchor="start" x="4257.88" y="-18.5" font-family="Helvetica,sans-Serif" font-size="10.00">com.hust.ittnk68.cnpm.model.</text>
<text text-anchor="middle" x="4323.88" y="-6.5" font-family="Helvetica,sans-Serif" font-size="10.00">Person</text>
</a>
</g>
</g>
<!-- Node1&#45;&gt;Node25 -->
<g id="edge24_Node000001_Node000025" class="edge">
<title>Node1&#45;&gt;Node25</title>
<g id="a_edge24_Node000001_Node000025"><a xlink:title=" ">
<path fill="none" stroke="#63b8ff" d="M3196.34,-88.59C3360.66,-86.87 3834.94,-78.1 4238.42,-32.18"/>
<polygon fill="#63b8ff" stroke="#63b8ff" points="4238.69,-35.67 4248.23,-31.05 4237.9,-28.72 4238.69,-35.67"/>
</a>
</g>
</g>
<!-- Node26 -->
<g id="Node000026" class="node">
<title>Node26</title>
<g id="a_Node000026"><a xlink:title=" ">
<polygon fill="#e0e0e0" stroke="#999999" points="4570.25,-32 4415.5,-32 4415.5,0 4570.25,0 4570.25,-32"/>
<text text-anchor="start" x="4423.5" y="-18.5" font-family="Helvetica,sans-Serif" font-size="10.00">com.hust.ittnk68.cnpm.security.</text>
<text text-anchor="middle" x="4492.88" y="-6.5" font-family="Helvetica,sans-Serif" font-size="10.00">Token</text>
</a>
</g>
</g>
<!-- Node1&#45;&gt;Node26 -->
<g id="edge25_Node000001_Node000026" class="edge">
<title>Node1&#45;&gt;Node26</title>
<g id="a_edge25_Node000001_Node000026"><a xlink:title=" ">
<path fill="none" stroke="#63b8ff" d="M3196.27,-89.03C3376.57,-88.53 3933.49,-82.8 4403.68,-32.26"/>
<polygon fill="#63b8ff" stroke="#63b8ff" points="4404.05,-35.74 4413.62,-31.18 4403.3,-28.78 4404.05,-35.74"/>
</a>
</g>
</g>
<!-- Node27 -->
<g id="Node000027" class="node">
<title>Node27</title>
<g id="a_Node000027"><a xlink:title=" ">
<polygon fill="#e0e0e0" stroke="#999999" points="4729.12,-32 4588.62,-32 4588.62,0 4729.12,0 4729.12,-32"/>
<text text-anchor="start" x="4596.62" y="-18.5" font-family="Helvetica,sans-Serif" font-size="10.00">com.hust.ittnk68.cnpm.type.</text>
<text text-anchor="middle" x="4658.88" y="-6.5" font-family="Helvetica,sans-Serif" font-size="10.00">ResponseStatus</text>
</a>
</g>
</g>
<!-- Node1&#45;&gt;Node27 -->
<g id="edge26_Node000001_Node000027" class="edge">
<title>Node1&#45;&gt;Node27</title>
<g id="a_edge26_Node000001_Node000027"><a xlink:title=" ">
<path fill="none" stroke="#63b8ff" d="M3196.14,-87.81C3428.97,-82.97 4282.19,-63.51 4577.19,-32.03"/>
<polygon fill="#63b8ff" stroke="#63b8ff" points="4577.23,-35.55 4586.78,-30.98 4576.46,-28.59 4577.23,-35.55"/>
</a>
</g>
</g>
<!-- Node28 -->
<g id="Node000028" class="node">
<title>Node28</title>
<g id="a_Node000028"><a xlink:title=" ">
<polygon fill="#e0e0e0" stroke="#999999" points="4963,-32 4746.75,-32 4746.75,0 4963,0 4963,-32"/>
<text text-anchor="start" x="4754.75" y="-18.5" font-family="Helvetica,sans-Serif" font-size="10.00">org.springframework.beans.factory.annotation.</text>
<text text-anchor="middle" x="4854.88" y="-6.5" font-family="Helvetica,sans-Serif" font-size="10.00">Autowired</text>
</a>
</g>
</g>
<!-- Node1&#45;&gt;Node28 -->
<g id="edge27_Node000001_Node000028" class="edge">
<title>Node1&#45;&gt;Node28</title>
<g id="a_edge27_Node000001_Node000028"><a xlink:title=" ">
<path fill="none" stroke="#63b8ff" d="M3196.23,-88.85C3405.49,-87.92 4128.48,-81.16 4735.38,-32.15"/>
<polygon fill="#63b8ff" stroke="#63b8ff" points="4735.35,-35.67 4745.04,-31.37 4734.79,-28.69 4735.35,-35.67"/>
</a>
</g>
</g>
<!-- Node29 -->
<g id="Node000029" class="node">
<title>Node29</title>
<g id="a_Node000029"><a xlink:title=" ">
<polygon fill="#e0e0e0" stroke="#999999" points="5194.5,-32 4981.25,-32 4981.25,0 5194.5,0 5194.5,-32"/>
<text text-anchor="start" x="4989.25" y="-18.5" font-family="Helvetica,sans-Serif" font-size="10.00">org.springframework.security.access.prepost.</text>
<text text-anchor="middle" x="5087.88" y="-6.5" font-family="Helvetica,sans-Serif" font-size="10.00">PreAuthorize</text>
</a>
</g>
</g>
<!-- Node1&#45;&gt;Node29 -->
<g id="edge28_Node000001_Node000029" class="edge">
<title>Node1&#45;&gt;Node29</title>
<g id="a_edge28_Node000001_Node000029"><a xlink:title=" ">
<path fill="none" stroke="#63b8ff" d="M3196.01,-89.26C3423.71,-89.81 4265.78,-87.78 4969.4,-32.14"/>
<polygon fill="#63b8ff" stroke="#63b8ff" points="4969.59,-35.64 4979.28,-31.35 4969.03,-28.66 4969.59,-35.64"/>
</a>
</g>
</g>
<!-- Node30 -->
<g id="Node000030" class="node">
<title>Node30</title>
<g id="a_Node000030"><a xlink:title=" ">
<polygon fill="#e0e0e0" stroke="#999999" points="5419.5,-32 5212.25,-32 5212.25,0 5419.5,0 5419.5,-32"/>
<text text-anchor="start" x="5220.25" y="-18.5" font-family="Helvetica,sans-Serif" font-size="10.00">org.springframework.security.authentication.</text>
<text text-anchor="middle" x="5315.88" y="-6.5" font-family="Helvetica,sans-Serif" font-size="10.00">InsufficientAuthenticationException</text>
</a>
</g>
</g>
<!-- Node1&#45;&gt;Node30 -->
<g id="edge29_Node000001_Node000030" class="edge">
<title>Node1&#45;&gt;Node30</title>
<g id="a_edge29_Node000001_Node000030"><a xlink:title=" ">
<path fill="none" stroke="#63b8ff" d="M3196.26,-88.21C3488.31,-84.2 4774.87,-65 5200.46,-32.21"/>
<polygon fill="#63b8ff" stroke="#63b8ff" points="5200.68,-35.7 5210.37,-31.43 5200.13,-28.72 5200.68,-35.7"/>
</a>
</g>
</g>
<!-- Node31 -->
<g id="Node000031" class="node">
<title>Node31</title>
<g id="a_Node000031"><a xlink:title=" ">
<polygon fill="#e0e0e0" stroke="#999999" points="5634.62,-32 5437.12,-32 5437.12,0 5634.62,0 5634.62,-32"/>
<text text-anchor="start" x="5445.12" y="-18.5" font-family="Helvetica,sans-Serif" font-size="10.00">org.springframework.web.bind.annotation.</text>
<text text-anchor="middle" x="5535.88" y="-6.5" font-family="Helvetica,sans-Serif" font-size="10.00">GetMapping</text>
</a>
</g>
</g>
<!-- Node1&#45;&gt;Node31 -->
<g id="edge30_Node000001_Node000031" class="edge">
<title>Node1&#45;&gt;Node31</title>
<g id="a_edge30_Node000001_Node000031"><a xlink:title=" ">
<path fill="none" stroke="#63b8ff" d="M3196.13,-88.45C3506.97,-85.4 4952.71,-69.49 5425.49,-32.21"/>
<polygon fill="#63b8ff" stroke="#63b8ff" points="5425.62,-35.71 5435.31,-31.41 5425.06,-28.73 5425.62,-35.71"/>
</a>
</g>
</g>
<!-- Node32 -->
<g id="Node000032" class="node">
<title>Node32</title>
<g id="a_Node000032"><a xlink:title=" ">
<polygon fill="#e0e0e0" stroke="#999999" points="5850.62,-32 5653.12,-32 5653.12,0 5850.62,0 5850.62,-32"/>
<text text-anchor="start" x="5661.12" y="-18.5" font-family="Helvetica,sans-Serif" font-size="10.00">org.springframework.web.bind.annotation.</text>
<text text-anchor="middle" x="5751.88" y="-6.5" font-family="Helvetica,sans-Serif" font-size="10.00">RequestBody</text>
</a>
</g>
</g>
<!-- Node1&#45;&gt;Node32 -->
<g id="edge31_Node000001_Node000032" class="edge">
<title>Node1&#45;&gt;Node32</title>
<g id="a_edge31_Node000001_Node000032"><a xlink:title=" ">
<path fill="none" stroke="#63b8ff" d="M3196.17,-88.58C3524.41,-86.12 5122.4,-72.3 5641.45,-32.11"/>
<polygon fill="#63b8ff" stroke="#63b8ff" points="5641.56,-35.61 5651.25,-31.34 5641.01,-28.64 5641.56,-35.61"/>
</a>
</g>
</g>
<!-- Node33 -->
<g id="Node000033" class="node">
<title>Node33</title>
<g id="a_Node000033"><a xlink:title=" ">
<polygon fill="#e0e0e0" stroke="#999999" points="6066.62,-32 5869.12,-32 5869.12,0 6066.62,0 6066.62,-32"/>
<text text-anchor="start" x="5877.12" y="-18.5" font-family="Helvetica,sans-Serif" font-size="10.00">org.springframework.web.bind.annotation.</text>
<text text-anchor="middle" x="5967.88" y="-6.5" font-family="Helvetica,sans-Serif" font-size="10.00">RequestMapping</text>
</a>
</g>
</g>
<!-- Node1&#45;&gt;Node33 -->
<g id="edge32_Node000001_Node000033" class="edge">
<title>Node1&#45;&gt;Node33</title>
<g id="a_edge32_Node000001_Node000033"><a xlink:title=" ">
<path fill="none" stroke="#63b8ff" d="M3196.09,-88.71C3540.86,-86.85 5293.17,-75.42 5857.68,-32.09"/>
<polygon fill="#63b8ff" stroke="#63b8ff" points="5857.55,-35.61 5867.25,-31.34 5857.01,-28.63 5857.55,-35.61"/>
</a>
</g>
</g>
<!-- Node34 -->
<g id="Node000034" class="node">
<title>Node34</title>
<g id="a_Node000034"><a xlink:title=" ">
<polygon fill="#e0e0e0" stroke="#999999" points="6282.62,-32 6085.12,-32 6085.12,0 6282.62,0 6282.62,-32"/>
<text text-anchor="start" x="6093.12" y="-18.5" font-family="Helvetica,sans-Serif" font-size="10.00">org.springframework.web.bind.annotation.</text>
<text text-anchor="middle" x="6183.88" y="-6.5" font-family="Helvetica,sans-Serif" font-size="10.00">RequestParam</text>
</a>
</g>
</g>
<!-- Node1&#45;&gt;Node34 -->
<g id="edge33_Node000001_Node000034" class="edge">
<title>Node1&#45;&gt;Node34</title>
<g id="a_edge33_Node000001_Node000034"><a xlink:title=" ">
<path fill="none" stroke="#63b8ff" d="M3196.3,-88.81C3557.56,-87.51 5463.52,-78.55 6073.67,-32.09"/>
<polygon fill="#63b8ff" stroke="#63b8ff" points="6073.55,-35.61 6083.25,-31.35 6073.01,-28.63 6073.55,-35.61"/>
</a>
</g>
</g>
<!-- Node35 -->
<g id="Node000035" class="node">
<title>Node35</title>
<g id="a_Node000035"><a xlink:title=" ">
<polygon fill="#e0e0e0" stroke="#999999" points="6498.62,-32 6301.12,-32 6301.12,0 6498.62,0 6498.62,-32"/>
<text text-anchor="start" x="6309.12" y="-18.5" font-family="Helvetica,sans-Serif" font-size="10.00">org.springframework.web.bind.annotation.</text>
<text text-anchor="middle" x="6399.88" y="-6.5" font-family="Helvetica,sans-Serif" font-size="10.00">RestController</text>
</a>
</g>
</g>
<!-- Node1&#45;&gt;Node35 -->
<g id="edge34_Node000001_Node000035" class="edge">
<title>Node1&#45;&gt;Node35</title>
<g id="a_edge34_Node000001_Node000035"><a xlink:title=" ">
<path fill="none" stroke="#63b8ff" d="M3196.31,-88.9C3572.98,-88.13 5632.96,-81.7 6289.3,-32.12"/>
<polygon fill="#63b8ff" stroke="#63b8ff" points="6289.55,-35.61 6299.25,-31.35 6289.01,-28.63 6289.55,-35.61"/>
</a>
</g>
</g>
</g>
</svg>

<g id="navigator" transform="translate(0 0)" fill="#404254">
  <rect fill="#f2f5e9" fill-opacity="0.5" stroke="#606060" stroke-width=".5" x="0" y="0" width="60" height="60"/>
  <use id="zoomplus" xlink:href="#zoomPlus" x="17" y="9" onmousedown="handleZoom(evt,'in')"/>
  <use id="zoomminus" xlink:href="#zoomMin" x="42" y="9" onmousedown="handleZoom(evt,'out')"/>
  <use id="reset" xlink:href="#resetDef" x="30" y="36" onmousedown="handleReset()"/>
   <use id="arrowup" xlink:href="#arrowUp" x="0" y="0" onmousedown="handlePan(0,-1)"/>
  <use id="arrowright" xlink:href="#arrowRight" x="0" y="0" onmousedown="handlePan(1,0)"/>
  <use id="arrowdown" xlink:href="#arrowDown" x="0" y="0" onmousedown="handlePan(0,1)"/>
  <use id="arrowleft" xlink:href="#arrowLeft" x="0" y="0" onmousedown="handlePan(-1,0)"/>
</g>
<svg viewBox="0 0 15 15" width="100%" height="30px" preserveAspectRatio="xMaxYMin meet">
 <g id="arrow_out" transform="scale(0.3 0.3)">
  <a xlink:href="ApiController_8java__incl_org.svg" target="_base">
   <rect id="button" ry="5" rx="5" y="6" x="6" height="38" width="38"
        fill="#f2f5e9" fill-opacity="0.5" stroke="#606060" stroke-width="1.0"/>
   <path id="arrow"
     d="M 11.500037,31.436501 C 11.940474,20.09759 22.043105,11.32322 32.158766,21.979434 L 37.068811,17.246167 C 37.068811,17.246167 37.088388,32 37.088388,32 L 22.160133,31.978069 C 22.160133,31.978069 26.997745,27.140456 26.997745,27.140456 C 18.528582,18.264221 13.291696,25.230495 11.500037,31.436501 z"
     style="fill:#404040;"/>
  </a>
 </g>
</svg>

<style type='text/css'>
<![CDATA[
[data-mouse-over-selected='false'] { opacity: 0.7; }
[data-mouse-over-selected='true']  { opacity: 1.0; }
]]>
</style>
<script type="application/ecmascript"><![CDATA[
document.addEventListener('DOMContentLoaded', (event) => {
  highlightEdges();
  highlightAdjacentNodes();
});
]]></script>
</svg>
