<?xml version="1.0" encoding="UTF-8" standalone="no"?>
<!DOCTYPE svg PUBLIC "-//W3C//DTD SVG 1.1//EN"
 "http://www.w3.org/Graphics/SVG/1.1/DTD/svg11.dtd">
<!-- Generated by graphviz version 12.2.1 (20241206.2353)
 -->
<!-- Title: src/main/java/com/hust/ittnk68/cnpm/app/App.java Pages: 1 -->
<svg width="4041pt" height="108pt"
 viewBox="0.00 0.00 4041.00 108.00" xmlns="http://www.w3.org/2000/svg" xmlns:xlink="http://www.w3.org/1999/xlink">
<g id="graph0" class="graph" transform="scale(1 1) rotate(0) translate(4 104)">
<title>src/main/java/com/hust/ittnk68/cnpm/app/App.java</title>
<!-- Node1 -->
<g id="Node000001" class="node">
<title>Node1</title>
<g id="a_Node000001"><a xlink:title=" ">
<polygon fill="#999999" stroke="#666666" points="1960.88,-100 1825.62,-100 1825.62,-68 1960.88,-68 1960.88,-100"/>
<text text-anchor="start" x="1833.62" y="-86.5" font-family="Helvetica,sans-Serif" font-size="10.00">src/main/java/com/hust</text>
<text text-anchor="middle" x="1893.25" y="-74.5" font-family="Helvetica,sans-Serif" font-size="10.00">/ittnk68/cnpm/app/App.java</text>
</a>
</g>
</g>
<!-- Node2 -->
<g id="Node000002" class="node">
<title>Node2</title>
<g id="a_Node000002"><a xlink:title=" ">
<polygon fill="#e0e0e0" stroke="#999999" points="140.5,-32 0,-32 0,0 140.5,0 140.5,-32"/>
<text text-anchor="start" x="8" y="-18.5" font-family="Helvetica,sans-Serif" font-size="10.00">com.hust.ittnk68.cnpm.type.</text>
<text text-anchor="middle" x="70.25" y="-6.5" font-family="Helvetica,sans-Serif" font-size="10.00">AccountType</text>
</a>
</g>
</g>
<!-- Node1&#45;&gt;Node2 -->
<g id="edge1_Node000001_Node000002" class="edge">
<title>Node1&#45;&gt;Node2</title>
<g id="a_edge1_Node000001_Node000002"><a xlink:title=" ">
<path fill="none" stroke="#63b8ff" d="M1825.41,-82.45C1548.95,-80.01 505.69,-68.58 152.08,-32.16"/>
<polygon fill="#63b8ff" stroke="#63b8ff" points="152.62,-28.7 142.31,-31.13 151.88,-35.66 152.62,-28.7"/>
</a>
</g>
</g>
<!-- Node3 -->
<g id="Node000003" class="node">
<title>Node3</title>
<g id="a_Node000003"><a xlink:title=" ">
<polygon fill="#e0e0e0" stroke="#999999" points="320,-26 158.5,-26 158.5,-6 320,-6 320,-26"/>
<text text-anchor="middle" x="239.25" y="-12.5" font-family="Helvetica,sans-Serif" font-size="10.00">com.hust.ittnk68.cnpm.type.Date</text>
</a>
</g>
</g>
<!-- Node1&#45;&gt;Node3 -->
<g id="edge2_Node000001_Node000003" class="edge">
<title>Node1&#45;&gt;Node3</title>
<g id="a_edge2_Node000001_Node000003"><a xlink:title=" ">
<path fill="none" stroke="#63b8ff" d="M1825.48,-81.99C1564.73,-77.91 626.12,-61.45 329.25,-32 319.73,-31.06 309.7,-29.72 299.92,-28.24"/>
<polygon fill="#63b8ff" stroke="#63b8ff" points="300.53,-24.79 290.1,-26.67 299.43,-31.7 300.53,-24.79"/>
</a>
</g>
</g>
<!-- Node4 -->
<g id="Node000004" class="node">
<title>Node4</title>
<g id="a_Node000004"><a xlink:title=" ">
<polygon fill="#e0e0e0" stroke="#999999" points="478.5,-32 338,-32 338,0 478.5,0 478.5,-32"/>
<text text-anchor="start" x="346" y="-18.5" font-family="Helvetica,sans-Serif" font-size="10.00">com.hust.ittnk68.cnpm.type.</text>
<text text-anchor="middle" x="408.25" y="-6.5" font-family="Helvetica,sans-Serif" font-size="10.00">Nation</text>
</a>
</g>
</g>
<!-- Node1&#45;&gt;Node4 -->
<g id="edge3_Node000001_Node000004" class="edge">
<title>Node1&#45;&gt;Node4</title>
<g id="a_edge3_Node000001_Node000004"><a xlink:title=" ">
<path fill="none" stroke="#63b8ff" d="M1825.38,-81.88C1584.99,-77.7 773.84,-61.78 489.93,-32.03"/>
<polygon fill="#63b8ff" stroke="#63b8ff" points="490.66,-28.58 480.34,-30.99 489.9,-35.54 490.66,-28.58"/>
</a>
</g>
</g>
<!-- Node5 -->
<g id="Node000005" class="node">
<title>Node5</title>
<g id="a_Node000005"><a xlink:title=" ">
<polygon fill="#e0e0e0" stroke="#999999" points="637.5,-32 497,-32 497,0 637.5,0 637.5,-32"/>
<text text-anchor="start" x="505" y="-18.5" font-family="Helvetica,sans-Serif" font-size="10.00">com.hust.ittnk68.cnpm.type.</text>
<text text-anchor="middle" x="567.25" y="-6.5" font-family="Helvetica,sans-Serif" font-size="10.00">ResidenceStatus</text>
</a>
</g>
</g>
<!-- Node1&#45;&gt;Node5 -->
<g id="edge4_Node000001_Node000005" class="edge">
<title>Node1&#45;&gt;Node5</title>
<g id="a_edge4_Node000001_Node000005"><a xlink:title=" ">
<path fill="none" stroke="#63b8ff" d="M1825.39,-83.71C1638.93,-84.93 1102.99,-83.41 649.18,-32.22"/>
<polygon fill="#63b8ff" stroke="#63b8ff" points="649.64,-28.75 639.31,-31.1 648.85,-35.71 649.64,-28.75"/>
</a>
</g>
</g>
<!-- Node6 -->
<g id="Node000006" class="node">
<title>Node6</title>
<g id="a_Node000006"><a xlink:title=" ">
<polygon fill="#e0e0e0" stroke="#999999" points="813.12,-26 655.38,-26 655.38,-6 813.12,-6 813.12,-26"/>
<text text-anchor="middle" x="734.25" y="-12.5" font-family="Helvetica,sans-Serif" font-size="10.00">com.hust.ittnk68.cnpm.type.Sex</text>
</a>
</g>
</g>
<!-- Node1&#45;&gt;Node6 -->
<g id="edge5_Node000001_Node000006" class="edge">
<title>Node1&#45;&gt;Node6</title>
<g id="a_edge5_Node000001_Node000006"><a xlink:title=" ">
<path fill="none" stroke="#63b8ff" d="M1825.36,-82.62C1655.71,-81.05 1199.77,-73.01 822.25,-32 813.27,-31.02 803.81,-29.72 794.57,-28.27"/>
<polygon fill="#63b8ff" stroke="#63b8ff" points="795.36,-24.86 784.93,-26.71 794.24,-31.77 795.36,-24.86"/>
</a>
</g>
</g>
<!-- Node7 -->
<g id="Node000007" class="node">
<title>Node7</title>
<g id="a_Node000007"><a xlink:title=" ">
<polygon fill="#e0e0e0" stroke="#999999" points="979.25,-32 831.25,-32 831.25,0 979.25,0 979.25,-32"/>
<text text-anchor="start" x="839.25" y="-18.5" font-family="Helvetica,sans-Serif" font-size="10.00">com.hust.ittnk68.cnpm.model.</text>
<text text-anchor="middle" x="905.25" y="-6.5" font-family="Helvetica,sans-Serif" font-size="10.00">Person</text>
</a>
</g>
</g>
<!-- Node1&#45;&gt;Node7 -->
<g id="edge6_Node000001_Node000007" class="edge">
<title>Node1&#45;&gt;Node7</title>
<g id="a_edge6_Node000001_Node000007"><a xlink:title=" ">
<path fill="none" stroke="#63b8ff" d="M1825.17,-82.01C1675.84,-79.22 1308.2,-68.99 990.67,-32.18"/>
<polygon fill="#63b8ff" stroke="#63b8ff" points="991.24,-28.73 980.9,-31.04 990.42,-35.68 991.24,-28.73"/>
</a>
</g>
</g>
<!-- Node8 -->
<g id="Node000008" class="node">
<title>Node8</title>
<g id="a_Node000008"><a xlink:title=" ">
<polygon fill="#e0e0e0" stroke="#999999" points="1137.5,-32 997,-32 997,0 1137.5,0 1137.5,-32"/>
<text text-anchor="start" x="1005" y="-18.5" font-family="Helvetica,sans-Serif" font-size="10.00">com.hust.ittnk68.cnpm.sms.</text>
<text text-anchor="middle" x="1067.25" y="-6.5" font-family="Helvetica,sans-Serif" font-size="10.00">SmsSender</text>
</a>
</g>
</g>
<!-- Node1&#45;&gt;Node8 -->
<g id="edge7_Node000001_Node000008" class="edge">
<title>Node1&#45;&gt;Node8</title>
<g id="a_edge7_Node000001_Node000008"><a xlink:title=" ">
<path fill="none" stroke="#63b8ff" d="M1825.26,-81.08C1695.61,-76.82 1403.95,-64.39 1149.16,-32.28"/>
<polygon fill="#63b8ff" stroke="#63b8ff" points="1149.68,-28.82 1139.32,-31.02 1148.8,-35.76 1149.68,-28.82"/>
</a>
</g>
</g>
<!-- Node9 -->
<g id="Node000009" class="node">
<title>Node9</title>
<g id="a_Node000009"><a xlink:title=" ">
<polygon fill="#e0e0e0" stroke="#999999" points="1273.25,-26 1155.25,-26 1155.25,-6 1273.25,-6 1273.25,-26"/>
<text text-anchor="middle" x="1214.25" y="-12.5" font-family="Helvetica,sans-Serif" font-size="10.00">java.beans.Introspector</text>
</a>
</g>
</g>
<!-- Node1&#45;&gt;Node9 -->
<g id="edge8_Node000001_Node000009" class="edge">
<title>Node1&#45;&gt;Node9</title>
<g id="a_edge8_Node000001_Node000009"><a xlink:title=" ">
<path fill="none" stroke="#63b8ff" d="M1825.55,-80.31C1712.48,-75.16 1478.27,-61.66 1282.25,-32 1276.27,-31.1 1270.04,-29.97 1263.87,-28.75"/>
<polygon fill="#63b8ff" stroke="#63b8ff" points="1264.9,-25.39 1254.4,-26.78 1263.48,-32.24 1264.9,-25.39"/>
</a>
</g>
</g>
<!-- Node10 -->
<g id="Node000010" class="node">
<title>Node10</title>
<g id="a_Node000010"><a xlink:title=" ">
<polygon fill="#e0e0e0" stroke="#999999" points="1439.25,-26 1291.25,-26 1291.25,-6 1439.25,-6 1439.25,-26"/>
<text text-anchor="middle" x="1365.25" y="-12.5" font-family="Helvetica,sans-Serif" font-size="10.00">java.beans.PropertyDescriptor</text>
</a>
</g>
</g>
<!-- Node1&#45;&gt;Node10 -->
<g id="edge9_Node000001_Node000010" class="edge">
<title>Node1&#45;&gt;Node10</title>
<g id="a_edge9_Node000001_Node000010"><a xlink:title=" ">
<path fill="none" stroke="#63b8ff" d="M1825.22,-76.58C1737.77,-68.02 1581.34,-51.63 1448.25,-32 1441.04,-30.94 1433.49,-29.72 1426.01,-28.45"/>
<polygon fill="#63b8ff" stroke="#63b8ff" points="1426.7,-25.01 1416.25,-26.75 1425.5,-31.91 1426.7,-25.01"/>
</a>
</g>
</g>
<!-- Node11 -->
<g id="Node000011" class="node">
<title>Node11</title>
<g id="a_Node000011"><a xlink:title=" ">
<polygon fill="#e0e0e0" stroke="#999999" points="1573.5,-26 1457,-26 1457,-6 1573.5,-6 1573.5,-26"/>
<text text-anchor="middle" x="1515.25" y="-12.5" font-family="Helvetica,sans-Serif" font-size="10.00">java.io.FileInputStream</text>
</a>
</g>
</g>
<!-- Node1&#45;&gt;Node11 -->
<g id="edge10_Node000001_Node000011" class="edge">
<title>Node1&#45;&gt;Node11</title>
<g id="a_edge10_Node000001_Node000011"><a xlink:title=" ">
<path fill="none" stroke="#63b8ff" d="M1825.41,-73.03C1762.27,-63.48 1665.64,-48.16 1582.25,-32 1577.31,-31.04 1572.18,-29.99 1567.05,-28.91"/>
<polygon fill="#63b8ff" stroke="#63b8ff" points="1567.91,-25.51 1557.4,-26.82 1566.43,-32.36 1567.91,-25.51"/>
</a>
</g>
</g>
<!-- Node12 -->
<g id="Node000012" class="node">
<title>Node12</title>
<g id="a_Node000012"><a xlink:title=" ">
<polygon fill="#e0e0e0" stroke="#999999" points="1693,-26 1591.5,-26 1591.5,-6 1693,-6 1693,-26"/>
<text text-anchor="middle" x="1642.25" y="-12.5" font-family="Helvetica,sans-Serif" font-size="10.00">java.io.IOException</text>
</a>
</g>
</g>
<!-- Node1&#45;&gt;Node12 -->
<g id="edge11_Node000001_Node000012" class="edge">
<title>Node1&#45;&gt;Node12</title>
<g id="a_edge11_Node000001_Node000012"><a xlink:title=" ">
<path fill="none" stroke="#63b8ff" d="M1834.4,-67.53C1790.16,-55.89 1730.36,-40.17 1689.29,-29.37"/>
<polygon fill="#63b8ff" stroke="#63b8ff" points="1690.25,-26 1679.69,-26.84 1688.47,-32.77 1690.25,-26"/>
</a>
</g>
</g>
<!-- Node13 -->
<g id="Node000013" class="node">
<title>Node13</title>
<g id="a_Node000013"><a xlink:title=" ">
<polygon fill="#e0e0e0" stroke="#999999" points="1831,-32 1711.5,-32 1711.5,0 1831,0 1831,-32"/>
<text text-anchor="start" x="1719.5" y="-18.5" font-family="Helvetica,sans-Serif" font-size="10.00">java.nio.file.NoSuchFile</text>
<text text-anchor="middle" x="1771.25" y="-6.5" font-family="Helvetica,sans-Serif" font-size="10.00">Exception</text>
</a>
</g>
</g>
<!-- Node1&#45;&gt;Node13 -->
<g id="edge12_Node000001_Node000013" class="edge">
<title>Node1&#45;&gt;Node13</title>
<g id="a_edge12_Node000001_Node000013"><a xlink:title=" ">
<path fill="none" stroke="#63b8ff" d="M1864.65,-67.53C1848.28,-58.67 1827.53,-47.45 1809.75,-37.83"/>
<polygon fill="#63b8ff" stroke="#63b8ff" points="1811.47,-34.78 1801.01,-33.1 1808.14,-40.93 1811.47,-34.78"/>
</a>
</g>
</g>
<!-- Node14 -->
<g id="Node000014" class="node">
<title>Node14</title>
<g id="a_Node000014"><a xlink:title=" ">
<polygon fill="#e0e0e0" stroke="#999999" points="1937.62,-26 1848.88,-26 1848.88,-6 1937.62,-6 1937.62,-26"/>
<text text-anchor="middle" x="1893.25" y="-12.5" font-family="Helvetica,sans-Serif" font-size="10.00">java.util.Scanner</text>
</a>
</g>
</g>
<!-- Node1&#45;&gt;Node14 -->
<g id="edge13_Node000001_Node000014" class="edge">
<title>Node1&#45;&gt;Node14</title>
<g id="a_edge13_Node000001_Node000014"><a xlink:title=" ">
<path fill="none" stroke="#63b8ff" d="M1893.25,-67.69C1893.25,-58.8 1893.25,-47.46 1893.25,-37.77"/>
<polygon fill="#63b8ff" stroke="#63b8ff" points="1896.75,-37.83 1893.25,-27.83 1889.75,-37.83 1896.75,-37.83"/>
</a>
</g>
</g>
<!-- Node15 -->
<g id="Node000015" class="node">
<title>Node15</title>
<g id="a_Node000015"><a xlink:title=" ">
<polygon fill="#e0e0e0" stroke="#999999" points="2126.88,-32 1955.62,-32 1955.62,0 2126.88,0 2126.88,-32"/>
<text text-anchor="start" x="1963.62" y="-18.5" font-family="Helvetica,sans-Serif" font-size="10.00">org.apache.commons.codec.digest.</text>
<text text-anchor="middle" x="2041.25" y="-6.5" font-family="Helvetica,sans-Serif" font-size="10.00">DigestUtils</text>
</a>
</g>
</g>
<!-- Node1&#45;&gt;Node15 -->
<g id="edge14_Node000001_Node000015" class="edge">
<title>Node1&#45;&gt;Node15</title>
<g id="a_edge14_Node000001_Node000015"><a xlink:title=" ">
<path fill="none" stroke="#63b8ff" d="M1927.95,-67.53C1948.29,-58.46 1974.21,-46.9 1996.12,-37.13"/>
<polygon fill="#63b8ff" stroke="#63b8ff" points="1997.42,-40.38 2005.13,-33.11 1994.57,-33.98 1997.42,-40.38"/>
</a>
</g>
</g>
<!-- Node16 -->
<g id="Node000016" class="node">
<title>Node16</title>
<g id="a_Node000016"><a xlink:title=" ">
<polygon fill="#e0e0e0" stroke="#999999" points="2271.75,-32 2144.75,-32 2144.75,0 2271.75,0 2271.75,-32"/>
<text text-anchor="start" x="2152.75" y="-18.5" font-family="Helvetica,sans-Serif" font-size="10.00">org.springframework.http.</text>
<text text-anchor="middle" x="2208.25" y="-6.5" font-family="Helvetica,sans-Serif" font-size="10.00">ResponseEntity</text>
</a>
</g>
</g>
<!-- Node1&#45;&gt;Node16 -->
<g id="edge15_Node000001_Node000016" class="edge">
<title>Node1&#45;&gt;Node16</title>
<g id="a_edge15_Node000001_Node000016"><a xlink:title=" ">
<path fill="none" stroke="#63b8ff" d="M1961.21,-68.76C2011.85,-58.15 2080.97,-43.67 2133.22,-32.72"/>
<polygon fill="#63b8ff" stroke="#63b8ff" points="2133.88,-36.16 2142.95,-30.68 2132.45,-29.31 2133.88,-36.16"/>
</a>
</g>
</g>
<!-- Node17 -->
<g id="Node000017" class="node">
<title>Node17</title>
<g id="a_Node000017"><a xlink:title=" ">
<polygon fill="#e0e0e0" stroke="#999999" points="2444.62,-32 2289.88,-32 2289.88,0 2444.62,0 2444.62,-32"/>
<text text-anchor="start" x="2297.88" y="-18.5" font-family="Helvetica,sans-Serif" font-size="10.00">org.springframework.web.client.</text>
<text text-anchor="middle" x="2367.25" y="-6.5" font-family="Helvetica,sans-Serif" font-size="10.00">RestClient</text>
</a>
</g>
</g>
<!-- Node1&#45;&gt;Node17 -->
<g id="edge16_Node000001_Node000017" class="edge">
<title>Node1&#45;&gt;Node17</title>
<g id="a_edge16_Node000001_Node000017"><a xlink:title=" ">
<path fill="none" stroke="#63b8ff" d="M1961.36,-74.93C2036.51,-65.82 2161.32,-50.11 2278.18,-32.44"/>
<polygon fill="#63b8ff" stroke="#63b8ff" points="2278.6,-35.91 2287.96,-30.95 2277.55,-28.99 2278.6,-35.91"/>
</a>
</g>
</g>
<!-- Node18 -->
<g id="Node000018" class="node">
<title>Node18</title>
<g id="a_Node000018"><a xlink:title=" ">
<polygon fill="#e0e0e0" stroke="#999999" points="2607.38,-32 2463.12,-32 2463.12,0 2607.38,0 2607.38,-32"/>
<text text-anchor="start" x="2471.12" y="-18.5" font-family="Helvetica,sans-Serif" font-size="10.00">org.springframework.web.util.</text>
<text text-anchor="middle" x="2535.25" y="-6.5" font-family="Helvetica,sans-Serif" font-size="10.00">UriBuilder</text>
</a>
</g>
</g>
<!-- Node1&#45;&gt;Node18 -->
<g id="edge17_Node000001_Node000018" class="edge">
<title>Node1&#45;&gt;Node18</title>
<g id="a_edge17_Node000001_Node000018"><a xlink:title=" ">
<path fill="none" stroke="#63b8ff" d="M1961.14,-78.8C2064.6,-71.96 2268.13,-56.79 2451.65,-32.13"/>
<polygon fill="#63b8ff" stroke="#63b8ff" points="2451.93,-35.62 2461.37,-30.81 2450.99,-28.69 2451.93,-35.62"/>
</a>
</g>
</g>
<!-- Node19 -->
<g id="Node000019" class="node">
<title>Node19</title>
<g id="a_Node000019"><a xlink:title=" ">
<polygon fill="#e0e0e0" stroke="#999999" points="2773.25,-32 2625.25,-32 2625.25,0 2773.25,0 2773.25,-32"/>
<text text-anchor="start" x="2633.25" y="-18.5" font-family="Helvetica,sans-Serif" font-size="10.00">com.hust.ittnk68.cnpm.config.</text>
<text text-anchor="middle" x="2699.25" y="-6.5" font-family="Helvetica,sans-Serif" font-size="10.00">MySQLDefaultConfig</text>
</a>
</g>
</g>
<!-- Node1&#45;&gt;Node19 -->
<g id="edge18_Node000001_Node000019" class="edge">
<title>Node1&#45;&gt;Node19</title>
<g id="a_edge18_Node000001_Node000019"><a xlink:title=" ">
<path fill="none" stroke="#63b8ff" d="M1961.27,-80.66C2087.76,-75.78 2367.88,-62.44 2613.79,-32.22"/>
<polygon fill="#63b8ff" stroke="#63b8ff" points="2614.11,-35.7 2623.6,-31 2613.24,-28.76 2614.11,-35.7"/>
</a>
</g>
</g>
<!-- Node20 -->
<g id="Node000020" class="node">
<title>Node20</title>
<g id="a_Node000020"><a xlink:title=" ">
<polygon fill="#e0e0e0" stroke="#999999" points="2953,-32 2791.5,-32 2791.5,0 2953,0 2953,-32"/>
<text text-anchor="start" x="2799.5" y="-18.5" font-family="Helvetica,sans-Serif" font-size="10.00">com.hust.ittnk68.cnpm.database.</text>
<text text-anchor="middle" x="2872.25" y="-6.5" font-family="Helvetica,sans-Serif" font-size="10.00">GetSQLProperties</text>
</a>
</g>
</g>
<!-- Node1&#45;&gt;Node20 -->
<g id="edge19_Node000001_Node000020" class="edge">
<title>Node1&#45;&gt;Node20</title>
<g id="a_edge19_Node000001_Node000020"><a xlink:title=" ">
<path fill="none" stroke="#63b8ff" d="M1961.21,-81.6C2108.55,-78.02 2468.52,-66.36 2780.28,-32.13"/>
<polygon fill="#63b8ff" stroke="#63b8ff" points="2780.3,-35.65 2789.85,-31.07 2779.53,-28.7 2780.3,-35.65"/>
</a>
</g>
</g>
<!-- Node21 -->
<g id="Node000021" class="node">
<title>Node21</title>
<g id="a_Node000021"><a xlink:title=" ">
<polygon fill="#e0e0e0" stroke="#999999" points="3133,-32 2971.5,-32 2971.5,0 3133,0 3133,-32"/>
<text text-anchor="start" x="2979.5" y="-18.5" font-family="Helvetica,sans-Serif" font-size="10.00">com.hust.ittnk68.cnpm.database.</text>
<text text-anchor="middle" x="3052.25" y="-6.5" font-family="Helvetica,sans-Serif" font-size="10.00">MySQLDatabase</text>
</a>
</g>
</g>
<!-- Node1&#45;&gt;Node21 -->
<g id="edge20_Node000001_Node000021" class="edge">
<title>Node1&#45;&gt;Node21</title>
<g id="a_edge20_Node000001_Node000021"><a xlink:title=" ">
<path fill="none" stroke="#63b8ff" d="M1961.31,-82.52C2129.21,-80.75 2576.74,-72.4 2960.04,-32.14"/>
<polygon fill="#63b8ff" stroke="#63b8ff" points="2960.28,-35.64 2969.85,-31.1 2959.54,-28.68 2960.28,-35.64"/>
</a>
</g>
</g>
<!-- Node22 -->
<g id="Node000022" class="node">
<title>Node22</title>
<g id="a_Node000022"><a xlink:title=" ">
<polygon fill="#e0e0e0" stroke="#999999" points="3315.12,-32 3151.38,-32 3151.38,0 3315.12,0 3315.12,-32"/>
<text text-anchor="start" x="3159.38" y="-18.5" font-family="Helvetica,sans-Serif" font-size="10.00">com.hust.ittnk68.cnpm.exception.</text>
<text text-anchor="middle" x="3233.25" y="-6.5" font-family="Helvetica,sans-Serif" font-size="10.00">ConfigFileException</text>
</a>
</g>
</g>
<!-- Node1&#45;&gt;Node22 -->
<g id="edge21_Node000001_Node000022" class="edge">
<title>Node1&#45;&gt;Node22</title>
<g id="a_edge21_Node000001_Node000022"><a xlink:title=" ">
<path fill="none" stroke="#63b8ff" d="M1961.15,-83.15C2147.76,-82.92 2684.19,-78.08 3139.55,-32.19"/>
<polygon fill="#63b8ff" stroke="#63b8ff" points="3139.87,-35.67 3149.46,-31.18 3139.16,-28.71 3139.87,-35.67"/>
</a>
</g>
</g>
<!-- Node23 -->
<g id="Node000023" class="node">
<title>Node23</title>
<g id="a_Node000023"><a xlink:title=" ">
<polygon fill="#e0e0e0" stroke="#999999" points="3481.25,-32 3333.25,-32 3333.25,0 3481.25,0 3481.25,-32"/>
<text text-anchor="start" x="3341.25" y="-18.5" font-family="Helvetica,sans-Serif" font-size="10.00">com.hust.ittnk68.cnpm.model.</text>
<text text-anchor="middle" x="3407.25" y="-6.5" font-family="Helvetica,sans-Serif" font-size="10.00">Account</text>
</a>
</g>
</g>
<!-- Node1&#45;&gt;Node23 -->
<g id="edge22_Node000001_Node000023" class="edge">
<title>Node1&#45;&gt;Node23</title>
<g id="a_edge22_Node000001_Node000023"><a xlink:title=" ">
<path fill="none" stroke="#63b8ff" d="M1961.1,-81.87C2204.29,-77.63 3032.75,-61.41 3321.82,-32.12"/>
<polygon fill="#63b8ff" stroke="#63b8ff" points="3322.03,-35.62 3331.61,-31.1 3321.3,-28.66 3322.03,-35.62"/>
</a>
</g>
</g>
<!-- Node24 -->
<g id="Node000024" class="node">
<title>Node24</title>
<g id="a_Node000024"><a xlink:title=" ">
<polygon fill="#e0e0e0" stroke="#999999" points="3647.25,-32 3499.25,-32 3499.25,0 3647.25,0 3647.25,-32"/>
<text text-anchor="start" x="3507.25" y="-18.5" font-family="Helvetica,sans-Serif" font-size="10.00">com.hust.ittnk68.cnpm.model.</text>
<text text-anchor="middle" x="3573.25" y="-6.5" font-family="Helvetica,sans-Serif" font-size="10.00">Family</text>
</a>
</g>
</g>
<!-- Node1&#45;&gt;Node24 -->
<g id="edge23_Node000001_Node000024" class="edge">
<title>Node1&#45;&gt;Node24</title>
<g id="a_edge23_Node000001_Node000024"><a xlink:title=" ">
<path fill="none" stroke="#63b8ff" d="M1961.11,-82.16C2222.38,-78.73 3164.37,-64.43 3487.87,-32.11"/>
<polygon fill="#63b8ff" stroke="#63b8ff" points="3488.02,-35.61 3497.61,-31.11 3487.3,-28.65 3488.02,-35.61"/>
</a>
</g>
</g>
<!-- Node25 -->
<g id="Node000025" class="node">
<title>Node25</title>
<g id="a_Node000025"><a xlink:title=" ">
<polygon fill="#e0e0e0" stroke="#999999" points="3823.12,-32 3665.38,-32 3665.38,0 3823.12,0 3823.12,-32"/>
<text text-anchor="start" x="3673.38" y="-18.5" font-family="Helvetica,sans-Serif" font-size="10.00">com.fasterxml.jackson.databind.</text>
<text text-anchor="middle" x="3744.25" y="-6.5" font-family="Helvetica,sans-Serif" font-size="10.00">ObjectMapper</text>
</a>
</g>
</g>
<!-- Node1&#45;&gt;Node25 -->
<g id="edge24_Node000001_Node000025" class="edge">
<title>Node1&#45;&gt;Node25</title>
<g id="a_edge24_Node000001_Node000025"><a xlink:title=" ">
<path fill="none" stroke="#63b8ff" d="M1961.33,-82.31C2240.01,-79.27 3295.39,-65.81 3653.74,-32.12"/>
<polygon fill="#63b8ff" stroke="#63b8ff" points="3654.04,-35.61 3663.66,-31.16 3653.37,-28.64 3654.04,-35.61"/>
</a>
</g>
</g>
<!-- Node26 -->
<g id="Node000026" class="node">
<title>Node26</title>
<g id="a_Node000026"><a xlink:title=" ">
<polygon fill="#e0e0e0" stroke="#999999" points="4033,-26 3841.5,-26 3841.5,-6 4033,-6 4033,-26"/>
<text text-anchor="middle" x="3937.25" y="-12.5" font-family="Helvetica,sans-Serif" font-size="10.00">com.hust.ittnk68.cnpm.communication.*</text>
</a>
</g>
</g>
<!-- Node1&#45;&gt;Node26 -->
<g id="edge25_Node000001_Node000026" class="edge">
<title>Node1&#45;&gt;Node26</title>
<g id="a_edge25_Node000001_Node000026"><a xlink:title=" ">
<path fill="none" stroke="#63b8ff" d="M1961.19,-82.27C2259.78,-78.89 3457.37,-63.6 3832.25,-32 3843.86,-31.02 3856.15,-29.61 3868.07,-28.04"/>
<polygon fill="#63b8ff" stroke="#63b8ff" points="3868.41,-31.52 3877.85,-26.7 3867.46,-24.59 3868.41,-31.52"/>
</a>
</g>
</g>
</g>
</svg>
