<?xml version="1.0" encoding="UTF-8" standalone="no"?>
<!DOCTYPE svg PUBLIC "-//W3C//DTD SVG 1.1//EN"
 "http://www.w3.org/Graphics/SVG/1.1/DTD/svg11.dtd">
<!-- Generated by graphviz version 12.2.1 (20241206.2353)
 -->
<!-- Title: src/test/java/com/hust/ittnk68/cnpm/app/AppTest.java Pages: 1 -->
<svg width="403pt" height="96pt"
 viewBox="0.00 0.00 402.75 96.00" xmlns="http://www.w3.org/2000/svg" xmlns:xlink="http://www.w3.org/1999/xlink">
<g id="graph0" class="graph" transform="scale(1 1) rotate(0) translate(4 92)">
<title>src/test/java/com/hust/ittnk68/cnpm/app/AppTest.java</title>
<!-- Node1 -->
<g id="Node000001" class="node">
<title>Node1</title>
<g id="a_Node000001"><a xlink:title=" ">
<polygon fill="#999999" stroke="#666666" points="263.25,-88 109.25,-88 109.25,-56 263.25,-56 263.25,-88"/>
<text text-anchor="start" x="117.25" y="-74.5" font-family="Helvetica,sans-Serif" font-size="10.00">src/test/java/com/hust</text>
<text text-anchor="middle" x="186.25" y="-62.5" font-family="Helvetica,sans-Serif" font-size="10.00">/ittnk68/cnpm/app/AppTest.java</text>
</a>
</g>
</g>
<!-- Node2 -->
<g id="Node000002" class="node">
<title>Node2</title>
<g id="a_Node000002"><a xlink:title=" ">
<polygon fill="#e0e0e0" stroke="#999999" points="104.5,-20 0,-20 0,0 104.5,0 104.5,-20"/>
<text text-anchor="middle" x="52.25" y="-6.5" font-family="Helvetica,sans-Serif" font-size="10.00">junit.framework.Test</text>
</a>
</g>
</g>
<!-- Node1&#45;&gt;Node2 -->
<g id="edge1_Node000001_Node000002" class="edge">
<title>Node1&#45;&gt;Node2</title>
<g id="a_edge1_Node000001_Node000002"><a xlink:title=" ">
<path fill="none" stroke="#63b8ff" d="M151.74,-55.55C130.71,-46.13 104.04,-34.19 83.6,-25.04"/>
<polygon fill="#63b8ff" stroke="#63b8ff" points="85.2,-21.92 74.64,-21.03 82.34,-28.31 85.2,-21.92"/>
</a>
</g>
</g>
<!-- Node3 -->
<g id="Node000003" class="node">
<title>Node3</title>
<g id="a_Node000003"><a xlink:title=" ">
<polygon fill="#e0e0e0" stroke="#999999" points="250.12,-20 122.38,-20 122.38,0 250.12,0 250.12,-20"/>
<text text-anchor="middle" x="186.25" y="-6.5" font-family="Helvetica,sans-Serif" font-size="10.00">junit.framework.TestCase</text>
</a>
</g>
</g>
<!-- Node1&#45;&gt;Node3 -->
<g id="edge2_Node000001_Node000003" class="edge">
<title>Node1&#45;&gt;Node3</title>
<g id="a_edge2_Node000001_Node000003"><a xlink:title=" ">
<path fill="none" stroke="#63b8ff" d="M186.25,-55.55C186.25,-48.34 186.25,-39.66 186.25,-31.88"/>
<polygon fill="#63b8ff" stroke="#63b8ff" points="189.75,-31.92 186.25,-21.92 182.75,-31.92 189.75,-31.92"/>
</a>
</g>
</g>
<!-- Node4 -->
<g id="Node000004" class="node">
<title>Node4</title>
<g id="a_Node000004"><a xlink:title=" ">
<polygon fill="#e0e0e0" stroke="#999999" points="394.75,-20 267.75,-20 267.75,0 394.75,0 394.75,-20"/>
<text text-anchor="middle" x="331.25" y="-6.5" font-family="Helvetica,sans-Serif" font-size="10.00">junit.framework.TestSuite</text>
</a>
</g>
</g>
<!-- Node1&#45;&gt;Node4 -->
<g id="edge3_Node000001_Node000004" class="edge">
<title>Node1&#45;&gt;Node4</title>
<g id="a_edge3_Node000001_Node000004"><a xlink:title=" ">
<path fill="none" stroke="#63b8ff" d="M223.59,-55.55C246.56,-46.04 275.75,-33.97 297.93,-24.79"/>
<polygon fill="#63b8ff" stroke="#63b8ff" points="299.21,-28.04 307.12,-20.99 296.54,-21.58 299.21,-28.04"/>
</a>
</g>
</g>
</g>
</svg>
