<?xml version="1.0" encoding="UTF-8" standalone="no"?>
<!DOCTYPE svg PUBLIC "-//W3C//DTD SVG 1.1//EN"
 "http://www.w3.org/Graphics/SVG/1.1/DTD/svg11.dtd">
<!-- Generated by graphviz version 12.2.1 (20241206.2353)
 -->
<!-- Title: src/main/java/com/hust/ittnk68/cnpm/service/AuthController.java Pages: 1 -->
<!--zoomable 120 -->

<svg id="main" version="1.1" xmlns="http://www.w3.org/2000/svg" xmlns:xlink="http://www.w3.org/1999/xlink" xml:space="preserve" onload="init(evt)">

<style type="text/css"><![CDATA[
.node, .edge {opacity: 0.7;}
.node.selected, .edge.selected {opacity: 1;}
.edge:hover path { stroke: red; }
.edge:hover polygon { stroke: red; fill: red; }
]]></style>

<defs>
  <circle id="rim" cx="0" cy="0" r="7"/>
  <circle id="rim2" cx="0" cy="0" r="3.5"/>
  <g id="zoomPlus">
    <use xlink:href="#rim" fill="#404040"><set attributeName="fill" to="#808080" begin="zoomplus.mouseover" end="zoomplus.mouseout"/></use>
    <path d="M-4,0h8M0,-4v8" fill="none" stroke="white" stroke-width="1.5" pointer-events="none"/>
  </g>
  <g id="zoomMin">
    <use xlink:href="#rim" fill="#404040"><set attributeName="fill" to="#808080" begin="zoomminus.mouseover" end="zoomminus.mouseout"/></use>
    <path d="M-4,0h8" fill="none" stroke="white" stroke-width="1.5" pointer-events="none"/>
  </g>
  <g id="arrowUp" transform="translate(30 24)">
    <use xlink:href="#rim"/>
    <path pointer-events="none" fill="none" stroke="white" stroke-width="1.5" d="M0,-3.0v7 M-2.5,-0.5L0,-3.0L2.5,-0.5"/>
  </g>
  <g id="arrowRight" transform="rotate(90) translate(36 -43)">
    <use xlink:href="#rim"/>
    <path pointer-events="none" fill="none" stroke="white" stroke-width="1.5" d="M0,-3.0v7 M-2.5,-0.5L0,-3.0L2.5,-0.5"/>
  </g>
  <g id="arrowDown" transform="rotate(180) translate(-30 -48)">
    <use xlink:href="#rim"/>
    <path pointer-events="none" fill="none" stroke="white" stroke-width="1.5" d="M0,-3.0v7 M-2.5,-0.5L0,-3.0L2.5,-0.5"/>
  </g>
  <g id="arrowLeft" transform="rotate(270) translate(-36 17)">
    <use xlink:href="#rim"/>
    <path pointer-events="none" fill="none" stroke="white" stroke-width="1.5" d="M0,-3.0v7 M-2.5,-0.5L0,-3.0L2.5,-0.5"/>
  </g>
  <g id="resetDef">
    <use xlink:href="#rim2" fill="#404040"><set attributeName="fill" to="#808080" begin="reset.mouseover" end="reset.mouseout"/></use>
  </g>
</defs>
<script type="application/ecmascript">
var viewWidth = 2290;
var viewHeight = 120;
var sectionId = 'dynsection-0';
</script>
<script type="application/ecmascript" xlink:href="svg.min.js"/>
<svg id="graph" class="graph">
<g id="viewport">
<title>src/main/java/com/hust/ittnk68/cnpm/service/AuthController.java</title>
<!-- Node1 -->
<g id="Node000001" class="node">
<title>Node1</title>
<g id="a_Node000001"><a xlink:title=" ">
<polygon fill="#999999" stroke="#666666" points="1171.25,-112 1053.25,-112 1053.25,-68 1171.25,-68 1171.25,-112"/>
<text text-anchor="start" x="1061.25" y="-98.5" font-family="Helvetica,sans-Serif" font-size="10.00">src/main/java/com/hust</text>
<text text-anchor="start" x="1061.25" y="-86.5" font-family="Helvetica,sans-Serif" font-size="10.00">/ittnk68/cnpm/service</text>
<text text-anchor="middle" x="1112.25" y="-74.5" font-family="Helvetica,sans-Serif" font-size="10.00">/AuthController.java</text>
</a>
</g>
</g>
<!-- Node2 -->
<g id="Node000002" class="node">
<title>Node2</title>
<g id="a_Node000002"><a xlink:title=" ">
<polygon fill="#e0e0e0" stroke="#999999" points="68.5,-26 0,-26 0,-6 68.5,-6 68.5,-26"/>
<text text-anchor="middle" x="34.25" y="-12.5" font-family="Helvetica,sans-Serif" font-size="10.00">java.util.List</text>
</a>
</g>
</g>
<!-- Node1&#45;&gt;Node2 -->
<g id="edge1_Node000001_Node000002" class="edge">
<title>Node1&#45;&gt;Node2</title>
<g id="a_edge1_Node000001_Node000002"><a xlink:title=" ">
<path fill="none" stroke="#63b8ff" d="M1053.07,-87.92C862.48,-84.09 266.15,-69.37 77.25,-32 74.3,-31.42 71.27,-30.67 68.26,-29.83"/>
<polygon fill="#63b8ff" stroke="#63b8ff" points="69.61,-26.59 59.02,-26.92 67.51,-33.27 69.61,-26.59"/>
</a>
</g>
</g>
<!-- Node3 -->
<g id="Node000003" class="node">
<title>Node3</title>
<g id="a_Node000003"><a xlink:title=" ">
<polygon fill="#e0e0e0" stroke="#999999" points="158,-26 86.5,-26 86.5,-6 158,-6 158,-26"/>
<text text-anchor="middle" x="122.25" y="-12.5" font-family="Helvetica,sans-Serif" font-size="10.00">java.util.Map</text>
</a>
</g>
</g>
<!-- Node1&#45;&gt;Node3 -->
<g id="edge2_Node000001_Node000003" class="edge">
<title>Node1&#45;&gt;Node3</title>
<g id="a_edge2_Node000001_Node000003"><a xlink:title=" ">
<path fill="none" stroke="#63b8ff" d="M1052.87,-87.5C873.2,-82.65 337.27,-65.67 166.25,-32 163.24,-31.41 160.15,-30.66 157.07,-29.81"/>
<polygon fill="#63b8ff" stroke="#63b8ff" points="158.17,-26.49 147.59,-26.89 156.11,-33.18 158.17,-26.49"/>
</a>
</g>
</g>
<!-- Node4 -->
<g id="Node000004" class="node">
<title>Node4</title>
<g id="a_Node000004"><a xlink:title=" ">
<polygon fill="#e0e0e0" stroke="#999999" points="388.88,-32 175.62,-32 175.62,0 388.88,0 388.88,-32"/>
<text text-anchor="start" x="183.62" y="-18.5" font-family="Helvetica,sans-Serif" font-size="10.00">org.springframework.security.access.prepost.</text>
<text text-anchor="middle" x="282.25" y="-6.5" font-family="Helvetica,sans-Serif" font-size="10.00">PreAuthorize</text>
</a>
</g>
</g>
<!-- Node1&#45;&gt;Node4 -->
<g id="edge3_Node000001_Node000004" class="edge">
<title>Node1&#45;&gt;Node4</title>
<g id="a_edge3_Node000001_Node000004"><a xlink:title=" ">
<path fill="none" stroke="#63b8ff" d="M1052.83,-85.27C932.01,-77.48 648.73,-58.09 400.76,-32.34"/>
<polygon fill="#63b8ff" stroke="#63b8ff" points="401.17,-28.86 390.86,-31.31 400.44,-35.83 401.17,-28.86"/>
</a>
</g>
</g>
<!-- Node5 -->
<g id="Node000005" class="node">
<title>Node5</title>
<g id="a_Node000005"><a xlink:title=" ">
<polygon fill="#e0e0e0" stroke="#999999" points="607.88,-26 406.62,-26 406.62,-6 607.88,-6 607.88,-26"/>
<text text-anchor="middle" x="507.25" y="-12.5" font-family="Helvetica,sans-Serif" font-size="10.00">org.springframework.web.bind.annotation.*</text>
</a>
</g>
</g>
<!-- Node1&#45;&gt;Node5 -->
<g id="edge4_Node000001_Node000005" class="edge">
<title>Node1&#45;&gt;Node5</title>
<g id="a_edge4_Node000001_Node000005"><a xlink:title=" ">
<path fill="none" stroke="#63b8ff" d="M1052.77,-82.56C959.77,-72.39 774.32,-51.75 617.25,-32 607.21,-30.74 596.66,-29.36 586.23,-27.97"/>
<polygon fill="#63b8ff" stroke="#63b8ff" points="586.87,-24.53 576.49,-26.67 585.94,-31.46 586.87,-24.53"/>
</a>
</g>
</g>
<!-- Node6 -->
<g id="Node000006" class="node">
<title>Node6</title>
<g id="a_Node000006"><a xlink:title=" ">
<polygon fill="#e0e0e0" stroke="#999999" points="842.38,-32 626.12,-32 626.12,0 842.38,0 842.38,-32"/>
<text text-anchor="start" x="634.12" y="-18.5" font-family="Helvetica,sans-Serif" font-size="10.00">org.springframework.beans.factory.annotation.</text>
<text text-anchor="middle" x="734.25" y="-6.5" font-family="Helvetica,sans-Serif" font-size="10.00">Autowired</text>
</a>
</g>
</g>
<!-- Node1&#45;&gt;Node6 -->
<g id="edge5_Node000001_Node000006" class="edge">
<title>Node1&#45;&gt;Node6</title>
<g id="a_edge5_Node000001_Node000006"><a xlink:title=" ">
<path fill="none" stroke="#63b8ff" d="M1052.77,-77.67C992.09,-66.11 897.07,-48.01 826.59,-34.59"/>
<polygon fill="#63b8ff" stroke="#63b8ff" points="827.47,-31.19 816.99,-32.76 826.16,-38.07 827.47,-31.19"/>
</a>
</g>
</g>
<!-- Node7 -->
<g id="Node000007" class="node">
<title>Node7</title>
<g id="a_Node000007"><a xlink:title=" ">
<polygon fill="#e0e0e0" stroke="#999999" points="1000.5,-32 860,-32 860,0 1000.5,0 1000.5,-32"/>
<text text-anchor="start" x="868" y="-18.5" font-family="Helvetica,sans-Serif" font-size="10.00">com.hust.ittnk68.cnpm.auth.</text>
<text text-anchor="middle" x="930.25" y="-6.5" font-family="Helvetica,sans-Serif" font-size="10.00">JwtUtil</text>
</a>
</g>
</g>
<!-- Node1&#45;&gt;Node7 -->
<g id="edge6_Node000001_Node000007" class="edge">
<title>Node1&#45;&gt;Node7</title>
<g id="a_edge6_Node000001_Node000007"><a xlink:title=" ">
<path fill="none" stroke="#63b8ff" d="M1058.14,-67.59C1033.31,-57.77 1004.07,-46.2 979.83,-36.61"/>
<polygon fill="#63b8ff" stroke="#63b8ff" points="981.41,-33.48 970.83,-33.05 978.84,-39.99 981.41,-33.48"/>
</a>
</g>
</g>
<!-- Node8 -->
<g id="Node000008" class="node">
<title>Node8</title>
<g id="a_Node000008"><a xlink:title=" ">
<polygon fill="#e0e0e0" stroke="#999999" points="1206.12,-32 1018.38,-32 1018.38,0 1206.12,0 1206.12,-32"/>
<text text-anchor="start" x="1026.38" y="-18.5" font-family="Helvetica,sans-Serif" font-size="10.00">com.hust.ittnk68.cnpm.communication.</text>
<text text-anchor="middle" x="1112.25" y="-6.5" font-family="Helvetica,sans-Serif" font-size="10.00">ApiMapping</text>
</a>
</g>
</g>
<!-- Node1&#45;&gt;Node8 -->
<g id="edge7_Node000001_Node000008" class="edge">
<title>Node1&#45;&gt;Node8</title>
<g id="a_edge7_Node000001_Node000008"><a xlink:title=" ">
<path fill="none" stroke="#63b8ff" d="M1112.25,-67.79C1112.25,-60.18 1112.25,-51.52 1112.25,-43.52"/>
<polygon fill="#63b8ff" stroke="#63b8ff" points="1115.75,-43.64 1112.25,-33.64 1108.75,-43.64 1115.75,-43.64"/>
</a>
</g>
</g>
<!-- Node9 -->
<g id="Node000009" class="node">
<title>Node9</title>
<g id="a_Node000009"><a xlink:title=" ">
<polygon fill="#e0e0e0" stroke="#999999" points="1412.12,-32 1224.38,-32 1224.38,0 1412.12,0 1412.12,-32"/>
<text text-anchor="start" x="1232.38" y="-18.5" font-family="Helvetica,sans-Serif" font-size="10.00">com.hust.ittnk68.cnpm.communication.</text>
<text text-anchor="middle" x="1318.25" y="-6.5" font-family="Helvetica,sans-Serif" font-size="10.00">ClientMessageStartSession</text>
</a>
</g>
</g>
<!-- Node1&#45;&gt;Node9 -->
<g id="edge8_Node000001_Node000009" class="edge">
<title>Node1&#45;&gt;Node9</title>
<g id="a_edge8_Node000001_Node000009"><a xlink:title=" ">
<path fill="none" stroke="#63b8ff" d="M1171.56,-68.27C1200.54,-58.14 1235.19,-46.03 1263.54,-36.12"/>
<polygon fill="#63b8ff" stroke="#63b8ff" points="1264.35,-39.55 1272.64,-32.94 1262.04,-32.94 1264.35,-39.55"/>
</a>
</g>
</g>
<!-- Node10 -->
<g id="Node000010" class="node">
<title>Node10</title>
<g id="a_Node000010"><a xlink:title=" ">
<polygon fill="#e0e0e0" stroke="#999999" points="1618.12,-32 1430.38,-32 1430.38,0 1618.12,0 1618.12,-32"/>
<text text-anchor="start" x="1438.38" y="-18.5" font-family="Helvetica,sans-Serif" font-size="10.00">com.hust.ittnk68.cnpm.communication.</text>
<text text-anchor="middle" x="1524.25" y="-6.5" font-family="Helvetica,sans-Serif" font-size="10.00">ServerResponseStartSession</text>
</a>
</g>
</g>
<!-- Node1&#45;&gt;Node10 -->
<g id="edge9_Node000001_Node000010" class="edge">
<title>Node1&#45;&gt;Node10</title>
<g id="a_edge9_Node000001_Node000010"><a xlink:title=" ">
<path fill="none" stroke="#63b8ff" d="M1171.72,-78.61C1237.8,-67.06 1345.6,-48.22 1424.62,-34.41"/>
<polygon fill="#63b8ff" stroke="#63b8ff" points="1424.83,-37.93 1434.08,-32.76 1423.63,-31.03 1424.83,-37.93"/>
</a>
</g>
</g>
<!-- Node11 -->
<g id="Node000011" class="node">
<title>Node11</title>
<g id="a_Node000011"><a xlink:title=" ">
<polygon fill="#e0e0e0" stroke="#999999" points="1798,-32 1636.5,-32 1636.5,0 1798,0 1798,-32"/>
<text text-anchor="start" x="1644.5" y="-18.5" font-family="Helvetica,sans-Serif" font-size="10.00">com.hust.ittnk68.cnpm.database.</text>
<text text-anchor="middle" x="1717.25" y="-6.5" font-family="Helvetica,sans-Serif" font-size="10.00">MySQLDatabase</text>
</a>
</g>
</g>
<!-- Node1&#45;&gt;Node11 -->
<g id="edge10_Node000001_Node000011" class="edge">
<title>Node1&#45;&gt;Node11</title>
<g id="a_edge10_Node000001_Node000011"><a xlink:title=" ">
<path fill="none" stroke="#63b8ff" d="M1171.47,-83.51C1265.33,-74.58 1454.29,-55.65 1625.1,-32.25"/>
<polygon fill="#63b8ff" stroke="#63b8ff" points="1625.4,-35.74 1634.83,-30.91 1624.45,-28.81 1625.4,-35.74"/>
</a>
</g>
</g>
<!-- Node12 -->
<g id="Node000012" class="node">
<title>Node12</title>
<g id="a_Node000012"><a xlink:title=" ">
<polygon fill="#e0e0e0" stroke="#999999" points="1964.25,-32 1816.25,-32 1816.25,0 1964.25,0 1964.25,-32"/>
<text text-anchor="start" x="1824.25" y="-18.5" font-family="Helvetica,sans-Serif" font-size="10.00">com.hust.ittnk68.cnpm.model.</text>
<text text-anchor="middle" x="1890.25" y="-6.5" font-family="Helvetica,sans-Serif" font-size="10.00">Account</text>
</a>
</g>
</g>
<!-- Node1&#45;&gt;Node12 -->
<g id="edge11_Node000001_Node000012" class="edge">
<title>Node1&#45;&gt;Node12</title>
<g id="a_edge11_Node000001_Node000012"><a xlink:title=" ">
<path fill="none" stroke="#63b8ff" d="M1171.49,-86.08C1289.91,-79.83 1564.4,-63.23 1805.02,-32.21"/>
<polygon fill="#63b8ff" stroke="#63b8ff" points="1805.13,-35.73 1814.59,-30.96 1804.23,-28.78 1805.13,-35.73"/>
</a>
</g>
</g>
<!-- Node13 -->
<g id="Node000013" class="node">
<title>Node13</title>
<g id="a_Node000013"><a xlink:title=" ">
<polygon fill="#e0e0e0" stroke="#999999" points="2122.5,-32 1982,-32 1982,0 2122.5,0 2122.5,-32"/>
<text text-anchor="start" x="1990" y="-18.5" font-family="Helvetica,sans-Serif" font-size="10.00">com.hust.ittnk68.cnpm.type.</text>
<text text-anchor="middle" x="2052.25" y="-6.5" font-family="Helvetica,sans-Serif" font-size="10.00">AccountType</text>
</a>
</g>
</g>
<!-- Node1&#45;&gt;Node13 -->
<g id="edge12_Node000001_Node000013" class="edge">
<title>Node1&#45;&gt;Node13</title>
<g id="a_edge12_Node000001_Node000013"><a xlink:title=" ">
<path fill="none" stroke="#63b8ff" d="M1171.73,-87.55C1310.17,-83.64 1664.83,-70.54 1970.38,-32.27"/>
<polygon fill="#63b8ff" stroke="#63b8ff" points="1970.7,-35.76 1980.18,-31.03 1969.82,-28.81 1970.7,-35.76"/>
</a>
</g>
</g>
<!-- Node14 -->
<g id="Node000014" class="node">
<title>Node14</title>
<g id="a_Node000014"><a xlink:title=" ">
<polygon fill="#e0e0e0" stroke="#999999" points="2281.5,-32 2141,-32 2141,0 2281.5,0 2281.5,-32"/>
<text text-anchor="start" x="2149" y="-18.5" font-family="Helvetica,sans-Serif" font-size="10.00">com.hust.ittnk68.cnpm.type.</text>
<text text-anchor="middle" x="2211.25" y="-6.5" font-family="Helvetica,sans-Serif" font-size="10.00">ResponseStatus</text>
</a>
</g>
</g>
<!-- Node1&#45;&gt;Node14 -->
<g id="edge13_Node000001_Node000014" class="edge">
<title>Node1&#45;&gt;Node14</title>
<g id="a_edge13_Node000001_Node000014"><a xlink:title=" ">
<path fill="none" stroke="#63b8ff" d="M1171.64,-88.36C1327.24,-86.11 1759.69,-76.17 2129.46,-32.1"/>
<polygon fill="#63b8ff" stroke="#63b8ff" points="2129.64,-35.6 2139.15,-30.93 2128.81,-28.65 2129.64,-35.6"/>
</a>
</g>
</g>
</g>
</svg>

<g id="navigator" transform="translate(0 0)" fill="#404254">
  <rect fill="#f2f5e9" fill-opacity="0.5" stroke="#606060" stroke-width=".5" x="0" y="0" width="60" height="60"/>
  <use id="zoomplus" xlink:href="#zoomPlus" x="17" y="9" onmousedown="handleZoom(evt,'in')"/>
  <use id="zoomminus" xlink:href="#zoomMin" x="42" y="9" onmousedown="handleZoom(evt,'out')"/>
  <use id="reset" xlink:href="#resetDef" x="30" y="36" onmousedown="handleReset()"/>
   <use id="arrowup" xlink:href="#arrowUp" x="0" y="0" onmousedown="handlePan(0,-1)"/>
  <use id="arrowright" xlink:href="#arrowRight" x="0" y="0" onmousedown="handlePan(1,0)"/>
  <use id="arrowdown" xlink:href="#arrowDown" x="0" y="0" onmousedown="handlePan(0,1)"/>
  <use id="arrowleft" xlink:href="#arrowLeft" x="0" y="0" onmousedown="handlePan(-1,0)"/>
</g>
<svg viewBox="0 0 15 15" width="100%" height="30px" preserveAspectRatio="xMaxYMin meet">
 <g id="arrow_out" transform="scale(0.3 0.3)">
  <a xlink:href="AuthController_8java__incl_org.svg" target="_base">
   <rect id="button" ry="5" rx="5" y="6" x="6" height="38" width="38"
        fill="#f2f5e9" fill-opacity="0.5" stroke="#606060" stroke-width="1.0"/>
   <path id="arrow"
     d="M 11.500037,31.436501 C 11.940474,20.09759 22.043105,11.32322 32.158766,21.979434 L 37.068811,17.246167 C 37.068811,17.246167 37.088388,32 37.088388,32 L 22.160133,31.978069 C 22.160133,31.978069 26.997745,27.140456 26.997745,27.140456 C 18.528582,18.264221 13.291696,25.230495 11.500037,31.436501 z"
     style="fill:#404040;"/>
  </a>
 </g>
</svg>

<style type='text/css'>
<![CDATA[
[data-mouse-over-selected='false'] { opacity: 0.7; }
[data-mouse-over-selected='true']  { opacity: 1.0; }
]]>
</style>
<script type="application/ecmascript"><![CDATA[
document.addEventListener('DOMContentLoaded', (event) => {
  highlightEdges();
  highlightAdjacentNodes();
});
]]></script>
</svg>
