<?xml version="1.0" encoding="UTF-8" standalone="no"?>
<!DOCTYPE svg PUBLIC "-//W3C//DTD SVG 1.1//EN"
 "http://www.w3.org/Graphics/SVG/1.1/DTD/svg11.dtd">
<!-- Generated by graphviz version 12.2.1 (20241206.2353)
 -->
<!-- Title: src/main/java/com/hust/ittnk68/cnpm/security/AuthorizationService.java Pages: 1 -->
<svg width="3650pt" height="120pt"
 viewBox="0.00 0.00 3650.38 120.00" xmlns="http://www.w3.org/2000/svg" xmlns:xlink="http://www.w3.org/1999/xlink">
<g id="graph0" class="graph" transform="scale(1 1) rotate(0) translate(4 116)">
<title>src/main/java/com/hust/ittnk68/cnpm/security/AuthorizationService.java</title>
<!-- Node1 -->
<g id="Node000001" class="node">
<title>Node1</title>
<g id="a_Node000001"><a xlink:title=" ">
<polygon fill="#999999" stroke="#666666" points="1965.25,-112 1835.25,-112 1835.25,-68 1965.25,-68 1965.25,-112"/>
<text text-anchor="start" x="1843.25" y="-98.5" font-family="Helvetica,sans-Serif" font-size="10.00">src/main/java/com/hust</text>
<text text-anchor="start" x="1843.25" y="-86.5" font-family="Helvetica,sans-Serif" font-size="10.00">/ittnk68/cnpm/security</text>
<text text-anchor="middle" x="1900.25" y="-74.5" font-family="Helvetica,sans-Serif" font-size="10.00">/AuthorizationService.java</text>
</a>
</g>
</g>
<!-- Node2 -->
<g id="Node000002" class="node">
<title>Node2</title>
<g id="a_Node000002"><a xlink:title=" ">
<polygon fill="#e0e0e0" stroke="#999999" points="140.5,-32 0,-32 0,0 140.5,0 140.5,-32"/>
<text text-anchor="start" x="8" y="-18.5" font-family="Helvetica,sans-Serif" font-size="10.00">com.hust.ittnk68.cnpm.auth.</text>
<text text-anchor="middle" x="70.25" y="-6.5" font-family="Helvetica,sans-Serif" font-size="10.00">JwtUtil</text>
</a>
</g>
</g>
<!-- Node1&#45;&gt;Node2 -->
<g id="edge1_Node000001_Node000002" class="edge">
<title>Node1&#45;&gt;Node2</title>
<g id="a_edge1_Node000001_Node000002"><a xlink:title=" ">
<path fill="none" stroke="#63b8ff" d="M1834.96,-88.23C1561.75,-84.81 508.35,-69.49 152.16,-32.18"/>
<polygon fill="#63b8ff" stroke="#63b8ff" points="152.63,-28.71 142.31,-31.12 151.88,-35.67 152.63,-28.71"/>
</a>
</g>
</g>
<!-- Node3 -->
<g id="Node000003" class="node">
<title>Node3</title>
<g id="a_Node000003"><a xlink:title=" ">
<polygon fill="#e0e0e0" stroke="#999999" points="346.12,-32 158.38,-32 158.38,0 346.12,0 346.12,-32"/>
<text text-anchor="start" x="166.38" y="-18.5" font-family="Helvetica,sans-Serif" font-size="10.00">com.hust.ittnk68.cnpm.communication.</text>
<text text-anchor="middle" x="252.25" y="-6.5" font-family="Helvetica,sans-Serif" font-size="10.00">AdminCreateObject</text>
</a>
</g>
</g>
<!-- Node1&#45;&gt;Node3 -->
<g id="edge2_Node000001_Node000003" class="edge">
<title>Node1&#45;&gt;Node3</title>
<g id="a_edge2_Node000001_Node000003"><a xlink:title=" ">
<path fill="none" stroke="#63b8ff" d="M1834.96,-89.1C1623.12,-88.91 935.75,-84.08 357.57,-32.14"/>
<polygon fill="#63b8ff" stroke="#63b8ff" points="358.28,-28.69 348.01,-31.28 357.65,-35.66 358.28,-28.69"/>
</a>
</g>
</g>
<!-- Node4 -->
<g id="Node000004" class="node">
<title>Node4</title>
<g id="a_Node000004"><a xlink:title=" ">
<polygon fill="#e0e0e0" stroke="#999999" points="552.12,-32 364.38,-32 364.38,0 552.12,0 552.12,-32"/>
<text text-anchor="start" x="372.38" y="-18.5" font-family="Helvetica,sans-Serif" font-size="10.00">com.hust.ittnk68.cnpm.communication.</text>
<text text-anchor="middle" x="458.25" y="-6.5" font-family="Helvetica,sans-Serif" font-size="10.00">AdminDeleteObject</text>
</a>
</g>
</g>
<!-- Node1&#45;&gt;Node4 -->
<g id="edge3_Node000001_Node000004" class="edge">
<title>Node1&#45;&gt;Node4</title>
<g id="a_edge3_Node000001_Node000004"><a xlink:title=" ">
<path fill="none" stroke="#63b8ff" d="M1834.95,-88.58C1642.09,-86.83 1058.11,-77.93 563.8,-32.17"/>
<polygon fill="#63b8ff" stroke="#63b8ff" points="564.29,-28.7 554.01,-31.26 563.64,-35.67 564.29,-28.7"/>
</a>
</g>
</g>
<!-- Node5 -->
<g id="Node000005" class="node">
<title>Node5</title>
<g id="a_Node000005"><a xlink:title=" ">
<polygon fill="#e0e0e0" stroke="#999999" points="758.12,-32 570.38,-32 570.38,0 758.12,0 758.12,-32"/>
<text text-anchor="start" x="578.38" y="-18.5" font-family="Helvetica,sans-Serif" font-size="10.00">com.hust.ittnk68.cnpm.communication.</text>
<text text-anchor="middle" x="664.25" y="-6.5" font-family="Helvetica,sans-Serif" font-size="10.00">AdminFindObject</text>
</a>
</g>
</g>
<!-- Node1&#45;&gt;Node5 -->
<g id="edge4_Node000001_Node000005" class="edge">
<title>Node1&#45;&gt;Node5</title>
<g id="a_edge4_Node000001_Node000005"><a xlink:title=" ">
<path fill="none" stroke="#63b8ff" d="M1834.95,-87.87C1662.56,-84.42 1180.83,-71.8 769.73,-32.18"/>
<polygon fill="#63b8ff" stroke="#63b8ff" points="770.3,-28.72 760.01,-31.24 769.63,-35.69 770.3,-28.72"/>
</a>
</g>
</g>
<!-- Node6 -->
<g id="Node000006" class="node">
<title>Node6</title>
<g id="a_Node000006"><a xlink:title=" ">
<polygon fill="#e0e0e0" stroke="#999999" points="964.12,-32 776.38,-32 776.38,0 964.12,0 964.12,-32"/>
<text text-anchor="start" x="784.38" y="-18.5" font-family="Helvetica,sans-Serif" font-size="10.00">com.hust.ittnk68.cnpm.communication.</text>
<text text-anchor="middle" x="870.25" y="-6.5" font-family="Helvetica,sans-Serif" font-size="10.00">AdminUpdateObject</text>
</a>
</g>
</g>
<!-- Node1&#45;&gt;Node6 -->
<g id="edge5_Node000001_Node000006" class="edge">
<title>Node1&#45;&gt;Node6</title>
<g id="a_edge5_Node000001_Node000006"><a xlink:title=" ">
<path fill="none" stroke="#63b8ff" d="M1834.91,-86.85C1684.94,-81.52 1304.3,-65.69 975.69,-32.2"/>
<polygon fill="#63b8ff" stroke="#63b8ff" points="976.32,-28.74 966.02,-31.2 975.61,-35.71 976.32,-28.74"/>
</a>
</g>
</g>
<!-- Node7 -->
<g id="Node000007" class="node">
<title>Node7</title>
<g id="a_Node000007"><a xlink:title=" ">
<polygon fill="#e0e0e0" stroke="#999999" points="1170.12,-32 982.38,-32 982.38,0 1170.12,0 1170.12,-32"/>
<text text-anchor="start" x="990.38" y="-18.5" font-family="Helvetica,sans-Serif" font-size="10.00">com.hust.ittnk68.cnpm.communication.</text>
<text text-anchor="middle" x="1076.25" y="-6.5" font-family="Helvetica,sans-Serif" font-size="10.00">ClientMessageBase</text>
</a>
</g>
</g>
<!-- Node1&#45;&gt;Node7 -->
<g id="edge6_Node000001_Node000007" class="edge">
<title>Node1&#45;&gt;Node7</title>
<g id="a_edge6_Node000001_Node000007"><a xlink:title=" ">
<path fill="none" stroke="#63b8ff" d="M1834.99,-85.28C1710.24,-77.86 1429.07,-59.62 1181.89,-32.25"/>
<polygon fill="#63b8ff" stroke="#63b8ff" points="1182.35,-28.78 1172.02,-31.15 1181.57,-35.74 1182.35,-28.78"/>
</a>
</g>
</g>
<!-- Node8 -->
<g id="Node000008" class="node">
<title>Node8</title>
<g id="a_Node000008"><a xlink:title=" ">
<polygon fill="#e0e0e0" stroke="#999999" points="1376.12,-32 1188.38,-32 1188.38,0 1376.12,0 1376.12,-32"/>
<text text-anchor="start" x="1196.38" y="-18.5" font-family="Helvetica,sans-Serif" font-size="10.00">com.hust.ittnk68.cnpm.communication.</text>
<text text-anchor="middle" x="1282.25" y="-6.5" font-family="Helvetica,sans-Serif" font-size="10.00">ClientMessageStartSession</text>
</a>
</g>
</g>
<!-- Node1&#45;&gt;Node8 -->
<g id="edge7_Node000001_Node000008" class="edge">
<title>Node1&#45;&gt;Node8</title>
<g id="a_edge7_Node000001_Node000008"><a xlink:title=" ">
<path fill="none" stroke="#63b8ff" d="M1835.13,-82.52C1739.47,-72.83 1555.08,-53.56 1387.78,-32.3"/>
<polygon fill="#63b8ff" stroke="#63b8ff" points="1388.4,-28.85 1378.03,-31.05 1387.51,-35.79 1388.4,-28.85"/>
</a>
</g>
</g>
<!-- Node9 -->
<g id="Node000009" class="node">
<title>Node9</title>
<g id="a_Node000009"><a xlink:title=" ">
<polygon fill="#e0e0e0" stroke="#999999" points="1582.12,-32 1394.38,-32 1394.38,0 1582.12,0 1582.12,-32"/>
<text text-anchor="start" x="1402.38" y="-18.5" font-family="Helvetica,sans-Serif" font-size="10.00">com.hust.ittnk68.cnpm.communication.</text>
<text text-anchor="middle" x="1488.25" y="-6.5" font-family="Helvetica,sans-Serif" font-size="10.00">PaymentRequest</text>
</a>
</g>
</g>
<!-- Node1&#45;&gt;Node9 -->
<g id="edge8_Node000001_Node000009" class="edge">
<title>Node1&#45;&gt;Node9</title>
<g id="a_edge8_Node000001_Node000009"><a xlink:title=" ">
<path fill="none" stroke="#63b8ff" d="M1834.97,-77.59C1768.47,-65.97 1664.49,-47.8 1587.73,-34.38"/>
<polygon fill="#63b8ff" stroke="#63b8ff" points="1588.55,-30.98 1578.1,-32.7 1587.35,-37.87 1588.55,-30.98"/>
</a>
</g>
</g>
<!-- Node10 -->
<g id="Node000010" class="node">
<title>Node10</title>
<g id="a_Node000010"><a xlink:title=" ">
<polygon fill="#e0e0e0" stroke="#999999" points="1788.12,-32 1600.38,-32 1600.38,0 1788.12,0 1788.12,-32"/>
<text text-anchor="start" x="1608.38" y="-18.5" font-family="Helvetica,sans-Serif" font-size="10.00">com.hust.ittnk68.cnpm.communication.</text>
<text text-anchor="middle" x="1694.25" y="-6.5" font-family="Helvetica,sans-Serif" font-size="10.00">UserGetPaymentQrCode</text>
</a>
</g>
</g>
<!-- Node1&#45;&gt;Node10 -->
<g id="edge9_Node000001_Node000010" class="edge">
<title>Node1&#45;&gt;Node10</title>
<g id="a_edge9_Node000001_Node000010"><a xlink:title=" ">
<path fill="none" stroke="#63b8ff" d="M1839,-67.59C1810.52,-57.64 1776.92,-45.89 1749.26,-36.23"/>
<polygon fill="#63b8ff" stroke="#63b8ff" points="1750.61,-32.99 1740.01,-32.99 1748.3,-39.6 1750.61,-32.99"/>
</a>
</g>
</g>
<!-- Node11 -->
<g id="Node000011" class="node">
<title>Node11</title>
<g id="a_Node000011"><a xlink:title=" ">
<polygon fill="#e0e0e0" stroke="#999999" points="1994.12,-32 1806.38,-32 1806.38,0 1994.12,0 1994.12,-32"/>
<text text-anchor="start" x="1814.38" y="-18.5" font-family="Helvetica,sans-Serif" font-size="10.00">com.hust.ittnk68.cnpm.communication.</text>
<text text-anchor="middle" x="1900.25" y="-6.5" font-family="Helvetica,sans-Serif" font-size="10.00">UserQueryObjectById</text>
</a>
</g>
</g>
<!-- Node1&#45;&gt;Node11 -->
<g id="edge10_Node000001_Node000011" class="edge">
<title>Node1&#45;&gt;Node11</title>
<g id="a_edge10_Node000001_Node000011"><a xlink:title=" ">
<path fill="none" stroke="#63b8ff" d="M1900.25,-67.79C1900.25,-60.18 1900.25,-51.52 1900.25,-43.52"/>
<polygon fill="#63b8ff" stroke="#63b8ff" points="1903.75,-43.64 1900.25,-33.64 1896.75,-43.64 1903.75,-43.64"/>
</a>
</g>
</g>
<!-- Node12 -->
<g id="Node000012" class="node">
<title>Node12</title>
<g id="a_Node000012"><a xlink:title=" ">
<polygon fill="#e0e0e0" stroke="#999999" points="2200.12,-32 2012.38,-32 2012.38,0 2200.12,0 2200.12,-32"/>
<text text-anchor="start" x="2020.38" y="-18.5" font-family="Helvetica,sans-Serif" font-size="10.00">com.hust.ittnk68.cnpm.communication.</text>
<text text-anchor="middle" x="2106.25" y="-6.5" font-family="Helvetica,sans-Serif" font-size="10.00">UserQueryPaymentStatus</text>
</a>
</g>
</g>
<!-- Node1&#45;&gt;Node12 -->
<g id="edge11_Node000001_Node000012" class="edge">
<title>Node1&#45;&gt;Node12</title>
<g id="a_edge11_Node000001_Node000012"><a xlink:title=" ">
<path fill="none" stroke="#63b8ff" d="M1961.5,-67.59C1989.98,-57.64 2023.58,-45.89 2051.24,-36.23"/>
<polygon fill="#63b8ff" stroke="#63b8ff" points="2052.2,-39.6 2060.49,-32.99 2049.89,-32.99 2052.2,-39.6"/>
</a>
</g>
</g>
<!-- Node13 -->
<g id="Node000013" class="node">
<title>Node13</title>
<g id="a_Node000013"><a xlink:title=" ">
<polygon fill="#e0e0e0" stroke="#999999" points="2406.12,-32 2218.38,-32 2218.38,0 2406.12,0 2406.12,-32"/>
<text text-anchor="start" x="2226.38" y="-18.5" font-family="Helvetica,sans-Serif" font-size="10.00">com.hust.ittnk68.cnpm.communication.</text>
<text text-anchor="middle" x="2312.25" y="-6.5" font-family="Helvetica,sans-Serif" font-size="10.00">UserQueryPersonByFId</text>
</a>
</g>
</g>
<!-- Node1&#45;&gt;Node13 -->
<g id="edge12_Node000001_Node000013" class="edge">
<title>Node1&#45;&gt;Node13</title>
<g id="a_edge12_Node000001_Node000013"><a xlink:title=" ">
<path fill="none" stroke="#63b8ff" d="M1965.53,-77.59C2032.03,-65.97 2136.01,-47.8 2212.77,-34.38"/>
<polygon fill="#63b8ff" stroke="#63b8ff" points="2213.15,-37.87 2222.4,-32.7 2211.95,-30.98 2213.15,-37.87"/>
</a>
</g>
</g>
<!-- Node14 -->
<g id="Node000014" class="node">
<title>Node14</title>
<g id="a_Node000014"><a xlink:title=" ">
<polygon fill="#e0e0e0" stroke="#999999" points="2572.25,-32 2424.25,-32 2424.25,0 2572.25,0 2572.25,-32"/>
<text text-anchor="start" x="2432.25" y="-18.5" font-family="Helvetica,sans-Serif" font-size="10.00">com.hust.ittnk68.cnpm.model.</text>
<text text-anchor="middle" x="2498.25" y="-6.5" font-family="Helvetica,sans-Serif" font-size="10.00">Account</text>
</a>
</g>
</g>
<!-- Node1&#45;&gt;Node14 -->
<g id="edge13_Node000001_Node000014" class="edge">
<title>Node1&#45;&gt;Node14</title>
<g id="a_edge13_Node000001_Node000014"><a xlink:title=" ">
<path fill="none" stroke="#63b8ff" d="M1965.47,-83.23C2061.25,-74.43 2245.79,-56.27 2412.85,-32.29"/>
<polygon fill="#63b8ff" stroke="#63b8ff" points="2413.19,-35.78 2422.58,-30.88 2412.18,-28.85 2413.19,-35.78"/>
</a>
</g>
</g>
<!-- Node15 -->
<g id="Node000015" class="node">
<title>Node15</title>
<g id="a_Node000015"><a xlink:title=" ">
<polygon fill="#e0e0e0" stroke="#999999" points="2738.25,-32 2590.25,-32 2590.25,0 2738.25,0 2738.25,-32"/>
<text text-anchor="start" x="2598.25" y="-18.5" font-family="Helvetica,sans-Serif" font-size="10.00">com.hust.ittnk68.cnpm.model.</text>
<text text-anchor="middle" x="2664.25" y="-6.5" font-family="Helvetica,sans-Serif" font-size="10.00">Expense</text>
</a>
</g>
</g>
<!-- Node1&#45;&gt;Node15 -->
<g id="edge14_Node000001_Node000015" class="edge">
<title>Node1&#45;&gt;Node15</title>
<g id="a_edge14_Node000001_Node000015"><a xlink:title=" ">
<path fill="none" stroke="#63b8ff" d="M1965.74,-85.6C2085.42,-78.93 2347.67,-62.22 2578.76,-32.25"/>
<polygon fill="#63b8ff" stroke="#63b8ff" points="2579.13,-35.73 2588.59,-30.96 2578.22,-28.79 2579.13,-35.73"/>
</a>
</g>
</g>
<!-- Node16 -->
<g id="Node000016" class="node">
<title>Node16</title>
<g id="a_Node000016"><a xlink:title=" ">
<polygon fill="#e0e0e0" stroke="#999999" points="2904.25,-32 2756.25,-32 2756.25,0 2904.25,0 2904.25,-32"/>
<text text-anchor="start" x="2764.25" y="-18.5" font-family="Helvetica,sans-Serif" font-size="10.00">com.hust.ittnk68.cnpm.model.</text>
<text text-anchor="middle" x="2830.25" y="-6.5" font-family="Helvetica,sans-Serif" font-size="10.00">PaymentStatus</text>
</a>
</g>
</g>
<!-- Node1&#45;&gt;Node16 -->
<g id="edge15_Node000001_Node000016" class="edge">
<title>Node1&#45;&gt;Node16</title>
<g id="a_edge15_Node000001_Node000016"><a xlink:title=" ">
<path fill="none" stroke="#63b8ff" d="M1965.57,-87.09C2106.21,-82.43 2448.26,-68.24 2744.69,-32.22"/>
<polygon fill="#63b8ff" stroke="#63b8ff" points="2745.1,-35.7 2754.6,-31.01 2744.25,-28.75 2745.1,-35.7"/>
</a>
</g>
</g>
<!-- Node17 -->
<g id="Node000017" class="node">
<title>Node17</title>
<g id="a_Node000017"><a xlink:title=" ">
<polygon fill="#e0e0e0" stroke="#999999" points="3075.88,-32 2922.62,-32 2922.62,0 3075.88,0 3075.88,-32"/>
<text text-anchor="start" x="2930.62" y="-18.5" font-family="Helvetica,sans-Serif" font-size="10.00">com.hust.ittnk68.cnpm.service.</text>
<text text-anchor="middle" x="2999.25" y="-6.5" font-family="Helvetica,sans-Serif" font-size="10.00">AuthController</text>
</a>
</g>
</g>
<!-- Node1&#45;&gt;Node17 -->
<g id="edge16_Node000001_Node000017" class="edge">
<title>Node1&#45;&gt;Node17</title>
<g id="a_edge16_Node000001_Node000017"><a xlink:title=" ">
<path fill="none" stroke="#63b8ff" d="M1965.66,-87.96C2125.42,-84.84 2548.35,-73.18 2911.16,-32.14"/>
<polygon fill="#63b8ff" stroke="#63b8ff" points="2911.38,-35.64 2920.92,-31.03 2910.58,-28.69 2911.38,-35.64"/>
</a>
</g>
</g>
<!-- Node18 -->
<g id="Node000018" class="node">
<title>Node18</title>
<g id="a_Node000018"><a xlink:title=" ">
<polygon fill="#e0e0e0" stroke="#999999" points="3234.5,-32 3094,-32 3094,0 3234.5,0 3234.5,-32"/>
<text text-anchor="start" x="3102" y="-18.5" font-family="Helvetica,sans-Serif" font-size="10.00">com.hust.ittnk68.cnpm.type.</text>
<text text-anchor="middle" x="3164.25" y="-6.5" font-family="Helvetica,sans-Serif" font-size="10.00">AccountType</text>
</a>
</g>
</g>
<!-- Node1&#45;&gt;Node18 -->
<g id="edge17_Node000001_Node000018" class="edge">
<title>Node1&#45;&gt;Node18</title>
<g id="a_edge17_Node000001_Node000018"><a xlink:title=" ">
<path fill="none" stroke="#63b8ff" d="M1965.71,-89.05C2143.75,-88.5 2651.8,-82.39 3082.57,-32.21"/>
<polygon fill="#63b8ff" stroke="#63b8ff" points="3082.66,-35.72 3092.19,-31.08 3081.85,-28.77 3082.66,-35.72"/>
</a>
</g>
</g>
<!-- Node19 -->
<g id="Node000019" class="node">
<title>Node19</title>
<g id="a_Node000019"><a xlink:title=" ">
<polygon fill="#e0e0e0" stroke="#999999" points="3468.38,-32 3252.12,-32 3252.12,0 3468.38,0 3468.38,-32"/>
<text text-anchor="start" x="3260.12" y="-18.5" font-family="Helvetica,sans-Serif" font-size="10.00">org.springframework.beans.factory.annotation.</text>
<text text-anchor="middle" x="3360.25" y="-6.5" font-family="Helvetica,sans-Serif" font-size="10.00">Autowired</text>
</a>
</g>
</g>
<!-- Node1&#45;&gt;Node19 -->
<g id="edge18_Node000001_Node000019" class="edge">
<title>Node1&#45;&gt;Node19</title>
<g id="a_edge18_Node000001_Node000019"><a xlink:title=" ">
<path fill="none" stroke="#63b8ff" d="M1965.71,-88.19C2159.05,-85.39 2744.54,-73.89 3240.59,-32.18"/>
<polygon fill="#63b8ff" stroke="#63b8ff" points="3240.74,-35.68 3250.41,-31.35 3240.15,-28.7 3240.74,-35.68"/>
</a>
</g>
</g>
<!-- Node20 -->
<g id="Node000020" class="node">
<title>Node20</title>
<g id="a_Node000020"><a xlink:title=" ">
<polygon fill="#e0e0e0" stroke="#999999" points="3642.38,-32 3486.12,-32 3486.12,0 3642.38,0 3642.38,-32"/>
<text text-anchor="start" x="3494.12" y="-18.5" font-family="Helvetica,sans-Serif" font-size="10.00">org.springframework.stereotype.</text>
<text text-anchor="middle" x="3564.25" y="-6.5" font-family="Helvetica,sans-Serif" font-size="10.00">Component</text>
</a>
</g>
</g>
<!-- Node1&#45;&gt;Node20 -->
<g id="edge19_Node000001_Node000020" class="edge">
<title>Node1&#45;&gt;Node20</title>
<g id="a_edge19_Node000001_Node000020"><a xlink:title=" ">
<path fill="none" stroke="#63b8ff" d="M1965.48,-87.81C2220.94,-82.99 3154.58,-63.65 3474.93,-32.12"/>
<polygon fill="#63b8ff" stroke="#63b8ff" points="3474.96,-35.63 3484.56,-31.14 3474.26,-28.67 3474.96,-35.63"/>
</a>
</g>
</g>
</g>
</svg>
