<?xml version="1.0" encoding="UTF-8" standalone="no"?>
<!DOCTYPE svg PUBLIC "-//W3C//DTD SVG 1.1//EN"
 "http://www.w3.org/Graphics/SVG/1.1/DTD/svg11.dtd">
<!-- Generated by graphviz version 12.2.1 (20241206.2353)
 -->
<!-- Title: src/main/java/com/hust/ittnk68/cnpm/service/BankingTokenRepository.java Pages: 1 -->
<svg width="359pt" height="120pt"
 viewBox="0.00 0.00 358.62 120.00" xmlns="http://www.w3.org/2000/svg" xmlns:xlink="http://www.w3.org/1999/xlink">
<g id="graph0" class="graph" transform="scale(1 1) rotate(0) translate(4 116)">
<title>src/main/java/com/hust/ittnk68/cnpm/service/BankingTokenRepository.java</title>
<!-- Node1 -->
<g id="Node000001" class="node">
<title>Node1</title>
<g id="a_Node000001"><a xlink:title=" ">
<polygon fill="#999999" stroke="#666666" points="216.12,-112 68.88,-112 68.88,-68 216.12,-68 216.12,-112"/>
<text text-anchor="start" x="76.88" y="-98.5" font-family="Helvetica,sans-Serif" font-size="10.00">src/main/java/com/hust</text>
<text text-anchor="start" x="76.88" y="-86.5" font-family="Helvetica,sans-Serif" font-size="10.00">/ittnk68/cnpm/service</text>
<text text-anchor="middle" x="142.5" y="-74.5" font-family="Helvetica,sans-Serif" font-size="10.00">/BankingTokenRepository.java</text>
</a>
</g>
</g>
<!-- Node2 -->
<g id="Node000002" class="node">
<title>Node2</title>
<g id="a_Node000002"><a xlink:title=" ">
<polygon fill="#e0e0e0" stroke="#999999" points="91,-26 0,-26 0,-6 91,-6 91,-26"/>
<text text-anchor="middle" x="45.5" y="-12.5" font-family="Helvetica,sans-Serif" font-size="10.00">java.util.HashSet</text>
</a>
</g>
</g>
<!-- Node1&#45;&gt;Node2 -->
<g id="edge1_Node000001_Node000002" class="edge">
<title>Node1&#45;&gt;Node2</title>
<g id="a_edge1_Node000001_Node000002"><a xlink:title=" ">
<path fill="none" stroke="#63b8ff" d="M113.66,-67.59C98.83,-56.59 81.05,-43.39 67.37,-33.23"/>
<polygon fill="#63b8ff" stroke="#63b8ff" points="69.56,-30.5 59.44,-27.35 65.39,-36.12 69.56,-30.5"/>
</a>
</g>
</g>
<!-- Node3 -->
<g id="Node000003" class="node">
<title>Node3</title>
<g id="a_Node000003"><a xlink:title=" ">
<polygon fill="#e0e0e0" stroke="#999999" points="176.38,-26 108.62,-26 108.62,-6 176.38,-6 176.38,-26"/>
<text text-anchor="middle" x="142.5" y="-12.5" font-family="Helvetica,sans-Serif" font-size="10.00">java.util.Set</text>
</a>
</g>
</g>
<!-- Node1&#45;&gt;Node3 -->
<g id="edge2_Node000001_Node000003" class="edge">
<title>Node1&#45;&gt;Node3</title>
<g id="a_edge2_Node000001_Node000003"><a xlink:title=" ">
<path fill="none" stroke="#63b8ff" d="M142.5,-67.79C142.5,-58.32 142.5,-47.2 142.5,-37.78"/>
<polygon fill="#63b8ff" stroke="#63b8ff" points="146,-37.82 142.5,-27.82 139,-37.82 146,-37.82"/>
</a>
</g>
</g>
<!-- Node4 -->
<g id="Node000004" class="node">
<title>Node4</title>
<g id="a_Node000004"><a xlink:title=" ">
<polygon fill="#e0e0e0" stroke="#999999" points="350.62,-32 194.38,-32 194.38,0 350.62,0 350.62,-32"/>
<text text-anchor="start" x="202.38" y="-18.5" font-family="Helvetica,sans-Serif" font-size="10.00">org.springframework.stereotype.</text>
<text text-anchor="middle" x="272.5" y="-6.5" font-family="Helvetica,sans-Serif" font-size="10.00">Service</text>
</a>
</g>
</g>
<!-- Node1&#45;&gt;Node4 -->
<g id="edge3_Node000001_Node000004" class="edge">
<title>Node1&#45;&gt;Node4</title>
<g id="a_edge3_Node000001_Node000004"><a xlink:title=" ">
<path fill="none" stroke="#63b8ff" d="M181.15,-67.59C198.01,-58.26 217.72,-47.34 234.5,-38.05"/>
<polygon fill="#63b8ff" stroke="#63b8ff" points="236.15,-41.14 243.2,-33.23 232.75,-35.01 236.15,-41.14"/>
</a>
</g>
</g>
</g>
</svg>
