<?xml version="1.0" encoding="UTF-8" standalone="no"?>
<!DOCTYPE svg PUBLIC "-//W3C//DTD SVG 1.1//EN"
 "http://www.w3.org/Graphics/SVG/1.1/DTD/svg11.dtd">
<!-- Generated by graphviz version 12.2.1 (20241206.2353)
 -->
<!-- Title: com.hust.ittnk68.cnpm.view.DuongFXGridPane Pages: 1 -->
<svg width="443pt" height="276pt"
 viewBox="0.00 0.00 442.50 276.00" xmlns="http://www.w3.org/2000/svg" xmlns:xlink="http://www.w3.org/1999/xlink">
<g id="graph0" class="graph" transform="scale(1 1) rotate(0) translate(4 272)">
<title>com.hust.ittnk68.cnpm.view.DuongFXGridPane</title>
<!-- Node1 -->
<g id="Node000001" class="node">
<title>Node1</title>
<g id="a_Node000001"><a xlink:title=" ">
<polygon fill="#999999" stroke="none" points="283.5,-180 151,-180 151,-116 283.5,-116 283.5,-180"/>
<text text-anchor="start" x="155" y="-166.5" font-family="Helvetica,sans-Serif" font-size="10.00">com.hust.ittnk68.cnpm.view.</text>
<text text-anchor="start" x="176.38" y="-154.5" font-family="Helvetica,sans-Serif" font-size="10.00">DuongFXGridPane</text>
<text text-anchor="start" x="215.75" y="-138.5" font-family="Helvetica,sans-Serif" font-size="10.00"> </text>
<text text-anchor="start" x="161.69" y="-122.5" font-family="Helvetica,sans-Serif" font-size="10.00">+</text>
<text text-anchor="start" x="178.38" y="-122.5" font-family="Helvetica,sans-Serif" font-size="10.00">DuongFXGridPane()</text>
<polygon fill="#666666" stroke="#666666" points="151,-150 151,-150 283.5,-150 283.5,-150 151,-150"/>
<polygon fill="#666666" stroke="#666666" points="151,-134 151,-134 283.5,-134 283.5,-134 151,-134"/>
<polygon fill="none" stroke="#666666" points="151,-116 151,-180 283.5,-180 283.5,-116 151,-116"/>
</a>
</g>
</g>
<!-- Node3 -->
<g id="Node000003" class="node">
<title>Node3</title>
<g id="a_Node000003"><a xlink:href="classcom_1_1hust_1_1ittnk68_1_1cnpm_1_1view_1_1AdminHomeView.html" target="_top" xlink:title=" ">
<polygon fill="white" stroke="none" points="132.5,-72 0,-72 0,-8 132.5,-8 132.5,-72"/>
<text text-anchor="start" x="4" y="-58.5" font-family="Helvetica,sans-Serif" font-size="10.00">com.hust.ittnk68.cnpm.view.</text>
<text text-anchor="start" x="28.38" y="-46.5" font-family="Helvetica,sans-Serif" font-size="10.00">AdminHomeView</text>
<text text-anchor="start" x="64.75" y="-30.5" font-family="Helvetica,sans-Serif" font-size="10.00"> </text>
<text text-anchor="start" x="12.19" y="-14.5" font-family="Helvetica,sans-Serif" font-size="10.00">+</text>
<text text-anchor="start" x="30.38" y="-14.5" font-family="Helvetica,sans-Serif" font-size="10.00">AdminHomeView()</text>
<polygon fill="#666666" stroke="#666666" points="0,-42 0,-42 132.5,-42 132.5,-42 0,-42"/>
<polygon fill="#666666" stroke="#666666" points="0,-26 0,-26 132.5,-26 132.5,-26 0,-26"/>
<polygon fill="none" stroke="#666666" points="0,-8 0,-72 132.5,-72 132.5,-8 0,-8"/>
</a>
</g>
</g>
<!-- Node1&#45;&gt;Node3 -->
<g id="edge2_Node000001_Node000003" class="edge">
<title>Node1&#45;&gt;Node3</title>
<g id="a_edge2_Node000001_Node000003"><a xlink:title=" ">
<path fill="none" stroke="#63b8ff" d="M164.16,-109.73C146.58,-97.39 127.22,-83.8 110.39,-71.98"/>
<polygon fill="none" stroke="#63b8ff" points="161.73,-112.3 171.93,-115.19 165.76,-106.58 161.73,-112.3"/>
</a>
</g>
</g>
<!-- Node4 -->
<g id="Node000004" class="node">
<title>Node4</title>
<g id="a_Node000004"><a xlink:href="classcom_1_1hust_1_1ittnk68_1_1cnpm_1_1view_1_1ClientHomePage.html" target="_top" xlink:title=" ">
<polygon fill="white" stroke="none" points="283.5,-80 151,-80 151,0 283.5,0 283.5,-80"/>
<text text-anchor="start" x="155" y="-66.5" font-family="Helvetica,sans-Serif" font-size="10.00">com.hust.ittnk68.cnpm.view.</text>
<text text-anchor="start" x="180.12" y="-54.5" font-family="Helvetica,sans-Serif" font-size="10.00">ClientHomePage</text>
<text text-anchor="start" x="215.75" y="-38.5" font-family="Helvetica,sans-Serif" font-size="10.00"> </text>
<text text-anchor="start" x="163.56" y="-22.5" font-family="Helvetica,sans-Serif" font-size="10.00">+</text>
<text text-anchor="start" x="182.12" y="-22.5" font-family="Helvetica,sans-Serif" font-size="10.00">ClientHomePage()</text>
<text text-anchor="start" x="163.56" y="-6.5" font-family="Helvetica,sans-Serif" font-size="10.00">~</text>
<text text-anchor="start" x="182.12" y="-6.5" font-family="Helvetica,sans-Serif" font-size="10.00">createHbox()</text>
<polygon fill="#666666" stroke="#666666" points="151,-50 151,-50 283.5,-50 283.5,-50 151,-50"/>
<polygon fill="#666666" stroke="#666666" points="151,-34 151,-34 283.5,-34 283.5,-34 151,-34"/>
<polygon fill="none" stroke="#666666" points="151,0 151,-80 283.5,-80 283.5,0 151,0"/>
</a>
</g>
</g>
<!-- Node1&#45;&gt;Node4 -->
<g id="edge3_Node000001_Node000004" class="edge">
<title>Node1&#45;&gt;Node4</title>
<g id="a_edge3_Node000001_Node000004"><a xlink:title=" ">
<path fill="none" stroke="#63b8ff" d="M217.25,-104.71C217.25,-96.46 217.25,-87.84 217.25,-79.71"/>
<polygon fill="none" stroke="#63b8ff" points="213.75,-104.54 217.25,-114.54 220.75,-104.54 213.75,-104.54"/>
</a>
</g>
</g>
<!-- Node5 -->
<g id="Node000005" class="node">
<title>Node5</title>
<g id="a_Node000005"><a xlink:href="classcom_1_1hust_1_1ittnk68_1_1cnpm_1_1view_1_1ClientHomeScreenView.html" target="_top" xlink:title=" ">
<polygon fill="white" stroke="none" points="434.5,-72 302,-72 302,-8 434.5,-8 434.5,-72"/>
<text text-anchor="start" x="306" y="-58.5" font-family="Helvetica,sans-Serif" font-size="10.00">com.hust.ittnk68.cnpm.view.</text>
<text text-anchor="start" x="316.12" y="-46.5" font-family="Helvetica,sans-Serif" font-size="10.00">ClientHomeScreenView</text>
<text text-anchor="start" x="366.75" y="-30.5" font-family="Helvetica,sans-Serif" font-size="10.00"> </text>
<text text-anchor="start" x="307.06" y="-14.5" font-family="Helvetica,sans-Serif" font-size="10.00">+</text>
<text text-anchor="start" x="318.12" y="-14.5" font-family="Helvetica,sans-Serif" font-size="10.00">ClientHomeScreenView()</text>
<polygon fill="#666666" stroke="#666666" points="302,-42 302,-42 434.5,-42 434.5,-42 302,-42"/>
<polygon fill="#666666" stroke="#666666" points="302,-26 302,-26 434.5,-26 434.5,-26 302,-26"/>
<polygon fill="none" stroke="#666666" points="302,-8 302,-72 434.5,-72 434.5,-8 302,-8"/>
</a>
</g>
</g>
<!-- Node1&#45;&gt;Node5 -->
<g id="edge4_Node000001_Node000005" class="edge">
<title>Node1&#45;&gt;Node5</title>
<g id="a_edge4_Node000001_Node000005"><a xlink:title=" ">
<path fill="none" stroke="#63b8ff" d="M270.34,-109.73C287.92,-97.39 307.28,-83.8 324.11,-71.98"/>
<polygon fill="none" stroke="#63b8ff" points="268.74,-106.58 262.57,-115.19 272.77,-112.3 268.74,-106.58"/>
</a>
</g>
</g>
<!-- Node2 -->
<g id="Node000002" class="node">
<title>Node2</title>
<g id="a_Node000002"><a xlink:href="classGridPane.html" target="_top" xlink:title=" ">
<polygon fill="white" stroke="none" points="241.5,-268 193,-268 193,-216 241.5,-216 241.5,-268"/>
<text text-anchor="start" x="197" y="-254.5" font-family="Helvetica,sans-Serif" font-size="10.00">GridPane</text>
<text text-anchor="start" x="215.75" y="-238.5" font-family="Helvetica,sans-Serif" font-size="10.00"> </text>
<text text-anchor="start" x="215.75" y="-222.5" font-family="Helvetica,sans-Serif" font-size="10.00"> </text>
<polygon fill="#666666" stroke="#666666" points="193,-250 193,-250 241.5,-250 241.5,-250 193,-250"/>
<polygon fill="#666666" stroke="#666666" points="193,-234 193,-234 241.5,-234 241.5,-234 193,-234"/>
<polygon fill="none" stroke="#666666" points="193,-216 193,-268 241.5,-268 241.5,-216 193,-216"/>
</a>
</g>
</g>
<!-- Node2&#45;&gt;Node1 -->
<g id="edge1_Node000001_Node000002" class="edge">
<title>Node2&#45;&gt;Node1</title>
<g id="a_edge1_Node000001_Node000002"><a xlink:title=" ">
<path fill="none" stroke="#63b8ff" d="M217.25,-205.06C217.25,-196.78 217.25,-188.04 217.25,-179.98"/>
<polygon fill="none" stroke="#63b8ff" points="213.75,-204.83 217.25,-214.83 220.75,-204.83 213.75,-204.83"/>
</a>
</g>
</g>
</g>
</svg>
