<?xml version="1.0" encoding="UTF-8" standalone="no"?>
<!DOCTYPE svg PUBLIC "-//W3C//DTD SVG 1.1//EN"
 "http://www.w3.org/Graphics/SVG/1.1/DTD/svg11.dtd">
<!-- Generated by graphviz version 12.2.1 (20241206.2353)
 -->
<!-- Title: com.hust.ittnk68.cnpm.view.ClientExpensePage Pages: 1 -->
<svg width="233pt" height="285pt"
 viewBox="0.00 0.00 233.03 285.00" xmlns="http://www.w3.org/2000/svg" xmlns:xlink="http://www.w3.org/1999/xlink">

<svg id="main" version="1.1" xmlns="http://www.w3.org/2000/svg" xmlns:xlink="http://www.w3.org/1999/xlink" xml:space="preserve">

<style type="text/css"><![CDATA[
.node, .edge {opacity: 0.7;}
.node.selected, .edge.selected {opacity: 1;}
.edge:hover path { stroke: red; }
.edge:hover polygon { stroke: red; fill: red; }
]]></style>
<script type="application/ecmascript" xlink:href="svg.min.js"/>
<svg id="graph" class="graph">
<g id="graph0" class="graph" transform="scale(1 1) rotate(0) translate(4 281)">
<title>com.hust.ittnk68.cnpm.view.ClientExpensePage</title>
<!-- Node1 -->
<g id="Node000001" class="node">
<title>Node1</title>
<g id="a_Node000001"><a xlink:title=" ">
<polygon fill="#999999" stroke="none" points="190.5,-64 58,-64 58,0 190.5,0 190.5,-64"/>
<text text-anchor="start" x="62" y="-50.5" font-family="Helvetica,sans-Serif" font-size="10.00">com.hust.ittnk68.cnpm.view.</text>
<text text-anchor="start" x="81.12" y="-38.5" font-family="Helvetica,sans-Serif" font-size="10.00">ClientExpensePage</text>
<text text-anchor="start" x="122.75" y="-22.5" font-family="Helvetica,sans-Serif" font-size="10.00"> </text>
<text text-anchor="start" x="67.56" y="-6.5" font-family="Helvetica,sans-Serif" font-size="10.00">+</text>
<text text-anchor="start" x="83.12" y="-6.5" font-family="Helvetica,sans-Serif" font-size="10.00">ClientExpensePage()</text>
<polygon fill="#666666" stroke="#666666" points="58,-34 58,-34 190.5,-34 190.5,-34 58,-34"/>
<polygon fill="#666666" stroke="#666666" points="58,-18 58,-18 190.5,-18 190.5,-18 58,-18"/>
<polygon fill="none" stroke="#666666" points="58,0 58,-64 190.5,-64 190.5,0 58,0"/>
</a>
</g>
</g>
<!-- Node2 -->
<g id="Node000002" class="node">
<title>Node2</title>
<g id="a_Node000002"><a xlink:href="classcom_1_1hust_1_1ittnk68_1_1cnpm_1_1view_1_1DuongFXTabPane.html" target="_top" xlink:title=" ">
<polygon fill="white" stroke="none" points="132.5,-188 0,-188 0,-124 132.5,-124 132.5,-188"/>
<text text-anchor="start" x="4" y="-174.5" font-family="Helvetica,sans-Serif" font-size="10.00">com.hust.ittnk68.cnpm.view.</text>
<text text-anchor="start" x="26.5" y="-162.5" font-family="Helvetica,sans-Serif" font-size="10.00">DuongFXTabPane</text>
<text text-anchor="start" x="64.75" y="-146.5" font-family="Helvetica,sans-Serif" font-size="10.00"> </text>
<text text-anchor="start" x="11.25" y="-130.5" font-family="Helvetica,sans-Serif" font-size="10.00">+</text>
<text text-anchor="start" x="28.5" y="-130.5" font-family="Helvetica,sans-Serif" font-size="10.00">DuongFXTabPane()</text>
<polygon fill="#666666" stroke="#666666" points="0,-158 0,-158 132.5,-158 132.5,-158 0,-158"/>
<polygon fill="#666666" stroke="#666666" points="0,-142 0,-142 132.5,-142 132.5,-142 0,-142"/>
<polygon fill="none" stroke="#666666" points="0,-124 0,-188 132.5,-188 132.5,-124 0,-124"/>
</a>
</g>
</g>
<!-- Node2&#45;&gt;Node1 -->
<g id="edge1_Node000001_Node000002" class="edge">
<title>Node2&#45;&gt;Node1</title>
<g id="a_edge1_Node000001_Node000002"><a xlink:title=" ">
<path fill="none" stroke="#63b8ff" d="M85.83,-113.82C93.61,-97.45 102.41,-78.95 109.62,-63.78"/>
<polygon fill="none" stroke="#63b8ff" points="82.67,-112.31 81.54,-122.85 88.99,-115.32 82.67,-112.31"/>
</a>
</g>
</g>
<!-- Node3 -->
<g id="Node000003" class="node">
<title>Node3</title>
<g id="a_Node000003"><a xlink:href="classTabPane.html" target="_top" xlink:title=" ">
<polygon fill="white" stroke="none" points="89.38,-277 43.12,-277 43.12,-225 89.38,-225 89.38,-277"/>
<text text-anchor="start" x="47.12" y="-263.5" font-family="Helvetica,sans-Serif" font-size="10.00">TabPane</text>
<text text-anchor="start" x="64.75" y="-247.5" font-family="Helvetica,sans-Serif" font-size="10.00"> </text>
<text text-anchor="start" x="64.75" y="-231.5" font-family="Helvetica,sans-Serif" font-size="10.00"> </text>
<polygon fill="#666666" stroke="#666666" points="43.12,-259 43.12,-259 89.38,-259 89.38,-259 43.12,-259"/>
<polygon fill="#666666" stroke="#666666" points="43.12,-243 43.12,-243 89.38,-243 89.38,-243 43.12,-243"/>
<polygon fill="none" stroke="#666666" points="43.12,-225 43.12,-277 89.38,-277 89.38,-225 43.12,-225"/>
</a>
</g>
</g>
<!-- Node3&#45;&gt;Node2 -->
<g id="edge2_Node000002_Node000003" class="edge">
<title>Node3&#45;&gt;Node2</title>
<g id="a_edge2_Node000002_Node000003"><a xlink:title=" ">
<path fill="none" stroke="#63b8ff" d="M66.25,-213.85C66.25,-205.3 66.25,-196.27 66.25,-187.98"/>
<polygon fill="none" stroke="#63b8ff" points="62.75,-213.56 66.25,-223.56 69.75,-213.56 62.75,-213.56"/>
</a>
</g>
</g>
<!-- Node4 -->
<g id="Node000004" class="node">
<title>Node4</title>
<g id="a_Node000004"><a xlink:title=" ">
<polygon fill="white" stroke="none" points="215.75,-182 150.75,-182 150.75,-130 215.75,-130 215.75,-182"/>
<text text-anchor="start" x="154.75" y="-168.5" font-family="Helvetica,sans-Serif" font-size="10.00">List&lt; Node &gt;</text>
<text text-anchor="start" x="181.75" y="-152.5" font-family="Helvetica,sans-Serif" font-size="10.00"> </text>
<text text-anchor="start" x="181.75" y="-136.5" font-family="Helvetica,sans-Serif" font-size="10.00"> </text>
<polygon fill="#666666" stroke="#666666" points="150.75,-164 150.75,-164 215.75,-164 215.75,-164 150.75,-164"/>
<polygon fill="#666666" stroke="#666666" points="150.75,-148 150.75,-148 215.75,-148 215.75,-148 150.75,-148"/>
<polygon fill="none" stroke="#666666" points="150.75,-130 150.75,-182 215.75,-182 215.75,-130 150.75,-130"/>
</a>
</g>
</g>
<!-- Node4&#45;&gt;Node1 -->
<g id="edge3_Node000001_Node000004" class="edge">
<title>Node4&#45;&gt;Node1</title>
<g id="a_edge3_Node000001_Node000004"><a xlink:title=" ">
<path fill="none" stroke="#63b8ff" d="M171.17,-130.02C163.54,-114.23 153.48,-93.44 144.63,-75.15"/>
<polygon fill="none" stroke="#63b8ff" points="144.65,-75.19 138.44,-71.53 139.43,-64.38 145.64,-68.04 144.65,-75.19"/>
</a>
</g>
<text text-anchor="middle" x="192.03" y="-96.5" font-family="Helvetica,sans-Serif" font-size="10.00" fill="grey"> ~notPayedTile</text>
<text text-anchor="middle" x="192.03" y="-84.5" font-family="Helvetica,sans-Serif" font-size="10.00" fill="grey">~payedTile</text>
</g>
</g>
</svg>
</svg>

<style type='text/css'>
<![CDATA[
[data-mouse-over-selected='false'] { opacity: 0.7; }
[data-mouse-over-selected='true']  { opacity: 1.0; }
]]>
</style>
<script type="application/ecmascript"><![CDATA[
document.addEventListener('DOMContentLoaded', (event) => {
  highlightEdges();
  highlightAdjacentNodes();
});
]]></script>
</svg>
