<?xml version="1.0" encoding="UTF-8" standalone="no"?>
<!DOCTYPE svg PUBLIC "-//W3C//DTD SVG 1.1//EN"
 "http://www.w3.org/Graphics/SVG/1.1/DTD/svg11.dtd">
<!-- Generated by graphviz version 12.2.1 (20241206.2353)
 -->
<!-- Title: com.hust.ittnk68.cnpm.view.ClientExpensePage Pages: 1 -->
<svg width="141pt" height="276pt"
 viewBox="0.00 0.00 140.50 276.00" xmlns="http://www.w3.org/2000/svg" xmlns:xlink="http://www.w3.org/1999/xlink">
<g id="graph0" class="graph" transform="scale(1 1) rotate(0) translate(4 272)">
<title>com.hust.ittnk68.cnpm.view.ClientExpensePage</title>
<!-- Node1 -->
<g id="Node000001" class="node">
<title>Node1</title>
<g id="a_Node000001"><a xlink:title=" ">
<polygon fill="#999999" stroke="none" points="132.5,-80 0,-80 0,0 132.5,0 132.5,-80"/>
<text text-anchor="start" x="4" y="-66.5" font-family="Helvetica,sans-Serif" font-size="10.00">com.hust.ittnk68.cnpm.view.</text>
<text text-anchor="start" x="23.12" y="-54.5" font-family="Helvetica,sans-Serif" font-size="10.00">ClientExpensePage</text>
<text text-anchor="start" x="9.56" y="-38.5" font-family="Helvetica,sans-Serif" font-size="10.00">~</text>
<text text-anchor="start" x="25.12" y="-38.5" font-family="Helvetica,sans-Serif" font-size="10.00">notPayedTile</text>
<text text-anchor="start" x="9.56" y="-22.5" font-family="Helvetica,sans-Serif" font-size="10.00">~</text>
<text text-anchor="start" x="25.12" y="-22.5" font-family="Helvetica,sans-Serif" font-size="10.00">payedTile</text>
<text text-anchor="start" x="9.56" y="-6.5" font-family="Helvetica,sans-Serif" font-size="10.00">+</text>
<text text-anchor="start" x="25.12" y="-6.5" font-family="Helvetica,sans-Serif" font-size="10.00">ClientExpensePage()</text>
<polygon fill="#666666" stroke="#666666" points="0,-50 0,-50 132.5,-50 132.5,-50 0,-50"/>
<polygon fill="#666666" stroke="#666666" points="0,-18 0,-18 23.12,-18 23.12,-18 0,-18"/>
<polygon fill="#666666" stroke="#666666" points="23.12,-18 23.12,-18 132.5,-18 132.5,-18 23.12,-18"/>
<polygon fill="none" stroke="#666666" points="0,0 0,-80 132.5,-80 132.5,0 0,0"/>
</a>
</g>
</g>
<!-- Node2 -->
<g id="Node000002" class="node">
<title>Node2</title>
<g id="a_Node000002"><a xlink:href="classcom_1_1hust_1_1ittnk68_1_1cnpm_1_1view_1_1DuongFXTabPane.html" target="_top" xlink:title=" ">
<polygon fill="white" stroke="none" points="132.5,-180 0,-180 0,-116 132.5,-116 132.5,-180"/>
<text text-anchor="start" x="4" y="-166.5" font-family="Helvetica,sans-Serif" font-size="10.00">com.hust.ittnk68.cnpm.view.</text>
<text text-anchor="start" x="26.5" y="-154.5" font-family="Helvetica,sans-Serif" font-size="10.00">DuongFXTabPane</text>
<text text-anchor="start" x="64.75" y="-138.5" font-family="Helvetica,sans-Serif" font-size="10.00"> </text>
<text text-anchor="start" x="11.25" y="-122.5" font-family="Helvetica,sans-Serif" font-size="10.00">+</text>
<text text-anchor="start" x="28.5" y="-122.5" font-family="Helvetica,sans-Serif" font-size="10.00">DuongFXTabPane()</text>
<polygon fill="#666666" stroke="#666666" points="0,-150 0,-150 132.5,-150 132.5,-150 0,-150"/>
<polygon fill="#666666" stroke="#666666" points="0,-134 0,-134 132.5,-134 132.5,-134 0,-134"/>
<polygon fill="none" stroke="#666666" points="0,-116 0,-180 132.5,-180 132.5,-116 0,-116"/>
</a>
</g>
</g>
<!-- Node2&#45;&gt;Node1 -->
<g id="edge1_Node000001_Node000002" class="edge">
<title>Node2&#45;&gt;Node1</title>
<g id="a_edge1_Node000001_Node000002"><a xlink:title=" ">
<path fill="none" stroke="#63b8ff" d="M66.25,-104.71C66.25,-96.46 66.25,-87.84 66.25,-79.71"/>
<polygon fill="none" stroke="#63b8ff" points="62.75,-104.54 66.25,-114.54 69.75,-104.54 62.75,-104.54"/>
</a>
</g>
</g>
<!-- Node3 -->
<g id="Node000003" class="node">
<title>Node3</title>
<g id="a_Node000003"><a xlink:href="classTabPane.html" target="_top" xlink:title=" ">
<polygon fill="white" stroke="none" points="89.38,-268 43.12,-268 43.12,-216 89.38,-216 89.38,-268"/>
<text text-anchor="start" x="47.12" y="-254.5" font-family="Helvetica,sans-Serif" font-size="10.00">TabPane</text>
<text text-anchor="start" x="64.75" y="-238.5" font-family="Helvetica,sans-Serif" font-size="10.00"> </text>
<text text-anchor="start" x="64.75" y="-222.5" font-family="Helvetica,sans-Serif" font-size="10.00"> </text>
<polygon fill="#666666" stroke="#666666" points="43.12,-250 43.12,-250 89.38,-250 89.38,-250 43.12,-250"/>
<polygon fill="#666666" stroke="#666666" points="43.12,-234 43.12,-234 89.38,-234 89.38,-234 43.12,-234"/>
<polygon fill="none" stroke="#666666" points="43.12,-216 43.12,-268 89.38,-268 89.38,-216 43.12,-216"/>
</a>
</g>
</g>
<!-- Node3&#45;&gt;Node2 -->
<g id="edge2_Node000002_Node000003" class="edge">
<title>Node3&#45;&gt;Node2</title>
<g id="a_edge2_Node000002_Node000003"><a xlink:title=" ">
<path fill="none" stroke="#63b8ff" d="M66.25,-205.06C66.25,-196.78 66.25,-188.04 66.25,-179.98"/>
<polygon fill="none" stroke="#63b8ff" points="62.75,-204.83 66.25,-214.83 69.75,-204.83 62.75,-204.83"/>
</a>
</g>
</g>
</g>
</svg>
