<?xml version="1.0" encoding="UTF-8" standalone="no"?>
<!DOCTYPE svg PUBLIC "-//W3C//DTD SVG 1.1//EN"
 "http://www.w3.org/Graphics/SVG/1.1/DTD/svg11.dtd">
<!-- Generated by graphviz version 12.2.1 (20241206.2353)
 -->
<!-- Title: com.hust.ittnk68.cnpm.view.ClientExpensePage Pages: 1 -->
<svg width="141pt" height="260pt"
 viewBox="0.00 0.00 140.50 260.00" xmlns="http://www.w3.org/2000/svg" xmlns:xlink="http://www.w3.org/1999/xlink">

<svg id="main" version="1.1" xmlns="http://www.w3.org/2000/svg" xmlns:xlink="http://www.w3.org/1999/xlink" xml:space="preserve">

<style type="text/css"><![CDATA[
.node, .edge {opacity: 0.7;}
.node.selected, .edge.selected {opacity: 1;}
.edge:hover path { stroke: red; }
.edge:hover polygon { stroke: red; fill: red; }
]]></style>
<script type="application/ecmascript" xlink:href="svg.min.js"/>
<svg id="graph" class="graph">
<g id="graph0" class="graph" transform="scale(1 1) rotate(0) translate(4 256)">
<title>com.hust.ittnk68.cnpm.view.ClientExpensePage</title>
<!-- Node1 -->
<g id="Node000001" class="node">
<title>Node1</title>
<g id="a_Node000001"><a xlink:title=" ">
<polygon fill="#999999" stroke="none" points="132.5,-64 0,-64 0,0 132.5,0 132.5,-64"/>
<text text-anchor="start" x="4" y="-50.5" font-family="Helvetica,sans-Serif" font-size="10.00">com.hust.ittnk68.cnpm.view.</text>
<text text-anchor="start" x="23.12" y="-38.5" font-family="Helvetica,sans-Serif" font-size="10.00">ClientExpensePage</text>
<text text-anchor="start" x="64.75" y="-22.5" font-family="Helvetica,sans-Serif" font-size="10.00"> </text>
<text text-anchor="start" x="9.56" y="-6.5" font-family="Helvetica,sans-Serif" font-size="10.00">+</text>
<text text-anchor="start" x="25.12" y="-6.5" font-family="Helvetica,sans-Serif" font-size="10.00">ClientExpensePage()</text>
<polygon fill="#666666" stroke="#666666" points="0,-34 0,-34 132.5,-34 132.5,-34 0,-34"/>
<polygon fill="#666666" stroke="#666666" points="0,-18 0,-18 132.5,-18 132.5,-18 0,-18"/>
<polygon fill="none" stroke="#666666" points="0,0 0,-64 132.5,-64 132.5,0 0,0"/>
</a>
</g>
</g>
<!-- Node2 -->
<g id="Node000002" class="node">
<title>Node2</title>
<g id="a_Node000002"><a xlink:href="classcom_1_1hust_1_1ittnk68_1_1cnpm_1_1view_1_1DuongFXTabPane.html" target="_top" xlink:title=" ">
<polygon fill="white" stroke="none" points="132.5,-164 0,-164 0,-100 132.5,-100 132.5,-164"/>
<text text-anchor="start" x="4" y="-150.5" font-family="Helvetica,sans-Serif" font-size="10.00">com.hust.ittnk68.cnpm.view.</text>
<text text-anchor="start" x="26.5" y="-138.5" font-family="Helvetica,sans-Serif" font-size="10.00">DuongFXTabPane</text>
<text text-anchor="start" x="64.75" y="-122.5" font-family="Helvetica,sans-Serif" font-size="10.00"> </text>
<text text-anchor="start" x="11.25" y="-106.5" font-family="Helvetica,sans-Serif" font-size="10.00">+</text>
<text text-anchor="start" x="28.5" y="-106.5" font-family="Helvetica,sans-Serif" font-size="10.00">DuongFXTabPane()</text>
<polygon fill="#666666" stroke="#666666" points="0,-134 0,-134 132.5,-134 132.5,-134 0,-134"/>
<polygon fill="#666666" stroke="#666666" points="0,-118 0,-118 132.5,-118 132.5,-118 0,-118"/>
<polygon fill="none" stroke="#666666" points="0,-100 0,-164 132.5,-164 132.5,-100 0,-100"/>
</a>
</g>
</g>
<!-- Node2&#45;&gt;Node1 -->
<g id="edge1_Node000001_Node000002" class="edge">
<title>Node2&#45;&gt;Node1</title>
<g id="a_edge1_Node000001_Node000002"><a xlink:title=" ">
<path fill="none" stroke="#63b8ff" d="M66.25,-88.77C66.25,-80.44 66.25,-71.84 66.25,-63.97"/>
<polygon fill="none" stroke="#63b8ff" points="62.75,-88.75 66.25,-98.75 69.75,-88.75 62.75,-88.75"/>
</a>
</g>
</g>
<!-- Node3 -->
<g id="Node000003" class="node">
<title>Node3</title>
<g id="a_Node000003"><a xlink:href="classTabPane.html" target="_top" xlink:title=" ">
<polygon fill="white" stroke="none" points="89.38,-252 43.12,-252 43.12,-200 89.38,-200 89.38,-252"/>
<text text-anchor="start" x="47.12" y="-238.5" font-family="Helvetica,sans-Serif" font-size="10.00">TabPane</text>
<text text-anchor="start" x="64.75" y="-222.5" font-family="Helvetica,sans-Serif" font-size="10.00"> </text>
<text text-anchor="start" x="64.75" y="-206.5" font-family="Helvetica,sans-Serif" font-size="10.00"> </text>
<polygon fill="#666666" stroke="#666666" points="43.12,-234 43.12,-234 89.38,-234 89.38,-234 43.12,-234"/>
<polygon fill="#666666" stroke="#666666" points="43.12,-218 43.12,-218 89.38,-218 89.38,-218 43.12,-218"/>
<polygon fill="none" stroke="#666666" points="43.12,-200 43.12,-252 89.38,-252 89.38,-200 43.12,-200"/>
</a>
</g>
</g>
<!-- Node3&#45;&gt;Node2 -->
<g id="edge2_Node000002_Node000003" class="edge">
<title>Node3&#45;&gt;Node2</title>
<g id="a_edge2_Node000002_Node000003"><a xlink:title=" ">
<path fill="none" stroke="#63b8ff" d="M66.25,-189.06C66.25,-180.78 66.25,-172.04 66.25,-163.98"/>
<polygon fill="none" stroke="#63b8ff" points="62.75,-188.83 66.25,-198.83 69.75,-188.83 62.75,-188.83"/>
</a>
</g>
</g>
</g>
</svg>
</svg>

<style type='text/css'>
<![CDATA[
[data-mouse-over-selected='false'] { opacity: 0.7; }
[data-mouse-over-selected='true']  { opacity: 1.0; }
]]>
</style>
<script type="application/ecmascript"><![CDATA[
document.addEventListener('DOMContentLoaded', (event) => {
  highlightEdges();
  highlightAdjacentNodes();
});
]]></script>
</svg>
