<?xml version="1.0" encoding="UTF-8" standalone="no"?>
<!DOCTYPE svg PUBLIC "-//W3C//DTD SVG 1.1//EN"
 "http://www.w3.org/Graphics/SVG/1.1/DTD/svg11.dtd">
<!-- Generated by graphviz version 12.2.1 (20241206.2353)
 -->
<!-- Title: com.hust.ittnk68.cnpm.view.LoadingView Pages: 1 -->
<svg width="189pt" height="172pt"
 viewBox="0.00 0.00 188.53 172.00" xmlns="http://www.w3.org/2000/svg" xmlns:xlink="http://www.w3.org/1999/xlink">

<svg id="main" version="1.1" xmlns="http://www.w3.org/2000/svg" xmlns:xlink="http://www.w3.org/1999/xlink" xml:space="preserve">

<style type="text/css"><![CDATA[
.node, .edge {opacity: 0.7;}
.node.selected, .edge.selected {opacity: 1;}
.edge:hover path { stroke: red; }
.edge:hover polygon { stroke: red; fill: red; }
]]></style>
<script type="application/ecmascript" xlink:href="svg.min.js"/>
<svg id="graph" class="graph">
<g id="graph0" class="graph" transform="scale(1 1) rotate(0) translate(4 168)">
<title>com.hust.ittnk68.cnpm.view.LoadingView</title>
<!-- Node1 -->
<g id="Node000001" class="node">
<title>Node1</title>
<g id="a_Node000001"><a xlink:title=" ">
<polygon fill="#999999" stroke="none" points="147.25,-64 14.75,-64 14.75,0 147.25,0 147.25,-64"/>
<text text-anchor="start" x="18.75" y="-50.5" font-family="Helvetica,sans-Serif" font-size="10.00">com.hust.ittnk68.cnpm.view.</text>
<text text-anchor="start" x="53.25" y="-38.5" font-family="Helvetica,sans-Serif" font-size="10.00">LoadingView</text>
<text text-anchor="start" x="79.5" y="-22.5" font-family="Helvetica,sans-Serif" font-size="10.00"> </text>
<text text-anchor="start" x="32" y="-6.5" font-family="Helvetica,sans-Serif" font-size="10.00">~</text>
<text text-anchor="start" x="55.25" y="-6.5" font-family="Helvetica,sans-Serif" font-size="10.00">LoadingView()</text>
<polygon fill="#666666" stroke="#666666" points="14.75,-34 14.75,-34 147.25,-34 147.25,-34 14.75,-34"/>
<polygon fill="#666666" stroke="#666666" points="14.75,-18 14.75,-18 147.25,-18 147.25,-18 14.75,-18"/>
<polygon fill="none" stroke="#666666" points="14.75,0 14.75,-64 147.25,-64 147.25,0 14.75,0"/>
</a>
</g>
</g>
<!-- Node2 -->
<g id="Node000002" class="node">
<title>Node2</title>
<g id="a_Node000002"><a xlink:href="classVBox.html" target="_top" xlink:title=" ">
<polygon fill="white" stroke="none" points="32,-164 0,-164 0,-112 32,-112 32,-164"/>
<text text-anchor="start" x="4" y="-150.5" font-family="Helvetica,sans-Serif" font-size="10.00">VBox</text>
<text text-anchor="start" x="14.5" y="-134.5" font-family="Helvetica,sans-Serif" font-size="10.00"> </text>
<text text-anchor="start" x="14.5" y="-118.5" font-family="Helvetica,sans-Serif" font-size="10.00"> </text>
<polygon fill="#666666" stroke="#666666" points="0,-146 0,-146 32,-146 32,-146 0,-146"/>
<polygon fill="#666666" stroke="#666666" points="0,-130 0,-130 32,-130 32,-130 0,-130"/>
<polygon fill="none" stroke="#666666" points="0,-112 0,-164 32,-164 32,-112 0,-112"/>
</a>
</g>
</g>
<!-- Node2&#45;&gt;Node1 -->
<g id="edge1_Node000001_Node000002" class="edge">
<title>Node2&#45;&gt;Node1</title>
<g id="a_edge1_Node000001_Node000002"><a xlink:title=" ">
<path fill="none" stroke="#63b8ff" d="M37.61,-102.43C45.44,-89.89 54.23,-75.83 61.84,-63.65"/>
<polygon fill="none" stroke="#63b8ff" points="34.7,-100.47 32.37,-110.81 40.64,-104.18 34.7,-100.47"/>
</a>
</g>
</g>
<!-- Node3 -->
<g id="Node000003" class="node">
<title>Node3</title>
<g id="a_Node000003"><a xlink:title=" ">
<polygon fill="white" stroke="none" points="112,-164 50,-164 50,-112 112,-112 112,-164"/>
<text text-anchor="start" x="54" y="-150.5" font-family="Helvetica,sans-Serif" font-size="10.00">ProgressBar</text>
<text text-anchor="start" x="79.5" y="-134.5" font-family="Helvetica,sans-Serif" font-size="10.00"> </text>
<text text-anchor="start" x="79.5" y="-118.5" font-family="Helvetica,sans-Serif" font-size="10.00"> </text>
<polygon fill="#666666" stroke="#666666" points="50,-146 50,-146 112,-146 112,-146 50,-146"/>
<polygon fill="#666666" stroke="#666666" points="50,-130 50,-130 112,-130 112,-130 50,-130"/>
<polygon fill="none" stroke="#666666" points="50,-112 50,-164 112,-164 112,-112 50,-112"/>
</a>
</g>
</g>
<!-- Node3&#45;&gt;Node1 -->
<g id="edge2_Node000001_Node000003" class="edge">
<title>Node3&#45;&gt;Node1</title>
<g id="a_edge2_Node000001_Node000003"><a xlink:title=" ">
<path fill="none" stroke="#63b8ff" d="M81,-112.09C81,-101.41 81,-88.62 81,-76.46"/>
<polygon fill="none" stroke="#63b8ff" points="81,-76.55 77,-70.55 81,-64.55 85,-70.55 81,-76.55"/>
</a>
</g>
<text text-anchor="middle" x="95.62" y="-84.5" font-family="Helvetica,sans-Serif" font-size="10.00" fill="grey"> ~pBar</text>
</g>
<!-- Node4 -->
<g id="Node000004" class="node">
<title>Node4</title>
<g id="a_Node000004"><a xlink:title=" ">
<polygon fill="white" stroke="none" points="161.62,-164 130.38,-164 130.38,-112 161.62,-112 161.62,-164"/>
<text text-anchor="start" x="134.38" y="-150.5" font-family="Helvetica,sans-Serif" font-size="10.00">Label</text>
<text text-anchor="start" x="144.5" y="-134.5" font-family="Helvetica,sans-Serif" font-size="10.00"> </text>
<text text-anchor="start" x="144.5" y="-118.5" font-family="Helvetica,sans-Serif" font-size="10.00"> </text>
<polygon fill="#666666" stroke="#666666" points="130.38,-146 130.38,-146 161.62,-146 161.62,-146 130.38,-146"/>
<polygon fill="#666666" stroke="#666666" points="130.38,-130 130.38,-130 161.62,-130 161.62,-130 130.38,-130"/>
<polygon fill="none" stroke="#666666" points="130.38,-112 130.38,-164 161.62,-164 161.62,-112 130.38,-112"/>
</a>
</g>
</g>
<!-- Node4&#45;&gt;Node1 -->
<g id="edge3_Node000001_Node000004" class="edge">
<title>Node4&#45;&gt;Node1</title>
<g id="a_edge3_Node000001_Node000004"><a xlink:title=" ">
<path fill="none" stroke="#63b8ff" d="M132.01,-112.15C126.53,-102.64 120.1,-91.74 114,-82 112.5,-79.6 110.93,-77.15 109.34,-74.68"/>
<polygon fill="none" stroke="#63b8ff" points="109.34,-74.69 102.71,-71.87 102.75,-64.66 109.39,-67.48 109.34,-74.69"/>
</a>
</g>
<text text-anchor="middle" x="150.91" y="-84.5" font-family="Helvetica,sans-Serif" font-size="10.00" fill="grey"> ~statusLabel</text>
</g>
</g>
</svg>
</svg>

<style type='text/css'>
<![CDATA[
[data-mouse-over-selected='false'] { opacity: 0.7; }
[data-mouse-over-selected='true']  { opacity: 1.0; }
]]>
</style>
<script type="application/ecmascript"><![CDATA[
document.addEventListener('DOMContentLoaded', (event) => {
  highlightEdges();
  highlightAdjacentNodes();
});
]]></script>
</svg>
