<?xml version="1.0" encoding="UTF-8" standalone="no"?>
<!DOCTYPE svg PUBLIC "-//W3C//DTD SVG 1.1//EN"
 "http://www.w3.org/Graphics/SVG/1.1/DTD/svg11.dtd">
<!-- Generated by graphviz version 12.2.1 (20241206.2353)
 -->
<!-- Title: OncePerRequestFilter Pages: 1 -->
<svg width="176pt" height="160pt"
 viewBox="0.00 0.00 175.75 160.00" xmlns="http://www.w3.org/2000/svg" xmlns:xlink="http://www.w3.org/1999/xlink">

<svg id="main" version="1.1" xmlns="http://www.w3.org/2000/svg" xmlns:xlink="http://www.w3.org/1999/xlink" xml:space="preserve">

<style type="text/css"><![CDATA[
.node, .edge {opacity: 0.7;}
.node.selected, .edge.selected {opacity: 1;}
.edge:hover path { stroke: red; }
.edge:hover polygon { stroke: red; fill: red; }
]]></style>
<script type="application/ecmascript" xlink:href="svg.min.js"/>
<svg id="graph" class="graph">
<g id="graph0" class="graph" transform="scale(1 1) rotate(0) translate(4 156)">
<title>OncePerRequestFilter</title>
<!-- Node1 -->
<g id="Node000001" class="node">
<title>Node1</title>
<g id="a_Node000001"><a xlink:title=" ">
<polygon fill="#999999" stroke="none" points="136.25,-152 31.5,-152 31.5,-100 136.25,-100 136.25,-152"/>
<text text-anchor="start" x="35.5" y="-138.5" font-family="Helvetica,sans-Serif" font-size="10.00">OncePerRequestFilter</text>
<text text-anchor="start" x="82.38" y="-122.5" font-family="Helvetica,sans-Serif" font-size="10.00"> </text>
<text text-anchor="start" x="82.38" y="-106.5" font-family="Helvetica,sans-Serif" font-size="10.00"> </text>
<polygon fill="#666666" stroke="#666666" points="31.5,-134 31.5,-134 136.25,-134 136.25,-134 31.5,-134"/>
<polygon fill="#666666" stroke="#666666" points="31.5,-118 31.5,-118 136.25,-118 136.25,-118 31.5,-118"/>
<polygon fill="none" stroke="#666666" points="31.5,-100 31.5,-152 136.25,-152 136.25,-100 31.5,-100"/>
</a>
</g>
</g>
<!-- Node2 -->
<g id="Node000002" class="node">
<title>Node2</title>
<g id="a_Node000002"><a xlink:href="classcom_1_1hust_1_1ittnk68_1_1cnpm_1_1security_1_1filter_1_1TokenFilter.html" target="_top" xlink:title=" ">
<polygon fill="white" stroke="none" points="167.75,-64 0,-64 0,0 167.75,0 167.75,-64"/>
<text text-anchor="start" x="4" y="-50.5" font-family="Helvetica,sans-Serif" font-size="10.00">com.hust.ittnk68.cnpm.security.filter.</text>
<text text-anchor="start" x="59.88" y="-38.5" font-family="Helvetica,sans-Serif" font-size="10.00">TokenFilter</text>
<text text-anchor="start" x="82.38" y="-22.5" font-family="Helvetica,sans-Serif" font-size="10.00"> </text>
<text text-anchor="start" x="24" y="-6.5" font-family="Helvetica,sans-Serif" font-size="10.00">#</text>
<text text-anchor="start" x="53.25" y="-6.5" font-family="Helvetica,sans-Serif" font-size="10.00">doFilterInternal()</text>
<polygon fill="#666666" stroke="#666666" points="0,-34 0,-34 167.75,-34 167.75,-34 0,-34"/>
<polygon fill="#666666" stroke="#666666" points="0,-18 0,-18 167.75,-18 167.75,-18 0,-18"/>
<polygon fill="none" stroke="#666666" points="0,0 0,-64 167.75,-64 167.75,0 0,0"/>
</a>
</g>
</g>
<!-- Node1&#45;&gt;Node2 -->
<g id="edge1_Node000001_Node000002" class="edge">
<title>Node1&#45;&gt;Node2</title>
<g id="a_edge1_Node000001_Node000002"><a xlink:title=" ">
<path fill="none" stroke="#63b8ff" d="M83.88,-89.06C83.88,-80.78 83.88,-72.04 83.88,-63.98"/>
<polygon fill="none" stroke="#63b8ff" points="80.38,-88.83 83.88,-98.83 87.38,-88.83 80.38,-88.83"/>
</a>
</g>
</g>
</g>
</svg>
</svg>

<style type='text/css'>
<![CDATA[
[data-mouse-over-selected='false'] { opacity: 0.7; }
[data-mouse-over-selected='true']  { opacity: 1.0; }
]]>
</style>
<script type="application/ecmascript"><![CDATA[
document.addEventListener('DOMContentLoaded', (event) => {
  highlightEdges();
  highlightAdjacentNodes();
});
]]></script>
</svg>
