<?xml version="1.0" encoding="UTF-8" standalone="no"?>
<!DOCTYPE svg PUBLIC "-//W3C//DTD SVG 1.1//EN"
 "http://www.w3.org/Graphics/SVG/1.1/DTD/svg11.dtd">
<!-- Generated by graphviz version 12.2.1 (20241206.2353)
 -->
<!-- Title: com.hust.ittnk68.cnpm.session.Session Pages: 1 -->
<svg width="192pt" height="717pt"
 viewBox="0.00 0.00 191.75 717.00" xmlns="http://www.w3.org/2000/svg" xmlns:xlink="http://www.w3.org/1999/xlink">
<g id="graph0" class="graph" transform="scale(1 1) rotate(0) translate(4 713)">
<title>com.hust.ittnk68.cnpm.session.Session</title>
<!-- Node1 -->
<g id="Node000001" class="node">
<title>Node1</title>
<g id="a_Node000001"><a xlink:title=" ">
<polygon fill="#999999" stroke="none" points="165.62,-96 18.12,-96 18.12,0 165.62,0 165.62,-96"/>
<text text-anchor="start" x="22.12" y="-82.5" font-family="Helvetica,sans-Serif" font-size="10.00">com.hust.ittnk68.cnpm.session.</text>
<text text-anchor="start" x="74.25" y="-70.5" font-family="Helvetica,sans-Serif" font-size="10.00">Session</text>
<text text-anchor="start" x="90.38" y="-54.5" font-family="Helvetica,sans-Serif" font-size="10.00"> </text>
<text text-anchor="start" x="36.5" y="-38.5" font-family="Helvetica,sans-Serif" font-size="10.00">+</text>
<text text-anchor="start" x="60.88" y="-38.5" font-family="Helvetica,sans-Serif" font-size="10.00">Session()</text>
<text text-anchor="start" x="36.5" y="-22.5" font-family="Helvetica,sans-Serif" font-size="10.00">+</text>
<text text-anchor="start" x="60.88" y="-22.5" font-family="Helvetica,sans-Serif" font-size="10.00">getAccount()</text>
<text text-anchor="start" x="36.5" y="-6.5" font-family="Helvetica,sans-Serif" font-size="10.00">+</text>
<text text-anchor="start" x="60.88" y="-6.5" font-family="Helvetica,sans-Serif" font-size="10.00">getSessionEnd()</text>
<polygon fill="#666666" stroke="#666666" points="18.12,-66 18.12,-66 165.62,-66 165.62,-66 18.12,-66"/>
<polygon fill="#666666" stroke="#666666" points="18.12,-50 18.12,-50 165.62,-50 165.62,-50 18.12,-50"/>
<polygon fill="none" stroke="#666666" points="18.12,0 18.12,-96 165.62,-96 165.62,0 18.12,0"/>
</a>
</g>
</g>
<!-- Node2 -->
<g id="Node000002" class="node">
<title>Node2</title>
<g id="a_Node000002"><a xlink:href="classcom_1_1hust_1_1ittnk68_1_1cnpm_1_1model_1_1Account.html" target="_top" xlink:title=" ">
<polygon fill="white" stroke="none" points="161.88,-496 21.88,-496 21.88,-144 161.88,-144 161.88,-496"/>
<text text-anchor="start" x="25.88" y="-482.5" font-family="Helvetica,sans-Serif" font-size="10.00">com.hust.ittnk68.cnpm.model.</text>
<text text-anchor="start" x="73.88" y="-470.5" font-family="Helvetica,sans-Serif" font-size="10.00">Account</text>
<text text-anchor="start" x="90.38" y="-454.5" font-family="Helvetica,sans-Serif" font-size="10.00"> </text>
<text text-anchor="start" x="27.5" y="-438.5" font-family="Helvetica,sans-Serif" font-size="10.00">+</text>
<text text-anchor="start" x="39.12" y="-438.5" font-family="Helvetica,sans-Serif" font-size="10.00">Account()</text>
<text text-anchor="start" x="27.5" y="-422.5" font-family="Helvetica,sans-Serif" font-size="10.00">+</text>
<text text-anchor="start" x="39.12" y="-422.5" font-family="Helvetica,sans-Serif" font-size="10.00">Account()</text>
<text text-anchor="start" x="27.5" y="-406.5" font-family="Helvetica,sans-Serif" font-size="10.00">+</text>
<text text-anchor="start" x="39.12" y="-406.5" font-family="Helvetica,sans-Serif" font-size="10.00">Account()</text>
<text text-anchor="start" x="27.5" y="-390.5" font-family="Helvetica,sans-Serif" font-size="10.00">+</text>
<text text-anchor="start" x="39.12" y="-390.5" font-family="Helvetica,sans-Serif" font-size="10.00">setAccountId()</text>
<text text-anchor="start" x="27.5" y="-374.5" font-family="Helvetica,sans-Serif" font-size="10.00">+</text>
<text text-anchor="start" x="39.12" y="-374.5" font-family="Helvetica,sans-Serif" font-size="10.00">getAccountId()</text>
<text text-anchor="start" x="27.5" y="-358.5" font-family="Helvetica,sans-Serif" font-size="10.00">+</text>
<text text-anchor="start" x="39.12" y="-358.5" font-family="Helvetica,sans-Serif" font-size="10.00">setFamilyId()</text>
<text text-anchor="start" x="27.5" y="-342.5" font-family="Helvetica,sans-Serif" font-size="10.00">+</text>
<text text-anchor="start" x="39.12" y="-342.5" font-family="Helvetica,sans-Serif" font-size="10.00">getFamilyId()</text>
<text text-anchor="start" x="27.5" y="-326.5" font-family="Helvetica,sans-Serif" font-size="10.00">+</text>
<text text-anchor="start" x="39.12" y="-326.5" font-family="Helvetica,sans-Serif" font-size="10.00">setUsername()</text>
<text text-anchor="start" x="27.5" y="-310.5" font-family="Helvetica,sans-Serif" font-size="10.00">+</text>
<text text-anchor="start" x="39.12" y="-310.5" font-family="Helvetica,sans-Serif" font-size="10.00">getUsername()</text>
<text text-anchor="start" x="27.5" y="-294.5" font-family="Helvetica,sans-Serif" font-size="10.00">+</text>
<text text-anchor="start" x="39.12" y="-294.5" font-family="Helvetica,sans-Serif" font-size="10.00">setDigestPassword()</text>
<text text-anchor="start" x="27.5" y="-278.5" font-family="Helvetica,sans-Serif" font-size="10.00">+</text>
<text text-anchor="start" x="39.12" y="-278.5" font-family="Helvetica,sans-Serif" font-size="10.00">getDigestPassword()</text>
<text text-anchor="start" x="27.5" y="-262.5" font-family="Helvetica,sans-Serif" font-size="10.00">+</text>
<text text-anchor="start" x="39.12" y="-262.5" font-family="Helvetica,sans-Serif" font-size="10.00">setAccountType()</text>
<text text-anchor="start" x="27.5" y="-246.5" font-family="Helvetica,sans-Serif" font-size="10.00">+</text>
<text text-anchor="start" x="39.12" y="-246.5" font-family="Helvetica,sans-Serif" font-size="10.00">getAccountType()</text>
<text text-anchor="start" x="27.5" y="-230.5" font-family="Helvetica,sans-Serif" font-size="10.00">+</text>
<text text-anchor="start" x="39.12" y="-230.5" font-family="Helvetica,sans-Serif" font-size="10.00">getId()</text>
<text text-anchor="start" x="27.5" y="-214.5" font-family="Helvetica,sans-Serif" font-size="10.00">+</text>
<text text-anchor="start" x="39.12" y="-214.5" font-family="Helvetica,sans-Serif" font-size="10.00">setId()</text>
<text text-anchor="start" x="27.5" y="-198.5" font-family="Helvetica,sans-Serif" font-size="10.00">+</text>
<text text-anchor="start" x="39.12" y="-198.5" font-family="Helvetica,sans-Serif" font-size="10.00">getSQLTableName()</text>
<text text-anchor="start" x="27.5" y="-182.5" font-family="Helvetica,sans-Serif" font-size="10.00">+</text>
<text text-anchor="start" x="39.12" y="-182.5" font-family="Helvetica,sans-Serif" font-size="10.00">getSQLInsertCommand()</text>
<text text-anchor="start" x="27.5" y="-166.5" font-family="Helvetica,sans-Serif" font-size="10.00">+</text>
<text text-anchor="start" x="39.12" y="-166.5" font-family="Helvetica,sans-Serif" font-size="10.00">getSQLUpdateCommand()</text>
<text text-anchor="start" x="27.5" y="-150.5" font-family="Helvetica,sans-Serif" font-size="10.00">+</text>
<text text-anchor="start" x="39.12" y="-150.5" font-family="Helvetica,sans-Serif" font-size="10.00">convertFromMap()</text>
<polygon fill="#666666" stroke="#666666" points="21.88,-466 21.88,-466 161.88,-466 161.88,-466 21.88,-466"/>
<polygon fill="#666666" stroke="#666666" points="21.88,-450 21.88,-450 161.88,-450 161.88,-450 21.88,-450"/>
<polygon fill="none" stroke="#666666" points="21.88,-144 21.88,-496 161.88,-496 161.88,-144 21.88,-144"/>
</a>
</g>
</g>
<!-- Node2&#45;&gt;Node1 -->
<g id="edge1_Node000001_Node000002" class="edge">
<title>Node2&#45;&gt;Node1</title>
<g id="a_edge1_Node000001_Node000002"><a xlink:title=" ">
<path fill="none" stroke="#63b8ff" d="M91.88,-144.19C91.88,-131.65 91.88,-119.61 91.88,-108.57"/>
<polygon fill="none" stroke="#63b8ff" points="91.88,-108.52 87.88,-102.52 91.88,-96.52 95.88,-102.52 91.88,-108.52"/>
</a>
</g>
<text text-anchor="middle" x="113.62" y="-116.5" font-family="Helvetica,sans-Serif" font-size="10.00" fill="grey"> ~account</text>
</g>
<!-- Node3 -->
<g id="Node000003" class="node">
<title>Node3</title>
<g id="a_Node000003"><a xlink:href="classcom_1_1hust_1_1ittnk68_1_1cnpm_1_1database_1_1GetSQLProperties.html" target="_top" xlink:title=" ">
<polygon fill="white" stroke="none" points="183.75,-709 0,-709 0,-533 183.75,-533 183.75,-709"/>
<text text-anchor="start" x="19.12" y="-695.5" font-family="Helvetica,sans-Serif" font-size="10.00">com.hust.ittnk68.cnpm.database.</text>
<text text-anchor="start" x="52.12" y="-683.5" font-family="Helvetica,sans-Serif" font-size="10.00">GetSQLProperties</text>
<text text-anchor="start" x="90.38" y="-667.5" font-family="Helvetica,sans-Serif" font-size="10.00"> </text>
<text text-anchor="start" x="4" y="-651.5" font-family="Helvetica,sans-Serif" font-size="10.00">+</text>
<text text-anchor="start" x="14" y="-651.5" font-family="Helvetica,sans-Serif" font-size="10.00">getId()</text>
<text text-anchor="start" x="4" y="-635.5" font-family="Helvetica,sans-Serif" font-size="10.00">+</text>
<text text-anchor="start" x="14" y="-635.5" font-family="Helvetica,sans-Serif" font-size="10.00">setId()</text>
<text text-anchor="start" x="4" y="-619.5" font-family="Helvetica,sans-Serif" font-size="10.00">+</text>
<text text-anchor="start" x="14" y="-619.5" font-family="Helvetica,sans-Serif" font-size="10.00">getSQLTableName()</text>
<text text-anchor="start" x="4" y="-603.5" font-family="Helvetica,sans-Serif" font-size="10.00">+</text>
<text text-anchor="start" x="14" y="-603.5" font-family="Helvetica,sans-Serif" font-size="10.00">getSQLInsertCommand()</text>
<text text-anchor="start" x="4" y="-587.5" font-family="Helvetica,sans-Serif" font-size="10.00">+</text>
<text text-anchor="start" x="14" y="-587.5" font-family="Helvetica,sans-Serif" font-size="10.00">getSQLUpdateCommand()</text>
<text text-anchor="start" x="4" y="-571.5" font-family="Helvetica,sans-Serif" font-size="10.00">+</text>
<text text-anchor="start" x="14" y="-571.5" font-family="Helvetica,sans-Serif" font-size="10.00">getSQLFindByConditionCommand()</text>
<text text-anchor="start" x="4" y="-555.5" font-family="Helvetica,sans-Serif" font-size="10.00">+</text>
<text text-anchor="start" x="14" y="-555.5" font-family="Helvetica,sans-Serif" font-size="10.00">getSQLDeleteByConditionCommand()</text>
<text text-anchor="start" x="4" y="-539.5" font-family="Helvetica,sans-Serif" font-size="10.00">+</text>
<text text-anchor="start" x="14" y="-539.5" font-family="Helvetica,sans-Serif" font-size="10.00">getSQLSingleUpdate()</text>
<polygon fill="#666666" stroke="#666666" points="0,-679 0,-679 183.75,-679 183.75,-679 0,-679"/>
<polygon fill="#666666" stroke="#666666" points="0,-663 0,-663 183.75,-663 183.75,-663 0,-663"/>
<polygon fill="none" stroke="#666666" points="0,-533 0,-709 183.75,-709 183.75,-533 0,-533"/>
</a>
</g>
</g>
<!-- Node3&#45;&gt;Node2 -->
<g id="edge2_Node000002_Node000003" class="edge">
<title>Node3&#45;&gt;Node2</title>
<g id="a_edge2_Node000002_Node000003"><a xlink:title=" ">
<path fill="none" stroke="#63b8ff" d="M91.88,-521.78C91.88,-513.35 91.88,-504.68 91.88,-495.88"/>
<polygon fill="none" stroke="#63b8ff" points="88.38,-521.6 91.88,-531.6 95.38,-521.6 88.38,-521.6"/>
</a>
</g>
</g>
</g>
</svg>
