<?xml version="1.0" encoding="UTF-8" standalone="no"?>
<!DOCTYPE svg PUBLIC "-//W3C//DTD SVG 1.1//EN"
 "http://www.w3.org/Graphics/SVG/1.1/DTD/svg11.dtd">
<!-- Generated by graphviz version 12.2.1 (20241206.2353)
 -->
<!-- Title: com.hust.ittnk68.cnpm.app.AppTest Pages: 1 -->
<svg width="138pt" height="208pt"
 viewBox="0.00 0.00 137.50 208.00" xmlns="http://www.w3.org/2000/svg" xmlns:xlink="http://www.w3.org/1999/xlink">

<svg id="main" version="1.1" xmlns="http://www.w3.org/2000/svg" xmlns:xlink="http://www.w3.org/1999/xlink" xml:space="preserve">

<style type="text/css"><![CDATA[
.node, .edge {opacity: 0.7;}
.node.selected, .edge.selected {opacity: 1;}
.edge:hover path { stroke: red; }
.edge:hover polygon { stroke: red; fill: red; }
]]></style>
<script type="application/ecmascript" xlink:href="svg.min.js"/>
<svg id="graph" class="graph">
<g id="graph0" class="graph" transform="scale(1 1) rotate(0) translate(4 204)">
<title>com.hust.ittnk68.cnpm.app.AppTest</title>
<!-- Node1 -->
<g id="Node000001" class="node">
<title>Node1</title>
<g id="a_Node000001"><a xlink:title=" ">
<polygon fill="#999999" stroke="none" points="129.5,-112 0,-112 0,0 129.5,0 129.5,-112"/>
<text text-anchor="start" x="4" y="-98.5" font-family="Helvetica,sans-Serif" font-size="10.00">com.hust.ittnk68.cnpm.app.</text>
<text text-anchor="start" x="46.75" y="-86.5" font-family="Helvetica,sans-Serif" font-size="10.00">AppTest</text>
<text text-anchor="start" x="63.25" y="-70.5" font-family="Helvetica,sans-Serif" font-size="10.00"> </text>
<text text-anchor="start" x="21.19" y="-54.5" font-family="Helvetica,sans-Serif" font-size="10.00">+</text>
<text text-anchor="start" x="48.38" y="-54.5" font-family="Helvetica,sans-Serif" font-size="10.00">AppTest()</text>
<text text-anchor="start" x="21.19" y="-38.5" font-family="Helvetica,sans-Serif" font-size="10.00">+</text>
<text text-anchor="start" x="48.38" y="-38.5" font-family="Helvetica,sans-Serif" font-size="10.00">testSign()</text>
<text text-anchor="start" x="21.19" y="-22.5" font-family="Helvetica,sans-Serif" font-size="10.00">+</text>
<text text-anchor="start" x="48.38" y="-22.5" font-family="Helvetica,sans-Serif" font-size="10.00">testAuth()</text>
<text text-anchor="start" x="21.19" y="-6.5" font-family="Helvetica,sans-Serif" font-size="10.00">+</text>
<text text-anchor="start" x="48.38" y="-6.5" font-family="Helvetica,sans-Serif" font-size="10.00">suite()</text>
<polygon fill="#666666" stroke="#666666" points="0,-82 0,-82 129.5,-82 129.5,-82 0,-82"/>
<polygon fill="#666666" stroke="#666666" points="0,-66 0,-66 129.5,-66 129.5,-66 0,-66"/>
<polygon fill="none" stroke="#666666" points="0,0 0,-112 129.5,-112 129.5,0 0,0"/>
</a>
</g>
</g>
<!-- Node2 -->
<g id="Node000002" class="node">
<title>Node2</title>
<g id="a_Node000002"><a xlink:href="classTestCase.html" target="_top" xlink:title=" ">
<polygon fill="white" stroke="none" points="89.75,-200 39.75,-200 39.75,-148 89.75,-148 89.75,-200"/>
<text text-anchor="start" x="43.75" y="-186.5" font-family="Helvetica,sans-Serif" font-size="10.00">TestCase</text>
<text text-anchor="start" x="63.25" y="-170.5" font-family="Helvetica,sans-Serif" font-size="10.00"> </text>
<text text-anchor="start" x="63.25" y="-154.5" font-family="Helvetica,sans-Serif" font-size="10.00"> </text>
<polygon fill="#666666" stroke="#666666" points="39.75,-182 39.75,-182 89.75,-182 89.75,-182 39.75,-182"/>
<polygon fill="#666666" stroke="#666666" points="39.75,-166 39.75,-166 89.75,-166 89.75,-166 39.75,-166"/>
<polygon fill="none" stroke="#666666" points="39.75,-148 39.75,-200 89.75,-200 89.75,-148 39.75,-148"/>
</a>
</g>
</g>
<!-- Node2&#45;&gt;Node1 -->
<g id="edge1_Node000001_Node000002" class="edge">
<title>Node2&#45;&gt;Node1</title>
<g id="a_edge1_Node000001_Node000002"><a xlink:title=" ">
<path fill="none" stroke="#63b8ff" d="M64.75,-136.71C64.75,-128.82 64.75,-120.31 64.75,-111.88"/>
<polygon fill="none" stroke="#63b8ff" points="61.25,-136.6 64.75,-146.6 68.25,-136.6 61.25,-136.6"/>
</a>
</g>
</g>
</g>
</svg>
</svg>

<style type='text/css'>
<![CDATA[
[data-mouse-over-selected='false'] { opacity: 0.7; }
[data-mouse-over-selected='true']  { opacity: 1.0; }
]]>
</style>
<script type="application/ecmascript"><![CDATA[
document.addEventListener('DOMContentLoaded', (event) => {
  highlightEdges();
  highlightAdjacentNodes();
});
]]></script>
</svg>
