<?xml version="1.0" encoding="UTF-8" standalone="no"?>
<!DOCTYPE svg PUBLIC "-//W3C//DTD SVG 1.1//EN"
 "http://www.w3.org/Graphics/SVG/1.1/DTD/svg11.dtd">
<!-- Generated by graphviz version 12.2.1 (20241206.2353)
 -->
<!-- Title: GridPane Pages: 1 -->
<svg width="443pt" height="260pt"
 viewBox="0.00 0.00 442.50 260.00" xmlns="http://www.w3.org/2000/svg" xmlns:xlink="http://www.w3.org/1999/xlink">
<g id="graph0" class="graph" transform="scale(1 1) rotate(0) translate(4 256)">
<title>GridPane</title>
<!-- Node1 -->
<g id="Node000001" class="node">
<title>Node1</title>
<g id="a_Node000001"><a xlink:title=" ">
<polygon fill="#999999" stroke="none" points="241.5,-252 193,-252 193,-200 241.5,-200 241.5,-252"/>
<text text-anchor="start" x="197" y="-238.5" font-family="Helvetica,sans-Serif" font-size="10.00">GridPane</text>
<text text-anchor="start" x="215.75" y="-222.5" font-family="Helvetica,sans-Serif" font-size="10.00"> </text>
<text text-anchor="start" x="215.75" y="-206.5" font-family="Helvetica,sans-Serif" font-size="10.00"> </text>
<polygon fill="#666666" stroke="#666666" points="193,-234 193,-234 241.5,-234 241.5,-234 193,-234"/>
<polygon fill="#666666" stroke="#666666" points="193,-218 193,-218 241.5,-218 241.5,-218 193,-218"/>
<polygon fill="none" stroke="#666666" points="193,-200 193,-252 241.5,-252 241.5,-200 193,-200"/>
</a>
</g>
</g>
<!-- Node2 -->
<g id="Node000002" class="node">
<title>Node2</title>
<g id="a_Node000002"><a xlink:href="classcom_1_1hust_1_1ittnk68_1_1cnpm_1_1view_1_1DuongFXGridPane.html" target="_top" xlink:title=" ">
<polygon fill="white" stroke="none" points="283.5,-164 151,-164 151,-100 283.5,-100 283.5,-164"/>
<text text-anchor="start" x="155" y="-150.5" font-family="Helvetica,sans-Serif" font-size="10.00">com.hust.ittnk68.cnpm.view.</text>
<text text-anchor="start" x="176.38" y="-138.5" font-family="Helvetica,sans-Serif" font-size="10.00">DuongFXGridPane</text>
<text text-anchor="start" x="215.75" y="-122.5" font-family="Helvetica,sans-Serif" font-size="10.00"> </text>
<text text-anchor="start" x="161.69" y="-106.5" font-family="Helvetica,sans-Serif" font-size="10.00">+</text>
<text text-anchor="start" x="178.38" y="-106.5" font-family="Helvetica,sans-Serif" font-size="10.00">DuongFXGridPane()</text>
<polygon fill="#666666" stroke="#666666" points="151,-134 151,-134 283.5,-134 283.5,-134 151,-134"/>
<polygon fill="#666666" stroke="#666666" points="151,-118 151,-118 283.5,-118 283.5,-118 151,-118"/>
<polygon fill="none" stroke="#666666" points="151,-100 151,-164 283.5,-164 283.5,-100 151,-100"/>
</a>
</g>
</g>
<!-- Node1&#45;&gt;Node2 -->
<g id="edge1_Node000001_Node000002" class="edge">
<title>Node1&#45;&gt;Node2</title>
<g id="a_edge1_Node000001_Node000002"><a xlink:title=" ">
<path fill="none" stroke="#63b8ff" d="M217.25,-189.06C217.25,-180.78 217.25,-172.04 217.25,-163.98"/>
<polygon fill="none" stroke="#63b8ff" points="213.75,-188.83 217.25,-198.83 220.75,-188.83 213.75,-188.83"/>
</a>
</g>
</g>
<!-- Node3 -->
<g id="Node000003" class="node">
<title>Node3</title>
<g id="a_Node000003"><a xlink:href="classcom_1_1hust_1_1ittnk68_1_1cnpm_1_1view_1_1AdminHomeView.html" target="_top" xlink:title=" ">
<polygon fill="white" stroke="none" points="132.5,-64 0,-64 0,0 132.5,0 132.5,-64"/>
<text text-anchor="start" x="4" y="-50.5" font-family="Helvetica,sans-Serif" font-size="10.00">com.hust.ittnk68.cnpm.view.</text>
<text text-anchor="start" x="28.38" y="-38.5" font-family="Helvetica,sans-Serif" font-size="10.00">AdminHomeView</text>
<text text-anchor="start" x="64.75" y="-22.5" font-family="Helvetica,sans-Serif" font-size="10.00"> </text>
<text text-anchor="start" x="12.19" y="-6.5" font-family="Helvetica,sans-Serif" font-size="10.00">+</text>
<text text-anchor="start" x="30.38" y="-6.5" font-family="Helvetica,sans-Serif" font-size="10.00">AdminHomeView()</text>
<polygon fill="#666666" stroke="#666666" points="0,-34 0,-34 132.5,-34 132.5,-34 0,-34"/>
<polygon fill="#666666" stroke="#666666" points="0,-18 0,-18 132.5,-18 132.5,-18 0,-18"/>
<polygon fill="none" stroke="#666666" points="0,0 0,-64 132.5,-64 132.5,0 0,0"/>
</a>
</g>
</g>
<!-- Node2&#45;&gt;Node3 -->
<g id="edge2_Node000002_Node000003" class="edge">
<title>Node2&#45;&gt;Node3</title>
<g id="a_edge2_Node000002_Node000003"><a xlink:title=" ">
<path fill="none" stroke="#63b8ff" d="M160.51,-94.17C145.18,-84.22 128.75,-73.56 113.96,-63.97"/>
<polygon fill="none" stroke="#63b8ff" points="158.32,-96.93 168.62,-99.44 162.13,-91.06 158.32,-96.93"/>
</a>
</g>
</g>
<!-- Node4 -->
<g id="Node000004" class="node">
<title>Node4</title>
<g id="a_Node000004"><a xlink:href="classcom_1_1hust_1_1ittnk68_1_1cnpm_1_1view_1_1ClientHomePage.html" target="_top" xlink:title=" ">
<polygon fill="white" stroke="none" points="283.5,-64 151,-64 151,0 283.5,0 283.5,-64"/>
<text text-anchor="start" x="155" y="-50.5" font-family="Helvetica,sans-Serif" font-size="10.00">com.hust.ittnk68.cnpm.view.</text>
<text text-anchor="start" x="180.12" y="-38.5" font-family="Helvetica,sans-Serif" font-size="10.00">ClientHomePage</text>
<text text-anchor="start" x="215.75" y="-22.5" font-family="Helvetica,sans-Serif" font-size="10.00"> </text>
<text text-anchor="start" x="163.56" y="-6.5" font-family="Helvetica,sans-Serif" font-size="10.00">+</text>
<text text-anchor="start" x="182.12" y="-6.5" font-family="Helvetica,sans-Serif" font-size="10.00">ClientHomePage()</text>
<polygon fill="#666666" stroke="#666666" points="151,-34 151,-34 283.5,-34 283.5,-34 151,-34"/>
<polygon fill="#666666" stroke="#666666" points="151,-18 151,-18 283.5,-18 283.5,-18 151,-18"/>
<polygon fill="none" stroke="#666666" points="151,0 151,-64 283.5,-64 283.5,0 151,0"/>
</a>
</g>
</g>
<!-- Node2&#45;&gt;Node4 -->
<g id="edge3_Node000002_Node000004" class="edge">
<title>Node2&#45;&gt;Node4</title>
<g id="a_edge3_Node000002_Node000004"><a xlink:title=" ">
<path fill="none" stroke="#63b8ff" d="M217.25,-88.77C217.25,-80.44 217.25,-71.84 217.25,-63.97"/>
<polygon fill="none" stroke="#63b8ff" points="213.75,-88.75 217.25,-98.75 220.75,-88.75 213.75,-88.75"/>
</a>
</g>
</g>
<!-- Node5 -->
<g id="Node000005" class="node">
<title>Node5</title>
<g id="a_Node000005"><a xlink:href="classcom_1_1hust_1_1ittnk68_1_1cnpm_1_1view_1_1ClientHomeScreenView.html" target="_top" xlink:title=" ">
<polygon fill="white" stroke="none" points="434.5,-64 302,-64 302,0 434.5,0 434.5,-64"/>
<text text-anchor="start" x="306" y="-50.5" font-family="Helvetica,sans-Serif" font-size="10.00">com.hust.ittnk68.cnpm.view.</text>
<text text-anchor="start" x="316.12" y="-38.5" font-family="Helvetica,sans-Serif" font-size="10.00">ClientHomeScreenView</text>
<text text-anchor="start" x="366.75" y="-22.5" font-family="Helvetica,sans-Serif" font-size="10.00"> </text>
<text text-anchor="start" x="307.06" y="-6.5" font-family="Helvetica,sans-Serif" font-size="10.00">+</text>
<text text-anchor="start" x="318.12" y="-6.5" font-family="Helvetica,sans-Serif" font-size="10.00">ClientHomeScreenView()</text>
<polygon fill="#666666" stroke="#666666" points="302,-34 302,-34 434.5,-34 434.5,-34 302,-34"/>
<polygon fill="#666666" stroke="#666666" points="302,-18 302,-18 434.5,-18 434.5,-18 302,-18"/>
<polygon fill="none" stroke="#666666" points="302,0 302,-64 434.5,-64 434.5,0 302,0"/>
</a>
</g>
</g>
<!-- Node2&#45;&gt;Node5 -->
<g id="edge4_Node000002_Node000005" class="edge">
<title>Node2&#45;&gt;Node5</title>
<g id="a_edge4_Node000002_Node000005"><a xlink:title=" ">
<path fill="none" stroke="#63b8ff" d="M273.99,-94.17C289.32,-84.22 305.75,-73.56 320.54,-63.97"/>
<polygon fill="none" stroke="#63b8ff" points="272.37,-91.06 265.88,-99.44 276.18,-96.93 272.37,-91.06"/>
</a>
</g>
</g>
</g>
</svg>
