<?xml version="1.0" encoding="UTF-8" standalone="no"?>
<!DOCTYPE svg PUBLIC "-//W3C//DTD SVG 1.1//EN"
 "http://www.w3.org/Graphics/SVG/1.1/DTD/svg11.dtd">
<!-- Generated by graphviz version 12.2.1 (20241206.2353)
 -->
<!-- Title: com.hust.ittnk68.cnpm.view.LoginView Pages: 1 -->
<svg width="141pt" height="160pt"
 viewBox="0.00 0.00 140.50 160.00" xmlns="http://www.w3.org/2000/svg" xmlns:xlink="http://www.w3.org/1999/xlink">

<svg id="main" version="1.1" xmlns="http://www.w3.org/2000/svg" xmlns:xlink="http://www.w3.org/1999/xlink" xml:space="preserve">

<style type="text/css"><![CDATA[
.node, .edge {opacity: 0.7;}
.node.selected, .edge.selected {opacity: 1;}
.edge:hover path { stroke: red; }
.edge:hover polygon { stroke: red; fill: red; }
]]></style>
<script type="application/ecmascript" xlink:href="svg.min.js"/>
<svg id="graph" class="graph">
<g id="graph0" class="graph" transform="scale(1 1) rotate(0) translate(4 156)">
<title>com.hust.ittnk68.cnpm.view.LoginView</title>
<!-- Node1 -->
<g id="Node000001" class="node">
<title>Node1</title>
<g id="a_Node000001"><a xlink:title=" ">
<polygon fill="#999999" stroke="none" points="132.5,-64 0,-64 0,0 132.5,0 132.5,-64"/>
<text text-anchor="start" x="4" y="-50.5" font-family="Helvetica,sans-Serif" font-size="10.00">com.hust.ittnk68.cnpm.view.</text>
<text text-anchor="start" x="43.75" y="-38.5" font-family="Helvetica,sans-Serif" font-size="10.00">LoginView</text>
<text text-anchor="start" x="64.75" y="-22.5" font-family="Helvetica,sans-Serif" font-size="10.00"> </text>
<text text-anchor="start" x="19.88" y="-6.5" font-family="Helvetica,sans-Serif" font-size="10.00">+</text>
<text text-anchor="start" x="45.75" y="-6.5" font-family="Helvetica,sans-Serif" font-size="10.00">LoginView()</text>
<polygon fill="#666666" stroke="#666666" points="0,-34 0,-34 132.5,-34 132.5,-34 0,-34"/>
<polygon fill="#666666" stroke="#666666" points="0,-18 0,-18 132.5,-18 132.5,-18 0,-18"/>
<polygon fill="none" stroke="#666666" points="0,0 0,-64 132.5,-64 132.5,0 0,0"/>
</a>
</g>
</g>
<!-- Node2 -->
<g id="Node000002" class="node">
<title>Node2</title>
<g id="a_Node000002"><a xlink:href="classBorderPane.html" target="_top" xlink:title=" ">
<polygon fill="white" stroke="none" points="95.75,-152 36.75,-152 36.75,-100 95.75,-100 95.75,-152"/>
<text text-anchor="start" x="40.75" y="-138.5" font-family="Helvetica,sans-Serif" font-size="10.00">BorderPane</text>
<text text-anchor="start" x="64.75" y="-122.5" font-family="Helvetica,sans-Serif" font-size="10.00"> </text>
<text text-anchor="start" x="64.75" y="-106.5" font-family="Helvetica,sans-Serif" font-size="10.00"> </text>
<polygon fill="#666666" stroke="#666666" points="36.75,-134 36.75,-134 95.75,-134 95.75,-134 36.75,-134"/>
<polygon fill="#666666" stroke="#666666" points="36.75,-118 36.75,-118 95.75,-118 95.75,-118 36.75,-118"/>
<polygon fill="none" stroke="#666666" points="36.75,-100 36.75,-152 95.75,-152 95.75,-100 36.75,-100"/>
</a>
</g>
</g>
<!-- Node2&#45;&gt;Node1 -->
<g id="edge1_Node000001_Node000002" class="edge">
<title>Node2&#45;&gt;Node1</title>
<g id="a_edge1_Node000001_Node000002"><a xlink:title=" ">
<path fill="none" stroke="#63b8ff" d="M66.25,-89.06C66.25,-80.78 66.25,-72.04 66.25,-63.98"/>
<polygon fill="none" stroke="#63b8ff" points="62.75,-88.83 66.25,-98.83 69.75,-88.83 62.75,-88.83"/>
</a>
</g>
</g>
</g>
</svg>
</svg>

<style type='text/css'>
<![CDATA[
[data-mouse-over-selected='false'] { opacity: 0.7; }
[data-mouse-over-selected='true']  { opacity: 1.0; }
]]>
</style>
<script type="application/ecmascript"><![CDATA[
document.addEventListener('DOMContentLoaded', (event) => {
  highlightEdges();
  highlightAdjacentNodes();
});
]]></script>
</svg>
