<?xml version="1.0" encoding="UTF-8" standalone="no"?>
<!DOCTYPE svg PUBLIC "-//W3C//DTD SVG 1.1//EN"
 "http://www.w3.org/Graphics/SVG/1.1/DTD/svg11.dtd">
<!-- Generated by graphviz version 12.2.1 (20241206.2353)
 -->
<!-- Title: com.hust.ittnk68.cnpm.communication.AdminFindObject Pages: 1 -->
<svg width="188pt" height="268pt"
 viewBox="0.00 0.00 187.75 268.00" xmlns="http://www.w3.org/2000/svg" xmlns:xlink="http://www.w3.org/1999/xlink">
<g id="graph0" class="graph" transform="scale(1 1) rotate(0) translate(4 264)">
<title>com.hust.ittnk68.cnpm.communication.AdminFindObject</title>
<!-- Node1 -->
<g id="Node000001" class="node">
<title>Node1</title>
<g id="a_Node000001"><a xlink:title=" ">
<polygon fill="#999999" stroke="none" points="179.75,-128 0,-128 0,0 179.75,0 179.75,-128"/>
<text text-anchor="start" x="4" y="-114.5" font-family="Helvetica,sans-Serif" font-size="10.00">com.hust.ittnk68.cnpm.communication.</text>
<text text-anchor="start" x="52.38" y="-102.5" font-family="Helvetica,sans-Serif" font-size="10.00">AdminFindObject</text>
<text text-anchor="start" x="88.38" y="-86.5" font-family="Helvetica,sans-Serif" font-size="10.00"> </text>
<text text-anchor="start" x="24.19" y="-70.5" font-family="Helvetica,sans-Serif" font-size="10.00">+</text>
<text text-anchor="start" x="54.38" y="-70.5" font-family="Helvetica,sans-Serif" font-size="10.00">AdminFindObject()</text>
<text text-anchor="start" x="24.19" y="-54.5" font-family="Helvetica,sans-Serif" font-size="10.00">+</text>
<text text-anchor="start" x="54.38" y="-54.5" font-family="Helvetica,sans-Serif" font-size="10.00">getCondition()</text>
<text text-anchor="start" x="24.19" y="-38.5" font-family="Helvetica,sans-Serif" font-size="10.00">+</text>
<text text-anchor="start" x="54.38" y="-38.5" font-family="Helvetica,sans-Serif" font-size="10.00">setCondition()</text>
<text text-anchor="start" x="24.19" y="-22.5" font-family="Helvetica,sans-Serif" font-size="10.00">+</text>
<text text-anchor="start" x="54.38" y="-22.5" font-family="Helvetica,sans-Serif" font-size="10.00">getObject()</text>
<text text-anchor="start" x="24.19" y="-6.5" font-family="Helvetica,sans-Serif" font-size="10.00">+</text>
<text text-anchor="start" x="54.38" y="-6.5" font-family="Helvetica,sans-Serif" font-size="10.00">setObject()</text>
<polygon fill="#666666" stroke="#666666" points="0,-98 0,-98 179.75,-98 179.75,-98 0,-98"/>
<polygon fill="#666666" stroke="#666666" points="0,-82 0,-82 179.75,-82 179.75,-82 0,-82"/>
<polygon fill="none" stroke="#666666" points="0,0 0,-128 179.75,-128 179.75,0 0,0"/>
</a>
</g>
</g>
<!-- Node2 -->
<g id="Node000002" class="node">
<title>Node2</title>
<g id="a_Node000002"><a xlink:href="classcom_1_1hust_1_1ittnk68_1_1cnpm_1_1communication_1_1ClientMessageBase.html" target="_top" xlink:title=" ">
<polygon fill="white" stroke="none" points="179.75,-260 0,-260 0,-164 179.75,-164 179.75,-260"/>
<text text-anchor="start" x="4" y="-246.5" font-family="Helvetica,sans-Serif" font-size="10.00">com.hust.ittnk68.cnpm.communication.</text>
<text text-anchor="start" x="46" y="-234.5" font-family="Helvetica,sans-Serif" font-size="10.00">ClientMessageBase</text>
<text text-anchor="start" x="88.38" y="-218.5" font-family="Helvetica,sans-Serif" font-size="10.00"> </text>
<text text-anchor="start" x="21" y="-202.5" font-family="Helvetica,sans-Serif" font-size="10.00">+</text>
<text text-anchor="start" x="48" y="-202.5" font-family="Helvetica,sans-Serif" font-size="10.00">getToken()</text>
<text text-anchor="start" x="21" y="-186.5" font-family="Helvetica,sans-Serif" font-size="10.00">+</text>
<text text-anchor="start" x="48" y="-186.5" font-family="Helvetica,sans-Serif" font-size="10.00">setToken()</text>
<text text-anchor="start" x="21" y="-170.5" font-family="Helvetica,sans-Serif" font-size="10.00">~</text>
<text text-anchor="start" x="48" y="-170.5" font-family="Helvetica,sans-Serif" font-size="10.00">ClientMessageBase()</text>
<polygon fill="#666666" stroke="#666666" points="0,-230 0,-230 179.75,-230 179.75,-230 0,-230"/>
<polygon fill="#666666" stroke="#666666" points="0,-214 0,-214 179.75,-214 179.75,-214 0,-214"/>
<polygon fill="none" stroke="#666666" points="0,-164 0,-260 179.75,-260 179.75,-164 0,-164"/>
</a>
</g>
</g>
<!-- Node2&#45;&gt;Node1 -->
<g id="edge1_Node000001_Node000002" class="edge">
<title>Node2&#45;&gt;Node1</title>
<g id="a_edge1_Node000001_Node000002"><a xlink:title=" ">
<path fill="none" stroke="#63b8ff" d="M89.88,-152.69C89.88,-144.53 89.88,-136.12 89.88,-127.89"/>
<polygon fill="none" stroke="#63b8ff" points="86.38,-152.49 89.88,-162.49 93.38,-152.49 86.38,-152.49"/>
</a>
</g>
</g>
</g>
</svg>
