<?xml version="1.0" encoding="UTF-8" standalone="no"?>
<!DOCTYPE svg PUBLIC "-//W3C//DTD SVG 1.1//EN"
 "http://www.w3.org/Graphics/SVG/1.1/DTD/svg11.dtd">
<!-- Generated by graphviz version 12.2.1 (20241206.2353)
 -->
<!-- Title: com.hust.ittnk68.cnpm.communication.ServerResponseStartSession Pages: 1 -->
<svg width="390pt" height="328pt"
 viewBox="0.00 0.00 390.12 328.00" xmlns="http://www.w3.org/2000/svg" xmlns:xlink="http://www.w3.org/1999/xlink">
<g id="graph0" class="graph" transform="scale(1 1) rotate(0) translate(4 324)">
<title>com.hust.ittnk68.cnpm.communication.ServerResponseStartSession</title>
<!-- Node1 -->
<g id="Node000001" class="node">
<title>Node1</title>
<g id="a_Node000001"><a xlink:title=" ">
<polygon fill="#999999" stroke="none" points="304.75,-128 125,-128 125,0 304.75,0 304.75,-128"/>
<text text-anchor="start" x="129" y="-114.5" font-family="Helvetica,sans-Serif" font-size="10.00">com.hust.ittnk68.cnpm.communication.</text>
<text text-anchor="start" x="150.38" y="-102.5" font-family="Helvetica,sans-Serif" font-size="10.00">ServerResponseStartSession</text>
<text text-anchor="start" x="213.38" y="-86.5" font-family="Helvetica,sans-Serif" font-size="10.00"> </text>
<text text-anchor="start" x="135.69" y="-70.5" font-family="Helvetica,sans-Serif" font-size="10.00">+</text>
<text text-anchor="start" x="152.38" y="-70.5" font-family="Helvetica,sans-Serif" font-size="10.00">ServerResponseStartSession()</text>
<text text-anchor="start" x="135.69" y="-54.5" font-family="Helvetica,sans-Serif" font-size="10.00">+</text>
<text text-anchor="start" x="152.38" y="-54.5" font-family="Helvetica,sans-Serif" font-size="10.00">getToken()</text>
<text text-anchor="start" x="135.69" y="-38.5" font-family="Helvetica,sans-Serif" font-size="10.00">+</text>
<text text-anchor="start" x="152.38" y="-38.5" font-family="Helvetica,sans-Serif" font-size="10.00">setToken()</text>
<text text-anchor="start" x="135.69" y="-22.5" font-family="Helvetica,sans-Serif" font-size="10.00">+</text>
<text text-anchor="start" x="152.38" y="-22.5" font-family="Helvetica,sans-Serif" font-size="10.00">getAccountType()</text>
<text text-anchor="start" x="135.69" y="-6.5" font-family="Helvetica,sans-Serif" font-size="10.00">+</text>
<text text-anchor="start" x="152.38" y="-6.5" font-family="Helvetica,sans-Serif" font-size="10.00">setAccountType()</text>
<polygon fill="#666666" stroke="#666666" points="125,-98 125,-98 304.75,-98 304.75,-98 125,-98"/>
<polygon fill="#666666" stroke="#666666" points="125,-82 125,-82 304.75,-82 304.75,-82 125,-82"/>
<polygon fill="none" stroke="#666666" points="125,0 125,-128 304.75,-128 304.75,0 125,0"/>
</a>
</g>
</g>
<!-- Node2 -->
<g id="Node000002" class="node">
<title>Node2</title>
<g id="a_Node000002"><a xlink:href="classcom_1_1hust_1_1ittnk68_1_1cnpm_1_1communication_1_1ServerResponseBase.html" target="_top" xlink:title=" ">
<polygon fill="white" stroke="none" points="179.75,-312 0,-312 0,-184 179.75,-184 179.75,-312"/>
<text text-anchor="start" x="4" y="-298.5" font-family="Helvetica,sans-Serif" font-size="10.00">com.hust.ittnk68.cnpm.communication.</text>
<text text-anchor="start" x="42.25" y="-286.5" font-family="Helvetica,sans-Serif" font-size="10.00">ServerResponseBase</text>
<text text-anchor="start" x="88.38" y="-270.5" font-family="Helvetica,sans-Serif" font-size="10.00"> </text>
<text text-anchor="start" x="18.56" y="-254.5" font-family="Helvetica,sans-Serif" font-size="10.00">+</text>
<text text-anchor="start" x="43.12" y="-254.5" font-family="Helvetica,sans-Serif" font-size="10.00">ServerResponseBase()</text>
<text text-anchor="start" x="18.56" y="-238.5" font-family="Helvetica,sans-Serif" font-size="10.00">+</text>
<text text-anchor="start" x="43.12" y="-238.5" font-family="Helvetica,sans-Serif" font-size="10.00">getResponseStatus()</text>
<text text-anchor="start" x="18.56" y="-222.5" font-family="Helvetica,sans-Serif" font-size="10.00">+</text>
<text text-anchor="start" x="43.12" y="-222.5" font-family="Helvetica,sans-Serif" font-size="10.00">setResponseStatus()</text>
<text text-anchor="start" x="18.56" y="-206.5" font-family="Helvetica,sans-Serif" font-size="10.00">+</text>
<text text-anchor="start" x="43.12" y="-206.5" font-family="Helvetica,sans-Serif" font-size="10.00">getResponseMessage()</text>
<text text-anchor="start" x="18.56" y="-190.5" font-family="Helvetica,sans-Serif" font-size="10.00">+</text>
<text text-anchor="start" x="43.12" y="-190.5" font-family="Helvetica,sans-Serif" font-size="10.00">setResponseMessage()</text>
<polygon fill="#666666" stroke="#666666" points="0,-282 0,-282 179.75,-282 179.75,-282 0,-282"/>
<polygon fill="#666666" stroke="#666666" points="0,-266 0,-266 179.75,-266 179.75,-266 0,-266"/>
<polygon fill="none" stroke="#666666" points="0,-184 0,-312 179.75,-312 179.75,-184 0,-184"/>
</a>
</g>
</g>
<!-- Node2&#45;&gt;Node1 -->
<g id="edge1_Node000001_Node000002" class="edge">
<title>Node2&#45;&gt;Node1</title>
<g id="a_edge1_Node000001_Node000002"><a xlink:title=" ">
<path fill="none" stroke="#63b8ff" d="M139.3,-175.04C150,-159.46 161.24,-143.09 171.68,-127.89"/>
<polygon fill="none" stroke="#63b8ff" points="136.7,-172.64 133.92,-182.86 142.47,-176.6 136.7,-172.64"/>
</a>
</g>
</g>
<!-- Node3 -->
<g id="Node000003" class="node">
<title>Node3</title>
<g id="a_Node000003"><a xlink:title=" ">
<polygon fill="white" stroke="none" points="231.62,-274 198.12,-274 198.12,-222 231.62,-222 231.62,-274"/>
<text text-anchor="start" x="202.12" y="-260.5" font-family="Helvetica,sans-Serif" font-size="10.00">String</text>
<text text-anchor="start" x="213.38" y="-244.5" font-family="Helvetica,sans-Serif" font-size="10.00"> </text>
<text text-anchor="start" x="213.38" y="-228.5" font-family="Helvetica,sans-Serif" font-size="10.00"> </text>
<polygon fill="#666666" stroke="#666666" points="198.12,-256 198.12,-256 231.62,-256 231.62,-256 198.12,-256"/>
<polygon fill="#666666" stroke="#666666" points="198.12,-240 198.12,-240 231.62,-240 231.62,-240 198.12,-240"/>
<polygon fill="none" stroke="#666666" points="198.12,-222 198.12,-274 231.62,-274 231.62,-222 198.12,-222"/>
</a>
</g>
</g>
<!-- Node3&#45;&gt;Node1 -->
<g id="edge2_Node000001_Node000003" class="edge">
<title>Node3&#45;&gt;Node1</title>
<g id="a_edge2_Node000001_Node000003"><a xlink:title=" ">
<path fill="none" stroke="#63b8ff" d="M214.88,-222.08C214.88,-201.04 214.88,-169.8 214.88,-140.7"/>
<polygon fill="none" stroke="#63b8ff" points="214.88,-140.86 210.88,-134.86 214.88,-128.86 218.88,-134.86 214.88,-140.86"/>
</a>
</g>
<text text-anchor="middle" x="231.38" y="-148.5" font-family="Helvetica,sans-Serif" font-size="10.00" fill="grey"> ~token</text>
</g>
<!-- Node4 -->
<g id="Node000004" class="node">
<title>Node4</title>
<g id="a_Node000004"><a xlink:href="enumcom_1_1hust_1_1ittnk68_1_1cnpm_1_1type_1_1AccountType.html" target="_top" xlink:title=" ">
<polygon fill="white" stroke="none" points="382.12,-320 249.62,-320 249.62,-176 382.12,-176 382.12,-320"/>
<text text-anchor="start" x="253.62" y="-306.5" font-family="Helvetica,sans-Serif" font-size="10.00">com.hust.ittnk68.cnpm.type.</text>
<text text-anchor="start" x="287.38" y="-294.5" font-family="Helvetica,sans-Serif" font-size="10.00">AccountType</text>
<text text-anchor="start" x="264.62" y="-278.5" font-family="Helvetica,sans-Serif" font-size="10.00">+</text>
<text text-anchor="start" x="285.62" y="-278.5" font-family="Helvetica,sans-Serif" font-size="10.00">ROOT</text>
<text text-anchor="start" x="264.62" y="-262.5" font-family="Helvetica,sans-Serif" font-size="10.00">+</text>
<text text-anchor="start" x="285.62" y="-262.5" font-family="Helvetica,sans-Serif" font-size="10.00">ADMIN</text>
<text text-anchor="start" x="264.62" y="-246.5" font-family="Helvetica,sans-Serif" font-size="10.00">+</text>
<text text-anchor="start" x="285.62" y="-246.5" font-family="Helvetica,sans-Serif" font-size="10.00">USER</text>
<text text-anchor="start" x="264.62" y="-230.5" font-family="Helvetica,sans-Serif" font-size="10.00">+</text>
<text text-anchor="start" x="285.62" y="-230.5" font-family="Helvetica,sans-Serif" font-size="10.00">UNVALID</text>
<text text-anchor="start" x="264.62" y="-214.5" font-family="Helvetica,sans-Serif" font-size="10.00">+</text>
<text text-anchor="start" x="285.62" y="-214.5" font-family="Helvetica,sans-Serif" font-size="10.00">AccountType()</text>
<text text-anchor="start" x="264.62" y="-198.5" font-family="Helvetica,sans-Serif" font-size="10.00">+</text>
<text text-anchor="start" x="285.62" y="-198.5" font-family="Helvetica,sans-Serif" font-size="10.00">toString()</text>
<text text-anchor="start" x="264.62" y="-182.5" font-family="Helvetica,sans-Serif" font-size="10.00">+</text>
<text text-anchor="start" x="285.62" y="-182.5" font-family="Helvetica,sans-Serif" font-size="10.00">matchByString()</text>
<polygon fill="#666666" stroke="#666666" points="249.62,-290 249.62,-290 382.12,-290 382.12,-290 249.62,-290"/>
<polygon fill="#666666" stroke="#666666" points="249.62,-226 249.62,-226 283.62,-226 283.62,-226 249.62,-226"/>
<polygon fill="#666666" stroke="#666666" points="283.62,-226 283.62,-226 382.12,-226 382.12,-226 283.62,-226"/>
<polygon fill="none" stroke="#666666" points="249.62,-176 249.62,-320 382.12,-320 382.12,-176 249.62,-176"/>
</a>
</g>
</g>
<!-- Node4&#45;&gt;Node1 -->
<g id="edge3_Node000001_Node000004" class="edge">
<title>Node4&#45;&gt;Node1</title>
<g id="a_edge3_Node000001_Node000004"><a xlink:title=" ">
<path fill="none" stroke="#63b8ff" d="M276.54,-176.11C269.79,-163.96 262.77,-151.31 255.98,-139.08"/>
<polygon fill="none" stroke="#63b8ff" points="256.09,-139.27 249.68,-135.97 250.27,-128.78 256.68,-132.08 256.09,-139.27"/>
</a>
</g>
<text text-anchor="middle" x="297.62" y="-148.5" font-family="Helvetica,sans-Serif" font-size="10.00" fill="grey"> ~accountType</text>
</g>
</g>
</svg>
