<?xml version="1.0" encoding="UTF-8" standalone="no"?>
<!DOCTYPE svg PUBLIC "-//W3C//DTD SVG 1.1//EN"
 "http://www.w3.org/Graphics/SVG/1.1/DTD/svg11.dtd">
<!-- Generated by graphviz version 12.2.1 (20241206.2353)
 -->
<!-- Title: HBox Pages: 1 -->
<svg width="292pt" height="160pt"
 viewBox="0.00 0.00 291.50 160.00" xmlns="http://www.w3.org/2000/svg" xmlns:xlink="http://www.w3.org/1999/xlink">
<g id="graph0" class="graph" transform="scale(1 1) rotate(0) translate(4 156)">
<title>HBox</title>
<!-- Node1 -->
<g id="Node000001" class="node">
<title>Node1</title>
<g id="a_Node000001"><a xlink:title=" ">
<polygon fill="#999999" stroke="none" points="157.62,-152 124.88,-152 124.88,-100 157.62,-100 157.62,-152"/>
<text text-anchor="start" x="128.88" y="-138.5" font-family="Helvetica,sans-Serif" font-size="10.00">HBox</text>
<text text-anchor="start" x="139.75" y="-122.5" font-family="Helvetica,sans-Serif" font-size="10.00"> </text>
<text text-anchor="start" x="139.75" y="-106.5" font-family="Helvetica,sans-Serif" font-size="10.00"> </text>
<polygon fill="#666666" stroke="#666666" points="124.88,-134 124.88,-134 157.62,-134 157.62,-134 124.88,-134"/>
<polygon fill="#666666" stroke="#666666" points="124.88,-118 124.88,-118 157.62,-118 157.62,-118 124.88,-118"/>
<polygon fill="none" stroke="#666666" points="124.88,-100 124.88,-152 157.62,-152 157.62,-100 124.88,-100"/>
</a>
</g>
</g>
<!-- Node2 -->
<g id="Node000002" class="node">
<title>Node2</title>
<g id="a_Node000002"><a xlink:href="classcom_1_1hust_1_1ittnk68_1_1cnpm_1_1view_1_1ClientDonationPage.html" target="_top" xlink:title=" ">
<polygon fill="white" stroke="none" points="132.5,-64 0,-64 0,0 132.5,0 132.5,-64"/>
<text text-anchor="start" x="4" y="-50.5" font-family="Helvetica,sans-Serif" font-size="10.00">com.hust.ittnk68.cnpm.view.</text>
<text text-anchor="start" x="22.75" y="-38.5" font-family="Helvetica,sans-Serif" font-size="10.00">ClientDonationPage</text>
<text text-anchor="start" x="64.75" y="-22.5" font-family="Helvetica,sans-Serif" font-size="10.00"> </text>
<text text-anchor="start" x="9.38" y="-6.5" font-family="Helvetica,sans-Serif" font-size="10.00">+</text>
<text text-anchor="start" x="24.75" y="-6.5" font-family="Helvetica,sans-Serif" font-size="10.00">ClientDonationPage()</text>
<polygon fill="#666666" stroke="#666666" points="0,-34 0,-34 132.5,-34 132.5,-34 0,-34"/>
<polygon fill="#666666" stroke="#666666" points="0,-18 0,-18 132.5,-18 132.5,-18 0,-18"/>
<polygon fill="none" stroke="#666666" points="0,0 0,-64 132.5,-64 132.5,0 0,0"/>
</a>
</g>
</g>
<!-- Node1&#45;&gt;Node2 -->
<g id="edge1_Node000001_Node000002" class="edge">
<title>Node1&#45;&gt;Node2</title>
<g id="a_edge1_Node000001_Node000002"><a xlink:title=" ">
<path fill="none" stroke="#63b8ff" d="M117.91,-96.36C109.47,-86.02 99.92,-74.3 91.34,-63.78"/>
<polygon fill="none" stroke="#63b8ff" points="114.99,-98.32 124.02,-103.86 120.41,-93.9 114.99,-98.32"/>
</a>
</g>
</g>
<!-- Node3 -->
<g id="Node000003" class="node">
<title>Node3</title>
<g id="a_Node000003"><a xlink:href="classcom_1_1hust_1_1ittnk68_1_1cnpm_1_1view_1_1ClientFamilyPage.html" target="_top" xlink:title=" ">
<polygon fill="white" stroke="none" points="283.5,-64 151,-64 151,0 283.5,0 283.5,-64"/>
<text text-anchor="start" x="155" y="-50.5" font-family="Helvetica,sans-Serif" font-size="10.00">com.hust.ittnk68.cnpm.view.</text>
<text text-anchor="start" x="178.62" y="-38.5" font-family="Helvetica,sans-Serif" font-size="10.00">ClientFamilyPage</text>
<text text-anchor="start" x="215.75" y="-22.5" font-family="Helvetica,sans-Serif" font-size="10.00"> </text>
<text text-anchor="start" x="162.81" y="-6.5" font-family="Helvetica,sans-Serif" font-size="10.00">+</text>
<text text-anchor="start" x="180.62" y="-6.5" font-family="Helvetica,sans-Serif" font-size="10.00">ClientFamilyPage()</text>
<polygon fill="#666666" stroke="#666666" points="151,-34 151,-34 283.5,-34 283.5,-34 151,-34"/>
<polygon fill="#666666" stroke="#666666" points="151,-18 151,-18 283.5,-18 283.5,-18 151,-18"/>
<polygon fill="none" stroke="#666666" points="151,0 151,-64 283.5,-64 283.5,0 151,0"/>
</a>
</g>
</g>
<!-- Node1&#45;&gt;Node3 -->
<g id="edge2_Node000001_Node000003" class="edge">
<title>Node1&#45;&gt;Node3</title>
<g id="a_edge2_Node000001_Node000003"><a xlink:title=" ">
<path fill="none" stroke="#63b8ff" d="M164.6,-96.74C173.24,-86.28 183.07,-74.37 191.88,-63.71"/>
<polygon fill="none" stroke="#63b8ff" points="162,-94.38 158.33,-104.32 167.4,-98.84 162,-94.38"/>
</a>
</g>
</g>
</g>
</svg>
