<?xml version="1.0" encoding="UTF-8" standalone="no"?>
<!DOCTYPE svg PUBLIC "-//W3C//DTD SVG 1.1//EN"
 "http://www.w3.org/Graphics/SVG/1.1/DTD/svg11.dtd">
<!-- Generated by graphviz version 12.2.1 (20241206.2353)
 -->
<!-- Title: com.hust.ittnk68.cnpm.exception.UserCreateSecondSession Pages: 1 -->
<svg width="164pt" height="160pt"
 viewBox="0.00 0.00 163.75 160.00" xmlns="http://www.w3.org/2000/svg" xmlns:xlink="http://www.w3.org/1999/xlink">
<g id="graph0" class="graph" transform="scale(1 1) rotate(0) translate(4 156)">
<title>com.hust.ittnk68.cnpm.exception.UserCreateSecondSession</title>
<!-- Node1 -->
<g id="Node000001" class="node">
<title>Node1</title>
<g id="a_Node000001"><a xlink:title=" ">
<polygon fill="#999999" stroke="none" points="155.75,-64 0,-64 0,0 155.75,0 155.75,-64"/>
<text text-anchor="start" x="4" y="-50.5" font-family="Helvetica,sans-Serif" font-size="10.00">com.hust.ittnk68.cnpm.exception.</text>
<text text-anchor="start" x="18.62" y="-38.5" font-family="Helvetica,sans-Serif" font-size="10.00">UserCreateSecondSession</text>
<text text-anchor="start" x="76.38" y="-22.5" font-family="Helvetica,sans-Serif" font-size="10.00"> </text>
<text text-anchor="start" x="7.31" y="-6.5" font-family="Helvetica,sans-Serif" font-size="10.00">+</text>
<text text-anchor="start" x="20.62" y="-6.5" font-family="Helvetica,sans-Serif" font-size="10.00">UserCreateSecondSession()</text>
<polygon fill="#666666" stroke="#666666" points="0,-34 0,-34 155.75,-34 155.75,-34 0,-34"/>
<polygon fill="#666666" stroke="#666666" points="0,-18 0,-18 155.75,-18 155.75,-18 0,-18"/>
<polygon fill="none" stroke="#666666" points="0,0 0,-64 155.75,-64 155.75,0 0,0"/>
</a>
</g>
</g>
<!-- Node2 -->
<g id="Node000002" class="node">
<title>Node2</title>
<g id="a_Node000002"><a xlink:href="classException.html" target="_top" xlink:title=" ">
<polygon fill="white" stroke="none" points="103.62,-152 52.12,-152 52.12,-100 103.62,-100 103.62,-152"/>
<text text-anchor="start" x="56.12" y="-138.5" font-family="Helvetica,sans-Serif" font-size="10.00">Exception</text>
<text text-anchor="start" x="76.38" y="-122.5" font-family="Helvetica,sans-Serif" font-size="10.00"> </text>
<text text-anchor="start" x="76.38" y="-106.5" font-family="Helvetica,sans-Serif" font-size="10.00"> </text>
<polygon fill="#666666" stroke="#666666" points="52.12,-134 52.12,-134 103.62,-134 103.62,-134 52.12,-134"/>
<polygon fill="#666666" stroke="#666666" points="52.12,-118 52.12,-118 103.62,-118 103.62,-118 52.12,-118"/>
<polygon fill="none" stroke="#666666" points="52.12,-100 52.12,-152 103.62,-152 103.62,-100 52.12,-100"/>
</a>
</g>
</g>
<!-- Node2&#45;&gt;Node1 -->
<g id="edge1_Node000001_Node000002" class="edge">
<title>Node2&#45;&gt;Node1</title>
<g id="a_edge1_Node000001_Node000002"><a xlink:title=" ">
<path fill="none" stroke="#63b8ff" d="M77.88,-89.06C77.88,-80.78 77.88,-72.04 77.88,-63.98"/>
<polygon fill="none" stroke="#63b8ff" points="74.38,-88.83 77.88,-98.83 81.38,-88.83 74.38,-88.83"/>
</a>
</g>
</g>
</g>
</svg>
