<?xml version="1.0" encoding="UTF-8" standalone="no"?>
<!DOCTYPE svg PUBLIC "-//W3C//DTD SVG 1.1//EN"
 "http://www.w3.org/Graphics/SVG/1.1/DTD/svg11.dtd">
<!-- Generated by graphviz version 12.2.1 (20241206.2353)
 -->
<!-- Title: com.hust.ittnk68.cnpm.view.AdminAccountManagePage Pages: 1 -->
<svg width="153pt" height="260pt"
 viewBox="0.00 0.00 152.75 260.00" xmlns="http://www.w3.org/2000/svg" xmlns:xlink="http://www.w3.org/1999/xlink">
<g id="graph0" class="graph" transform="scale(1 1) rotate(0) translate(4 256)">
<title>com.hust.ittnk68.cnpm.view.AdminAccountManagePage</title>
<!-- Node1 -->
<g id="Node000001" class="node">
<title>Node1</title>
<g id="a_Node000001"><a xlink:title=" ">
<polygon fill="#999999" stroke="none" points="144.75,-64 0,-64 0,0 144.75,0 144.75,-64"/>
<text text-anchor="start" x="10.12" y="-50.5" font-family="Helvetica,sans-Serif" font-size="10.00">com.hust.ittnk68.cnpm.view.</text>
<text text-anchor="start" x="12" y="-38.5" font-family="Helvetica,sans-Serif" font-size="10.00">AdminAccountManagePage</text>
<text text-anchor="start" x="70.88" y="-22.5" font-family="Helvetica,sans-Serif" font-size="10.00"> </text>
<text text-anchor="start" x="4" y="-6.5" font-family="Helvetica,sans-Serif" font-size="10.00">+</text>
<text text-anchor="start" x="14" y="-6.5" font-family="Helvetica,sans-Serif" font-size="10.00">AdminAccountManagePage()</text>
<polygon fill="#666666" stroke="#666666" points="0,-34 0,-34 144.75,-34 144.75,-34 0,-34"/>
<polygon fill="#666666" stroke="#666666" points="0,-18 0,-18 144.75,-18 144.75,-18 0,-18"/>
<polygon fill="none" stroke="#666666" points="0,0 0,-64 144.75,-64 144.75,0 0,0"/>
</a>
</g>
</g>
<!-- Node2 -->
<g id="Node000002" class="node">
<title>Node2</title>
<g id="a_Node000002"><a xlink:href="classcom_1_1hust_1_1ittnk68_1_1cnpm_1_1view_1_1DuongFXTabPane.html" target="_top" xlink:title=" ">
<polygon fill="white" stroke="none" points="138.62,-164 6.12,-164 6.12,-100 138.62,-100 138.62,-164"/>
<text text-anchor="start" x="10.12" y="-150.5" font-family="Helvetica,sans-Serif" font-size="10.00">com.hust.ittnk68.cnpm.view.</text>
<text text-anchor="start" x="32.62" y="-138.5" font-family="Helvetica,sans-Serif" font-size="10.00">DuongFXTabPane</text>
<text text-anchor="start" x="70.88" y="-122.5" font-family="Helvetica,sans-Serif" font-size="10.00"> </text>
<text text-anchor="start" x="17.38" y="-106.5" font-family="Helvetica,sans-Serif" font-size="10.00">+</text>
<text text-anchor="start" x="34.62" y="-106.5" font-family="Helvetica,sans-Serif" font-size="10.00">DuongFXTabPane()</text>
<polygon fill="#666666" stroke="#666666" points="6.12,-134 6.12,-134 138.62,-134 138.62,-134 6.12,-134"/>
<polygon fill="#666666" stroke="#666666" points="6.12,-118 6.12,-118 138.62,-118 138.62,-118 6.12,-118"/>
<polygon fill="none" stroke="#666666" points="6.12,-100 6.12,-164 138.62,-164 138.62,-100 6.12,-100"/>
</a>
</g>
</g>
<!-- Node2&#45;&gt;Node1 -->
<g id="edge1_Node000001_Node000002" class="edge">
<title>Node2&#45;&gt;Node1</title>
<g id="a_edge1_Node000001_Node000002"><a xlink:title=" ">
<path fill="none" stroke="#63b8ff" d="M72.38,-88.77C72.38,-80.44 72.38,-71.84 72.38,-63.97"/>
<polygon fill="none" stroke="#63b8ff" points="68.88,-88.75 72.38,-98.75 75.88,-88.75 68.88,-88.75"/>
</a>
</g>
</g>
<!-- Node3 -->
<g id="Node000003" class="node">
<title>Node3</title>
<g id="a_Node000003"><a xlink:href="classTabPane.html" target="_top" xlink:title=" ">
<polygon fill="white" stroke="none" points="95.5,-252 49.25,-252 49.25,-200 95.5,-200 95.5,-252"/>
<text text-anchor="start" x="53.25" y="-238.5" font-family="Helvetica,sans-Serif" font-size="10.00">TabPane</text>
<text text-anchor="start" x="70.88" y="-222.5" font-family="Helvetica,sans-Serif" font-size="10.00"> </text>
<text text-anchor="start" x="70.88" y="-206.5" font-family="Helvetica,sans-Serif" font-size="10.00"> </text>
<polygon fill="#666666" stroke="#666666" points="49.25,-234 49.25,-234 95.5,-234 95.5,-234 49.25,-234"/>
<polygon fill="#666666" stroke="#666666" points="49.25,-218 49.25,-218 95.5,-218 95.5,-218 49.25,-218"/>
<polygon fill="none" stroke="#666666" points="49.25,-200 49.25,-252 95.5,-252 95.5,-200 49.25,-200"/>
</a>
</g>
</g>
<!-- Node3&#45;&gt;Node2 -->
<g id="edge2_Node000002_Node000003" class="edge">
<title>Node3&#45;&gt;Node2</title>
<g id="a_edge2_Node000002_Node000003"><a xlink:title=" ">
<path fill="none" stroke="#63b8ff" d="M72.38,-189.06C72.38,-180.78 72.38,-172.04 72.38,-163.98"/>
<polygon fill="none" stroke="#63b8ff" points="68.88,-188.83 72.38,-198.83 75.88,-188.83 68.88,-188.83"/>
</a>
</g>
</g>
</g>
</svg>
