<?xml version="1.0" encoding="UTF-8" standalone="no"?>
<!DOCTYPE svg PUBLIC "-//W3C//DTD SVG 1.1//EN"
 "http://www.w3.org/Graphics/SVG/1.1/DTD/svg11.dtd">
<!-- Generated by graphviz version 12.2.1 (20241206.2353)
 -->
<!-- Title: com.hust.ittnk68.cnpm.communication.AdminCreateObject Pages: 1 -->
<svg width="390pt" height="328pt"
 viewBox="0.00 0.00 389.75 328.00" xmlns="http://www.w3.org/2000/svg" xmlns:xlink="http://www.w3.org/1999/xlink">

<svg id="main" version="1.1" xmlns="http://www.w3.org/2000/svg" xmlns:xlink="http://www.w3.org/1999/xlink" xml:space="preserve">

<style type="text/css"><![CDATA[
.node, .edge {opacity: 0.7;}
.node.selected, .edge.selected {opacity: 1;}
.edge:hover path { stroke: red; }
.edge:hover polygon { stroke: red; fill: red; }
]]></style>
<script type="application/ecmascript" xlink:href="svg.min.js"/>
<svg id="graph" class="graph">
<g id="graph0" class="graph" transform="scale(1 1) rotate(0) translate(4 324)">
<title>com.hust.ittnk68.cnpm.communication.AdminCreateObject</title>
<!-- Node1 -->
<g id="Node000001" class="node">
<title>Node1</title>
<g id="a_Node000001"><a xlink:title=" ">
<polygon fill="#999999" stroke="none" points="279.75,-96 100,-96 100,0 279.75,0 279.75,-96"/>
<text text-anchor="start" x="104" y="-82.5" font-family="Helvetica,sans-Serif" font-size="10.00">com.hust.ittnk68.cnpm.communication.</text>
<text text-anchor="start" x="147.12" y="-70.5" font-family="Helvetica,sans-Serif" font-size="10.00">AdminCreateObject</text>
<text text-anchor="start" x="188.38" y="-54.5" font-family="Helvetica,sans-Serif" font-size="10.00"> </text>
<text text-anchor="start" x="121.56" y="-38.5" font-family="Helvetica,sans-Serif" font-size="10.00">+</text>
<text text-anchor="start" x="149.12" y="-38.5" font-family="Helvetica,sans-Serif" font-size="10.00">AdminCreateObject()</text>
<text text-anchor="start" x="121.56" y="-22.5" font-family="Helvetica,sans-Serif" font-size="10.00">+</text>
<text text-anchor="start" x="149.12" y="-22.5" font-family="Helvetica,sans-Serif" font-size="10.00">getObject()</text>
<text text-anchor="start" x="121.56" y="-6.5" font-family="Helvetica,sans-Serif" font-size="10.00">+</text>
<text text-anchor="start" x="149.12" y="-6.5" font-family="Helvetica,sans-Serif" font-size="10.00">setObject()</text>
<polygon fill="#666666" stroke="#666666" points="100,-66 100,-66 279.75,-66 279.75,-66 100,-66"/>
<polygon fill="#666666" stroke="#666666" points="100,-50 100,-50 279.75,-50 279.75,-50 100,-50"/>
<polygon fill="none" stroke="#666666" points="100,0 100,-96 279.75,-96 279.75,0 100,0"/>
</a>
</g>
</g>
<!-- Node2 -->
<g id="Node000002" class="node">
<title>Node2</title>
<g id="a_Node000002"><a xlink:href="classcom_1_1hust_1_1ittnk68_1_1cnpm_1_1communication_1_1ClientMessageBase.html" target="_top" xlink:title=" ">
<polygon fill="white" stroke="none" points="179.75,-280 0,-280 0,-184 179.75,-184 179.75,-280"/>
<text text-anchor="start" x="4" y="-266.5" font-family="Helvetica,sans-Serif" font-size="10.00">com.hust.ittnk68.cnpm.communication.</text>
<text text-anchor="start" x="46" y="-254.5" font-family="Helvetica,sans-Serif" font-size="10.00">ClientMessageBase</text>
<text text-anchor="start" x="88.38" y="-238.5" font-family="Helvetica,sans-Serif" font-size="10.00"> </text>
<text text-anchor="start" x="21" y="-222.5" font-family="Helvetica,sans-Serif" font-size="10.00">+</text>
<text text-anchor="start" x="48" y="-222.5" font-family="Helvetica,sans-Serif" font-size="10.00">getToken()</text>
<text text-anchor="start" x="21" y="-206.5" font-family="Helvetica,sans-Serif" font-size="10.00">+</text>
<text text-anchor="start" x="48" y="-206.5" font-family="Helvetica,sans-Serif" font-size="10.00">setToken()</text>
<text text-anchor="start" x="21" y="-190.5" font-family="Helvetica,sans-Serif" font-size="10.00">~</text>
<text text-anchor="start" x="48" y="-190.5" font-family="Helvetica,sans-Serif" font-size="10.00">ClientMessageBase()</text>
<polygon fill="#666666" stroke="#666666" points="0,-250 0,-250 179.75,-250 179.75,-250 0,-250"/>
<polygon fill="#666666" stroke="#666666" points="0,-234 0,-234 179.75,-234 179.75,-234 0,-234"/>
<polygon fill="none" stroke="#666666" points="0,-184 0,-280 179.75,-280 179.75,-184 0,-184"/>
</a>
</g>
</g>
<!-- Node2&#45;&gt;Node1 -->
<g id="edge1_Node000001_Node000002" class="edge">
<title>Node2&#45;&gt;Node1</title>
<g id="a_edge1_Node000001_Node000002"><a xlink:title=" ">
<path fill="none" stroke="#63b8ff" d="M121.02,-174.31C134.9,-149.06 151.04,-119.68 164.21,-95.71"/>
<polygon fill="none" stroke="#63b8ff" points="118.1,-172.35 116.36,-182.8 124.24,-175.73 118.1,-172.35"/>
</a>
</g>
</g>
<!-- Node3 -->
<g id="Node000003" class="node">
<title>Node3</title>
<g id="a_Node000003"><a xlink:href="classcom_1_1hust_1_1ittnk68_1_1cnpm_1_1database_1_1GetSQLProperties.html" target="_top" xlink:title=" ">
<polygon fill="white" stroke="none" points="381.75,-320 198,-320 198,-144 381.75,-144 381.75,-320"/>
<text text-anchor="start" x="217.12" y="-306.5" font-family="Helvetica,sans-Serif" font-size="10.00">com.hust.ittnk68.cnpm.database.</text>
<text text-anchor="start" x="250.12" y="-294.5" font-family="Helvetica,sans-Serif" font-size="10.00">GetSQLProperties</text>
<text text-anchor="start" x="288.38" y="-278.5" font-family="Helvetica,sans-Serif" font-size="10.00"> </text>
<text text-anchor="start" x="202" y="-262.5" font-family="Helvetica,sans-Serif" font-size="10.00">+</text>
<text text-anchor="start" x="212" y="-262.5" font-family="Helvetica,sans-Serif" font-size="10.00">getId()</text>
<text text-anchor="start" x="202" y="-246.5" font-family="Helvetica,sans-Serif" font-size="10.00">+</text>
<text text-anchor="start" x="212" y="-246.5" font-family="Helvetica,sans-Serif" font-size="10.00">setId()</text>
<text text-anchor="start" x="202" y="-230.5" font-family="Helvetica,sans-Serif" font-size="10.00">+</text>
<text text-anchor="start" x="212" y="-230.5" font-family="Helvetica,sans-Serif" font-size="10.00">getSQLTableName()</text>
<text text-anchor="start" x="202" y="-214.5" font-family="Helvetica,sans-Serif" font-size="10.00">+</text>
<text text-anchor="start" x="212" y="-214.5" font-family="Helvetica,sans-Serif" font-size="10.00">getSQLInsertCommand()</text>
<text text-anchor="start" x="202" y="-198.5" font-family="Helvetica,sans-Serif" font-size="10.00">+</text>
<text text-anchor="start" x="212" y="-198.5" font-family="Helvetica,sans-Serif" font-size="10.00">getSQLUpdateCommand()</text>
<text text-anchor="start" x="202" y="-182.5" font-family="Helvetica,sans-Serif" font-size="10.00">+</text>
<text text-anchor="start" x="212" y="-182.5" font-family="Helvetica,sans-Serif" font-size="10.00">getSQLFindByConditionCommand()</text>
<text text-anchor="start" x="202" y="-166.5" font-family="Helvetica,sans-Serif" font-size="10.00">+</text>
<text text-anchor="start" x="212" y="-166.5" font-family="Helvetica,sans-Serif" font-size="10.00">getSQLDeleteByConditionCommand()</text>
<text text-anchor="start" x="202" y="-150.5" font-family="Helvetica,sans-Serif" font-size="10.00">+</text>
<text text-anchor="start" x="212" y="-150.5" font-family="Helvetica,sans-Serif" font-size="10.00">getSQLSingleUpdate()</text>
<polygon fill="#666666" stroke="#666666" points="198,-290 198,-290 381.75,-290 381.75,-290 198,-290"/>
<polygon fill="#666666" stroke="#666666" points="198,-274 198,-274 381.75,-274 381.75,-274 198,-274"/>
<polygon fill="none" stroke="#666666" points="198,-144 198,-320 381.75,-320 381.75,-144 198,-144"/>
</a>
</g>
</g>
<!-- Node3&#45;&gt;Node1 -->
<g id="edge2_Node000001_Node000003" class="edge">
<title>Node3&#45;&gt;Node1</title>
<g id="a_edge2_Node000001_Node000003"><a xlink:title=" ">
<path fill="none" stroke="#63b8ff" d="M242.22,-144.26C235.28,-131.64 228.28,-118.9 221.76,-107.03"/>
<polygon fill="none" stroke="#63b8ff" points="221.88,-107.25 215.49,-103.92 216.1,-96.73 222.5,-100.07 221.88,-107.25"/>
</a>
</g>
<text text-anchor="middle" x="248.54" y="-116.5" font-family="Helvetica,sans-Serif" font-size="10.00" fill="grey"> ~object</text>
</g>
</g>
</svg>
</svg>

<style type='text/css'>
<![CDATA[
[data-mouse-over-selected='false'] { opacity: 0.7; }
[data-mouse-over-selected='true']  { opacity: 1.0; }
]]>
</style>
<script type="application/ecmascript"><![CDATA[
document.addEventListener('DOMContentLoaded', (event) => {
  highlightEdges();
  highlightAdjacentNodes();
});
]]></script>
</svg>
