<?xml version="1.0" encoding="UTF-8" standalone="no"?>
<!DOCTYPE svg PUBLIC "-//W3C//DTD SVG 1.1//EN"
 "http://www.w3.org/Graphics/SVG/1.1/DTD/svg11.dtd">
<!-- Generated by graphviz version 12.2.1 (20241206.2353)
 -->
<!-- Title: TestCase Pages: 1 -->
<svg width="138pt" height="192pt"
 viewBox="0.00 0.00 137.50 192.00" xmlns="http://www.w3.org/2000/svg" xmlns:xlink="http://www.w3.org/1999/xlink">
<g id="graph0" class="graph" transform="scale(1 1) rotate(0) translate(4 188)">
<title>TestCase</title>
<!-- Node1 -->
<g id="Node000001" class="node">
<title>Node1</title>
<g id="a_Node000001"><a xlink:title=" ">
<polygon fill="#999999" stroke="none" points="89.75,-184 39.75,-184 39.75,-132 89.75,-132 89.75,-184"/>
<text text-anchor="start" x="43.75" y="-170.5" font-family="Helvetica,sans-Serif" font-size="10.00">TestCase</text>
<text text-anchor="start" x="63.25" y="-154.5" font-family="Helvetica,sans-Serif" font-size="10.00"> </text>
<text text-anchor="start" x="63.25" y="-138.5" font-family="Helvetica,sans-Serif" font-size="10.00"> </text>
<polygon fill="#666666" stroke="#666666" points="39.75,-166 39.75,-166 89.75,-166 89.75,-166 39.75,-166"/>
<polygon fill="#666666" stroke="#666666" points="39.75,-150 39.75,-150 89.75,-150 89.75,-150 39.75,-150"/>
<polygon fill="none" stroke="#666666" points="39.75,-132 39.75,-184 89.75,-184 89.75,-132 39.75,-132"/>
</a>
</g>
</g>
<!-- Node2 -->
<g id="Node000002" class="node">
<title>Node2</title>
<g id="a_Node000002"><a xlink:href="classcom_1_1hust_1_1ittnk68_1_1cnpm_1_1app_1_1AppTest.html" target="_top" xlink:title=" ">
<polygon fill="white" stroke="none" points="129.5,-96 0,-96 0,0 129.5,0 129.5,-96"/>
<text text-anchor="start" x="4" y="-82.5" font-family="Helvetica,sans-Serif" font-size="10.00">com.hust.ittnk68.cnpm.app.</text>
<text text-anchor="start" x="46.75" y="-70.5" font-family="Helvetica,sans-Serif" font-size="10.00">AppTest</text>
<text text-anchor="start" x="63.25" y="-54.5" font-family="Helvetica,sans-Serif" font-size="10.00"> </text>
<text text-anchor="start" x="21.38" y="-38.5" font-family="Helvetica,sans-Serif" font-size="10.00">+</text>
<text text-anchor="start" x="48.75" y="-38.5" font-family="Helvetica,sans-Serif" font-size="10.00">AppTest()</text>
<text text-anchor="start" x="21.38" y="-22.5" font-family="Helvetica,sans-Serif" font-size="10.00">+</text>
<text text-anchor="start" x="48.75" y="-22.5" font-family="Helvetica,sans-Serif" font-size="10.00">testApp()</text>
<text text-anchor="start" x="21.38" y="-6.5" font-family="Helvetica,sans-Serif" font-size="10.00">+</text>
<text text-anchor="start" x="48.75" y="-6.5" font-family="Helvetica,sans-Serif" font-size="10.00">suite()</text>
<polygon fill="#666666" stroke="#666666" points="0,-66 0,-66 129.5,-66 129.5,-66 0,-66"/>
<polygon fill="#666666" stroke="#666666" points="0,-50 0,-50 129.5,-50 129.5,-50 0,-50"/>
<polygon fill="none" stroke="#666666" points="0,0 0,-96 129.5,-96 129.5,0 0,0"/>
</a>
</g>
</g>
<!-- Node1&#45;&gt;Node2 -->
<g id="edge1_Node000001_Node000002" class="edge">
<title>Node1&#45;&gt;Node2</title>
<g id="a_edge1_Node000001_Node000002"><a xlink:title=" ">
<path fill="none" stroke="#63b8ff" d="M64.75,-120.93C64.75,-112.86 64.75,-104.19 64.75,-95.75"/>
<polygon fill="none" stroke="#63b8ff" points="61.25,-120.71 64.75,-130.71 68.25,-120.71 61.25,-120.71"/>
</a>
</g>
</g>
</g>
</svg>
