<?xml version="1.0" encoding="UTF-8" standalone="no"?>
<!DOCTYPE svg PUBLIC "-//W3C//DTD SVG 1.1//EN"
 "http://www.w3.org/Graphics/SVG/1.1/DTD/svg11.dtd">
<!-- Generated by graphviz version 12.2.1 (20241206.2353)
 -->
<!-- Title: com.hust.ittnk68.cnpm.session.Token Pages: 1 -->
<svg width="156pt" height="172pt"
 viewBox="0.00 0.00 155.50 172.00" xmlns="http://www.w3.org/2000/svg" xmlns:xlink="http://www.w3.org/1999/xlink">
<g id="graph0" class="graph" transform="scale(1 1) rotate(0) translate(4 168)">
<title>com.hust.ittnk68.cnpm.session.Token</title>
<!-- Node1 -->
<g id="Node000001" class="node">
<title>Node1</title>
<g id="a_Node000001"><a xlink:title=" ">
<polygon fill="#999999" stroke="none" points="147.5,-64 0,-64 0,0 147.5,0 147.5,-64"/>
<text text-anchor="start" x="4" y="-50.5" font-family="Helvetica,sans-Serif" font-size="10.00">com.hust.ittnk68.cnpm.session.</text>
<text text-anchor="start" x="60.62" y="-38.5" font-family="Helvetica,sans-Serif" font-size="10.00">Token</text>
<text text-anchor="start" x="72.25" y="-22.5" font-family="Helvetica,sans-Serif" font-size="10.00"> </text>
<text text-anchor="start" x="18.94" y="-6.5" font-family="Helvetica,sans-Serif" font-size="10.00">+</text>
<text text-anchor="start" x="43.88" y="-6.5" font-family="Helvetica,sans-Serif" font-size="10.00">generateToken()</text>
<polygon fill="#666666" stroke="#666666" points="0,-34 0,-34 147.5,-34 147.5,-34 0,-34"/>
<polygon fill="#666666" stroke="#666666" points="0,-18 0,-18 147.5,-18 147.5,-18 0,-18"/>
<polygon fill="none" stroke="#666666" points="0,0 0,-64 147.5,-64 147.5,0 0,0"/>
</a>
</g>
</g>
<!-- Node2 -->
<g id="Node000002" class="node">
<title>Node2</title>
<g id="a_Node000002"><a xlink:title=" ">
<polygon fill="white" stroke="none" points="83,-164 64.5,-164 64.5,-112 83,-112 83,-164"/>
<text text-anchor="start" x="68.5" y="-150.5" font-family="Helvetica,sans-Serif" font-size="10.00">int</text>
<text text-anchor="start" x="72.25" y="-134.5" font-family="Helvetica,sans-Serif" font-size="10.00"> </text>
<text text-anchor="start" x="72.25" y="-118.5" font-family="Helvetica,sans-Serif" font-size="10.00"> </text>
<polygon fill="#666666" stroke="#666666" points="64.5,-146 64.5,-146 83,-146 83,-146 64.5,-146"/>
<polygon fill="#666666" stroke="#666666" points="64.5,-130 64.5,-130 83,-130 83,-130 64.5,-130"/>
<polygon fill="none" stroke="#666666" points="64.5,-112 64.5,-164 83,-164 83,-112 64.5,-112"/>
</a>
</g>
</g>
<!-- Node2&#45;&gt;Node1 -->
<g id="edge1_Node000001_Node000002" class="edge">
<title>Node2&#45;&gt;Node1</title>
<g id="a_edge1_Node000001_Node000002"><a xlink:title=" ">
<path fill="none" stroke="#63b8ff" d="M73.75,-112.09C73.75,-101.41 73.75,-88.62 73.75,-76.46"/>
<polygon fill="none" stroke="#63b8ff" points="73.75,-76.55 69.75,-70.55 73.75,-64.55 77.75,-70.55 73.75,-76.55"/>
</a>
</g>
<text text-anchor="middle" x="104.88" y="-84.5" font-family="Helvetica,sans-Serif" font-size="10.00" fill="grey"> ~tokenLength</text>
</g>
</g>
</svg>
