<?xml version="1.0" encoding="UTF-8" standalone="no"?>
<!DOCTYPE svg PUBLIC "-//W3C//DTD SVG 1.1//EN"
 "http://www.w3.org/Graphics/SVG/1.1/DTD/svg11.dtd">
<!-- Generated by graphviz version 12.2.1 (20241206.2353)
 -->
<!-- Title: VBox Pages: 1 -->
<svg width="292pt" height="176pt"
 viewBox="0.00 0.00 291.50 176.00" xmlns="http://www.w3.org/2000/svg" xmlns:xlink="http://www.w3.org/1999/xlink">

<svg id="main" version="1.1" xmlns="http://www.w3.org/2000/svg" xmlns:xlink="http://www.w3.org/1999/xlink" xml:space="preserve">

<style type="text/css"><![CDATA[
.node, .edge {opacity: 0.7;}
.node.selected, .edge.selected {opacity: 1;}
.edge:hover path { stroke: red; }
.edge:hover polygon { stroke: red; fill: red; }
]]></style>
<script type="application/ecmascript" xlink:href="svg.min.js"/>
<svg id="graph" class="graph">
<g id="graph0" class="graph" transform="scale(1 1) rotate(0) translate(4 172)">
<title>VBox</title>
<!-- Node1 -->
<g id="Node000001" class="node">
<title>Node1</title>
<g id="a_Node000001"><a xlink:title=" ">
<polygon fill="#999999" stroke="none" points="157.25,-168 125.25,-168 125.25,-116 157.25,-116 157.25,-168"/>
<text text-anchor="start" x="129.25" y="-154.5" font-family="Helvetica,sans-Serif" font-size="10.00">VBox</text>
<text text-anchor="start" x="139.75" y="-138.5" font-family="Helvetica,sans-Serif" font-size="10.00"> </text>
<text text-anchor="start" x="139.75" y="-122.5" font-family="Helvetica,sans-Serif" font-size="10.00"> </text>
<polygon fill="#666666" stroke="#666666" points="125.25,-150 125.25,-150 157.25,-150 157.25,-150 125.25,-150"/>
<polygon fill="#666666" stroke="#666666" points="125.25,-134 125.25,-134 157.25,-134 157.25,-134 125.25,-134"/>
<polygon fill="none" stroke="#666666" points="125.25,-116 125.25,-168 157.25,-168 157.25,-116 125.25,-116"/>
</a>
</g>
</g>
<!-- Node2 -->
<g id="Node000002" class="node">
<title>Node2</title>
<g id="a_Node000002"><a xlink:href="classcom_1_1hust_1_1ittnk68_1_1cnpm_1_1view_1_1ClientMenuButton.html" target="_top" xlink:title=" ">
<polygon fill="white" stroke="none" points="132.5,-72 0,-72 0,-8 132.5,-8 132.5,-72"/>
<text text-anchor="start" x="4" y="-58.5" font-family="Helvetica,sans-Serif" font-size="10.00">com.hust.ittnk68.cnpm.view.</text>
<text text-anchor="start" x="27.25" y="-46.5" font-family="Helvetica,sans-Serif" font-size="10.00">ClientMenuButton</text>
<text text-anchor="start" x="64.75" y="-30.5" font-family="Helvetica,sans-Serif" font-size="10.00"> </text>
<text text-anchor="start" x="11.62" y="-14.5" font-family="Helvetica,sans-Serif" font-size="10.00">~</text>
<text text-anchor="start" x="29.25" y="-14.5" font-family="Helvetica,sans-Serif" font-size="10.00">ClientMenuButton()</text>
<polygon fill="#666666" stroke="#666666" points="0,-42 0,-42 132.5,-42 132.5,-42 0,-42"/>
<polygon fill="#666666" stroke="#666666" points="0,-26 0,-26 132.5,-26 132.5,-26 0,-26"/>
<polygon fill="none" stroke="#666666" points="0,-8 0,-72 132.5,-72 132.5,-8 0,-8"/>
</a>
</g>
</g>
<!-- Node1&#45;&gt;Node2 -->
<g id="edge1_Node000001_Node000002" class="edge">
<title>Node1&#45;&gt;Node2</title>
<g id="a_edge1_Node000001_Node000002"><a xlink:title=" ">
<path fill="none" stroke="#63b8ff" d="M118.57,-110.77C109.29,-98.39 98.57,-84.09 89.25,-71.67"/>
<polygon fill="none" stroke="#63b8ff" points="115.64,-112.68 124.44,-118.58 121.24,-108.48 115.64,-112.68"/>
</a>
</g>
</g>
<!-- Node3 -->
<g id="Node000003" class="node">
<title>Node3</title>
<g id="a_Node000003"><a xlink:href="classcom_1_1hust_1_1ittnk68_1_1cnpm_1_1view_1_1LoadingView.html" target="_top" xlink:title=" ">
<polygon fill="white" stroke="none" points="283.5,-80 151,-80 151,0 283.5,0 283.5,-80"/>
<text text-anchor="start" x="155" y="-66.5" font-family="Helvetica,sans-Serif" font-size="10.00">com.hust.ittnk68.cnpm.view.</text>
<text text-anchor="start" x="189.5" y="-54.5" font-family="Helvetica,sans-Serif" font-size="10.00">LoadingView</text>
<text text-anchor="start" x="168.25" y="-38.5" font-family="Helvetica,sans-Serif" font-size="10.00">~</text>
<text text-anchor="start" x="191.5" y="-38.5" font-family="Helvetica,sans-Serif" font-size="10.00">pBar</text>
<text text-anchor="start" x="168.25" y="-22.5" font-family="Helvetica,sans-Serif" font-size="10.00">~</text>
<text text-anchor="start" x="191.5" y="-22.5" font-family="Helvetica,sans-Serif" font-size="10.00">statusLabel</text>
<text text-anchor="start" x="168.25" y="-6.5" font-family="Helvetica,sans-Serif" font-size="10.00">~</text>
<text text-anchor="start" x="191.5" y="-6.5" font-family="Helvetica,sans-Serif" font-size="10.00">LoadingView()</text>
<polygon fill="#666666" stroke="#666666" points="151,-50 151,-50 283.5,-50 283.5,-50 151,-50"/>
<polygon fill="#666666" stroke="#666666" points="151,-18 151,-18 189.5,-18 189.5,-18 151,-18"/>
<polygon fill="#666666" stroke="#666666" points="189.5,-18 189.5,-18 283.5,-18 283.5,-18 189.5,-18"/>
<polygon fill="none" stroke="#666666" points="151,0 151,-80 283.5,-80 283.5,0 151,0"/>
</a>
</g>
</g>
<!-- Node1&#45;&gt;Node3 -->
<g id="edge2_Node000001_Node000003" class="edge">
<title>Node1&#45;&gt;Node3</title>
<g id="a_edge2_Node000001_Node000003"><a xlink:title=" ">
<path fill="none" stroke="#63b8ff" d="M163.83,-111.29C171.32,-101.43 179.77,-90.32 187.7,-79.88"/>
<polygon fill="none" stroke="#63b8ff" points="161.18,-109 157.91,-119.07 166.75,-113.23 161.18,-109"/>
</a>
</g>
</g>
</g>
</svg>
</svg>

<style type='text/css'>
<![CDATA[
[data-mouse-over-selected='false'] { opacity: 0.7; }
[data-mouse-over-selected='true']  { opacity: 1.0; }
]]>
</style>
<script type="application/ecmascript"><![CDATA[
document.addEventListener('DOMContentLoaded', (event) => {
  highlightEdges();
  highlightAdjacentNodes();
});
]]></script>
</svg>
