<?xml version="1.0" encoding="UTF-8" standalone="no"?>
<!DOCTYPE svg PUBLIC "-//W3C//DTD SVG 1.1//EN"
 "http://www.w3.org/Graphics/SVG/1.1/DTD/svg11.dtd">
<!-- Generated by graphviz version 12.2.1 (20241206.2353)
 -->
<!-- Title: com.hust.ittnk68.cnpm.communication.ServerResponseBase Pages: 1 -->
<!--zoomable 316 -->

<svg id="main" version="1.1" xmlns="http://www.w3.org/2000/svg" xmlns:xlink="http://www.w3.org/1999/xlink" xml:space="preserve" onload="init(evt)">

<style type="text/css"><![CDATA[
.node, .edge {opacity: 0.7;}
.node.selected, .edge.selected {opacity: 1;}
.edge:hover path { stroke: red; }
.edge:hover polygon { stroke: red; fill: red; }
]]></style>

<defs>
  <circle id="rim" cx="0" cy="0" r="7"/>
  <circle id="rim2" cx="0" cy="0" r="3.5"/>
  <g id="zoomPlus">
    <use xlink:href="#rim" fill="#404040"><set attributeName="fill" to="#808080" begin="zoomplus.mouseover" end="zoomplus.mouseout"/></use>
    <path d="M-4,0h8M0,-4v8" fill="none" stroke="white" stroke-width="1.5" pointer-events="none"/>
  </g>
  <g id="zoomMin">
    <use xlink:href="#rim" fill="#404040"><set attributeName="fill" to="#808080" begin="zoomminus.mouseover" end="zoomminus.mouseout"/></use>
    <path d="M-4,0h8" fill="none" stroke="white" stroke-width="1.5" pointer-events="none"/>
  </g>
  <g id="arrowUp" transform="translate(30 24)">
    <use xlink:href="#rim"/>
    <path pointer-events="none" fill="none" stroke="white" stroke-width="1.5" d="M0,-3.0v7 M-2.5,-0.5L0,-3.0L2.5,-0.5"/>
  </g>
  <g id="arrowRight" transform="rotate(90) translate(36 -43)">
    <use xlink:href="#rim"/>
    <path pointer-events="none" fill="none" stroke="white" stroke-width="1.5" d="M0,-3.0v7 M-2.5,-0.5L0,-3.0L2.5,-0.5"/>
  </g>
  <g id="arrowDown" transform="rotate(180) translate(-30 -48)">
    <use xlink:href="#rim"/>
    <path pointer-events="none" fill="none" stroke="white" stroke-width="1.5" d="M0,-3.0v7 M-2.5,-0.5L0,-3.0L2.5,-0.5"/>
  </g>
  <g id="arrowLeft" transform="rotate(270) translate(-36 17)">
    <use xlink:href="#rim"/>
    <path pointer-events="none" fill="none" stroke="white" stroke-width="1.5" d="M0,-3.0v7 M-2.5,-0.5L0,-3.0L2.5,-0.5"/>
  </g>
  <g id="resetDef">
    <use xlink:href="#rim2" fill="#404040"><set attributeName="fill" to="#808080" begin="reset.mouseover" end="reset.mouseout"/></use>
  </g>
</defs>
<script type="application/ecmascript">
var viewWidth = 2168;
var viewHeight = 316;
var sectionId = 'dynsection-0';
</script>
<script type="application/ecmascript" xlink:href="svg.min.js"/>
<svg id="graph" class="graph">
<g id="viewport">
<title>com.hust.ittnk68.cnpm.communication.ServerResponseBase</title>
<!-- Node1 -->
<g id="Node000001" class="node">
<title>Node1</title>
<g id="a_Node000001"><a xlink:title=" ">
<polygon fill="#999999" stroke="none" points="1169.75,-308 990,-308 990,-180 1169.75,-180 1169.75,-308"/>
<text text-anchor="start" x="994" y="-294.5" font-family="Helvetica,sans-Serif" font-size="10.00">com.hust.ittnk68.cnpm.communication.</text>
<text text-anchor="start" x="1032.25" y="-282.5" font-family="Helvetica,sans-Serif" font-size="10.00">ServerResponseBase</text>
<text text-anchor="start" x="1078.38" y="-266.5" font-family="Helvetica,sans-Serif" font-size="10.00"> </text>
<text text-anchor="start" x="1008.56" y="-250.5" font-family="Helvetica,sans-Serif" font-size="10.00">+</text>
<text text-anchor="start" x="1033.12" y="-250.5" font-family="Helvetica,sans-Serif" font-size="10.00">ServerResponseBase()</text>
<text text-anchor="start" x="1008.56" y="-234.5" font-family="Helvetica,sans-Serif" font-size="10.00">+</text>
<text text-anchor="start" x="1033.12" y="-234.5" font-family="Helvetica,sans-Serif" font-size="10.00">getResponseStatus()</text>
<text text-anchor="start" x="1008.56" y="-218.5" font-family="Helvetica,sans-Serif" font-size="10.00">+</text>
<text text-anchor="start" x="1033.12" y="-218.5" font-family="Helvetica,sans-Serif" font-size="10.00">setResponseStatus()</text>
<text text-anchor="start" x="1008.56" y="-202.5" font-family="Helvetica,sans-Serif" font-size="10.00">+</text>
<text text-anchor="start" x="1033.12" y="-202.5" font-family="Helvetica,sans-Serif" font-size="10.00">getResponseMessage()</text>
<text text-anchor="start" x="1008.56" y="-186.5" font-family="Helvetica,sans-Serif" font-size="10.00">+</text>
<text text-anchor="start" x="1033.12" y="-186.5" font-family="Helvetica,sans-Serif" font-size="10.00">setResponseMessage()</text>
<polygon fill="#666666" stroke="#666666" points="990,-278 990,-278 1169.75,-278 1169.75,-278 990,-278"/>
<polygon fill="#666666" stroke="#666666" points="990,-262 990,-262 1169.75,-262 1169.75,-262 990,-262"/>
<polygon fill="none" stroke="#666666" points="990,-180 990,-308 1169.75,-308 1169.75,-180 990,-180"/>
</a>
</g>
</g>
<!-- Node2 -->
<g id="Node000002" class="node">
<title>Node2</title>
<g id="a_Node000002"><a xlink:href="classcom_1_1hust_1_1ittnk68_1_1cnpm_1_1communication_1_1PaymentResponse.html" target="_top" xlink:title=" ">
<polygon fill="white" stroke="none" points="179.75,-104 0,-104 0,-40 179.75,-40 179.75,-104"/>
<text text-anchor="start" x="4" y="-90.5" font-family="Helvetica,sans-Serif" font-size="10.00">com.hust.ittnk68.cnpm.communication.</text>
<text text-anchor="start" x="48.25" y="-78.5" font-family="Helvetica,sans-Serif" font-size="10.00">PaymentResponse</text>
<text text-anchor="start" x="88.38" y="-62.5" font-family="Helvetica,sans-Serif" font-size="10.00"> </text>
<text text-anchor="start" x="22.12" y="-46.5" font-family="Helvetica,sans-Serif" font-size="10.00">+</text>
<text text-anchor="start" x="50.25" y="-46.5" font-family="Helvetica,sans-Serif" font-size="10.00">PaymentResponse()</text>
<polygon fill="#666666" stroke="#666666" points="0,-74 0,-74 179.75,-74 179.75,-74 0,-74"/>
<polygon fill="#666666" stroke="#666666" points="0,-58 0,-58 179.75,-58 179.75,-58 0,-58"/>
<polygon fill="none" stroke="#666666" points="0,-40 0,-104 179.75,-104 179.75,-40 0,-40"/>
</a>
</g>
</g>
<!-- Node1&#45;&gt;Node2 -->
<g id="edge1_Node000001_Node000002" class="edge">
<title>Node1&#45;&gt;Node2</title>
<g id="a_edge1_Node000001_Node000002"><a xlink:title=" ">
<path fill="none" stroke="#63b8ff" d="M978.53,-238.19C776.55,-227.56 331.06,-198.56 188.88,-144 164.98,-134.83 141.56,-118.47 123.5,-103.76"/>
<polygon fill="none" stroke="#63b8ff" points="978.33,-241.69 988.5,-238.71 978.7,-234.69 978.33,-241.69"/>
</a>
</g>
</g>
<!-- Node3 -->
<g id="Node000003" class="node">
<title>Node3</title>
<g id="a_Node000003"><a xlink:href="classcom_1_1hust_1_1ittnk68_1_1cnpm_1_1communication_1_1ServerCheckBankingResponse.html" target="_top" xlink:title=" ">
<polygon fill="white" stroke="none" points="377.75,-120 198,-120 198,-24 377.75,-24 377.75,-120"/>
<text text-anchor="start" x="202" y="-106.5" font-family="Helvetica,sans-Serif" font-size="10.00">com.hust.ittnk68.cnpm.communication.</text>
<text text-anchor="start" x="219.62" y="-94.5" font-family="Helvetica,sans-Serif" font-size="10.00">ServerCheckBankingResponse</text>
<text text-anchor="start" x="286.38" y="-78.5" font-family="Helvetica,sans-Serif" font-size="10.00"> </text>
<text text-anchor="start" x="206.81" y="-62.5" font-family="Helvetica,sans-Serif" font-size="10.00">+</text>
<text text-anchor="start" x="221.62" y="-62.5" font-family="Helvetica,sans-Serif" font-size="10.00">ServerCheckBankingResponse()</text>
<text text-anchor="start" x="206.81" y="-46.5" font-family="Helvetica,sans-Serif" font-size="10.00">+</text>
<text text-anchor="start" x="221.62" y="-46.5" font-family="Helvetica,sans-Serif" font-size="10.00">isHasBanked()</text>
<text text-anchor="start" x="206.81" y="-30.5" font-family="Helvetica,sans-Serif" font-size="10.00">+</text>
<text text-anchor="start" x="221.62" y="-30.5" font-family="Helvetica,sans-Serif" font-size="10.00">setHasBanked()</text>
<polygon fill="#666666" stroke="#666666" points="198,-90 198,-90 377.75,-90 377.75,-90 198,-90"/>
<polygon fill="#666666" stroke="#666666" points="198,-74 198,-74 377.75,-74 377.75,-74 198,-74"/>
<polygon fill="none" stroke="#666666" points="198,-24 198,-120 377.75,-120 377.75,-24 198,-24"/>
</a>
</g>
</g>
<!-- Node1&#45;&gt;Node3 -->
<g id="edge2_Node000001_Node000003" class="edge">
<title>Node1&#45;&gt;Node3</title>
<g id="a_edge2_Node000001_Node000003"><a xlink:title=" ">
<path fill="none" stroke="#63b8ff" d="M978.85,-243.43C840.37,-240.76 586.1,-224.04 386.88,-144 371.86,-137.97 356.98,-129.2 343.49,-119.87"/>
<polygon fill="none" stroke="#63b8ff" points="978.68,-246.93 988.73,-243.6 978.8,-239.93 978.68,-246.93"/>
</a>
</g>
</g>
<!-- Node4 -->
<g id="Node000004" class="node">
<title>Node4</title>
<g id="a_Node000004"><a xlink:href="classcom_1_1hust_1_1ittnk68_1_1cnpm_1_1communication_1_1ServerCreateObjectResponse.html" target="_top" xlink:title=" ">
<polygon fill="white" stroke="none" points="575.75,-128 396,-128 396,-16 575.75,-16 575.75,-128"/>
<text text-anchor="start" x="400" y="-114.5" font-family="Helvetica,sans-Serif" font-size="10.00">com.hust.ittnk68.cnpm.communication.</text>
<text text-anchor="start" x="420.62" y="-102.5" font-family="Helvetica,sans-Serif" font-size="10.00">ServerCreateObjectResponse</text>
<text text-anchor="start" x="484.38" y="-86.5" font-family="Helvetica,sans-Serif" font-size="10.00"> </text>
<text text-anchor="start" x="406.31" y="-70.5" font-family="Helvetica,sans-Serif" font-size="10.00">+</text>
<text text-anchor="start" x="422.62" y="-70.5" font-family="Helvetica,sans-Serif" font-size="10.00">ServerCreateObjectResponse()</text>
<text text-anchor="start" x="406.31" y="-54.5" font-family="Helvetica,sans-Serif" font-size="10.00">+</text>
<text text-anchor="start" x="422.62" y="-54.5" font-family="Helvetica,sans-Serif" font-size="10.00">ServerCreateObjectResponse()</text>
<text text-anchor="start" x="406.31" y="-38.5" font-family="Helvetica,sans-Serif" font-size="10.00">+</text>
<text text-anchor="start" x="422.62" y="-38.5" font-family="Helvetica,sans-Serif" font-size="10.00">getObjectId()</text>
<text text-anchor="start" x="406.31" y="-22.5" font-family="Helvetica,sans-Serif" font-size="10.00">+</text>
<text text-anchor="start" x="422.62" y="-22.5" font-family="Helvetica,sans-Serif" font-size="10.00">setObjectId()</text>
<polygon fill="#666666" stroke="#666666" points="396,-98 396,-98 575.75,-98 575.75,-98 396,-98"/>
<polygon fill="#666666" stroke="#666666" points="396,-82 396,-82 575.75,-82 575.75,-82 396,-82"/>
<polygon fill="none" stroke="#666666" points="396,-16 396,-128 575.75,-128 575.75,-16 396,-16"/>
</a>
</g>
</g>
<!-- Node1&#45;&gt;Node4 -->
<g id="edge3_Node000001_Node000004" class="edge">
<title>Node1&#45;&gt;Node4</title>
<g id="a_edge3_Node000001_Node000004"><a xlink:title=" ">
<path fill="none" stroke="#63b8ff" d="M978.91,-235.39C876.16,-224.79 714.07,-200.12 584.88,-144 574.69,-139.58 564.52,-133.98 554.78,-127.88"/>
<polygon fill="none" stroke="#63b8ff" points="978.4,-238.86 988.7,-236.37 979.1,-231.89 978.4,-238.86"/>
</a>
</g>
</g>
<!-- Node5 -->
<g id="Node000005" class="node">
<title>Node5</title>
<g id="a_Node000005"><a xlink:href="classcom_1_1hust_1_1ittnk68_1_1cnpm_1_1communication_1_1ServerDeleteObjectResponse.html" target="_top" xlink:title=" ">
<polygon fill="white" stroke="none" points="773.75,-128 594,-128 594,-16 773.75,-16 773.75,-128"/>
<text text-anchor="start" x="598" y="-114.5" font-family="Helvetica,sans-Serif" font-size="10.00">com.hust.ittnk68.cnpm.communication.</text>
<text text-anchor="start" x="619" y="-102.5" font-family="Helvetica,sans-Serif" font-size="10.00">ServerDeleteObjectResponse</text>
<text text-anchor="start" x="604.5" y="-86.5" font-family="Helvetica,sans-Serif" font-size="10.00">~</text>
<text text-anchor="start" x="621" y="-86.5" font-family="Helvetica,sans-Serif" font-size="10.00">affectedRows</text>
<text text-anchor="start" x="604.5" y="-70.5" font-family="Helvetica,sans-Serif" font-size="10.00">+</text>
<text text-anchor="start" x="621" y="-70.5" font-family="Helvetica,sans-Serif" font-size="10.00">ServerDeleteObjectResponse()</text>
<text text-anchor="start" x="604.5" y="-54.5" font-family="Helvetica,sans-Serif" font-size="10.00">+</text>
<text text-anchor="start" x="621" y="-54.5" font-family="Helvetica,sans-Serif" font-size="10.00">ServerDeleteObjectResponse()</text>
<text text-anchor="start" x="604.5" y="-38.5" font-family="Helvetica,sans-Serif" font-size="10.00">+</text>
<text text-anchor="start" x="621" y="-38.5" font-family="Helvetica,sans-Serif" font-size="10.00">setAffectedRows()</text>
<text text-anchor="start" x="604.5" y="-22.5" font-family="Helvetica,sans-Serif" font-size="10.00">+</text>
<text text-anchor="start" x="621" y="-22.5" font-family="Helvetica,sans-Serif" font-size="10.00">getAffectedRows()</text>
<polygon fill="#666666" stroke="#666666" points="594,-98 594,-98 773.75,-98 773.75,-98 594,-98"/>
<polygon fill="#666666" stroke="#666666" points="594,-82 594,-82 619,-82 619,-82 594,-82"/>
<polygon fill="#666666" stroke="#666666" points="619,-82 619,-82 773.75,-82 773.75,-82 619,-82"/>
<polygon fill="none" stroke="#666666" points="594,-16 594,-128 773.75,-128 773.75,-16 594,-16"/>
</a>
</g>
</g>
<!-- Node1&#45;&gt;Node5 -->
<g id="edge4_Node000001_Node000005" class="edge">
<title>Node1&#45;&gt;Node5</title>
<g id="a_edge4_Node000001_Node000005"><a xlink:title=" ">
<path fill="none" stroke="#63b8ff" d="M979.19,-217.6C920.22,-200.75 845.31,-175.87 782.88,-144 773.64,-139.29 764.32,-133.78 755.28,-127.95"/>
<polygon fill="none" stroke="#63b8ff" points="977.97,-220.9 988.55,-220.25 979.87,-214.16 977.97,-220.9"/>
</a>
</g>
</g>
<!-- Node6 -->
<g id="Node000006" class="node">
<title>Node6</title>
<g id="a_Node000006"><a xlink:href="classcom_1_1hust_1_1ittnk68_1_1cnpm_1_1communication_1_1ServerFindObjectResponse.html" target="_top" xlink:title=" ">
<polygon fill="white" stroke="none" points="971.75,-128 792,-128 792,-16 971.75,-16 971.75,-128"/>
<text text-anchor="start" x="796" y="-114.5" font-family="Helvetica,sans-Serif" font-size="10.00">com.hust.ittnk68.cnpm.communication.</text>
<text text-anchor="start" x="821.88" y="-102.5" font-family="Helvetica,sans-Serif" font-size="10.00">ServerFindObjectResponse</text>
<text text-anchor="start" x="880.38" y="-86.5" font-family="Helvetica,sans-Serif" font-size="10.00"> </text>
<text text-anchor="start" x="804.94" y="-70.5" font-family="Helvetica,sans-Serif" font-size="10.00">+</text>
<text text-anchor="start" x="823.88" y="-70.5" font-family="Helvetica,sans-Serif" font-size="10.00">ServerFindObjectResponse()</text>
<text text-anchor="start" x="804.94" y="-54.5" font-family="Helvetica,sans-Serif" font-size="10.00">+</text>
<text text-anchor="start" x="823.88" y="-54.5" font-family="Helvetica,sans-Serif" font-size="10.00">ServerFindObjectResponse()</text>
<text text-anchor="start" x="804.94" y="-38.5" font-family="Helvetica,sans-Serif" font-size="10.00">+</text>
<text text-anchor="start" x="823.88" y="-38.5" font-family="Helvetica,sans-Serif" font-size="10.00">getRequestResult()</text>
<text text-anchor="start" x="804.94" y="-22.5" font-family="Helvetica,sans-Serif" font-size="10.00">+</text>
<text text-anchor="start" x="823.88" y="-22.5" font-family="Helvetica,sans-Serif" font-size="10.00">setRequestResult()</text>
<polygon fill="#666666" stroke="#666666" points="792,-98 792,-98 971.75,-98 971.75,-98 792,-98"/>
<polygon fill="#666666" stroke="#666666" points="792,-82 792,-82 971.75,-82 971.75,-82 792,-82"/>
<polygon fill="none" stroke="#666666" points="792,-16 792,-128 971.75,-128 971.75,-16 792,-16"/>
</a>
</g>
</g>
<!-- Node1&#45;&gt;Node6 -->
<g id="edge5_Node000001_Node000006" class="edge">
<title>Node1&#45;&gt;Node6</title>
<g id="a_edge5_Node000001_Node000006"><a xlink:title=" ">
<path fill="none" stroke="#63b8ff" d="M998.17,-172.85C980.64,-157.79 962.35,-142.1 945.62,-127.73"/>
<polygon fill="none" stroke="#63b8ff" points="995.69,-175.34 1005.56,-179.2 1000.25,-170.03 995.69,-175.34"/>
</a>
</g>
</g>
<!-- Node7 -->
<g id="Node000007" class="node">
<title>Node7</title>
<g id="a_Node000007"><a xlink:href="classcom_1_1hust_1_1ittnk68_1_1cnpm_1_1communication_1_1ServerObjectByIdQueryResponse.html" target="_top" xlink:title=" ">
<polygon fill="white" stroke="none" points="1169.75,-128 990,-128 990,-16 1169.75,-16 1169.75,-128"/>
<text text-anchor="start" x="994" y="-114.5" font-family="Helvetica,sans-Serif" font-size="10.00">com.hust.ittnk68.cnpm.communication.</text>
<text text-anchor="start" x="1006" y="-102.5" font-family="Helvetica,sans-Serif" font-size="10.00">ServerObjectByIdQueryResponse</text>
<text text-anchor="start" x="1078.38" y="-86.5" font-family="Helvetica,sans-Serif" font-size="10.00"> </text>
<text text-anchor="start" x="996" y="-70.5" font-family="Helvetica,sans-Serif" font-size="10.00">+</text>
<text text-anchor="start" x="1008" y="-70.5" font-family="Helvetica,sans-Serif" font-size="10.00">ServerObjectByIdQueryResponse()</text>
<text text-anchor="start" x="996" y="-54.5" font-family="Helvetica,sans-Serif" font-size="10.00">+</text>
<text text-anchor="start" x="1008" y="-54.5" font-family="Helvetica,sans-Serif" font-size="10.00">ServerObjectByIdQueryResponse()</text>
<text text-anchor="start" x="996" y="-38.5" font-family="Helvetica,sans-Serif" font-size="10.00">+</text>
<text text-anchor="start" x="1008" y="-38.5" font-family="Helvetica,sans-Serif" font-size="10.00">getResult()</text>
<text text-anchor="start" x="996" y="-22.5" font-family="Helvetica,sans-Serif" font-size="10.00">+</text>
<text text-anchor="start" x="1008" y="-22.5" font-family="Helvetica,sans-Serif" font-size="10.00">setResult()</text>
<polygon fill="#666666" stroke="#666666" points="990,-98 990,-98 1169.75,-98 1169.75,-98 990,-98"/>
<polygon fill="#666666" stroke="#666666" points="990,-82 990,-82 1169.75,-82 1169.75,-82 990,-82"/>
<polygon fill="none" stroke="#666666" points="990,-16 990,-128 1169.75,-128 1169.75,-16 990,-16"/>
</a>
</g>
</g>
<!-- Node1&#45;&gt;Node7 -->
<g id="edge6_Node000001_Node000007" class="edge">
<title>Node1&#45;&gt;Node7</title>
<g id="a_edge6_Node000001_Node000007"><a xlink:title=" ">
<path fill="none" stroke="#63b8ff" d="M1079.88,-168.73C1079.88,-154.95 1079.88,-140.79 1079.88,-127.73"/>
<polygon fill="none" stroke="#63b8ff" points="1076.38,-168.67 1079.88,-178.67 1083.38,-168.67 1076.38,-168.67"/>
</a>
</g>
</g>
<!-- Node8 -->
<g id="Node000008" class="node">
<title>Node8</title>
<g id="a_Node000008"><a xlink:href="classcom_1_1hust_1_1ittnk68_1_1cnpm_1_1communication_1_1ServerPaymentStatusQueryResponse.html" target="_top" xlink:title=" ">
<polygon fill="white" stroke="none" points="1367.75,-140 1188,-140 1188,-4 1367.75,-4 1367.75,-140"/>
<text text-anchor="start" x="1192" y="-126.5" font-family="Helvetica,sans-Serif" font-size="10.00">com.hust.ittnk68.cnpm.communication.</text>
<text text-anchor="start" x="1194.62" y="-114.5" font-family="Helvetica,sans-Serif" font-size="10.00">ServerPaymentStatusQueryResponse</text>
<text text-anchor="start" x="1276.38" y="-98.5" font-family="Helvetica,sans-Serif" font-size="10.00"> </text>
<text text-anchor="start" x="1201.88" y="-82.5" font-family="Helvetica,sans-Serif" font-size="10.00">+</text>
<text text-anchor="start" x="1221.75" y="-82.5" font-family="Helvetica,sans-Serif" font-size="10.00">ServerPaymentStatusQuery</text>
<text text-anchor="start" x="1221.75" y="-70.5" font-family="Helvetica,sans-Serif" font-size="10.00">Response()</text>
<text text-anchor="start" x="1201.88" y="-54.5" font-family="Helvetica,sans-Serif" font-size="10.00">+</text>
<text text-anchor="start" x="1221.75" y="-54.5" font-family="Helvetica,sans-Serif" font-size="10.00">ServerPaymentStatusQuery</text>
<text text-anchor="start" x="1221.75" y="-42.5" font-family="Helvetica,sans-Serif" font-size="10.00">Response()</text>
<text text-anchor="start" x="1201.88" y="-26.5" font-family="Helvetica,sans-Serif" font-size="10.00">+</text>
<text text-anchor="start" x="1221.75" y="-26.5" font-family="Helvetica,sans-Serif" font-size="10.00">getResult()</text>
<text text-anchor="start" x="1201.88" y="-10.5" font-family="Helvetica,sans-Serif" font-size="10.00">+</text>
<text text-anchor="start" x="1221.75" y="-10.5" font-family="Helvetica,sans-Serif" font-size="10.00">setResult()</text>
<polygon fill="#666666" stroke="#666666" points="1188,-110 1188,-110 1367.75,-110 1367.75,-110 1188,-110"/>
<polygon fill="#666666" stroke="#666666" points="1188,-94 1188,-94 1367.75,-94 1367.75,-94 1188,-94"/>
<polygon fill="none" stroke="#666666" points="1188,-4 1188,-140 1367.75,-140 1367.75,-4 1188,-4"/>
</a>
</g>
</g>
<!-- Node1&#45;&gt;Node8 -->
<g id="edge7_Node000001_Node000008" class="edge">
<title>Node1&#45;&gt;Node8</title>
<g id="a_edge7_Node000001_Node000008"><a xlink:title=" ">
<path fill="none" stroke="#63b8ff" d="M1161.74,-172.71C1174.4,-161.84 1187.45,-150.63 1200.03,-139.84"/>
<polygon fill="none" stroke="#63b8ff" points="1159.5,-170.03 1154.19,-179.2 1164.06,-175.34 1159.5,-170.03"/>
</a>
</g>
</g>
<!-- Node9 -->
<g id="Node000009" class="node">
<title>Node9</title>
<g id="a_Node000009"><a xlink:href="classcom_1_1hust_1_1ittnk68_1_1cnpm_1_1communication_1_1ServerQrCodeGenerateResponse.html" target="_top" xlink:title=" ">
<polygon fill="white" stroke="none" points="1565.75,-136 1386,-136 1386,-8 1565.75,-8 1565.75,-136"/>
<text text-anchor="start" x="1390" y="-122.5" font-family="Helvetica,sans-Serif" font-size="10.00">com.hust.ittnk68.cnpm.communication.</text>
<text text-anchor="start" x="1402.75" y="-110.5" font-family="Helvetica,sans-Serif" font-size="10.00">ServerQrCodeGenerateResponse</text>
<text text-anchor="start" x="1474.38" y="-94.5" font-family="Helvetica,sans-Serif" font-size="10.00"> </text>
<text text-anchor="start" x="1392.38" y="-78.5" font-family="Helvetica,sans-Serif" font-size="10.00">+</text>
<text text-anchor="start" x="1404.75" y="-78.5" font-family="Helvetica,sans-Serif" font-size="10.00">ServerQrCodeGenerateResponse()</text>
<text text-anchor="start" x="1392.38" y="-62.5" font-family="Helvetica,sans-Serif" font-size="10.00">+</text>
<text text-anchor="start" x="1404.75" y="-62.5" font-family="Helvetica,sans-Serif" font-size="10.00">getToken()</text>
<text text-anchor="start" x="1392.38" y="-46.5" font-family="Helvetica,sans-Serif" font-size="10.00">+</text>
<text text-anchor="start" x="1404.75" y="-46.5" font-family="Helvetica,sans-Serif" font-size="10.00">setToken()</text>
<text text-anchor="start" x="1392.38" y="-30.5" font-family="Helvetica,sans-Serif" font-size="10.00">+</text>
<text text-anchor="start" x="1404.75" y="-30.5" font-family="Helvetica,sans-Serif" font-size="10.00">getQrImageBase64()</text>
<text text-anchor="start" x="1392.38" y="-14.5" font-family="Helvetica,sans-Serif" font-size="10.00">+</text>
<text text-anchor="start" x="1404.75" y="-14.5" font-family="Helvetica,sans-Serif" font-size="10.00">setQrImageBase64()</text>
<polygon fill="#666666" stroke="#666666" points="1386,-106 1386,-106 1565.75,-106 1565.75,-106 1386,-106"/>
<polygon fill="#666666" stroke="#666666" points="1386,-90 1386,-90 1565.75,-90 1565.75,-90 1386,-90"/>
<polygon fill="none" stroke="#666666" points="1386,-8 1386,-136 1565.75,-136 1565.75,-8 1386,-8"/>
</a>
</g>
</g>
<!-- Node1&#45;&gt;Node9 -->
<g id="edge8_Node000001_Node000009" class="edge">
<title>Node1&#45;&gt;Node9</title>
<g id="a_edge8_Node000001_Node000009"><a xlink:title=" ">
<path fill="none" stroke="#63b8ff" d="M1180.56,-217.6C1239.53,-200.75 1314.44,-175.87 1376.88,-144 1381.77,-141.5 1386.7,-138.78 1391.59,-135.9"/>
<polygon fill="none" stroke="#63b8ff" points="1179.88,-214.16 1171.2,-220.25 1181.78,-220.9 1179.88,-214.16"/>
</a>
</g>
</g>
<!-- Node10 -->
<g id="Node000010" class="node">
<title>Node10</title>
<g id="a_Node000010"><a xlink:href="classcom_1_1hust_1_1ittnk68_1_1cnpm_1_1communication_1_1ServerQueryPersonByFIdResponse.html" target="_top" xlink:title=" ">
<polygon fill="white" stroke="none" points="1763.88,-120 1583.88,-120 1583.88,-24 1763.88,-24 1763.88,-120"/>
<text text-anchor="start" x="1588" y="-106.5" font-family="Helvetica,sans-Serif" font-size="10.00">com.hust.ittnk68.cnpm.communication.</text>
<text text-anchor="start" x="1595.88" y="-94.5" font-family="Helvetica,sans-Serif" font-size="10.00">ServerQueryPersonByFIdResponse</text>
<text text-anchor="start" x="1672.38" y="-78.5" font-family="Helvetica,sans-Serif" font-size="10.00"> </text>
<text text-anchor="start" x="1587.88" y="-62.5" font-family="Helvetica,sans-Serif" font-size="10.00">+</text>
<text text-anchor="start" x="1597.88" y="-62.5" font-family="Helvetica,sans-Serif" font-size="10.00">ServerQueryPersonByFIdResponse()</text>
<text text-anchor="start" x="1587.88" y="-46.5" font-family="Helvetica,sans-Serif" font-size="10.00">+</text>
<text text-anchor="start" x="1597.88" y="-46.5" font-family="Helvetica,sans-Serif" font-size="10.00">getList()</text>
<text text-anchor="start" x="1587.88" y="-30.5" font-family="Helvetica,sans-Serif" font-size="10.00">+</text>
<text text-anchor="start" x="1597.88" y="-30.5" font-family="Helvetica,sans-Serif" font-size="10.00">setList()</text>
<polygon fill="#666666" stroke="#666666" points="1583.88,-90 1583.88,-90 1763.88,-90 1763.88,-90 1583.88,-90"/>
<polygon fill="#666666" stroke="#666666" points="1583.88,-74 1583.88,-74 1763.88,-74 1763.88,-74 1583.88,-74"/>
<polygon fill="none" stroke="#666666" points="1583.88,-24 1583.88,-120 1763.88,-120 1763.88,-24 1583.88,-24"/>
</a>
</g>
</g>
<!-- Node1&#45;&gt;Node10 -->
<g id="edge9_Node000001_Node000010" class="edge">
<title>Node1&#45;&gt;Node10</title>
<g id="a_edge9_Node000001_Node000010"><a xlink:title=" ">
<path fill="none" stroke="#63b8ff" d="M1180.84,-235.39C1283.59,-224.79 1445.68,-200.12 1574.88,-144 1589.33,-137.72 1603.75,-129.09 1616.94,-119.99"/>
<polygon fill="none" stroke="#63b8ff" points="1180.65,-231.89 1171.05,-236.37 1181.35,-238.86 1180.65,-231.89"/>
</a>
</g>
</g>
<!-- Node11 -->
<g id="Node000011" class="node">
<title>Node11</title>
<g id="a_Node000011"><a xlink:href="classcom_1_1hust_1_1ittnk68_1_1cnpm_1_1communication_1_1ServerResponseStartSession.html" target="_top" xlink:title=" ">
<polygon fill="white" stroke="none" points="1961.75,-144 1782,-144 1782,0 1961.75,0 1961.75,-144"/>
<text text-anchor="start" x="1786" y="-130.5" font-family="Helvetica,sans-Serif" font-size="10.00">com.hust.ittnk68.cnpm.communication.</text>
<text text-anchor="start" x="1807.38" y="-118.5" font-family="Helvetica,sans-Serif" font-size="10.00">ServerResponseStartSession</text>
<text text-anchor="start" x="1792.69" y="-102.5" font-family="Helvetica,sans-Serif" font-size="10.00">~</text>
<text text-anchor="start" x="1809.38" y="-102.5" font-family="Helvetica,sans-Serif" font-size="10.00">token</text>
<text text-anchor="start" x="1792.69" y="-86.5" font-family="Helvetica,sans-Serif" font-size="10.00">~</text>
<text text-anchor="start" x="1809.38" y="-86.5" font-family="Helvetica,sans-Serif" font-size="10.00">accountType</text>
<text text-anchor="start" x="1792.69" y="-70.5" font-family="Helvetica,sans-Serif" font-size="10.00">+</text>
<text text-anchor="start" x="1809.38" y="-70.5" font-family="Helvetica,sans-Serif" font-size="10.00">ServerResponseStartSession()</text>
<text text-anchor="start" x="1792.69" y="-54.5" font-family="Helvetica,sans-Serif" font-size="10.00">+</text>
<text text-anchor="start" x="1809.38" y="-54.5" font-family="Helvetica,sans-Serif" font-size="10.00">getToken()</text>
<text text-anchor="start" x="1792.69" y="-38.5" font-family="Helvetica,sans-Serif" font-size="10.00">+</text>
<text text-anchor="start" x="1809.38" y="-38.5" font-family="Helvetica,sans-Serif" font-size="10.00">setToken()</text>
<text text-anchor="start" x="1792.69" y="-22.5" font-family="Helvetica,sans-Serif" font-size="10.00">+</text>
<text text-anchor="start" x="1809.38" y="-22.5" font-family="Helvetica,sans-Serif" font-size="10.00">getAccountType()</text>
<text text-anchor="start" x="1792.69" y="-6.5" font-family="Helvetica,sans-Serif" font-size="10.00">+</text>
<text text-anchor="start" x="1809.38" y="-6.5" font-family="Helvetica,sans-Serif" font-size="10.00">setAccountType()</text>
<polygon fill="#666666" stroke="#666666" points="1782,-114 1782,-114 1961.75,-114 1961.75,-114 1782,-114"/>
<polygon fill="#666666" stroke="#666666" points="1782,-82 1782,-82 1807.38,-82 1807.38,-82 1782,-82"/>
<polygon fill="#666666" stroke="#666666" points="1807.38,-82 1807.38,-82 1961.75,-82 1961.75,-82 1807.38,-82"/>
<polygon fill="none" stroke="#666666" points="1782,0 1782,-144 1961.75,-144 1961.75,0 1782,0"/>
</a>
</g>
</g>
<!-- Node1&#45;&gt;Node11 -->
<g id="edge10_Node000001_Node000011" class="edge">
<title>Node1&#45;&gt;Node11</title>
<g id="a_edge10_Node000001_Node000011"><a xlink:title=" ">
<path fill="none" stroke="#63b8ff" d="M1180.9,-243.43C1319.38,-240.76 1573.65,-224.04 1772.88,-144 1776.02,-142.74 1779.15,-141.36 1782.27,-139.88"/>
<polygon fill="none" stroke="#63b8ff" points="1180.95,-239.93 1171.02,-243.6 1181.07,-246.93 1180.95,-239.93"/>
</a>
</g>
</g>
<!-- Node12 -->
<g id="Node000012" class="node">
<title>Node12</title>
<g id="a_Node000012"><a xlink:href="classcom_1_1hust_1_1ittnk68_1_1cnpm_1_1communication_1_1ServerUpdateObjectResponse.html" target="_top" xlink:title=" ">
<polygon fill="white" stroke="none" points="2159.75,-128 1980,-128 1980,-16 2159.75,-16 2159.75,-128"/>
<text text-anchor="start" x="1984" y="-114.5" font-family="Helvetica,sans-Serif" font-size="10.00">com.hust.ittnk68.cnpm.communication.</text>
<text text-anchor="start" x="2003.5" y="-102.5" font-family="Helvetica,sans-Serif" font-size="10.00">ServerUpdateObjectResponse</text>
<text text-anchor="start" x="1989.75" y="-86.5" font-family="Helvetica,sans-Serif" font-size="10.00">~</text>
<text text-anchor="start" x="2005.5" y="-86.5" font-family="Helvetica,sans-Serif" font-size="10.00">affectedRows</text>
<text text-anchor="start" x="1989.75" y="-70.5" font-family="Helvetica,sans-Serif" font-size="10.00">+</text>
<text text-anchor="start" x="2005.5" y="-70.5" font-family="Helvetica,sans-Serif" font-size="10.00">ServerUpdateObjectResponse()</text>
<text text-anchor="start" x="1989.75" y="-54.5" font-family="Helvetica,sans-Serif" font-size="10.00">+</text>
<text text-anchor="start" x="2005.5" y="-54.5" font-family="Helvetica,sans-Serif" font-size="10.00">ServerUpdateObjectResponse()</text>
<text text-anchor="start" x="1989.75" y="-38.5" font-family="Helvetica,sans-Serif" font-size="10.00">+</text>
<text text-anchor="start" x="2005.5" y="-38.5" font-family="Helvetica,sans-Serif" font-size="10.00">setAffectedRows()</text>
<text text-anchor="start" x="1989.75" y="-22.5" font-family="Helvetica,sans-Serif" font-size="10.00">+</text>
<text text-anchor="start" x="2005.5" y="-22.5" font-family="Helvetica,sans-Serif" font-size="10.00">getAffectedRows()</text>
<polygon fill="#666666" stroke="#666666" points="1980,-98 1980,-98 2159.75,-98 2159.75,-98 1980,-98"/>
<polygon fill="#666666" stroke="#666666" points="1980,-82 1980,-82 2003.5,-82 2003.5,-82 1980,-82"/>
<polygon fill="#666666" stroke="#666666" points="2003.5,-82 2003.5,-82 2159.75,-82 2159.75,-82 2003.5,-82"/>
<polygon fill="none" stroke="#666666" points="1980,-16 1980,-128 2159.75,-128 2159.75,-16 1980,-16"/>
</a>
</g>
</g>
<!-- Node1&#45;&gt;Node12 -->
<g id="edge11_Node000001_Node000012" class="edge">
<title>Node1&#45;&gt;Node12</title>
<g id="a_edge11_Node000001_Node000012"><a xlink:title=" ">
<path fill="none" stroke="#63b8ff" d="M1181.22,-238.19C1383.2,-227.56 1828.69,-198.56 1970.88,-144 1981.74,-139.83 1992.5,-134.18 2002.71,-127.87"/>
<polygon fill="none" stroke="#63b8ff" points="1181.05,-234.69 1171.25,-238.71 1181.42,-241.69 1181.05,-234.69"/>
</a>
</g>
</g>
</g>
</svg>

<g id="navigator" transform="translate(0 0)" fill="#404254">
  <rect fill="#f2f5e9" fill-opacity="0.5" stroke="#606060" stroke-width=".5" x="0" y="0" width="60" height="60"/>
  <use id="zoomplus" xlink:href="#zoomPlus" x="17" y="9" onmousedown="handleZoom(evt,'in')"/>
  <use id="zoomminus" xlink:href="#zoomMin" x="42" y="9" onmousedown="handleZoom(evt,'out')"/>
  <use id="reset" xlink:href="#resetDef" x="30" y="36" onmousedown="handleReset()"/>
   <use id="arrowup" xlink:href="#arrowUp" x="0" y="0" onmousedown="handlePan(0,-1)"/>
  <use id="arrowright" xlink:href="#arrowRight" x="0" y="0" onmousedown="handlePan(1,0)"/>
  <use id="arrowdown" xlink:href="#arrowDown" x="0" y="0" onmousedown="handlePan(0,1)"/>
  <use id="arrowleft" xlink:href="#arrowLeft" x="0" y="0" onmousedown="handlePan(-1,0)"/>
</g>
<svg viewBox="0 0 15 15" width="100%" height="30px" preserveAspectRatio="xMaxYMin meet">
 <g id="arrow_out" transform="scale(0.3 0.3)">
  <a xlink:href="classcom_1_1hust_1_1ittnk68_1_1cnpm_1_1communication_1_1ServerResponseBase__inherit__graph_org.svg" target="_base">
   <rect id="button" ry="5" rx="5" y="6" x="6" height="38" width="38"
        fill="#f2f5e9" fill-opacity="0.5" stroke="#606060" stroke-width="1.0"/>
   <path id="arrow"
     d="M 11.500037,31.436501 C 11.940474,20.09759 22.043105,11.32322 32.158766,21.979434 L 37.068811,17.246167 C 37.068811,17.246167 37.088388,32 37.088388,32 L 22.160133,31.978069 C 22.160133,31.978069 26.997745,27.140456 26.997745,27.140456 C 18.528582,18.264221 13.291696,25.230495 11.500037,31.436501 z"
     style="fill:#404040;"/>
  </a>
 </g>
</svg>

<style type='text/css'>
<![CDATA[
[data-mouse-over-selected='false'] { opacity: 0.7; }
[data-mouse-over-selected='true']  { opacity: 1.0; }
]]>
</style>
<script type="application/ecmascript"><![CDATA[
document.addEventListener('DOMContentLoaded', (event) => {
  highlightEdges();
  highlightAdjacentNodes();
});
]]></script>
</svg>
