<?xml version="1.0" encoding="UTF-8" standalone="no"?>
<!DOCTYPE svg PUBLIC "-//W3C//DTD SVG 1.1//EN"
 "http://www.w3.org/Graphics/SVG/1.1/DTD/svg11.dtd">
<!-- Generated by graphviz version 12.2.1 (20241206.2353)
 -->
<!-- Title: com.hust.ittnk68.cnpm.communication.ClientMessageStartSession Pages: 1 -->
<svg width="188pt" height="284pt"
 viewBox="0.00 0.00 187.75 284.00" xmlns="http://www.w3.org/2000/svg" xmlns:xlink="http://www.w3.org/1999/xlink">
<g id="graph0" class="graph" transform="scale(1 1) rotate(0) translate(4 280)">
<title>com.hust.ittnk68.cnpm.communication.ClientMessageStartSession</title>
<!-- Node1 -->
<g id="Node000001" class="node">
<title>Node1</title>
<g id="a_Node000001"><a xlink:title=" ">
<polygon fill="#999999" stroke="none" points="179.75,-144 0,-144 0,0 179.75,0 179.75,-144"/>
<text text-anchor="start" x="4" y="-130.5" font-family="Helvetica,sans-Serif" font-size="10.00">com.hust.ittnk68.cnpm.communication.</text>
<text text-anchor="start" x="29.12" y="-118.5" font-family="Helvetica,sans-Serif" font-size="10.00">ClientMessageStartSession</text>
<text text-anchor="start" x="12.56" y="-102.5" font-family="Helvetica,sans-Serif" font-size="10.00">~</text>
<text text-anchor="start" x="31.12" y="-102.5" font-family="Helvetica,sans-Serif" font-size="10.00">username</text>
<text text-anchor="start" x="12.56" y="-86.5" font-family="Helvetica,sans-Serif" font-size="10.00">~</text>
<text text-anchor="start" x="31.12" y="-86.5" font-family="Helvetica,sans-Serif" font-size="10.00">digestPassword</text>
<text text-anchor="start" x="12.56" y="-70.5" font-family="Helvetica,sans-Serif" font-size="10.00">+</text>
<text text-anchor="start" x="31.12" y="-70.5" font-family="Helvetica,sans-Serif" font-size="10.00">ClientMessageStartSession()</text>
<text text-anchor="start" x="12.56" y="-54.5" font-family="Helvetica,sans-Serif" font-size="10.00">+</text>
<text text-anchor="start" x="31.12" y="-54.5" font-family="Helvetica,sans-Serif" font-size="10.00">getUsername()</text>
<text text-anchor="start" x="12.56" y="-38.5" font-family="Helvetica,sans-Serif" font-size="10.00">+</text>
<text text-anchor="start" x="31.12" y="-38.5" font-family="Helvetica,sans-Serif" font-size="10.00">setUsername()</text>
<text text-anchor="start" x="12.56" y="-22.5" font-family="Helvetica,sans-Serif" font-size="10.00">+</text>
<text text-anchor="start" x="31.12" y="-22.5" font-family="Helvetica,sans-Serif" font-size="10.00">getDigestPassword()</text>
<text text-anchor="start" x="12.56" y="-6.5" font-family="Helvetica,sans-Serif" font-size="10.00">+</text>
<text text-anchor="start" x="31.12" y="-6.5" font-family="Helvetica,sans-Serif" font-size="10.00">setDigestPassword()</text>
<polygon fill="#666666" stroke="#666666" points="0,-114 0,-114 179.75,-114 179.75,-114 0,-114"/>
<polygon fill="#666666" stroke="#666666" points="0,-82 0,-82 29.12,-82 29.12,-82 0,-82"/>
<polygon fill="#666666" stroke="#666666" points="29.12,-82 29.12,-82 179.75,-82 179.75,-82 29.12,-82"/>
<polygon fill="none" stroke="#666666" points="0,0 0,-144 179.75,-144 179.75,0 0,0"/>
</a>
</g>
</g>
<!-- Node2 -->
<g id="Node000002" class="node">
<title>Node2</title>
<g id="a_Node000002"><a xlink:href="classcom_1_1hust_1_1ittnk68_1_1cnpm_1_1communication_1_1ClientMessageBase.html" target="_top" xlink:title=" ">
<polygon fill="white" stroke="none" points="179.75,-276 0,-276 0,-180 179.75,-180 179.75,-276"/>
<text text-anchor="start" x="4" y="-262.5" font-family="Helvetica,sans-Serif" font-size="10.00">com.hust.ittnk68.cnpm.communication.</text>
<text text-anchor="start" x="46" y="-250.5" font-family="Helvetica,sans-Serif" font-size="10.00">ClientMessageBase</text>
<text text-anchor="start" x="88.38" y="-234.5" font-family="Helvetica,sans-Serif" font-size="10.00"> </text>
<text text-anchor="start" x="21" y="-218.5" font-family="Helvetica,sans-Serif" font-size="10.00">+</text>
<text text-anchor="start" x="48" y="-218.5" font-family="Helvetica,sans-Serif" font-size="10.00">getToken()</text>
<text text-anchor="start" x="21" y="-202.5" font-family="Helvetica,sans-Serif" font-size="10.00">+</text>
<text text-anchor="start" x="48" y="-202.5" font-family="Helvetica,sans-Serif" font-size="10.00">setToken()</text>
<text text-anchor="start" x="21" y="-186.5" font-family="Helvetica,sans-Serif" font-size="10.00">~</text>
<text text-anchor="start" x="48" y="-186.5" font-family="Helvetica,sans-Serif" font-size="10.00">ClientMessageBase()</text>
<polygon fill="#666666" stroke="#666666" points="0,-246 0,-246 179.75,-246 179.75,-246 0,-246"/>
<polygon fill="#666666" stroke="#666666" points="0,-230 0,-230 179.75,-230 179.75,-230 0,-230"/>
<polygon fill="none" stroke="#666666" points="0,-180 0,-276 179.75,-276 179.75,-180 0,-180"/>
</a>
</g>
</g>
<!-- Node2&#45;&gt;Node1 -->
<g id="edge1_Node000001_Node000002" class="edge">
<title>Node2&#45;&gt;Node1</title>
<g id="a_edge1_Node000001_Node000002"><a xlink:title=" ">
<path fill="none" stroke="#63b8ff" d="M89.88,-169.03C89.88,-160.83 89.88,-152.32 89.88,-143.91"/>
<polygon fill="none" stroke="#63b8ff" points="86.38,-168.86 89.88,-178.86 93.38,-168.86 86.38,-168.86"/>
</a>
</g>
</g>
</g>
</svg>
