<?xml version="1.0" encoding="UTF-8" standalone="no"?>
<!DOCTYPE svg PUBLIC "-//W3C//DTD SVG 1.1//EN"
 "http://www.w3.org/Graphics/SVG/1.1/DTD/svg11.dtd">
<!-- Generated by graphviz version 12.2.1 (20241206.2353)
 -->
<!-- Title: com.hust.ittnk68.cnpm.view.DuongFXTabPane Pages: 1 -->
<!--zoomable 272 -->

<svg id="main" version="1.1" xmlns="http://www.w3.org/2000/svg" xmlns:xlink="http://www.w3.org/1999/xlink" xml:space="preserve" onload="init(evt)">

<style type="text/css"><![CDATA[
.node, .edge {opacity: 0.7;}
.node.selected, .edge.selected {opacity: 1;}
.edge:hover path { stroke: red; }
.edge:hover polygon { stroke: red; fill: red; }
]]></style>

<defs>
  <circle id="rim" cx="0" cy="0" r="7"/>
  <circle id="rim2" cx="0" cy="0" r="3.5"/>
  <g id="zoomPlus">
    <use xlink:href="#rim" fill="#404040"><set attributeName="fill" to="#808080" begin="zoomplus.mouseover" end="zoomplus.mouseout"/></use>
    <path d="M-4,0h8M0,-4v8" fill="none" stroke="white" stroke-width="1.5" pointer-events="none"/>
  </g>
  <g id="zoomMin">
    <use xlink:href="#rim" fill="#404040"><set attributeName="fill" to="#808080" begin="zoomminus.mouseover" end="zoomminus.mouseout"/></use>
    <path d="M-4,0h8" fill="none" stroke="white" stroke-width="1.5" pointer-events="none"/>
  </g>
  <g id="arrowUp" transform="translate(30 24)">
    <use xlink:href="#rim"/>
    <path pointer-events="none" fill="none" stroke="white" stroke-width="1.5" d="M0,-3.0v7 M-2.5,-0.5L0,-3.0L2.5,-0.5"/>
  </g>
  <g id="arrowRight" transform="rotate(90) translate(36 -43)">
    <use xlink:href="#rim"/>
    <path pointer-events="none" fill="none" stroke="white" stroke-width="1.5" d="M0,-3.0v7 M-2.5,-0.5L0,-3.0L2.5,-0.5"/>
  </g>
  <g id="arrowDown" transform="rotate(180) translate(-30 -48)">
    <use xlink:href="#rim"/>
    <path pointer-events="none" fill="none" stroke="white" stroke-width="1.5" d="M0,-3.0v7 M-2.5,-0.5L0,-3.0L2.5,-0.5"/>
  </g>
  <g id="arrowLeft" transform="rotate(270) translate(-36 17)">
    <use xlink:href="#rim"/>
    <path pointer-events="none" fill="none" stroke="white" stroke-width="1.5" d="M0,-3.0v7 M-2.5,-0.5L0,-3.0L2.5,-0.5"/>
  </g>
  <g id="resetDef">
    <use xlink:href="#rim2" fill="#404040"><set attributeName="fill" to="#808080" begin="reset.mouseover" end="reset.mouseout"/></use>
  </g>
</defs>
<script type="application/ecmascript">
var viewWidth = 961;
var viewHeight = 272;
var sectionId = 'dynsection-0';
</script>
<script type="application/ecmascript" xlink:href="svg.min.js"/>
<svg id="graph" class="graph">
<g id="viewport">
<title>com.hust.ittnk68.cnpm.view.DuongFXTabPane</title>
<!-- Node1 -->
<g id="Node000001" class="node">
<title>Node1</title>
<g id="a_Node000001"><a xlink:title=" ">
<polygon fill="#999999" stroke="none" points="546.62,-176 414.12,-176 414.12,-112 546.62,-112 546.62,-176"/>
<text text-anchor="start" x="418.12" y="-162.5" font-family="Helvetica,sans-Serif" font-size="10.00">com.hust.ittnk68.cnpm.view.</text>
<text text-anchor="start" x="440.62" y="-150.5" font-family="Helvetica,sans-Serif" font-size="10.00">DuongFXTabPane</text>
<text text-anchor="start" x="478.88" y="-134.5" font-family="Helvetica,sans-Serif" font-size="10.00"> </text>
<text text-anchor="start" x="425.38" y="-118.5" font-family="Helvetica,sans-Serif" font-size="10.00">+</text>
<text text-anchor="start" x="442.62" y="-118.5" font-family="Helvetica,sans-Serif" font-size="10.00">DuongFXTabPane()</text>
<polygon fill="#666666" stroke="#666666" points="414.12,-146 414.12,-146 546.62,-146 546.62,-146 414.12,-146"/>
<polygon fill="#666666" stroke="#666666" points="414.12,-130 414.12,-130 546.62,-130 546.62,-130 414.12,-130"/>
<polygon fill="none" stroke="#666666" points="414.12,-112 414.12,-176 546.62,-176 546.62,-112 414.12,-112"/>
</a>
</g>
</g>
<!-- Node3 -->
<g id="Node000003" class="node">
<title>Node3</title>
<g id="a_Node000003"><a xlink:href="classcom_1_1hust_1_1ittnk68_1_1cnpm_1_1view_1_1AdminAccountManagePage.html" target="_top" xlink:title=" ">
<polygon fill="white" stroke="none" points="144.75,-70 0,-70 0,-6 144.75,-6 144.75,-70"/>
<text text-anchor="start" x="10.12" y="-56.5" font-family="Helvetica,sans-Serif" font-size="10.00">com.hust.ittnk68.cnpm.view.</text>
<text text-anchor="start" x="12" y="-44.5" font-family="Helvetica,sans-Serif" font-size="10.00">AdminAccountManagePage</text>
<text text-anchor="start" x="70.88" y="-28.5" font-family="Helvetica,sans-Serif" font-size="10.00"> </text>
<text text-anchor="start" x="4" y="-12.5" font-family="Helvetica,sans-Serif" font-size="10.00">+</text>
<text text-anchor="start" x="14" y="-12.5" font-family="Helvetica,sans-Serif" font-size="10.00">AdminAccountManagePage()</text>
<polygon fill="#666666" stroke="#666666" points="0,-40 0,-40 144.75,-40 144.75,-40 0,-40"/>
<polygon fill="#666666" stroke="#666666" points="0,-24 0,-24 144.75,-24 144.75,-24 0,-24"/>
<polygon fill="none" stroke="#666666" points="0,-6 0,-70 144.75,-70 144.75,-6 0,-6"/>
</a>
</g>
</g>
<!-- Node1&#45;&gt;Node3 -->
<g id="edge2_Node000001_Node000003" class="edge">
<title>Node1&#45;&gt;Node3</title>
<g id="a_edge2_Node000001_Node000003"><a xlink:title=" ">
<path fill="none" stroke="#63b8ff" d="M403.1,-132.23C336.02,-121.69 236.83,-103.22 153.38,-76 147.79,-74.18 142.08,-72.08 136.4,-69.83"/>
<polygon fill="none" stroke="#63b8ff" points="402.5,-135.68 412.92,-133.75 403.57,-128.76 402.5,-135.68"/>
</a>
</g>
</g>
<!-- Node4 -->
<g id="Node000004" class="node">
<title>Node4</title>
<g id="a_Node000004"><a xlink:href="classcom_1_1hust_1_1ittnk68_1_1cnpm_1_1view_1_1AdminExpenseManagePage.html" target="_top" xlink:title=" ">
<polygon fill="white" stroke="none" points="309.88,-70 162.88,-70 162.88,-6 309.88,-6 309.88,-70"/>
<text text-anchor="start" x="174.12" y="-56.5" font-family="Helvetica,sans-Serif" font-size="10.00">com.hust.ittnk68.cnpm.view.</text>
<text text-anchor="start" x="174.88" y="-44.5" font-family="Helvetica,sans-Serif" font-size="10.00">AdminExpenseManagePage</text>
<text text-anchor="start" x="234.88" y="-28.5" font-family="Helvetica,sans-Serif" font-size="10.00"> </text>
<text text-anchor="start" x="166.88" y="-12.5" font-family="Helvetica,sans-Serif" font-size="10.00">+</text>
<text text-anchor="start" x="176.88" y="-12.5" font-family="Helvetica,sans-Serif" font-size="10.00">AdminExpenseManagePage()</text>
<polygon fill="#666666" stroke="#666666" points="162.88,-40 162.88,-40 309.88,-40 309.88,-40 162.88,-40"/>
<polygon fill="#666666" stroke="#666666" points="162.88,-24 162.88,-24 309.88,-24 309.88,-24 162.88,-24"/>
<polygon fill="none" stroke="#666666" points="162.88,-6 162.88,-70 309.88,-70 309.88,-6 162.88,-6"/>
</a>
</g>
</g>
<!-- Node1&#45;&gt;Node4 -->
<g id="edge3_Node000001_Node000004" class="edge">
<title>Node1&#45;&gt;Node4</title>
<g id="a_edge3_Node000001_Node000004"><a xlink:title=" ">
<path fill="none" stroke="#63b8ff" d="M403.94,-111.65C377.14,-100.54 346.87,-87.85 319.38,-76 314.74,-74 309.96,-71.93 305.16,-69.82"/>
<polygon fill="none" stroke="#63b8ff" points="402.44,-114.82 413.02,-115.41 405.12,-108.35 402.44,-114.82"/>
</a>
</g>
</g>
<!-- Node5 -->
<g id="Node000005" class="node">
<title>Node5</title>
<g id="a_Node000005"><a xlink:href="classcom_1_1hust_1_1ittnk68_1_1cnpm_1_1view_1_1AdminFamilyManagePage.html" target="_top" xlink:title=" ">
<polygon fill="white" stroke="none" points="466.38,-70 328.38,-70 328.38,-6 466.38,-6 466.38,-70"/>
<text text-anchor="start" x="335.12" y="-56.5" font-family="Helvetica,sans-Serif" font-size="10.00">com.hust.ittnk68.cnpm.view.</text>
<text text-anchor="start" x="340.38" y="-44.5" font-family="Helvetica,sans-Serif" font-size="10.00">AdminFamilyManagePage</text>
<text text-anchor="start" x="395.88" y="-28.5" font-family="Helvetica,sans-Serif" font-size="10.00"> </text>
<text text-anchor="start" x="332.38" y="-12.5" font-family="Helvetica,sans-Serif" font-size="10.00">+</text>
<text text-anchor="start" x="342.38" y="-12.5" font-family="Helvetica,sans-Serif" font-size="10.00">AdminFamilyManagePage()</text>
<polygon fill="#666666" stroke="#666666" points="328.38,-40 328.38,-40 466.38,-40 466.38,-40 328.38,-40"/>
<polygon fill="#666666" stroke="#666666" points="328.38,-24 328.38,-24 466.38,-24 466.38,-24 328.38,-24"/>
<polygon fill="none" stroke="#666666" points="328.38,-6 328.38,-70 466.38,-70 466.38,-6 328.38,-6"/>
</a>
</g>
</g>
<!-- Node1&#45;&gt;Node5 -->
<g id="edge4_Node000001_Node000005" class="edge">
<title>Node1&#45;&gt;Node5</title>
<g id="a_edge4_Node000001_Node000005"><a xlink:title=" ">
<path fill="none" stroke="#63b8ff" d="M448.52,-103.08C439.76,-92.11 430.39,-80.37 422.1,-69.98"/>
<polygon fill="none" stroke="#63b8ff" points="445.78,-105.26 454.75,-110.9 451.25,-100.9 445.78,-105.26"/>
</a>
</g>
</g>
<!-- Node6 -->
<g id="Node000006" class="node">
<title>Node6</title>
<g id="a_Node000006"><a xlink:href="classcom_1_1hust_1_1ittnk68_1_1cnpm_1_1view_1_1AdminPaymentStatusManagePage.html" target="_top" xlink:title=" ">
<polygon fill="white" stroke="none" points="644.5,-76 484.25,-76 484.25,0 644.5,0 644.5,-76"/>
<text text-anchor="start" x="488.25" y="-62.5" font-family="Helvetica,sans-Serif" font-size="10.00">com.hust.ittnk68.cnpm.view.</text>
<text text-anchor="start" x="488.25" y="-50.5" font-family="Helvetica,sans-Serif" font-size="10.00">AdminPaymentStatusManagePage</text>
<text text-anchor="start" x="562.88" y="-34.5" font-family="Helvetica,sans-Serif" font-size="10.00"> </text>
<text text-anchor="start" x="491.38" y="-18.5" font-family="Helvetica,sans-Serif" font-size="10.00">+</text>
<text text-anchor="start" x="504.5" y="-18.5" font-family="Helvetica,sans-Serif" font-size="10.00">AdminPaymentStatusManage</text>
<text text-anchor="start" x="504.5" y="-6.5" font-family="Helvetica,sans-Serif" font-size="10.00">Page()</text>
<polygon fill="#666666" stroke="#666666" points="484.25,-46 484.25,-46 644.5,-46 644.5,-46 484.25,-46"/>
<polygon fill="#666666" stroke="#666666" points="484.25,-30 484.25,-30 644.5,-30 644.5,-30 484.25,-30"/>
<polygon fill="none" stroke="#666666" points="484.25,0 484.25,-76 644.5,-76 644.5,0 484.25,0"/>
</a>
</g>
</g>
<!-- Node1&#45;&gt;Node6 -->
<g id="edge5_Node000001_Node000006" class="edge">
<title>Node1&#45;&gt;Node6</title>
<g id="a_edge5_Node000001_Node000006"><a xlink:title=" ">
<path fill="none" stroke="#63b8ff" d="M512.45,-103.29C519.73,-94.28 527.43,-84.74 534.61,-75.86"/>
<polygon fill="none" stroke="#63b8ff" points="509.86,-100.92 506.3,-110.9 515.31,-105.32 509.86,-100.92"/>
</a>
</g>
</g>
<!-- Node7 -->
<g id="Node000007" class="node">
<title>Node7</title>
<g id="a_Node000007"><a xlink:href="classcom_1_1hust_1_1ittnk68_1_1cnpm_1_1view_1_1AdminPersonManagePage.html" target="_top" xlink:title=" ">
<polygon fill="white" stroke="none" points="802.12,-70 662.62,-70 662.62,-6 802.12,-6 802.12,-70"/>
<text text-anchor="start" x="670.12" y="-56.5" font-family="Helvetica,sans-Serif" font-size="10.00">com.hust.ittnk68.cnpm.view.</text>
<text text-anchor="start" x="674.62" y="-44.5" font-family="Helvetica,sans-Serif" font-size="10.00">AdminPersonManagePage</text>
<text text-anchor="start" x="730.88" y="-28.5" font-family="Helvetica,sans-Serif" font-size="10.00"> </text>
<text text-anchor="start" x="666.62" y="-12.5" font-family="Helvetica,sans-Serif" font-size="10.00">+</text>
<text text-anchor="start" x="676.62" y="-12.5" font-family="Helvetica,sans-Serif" font-size="10.00">AdminPersonManagePage()</text>
<polygon fill="#666666" stroke="#666666" points="662.62,-40 662.62,-40 802.12,-40 802.12,-40 662.62,-40"/>
<polygon fill="#666666" stroke="#666666" points="662.62,-24 662.62,-24 802.12,-24 802.12,-24 662.62,-24"/>
<polygon fill="none" stroke="#666666" points="662.62,-6 662.62,-70 802.12,-70 802.12,-6 662.62,-6"/>
</a>
</g>
</g>
<!-- Node1&#45;&gt;Node7 -->
<g id="edge6_Node000001_Node000007" class="edge">
<title>Node1&#45;&gt;Node7</title>
<g id="a_edge6_Node000001_Node000007"><a xlink:title=" ">
<path fill="none" stroke="#63b8ff" d="M557,-114.62C587.22,-103.09 622.11,-89.36 653.38,-76 657.97,-74.04 662.69,-71.96 667.44,-69.84"/>
<polygon fill="none" stroke="#63b8ff" points="556.04,-111.24 547.94,-118.06 558.53,-117.78 556.04,-111.24"/>
</a>
</g>
</g>
<!-- Node8 -->
<g id="Node000008" class="node">
<title>Node8</title>
<g id="a_Node000008"><a xlink:href="classcom_1_1hust_1_1ittnk68_1_1cnpm_1_1view_1_1ClientExpensePage.html" target="_top" xlink:title=" ">
<polygon fill="white" stroke="none" points="952.62,-70 820.12,-70 820.12,-6 952.62,-6 952.62,-70"/>
<text text-anchor="start" x="824.12" y="-56.5" font-family="Helvetica,sans-Serif" font-size="10.00">com.hust.ittnk68.cnpm.view.</text>
<text text-anchor="start" x="843.25" y="-44.5" font-family="Helvetica,sans-Serif" font-size="10.00">ClientExpensePage</text>
<text text-anchor="start" x="884.88" y="-28.5" font-family="Helvetica,sans-Serif" font-size="10.00"> </text>
<text text-anchor="start" x="829.69" y="-12.5" font-family="Helvetica,sans-Serif" font-size="10.00">+</text>
<text text-anchor="start" x="845.25" y="-12.5" font-family="Helvetica,sans-Serif" font-size="10.00">ClientExpensePage()</text>
<polygon fill="#666666" stroke="#666666" points="820.12,-40 820.12,-40 952.62,-40 952.62,-40 820.12,-40"/>
<polygon fill="#666666" stroke="#666666" points="820.12,-24 820.12,-24 952.62,-24 952.62,-24 820.12,-24"/>
<polygon fill="none" stroke="#666666" points="820.12,-6 820.12,-70 952.62,-70 952.62,-6 820.12,-6"/>
</a>
</g>
</g>
<!-- Node1&#45;&gt;Node8 -->
<g id="edge7_Node000001_Node000008" class="edge">
<title>Node1&#45;&gt;Node8</title>
<g id="a_edge7_Node000001_Node000008"><a xlink:title=" ">
<path fill="none" stroke="#63b8ff" d="M557.43,-133.17C625.48,-123.14 726.75,-104.89 811.38,-76 816.6,-74.22 821.92,-72.15 827.2,-69.92"/>
<polygon fill="none" stroke="#63b8ff" points="557.28,-129.65 547.88,-134.55 558.28,-136.58 557.28,-129.65"/>
</a>
</g>
</g>
<!-- Node2 -->
<g id="Node000002" class="node">
<title>Node2</title>
<g id="a_Node000002"><a xlink:href="classTabPane.html" target="_top" xlink:title=" ">
<polygon fill="white" stroke="none" points="503.5,-264 457.25,-264 457.25,-212 503.5,-212 503.5,-264"/>
<text text-anchor="start" x="461.25" y="-250.5" font-family="Helvetica,sans-Serif" font-size="10.00">TabPane</text>
<text text-anchor="start" x="478.88" y="-234.5" font-family="Helvetica,sans-Serif" font-size="10.00"> </text>
<text text-anchor="start" x="478.88" y="-218.5" font-family="Helvetica,sans-Serif" font-size="10.00"> </text>
<polygon fill="#666666" stroke="#666666" points="457.25,-246 457.25,-246 503.5,-246 503.5,-246 457.25,-246"/>
<polygon fill="#666666" stroke="#666666" points="457.25,-230 457.25,-230 503.5,-230 503.5,-230 457.25,-230"/>
<polygon fill="none" stroke="#666666" points="457.25,-212 457.25,-264 503.5,-264 503.5,-212 457.25,-212"/>
</a>
</g>
</g>
<!-- Node2&#45;&gt;Node1 -->
<g id="edge1_Node000001_Node000002" class="edge">
<title>Node2&#45;&gt;Node1</title>
<g id="a_edge1_Node000001_Node000002"><a xlink:title=" ">
<path fill="none" stroke="#63b8ff" d="M480.38,-201.06C480.38,-192.78 480.38,-184.04 480.38,-175.98"/>
<polygon fill="none" stroke="#63b8ff" points="476.88,-200.83 480.38,-210.83 483.88,-200.83 476.88,-200.83"/>
</a>
</g>
</g>
</g>
</svg>

<g id="navigator" transform="translate(0 0)" fill="#404254">
  <rect fill="#f2f5e9" fill-opacity="0.5" stroke="#606060" stroke-width=".5" x="0" y="0" width="60" height="60"/>
  <use id="zoomplus" xlink:href="#zoomPlus" x="17" y="9" onmousedown="handleZoom(evt,'in')"/>
  <use id="zoomminus" xlink:href="#zoomMin" x="42" y="9" onmousedown="handleZoom(evt,'out')"/>
  <use id="reset" xlink:href="#resetDef" x="30" y="36" onmousedown="handleReset()"/>
   <use id="arrowup" xlink:href="#arrowUp" x="0" y="0" onmousedown="handlePan(0,-1)"/>
  <use id="arrowright" xlink:href="#arrowRight" x="0" y="0" onmousedown="handlePan(1,0)"/>
  <use id="arrowdown" xlink:href="#arrowDown" x="0" y="0" onmousedown="handlePan(0,1)"/>
  <use id="arrowleft" xlink:href="#arrowLeft" x="0" y="0" onmousedown="handlePan(-1,0)"/>
</g>
<svg viewBox="0 0 15 15" width="100%" height="30px" preserveAspectRatio="xMaxYMin meet">
 <g id="arrow_out" transform="scale(0.3 0.3)">
  <a xlink:href="classcom_1_1hust_1_1ittnk68_1_1cnpm_1_1view_1_1DuongFXTabPane__inherit__graph_org.svg" target="_base">
   <rect id="button" ry="5" rx="5" y="6" x="6" height="38" width="38"
        fill="#f2f5e9" fill-opacity="0.5" stroke="#606060" stroke-width="1.0"/>
   <path id="arrow"
     d="M 11.500037,31.436501 C 11.940474,20.09759 22.043105,11.32322 32.158766,21.979434 L 37.068811,17.246167 C 37.068811,17.246167 37.088388,32 37.088388,32 L 22.160133,31.978069 C 22.160133,31.978069 26.997745,27.140456 26.997745,27.140456 C 18.528582,18.264221 13.291696,25.230495 11.500037,31.436501 z"
     style="fill:#404040;"/>
  </a>
 </g>
</svg>

<style type='text/css'>
<![CDATA[
[data-mouse-over-selected='false'] { opacity: 0.7; }
[data-mouse-over-selected='true']  { opacity: 1.0; }
]]>
</style>
<script type="application/ecmascript"><![CDATA[
document.addEventListener('DOMContentLoaded', (event) => {
  highlightEdges();
  highlightAdjacentNodes();
});
]]></script>
</svg>
