<?xml version="1.0" encoding="UTF-8" standalone="no"?>
<!DOCTYPE svg PUBLIC "-//W3C//DTD SVG 1.1//EN"
 "http://www.w3.org/Graphics/SVG/1.1/DTD/svg11.dtd">
<!-- Generated by graphviz version 12.2.1 (20241206.2353)
 -->
<!-- Title: BorderPane Pages: 1 -->
<svg width="443pt" height="160pt"
 viewBox="0.00 0.00 442.50 160.00" xmlns="http://www.w3.org/2000/svg" xmlns:xlink="http://www.w3.org/1999/xlink">

<svg id="main" version="1.1" xmlns="http://www.w3.org/2000/svg" xmlns:xlink="http://www.w3.org/1999/xlink" xml:space="preserve">

<style type="text/css"><![CDATA[
.node, .edge {opacity: 0.7;}
.node.selected, .edge.selected {opacity: 1;}
.edge:hover path { stroke: red; }
.edge:hover polygon { stroke: red; fill: red; }
]]></style>
<script type="application/ecmascript" xlink:href="svg.min.js"/>
<svg id="graph" class="graph">
<g id="graph0" class="graph" transform="scale(1 1) rotate(0) translate(4 156)">
<title>BorderPane</title>
<!-- Node1 -->
<g id="Node000001" class="node">
<title>Node1</title>
<g id="a_Node000001"><a xlink:title=" ">
<polygon fill="#999999" stroke="none" points="246.75,-152 187.75,-152 187.75,-100 246.75,-100 246.75,-152"/>
<text text-anchor="start" x="191.75" y="-138.5" font-family="Helvetica,sans-Serif" font-size="10.00">BorderPane</text>
<text text-anchor="start" x="215.75" y="-122.5" font-family="Helvetica,sans-Serif" font-size="10.00"> </text>
<text text-anchor="start" x="215.75" y="-106.5" font-family="Helvetica,sans-Serif" font-size="10.00"> </text>
<polygon fill="#666666" stroke="#666666" points="187.75,-134 187.75,-134 246.75,-134 246.75,-134 187.75,-134"/>
<polygon fill="#666666" stroke="#666666" points="187.75,-118 187.75,-118 246.75,-118 246.75,-118 187.75,-118"/>
<polygon fill="none" stroke="#666666" points="187.75,-100 187.75,-152 246.75,-152 246.75,-100 187.75,-100"/>
</a>
</g>
</g>
<!-- Node2 -->
<g id="Node000002" class="node">
<title>Node2</title>
<g id="a_Node000002"><a xlink:href="classcom_1_1hust_1_1ittnk68_1_1cnpm_1_1view_1_1AdminHomeSideBar.html" target="_top" xlink:title=" ">
<polygon fill="white" stroke="none" points="132.5,-64 0,-64 0,0 132.5,0 132.5,-64"/>
<text text-anchor="start" x="4" y="-50.5" font-family="Helvetica,sans-Serif" font-size="10.00">com.hust.ittnk68.cnpm.view.</text>
<text text-anchor="start" x="22" y="-38.5" font-family="Helvetica,sans-Serif" font-size="10.00">AdminHomeSideBar</text>
<text text-anchor="start" x="64.75" y="-22.5" font-family="Helvetica,sans-Serif" font-size="10.00"> </text>
<text text-anchor="start" x="9" y="-6.5" font-family="Helvetica,sans-Serif" font-size="10.00">+</text>
<text text-anchor="start" x="24" y="-6.5" font-family="Helvetica,sans-Serif" font-size="10.00">AdminHomeSideBar()</text>
<polygon fill="#666666" stroke="#666666" points="0,-34 0,-34 132.5,-34 132.5,-34 0,-34"/>
<polygon fill="#666666" stroke="#666666" points="0,-18 0,-18 132.5,-18 132.5,-18 0,-18"/>
<polygon fill="none" stroke="#666666" points="0,0 0,-64 132.5,-64 132.5,0 0,0"/>
</a>
</g>
</g>
<!-- Node1&#45;&gt;Node2 -->
<g id="edge1_Node000001_Node000002" class="edge">
<title>Node1&#45;&gt;Node2</title>
<g id="a_edge1_Node000001_Node000002"><a xlink:title=" ">
<path fill="none" stroke="#63b8ff" d="M178.15,-101.18C159.52,-89.82 137,-76.11 117.06,-63.96"/>
<polygon fill="none" stroke="#63b8ff" points="176.12,-104.04 186.48,-106.26 179.77,-98.06 176.12,-104.04"/>
</a>
</g>
</g>
<!-- Node3 -->
<g id="Node000003" class="node">
<title>Node3</title>
<g id="a_Node000003"><a xlink:href="classcom_1_1hust_1_1ittnk68_1_1cnpm_1_1view_1_1ClientHomeSideBar.html" target="_top" xlink:title=" ">
<polygon fill="white" stroke="none" points="283.5,-64 151,-64 151,0 283.5,0 283.5,-64"/>
<text text-anchor="start" x="155" y="-50.5" font-family="Helvetica,sans-Serif" font-size="10.00">com.hust.ittnk68.cnpm.view.</text>
<text text-anchor="start" x="174.12" y="-38.5" font-family="Helvetica,sans-Serif" font-size="10.00">ClientHomeSideBar</text>
<text text-anchor="start" x="215.75" y="-22.5" font-family="Helvetica,sans-Serif" font-size="10.00"> </text>
<text text-anchor="start" x="160.56" y="-6.5" font-family="Helvetica,sans-Serif" font-size="10.00">+</text>
<text text-anchor="start" x="176.12" y="-6.5" font-family="Helvetica,sans-Serif" font-size="10.00">ClientHomeSideBar()</text>
<polygon fill="#666666" stroke="#666666" points="151,-34 151,-34 283.5,-34 283.5,-34 151,-34"/>
<polygon fill="#666666" stroke="#666666" points="151,-18 151,-18 283.5,-18 283.5,-18 151,-18"/>
<polygon fill="none" stroke="#666666" points="151,0 151,-64 283.5,-64 283.5,0 151,0"/>
</a>
</g>
</g>
<!-- Node1&#45;&gt;Node3 -->
<g id="edge2_Node000001_Node000003" class="edge">
<title>Node1&#45;&gt;Node3</title>
<g id="a_edge2_Node000001_Node000003"><a xlink:title=" ">
<path fill="none" stroke="#63b8ff" d="M217.25,-89.06C217.25,-80.78 217.25,-72.04 217.25,-63.98"/>
<polygon fill="none" stroke="#63b8ff" points="213.75,-88.83 217.25,-98.83 220.75,-88.83 213.75,-88.83"/>
</a>
</g>
</g>
<!-- Node4 -->
<g id="Node000004" class="node">
<title>Node4</title>
<g id="a_Node000004"><a xlink:href="classcom_1_1hust_1_1ittnk68_1_1cnpm_1_1view_1_1LoginView.html" target="_top" xlink:title=" ">
<polygon fill="white" stroke="none" points="434.5,-64 302,-64 302,0 434.5,0 434.5,-64"/>
<text text-anchor="start" x="306" y="-50.5" font-family="Helvetica,sans-Serif" font-size="10.00">com.hust.ittnk68.cnpm.view.</text>
<text text-anchor="start" x="345.75" y="-38.5" font-family="Helvetica,sans-Serif" font-size="10.00">LoginView</text>
<text text-anchor="start" x="366.75" y="-22.5" font-family="Helvetica,sans-Serif" font-size="10.00"> </text>
<text text-anchor="start" x="321.88" y="-6.5" font-family="Helvetica,sans-Serif" font-size="10.00">+</text>
<text text-anchor="start" x="347.75" y="-6.5" font-family="Helvetica,sans-Serif" font-size="10.00">LoginView()</text>
<polygon fill="#666666" stroke="#666666" points="302,-34 302,-34 434.5,-34 434.5,-34 302,-34"/>
<polygon fill="#666666" stroke="#666666" points="302,-18 302,-18 434.5,-18 434.5,-18 302,-18"/>
<polygon fill="none" stroke="#666666" points="302,0 302,-64 434.5,-64 434.5,0 302,0"/>
</a>
</g>
</g>
<!-- Node1&#45;&gt;Node4 -->
<g id="edge3_Node000001_Node000004" class="edge">
<title>Node1&#45;&gt;Node4</title>
<g id="a_edge3_Node000001_Node000004"><a xlink:title=" ">
<path fill="none" stroke="#63b8ff" d="M256.35,-101.18C274.98,-89.82 297.5,-76.11 317.44,-63.96"/>
<polygon fill="none" stroke="#63b8ff" points="254.73,-98.06 248.02,-106.26 258.38,-104.04 254.73,-98.06"/>
</a>
</g>
</g>
</g>
</svg>
</svg>

<style type='text/css'>
<![CDATA[
[data-mouse-over-selected='false'] { opacity: 0.7; }
[data-mouse-over-selected='true']  { opacity: 1.0; }
]]>
</style>
<script type="application/ecmascript"><![CDATA[
document.addEventListener('DOMContentLoaded', (event) => {
  highlightEdges();
  highlightAdjacentNodes();
});
]]></script>
</svg>
