<?xml version="1.0" encoding="UTF-8" standalone="no"?>
<!DOCTYPE svg PUBLIC "-//W3C//DTD SVG 1.1//EN"
 "http://www.w3.org/Graphics/SVG/1.1/DTD/svg11.dtd">
<!-- Generated by graphviz version 12.2.1 (20241206.2353)
 -->
<!-- Title: com.hust.ittnk68.cnpm.service.AuthController Pages: 1 -->
<svg width="162pt" height="328pt"
 viewBox="0.00 0.00 161.50 328.00" xmlns="http://www.w3.org/2000/svg" xmlns:xlink="http://www.w3.org/1999/xlink">

<svg id="main" version="1.1" xmlns="http://www.w3.org/2000/svg" xmlns:xlink="http://www.w3.org/1999/xlink" xml:space="preserve">

<style type="text/css"><![CDATA[
.node, .edge {opacity: 0.7;}
.node.selected, .edge.selected {opacity: 1;}
.edge:hover path { stroke: red; }
.edge:hover polygon { stroke: red; fill: red; }
]]></style>
<script type="application/ecmascript" xlink:href="svg.min.js"/>
<svg id="graph" class="graph">
<g id="graph0" class="graph" transform="scale(1 1) rotate(0) translate(4 324)">
<title>com.hust.ittnk68.cnpm.service.AuthController</title>
<!-- Node1 -->
<g id="Node000001" class="node">
<title>Node1</title>
<g id="a_Node000001"><a xlink:title=" ">
<polygon fill="#999999" stroke="none" points="149.38,-112 4.12,-112 4.12,0 149.38,0 149.38,-112"/>
<text text-anchor="start" x="8.12" y="-98.5" font-family="Helvetica,sans-Serif" font-size="10.00">com.hust.ittnk68.cnpm.service.</text>
<text text-anchor="start" x="45.62" y="-86.5" font-family="Helvetica,sans-Serif" font-size="10.00">AuthController</text>
<text text-anchor="start" x="75.25" y="-70.5" font-family="Helvetica,sans-Serif" font-size="10.00"> </text>
<text text-anchor="start" x="11.81" y="-54.5" font-family="Helvetica,sans-Serif" font-size="10.00">+</text>
<text text-anchor="start" x="25.5" y="-54.5" font-family="Helvetica,sans-Serif" font-size="10.00">getAccountByUsername()</text>
<text text-anchor="start" x="11.81" y="-38.5" font-family="Helvetica,sans-Serif" font-size="10.00">+</text>
<text text-anchor="start" x="25.5" y="-38.5" font-family="Helvetica,sans-Serif" font-size="10.00">test()</text>
<text text-anchor="start" x="11.81" y="-22.5" font-family="Helvetica,sans-Serif" font-size="10.00">+</text>
<text text-anchor="start" x="25.5" y="-22.5" font-family="Helvetica,sans-Serif" font-size="10.00">welcome()</text>
<text text-anchor="start" x="11.81" y="-6.5" font-family="Helvetica,sans-Serif" font-size="10.00">+</text>
<text text-anchor="start" x="25.5" y="-6.5" font-family="Helvetica,sans-Serif" font-size="10.00">startSession()</text>
<polygon fill="#666666" stroke="#666666" points="4.12,-82 4.12,-82 149.38,-82 149.38,-82 4.12,-82"/>
<polygon fill="#666666" stroke="#666666" points="4.12,-66 4.12,-66 149.38,-66 149.38,-66 4.12,-66"/>
<polygon fill="none" stroke="#666666" points="4.12,0 4.12,-112 149.38,-112 149.38,0 4.12,0"/>
</a>
</g>
</g>
<!-- Node2 -->
<g id="Node000002" class="node">
<title>Node2</title>
<g id="a_Node000002"><a xlink:href="classcom_1_1hust_1_1ittnk68_1_1cnpm_1_1database_1_1MySQLDatabase.html" target="_top" xlink:title=" ">
<polygon fill="white" stroke="none" points="153.5,-320 0,-320 0,-160 153.5,-160 153.5,-320"/>
<text text-anchor="start" x="4" y="-306.5" font-family="Helvetica,sans-Serif" font-size="10.00">com.hust.ittnk68.cnpm.database.</text>
<text text-anchor="start" x="39.25" y="-294.5" font-family="Helvetica,sans-Serif" font-size="10.00">MySQLDatabase</text>
<text text-anchor="start" x="75.25" y="-278.5" font-family="Helvetica,sans-Serif" font-size="10.00"> </text>
<text text-anchor="start" x="16.5" y="-262.5" font-family="Helvetica,sans-Serif" font-size="10.00">+</text>
<text text-anchor="start" x="39" y="-262.5" font-family="Helvetica,sans-Serif" font-size="10.00">start()</text>
<text text-anchor="start" x="16.5" y="-246.5" font-family="Helvetica,sans-Serif" font-size="10.00">+</text>
<text text-anchor="start" x="39" y="-246.5" font-family="Helvetica,sans-Serif" font-size="10.00">close()</text>
<text text-anchor="start" x="16.5" y="-230.5" font-family="Helvetica,sans-Serif" font-size="10.00">+</text>
<text text-anchor="start" x="39" y="-230.5" font-family="Helvetica,sans-Serif" font-size="10.00">create()</text>
<text text-anchor="start" x="16.5" y="-214.5" font-family="Helvetica,sans-Serif" font-size="10.00">+</text>
<text text-anchor="start" x="39" y="-214.5" font-family="Helvetica,sans-Serif" font-size="10.00">deleteByCondition()</text>
<text text-anchor="start" x="16.5" y="-198.5" font-family="Helvetica,sans-Serif" font-size="10.00">+</text>
<text text-anchor="start" x="39" y="-198.5" font-family="Helvetica,sans-Serif" font-size="10.00">findByCondition()</text>
<text text-anchor="start" x="16.5" y="-182.5" font-family="Helvetica,sans-Serif" font-size="10.00">+</text>
<text text-anchor="start" x="39" y="-182.5" font-family="Helvetica,sans-Serif" font-size="10.00">singleUpdate()</text>
<text text-anchor="start" x="16.5" y="-166.5" font-family="Helvetica,sans-Serif" font-size="10.00">+</text>
<text text-anchor="start" x="39" y="-166.5" font-family="Helvetica,sans-Serif" font-size="10.00">findById()</text>
<polygon fill="#666666" stroke="#666666" points="0,-290 0,-290 153.5,-290 153.5,-290 0,-290"/>
<polygon fill="#666666" stroke="#666666" points="0,-274 0,-274 153.5,-274 153.5,-274 0,-274"/>
<polygon fill="none" stroke="#666666" points="0,-160 0,-320 153.5,-320 153.5,-160 0,-160"/>
</a>
</g>
</g>
<!-- Node2&#45;&gt;Node1 -->
<g id="edge1_Node000001_Node000002" class="edge">
<title>Node2&#45;&gt;Node1</title>
<g id="a_edge1_Node000001_Node000002"><a xlink:title=" ">
<path fill="none" stroke="#63b8ff" d="M76.75,-160.23C76.75,-148.36 76.75,-136.22 76.75,-124.61"/>
<polygon fill="none" stroke="#63b8ff" points="76.75,-124.69 72.75,-118.69 76.75,-112.69 80.75,-118.69 76.75,-124.69"/>
</a>
</g>
<text text-anchor="middle" x="100.75" y="-132.5" font-family="Helvetica,sans-Serif" font-size="10.00" fill="grey"> ~mysqlDb</text>
</g>
</g>
</svg>
</svg>

<style type='text/css'>
<![CDATA[
[data-mouse-over-selected='false'] { opacity: 0.7; }
[data-mouse-over-selected='true']  { opacity: 1.0; }
]]>
</style>
<script type="application/ecmascript"><![CDATA[
document.addEventListener('DOMContentLoaded', (event) => {
  highlightEdges();
  highlightAdjacentNodes();
});
]]></script>
</svg>
