<?xml version="1.0" encoding="UTF-8" standalone="no"?>
<!DOCTYPE svg PUBLIC "-//W3C//DTD SVG 1.1//EN"
 "http://www.w3.org/Graphics/SVG/1.1/DTD/svg11.dtd">
<!-- Generated by graphviz version 12.2.1 (20241206.2353)
 -->
<!-- Title: com.hust.ittnk68.cnpm.Client Pages: 1 -->
<svg width="144pt" height="180pt"
 viewBox="0.00 0.00 144.25 180.00" xmlns="http://www.w3.org/2000/svg" xmlns:xlink="http://www.w3.org/1999/xlink">
<g id="graph0" class="graph" transform="scale(1 1) rotate(0) translate(4 176)">
<title>com.hust.ittnk68.cnpm.Client</title>
<!-- Node1 -->
<g id="Node000001" class="node">
<title>Node1</title>
<g id="a_Node000001"><a xlink:title=" ">
<polygon fill="#999999" stroke="none" points="136.25,-84 0,-84 0,0 136.25,0 136.25,-84"/>
<text text-anchor="start" x="4" y="-70.5" font-family="Helvetica,sans-Serif" font-size="10.00">com.hust.ittnk68.cnpm.Client</text>
<text text-anchor="start" x="66.62" y="-54.5" font-family="Helvetica,sans-Serif" font-size="10.00"> </text>
<text text-anchor="start" x="26.81" y="-38.5" font-family="Helvetica,sans-Serif" font-size="10.00">+</text>
<text text-anchor="start" x="59.62" y="-38.5" font-family="Helvetica,sans-Serif" font-size="10.00">stop()</text>
<text text-anchor="start" x="26.81" y="-22.5" font-family="Helvetica,sans-Serif" font-size="10.00">+</text>
<text text-anchor="start" x="59.62" y="-22.5" font-family="Helvetica,sans-Serif" font-size="10.00">start()</text>
<text text-anchor="start" x="26.81" y="-6.5" font-family="Helvetica,sans-Serif" font-size="10.00">+</text>
<text text-anchor="start" x="59.62" y="-6.5" font-family="Helvetica,sans-Serif" font-size="10.00">main()</text>
<polygon fill="#666666" stroke="#666666" points="0,-66 0,-66 136.25,-66 136.25,-66 0,-66"/>
<polygon fill="#666666" stroke="#666666" points="0,-50 0,-50 136.25,-50 136.25,-50 0,-50"/>
<polygon fill="none" stroke="#666666" points="0,0 0,-84 136.25,-84 136.25,0 0,0"/>
</a>
</g>
</g>
<!-- Node2 -->
<g id="Node000002" class="node">
<title>Node2</title>
<g id="a_Node000002"><a xlink:href="classApplication.html" target="_top" xlink:title=" ">
<polygon fill="white" stroke="none" points="96.12,-172 40.12,-172 40.12,-120 96.12,-120 96.12,-172"/>
<text text-anchor="start" x="44.12" y="-158.5" font-family="Helvetica,sans-Serif" font-size="10.00">Application</text>
<text text-anchor="start" x="66.62" y="-142.5" font-family="Helvetica,sans-Serif" font-size="10.00"> </text>
<text text-anchor="start" x="66.62" y="-126.5" font-family="Helvetica,sans-Serif" font-size="10.00"> </text>
<polygon fill="#666666" stroke="#666666" points="40.12,-154 40.12,-154 96.12,-154 96.12,-154 40.12,-154"/>
<polygon fill="#666666" stroke="#666666" points="40.12,-138 40.12,-138 96.12,-138 96.12,-138 40.12,-138"/>
<polygon fill="none" stroke="#666666" points="40.12,-120 40.12,-172 96.12,-172 96.12,-120 40.12,-120"/>
</a>
</g>
</g>
<!-- Node2&#45;&gt;Node1 -->
<g id="edge1_Node000001_Node000002" class="edge">
<title>Node2&#45;&gt;Node1</title>
<g id="a_edge1_Node000001_Node000002"><a xlink:title=" ">
<path fill="none" stroke="#63b8ff" d="M68.12,-108.77C68.12,-100.75 68.12,-92.19 68.12,-83.99"/>
<polygon fill="none" stroke="#63b8ff" points="64.63,-108.53 68.13,-118.53 71.63,-108.53 64.63,-108.53"/>
</a>
</g>
</g>
</g>
</svg>
