<?xml version="1.0" encoding="UTF-8" standalone="no"?>
<!DOCTYPE svg PUBLIC "-//W3C//DTD SVG 1.1//EN"
 "http://www.w3.org/Graphics/SVG/1.1/DTD/svg11.dtd">
<!-- Generated by graphviz version 12.2.1 (20241206.2353)
 -->
<!-- Title: com.hust.ittnk68.cnpm.model.Family Pages: 1 -->
<svg width="192pt" height="492pt"
 viewBox="0.00 0.00 191.75 492.00" xmlns="http://www.w3.org/2000/svg" xmlns:xlink="http://www.w3.org/1999/xlink">
<g id="graph0" class="graph" transform="scale(1 1) rotate(0) translate(4 488)">
<title>com.hust.ittnk68.cnpm.model.Family</title>
<!-- Node1 -->
<g id="Node000001" class="node">
<title>Node1</title>
<g id="a_Node000001"><a xlink:title=" ">
<polygon fill="#999999" stroke="none" points="161.88,-272 21.88,-272 21.88,0 161.88,0 161.88,-272"/>
<text text-anchor="start" x="25.88" y="-258.5" font-family="Helvetica,sans-Serif" font-size="10.00">com.hust.ittnk68.cnpm.model.</text>
<text text-anchor="start" x="77.25" y="-246.5" font-family="Helvetica,sans-Serif" font-size="10.00">Family</text>
<text text-anchor="start" x="90.38" y="-230.5" font-family="Helvetica,sans-Serif" font-size="10.00"> </text>
<text text-anchor="start" x="27.5" y="-214.5" font-family="Helvetica,sans-Serif" font-size="10.00">+</text>
<text text-anchor="start" x="39.12" y="-214.5" font-family="Helvetica,sans-Serif" font-size="10.00">Family()</text>
<text text-anchor="start" x="27.5" y="-198.5" font-family="Helvetica,sans-Serif" font-size="10.00">+</text>
<text text-anchor="start" x="39.12" y="-198.5" font-family="Helvetica,sans-Serif" font-size="10.00">Family()</text>
<text text-anchor="start" x="27.5" y="-182.5" font-family="Helvetica,sans-Serif" font-size="10.00">+</text>
<text text-anchor="start" x="39.12" y="-182.5" font-family="Helvetica,sans-Serif" font-size="10.00">getFamilyId()</text>
<text text-anchor="start" x="27.5" y="-166.5" font-family="Helvetica,sans-Serif" font-size="10.00">+</text>
<text text-anchor="start" x="39.12" y="-166.5" font-family="Helvetica,sans-Serif" font-size="10.00">setFamilyId()</text>
<text text-anchor="start" x="27.5" y="-150.5" font-family="Helvetica,sans-Serif" font-size="10.00">+</text>
<text text-anchor="start" x="39.12" y="-150.5" font-family="Helvetica,sans-Serif" font-size="10.00">getPersonId()</text>
<text text-anchor="start" x="27.5" y="-134.5" font-family="Helvetica,sans-Serif" font-size="10.00">+</text>
<text text-anchor="start" x="39.12" y="-134.5" font-family="Helvetica,sans-Serif" font-size="10.00">setPersonId()</text>
<text text-anchor="start" x="27.5" y="-118.5" font-family="Helvetica,sans-Serif" font-size="10.00">+</text>
<text text-anchor="start" x="39.12" y="-118.5" font-family="Helvetica,sans-Serif" font-size="10.00">getHouseNumber()</text>
<text text-anchor="start" x="27.5" y="-102.5" font-family="Helvetica,sans-Serif" font-size="10.00">+</text>
<text text-anchor="start" x="39.12" y="-102.5" font-family="Helvetica,sans-Serif" font-size="10.00">setHouseNumber()</text>
<text text-anchor="start" x="27.5" y="-86.5" font-family="Helvetica,sans-Serif" font-size="10.00">+</text>
<text text-anchor="start" x="39.12" y="-86.5" font-family="Helvetica,sans-Serif" font-size="10.00">getId()</text>
<text text-anchor="start" x="27.5" y="-70.5" font-family="Helvetica,sans-Serif" font-size="10.00">+</text>
<text text-anchor="start" x="39.12" y="-70.5" font-family="Helvetica,sans-Serif" font-size="10.00">setId()</text>
<text text-anchor="start" x="27.5" y="-54.5" font-family="Helvetica,sans-Serif" font-size="10.00">+</text>
<text text-anchor="start" x="39.12" y="-54.5" font-family="Helvetica,sans-Serif" font-size="10.00">getSQLTableName()</text>
<text text-anchor="start" x="27.5" y="-38.5" font-family="Helvetica,sans-Serif" font-size="10.00">+</text>
<text text-anchor="start" x="39.12" y="-38.5" font-family="Helvetica,sans-Serif" font-size="10.00">getSQLInsertCommand()</text>
<text text-anchor="start" x="27.5" y="-22.5" font-family="Helvetica,sans-Serif" font-size="10.00">+</text>
<text text-anchor="start" x="39.12" y="-22.5" font-family="Helvetica,sans-Serif" font-size="10.00">getSQLUpdateCommand()</text>
<text text-anchor="start" x="27.5" y="-6.5" font-family="Helvetica,sans-Serif" font-size="10.00">+</text>
<text text-anchor="start" x="39.12" y="-6.5" font-family="Helvetica,sans-Serif" font-size="10.00">convertFromMap()</text>
<polygon fill="#666666" stroke="#666666" points="21.88,-242 21.88,-242 161.88,-242 161.88,-242 21.88,-242"/>
<polygon fill="#666666" stroke="#666666" points="21.88,-226 21.88,-226 161.88,-226 161.88,-226 21.88,-226"/>
<polygon fill="none" stroke="#666666" points="21.88,0 21.88,-272 161.88,-272 161.88,0 21.88,0"/>
</a>
</g>
</g>
<!-- Node2 -->
<g id="Node000002" class="node">
<title>Node2</title>
<g id="a_Node000002"><a xlink:href="classcom_1_1hust_1_1ittnk68_1_1cnpm_1_1database_1_1GetSQLProperties.html" target="_top" xlink:title=" ">
<polygon fill="white" stroke="none" points="183.75,-484 0,-484 0,-308 183.75,-308 183.75,-484"/>
<text text-anchor="start" x="19.12" y="-470.5" font-family="Helvetica,sans-Serif" font-size="10.00">com.hust.ittnk68.cnpm.database.</text>
<text text-anchor="start" x="52.12" y="-458.5" font-family="Helvetica,sans-Serif" font-size="10.00">GetSQLProperties</text>
<text text-anchor="start" x="90.38" y="-442.5" font-family="Helvetica,sans-Serif" font-size="10.00"> </text>
<text text-anchor="start" x="4" y="-426.5" font-family="Helvetica,sans-Serif" font-size="10.00">+</text>
<text text-anchor="start" x="14" y="-426.5" font-family="Helvetica,sans-Serif" font-size="10.00">getId()</text>
<text text-anchor="start" x="4" y="-410.5" font-family="Helvetica,sans-Serif" font-size="10.00">+</text>
<text text-anchor="start" x="14" y="-410.5" font-family="Helvetica,sans-Serif" font-size="10.00">setId()</text>
<text text-anchor="start" x="4" y="-394.5" font-family="Helvetica,sans-Serif" font-size="10.00">+</text>
<text text-anchor="start" x="14" y="-394.5" font-family="Helvetica,sans-Serif" font-size="10.00">getSQLTableName()</text>
<text text-anchor="start" x="4" y="-378.5" font-family="Helvetica,sans-Serif" font-size="10.00">+</text>
<text text-anchor="start" x="14" y="-378.5" font-family="Helvetica,sans-Serif" font-size="10.00">getSQLInsertCommand()</text>
<text text-anchor="start" x="4" y="-362.5" font-family="Helvetica,sans-Serif" font-size="10.00">+</text>
<text text-anchor="start" x="14" y="-362.5" font-family="Helvetica,sans-Serif" font-size="10.00">getSQLUpdateCommand()</text>
<text text-anchor="start" x="4" y="-346.5" font-family="Helvetica,sans-Serif" font-size="10.00">+</text>
<text text-anchor="start" x="14" y="-346.5" font-family="Helvetica,sans-Serif" font-size="10.00">getSQLFindByConditionCommand()</text>
<text text-anchor="start" x="4" y="-330.5" font-family="Helvetica,sans-Serif" font-size="10.00">+</text>
<text text-anchor="start" x="14" y="-330.5" font-family="Helvetica,sans-Serif" font-size="10.00">getSQLDeleteByConditionCommand()</text>
<text text-anchor="start" x="4" y="-314.5" font-family="Helvetica,sans-Serif" font-size="10.00">+</text>
<text text-anchor="start" x="14" y="-314.5" font-family="Helvetica,sans-Serif" font-size="10.00">getSQLSingleUpdate()</text>
<polygon fill="#666666" stroke="#666666" points="0,-454 0,-454 183.75,-454 183.75,-454 0,-454"/>
<polygon fill="#666666" stroke="#666666" points="0,-438 0,-438 183.75,-438 183.75,-438 0,-438"/>
<polygon fill="none" stroke="#666666" points="0,-308 0,-484 183.75,-484 183.75,-308 0,-308"/>
</a>
</g>
</g>
<!-- Node2&#45;&gt;Node1 -->
<g id="edge1_Node000001_Node000002" class="edge">
<title>Node2&#45;&gt;Node1</title>
<g id="a_edge1_Node000001_Node000002"><a xlink:title=" ">
<path fill="none" stroke="#63b8ff" d="M91.88,-296.62C91.88,-288.47 91.88,-280.15 91.88,-271.8"/>
<polygon fill="none" stroke="#63b8ff" points="88.38,-296.5 91.88,-306.5 95.38,-296.5 88.38,-296.5"/>
</a>
</g>
</g>
</g>
</svg>
