<?xml version="1.0" encoding="UTF-8" standalone="no"?>
<!DOCTYPE svg PUBLIC "-//W3C//DTD SVG 1.1//EN"
 "http://www.w3.org/Graphics/SVG/1.1/DTD/svg11.dtd">
<!-- Generated by graphviz version 12.2.1 (20241206.2353)
 -->
<!-- Title: com.hust.ittnk68.cnpm.security.TokenAuthentication Pages: 1 -->
<svg width="155pt" height="272pt"
 viewBox="0.00 0.00 154.75 272.00" xmlns="http://www.w3.org/2000/svg" xmlns:xlink="http://www.w3.org/1999/xlink">
<g id="graph0" class="graph" transform="scale(1 1) rotate(0) translate(4 268)">
<title>com.hust.ittnk68.cnpm.security.TokenAuthentication</title>
<!-- Node1 -->
<g id="Node000001" class="node">
<title>Node1</title>
<g id="a_Node000001"><a xlink:title=" ">
<polygon fill="#999999" stroke="none" points="146.75,-176 0,-176 0,0 146.75,0 146.75,-176"/>
<text text-anchor="start" x="4" y="-162.5" font-family="Helvetica,sans-Serif" font-size="10.00">com.hust.ittnk68.cnpm.security.</text>
<text text-anchor="start" x="29.12" y="-150.5" font-family="Helvetica,sans-Serif" font-size="10.00">TokenAuthentication</text>
<text text-anchor="start" x="71.88" y="-134.5" font-family="Helvetica,sans-Serif" font-size="10.00"> </text>
<text text-anchor="start" x="12.56" y="-118.5" font-family="Helvetica,sans-Serif" font-size="10.00">+</text>
<text text-anchor="start" x="31.12" y="-118.5" font-family="Helvetica,sans-Serif" font-size="10.00">TokenAuthentication()</text>
<text text-anchor="start" x="12.56" y="-102.5" font-family="Helvetica,sans-Serif" font-size="10.00">+</text>
<text text-anchor="start" x="31.12" y="-102.5" font-family="Helvetica,sans-Serif" font-size="10.00">getAuthorities()</text>
<text text-anchor="start" x="12.56" y="-86.5" font-family="Helvetica,sans-Serif" font-size="10.00">+</text>
<text text-anchor="start" x="31.12" y="-86.5" font-family="Helvetica,sans-Serif" font-size="10.00">getCredentials()</text>
<text text-anchor="start" x="12.56" y="-70.5" font-family="Helvetica,sans-Serif" font-size="10.00">+</text>
<text text-anchor="start" x="31.12" y="-70.5" font-family="Helvetica,sans-Serif" font-size="10.00">getDetails()</text>
<text text-anchor="start" x="12.56" y="-54.5" font-family="Helvetica,sans-Serif" font-size="10.00">+</text>
<text text-anchor="start" x="31.12" y="-54.5" font-family="Helvetica,sans-Serif" font-size="10.00">getPrincipal()</text>
<text text-anchor="start" x="12.56" y="-38.5" font-family="Helvetica,sans-Serif" font-size="10.00">+</text>
<text text-anchor="start" x="31.12" y="-38.5" font-family="Helvetica,sans-Serif" font-size="10.00">isAuthenticated()</text>
<text text-anchor="start" x="12.56" y="-22.5" font-family="Helvetica,sans-Serif" font-size="10.00">+</text>
<text text-anchor="start" x="31.12" y="-22.5" font-family="Helvetica,sans-Serif" font-size="10.00">setAuthenticated()</text>
<text text-anchor="start" x="12.56" y="-6.5" font-family="Helvetica,sans-Serif" font-size="10.00">+</text>
<text text-anchor="start" x="31.12" y="-6.5" font-family="Helvetica,sans-Serif" font-size="10.00">getName()</text>
<polygon fill="#666666" stroke="#666666" points="0,-146 0,-146 146.75,-146 146.75,-146 0,-146"/>
<polygon fill="#666666" stroke="#666666" points="0,-130 0,-130 146.75,-130 146.75,-130 0,-130"/>
<polygon fill="none" stroke="#666666" points="0,0 0,-176 146.75,-176 146.75,0 0,0"/>
</a>
</g>
</g>
<!-- Node2 -->
<g id="Node000002" class="node">
<title>Node2</title>
<g id="a_Node000002"><a xlink:href="classAuthentication.html" target="_top" xlink:title=" ">
<polygon fill="white" stroke="none" points="108.5,-264 38.25,-264 38.25,-212 108.5,-212 108.5,-264"/>
<text text-anchor="start" x="42.25" y="-250.5" font-family="Helvetica,sans-Serif" font-size="10.00">Authentication</text>
<text text-anchor="start" x="71.88" y="-234.5" font-family="Helvetica,sans-Serif" font-size="10.00"> </text>
<text text-anchor="start" x="71.88" y="-218.5" font-family="Helvetica,sans-Serif" font-size="10.00"> </text>
<polygon fill="#666666" stroke="#666666" points="38.25,-246 38.25,-246 108.5,-246 108.5,-246 38.25,-246"/>
<polygon fill="#666666" stroke="#666666" points="38.25,-230 38.25,-230 108.5,-230 108.5,-230 38.25,-230"/>
<polygon fill="none" stroke="#666666" points="38.25,-212 38.25,-264 108.5,-264 108.5,-212 38.25,-212"/>
</a>
</g>
</g>
<!-- Node2&#45;&gt;Node1 -->
<g id="edge1_Node000001_Node000002" class="edge">
<title>Node2&#45;&gt;Node1</title>
<g id="a_edge1_Node000001_Node000002"><a xlink:title=" ">
<path fill="none" stroke="#63b8ff" d="M73.38,-200.77C73.38,-193.04 73.38,-184.56 73.38,-175.83"/>
<polygon fill="none" stroke="#63b8ff" points="69.88,-200.71 73.38,-210.71 76.88,-200.71 69.88,-200.71"/>
</a>
</g>
</g>
</g>
</svg>
