<?xml version="1.0" encoding="UTF-8" standalone="no"?>
<!DOCTYPE svg PUBLIC "-//W3C//DTD SVG 1.1//EN"
 "http://www.w3.org/Graphics/SVG/1.1/DTD/svg11.dtd">
<!-- Generated by graphviz version 12.2.1 (20241206.2353)
 -->
<!-- Title: com.hust.ittnk68.cnpm.view.AdminPaymentStatusManagePage Pages: 1 -->
<svg width="168pt" height="272pt"
 viewBox="0.00 0.00 168.25 272.00" xmlns="http://www.w3.org/2000/svg" xmlns:xlink="http://www.w3.org/1999/xlink">
<g id="graph0" class="graph" transform="scale(1 1) rotate(0) translate(4 268)">
<title>com.hust.ittnk68.cnpm.view.AdminPaymentStatusManagePage</title>
<!-- Node1 -->
<g id="Node000001" class="node">
<title>Node1</title>
<g id="a_Node000001"><a xlink:title=" ">
<polygon fill="#999999" stroke="none" points="160.25,-76 0,-76 0,0 160.25,0 160.25,-76"/>
<text text-anchor="start" x="4" y="-62.5" font-family="Helvetica,sans-Serif" font-size="10.00">com.hust.ittnk68.cnpm.view.</text>
<text text-anchor="start" x="4" y="-50.5" font-family="Helvetica,sans-Serif" font-size="10.00">AdminPaymentStatusManagePage</text>
<text text-anchor="start" x="78.62" y="-34.5" font-family="Helvetica,sans-Serif" font-size="10.00"> </text>
<text text-anchor="start" x="7.12" y="-18.5" font-family="Helvetica,sans-Serif" font-size="10.00">+</text>
<text text-anchor="start" x="20.25" y="-18.5" font-family="Helvetica,sans-Serif" font-size="10.00">AdminPaymentStatusManage</text>
<text text-anchor="start" x="20.25" y="-6.5" font-family="Helvetica,sans-Serif" font-size="10.00">Page()</text>
<polygon fill="#666666" stroke="#666666" points="0,-46 0,-46 160.25,-46 160.25,-46 0,-46"/>
<polygon fill="#666666" stroke="#666666" points="0,-30 0,-30 160.25,-30 160.25,-30 0,-30"/>
<polygon fill="none" stroke="#666666" points="0,0 0,-76 160.25,-76 160.25,0 0,0"/>
</a>
</g>
</g>
<!-- Node2 -->
<g id="Node000002" class="node">
<title>Node2</title>
<g id="a_Node000002"><a xlink:href="classcom_1_1hust_1_1ittnk68_1_1cnpm_1_1view_1_1DuongFXTabPane.html" target="_top" xlink:title=" ">
<polygon fill="white" stroke="none" points="146.38,-176 13.88,-176 13.88,-112 146.38,-112 146.38,-176"/>
<text text-anchor="start" x="17.88" y="-162.5" font-family="Helvetica,sans-Serif" font-size="10.00">com.hust.ittnk68.cnpm.view.</text>
<text text-anchor="start" x="40.38" y="-150.5" font-family="Helvetica,sans-Serif" font-size="10.00">DuongFXTabPane</text>
<text text-anchor="start" x="78.62" y="-134.5" font-family="Helvetica,sans-Serif" font-size="10.00"> </text>
<text text-anchor="start" x="25.12" y="-118.5" font-family="Helvetica,sans-Serif" font-size="10.00">+</text>
<text text-anchor="start" x="42.38" y="-118.5" font-family="Helvetica,sans-Serif" font-size="10.00">DuongFXTabPane()</text>
<polygon fill="#666666" stroke="#666666" points="13.88,-146 13.88,-146 146.38,-146 146.38,-146 13.88,-146"/>
<polygon fill="#666666" stroke="#666666" points="13.88,-130 13.88,-130 146.38,-130 146.38,-130 13.88,-130"/>
<polygon fill="none" stroke="#666666" points="13.88,-112 13.88,-176 146.38,-176 146.38,-112 13.88,-112"/>
</a>
</g>
</g>
<!-- Node2&#45;&gt;Node1 -->
<g id="edge1_Node000001_Node000002" class="edge">
<title>Node2&#45;&gt;Node1</title>
<g id="a_edge1_Node000001_Node000002"><a xlink:title=" ">
<path fill="none" stroke="#63b8ff" d="M80.12,-100.74C80.12,-92.49 80.12,-83.91 80.12,-75.86"/>
<polygon fill="none" stroke="#63b8ff" points="76.63,-100.56 80.13,-110.56 83.63,-100.56 76.63,-100.56"/>
</a>
</g>
</g>
<!-- Node3 -->
<g id="Node000003" class="node">
<title>Node3</title>
<g id="a_Node000003"><a xlink:href="classTabPane.html" target="_top" xlink:title=" ">
<polygon fill="white" stroke="none" points="103.25,-264 57,-264 57,-212 103.25,-212 103.25,-264"/>
<text text-anchor="start" x="61" y="-250.5" font-family="Helvetica,sans-Serif" font-size="10.00">TabPane</text>
<text text-anchor="start" x="78.62" y="-234.5" font-family="Helvetica,sans-Serif" font-size="10.00"> </text>
<text text-anchor="start" x="78.62" y="-218.5" font-family="Helvetica,sans-Serif" font-size="10.00"> </text>
<polygon fill="#666666" stroke="#666666" points="57,-246 57,-246 103.25,-246 103.25,-246 57,-246"/>
<polygon fill="#666666" stroke="#666666" points="57,-230 57,-230 103.25,-230 103.25,-230 57,-230"/>
<polygon fill="none" stroke="#666666" points="57,-212 57,-264 103.25,-264 103.25,-212 57,-212"/>
</a>
</g>
</g>
<!-- Node3&#45;&gt;Node2 -->
<g id="edge2_Node000002_Node000003" class="edge">
<title>Node3&#45;&gt;Node2</title>
<g id="a_edge2_Node000002_Node000003"><a xlink:title=" ">
<path fill="none" stroke="#63b8ff" d="M80.12,-201.06C80.12,-192.78 80.12,-184.04 80.12,-175.98"/>
<polygon fill="none" stroke="#63b8ff" points="76.63,-200.83 80.13,-210.83 83.63,-200.83 76.63,-200.83"/>
</a>
</g>
</g>
</g>
</svg>
