<?xml version="1.0" encoding="UTF-8" standalone="no"?>
<!DOCTYPE svg PUBLIC "-//W3C//DTD SVG 1.1//EN"
 "http://www.w3.org/Graphics/SVG/1.1/DTD/svg11.dtd">
<!-- Generated by graphviz version 12.2.1 (20241206.2353)
 -->
<!-- Title: com.hust.ittnk68.cnpm.communication.ApiMapping Pages: 1 -->
<svg width="232pt" height="360pt"
 viewBox="0.00 0.00 232.12 360.00" xmlns="http://www.w3.org/2000/svg" xmlns:xlink="http://www.w3.org/1999/xlink">
<g id="graph0" class="graph" transform="scale(1 1) rotate(0) translate(4 356)">
<title>com.hust.ittnk68.cnpm.communication.ApiMapping</title>
<!-- Node1 -->
<g id="Node000001" class="node">
<title>Node1</title>
<g id="a_Node000001"><a xlink:title=" ">
<polygon fill="#999999" stroke="none" points="179.75,-96 0,-96 0,0 179.75,0 179.75,-96"/>
<text text-anchor="start" x="4" y="-82.5" font-family="Helvetica,sans-Serif" font-size="10.00">com.hust.ittnk68.cnpm.communication.</text>
<text text-anchor="start" x="64.38" y="-70.5" font-family="Helvetica,sans-Serif" font-size="10.00">ApiMapping</text>
<text text-anchor="start" x="23.06" y="-54.5" font-family="Helvetica,sans-Serif" font-size="10.00">+</text>
<text text-anchor="start" x="52.12" y="-54.5" font-family="Helvetica,sans-Serif" font-size="10.00">START_SESSION</text>
<text text-anchor="start" x="23.06" y="-38.5" font-family="Helvetica,sans-Serif" font-size="10.00">+</text>
<text text-anchor="start" x="52.12" y="-38.5" font-family="Helvetica,sans-Serif" font-size="10.00">UDPATE_OBJECT</text>
<text text-anchor="start" x="23.06" y="-22.5" font-family="Helvetica,sans-Serif" font-size="10.00">+</text>
<text text-anchor="start" x="52.12" y="-22.5" font-family="Helvetica,sans-Serif" font-size="10.00">UPDATE_OBJECT</text>
<text text-anchor="start" x="88.38" y="-6.5" font-family="Helvetica,sans-Serif" font-size="10.00"> </text>
<polygon fill="#666666" stroke="#666666" points="0,-66 0,-66 179.75,-66 179.75,-66 0,-66"/>
<polygon fill="#666666" stroke="#666666" points="0,-18 0,-18 50.12,-18 50.12,-18 0,-18"/>
<polygon fill="#666666" stroke="#666666" points="50.12,-18 50.12,-18 179.75,-18 179.75,-18 50.12,-18"/>
<polygon fill="none" stroke="#666666" points="0,0 0,-96 179.75,-96 179.75,0 0,0"/>
</a>
</g>
</g>
<!-- Node2 -->
<g id="Node000002" class="node">
<title>Node2</title>
<g id="a_Node000002"><a xlink:title=" ">
<polygon fill="white" stroke="none" points="106.62,-352 73.12,-352 73.12,-300 106.62,-300 106.62,-352"/>
<text text-anchor="start" x="77.12" y="-338.5" font-family="Helvetica,sans-Serif" font-size="10.00">String</text>
<text text-anchor="start" x="88.38" y="-322.5" font-family="Helvetica,sans-Serif" font-size="10.00"> </text>
<text text-anchor="start" x="88.38" y="-306.5" font-family="Helvetica,sans-Serif" font-size="10.00"> </text>
<polygon fill="#666666" stroke="#666666" points="73.12,-334 73.12,-334 106.62,-334 106.62,-334 73.12,-334"/>
<polygon fill="#666666" stroke="#666666" points="73.12,-318 73.12,-318 106.62,-318 106.62,-318 73.12,-318"/>
<polygon fill="none" stroke="#666666" points="73.12,-300 73.12,-352 106.62,-352 106.62,-300 73.12,-300"/>
</a>
</g>
</g>
<!-- Node2&#45;&gt;Node1 -->
<g id="edge1_Node000001_Node000002" class="edge">
<title>Node2&#45;&gt;Node1</title>
<g id="a_edge1_Node000001_Node000002"><a xlink:title=" ">
<path fill="none" stroke="#63b8ff" d="M89.88,-300.02C89.88,-257.15 89.88,-168.44 89.88,-108.8"/>
<polygon fill="none" stroke="#63b8ff" points="89.88,-108.71 85.88,-102.71 89.88,-96.71 93.88,-102.71 89.88,-108.71"/>
</a>
</g>
<text text-anchor="middle" x="157" y="-272.5" font-family="Helvetica,sans-Serif" font-size="10.00" fill="grey"> +BANK_TRANSFER</text>
<text text-anchor="middle" x="157" y="-260.5" font-family="Helvetica,sans-Serif" font-size="10.00" fill="grey">+CHECK_BANKING</text>
<text text-anchor="middle" x="157" y="-248.5" font-family="Helvetica,sans-Serif" font-size="10.00" fill="grey">+CREATE_OBJECT</text>
<text text-anchor="middle" x="157" y="-236.5" font-family="Helvetica,sans-Serif" font-size="10.00" fill="grey">+DELETE_OBJECT</text>
<text text-anchor="middle" x="157" y="-224.5" font-family="Helvetica,sans-Serif" font-size="10.00" fill="grey">+FIND_OBJECT</text>
<text text-anchor="middle" x="157" y="-212.5" font-family="Helvetica,sans-Serif" font-size="10.00" fill="grey">+PAYMENT</text>
<text text-anchor="middle" x="157" y="-200.5" font-family="Helvetica,sans-Serif" font-size="10.00" fill="grey">+QR_CODE_GENERATOR</text>
<text text-anchor="start" x="89.88" y="-188.5" font-family="Helvetica,sans-Serif" font-size="10.00" fill="grey">+QUERY_FAMILY_PAYMENT</text>
<text text-anchor="middle" x="157" y="-176.5" font-family="Helvetica,sans-Serif" font-size="10.00" fill="grey">_STATUS</text>
<text text-anchor="start" x="89.88" y="-164.5" font-family="Helvetica,sans-Serif" font-size="10.00" fill="grey">+QUERY_OBJECT_BY</text>
<text text-anchor="middle" x="157" y="-152.5" font-family="Helvetica,sans-Serif" font-size="10.00" fill="grey">_ID</text>
<text text-anchor="start" x="89.88" y="-140.5" font-family="Helvetica,sans-Serif" font-size="10.00" fill="grey">+QUERY_PERSON_BY</text>
<text text-anchor="middle" x="157" y="-128.5" font-family="Helvetica,sans-Serif" font-size="10.00" fill="grey">_FID</text>
<text text-anchor="middle" x="157" y="-116.5" font-family="Helvetica,sans-Serif" font-size="10.00" fill="grey">...</text>
</g>
</g>
</svg>
