<?xml version="1.0" encoding="UTF-8" standalone="no"?>
<!DOCTYPE svg PUBLIC "-//W3C//DTD SVG 1.1//EN"
 "http://www.w3.org/Graphics/SVG/1.1/DTD/svg11.dtd">
<!-- Generated by graphviz version 12.2.1 (20241206.2353)
 -->
<!-- Title: TabPane Pages: 1 -->
<svg width="961pt" height="276pt"
 viewBox="0.00 0.00 960.62 276.00" xmlns="http://www.w3.org/2000/svg" xmlns:xlink="http://www.w3.org/1999/xlink">
<g id="graph0" class="graph" transform="scale(1 1) rotate(0) translate(4 272)">
<title>TabPane</title>
<!-- Node1 -->
<g id="Node000001" class="node">
<title>Node1</title>
<g id="a_Node000001"><a xlink:title=" ">
<polygon fill="#999999" stroke="none" points="503.5,-268 457.25,-268 457.25,-216 503.5,-216 503.5,-268"/>
<text text-anchor="start" x="461.25" y="-254.5" font-family="Helvetica,sans-Serif" font-size="10.00">TabPane</text>
<text text-anchor="start" x="478.88" y="-238.5" font-family="Helvetica,sans-Serif" font-size="10.00"> </text>
<text text-anchor="start" x="478.88" y="-222.5" font-family="Helvetica,sans-Serif" font-size="10.00"> </text>
<polygon fill="#666666" stroke="#666666" points="457.25,-250 457.25,-250 503.5,-250 503.5,-250 457.25,-250"/>
<polygon fill="#666666" stroke="#666666" points="457.25,-234 457.25,-234 503.5,-234 503.5,-234 457.25,-234"/>
<polygon fill="none" stroke="#666666" points="457.25,-216 457.25,-268 503.5,-268 503.5,-216 457.25,-216"/>
</a>
</g>
</g>
<!-- Node2 -->
<g id="Node000002" class="node">
<title>Node2</title>
<g id="a_Node000002"><a xlink:href="classcom_1_1hust_1_1ittnk68_1_1cnpm_1_1view_1_1DuongFXTabPane.html" target="_top" xlink:title=" ">
<polygon fill="white" stroke="none" points="546.62,-180 414.12,-180 414.12,-116 546.62,-116 546.62,-180"/>
<text text-anchor="start" x="418.12" y="-166.5" font-family="Helvetica,sans-Serif" font-size="10.00">com.hust.ittnk68.cnpm.view.</text>
<text text-anchor="start" x="440.62" y="-154.5" font-family="Helvetica,sans-Serif" font-size="10.00">DuongFXTabPane</text>
<text text-anchor="start" x="478.88" y="-138.5" font-family="Helvetica,sans-Serif" font-size="10.00"> </text>
<text text-anchor="start" x="425.38" y="-122.5" font-family="Helvetica,sans-Serif" font-size="10.00">+</text>
<text text-anchor="start" x="442.62" y="-122.5" font-family="Helvetica,sans-Serif" font-size="10.00">DuongFXTabPane()</text>
<polygon fill="#666666" stroke="#666666" points="414.12,-150 414.12,-150 546.62,-150 546.62,-150 414.12,-150"/>
<polygon fill="#666666" stroke="#666666" points="414.12,-134 414.12,-134 546.62,-134 546.62,-134 414.12,-134"/>
<polygon fill="none" stroke="#666666" points="414.12,-116 414.12,-180 546.62,-180 546.62,-116 414.12,-116"/>
</a>
</g>
</g>
<!-- Node1&#45;&gt;Node2 -->
<g id="edge1_Node000001_Node000002" class="edge">
<title>Node1&#45;&gt;Node2</title>
<g id="a_edge1_Node000001_Node000002"><a xlink:title=" ">
<path fill="none" stroke="#63b8ff" d="M480.38,-205.06C480.38,-196.78 480.38,-188.04 480.38,-179.98"/>
<polygon fill="none" stroke="#63b8ff" points="476.88,-204.83 480.38,-214.83 483.88,-204.83 476.88,-204.83"/>
</a>
</g>
</g>
<!-- Node3 -->
<g id="Node000003" class="node">
<title>Node3</title>
<g id="a_Node000003"><a xlink:href="classcom_1_1hust_1_1ittnk68_1_1cnpm_1_1view_1_1AdminAccountManagePage.html" target="_top" xlink:title=" ">
<polygon fill="white" stroke="none" points="144.75,-72 0,-72 0,-8 144.75,-8 144.75,-72"/>
<text text-anchor="start" x="10.12" y="-58.5" font-family="Helvetica,sans-Serif" font-size="10.00">com.hust.ittnk68.cnpm.view.</text>
<text text-anchor="start" x="12" y="-46.5" font-family="Helvetica,sans-Serif" font-size="10.00">AdminAccountManagePage</text>
<text text-anchor="start" x="70.88" y="-30.5" font-family="Helvetica,sans-Serif" font-size="10.00"> </text>
<text text-anchor="start" x="4" y="-14.5" font-family="Helvetica,sans-Serif" font-size="10.00">+</text>
<text text-anchor="start" x="14" y="-14.5" font-family="Helvetica,sans-Serif" font-size="10.00">AdminAccountManagePage()</text>
<polygon fill="#666666" stroke="#666666" points="0,-42 0,-42 144.75,-42 144.75,-42 0,-42"/>
<polygon fill="#666666" stroke="#666666" points="0,-26 0,-26 144.75,-26 144.75,-26 0,-26"/>
<polygon fill="none" stroke="#666666" points="0,-8 0,-72 144.75,-72 144.75,-8 0,-8"/>
</a>
</g>
</g>
<!-- Node2&#45;&gt;Node3 -->
<g id="edge2_Node000002_Node000003" class="edge">
<title>Node2&#45;&gt;Node3</title>
<g id="a_edge2_Node000002_Node000003"><a xlink:title=" ">
<path fill="none" stroke="#63b8ff" d="M402.96,-136.65C335.79,-126.38 236.55,-108.07 153.38,-80 146.42,-77.65 139.3,-74.86 132.29,-71.85"/>
<polygon fill="none" stroke="#63b8ff" points="402.38,-140.1 412.79,-138.13 403.42,-133.18 402.38,-140.1"/>
</a>
</g>
</g>
<!-- Node4 -->
<g id="Node000004" class="node">
<title>Node4</title>
<g id="a_Node000004"><a xlink:href="classcom_1_1hust_1_1ittnk68_1_1cnpm_1_1view_1_1AdminExpenseManagePage.html" target="_top" xlink:title=" ">
<polygon fill="white" stroke="none" points="309.88,-72 162.88,-72 162.88,-8 309.88,-8 309.88,-72"/>
<text text-anchor="start" x="174.12" y="-58.5" font-family="Helvetica,sans-Serif" font-size="10.00">com.hust.ittnk68.cnpm.view.</text>
<text text-anchor="start" x="174.88" y="-46.5" font-family="Helvetica,sans-Serif" font-size="10.00">AdminExpenseManagePage</text>
<text text-anchor="start" x="234.88" y="-30.5" font-family="Helvetica,sans-Serif" font-size="10.00"> </text>
<text text-anchor="start" x="166.88" y="-14.5" font-family="Helvetica,sans-Serif" font-size="10.00">+</text>
<text text-anchor="start" x="176.88" y="-14.5" font-family="Helvetica,sans-Serif" font-size="10.00">AdminExpenseManagePage()</text>
<polygon fill="#666666" stroke="#666666" points="162.88,-42 162.88,-42 309.88,-42 309.88,-42 162.88,-42"/>
<polygon fill="#666666" stroke="#666666" points="162.88,-26 162.88,-26 309.88,-26 309.88,-26 162.88,-26"/>
<polygon fill="none" stroke="#666666" points="162.88,-8 162.88,-72 309.88,-72 309.88,-8 162.88,-8"/>
</a>
</g>
</g>
<!-- Node2&#45;&gt;Node4 -->
<g id="edge3_Node000002_Node000004" class="edge">
<title>Node2&#45;&gt;Node4</title>
<g id="a_edge3_Node000002_Node000004"><a xlink:title=" ">
<path fill="none" stroke="#63b8ff" d="M403.81,-115.96C376.99,-104.87 346.75,-92.12 319.38,-80 313.55,-77.42 307.52,-74.7 301.49,-71.93"/>
<polygon fill="none" stroke="#63b8ff" points="402.31,-119.13 412.89,-119.7 404.98,-112.66 402.31,-119.13"/>
</a>
</g>
</g>
<!-- Node5 -->
<g id="Node000005" class="node">
<title>Node5</title>
<g id="a_Node000005"><a xlink:href="classcom_1_1hust_1_1ittnk68_1_1cnpm_1_1view_1_1AdminFamilyManagePage.html" target="_top" xlink:title=" ">
<polygon fill="white" stroke="none" points="466.38,-72 328.38,-72 328.38,-8 466.38,-8 466.38,-72"/>
<text text-anchor="start" x="335.12" y="-58.5" font-family="Helvetica,sans-Serif" font-size="10.00">com.hust.ittnk68.cnpm.view.</text>
<text text-anchor="start" x="340.38" y="-46.5" font-family="Helvetica,sans-Serif" font-size="10.00">AdminFamilyManagePage</text>
<text text-anchor="start" x="395.88" y="-30.5" font-family="Helvetica,sans-Serif" font-size="10.00"> </text>
<text text-anchor="start" x="332.38" y="-14.5" font-family="Helvetica,sans-Serif" font-size="10.00">+</text>
<text text-anchor="start" x="342.38" y="-14.5" font-family="Helvetica,sans-Serif" font-size="10.00">AdminFamilyManagePage()</text>
<polygon fill="#666666" stroke="#666666" points="328.38,-42 328.38,-42 466.38,-42 466.38,-42 328.38,-42"/>
<polygon fill="#666666" stroke="#666666" points="328.38,-26 328.38,-26 466.38,-26 466.38,-26 328.38,-26"/>
<polygon fill="none" stroke="#666666" points="328.38,-8 328.38,-72 466.38,-72 466.38,-8 328.38,-8"/>
</a>
</g>
</g>
<!-- Node2&#45;&gt;Node5 -->
<g id="edge4_Node000002_Node000005" class="edge">
<title>Node2&#45;&gt;Node5</title>
<g id="a_edge4_Node000002_Node000005"><a xlink:title=" ">
<path fill="none" stroke="#63b8ff" d="M449.29,-107.3C440.1,-95.56 430.17,-82.89 421.49,-71.8"/>
<polygon fill="none" stroke="#63b8ff" points="446.29,-109.15 455.21,-114.86 451.8,-104.83 446.29,-109.15"/>
</a>
</g>
</g>
<!-- Node6 -->
<g id="Node000006" class="node">
<title>Node6</title>
<g id="a_Node000006"><a xlink:href="classcom_1_1hust_1_1ittnk68_1_1cnpm_1_1view_1_1AdminPaymentStatusManagePage.html" target="_top" xlink:title=" ">
<polygon fill="white" stroke="none" points="644.5,-78 484.25,-78 484.25,-2 644.5,-2 644.5,-78"/>
<text text-anchor="start" x="488.25" y="-64.5" font-family="Helvetica,sans-Serif" font-size="10.00">com.hust.ittnk68.cnpm.view.</text>
<text text-anchor="start" x="488.25" y="-52.5" font-family="Helvetica,sans-Serif" font-size="10.00">AdminPaymentStatusManagePage</text>
<text text-anchor="start" x="562.88" y="-36.5" font-family="Helvetica,sans-Serif" font-size="10.00"> </text>
<text text-anchor="start" x="491.38" y="-20.5" font-family="Helvetica,sans-Serif" font-size="10.00">+</text>
<text text-anchor="start" x="504.5" y="-20.5" font-family="Helvetica,sans-Serif" font-size="10.00">AdminPaymentStatusManage</text>
<text text-anchor="start" x="504.5" y="-8.5" font-family="Helvetica,sans-Serif" font-size="10.00">Page()</text>
<polygon fill="#666666" stroke="#666666" points="484.25,-48 484.25,-48 644.5,-48 644.5,-48 484.25,-48"/>
<polygon fill="#666666" stroke="#666666" points="484.25,-32 484.25,-32 644.5,-32 644.5,-32 484.25,-32"/>
<polygon fill="none" stroke="#666666" points="484.25,-2 484.25,-78 644.5,-78 644.5,-2 484.25,-2"/>
</a>
</g>
</g>
<!-- Node2&#45;&gt;Node6 -->
<g id="edge5_Node000002_Node000006" class="edge">
<title>Node2&#45;&gt;Node6</title>
<g id="a_edge5_Node000002_Node000006"><a xlink:title=" ">
<path fill="none" stroke="#63b8ff" d="M512.01,-107.08C519.63,-97.47 527.72,-87.25 535.22,-77.79"/>
<polygon fill="none" stroke="#63b8ff" points="509.3,-104.86 505.84,-114.87 514.79,-109.21 509.3,-104.86"/>
</a>
</g>
</g>
<!-- Node7 -->
<g id="Node000007" class="node">
<title>Node7</title>
<g id="a_Node000007"><a xlink:href="classcom_1_1hust_1_1ittnk68_1_1cnpm_1_1view_1_1AdminPersonManagePage.html" target="_top" xlink:title=" ">
<polygon fill="white" stroke="none" points="802.12,-72 662.62,-72 662.62,-8 802.12,-8 802.12,-72"/>
<text text-anchor="start" x="670.12" y="-58.5" font-family="Helvetica,sans-Serif" font-size="10.00">com.hust.ittnk68.cnpm.view.</text>
<text text-anchor="start" x="674.62" y="-46.5" font-family="Helvetica,sans-Serif" font-size="10.00">AdminPersonManagePage</text>
<text text-anchor="start" x="730.88" y="-30.5" font-family="Helvetica,sans-Serif" font-size="10.00"> </text>
<text text-anchor="start" x="666.62" y="-14.5" font-family="Helvetica,sans-Serif" font-size="10.00">+</text>
<text text-anchor="start" x="676.62" y="-14.5" font-family="Helvetica,sans-Serif" font-size="10.00">AdminPersonManagePage()</text>
<polygon fill="#666666" stroke="#666666" points="662.62,-42 662.62,-42 802.12,-42 802.12,-42 662.62,-42"/>
<polygon fill="#666666" stroke="#666666" points="662.62,-26 662.62,-26 802.12,-26 802.12,-26 662.62,-26"/>
<polygon fill="none" stroke="#666666" points="662.62,-8 662.62,-72 802.12,-72 802.12,-8 662.62,-8"/>
</a>
</g>
</g>
<!-- Node2&#45;&gt;Node7 -->
<g id="edge6_Node000002_Node000007" class="edge">
<title>Node2&#45;&gt;Node7</title>
<g id="a_edge6_Node000002_Node000007"><a xlink:title=" ">
<path fill="none" stroke="#63b8ff" d="M556.76,-119.1C587.08,-107.58 622.12,-93.74 653.38,-80 659.12,-77.48 665.04,-74.76 670.95,-71.98"/>
<polygon fill="none" stroke="#63b8ff" points="555.78,-115.72 547.66,-122.53 558.25,-122.27 555.78,-115.72"/>
</a>
</g>
</g>
<!-- Node8 -->
<g id="Node000008" class="node">
<title>Node8</title>
<g id="a_Node000008"><a xlink:href="classcom_1_1hust_1_1ittnk68_1_1cnpm_1_1view_1_1ClientExpensePage.html" target="_top" xlink:title=" ">
<polygon fill="white" stroke="none" points="952.62,-80 820.12,-80 820.12,0 952.62,0 952.62,-80"/>
<text text-anchor="start" x="824.12" y="-66.5" font-family="Helvetica,sans-Serif" font-size="10.00">com.hust.ittnk68.cnpm.view.</text>
<text text-anchor="start" x="843.25" y="-54.5" font-family="Helvetica,sans-Serif" font-size="10.00">ClientExpensePage</text>
<text text-anchor="start" x="829.69" y="-38.5" font-family="Helvetica,sans-Serif" font-size="10.00">~</text>
<text text-anchor="start" x="845.25" y="-38.5" font-family="Helvetica,sans-Serif" font-size="10.00">notPayedTile</text>
<text text-anchor="start" x="829.69" y="-22.5" font-family="Helvetica,sans-Serif" font-size="10.00">~</text>
<text text-anchor="start" x="845.25" y="-22.5" font-family="Helvetica,sans-Serif" font-size="10.00">payedTile</text>
<text text-anchor="start" x="829.69" y="-6.5" font-family="Helvetica,sans-Serif" font-size="10.00">+</text>
<text text-anchor="start" x="845.25" y="-6.5" font-family="Helvetica,sans-Serif" font-size="10.00">ClientExpensePage()</text>
<polygon fill="#666666" stroke="#666666" points="820.12,-50 820.12,-50 952.62,-50 952.62,-50 820.12,-50"/>
<polygon fill="#666666" stroke="#666666" points="820.12,-18 820.12,-18 843.25,-18 843.25,-18 820.12,-18"/>
<polygon fill="#666666" stroke="#666666" points="843.25,-18 843.25,-18 952.62,-18 952.62,-18 843.25,-18"/>
<polygon fill="none" stroke="#666666" points="820.12,0 820.12,-80 952.62,-80 952.62,0 820.12,0"/>
</a>
</g>
</g>
<!-- Node2&#45;&gt;Node8 -->
<g id="edge7_Node000002_Node000008" class="edge">
<title>Node2&#45;&gt;Node8</title>
<g id="a_edge7_Node000002_Node000008"><a xlink:title=" ">
<path fill="none" stroke="#63b8ff" d="M557.59,-137.61C625.73,-127.86 727.06,-109.79 811.38,-80 814.28,-78.97 817.21,-77.85 820.15,-76.66"/>
<polygon fill="none" stroke="#63b8ff" points="557.44,-134.09 548.02,-138.95 558.41,-141.03 557.44,-134.09"/>
</a>
</g>
</g>
</g>
</svg>
