<?xml version="1.0" encoding="UTF-8" standalone="no"?>
<!DOCTYPE svg PUBLIC "-//W3C//DTD SVG 1.1//EN"
 "http://www.w3.org/Graphics/SVG/1.1/DTD/svg11.dtd">
<!-- Generated by graphviz version 12.2.1 (20241206.2353)
 -->
<!-- Title: com.hust.ittnk68.cnpm.communication.AdminDeleteObject Pages: 1 -->
<svg width="188pt" height="252pt"
 viewBox="0.00 0.00 187.75 252.00" xmlns="http://www.w3.org/2000/svg" xmlns:xlink="http://www.w3.org/1999/xlink">

<svg id="main" version="1.1" xmlns="http://www.w3.org/2000/svg" xmlns:xlink="http://www.w3.org/1999/xlink" xml:space="preserve">

<style type="text/css"><![CDATA[
.node, .edge {opacity: 0.7;}
.node.selected, .edge.selected {opacity: 1;}
.edge:hover path { stroke: red; }
.edge:hover polygon { stroke: red; fill: red; }
]]></style>
<script type="application/ecmascript" xlink:href="svg.min.js"/>
<svg id="graph" class="graph">
<g id="graph0" class="graph" transform="scale(1 1) rotate(0) translate(4 248)">
<title>com.hust.ittnk68.cnpm.communication.AdminDeleteObject</title>
<!-- Node1 -->
<g id="Node000001" class="node">
<title>Node1</title>
<g id="a_Node000001"><a xlink:title=" ">
<polygon fill="#999999" stroke="none" points="179.75,-112 0,-112 0,0 179.75,0 179.75,-112"/>
<text text-anchor="start" x="4" y="-98.5" font-family="Helvetica,sans-Serif" font-size="10.00">com.hust.ittnk68.cnpm.communication.</text>
<text text-anchor="start" x="47.5" y="-86.5" font-family="Helvetica,sans-Serif" font-size="10.00">AdminDeleteObject</text>
<text text-anchor="start" x="88.38" y="-70.5" font-family="Helvetica,sans-Serif" font-size="10.00"> </text>
<text text-anchor="start" x="21.75" y="-54.5" font-family="Helvetica,sans-Serif" font-size="10.00">+</text>
<text text-anchor="start" x="49.5" y="-54.5" font-family="Helvetica,sans-Serif" font-size="10.00">AdminDeleteObject()</text>
<text text-anchor="start" x="21.75" y="-38.5" font-family="Helvetica,sans-Serif" font-size="10.00">+</text>
<text text-anchor="start" x="49.5" y="-38.5" font-family="Helvetica,sans-Serif" font-size="10.00">getCondition()</text>
<text text-anchor="start" x="21.75" y="-22.5" font-family="Helvetica,sans-Serif" font-size="10.00">+</text>
<text text-anchor="start" x="49.5" y="-22.5" font-family="Helvetica,sans-Serif" font-size="10.00">getObject()</text>
<text text-anchor="start" x="21.75" y="-6.5" font-family="Helvetica,sans-Serif" font-size="10.00">+</text>
<text text-anchor="start" x="49.5" y="-6.5" font-family="Helvetica,sans-Serif" font-size="10.00">setObject()</text>
<polygon fill="#666666" stroke="#666666" points="0,-82 0,-82 179.75,-82 179.75,-82 0,-82"/>
<polygon fill="#666666" stroke="#666666" points="0,-66 0,-66 179.75,-66 179.75,-66 0,-66"/>
<polygon fill="none" stroke="#666666" points="0,0 0,-112 179.75,-112 179.75,0 0,0"/>
</a>
</g>
</g>
<!-- Node2 -->
<g id="Node000002" class="node">
<title>Node2</title>
<g id="a_Node000002"><a xlink:href="classcom_1_1hust_1_1ittnk68_1_1cnpm_1_1communication_1_1ClientMessageBase.html" target="_top" xlink:title=" ">
<polygon fill="white" stroke="none" points="179.75,-244 0,-244 0,-148 179.75,-148 179.75,-244"/>
<text text-anchor="start" x="4" y="-230.5" font-family="Helvetica,sans-Serif" font-size="10.00">com.hust.ittnk68.cnpm.communication.</text>
<text text-anchor="start" x="46" y="-218.5" font-family="Helvetica,sans-Serif" font-size="10.00">ClientMessageBase</text>
<text text-anchor="start" x="88.38" y="-202.5" font-family="Helvetica,sans-Serif" font-size="10.00"> </text>
<text text-anchor="start" x="21" y="-186.5" font-family="Helvetica,sans-Serif" font-size="10.00">+</text>
<text text-anchor="start" x="48" y="-186.5" font-family="Helvetica,sans-Serif" font-size="10.00">getUsername()</text>
<text text-anchor="start" x="21" y="-170.5" font-family="Helvetica,sans-Serif" font-size="10.00">+</text>
<text text-anchor="start" x="48" y="-170.5" font-family="Helvetica,sans-Serif" font-size="10.00">setUsername()</text>
<text text-anchor="start" x="21" y="-154.5" font-family="Helvetica,sans-Serif" font-size="10.00">~</text>
<text text-anchor="start" x="48" y="-154.5" font-family="Helvetica,sans-Serif" font-size="10.00">ClientMessageBase()</text>
<polygon fill="#666666" stroke="#666666" points="0,-214 0,-214 179.75,-214 179.75,-214 0,-214"/>
<polygon fill="#666666" stroke="#666666" points="0,-198 0,-198 179.75,-198 179.75,-198 0,-198"/>
<polygon fill="none" stroke="#666666" points="0,-148 0,-244 179.75,-244 179.75,-148 0,-148"/>
</a>
</g>
</g>
<!-- Node2&#45;&gt;Node1 -->
<g id="edge1_Node000001_Node000002" class="edge">
<title>Node2&#45;&gt;Node1</title>
<g id="a_edge1_Node000001_Node000002"><a xlink:title=" ">
<path fill="none" stroke="#63b8ff" d="M89.88,-137.05C89.88,-128.68 89.88,-120.08 89.88,-111.78"/>
<polygon fill="none" stroke="#63b8ff" points="86.38,-136.77 89.88,-146.77 93.38,-136.77 86.38,-136.77"/>
</a>
</g>
</g>
</g>
</svg>
</svg>

<style type='text/css'>
<![CDATA[
[data-mouse-over-selected='false'] { opacity: 0.7; }
[data-mouse-over-selected='true']  { opacity: 1.0; }
]]>
</style>
<script type="application/ecmascript"><![CDATA[
document.addEventListener('DOMContentLoaded', (event) => {
  highlightEdges();
  highlightAdjacentNodes();
});
]]></script>
</svg>
