<?xml version="1.0" encoding="UTF-8" standalone="no"?>
<!DOCTYPE svg PUBLIC "-//W3C//DTD SVG 1.1//EN"
 "http://www.w3.org/Graphics/SVG/1.1/DTD/svg11.dtd">
<!-- Generated by graphviz version 12.2.1 (20241206.2353)
 -->
<!-- Title: com.hust.ittnk68.cnpm.communication.ApiMapping Pages: 1 -->
<svg width="232pt" height="292pt"
 viewBox="0.00 0.00 232.12 292.00" xmlns="http://www.w3.org/2000/svg" xmlns:xlink="http://www.w3.org/1999/xlink">
<g id="graph0" class="graph" transform="scale(1 1) rotate(0) translate(4 288)">
<title>com.hust.ittnk68.cnpm.communication.ApiMapping</title>
<!-- Node1 -->
<g id="Node000001" class="node">
<title>Node1</title>
<g id="a_Node000001"><a xlink:title=" ">
<polygon fill="#999999" stroke="none" points="179.75,-64 0,-64 0,0 179.75,0 179.75,-64"/>
<text text-anchor="start" x="4" y="-50.5" font-family="Helvetica,sans-Serif" font-size="10.00">com.hust.ittnk68.cnpm.communication.</text>
<text text-anchor="start" x="64.38" y="-38.5" font-family="Helvetica,sans-Serif" font-size="10.00">ApiMapping</text>
<text text-anchor="start" x="88.38" y="-22.5" font-family="Helvetica,sans-Serif" font-size="10.00"> </text>
<text text-anchor="start" x="88.38" y="-6.5" font-family="Helvetica,sans-Serif" font-size="10.00"> </text>
<polygon fill="#666666" stroke="#666666" points="0,-34 0,-34 179.75,-34 179.75,-34 0,-34"/>
<polygon fill="#666666" stroke="#666666" points="0,-18 0,-18 179.75,-18 179.75,-18 0,-18"/>
<polygon fill="none" stroke="#666666" points="0,0 0,-64 179.75,-64 179.75,0 0,0"/>
</a>
</g>
</g>
<!-- Node2 -->
<g id="Node000002" class="node">
<title>Node2</title>
<g id="a_Node000002"><a xlink:title=" ">
<polygon fill="white" stroke="none" points="106.62,-284 73.12,-284 73.12,-232 106.62,-232 106.62,-284"/>
<text text-anchor="start" x="77.12" y="-270.5" font-family="Helvetica,sans-Serif" font-size="10.00">String</text>
<text text-anchor="start" x="88.38" y="-254.5" font-family="Helvetica,sans-Serif" font-size="10.00"> </text>
<text text-anchor="start" x="88.38" y="-238.5" font-family="Helvetica,sans-Serif" font-size="10.00"> </text>
<polygon fill="#666666" stroke="#666666" points="73.12,-266 73.12,-266 106.62,-266 106.62,-266 73.12,-266"/>
<polygon fill="#666666" stroke="#666666" points="73.12,-250 73.12,-250 106.62,-250 106.62,-250 73.12,-250"/>
<polygon fill="none" stroke="#666666" points="73.12,-232 73.12,-284 106.62,-284 106.62,-232 73.12,-232"/>
</a>
</g>
</g>
<!-- Node2&#45;&gt;Node1 -->
<g id="edge1_Node000001_Node000002" class="edge">
<title>Node2&#45;&gt;Node1</title>
<g id="a_edge1_Node000001_Node000002"><a xlink:title=" ">
<path fill="none" stroke="#63b8ff" d="M89.88,-232.17C89.88,-194.64 89.88,-122.94 89.88,-76.58"/>
<polygon fill="none" stroke="#63b8ff" points="89.88,-76.55 85.88,-70.55 89.88,-64.55 93.88,-70.55 89.88,-76.55"/>
</a>
</g>
<text text-anchor="middle" x="157" y="-204.5" font-family="Helvetica,sans-Serif" font-size="10.00" fill="grey"> +CREATE_OBJECT</text>
<text text-anchor="middle" x="157" y="-192.5" font-family="Helvetica,sans-Serif" font-size="10.00" fill="grey">+DELETE_OBJECT</text>
<text text-anchor="middle" x="157" y="-180.5" font-family="Helvetica,sans-Serif" font-size="10.00" fill="grey">+END_SESSION</text>
<text text-anchor="middle" x="157" y="-168.5" font-family="Helvetica,sans-Serif" font-size="10.00" fill="grey">+FIND_OBJECT</text>
<text text-anchor="start" x="89.88" y="-156.5" font-family="Helvetica,sans-Serif" font-size="10.00" fill="grey">+QUERY_FAMILY_PAYMENT</text>
<text text-anchor="middle" x="157" y="-144.5" font-family="Helvetica,sans-Serif" font-size="10.00" fill="grey">_STATUS</text>
<text text-anchor="start" x="89.88" y="-132.5" font-family="Helvetica,sans-Serif" font-size="10.00" fill="grey">+QUERY_OBJECT_BY</text>
<text text-anchor="middle" x="157" y="-120.5" font-family="Helvetica,sans-Serif" font-size="10.00" fill="grey">_ID</text>
<text text-anchor="middle" x="157" y="-108.5" font-family="Helvetica,sans-Serif" font-size="10.00" fill="grey">+START_SESSION</text>
<text text-anchor="middle" x="157" y="-96.5" font-family="Helvetica,sans-Serif" font-size="10.00" fill="grey">+UDPATE_OBJECT</text>
<text text-anchor="middle" x="157" y="-84.5" font-family="Helvetica,sans-Serif" font-size="10.00" fill="grey">+UPDATE_OBJECT</text>
</g>
</g>
</svg>
