<?xml version="1.0" encoding="UTF-8" standalone="no"?>
<!DOCTYPE svg PUBLIC "-//W3C//DTD SVG 1.1//EN"
 "http://www.w3.org/Graphics/SVG/1.1/DTD/svg11.dtd">
<!-- Generated by graphviz version 12.2.1 (20241206.2353)
 -->
<!-- Title: com.hust.ittnk68.cnpm.model.UpdateFamilyModel Pages: 1 -->
<svg width="148pt" height="152pt"
 viewBox="0.00 0.00 148.00 152.00" xmlns="http://www.w3.org/2000/svg" xmlns:xlink="http://www.w3.org/1999/xlink">
<g id="graph0" class="graph" transform="scale(1 1) rotate(0) translate(4 148)">
<title>com.hust.ittnk68.cnpm.model.UpdateFamilyModel</title>
<!-- Node1 -->
<g id="Node000001" class="node">
<title>Node1</title>
<g id="a_Node000001"><a xlink:title=" ">
<polygon fill="#999999" stroke="none" points="140,-144 0,-144 0,0 140,0 140,-144"/>
<text text-anchor="start" x="4" y="-130.5" font-family="Helvetica,sans-Serif" font-size="10.00">com.hust.ittnk68.cnpm.model.</text>
<text text-anchor="start" x="26.5" y="-118.5" font-family="Helvetica,sans-Serif" font-size="10.00">UpdateFamilyModel</text>
<text text-anchor="start" x="68.5" y="-102.5" font-family="Helvetica,sans-Serif" font-size="10.00"> </text>
<text text-anchor="start" x="5.62" y="-86.5" font-family="Helvetica,sans-Serif" font-size="10.00">+</text>
<text text-anchor="start" x="17.25" y="-86.5" font-family="Helvetica,sans-Serif" font-size="10.00">UpdateFamilyModel()</text>
<text text-anchor="start" x="5.62" y="-70.5" font-family="Helvetica,sans-Serif" font-size="10.00">+</text>
<text text-anchor="start" x="17.25" y="-70.5" font-family="Helvetica,sans-Serif" font-size="10.00">personIdProperty()</text>
<text text-anchor="start" x="5.62" y="-54.5" font-family="Helvetica,sans-Serif" font-size="10.00">+</text>
<text text-anchor="start" x="17.25" y="-54.5" font-family="Helvetica,sans-Serif" font-size="10.00">familyIdProperty()</text>
<text text-anchor="start" x="5.62" y="-38.5" font-family="Helvetica,sans-Serif" font-size="10.00">+</text>
<text text-anchor="start" x="17.25" y="-38.5" font-family="Helvetica,sans-Serif" font-size="10.00">houseNumberProperty()</text>
<text text-anchor="start" x="5.62" y="-22.5" font-family="Helvetica,sans-Serif" font-size="10.00">+</text>
<text text-anchor="start" x="17.25" y="-22.5" font-family="Helvetica,sans-Serif" font-size="10.00">getUpdateFamilyWindow()</text>
<text text-anchor="start" x="5.62" y="-6.5" font-family="Helvetica,sans-Serif" font-size="10.00">+</text>
<text text-anchor="start" x="17.25" y="-6.5" font-family="Helvetica,sans-Serif" font-size="10.00">setUpdateFamilyWindow()</text>
<polygon fill="#666666" stroke="#666666" points="0,-114 0,-114 140,-114 140,-114 0,-114"/>
<polygon fill="#666666" stroke="#666666" points="0,-98 0,-98 140,-98 140,-98 0,-98"/>
<polygon fill="none" stroke="#666666" points="0,0 0,-144 140,-144 140,0 0,0"/>
</a>
</g>
</g>
</g>
</svg>
