<?xml version="1.0" encoding="UTF-8" standalone="no"?>
<!DOCTYPE svg PUBLIC "-//W3C//DTD SVG 1.1//EN"
 "http://www.w3.org/Graphics/SVG/1.1/DTD/svg11.dtd">
<!-- Generated by graphviz version 12.2.1 (20241206.2353)
 -->
<!-- Title: com.hust.ittnk68.cnpm.communication.ServerResponseBase Pages: 1 -->
<!--zoomable 316 -->

<svg id="main" version="1.1" xmlns="http://www.w3.org/2000/svg" xmlns:xlink="http://www.w3.org/1999/xlink" xml:space="preserve" onload="init(evt)">

<style type="text/css"><![CDATA[
.node, .edge {opacity: 0.7;}
.node.selected, .edge.selected {opacity: 1;}
.edge:hover path { stroke: red; }
.edge:hover polygon { stroke: red; fill: red; }
]]></style>

<defs>
  <circle id="rim" cx="0" cy="0" r="7"/>
  <circle id="rim2" cx="0" cy="0" r="3.5"/>
  <g id="zoomPlus">
    <use xlink:href="#rim" fill="#404040"><set attributeName="fill" to="#808080" begin="zoomplus.mouseover" end="zoomplus.mouseout"/></use>
    <path d="M-4,0h8M0,-4v8" fill="none" stroke="white" stroke-width="1.5" pointer-events="none"/>
  </g>
  <g id="zoomMin">
    <use xlink:href="#rim" fill="#404040"><set attributeName="fill" to="#808080" begin="zoomminus.mouseover" end="zoomminus.mouseout"/></use>
    <path d="M-4,0h8" fill="none" stroke="white" stroke-width="1.5" pointer-events="none"/>
  </g>
  <g id="arrowUp" transform="translate(30 24)">
    <use xlink:href="#rim"/>
    <path pointer-events="none" fill="none" stroke="white" stroke-width="1.5" d="M0,-3.0v7 M-2.5,-0.5L0,-3.0L2.5,-0.5"/>
  </g>
  <g id="arrowRight" transform="rotate(90) translate(36 -43)">
    <use xlink:href="#rim"/>
    <path pointer-events="none" fill="none" stroke="white" stroke-width="1.5" d="M0,-3.0v7 M-2.5,-0.5L0,-3.0L2.5,-0.5"/>
  </g>
  <g id="arrowDown" transform="rotate(180) translate(-30 -48)">
    <use xlink:href="#rim"/>
    <path pointer-events="none" fill="none" stroke="white" stroke-width="1.5" d="M0,-3.0v7 M-2.5,-0.5L0,-3.0L2.5,-0.5"/>
  </g>
  <g id="arrowLeft" transform="rotate(270) translate(-36 17)">
    <use xlink:href="#rim"/>
    <path pointer-events="none" fill="none" stroke="white" stroke-width="1.5" d="M0,-3.0v7 M-2.5,-0.5L0,-3.0L2.5,-0.5"/>
  </g>
  <g id="resetDef">
    <use xlink:href="#rim2" fill="#404040"><set attributeName="fill" to="#808080" begin="reset.mouseover" end="reset.mouseout"/></use>
  </g>
</defs>
<script type="application/ecmascript">
var viewWidth = 1376;
var viewHeight = 316;
var sectionId = 'dynsection-0';
</script>
<script type="application/ecmascript" xlink:href="svg.min.js"/>
<svg id="graph" class="graph">
<g id="viewport">
<title>com.hust.ittnk68.cnpm.communication.ServerResponseBase</title>
<!-- Node1 -->
<g id="Node000001" class="node">
<title>Node1</title>
<g id="a_Node000001"><a xlink:title=" ">
<polygon fill="#999999" stroke="none" points="773.75,-308 594,-308 594,-180 773.75,-180 773.75,-308"/>
<text text-anchor="start" x="598" y="-294.5" font-family="Helvetica,sans-Serif" font-size="10.00">com.hust.ittnk68.cnpm.communication.</text>
<text text-anchor="start" x="636.25" y="-282.5" font-family="Helvetica,sans-Serif" font-size="10.00">ServerResponseBase</text>
<text text-anchor="start" x="682.38" y="-266.5" font-family="Helvetica,sans-Serif" font-size="10.00"> </text>
<text text-anchor="start" x="612.56" y="-250.5" font-family="Helvetica,sans-Serif" font-size="10.00">+</text>
<text text-anchor="start" x="637.12" y="-250.5" font-family="Helvetica,sans-Serif" font-size="10.00">ServerResponseBase()</text>
<text text-anchor="start" x="612.56" y="-234.5" font-family="Helvetica,sans-Serif" font-size="10.00">+</text>
<text text-anchor="start" x="637.12" y="-234.5" font-family="Helvetica,sans-Serif" font-size="10.00">getResponseStatus()</text>
<text text-anchor="start" x="612.56" y="-218.5" font-family="Helvetica,sans-Serif" font-size="10.00">+</text>
<text text-anchor="start" x="637.12" y="-218.5" font-family="Helvetica,sans-Serif" font-size="10.00">setResponseStatus()</text>
<text text-anchor="start" x="612.56" y="-202.5" font-family="Helvetica,sans-Serif" font-size="10.00">+</text>
<text text-anchor="start" x="637.12" y="-202.5" font-family="Helvetica,sans-Serif" font-size="10.00">getResponseMessage()</text>
<text text-anchor="start" x="612.56" y="-186.5" font-family="Helvetica,sans-Serif" font-size="10.00">+</text>
<text text-anchor="start" x="637.12" y="-186.5" font-family="Helvetica,sans-Serif" font-size="10.00">setResponseMessage()</text>
<polygon fill="#666666" stroke="#666666" points="594,-278 594,-278 773.75,-278 773.75,-278 594,-278"/>
<polygon fill="#666666" stroke="#666666" points="594,-262 594,-262 773.75,-262 773.75,-262 594,-262"/>
<polygon fill="none" stroke="#666666" points="594,-180 594,-308 773.75,-308 773.75,-180 594,-180"/>
</a>
</g>
</g>
<!-- Node2 -->
<g id="Node000002" class="node">
<title>Node2</title>
<g id="a_Node000002"><a xlink:href="classcom_1_1hust_1_1ittnk68_1_1cnpm_1_1communication_1_1ServerCreateObjectResponse.html" target="_top" xlink:title=" ">
<polygon fill="white" stroke="none" points="179.75,-128 0,-128 0,-16 179.75,-16 179.75,-128"/>
<text text-anchor="start" x="4" y="-114.5" font-family="Helvetica,sans-Serif" font-size="10.00">com.hust.ittnk68.cnpm.communication.</text>
<text text-anchor="start" x="24.62" y="-102.5" font-family="Helvetica,sans-Serif" font-size="10.00">ServerCreateObjectResponse</text>
<text text-anchor="start" x="88.38" y="-86.5" font-family="Helvetica,sans-Serif" font-size="10.00"> </text>
<text text-anchor="start" x="10.31" y="-70.5" font-family="Helvetica,sans-Serif" font-size="10.00">+</text>
<text text-anchor="start" x="26.62" y="-70.5" font-family="Helvetica,sans-Serif" font-size="10.00">ServerCreateObjectResponse()</text>
<text text-anchor="start" x="10.31" y="-54.5" font-family="Helvetica,sans-Serif" font-size="10.00">+</text>
<text text-anchor="start" x="26.62" y="-54.5" font-family="Helvetica,sans-Serif" font-size="10.00">ServerCreateObjectResponse()</text>
<text text-anchor="start" x="10.31" y="-38.5" font-family="Helvetica,sans-Serif" font-size="10.00">+</text>
<text text-anchor="start" x="26.62" y="-38.5" font-family="Helvetica,sans-Serif" font-size="10.00">getObjectId()</text>
<text text-anchor="start" x="10.31" y="-22.5" font-family="Helvetica,sans-Serif" font-size="10.00">+</text>
<text text-anchor="start" x="26.62" y="-22.5" font-family="Helvetica,sans-Serif" font-size="10.00">setObjectId()</text>
<polygon fill="#666666" stroke="#666666" points="0,-98 0,-98 179.75,-98 179.75,-98 0,-98"/>
<polygon fill="#666666" stroke="#666666" points="0,-82 0,-82 179.75,-82 179.75,-82 0,-82"/>
<polygon fill="none" stroke="#666666" points="0,-16 0,-128 179.75,-128 179.75,-16 0,-16"/>
</a>
</g>
</g>
<!-- Node1&#45;&gt;Node2 -->
<g id="edge1_Node000001_Node000002" class="edge">
<title>Node1&#45;&gt;Node2</title>
<g id="a_edge1_Node000001_Node000002"><a xlink:title=" ">
<path fill="none" stroke="#63b8ff" d="M582.91,-235.39C480.16,-224.79 318.07,-200.12 188.88,-144 178.69,-139.58 168.52,-133.98 158.78,-127.88"/>
<polygon fill="none" stroke="#63b8ff" points="582.4,-238.86 592.7,-236.37 583.1,-231.89 582.4,-238.86"/>
</a>
</g>
</g>
<!-- Node3 -->
<g id="Node000003" class="node">
<title>Node3</title>
<g id="a_Node000003"><a xlink:href="classcom_1_1hust_1_1ittnk68_1_1cnpm_1_1communication_1_1ServerDeleteObjectResponse.html" target="_top" xlink:title=" ">
<polygon fill="white" stroke="none" points="377.75,-128 198,-128 198,-16 377.75,-16 377.75,-128"/>
<text text-anchor="start" x="202" y="-114.5" font-family="Helvetica,sans-Serif" font-size="10.00">com.hust.ittnk68.cnpm.communication.</text>
<text text-anchor="start" x="223" y="-102.5" font-family="Helvetica,sans-Serif" font-size="10.00">ServerDeleteObjectResponse</text>
<text text-anchor="start" x="208.5" y="-86.5" font-family="Helvetica,sans-Serif" font-size="10.00">~</text>
<text text-anchor="start" x="225" y="-86.5" font-family="Helvetica,sans-Serif" font-size="10.00">affectedRows</text>
<text text-anchor="start" x="208.5" y="-70.5" font-family="Helvetica,sans-Serif" font-size="10.00">+</text>
<text text-anchor="start" x="225" y="-70.5" font-family="Helvetica,sans-Serif" font-size="10.00">ServerDeleteObjectResponse()</text>
<text text-anchor="start" x="208.5" y="-54.5" font-family="Helvetica,sans-Serif" font-size="10.00">+</text>
<text text-anchor="start" x="225" y="-54.5" font-family="Helvetica,sans-Serif" font-size="10.00">ServerDeleteObjectResponse()</text>
<text text-anchor="start" x="208.5" y="-38.5" font-family="Helvetica,sans-Serif" font-size="10.00">+</text>
<text text-anchor="start" x="225" y="-38.5" font-family="Helvetica,sans-Serif" font-size="10.00">setAffectedRows()</text>
<text text-anchor="start" x="208.5" y="-22.5" font-family="Helvetica,sans-Serif" font-size="10.00">+</text>
<text text-anchor="start" x="225" y="-22.5" font-family="Helvetica,sans-Serif" font-size="10.00">getAffectedRows()</text>
<polygon fill="#666666" stroke="#666666" points="198,-98 198,-98 377.75,-98 377.75,-98 198,-98"/>
<polygon fill="#666666" stroke="#666666" points="198,-82 198,-82 223,-82 223,-82 198,-82"/>
<polygon fill="#666666" stroke="#666666" points="223,-82 223,-82 377.75,-82 377.75,-82 223,-82"/>
<polygon fill="none" stroke="#666666" points="198,-16 198,-128 377.75,-128 377.75,-16 198,-16"/>
</a>
</g>
</g>
<!-- Node1&#45;&gt;Node3 -->
<g id="edge2_Node000001_Node000003" class="edge">
<title>Node1&#45;&gt;Node3</title>
<g id="a_edge2_Node000001_Node000003"><a xlink:title=" ">
<path fill="none" stroke="#63b8ff" d="M583.19,-217.6C524.22,-200.75 449.31,-175.87 386.88,-144 377.64,-139.29 368.32,-133.78 359.28,-127.95"/>
<polygon fill="none" stroke="#63b8ff" points="581.97,-220.9 592.55,-220.25 583.87,-214.16 581.97,-220.9"/>
</a>
</g>
</g>
<!-- Node4 -->
<g id="Node000004" class="node">
<title>Node4</title>
<g id="a_Node000004"><a xlink:href="classcom_1_1hust_1_1ittnk68_1_1cnpm_1_1communication_1_1ServerFindObjectResponse.html" target="_top" xlink:title=" ">
<polygon fill="white" stroke="none" points="575.75,-128 396,-128 396,-16 575.75,-16 575.75,-128"/>
<text text-anchor="start" x="400" y="-114.5" font-family="Helvetica,sans-Serif" font-size="10.00">com.hust.ittnk68.cnpm.communication.</text>
<text text-anchor="start" x="425.88" y="-102.5" font-family="Helvetica,sans-Serif" font-size="10.00">ServerFindObjectResponse</text>
<text text-anchor="start" x="484.38" y="-86.5" font-family="Helvetica,sans-Serif" font-size="10.00"> </text>
<text text-anchor="start" x="408.94" y="-70.5" font-family="Helvetica,sans-Serif" font-size="10.00">+</text>
<text text-anchor="start" x="427.88" y="-70.5" font-family="Helvetica,sans-Serif" font-size="10.00">ServerFindObjectResponse()</text>
<text text-anchor="start" x="408.94" y="-54.5" font-family="Helvetica,sans-Serif" font-size="10.00">+</text>
<text text-anchor="start" x="427.88" y="-54.5" font-family="Helvetica,sans-Serif" font-size="10.00">ServerFindObjectResponse()</text>
<text text-anchor="start" x="408.94" y="-38.5" font-family="Helvetica,sans-Serif" font-size="10.00">+</text>
<text text-anchor="start" x="427.88" y="-38.5" font-family="Helvetica,sans-Serif" font-size="10.00">getRequestResult()</text>
<text text-anchor="start" x="408.94" y="-22.5" font-family="Helvetica,sans-Serif" font-size="10.00">+</text>
<text text-anchor="start" x="427.88" y="-22.5" font-family="Helvetica,sans-Serif" font-size="10.00">setRequestResult()</text>
<polygon fill="#666666" stroke="#666666" points="396,-98 396,-98 575.75,-98 575.75,-98 396,-98"/>
<polygon fill="#666666" stroke="#666666" points="396,-82 396,-82 575.75,-82 575.75,-82 396,-82"/>
<polygon fill="none" stroke="#666666" points="396,-16 396,-128 575.75,-128 575.75,-16 396,-16"/>
</a>
</g>
</g>
<!-- Node1&#45;&gt;Node4 -->
<g id="edge3_Node000001_Node000004" class="edge">
<title>Node1&#45;&gt;Node4</title>
<g id="a_edge3_Node000001_Node000004"><a xlink:title=" ">
<path fill="none" stroke="#63b8ff" d="M602.17,-172.85C584.64,-157.79 566.35,-142.1 549.62,-127.73"/>
<polygon fill="none" stroke="#63b8ff" points="599.69,-175.34 609.56,-179.2 604.25,-170.03 599.69,-175.34"/>
</a>
</g>
</g>
<!-- Node5 -->
<g id="Node000005" class="node">
<title>Node5</title>
<g id="a_Node000005"><a xlink:href="classcom_1_1hust_1_1ittnk68_1_1cnpm_1_1communication_1_1ServerObjectByIdQueryResponse.html" target="_top" xlink:title=" ">
<polygon fill="white" stroke="none" points="773.75,-128 594,-128 594,-16 773.75,-16 773.75,-128"/>
<text text-anchor="start" x="598" y="-114.5" font-family="Helvetica,sans-Serif" font-size="10.00">com.hust.ittnk68.cnpm.communication.</text>
<text text-anchor="start" x="610" y="-102.5" font-family="Helvetica,sans-Serif" font-size="10.00">ServerObjectByIdQueryResponse</text>
<text text-anchor="start" x="682.38" y="-86.5" font-family="Helvetica,sans-Serif" font-size="10.00"> </text>
<text text-anchor="start" x="600" y="-70.5" font-family="Helvetica,sans-Serif" font-size="10.00">+</text>
<text text-anchor="start" x="612" y="-70.5" font-family="Helvetica,sans-Serif" font-size="10.00">ServerObjectByIdQueryResponse()</text>
<text text-anchor="start" x="600" y="-54.5" font-family="Helvetica,sans-Serif" font-size="10.00">+</text>
<text text-anchor="start" x="612" y="-54.5" font-family="Helvetica,sans-Serif" font-size="10.00">ServerObjectByIdQueryResponse()</text>
<text text-anchor="start" x="600" y="-38.5" font-family="Helvetica,sans-Serif" font-size="10.00">+</text>
<text text-anchor="start" x="612" y="-38.5" font-family="Helvetica,sans-Serif" font-size="10.00">getResult()</text>
<text text-anchor="start" x="600" y="-22.5" font-family="Helvetica,sans-Serif" font-size="10.00">+</text>
<text text-anchor="start" x="612" y="-22.5" font-family="Helvetica,sans-Serif" font-size="10.00">setResult()</text>
<polygon fill="#666666" stroke="#666666" points="594,-98 594,-98 773.75,-98 773.75,-98 594,-98"/>
<polygon fill="#666666" stroke="#666666" points="594,-82 594,-82 773.75,-82 773.75,-82 594,-82"/>
<polygon fill="none" stroke="#666666" points="594,-16 594,-128 773.75,-128 773.75,-16 594,-16"/>
</a>
</g>
</g>
<!-- Node1&#45;&gt;Node5 -->
<g id="edge4_Node000001_Node000005" class="edge">
<title>Node1&#45;&gt;Node5</title>
<g id="a_edge4_Node000001_Node000005"><a xlink:title=" ">
<path fill="none" stroke="#63b8ff" d="M683.88,-168.73C683.88,-154.95 683.88,-140.79 683.88,-127.73"/>
<polygon fill="none" stroke="#63b8ff" points="680.38,-168.67 683.88,-178.67 687.38,-168.67 680.38,-168.67"/>
</a>
</g>
</g>
<!-- Node6 -->
<g id="Node000006" class="node">
<title>Node6</title>
<g id="a_Node000006"><a xlink:href="classcom_1_1hust_1_1ittnk68_1_1cnpm_1_1communication_1_1ServerPaymentStatusQueryResponse.html" target="_top" xlink:title=" ">
<polygon fill="white" stroke="none" points="971.75,-140 792,-140 792,-4 971.75,-4 971.75,-140"/>
<text text-anchor="start" x="796" y="-126.5" font-family="Helvetica,sans-Serif" font-size="10.00">com.hust.ittnk68.cnpm.communication.</text>
<text text-anchor="start" x="798.62" y="-114.5" font-family="Helvetica,sans-Serif" font-size="10.00">ServerPaymentStatusQueryResponse</text>
<text text-anchor="start" x="880.38" y="-98.5" font-family="Helvetica,sans-Serif" font-size="10.00"> </text>
<text text-anchor="start" x="805.88" y="-82.5" font-family="Helvetica,sans-Serif" font-size="10.00">+</text>
<text text-anchor="start" x="825.75" y="-82.5" font-family="Helvetica,sans-Serif" font-size="10.00">ServerPaymentStatusQuery</text>
<text text-anchor="start" x="825.75" y="-70.5" font-family="Helvetica,sans-Serif" font-size="10.00">Response()</text>
<text text-anchor="start" x="805.88" y="-54.5" font-family="Helvetica,sans-Serif" font-size="10.00">+</text>
<text text-anchor="start" x="825.75" y="-54.5" font-family="Helvetica,sans-Serif" font-size="10.00">ServerPaymentStatusQuery</text>
<text text-anchor="start" x="825.75" y="-42.5" font-family="Helvetica,sans-Serif" font-size="10.00">Response()</text>
<text text-anchor="start" x="805.88" y="-26.5" font-family="Helvetica,sans-Serif" font-size="10.00">+</text>
<text text-anchor="start" x="825.75" y="-26.5" font-family="Helvetica,sans-Serif" font-size="10.00">getResult()</text>
<text text-anchor="start" x="805.88" y="-10.5" font-family="Helvetica,sans-Serif" font-size="10.00">+</text>
<text text-anchor="start" x="825.75" y="-10.5" font-family="Helvetica,sans-Serif" font-size="10.00">setResult()</text>
<polygon fill="#666666" stroke="#666666" points="792,-110 792,-110 971.75,-110 971.75,-110 792,-110"/>
<polygon fill="#666666" stroke="#666666" points="792,-94 792,-94 971.75,-94 971.75,-94 792,-94"/>
<polygon fill="none" stroke="#666666" points="792,-4 792,-140 971.75,-140 971.75,-4 792,-4"/>
</a>
</g>
</g>
<!-- Node1&#45;&gt;Node6 -->
<g id="edge5_Node000001_Node000006" class="edge">
<title>Node1&#45;&gt;Node6</title>
<g id="a_edge5_Node000001_Node000006"><a xlink:title=" ">
<path fill="none" stroke="#63b8ff" d="M765.74,-172.71C778.4,-161.84 791.45,-150.63 804.03,-139.84"/>
<polygon fill="none" stroke="#63b8ff" points="763.5,-170.03 758.19,-179.2 768.06,-175.34 763.5,-170.03"/>
</a>
</g>
</g>
<!-- Node7 -->
<g id="Node000007" class="node">
<title>Node7</title>
<g id="a_Node000007"><a xlink:href="classcom_1_1hust_1_1ittnk68_1_1cnpm_1_1communication_1_1ServerResponseStartSession.html" target="_top" xlink:title=" ">
<polygon fill="white" stroke="none" points="1169.75,-144 990,-144 990,0 1169.75,0 1169.75,-144"/>
<text text-anchor="start" x="994" y="-130.5" font-family="Helvetica,sans-Serif" font-size="10.00">com.hust.ittnk68.cnpm.communication.</text>
<text text-anchor="start" x="1015.38" y="-118.5" font-family="Helvetica,sans-Serif" font-size="10.00">ServerResponseStartSession</text>
<text text-anchor="start" x="1000.69" y="-102.5" font-family="Helvetica,sans-Serif" font-size="10.00">~</text>
<text text-anchor="start" x="1017.38" y="-102.5" font-family="Helvetica,sans-Serif" font-size="10.00">token</text>
<text text-anchor="start" x="1000.69" y="-86.5" font-family="Helvetica,sans-Serif" font-size="10.00">~</text>
<text text-anchor="start" x="1017.38" y="-86.5" font-family="Helvetica,sans-Serif" font-size="10.00">accountType</text>
<text text-anchor="start" x="1000.69" y="-70.5" font-family="Helvetica,sans-Serif" font-size="10.00">+</text>
<text text-anchor="start" x="1017.38" y="-70.5" font-family="Helvetica,sans-Serif" font-size="10.00">ServerResponseStartSession()</text>
<text text-anchor="start" x="1000.69" y="-54.5" font-family="Helvetica,sans-Serif" font-size="10.00">+</text>
<text text-anchor="start" x="1017.38" y="-54.5" font-family="Helvetica,sans-Serif" font-size="10.00">getToken()</text>
<text text-anchor="start" x="1000.69" y="-38.5" font-family="Helvetica,sans-Serif" font-size="10.00">+</text>
<text text-anchor="start" x="1017.38" y="-38.5" font-family="Helvetica,sans-Serif" font-size="10.00">setToken()</text>
<text text-anchor="start" x="1000.69" y="-22.5" font-family="Helvetica,sans-Serif" font-size="10.00">+</text>
<text text-anchor="start" x="1017.38" y="-22.5" font-family="Helvetica,sans-Serif" font-size="10.00">getAccountType()</text>
<text text-anchor="start" x="1000.69" y="-6.5" font-family="Helvetica,sans-Serif" font-size="10.00">+</text>
<text text-anchor="start" x="1017.38" y="-6.5" font-family="Helvetica,sans-Serif" font-size="10.00">setAccountType()</text>
<polygon fill="#666666" stroke="#666666" points="990,-114 990,-114 1169.75,-114 1169.75,-114 990,-114"/>
<polygon fill="#666666" stroke="#666666" points="990,-82 990,-82 1015.38,-82 1015.38,-82 990,-82"/>
<polygon fill="#666666" stroke="#666666" points="1015.38,-82 1015.38,-82 1169.75,-82 1169.75,-82 1015.38,-82"/>
<polygon fill="none" stroke="#666666" points="990,0 990,-144 1169.75,-144 1169.75,0 990,0"/>
</a>
</g>
</g>
<!-- Node1&#45;&gt;Node7 -->
<g id="edge6_Node000001_Node000007" class="edge">
<title>Node1&#45;&gt;Node7</title>
<g id="a_edge6_Node000001_Node000007"><a xlink:title=" ">
<path fill="none" stroke="#63b8ff" d="M784.56,-217.6C843.53,-200.75 918.44,-175.87 980.88,-144 983.98,-142.41 987.1,-140.74 990.22,-138.99"/>
<polygon fill="none" stroke="#63b8ff" points="783.88,-214.16 775.2,-220.25 785.78,-220.9 783.88,-214.16"/>
</a>
</g>
</g>
<!-- Node8 -->
<g id="Node000008" class="node">
<title>Node8</title>
<g id="a_Node000008"><a xlink:href="classcom_1_1hust_1_1ittnk68_1_1cnpm_1_1communication_1_1ServerUpdateObjectResponse.html" target="_top" xlink:title=" ">
<polygon fill="white" stroke="none" points="1367.75,-128 1188,-128 1188,-16 1367.75,-16 1367.75,-128"/>
<text text-anchor="start" x="1192" y="-114.5" font-family="Helvetica,sans-Serif" font-size="10.00">com.hust.ittnk68.cnpm.communication.</text>
<text text-anchor="start" x="1211.5" y="-102.5" font-family="Helvetica,sans-Serif" font-size="10.00">ServerUpdateObjectResponse</text>
<text text-anchor="start" x="1197.75" y="-86.5" font-family="Helvetica,sans-Serif" font-size="10.00">~</text>
<text text-anchor="start" x="1213.5" y="-86.5" font-family="Helvetica,sans-Serif" font-size="10.00">affectedRows</text>
<text text-anchor="start" x="1197.75" y="-70.5" font-family="Helvetica,sans-Serif" font-size="10.00">+</text>
<text text-anchor="start" x="1213.5" y="-70.5" font-family="Helvetica,sans-Serif" font-size="10.00">ServerUpdateObjectResponse()</text>
<text text-anchor="start" x="1197.75" y="-54.5" font-family="Helvetica,sans-Serif" font-size="10.00">+</text>
<text text-anchor="start" x="1213.5" y="-54.5" font-family="Helvetica,sans-Serif" font-size="10.00">ServerUpdateObjectResponse()</text>
<text text-anchor="start" x="1197.75" y="-38.5" font-family="Helvetica,sans-Serif" font-size="10.00">+</text>
<text text-anchor="start" x="1213.5" y="-38.5" font-family="Helvetica,sans-Serif" font-size="10.00">setAffectedRows()</text>
<text text-anchor="start" x="1197.75" y="-22.5" font-family="Helvetica,sans-Serif" font-size="10.00">+</text>
<text text-anchor="start" x="1213.5" y="-22.5" font-family="Helvetica,sans-Serif" font-size="10.00">getAffectedRows()</text>
<polygon fill="#666666" stroke="#666666" points="1188,-98 1188,-98 1367.75,-98 1367.75,-98 1188,-98"/>
<polygon fill="#666666" stroke="#666666" points="1188,-82 1188,-82 1211.5,-82 1211.5,-82 1188,-82"/>
<polygon fill="#666666" stroke="#666666" points="1211.5,-82 1211.5,-82 1367.75,-82 1367.75,-82 1211.5,-82"/>
<polygon fill="none" stroke="#666666" points="1188,-16 1188,-128 1367.75,-128 1367.75,-16 1188,-16"/>
</a>
</g>
</g>
<!-- Node1&#45;&gt;Node8 -->
<g id="edge7_Node000001_Node000008" class="edge">
<title>Node1&#45;&gt;Node8</title>
<g id="a_edge7_Node000001_Node000008"><a xlink:title=" ">
<path fill="none" stroke="#63b8ff" d="M784.84,-235.39C887.59,-224.79 1049.68,-200.12 1178.88,-144 1189.06,-139.58 1199.23,-133.98 1208.97,-127.88"/>
<polygon fill="none" stroke="#63b8ff" points="784.65,-231.89 775.05,-236.37 785.35,-238.86 784.65,-231.89"/>
</a>
</g>
</g>
</g>
</svg>

<g id="navigator" transform="translate(0 0)" fill="#404254">
  <rect fill="#f2f5e9" fill-opacity="0.5" stroke="#606060" stroke-width=".5" x="0" y="0" width="60" height="60"/>
  <use id="zoomplus" xlink:href="#zoomPlus" x="17" y="9" onmousedown="handleZoom(evt,'in')"/>
  <use id="zoomminus" xlink:href="#zoomMin" x="42" y="9" onmousedown="handleZoom(evt,'out')"/>
  <use id="reset" xlink:href="#resetDef" x="30" y="36" onmousedown="handleReset()"/>
   <use id="arrowup" xlink:href="#arrowUp" x="0" y="0" onmousedown="handlePan(0,-1)"/>
  <use id="arrowright" xlink:href="#arrowRight" x="0" y="0" onmousedown="handlePan(1,0)"/>
  <use id="arrowdown" xlink:href="#arrowDown" x="0" y="0" onmousedown="handlePan(0,1)"/>
  <use id="arrowleft" xlink:href="#arrowLeft" x="0" y="0" onmousedown="handlePan(-1,0)"/>
</g>
<svg viewBox="0 0 15 15" width="100%" height="30px" preserveAspectRatio="xMaxYMin meet">
 <g id="arrow_out" transform="scale(0.3 0.3)">
  <a xlink:href="classcom_1_1hust_1_1ittnk68_1_1cnpm_1_1communication_1_1ServerResponseBase__inherit__graph_org.svg" target="_base">
   <rect id="button" ry="5" rx="5" y="6" x="6" height="38" width="38"
        fill="#f2f5e9" fill-opacity="0.5" stroke="#606060" stroke-width="1.0"/>
   <path id="arrow"
     d="M 11.500037,31.436501 C 11.940474,20.09759 22.043105,11.32322 32.158766,21.979434 L 37.068811,17.246167 C 37.068811,17.246167 37.088388,32 37.088388,32 L 22.160133,31.978069 C 22.160133,31.978069 26.997745,27.140456 26.997745,27.140456 C 18.528582,18.264221 13.291696,25.230495 11.500037,31.436501 z"
     style="fill:#404040;"/>
  </a>
 </g>
</svg>

<style type='text/css'>
<![CDATA[
[data-mouse-over-selected='false'] { opacity: 0.7; }
[data-mouse-over-selected='true']  { opacity: 1.0; }
]]>
</style>
<script type="application/ecmascript"><![CDATA[
document.addEventListener('DOMContentLoaded', (event) => {
  highlightEdges();
  highlightAdjacentNodes();
});
]]></script>
</svg>
