<?xml version="1.0" encoding="UTF-8" standalone="no"?>
<!DOCTYPE svg PUBLIC "-//W3C//DTD SVG 1.1//EN"
 "http://www.w3.org/Graphics/SVG/1.1/DTD/svg11.dtd">
<!-- Generated by graphviz version 12.2.1 (20241206.2353)
 -->
<!-- Title: com.hust.ittnk68.cnpm.view.AdminExpenseManagePage Pages: 1 -->
<svg width="155pt" height="260pt"
 viewBox="0.00 0.00 155.00 260.00" xmlns="http://www.w3.org/2000/svg" xmlns:xlink="http://www.w3.org/1999/xlink">
<g id="graph0" class="graph" transform="scale(1 1) rotate(0) translate(4 256)">
<title>com.hust.ittnk68.cnpm.view.AdminExpenseManagePage</title>
<!-- Node1 -->
<g id="Node000001" class="node">
<title>Node1</title>
<g id="a_Node000001"><a xlink:title=" ">
<polygon fill="#999999" stroke="none" points="147,-64 0,-64 0,0 147,0 147,-64"/>
<text text-anchor="start" x="11.25" y="-50.5" font-family="Helvetica,sans-Serif" font-size="10.00">com.hust.ittnk68.cnpm.view.</text>
<text text-anchor="start" x="12" y="-38.5" font-family="Helvetica,sans-Serif" font-size="10.00">AdminExpenseManagePage</text>
<text text-anchor="start" x="72" y="-22.5" font-family="Helvetica,sans-Serif" font-size="10.00"> </text>
<text text-anchor="start" x="4" y="-6.5" font-family="Helvetica,sans-Serif" font-size="10.00">+</text>
<text text-anchor="start" x="14" y="-6.5" font-family="Helvetica,sans-Serif" font-size="10.00">AdminExpenseManagePage()</text>
<polygon fill="#666666" stroke="#666666" points="0,-34 0,-34 147,-34 147,-34 0,-34"/>
<polygon fill="#666666" stroke="#666666" points="0,-18 0,-18 147,-18 147,-18 0,-18"/>
<polygon fill="none" stroke="#666666" points="0,0 0,-64 147,-64 147,0 0,0"/>
</a>
</g>
</g>
<!-- Node2 -->
<g id="Node000002" class="node">
<title>Node2</title>
<g id="a_Node000002"><a xlink:href="classcom_1_1hust_1_1ittnk68_1_1cnpm_1_1view_1_1DuongFXTabPane.html" target="_top" xlink:title=" ">
<polygon fill="white" stroke="none" points="139.75,-164 7.25,-164 7.25,-100 139.75,-100 139.75,-164"/>
<text text-anchor="start" x="11.25" y="-150.5" font-family="Helvetica,sans-Serif" font-size="10.00">com.hust.ittnk68.cnpm.view.</text>
<text text-anchor="start" x="33.75" y="-138.5" font-family="Helvetica,sans-Serif" font-size="10.00">DuongFXTabPane</text>
<text text-anchor="start" x="72" y="-122.5" font-family="Helvetica,sans-Serif" font-size="10.00"> </text>
<text text-anchor="start" x="18.5" y="-106.5" font-family="Helvetica,sans-Serif" font-size="10.00">+</text>
<text text-anchor="start" x="35.75" y="-106.5" font-family="Helvetica,sans-Serif" font-size="10.00">DuongFXTabPane()</text>
<polygon fill="#666666" stroke="#666666" points="7.25,-134 7.25,-134 139.75,-134 139.75,-134 7.25,-134"/>
<polygon fill="#666666" stroke="#666666" points="7.25,-118 7.25,-118 139.75,-118 139.75,-118 7.25,-118"/>
<polygon fill="none" stroke="#666666" points="7.25,-100 7.25,-164 139.75,-164 139.75,-100 7.25,-100"/>
</a>
</g>
</g>
<!-- Node2&#45;&gt;Node1 -->
<g id="edge1_Node000001_Node000002" class="edge">
<title>Node2&#45;&gt;Node1</title>
<g id="a_edge1_Node000001_Node000002"><a xlink:title=" ">
<path fill="none" stroke="#63b8ff" d="M73.5,-88.77C73.5,-80.44 73.5,-71.84 73.5,-63.97"/>
<polygon fill="none" stroke="#63b8ff" points="70,-88.75 73.5,-98.75 77,-88.75 70,-88.75"/>
</a>
</g>
</g>
<!-- Node3 -->
<g id="Node000003" class="node">
<title>Node3</title>
<g id="a_Node000003"><a xlink:href="classTabPane.html" target="_top" xlink:title=" ">
<polygon fill="white" stroke="none" points="96.62,-252 50.38,-252 50.38,-200 96.62,-200 96.62,-252"/>
<text text-anchor="start" x="54.38" y="-238.5" font-family="Helvetica,sans-Serif" font-size="10.00">TabPane</text>
<text text-anchor="start" x="72" y="-222.5" font-family="Helvetica,sans-Serif" font-size="10.00"> </text>
<text text-anchor="start" x="72" y="-206.5" font-family="Helvetica,sans-Serif" font-size="10.00"> </text>
<polygon fill="#666666" stroke="#666666" points="50.38,-234 50.38,-234 96.62,-234 96.62,-234 50.38,-234"/>
<polygon fill="#666666" stroke="#666666" points="50.38,-218 50.38,-218 96.62,-218 96.62,-218 50.38,-218"/>
<polygon fill="none" stroke="#666666" points="50.38,-200 50.38,-252 96.62,-252 96.62,-200 50.38,-200"/>
</a>
</g>
</g>
<!-- Node3&#45;&gt;Node2 -->
<g id="edge2_Node000002_Node000003" class="edge">
<title>Node3&#45;&gt;Node2</title>
<g id="a_edge2_Node000002_Node000003"><a xlink:title=" ">
<path fill="none" stroke="#63b8ff" d="M73.5,-189.06C73.5,-180.78 73.5,-172.04 73.5,-163.98"/>
<polygon fill="none" stroke="#63b8ff" points="70,-188.83 73.5,-198.83 77,-188.83 70,-188.83"/>
</a>
</g>
</g>
</g>
</svg>
