<?xml version="1.0" encoding="UTF-8" standalone="no"?>
<!DOCTYPE svg PUBLIC "-//W3C//DTD SVG 1.1//EN"
 "http://www.w3.org/Graphics/SVG/1.1/DTD/svg11.dtd">
<!-- Generated by graphviz version 12.2.1 (20241206.2353)
 -->
<!-- Title: com.hust.ittnk68.cnpm.type.Date Pages: 1 -->
<svg width="162pt" height="360pt"
 viewBox="0.00 0.00 161.50 360.00" xmlns="http://www.w3.org/2000/svg" xmlns:xlink="http://www.w3.org/1999/xlink">
<g id="graph0" class="graph" transform="scale(1 1) rotate(0) translate(4 356)">
<title>com.hust.ittnk68.cnpm.type.Date</title>
<!-- Node1 -->
<g id="Node000001" class="node">
<title>Node1</title>
<g id="a_Node000001"><a xlink:title=" ">
<polygon fill="#999999" stroke="none" points="153.5,-228 0,-228 0,0 153.5,0 153.5,-228"/>
<text text-anchor="start" x="4" y="-214.5" font-family="Helvetica,sans-Serif" font-size="10.00">com.hust.ittnk68.cnpm.type.Date</text>
<text text-anchor="start" x="75.25" y="-198.5" font-family="Helvetica,sans-Serif" font-size="10.00"> </text>
<text text-anchor="start" x="11.62" y="-182.5" font-family="Helvetica,sans-Serif" font-size="10.00">+</text>
<text text-anchor="start" x="29.25" y="-182.5" font-family="Helvetica,sans-Serif" font-size="10.00">Date()</text>
<text text-anchor="start" x="11.62" y="-166.5" font-family="Helvetica,sans-Serif" font-size="10.00">+</text>
<text text-anchor="start" x="29.25" y="-166.5" font-family="Helvetica,sans-Serif" font-size="10.00">getYear()</text>
<text text-anchor="start" x="11.62" y="-150.5" font-family="Helvetica,sans-Serif" font-size="10.00">+</text>
<text text-anchor="start" x="29.25" y="-150.5" font-family="Helvetica,sans-Serif" font-size="10.00">setYear()</text>
<text text-anchor="start" x="11.62" y="-134.5" font-family="Helvetica,sans-Serif" font-size="10.00">+</text>
<text text-anchor="start" x="29.25" y="-134.5" font-family="Helvetica,sans-Serif" font-size="10.00">getMonth()</text>
<text text-anchor="start" x="11.62" y="-118.5" font-family="Helvetica,sans-Serif" font-size="10.00">+</text>
<text text-anchor="start" x="29.25" y="-118.5" font-family="Helvetica,sans-Serif" font-size="10.00">setMonth()</text>
<text text-anchor="start" x="11.62" y="-102.5" font-family="Helvetica,sans-Serif" font-size="10.00">+</text>
<text text-anchor="start" x="29.25" y="-102.5" font-family="Helvetica,sans-Serif" font-size="10.00">getDay()</text>
<text text-anchor="start" x="11.62" y="-86.5" font-family="Helvetica,sans-Serif" font-size="10.00">+</text>
<text text-anchor="start" x="29.25" y="-86.5" font-family="Helvetica,sans-Serif" font-size="10.00">setDay()</text>
<text text-anchor="start" x="11.62" y="-70.5" font-family="Helvetica,sans-Serif" font-size="10.00">+</text>
<text text-anchor="start" x="29.25" y="-70.5" font-family="Helvetica,sans-Serif" font-size="10.00">convertToLocalDate()</text>
<text text-anchor="start" x="11.62" y="-54.5" font-family="Helvetica,sans-Serif" font-size="10.00">+</text>
<text text-anchor="start" x="29.25" y="-54.5" font-family="Helvetica,sans-Serif" font-size="10.00">plusDays()</text>
<text text-anchor="start" x="11.62" y="-38.5" font-family="Helvetica,sans-Serif" font-size="10.00">+</text>
<text text-anchor="start" x="29.25" y="-38.5" font-family="Helvetica,sans-Serif" font-size="10.00">toString()</text>
<text text-anchor="start" x="11.62" y="-22.5" font-family="Helvetica,sans-Serif" font-size="10.00">+</text>
<text text-anchor="start" x="29.25" y="-22.5" font-family="Helvetica,sans-Serif" font-size="10.00">cast()</text>
<text text-anchor="start" x="11.62" y="-6.5" font-family="Helvetica,sans-Serif" font-size="10.00">+</text>
<text text-anchor="start" x="29.25" y="-6.5" font-family="Helvetica,sans-Serif" font-size="10.00">convertFromLocalDate()</text>
<polygon fill="#666666" stroke="#666666" points="0,-210 0,-210 153.5,-210 153.5,-210 0,-210"/>
<polygon fill="#666666" stroke="#666666" points="0,-194 0,-194 153.5,-194 153.5,-194 0,-194"/>
<polygon fill="none" stroke="#666666" points="0,0 0,-228 153.5,-228 153.5,0 0,0"/>
</a>
</g>
</g>
<!-- Node2 -->
<g id="Node000002" class="node">
<title>Node2</title>
<g id="a_Node000002"><a xlink:title=" ">
<polygon fill="white" stroke="none" points="86,-352 67.5,-352 67.5,-300 86,-300 86,-352"/>
<text text-anchor="start" x="71.5" y="-338.5" font-family="Helvetica,sans-Serif" font-size="10.00">int</text>
<text text-anchor="start" x="75.25" y="-322.5" font-family="Helvetica,sans-Serif" font-size="10.00"> </text>
<text text-anchor="start" x="75.25" y="-306.5" font-family="Helvetica,sans-Serif" font-size="10.00"> </text>
<polygon fill="#666666" stroke="#666666" points="67.5,-334 67.5,-334 86,-334 86,-334 67.5,-334"/>
<polygon fill="#666666" stroke="#666666" points="67.5,-318 67.5,-318 86,-318 86,-318 67.5,-318"/>
<polygon fill="none" stroke="#666666" points="67.5,-300 67.5,-352 86,-352 86,-300 67.5,-300"/>
</a>
</g>
</g>
<!-- Node2&#45;&gt;Node1 -->
<g id="edge1_Node000001_Node000002" class="edge">
<title>Node2&#45;&gt;Node1</title>
<g id="a_edge1_Node000001_Node000002"><a xlink:title=" ">
<path fill="none" stroke="#63b8ff" d="M76.75,-300.09C76.75,-284.57 76.75,-263.32 76.75,-240.73"/>
<polygon fill="none" stroke="#63b8ff" points="76.75,-240.6 72.75,-234.6 76.75,-228.6 80.75,-234.6 76.75,-240.6"/>
</a>
</g>
<text text-anchor="middle" x="93.25" y="-272.5" font-family="Helvetica,sans-Serif" font-size="10.00" fill="grey"> ~day</text>
<text text-anchor="middle" x="93.25" y="-260.5" font-family="Helvetica,sans-Serif" font-size="10.00" fill="grey">~month</text>
<text text-anchor="middle" x="93.25" y="-248.5" font-family="Helvetica,sans-Serif" font-size="10.00" fill="grey">~year</text>
</g>
</g>
</svg>
