<?xml version="1.0" encoding="UTF-8" standalone="no"?>
<!DOCTYPE svg PUBLIC "-//W3C//DTD SVG 1.1//EN"
 "http://www.w3.org/Graphics/SVG/1.1/DTD/svg11.dtd">
<!-- Generated by graphviz version 12.2.1 (20241206.2353)
 -->
<!-- Title: com.hust.ittnk68.cnpm.communication.ServerDeleteObjectResponse Pages: 1 -->
<svg width="260pt" height="296pt"
 viewBox="0.00 0.00 259.50 296.00" xmlns="http://www.w3.org/2000/svg" xmlns:xlink="http://www.w3.org/1999/xlink">

<svg id="main" version="1.1" xmlns="http://www.w3.org/2000/svg" xmlns:xlink="http://www.w3.org/1999/xlink" xml:space="preserve">

<style type="text/css"><![CDATA[
.node, .edge {opacity: 0.7;}
.node.selected, .edge.selected {opacity: 1;}
.edge:hover path { stroke: red; }
.edge:hover polygon { stroke: red; fill: red; }
]]></style>
<script type="application/ecmascript" xlink:href="svg.min.js"/>
<svg id="graph" class="graph">
<g id="graph0" class="graph" transform="scale(1 1) rotate(0) translate(4 292)">
<title>com.hust.ittnk68.cnpm.communication.ServerDeleteObjectResponse</title>
<!-- Node1 -->
<g id="Node000001" class="node">
<title>Node1</title>
<g id="a_Node000001"><a xlink:title=" ">
<polygon fill="#999999" stroke="none" points="237.75,-112 58,-112 58,0 237.75,0 237.75,-112"/>
<text text-anchor="start" x="62" y="-98.5" font-family="Helvetica,sans-Serif" font-size="10.00">com.hust.ittnk68.cnpm.communication.</text>
<text text-anchor="start" x="83" y="-86.5" font-family="Helvetica,sans-Serif" font-size="10.00">ServerDeleteObjectResponse</text>
<text text-anchor="start" x="146.38" y="-70.5" font-family="Helvetica,sans-Serif" font-size="10.00"> </text>
<text text-anchor="start" x="68.5" y="-54.5" font-family="Helvetica,sans-Serif" font-size="10.00">+</text>
<text text-anchor="start" x="85" y="-54.5" font-family="Helvetica,sans-Serif" font-size="10.00">ServerDeleteObjectResponse()</text>
<text text-anchor="start" x="68.5" y="-38.5" font-family="Helvetica,sans-Serif" font-size="10.00">+</text>
<text text-anchor="start" x="85" y="-38.5" font-family="Helvetica,sans-Serif" font-size="10.00">ServerDeleteObjectResponse()</text>
<text text-anchor="start" x="68.5" y="-22.5" font-family="Helvetica,sans-Serif" font-size="10.00">+</text>
<text text-anchor="start" x="85" y="-22.5" font-family="Helvetica,sans-Serif" font-size="10.00">setAffectedRows()</text>
<text text-anchor="start" x="68.5" y="-6.5" font-family="Helvetica,sans-Serif" font-size="10.00">+</text>
<text text-anchor="start" x="85" y="-6.5" font-family="Helvetica,sans-Serif" font-size="10.00">getAffectedRows()</text>
<polygon fill="#666666" stroke="#666666" points="58,-82 58,-82 237.75,-82 237.75,-82 58,-82"/>
<polygon fill="#666666" stroke="#666666" points="58,-66 58,-66 237.75,-66 237.75,-66 58,-66"/>
<polygon fill="none" stroke="#666666" points="58,0 58,-112 237.75,-112 237.75,0 58,0"/>
</a>
</g>
</g>
<!-- Node2 -->
<g id="Node000002" class="node">
<title>Node2</title>
<g id="a_Node000002"><a xlink:href="classcom_1_1hust_1_1ittnk68_1_1cnpm_1_1communication_1_1ServerResponseBase.html" target="_top" xlink:title=" ">
<polygon fill="white" stroke="none" points="179.75,-288 0,-288 0,-160 179.75,-160 179.75,-288"/>
<text text-anchor="start" x="4" y="-274.5" font-family="Helvetica,sans-Serif" font-size="10.00">com.hust.ittnk68.cnpm.communication.</text>
<text text-anchor="start" x="42.25" y="-262.5" font-family="Helvetica,sans-Serif" font-size="10.00">ServerResponseBase</text>
<text text-anchor="start" x="88.38" y="-246.5" font-family="Helvetica,sans-Serif" font-size="10.00"> </text>
<text text-anchor="start" x="18.56" y="-230.5" font-family="Helvetica,sans-Serif" font-size="10.00">+</text>
<text text-anchor="start" x="43.12" y="-230.5" font-family="Helvetica,sans-Serif" font-size="10.00">ServerResponseBase()</text>
<text text-anchor="start" x="18.56" y="-214.5" font-family="Helvetica,sans-Serif" font-size="10.00">+</text>
<text text-anchor="start" x="43.12" y="-214.5" font-family="Helvetica,sans-Serif" font-size="10.00">getResponseStatus()</text>
<text text-anchor="start" x="18.56" y="-198.5" font-family="Helvetica,sans-Serif" font-size="10.00">+</text>
<text text-anchor="start" x="43.12" y="-198.5" font-family="Helvetica,sans-Serif" font-size="10.00">setResponseStatus()</text>
<text text-anchor="start" x="18.56" y="-182.5" font-family="Helvetica,sans-Serif" font-size="10.00">+</text>
<text text-anchor="start" x="43.12" y="-182.5" font-family="Helvetica,sans-Serif" font-size="10.00">getResponseMessage()</text>
<text text-anchor="start" x="18.56" y="-166.5" font-family="Helvetica,sans-Serif" font-size="10.00">+</text>
<text text-anchor="start" x="43.12" y="-166.5" font-family="Helvetica,sans-Serif" font-size="10.00">setResponseMessage()</text>
<polygon fill="#666666" stroke="#666666" points="0,-258 0,-258 179.75,-258 179.75,-258 0,-258"/>
<polygon fill="#666666" stroke="#666666" points="0,-242 0,-242 179.75,-242 179.75,-242 0,-242"/>
<polygon fill="none" stroke="#666666" points="0,-160 0,-288 179.75,-288 179.75,-160 0,-160"/>
</a>
</g>
</g>
<!-- Node2&#45;&gt;Node1 -->
<g id="edge1_Node000001_Node000002" class="edge">
<title>Node2&#45;&gt;Node1</title>
<g id="a_edge1_Node000001_Node000002"><a xlink:title=" ">
<path fill="none" stroke="#63b8ff" d="M115.49,-149.69C119.92,-137.02 124.45,-124.04 128.67,-111.96"/>
<polygon fill="none" stroke="#63b8ff" points="112.3,-148.22 112.3,-158.81 118.9,-150.53 112.3,-148.22"/>
</a>
</g>
</g>
<!-- Node3 -->
<g id="Node000003" class="node">
<title>Node3</title>
<g id="a_Node000003"><a xlink:title=" ">
<polygon fill="white" stroke="none" points="216.12,-250 197.62,-250 197.62,-198 216.12,-198 216.12,-250"/>
<text text-anchor="start" x="201.62" y="-236.5" font-family="Helvetica,sans-Serif" font-size="10.00">int</text>
<text text-anchor="start" x="205.38" y="-220.5" font-family="Helvetica,sans-Serif" font-size="10.00"> </text>
<text text-anchor="start" x="205.38" y="-204.5" font-family="Helvetica,sans-Serif" font-size="10.00"> </text>
<polygon fill="#666666" stroke="#666666" points="197.62,-232 197.62,-232 216.12,-232 216.12,-232 197.62,-232"/>
<polygon fill="#666666" stroke="#666666" points="197.62,-216 197.62,-216 216.12,-216 216.12,-216 197.62,-216"/>
<polygon fill="none" stroke="#666666" points="197.62,-198 197.62,-250 216.12,-250 216.12,-198 197.62,-198"/>
</a>
</g>
</g>
<!-- Node3&#45;&gt;Node1 -->
<g id="edge2_Node000001_Node000003" class="edge">
<title>Node3&#45;&gt;Node1</title>
<g id="a_edge2_Node000001_Node000003"><a xlink:title=" ">
<path fill="none" stroke="#63b8ff" d="M200.43,-198.29C197.23,-186.6 193.13,-172.49 188.88,-160 184.85,-148.18 180.23,-135.74 175.57,-123.75"/>
<polygon fill="none" stroke="#63b8ff" points="175.65,-123.95 169.73,-119.83 171.26,-112.78 177.18,-116.9 175.65,-123.95"/>
</a>
</g>
<text text-anchor="middle" x="216.63" y="-132.5" font-family="Helvetica,sans-Serif" font-size="10.00" fill="grey"> ~affectedRows</text>
</g>
</g>
</svg>
</svg>

<style type='text/css'>
<![CDATA[
[data-mouse-over-selected='false'] { opacity: 0.7; }
[data-mouse-over-selected='true']  { opacity: 1.0; }
]]>
</style>
<script type="application/ecmascript"><![CDATA[
document.addEventListener('DOMContentLoaded', (event) => {
  highlightEdges();
  highlightAdjacentNodes();
});
]]></script>
</svg>
