<?xml version="1.0" encoding="UTF-8" standalone="no"?>
<!DOCTYPE svg PUBLIC "-//W3C//DTD SVG 1.1//EN"
 "http://www.w3.org/Graphics/SVG/1.1/DTD/svg11.dtd">
<!-- Generated by graphviz version 12.2.1 (20241206.2353)
 -->
<!-- Title: com.hust.ittnk68.cnpm.communication.ClientMessageStartSession Pages: 1 -->
<svg width="276pt" height="292pt"
 viewBox="0.00 0.00 275.77 292.00" xmlns="http://www.w3.org/2000/svg" xmlns:xlink="http://www.w3.org/1999/xlink">
<g id="graph0" class="graph" transform="scale(1 1) rotate(0) translate(4 288)">
<title>com.hust.ittnk68.cnpm.communication.ClientMessageStartSession</title>
<!-- Node1 -->
<g id="Node000001" class="node">
<title>Node1</title>
<g id="a_Node000001"><a xlink:title=" ">
<polygon fill="#999999" stroke="none" points="241.75,-128 62,-128 62,0 241.75,0 241.75,-128"/>
<text text-anchor="start" x="66" y="-114.5" font-family="Helvetica,sans-Serif" font-size="10.00">com.hust.ittnk68.cnpm.communication.</text>
<text text-anchor="start" x="91.12" y="-102.5" font-family="Helvetica,sans-Serif" font-size="10.00">ClientMessageStartSession</text>
<text text-anchor="start" x="150.38" y="-86.5" font-family="Helvetica,sans-Serif" font-size="10.00"> </text>
<text text-anchor="start" x="74.56" y="-70.5" font-family="Helvetica,sans-Serif" font-size="10.00">+</text>
<text text-anchor="start" x="93.12" y="-70.5" font-family="Helvetica,sans-Serif" font-size="10.00">ClientMessageStartSession()</text>
<text text-anchor="start" x="74.56" y="-54.5" font-family="Helvetica,sans-Serif" font-size="10.00">+</text>
<text text-anchor="start" x="93.12" y="-54.5" font-family="Helvetica,sans-Serif" font-size="10.00">getUsername()</text>
<text text-anchor="start" x="74.56" y="-38.5" font-family="Helvetica,sans-Serif" font-size="10.00">+</text>
<text text-anchor="start" x="93.12" y="-38.5" font-family="Helvetica,sans-Serif" font-size="10.00">setUsername()</text>
<text text-anchor="start" x="74.56" y="-22.5" font-family="Helvetica,sans-Serif" font-size="10.00">+</text>
<text text-anchor="start" x="93.12" y="-22.5" font-family="Helvetica,sans-Serif" font-size="10.00">getDigestPassword()</text>
<text text-anchor="start" x="74.56" y="-6.5" font-family="Helvetica,sans-Serif" font-size="10.00">+</text>
<text text-anchor="start" x="93.12" y="-6.5" font-family="Helvetica,sans-Serif" font-size="10.00">setDigestPassword()</text>
<polygon fill="#666666" stroke="#666666" points="62,-98 62,-98 241.75,-98 241.75,-98 62,-98"/>
<polygon fill="#666666" stroke="#666666" points="62,-82 62,-82 241.75,-82 241.75,-82 62,-82"/>
<polygon fill="none" stroke="#666666" points="62,0 62,-128 241.75,-128 241.75,0 62,0"/>
</a>
</g>
</g>
<!-- Node2 -->
<g id="Node000002" class="node">
<title>Node2</title>
<g id="a_Node000002"><a xlink:href="classcom_1_1hust_1_1ittnk68_1_1cnpm_1_1communication_1_1ClientMessageBase.html" target="_top" xlink:title=" ">
<polygon fill="white" stroke="none" points="179.75,-284 0,-284 0,-188 179.75,-188 179.75,-284"/>
<text text-anchor="start" x="4" y="-270.5" font-family="Helvetica,sans-Serif" font-size="10.00">com.hust.ittnk68.cnpm.communication.</text>
<text text-anchor="start" x="46" y="-258.5" font-family="Helvetica,sans-Serif" font-size="10.00">ClientMessageBase</text>
<text text-anchor="start" x="88.38" y="-242.5" font-family="Helvetica,sans-Serif" font-size="10.00"> </text>
<text text-anchor="start" x="21" y="-226.5" font-family="Helvetica,sans-Serif" font-size="10.00">+</text>
<text text-anchor="start" x="48" y="-226.5" font-family="Helvetica,sans-Serif" font-size="10.00">getToken()</text>
<text text-anchor="start" x="21" y="-210.5" font-family="Helvetica,sans-Serif" font-size="10.00">+</text>
<text text-anchor="start" x="48" y="-210.5" font-family="Helvetica,sans-Serif" font-size="10.00">setToken()</text>
<text text-anchor="start" x="21" y="-194.5" font-family="Helvetica,sans-Serif" font-size="10.00">~</text>
<text text-anchor="start" x="48" y="-194.5" font-family="Helvetica,sans-Serif" font-size="10.00">ClientMessageBase()</text>
<polygon fill="#666666" stroke="#666666" points="0,-254 0,-254 179.75,-254 179.75,-254 0,-254"/>
<polygon fill="#666666" stroke="#666666" points="0,-238 0,-238 179.75,-238 179.75,-238 0,-238"/>
<polygon fill="none" stroke="#666666" points="0,-188 0,-284 179.75,-284 179.75,-188 0,-188"/>
</a>
</g>
</g>
<!-- Node2&#45;&gt;Node1 -->
<g id="edge1_Node000001_Node000002" class="edge">
<title>Node2&#45;&gt;Node1</title>
<g id="a_edge1_Node000001_Node000002"><a xlink:title=" ">
<path fill="none" stroke="#63b8ff" d="M110.9,-177.36C116.69,-161.47 123.01,-144.15 128.91,-127.98"/>
<polygon fill="none" stroke="#63b8ff" points="107.64,-176.08 107.5,-186.67 114.21,-178.48 107.64,-176.08"/>
</a>
</g>
</g>
<!-- Node3 -->
<g id="Node000003" class="node">
<title>Node3</title>
<g id="a_Node000003"><a xlink:title=" ">
<polygon fill="white" stroke="none" points="231.62,-262 198.12,-262 198.12,-210 231.62,-210 231.62,-262"/>
<text text-anchor="start" x="202.12" y="-248.5" font-family="Helvetica,sans-Serif" font-size="10.00">String</text>
<text text-anchor="start" x="213.38" y="-232.5" font-family="Helvetica,sans-Serif" font-size="10.00"> </text>
<text text-anchor="start" x="213.38" y="-216.5" font-family="Helvetica,sans-Serif" font-size="10.00"> </text>
<polygon fill="#666666" stroke="#666666" points="198.12,-244 198.12,-244 231.62,-244 231.62,-244 198.12,-244"/>
<polygon fill="#666666" stroke="#666666" points="198.12,-228 198.12,-228 231.62,-228 231.62,-228 198.12,-228"/>
<polygon fill="none" stroke="#666666" points="198.12,-210 198.12,-262 231.62,-262 231.62,-210 198.12,-210"/>
</a>
</g>
</g>
<!-- Node3&#45;&gt;Node1 -->
<g id="edge2_Node000001_Node000003" class="edge">
<title>Node3&#45;&gt;Node1</title>
<g id="a_edge2_Node000001_Node000003"><a xlink:title=" ">
<path fill="none" stroke="#63b8ff" d="M205.71,-210.28C198.82,-191.68 188.99,-165.14 179.6,-139.82"/>
<polygon fill="none" stroke="#63b8ff" points="179.68,-140.02 173.84,-135.78 175.51,-128.77 181.34,-133 179.68,-140.02"/>
</a>
</g>
<text text-anchor="middle" x="228.39" y="-160.5" font-family="Helvetica,sans-Serif" font-size="10.00" fill="grey"> ~digestPassword</text>
<text text-anchor="middle" x="228.39" y="-148.5" font-family="Helvetica,sans-Serif" font-size="10.00" fill="grey">~username</text>
</g>
</g>
</svg>
