<?xml version="1.0" encoding="UTF-8" standalone="no"?>
<!DOCTYPE svg PUBLIC "-//W3C//DTD SVG 1.1//EN"
 "http://www.w3.org/Graphics/SVG/1.1/DTD/svg11.dtd">
<!-- Generated by graphviz version 12.2.1 (20241206.2353)
 -->
<!-- Title: com.hust.ittnk68.cnpm.database.GetSQLProperties Pages: 1 -->
<svg width="938pt" height="708pt"
 viewBox="0.00 0.00 938.00 708.00" xmlns="http://www.w3.org/2000/svg" xmlns:xlink="http://www.w3.org/1999/xlink">
<g id="graph0" class="graph" transform="scale(1 1) rotate(0) translate(4 704)">
<title>com.hust.ittnk68.cnpm.database.GetSQLProperties</title>
<!-- Node1 -->
<g id="Node000001" class="node">
<title>Node1</title>
<g id="a_Node000001"><a xlink:title=" ">
<polygon fill="#999999" stroke="none" points="556.88,-700 373.12,-700 373.12,-524 556.88,-524 556.88,-700"/>
<text text-anchor="start" x="392.25" y="-686.5" font-family="Helvetica,sans-Serif" font-size="10.00">com.hust.ittnk68.cnpm.database.</text>
<text text-anchor="start" x="425.25" y="-674.5" font-family="Helvetica,sans-Serif" font-size="10.00">GetSQLProperties</text>
<text text-anchor="start" x="463.5" y="-658.5" font-family="Helvetica,sans-Serif" font-size="10.00"> </text>
<text text-anchor="start" x="377.12" y="-642.5" font-family="Helvetica,sans-Serif" font-size="10.00">+</text>
<text text-anchor="start" x="387.12" y="-642.5" font-family="Helvetica,sans-Serif" font-size="10.00">getId()</text>
<text text-anchor="start" x="377.12" y="-626.5" font-family="Helvetica,sans-Serif" font-size="10.00">+</text>
<text text-anchor="start" x="387.12" y="-626.5" font-family="Helvetica,sans-Serif" font-size="10.00">setId()</text>
<text text-anchor="start" x="377.12" y="-610.5" font-family="Helvetica,sans-Serif" font-size="10.00">+</text>
<text text-anchor="start" x="387.12" y="-610.5" font-family="Helvetica,sans-Serif" font-size="10.00">getSQLTableName()</text>
<text text-anchor="start" x="377.12" y="-594.5" font-family="Helvetica,sans-Serif" font-size="10.00">+</text>
<text text-anchor="start" x="387.12" y="-594.5" font-family="Helvetica,sans-Serif" font-size="10.00">getSQLInsertCommand()</text>
<text text-anchor="start" x="377.12" y="-578.5" font-family="Helvetica,sans-Serif" font-size="10.00">+</text>
<text text-anchor="start" x="387.12" y="-578.5" font-family="Helvetica,sans-Serif" font-size="10.00">getSQLUpdateCommand()</text>
<text text-anchor="start" x="377.12" y="-562.5" font-family="Helvetica,sans-Serif" font-size="10.00">+</text>
<text text-anchor="start" x="387.12" y="-562.5" font-family="Helvetica,sans-Serif" font-size="10.00">getSQLFindByConditionCommand()</text>
<text text-anchor="start" x="377.12" y="-546.5" font-family="Helvetica,sans-Serif" font-size="10.00">+</text>
<text text-anchor="start" x="387.12" y="-546.5" font-family="Helvetica,sans-Serif" font-size="10.00">getSQLDeleteByConditionCommand()</text>
<text text-anchor="start" x="377.12" y="-530.5" font-family="Helvetica,sans-Serif" font-size="10.00">+</text>
<text text-anchor="start" x="387.12" y="-530.5" font-family="Helvetica,sans-Serif" font-size="10.00">getSQLSingleUpdate()</text>
<polygon fill="#666666" stroke="#666666" points="373.12,-670 373.12,-670 556.88,-670 556.88,-670 373.12,-670"/>
<polygon fill="#666666" stroke="#666666" points="373.12,-654 373.12,-654 556.88,-654 556.88,-654 373.12,-654"/>
<polygon fill="none" stroke="#666666" points="373.12,-524 373.12,-700 556.88,-700 556.88,-524 373.12,-524"/>
</a>
</g>
</g>
<!-- Node2 -->
<g id="Node000002" class="node">
<title>Node2</title>
<g id="a_Node000002"><a xlink:href="classcom_1_1hust_1_1ittnk68_1_1cnpm_1_1model_1_1Account.html" target="_top" xlink:title=" ">
<polygon fill="white" stroke="none" points="140,-420 0,-420 0,-68 140,-68 140,-420"/>
<text text-anchor="start" x="4" y="-406.5" font-family="Helvetica,sans-Serif" font-size="10.00">com.hust.ittnk68.cnpm.model.</text>
<text text-anchor="start" x="52" y="-394.5" font-family="Helvetica,sans-Serif" font-size="10.00">Account</text>
<text text-anchor="start" x="68.5" y="-378.5" font-family="Helvetica,sans-Serif" font-size="10.00"> </text>
<text text-anchor="start" x="5.62" y="-362.5" font-family="Helvetica,sans-Serif" font-size="10.00">+</text>
<text text-anchor="start" x="17.25" y="-362.5" font-family="Helvetica,sans-Serif" font-size="10.00">Account()</text>
<text text-anchor="start" x="5.62" y="-346.5" font-family="Helvetica,sans-Serif" font-size="10.00">+</text>
<text text-anchor="start" x="17.25" y="-346.5" font-family="Helvetica,sans-Serif" font-size="10.00">Account()</text>
<text text-anchor="start" x="5.62" y="-330.5" font-family="Helvetica,sans-Serif" font-size="10.00">+</text>
<text text-anchor="start" x="17.25" y="-330.5" font-family="Helvetica,sans-Serif" font-size="10.00">Account()</text>
<text text-anchor="start" x="5.62" y="-314.5" font-family="Helvetica,sans-Serif" font-size="10.00">+</text>
<text text-anchor="start" x="17.25" y="-314.5" font-family="Helvetica,sans-Serif" font-size="10.00">setAccountId()</text>
<text text-anchor="start" x="5.62" y="-298.5" font-family="Helvetica,sans-Serif" font-size="10.00">+</text>
<text text-anchor="start" x="17.25" y="-298.5" font-family="Helvetica,sans-Serif" font-size="10.00">getAccountId()</text>
<text text-anchor="start" x="5.62" y="-282.5" font-family="Helvetica,sans-Serif" font-size="10.00">+</text>
<text text-anchor="start" x="17.25" y="-282.5" font-family="Helvetica,sans-Serif" font-size="10.00">setFamilyId()</text>
<text text-anchor="start" x="5.62" y="-266.5" font-family="Helvetica,sans-Serif" font-size="10.00">+</text>
<text text-anchor="start" x="17.25" y="-266.5" font-family="Helvetica,sans-Serif" font-size="10.00">getFamilyId()</text>
<text text-anchor="start" x="5.62" y="-250.5" font-family="Helvetica,sans-Serif" font-size="10.00">+</text>
<text text-anchor="start" x="17.25" y="-250.5" font-family="Helvetica,sans-Serif" font-size="10.00">setUsername()</text>
<text text-anchor="start" x="5.62" y="-234.5" font-family="Helvetica,sans-Serif" font-size="10.00">+</text>
<text text-anchor="start" x="17.25" y="-234.5" font-family="Helvetica,sans-Serif" font-size="10.00">getUsername()</text>
<text text-anchor="start" x="5.62" y="-218.5" font-family="Helvetica,sans-Serif" font-size="10.00">+</text>
<text text-anchor="start" x="17.25" y="-218.5" font-family="Helvetica,sans-Serif" font-size="10.00">setDigestPassword()</text>
<text text-anchor="start" x="5.62" y="-202.5" font-family="Helvetica,sans-Serif" font-size="10.00">+</text>
<text text-anchor="start" x="17.25" y="-202.5" font-family="Helvetica,sans-Serif" font-size="10.00">getDigestPassword()</text>
<text text-anchor="start" x="5.62" y="-186.5" font-family="Helvetica,sans-Serif" font-size="10.00">+</text>
<text text-anchor="start" x="17.25" y="-186.5" font-family="Helvetica,sans-Serif" font-size="10.00">setAccountType()</text>
<text text-anchor="start" x="5.62" y="-170.5" font-family="Helvetica,sans-Serif" font-size="10.00">+</text>
<text text-anchor="start" x="17.25" y="-170.5" font-family="Helvetica,sans-Serif" font-size="10.00">getAccountType()</text>
<text text-anchor="start" x="5.62" y="-154.5" font-family="Helvetica,sans-Serif" font-size="10.00">+</text>
<text text-anchor="start" x="17.25" y="-154.5" font-family="Helvetica,sans-Serif" font-size="10.00">getId()</text>
<text text-anchor="start" x="5.62" y="-138.5" font-family="Helvetica,sans-Serif" font-size="10.00">+</text>
<text text-anchor="start" x="17.25" y="-138.5" font-family="Helvetica,sans-Serif" font-size="10.00">setId()</text>
<text text-anchor="start" x="5.62" y="-122.5" font-family="Helvetica,sans-Serif" font-size="10.00">+</text>
<text text-anchor="start" x="17.25" y="-122.5" font-family="Helvetica,sans-Serif" font-size="10.00">getSQLTableName()</text>
<text text-anchor="start" x="5.62" y="-106.5" font-family="Helvetica,sans-Serif" font-size="10.00">+</text>
<text text-anchor="start" x="17.25" y="-106.5" font-family="Helvetica,sans-Serif" font-size="10.00">getSQLInsertCommand()</text>
<text text-anchor="start" x="5.62" y="-90.5" font-family="Helvetica,sans-Serif" font-size="10.00">+</text>
<text text-anchor="start" x="17.25" y="-90.5" font-family="Helvetica,sans-Serif" font-size="10.00">getSQLUpdateCommand()</text>
<text text-anchor="start" x="5.62" y="-74.5" font-family="Helvetica,sans-Serif" font-size="10.00">+</text>
<text text-anchor="start" x="17.25" y="-74.5" font-family="Helvetica,sans-Serif" font-size="10.00">convertFromMap()</text>
<polygon fill="#666666" stroke="#666666" points="0,-390 0,-390 140,-390 140,-390 0,-390"/>
<polygon fill="#666666" stroke="#666666" points="0,-374 0,-374 140,-374 140,-374 0,-374"/>
<polygon fill="none" stroke="#666666" points="0,-68 0,-420 140,-420 140,-68 0,-68"/>
</a>
</g>
</g>
<!-- Node1&#45;&gt;Node2 -->
<g id="edge1_Node000001_Node000002" class="edge">
<title>Node1&#45;&gt;Node2</title>
<g id="a_edge1_Node000001_Node000002"><a xlink:title=" ">
<path fill="none" stroke="#63b8ff" d="M362.27,-594.62C293.3,-578.56 205.12,-547.41 149,-488 130.65,-468.57 116.56,-444.83 105.74,-419.88"/>
<polygon fill="none" stroke="#63b8ff" points="361.16,-597.96 371.69,-596.74 362.7,-591.13 361.16,-597.96"/>
</a>
</g>
</g>
<!-- Node3 -->
<g id="Node000003" class="node">
<title>Node3</title>
<g id="a_Node000003"><a xlink:href="classcom_1_1hust_1_1ittnk68_1_1cnpm_1_1model_1_1Expense.html" target="_top" xlink:title=" ">
<polygon fill="white" stroke="none" points="298,-388 158,-388 158,-100 298,-100 298,-388"/>
<text text-anchor="start" x="162" y="-374.5" font-family="Helvetica,sans-Serif" font-size="10.00">com.hust.ittnk68.cnpm.model.</text>
<text text-anchor="start" x="208.88" y="-362.5" font-family="Helvetica,sans-Serif" font-size="10.00">Expense</text>
<text text-anchor="start" x="226.5" y="-346.5" font-family="Helvetica,sans-Serif" font-size="10.00"> </text>
<text text-anchor="start" x="163.62" y="-330.5" font-family="Helvetica,sans-Serif" font-size="10.00">+</text>
<text text-anchor="start" x="175.25" y="-330.5" font-family="Helvetica,sans-Serif" font-size="10.00">Expense()</text>
<text text-anchor="start" x="163.62" y="-314.5" font-family="Helvetica,sans-Serif" font-size="10.00">+</text>
<text text-anchor="start" x="175.25" y="-314.5" font-family="Helvetica,sans-Serif" font-size="10.00">Expense()</text>
<text text-anchor="start" x="163.62" y="-298.5" font-family="Helvetica,sans-Serif" font-size="10.00">+</text>
<text text-anchor="start" x="175.25" y="-298.5" font-family="Helvetica,sans-Serif" font-size="10.00">getExpenseId()</text>
<text text-anchor="start" x="163.62" y="-282.5" font-family="Helvetica,sans-Serif" font-size="10.00">+</text>
<text text-anchor="start" x="175.25" y="-282.5" font-family="Helvetica,sans-Serif" font-size="10.00">getExpenseTitle()</text>
<text text-anchor="start" x="163.62" y="-266.5" font-family="Helvetica,sans-Serif" font-size="10.00">+</text>
<text text-anchor="start" x="175.25" y="-266.5" font-family="Helvetica,sans-Serif" font-size="10.00">getExpenseDescription()</text>
<text text-anchor="start" x="163.62" y="-250.5" font-family="Helvetica,sans-Serif" font-size="10.00">+</text>
<text text-anchor="start" x="175.25" y="-250.5" font-family="Helvetica,sans-Serif" font-size="10.00">getPublishedDate()</text>
<text text-anchor="start" x="163.62" y="-234.5" font-family="Helvetica,sans-Serif" font-size="10.00">+</text>
<text text-anchor="start" x="175.25" y="-234.5" font-family="Helvetica,sans-Serif" font-size="10.00">getTotalCost()</text>
<text text-anchor="start" x="163.62" y="-218.5" font-family="Helvetica,sans-Serif" font-size="10.00">+</text>
<text text-anchor="start" x="175.25" y="-218.5" font-family="Helvetica,sans-Serif" font-size="10.00">getExpenseType()</text>
<text text-anchor="start" x="163.62" y="-202.5" font-family="Helvetica,sans-Serif" font-size="10.00">+</text>
<text text-anchor="start" x="175.25" y="-202.5" font-family="Helvetica,sans-Serif" font-size="10.00">getRequired()</text>
<text text-anchor="start" x="163.62" y="-186.5" font-family="Helvetica,sans-Serif" font-size="10.00">+</text>
<text text-anchor="start" x="175.25" y="-186.5" font-family="Helvetica,sans-Serif" font-size="10.00">getId()</text>
<text text-anchor="start" x="163.62" y="-170.5" font-family="Helvetica,sans-Serif" font-size="10.00">+</text>
<text text-anchor="start" x="175.25" y="-170.5" font-family="Helvetica,sans-Serif" font-size="10.00">setId()</text>
<text text-anchor="start" x="163.62" y="-154.5" font-family="Helvetica,sans-Serif" font-size="10.00">+</text>
<text text-anchor="start" x="175.25" y="-154.5" font-family="Helvetica,sans-Serif" font-size="10.00">getSQLTableName()</text>
<text text-anchor="start" x="163.62" y="-138.5" font-family="Helvetica,sans-Serif" font-size="10.00">+</text>
<text text-anchor="start" x="175.25" y="-138.5" font-family="Helvetica,sans-Serif" font-size="10.00">getSQLInsertCommand()</text>
<text text-anchor="start" x="163.62" y="-122.5" font-family="Helvetica,sans-Serif" font-size="10.00">+</text>
<text text-anchor="start" x="175.25" y="-122.5" font-family="Helvetica,sans-Serif" font-size="10.00">getSQLUpdateCommand()</text>
<text text-anchor="start" x="163.62" y="-106.5" font-family="Helvetica,sans-Serif" font-size="10.00">+</text>
<text text-anchor="start" x="175.25" y="-106.5" font-family="Helvetica,sans-Serif" font-size="10.00">convertFromMap()</text>
<polygon fill="#666666" stroke="#666666" points="158,-358 158,-358 298,-358 298,-358 158,-358"/>
<polygon fill="#666666" stroke="#666666" points="158,-342 158,-342 298,-342 298,-342 158,-342"/>
<polygon fill="none" stroke="#666666" points="158,-100 158,-388 298,-388 298,-100 158,-100"/>
</a>
</g>
</g>
<!-- Node1&#45;&gt;Node3 -->
<g id="edge2_Node000001_Node000003" class="edge">
<title>Node1&#45;&gt;Node3</title>
<g id="a_edge2_Node000001_Node000003"><a xlink:title=" ">
<path fill="none" stroke="#63b8ff" d="M364.48,-547.35C343.21,-530.17 322.53,-510.13 307,-488 286.11,-458.22 270.49,-422.59 258.92,-387.91"/>
<polygon fill="none" stroke="#63b8ff" points="362.07,-549.91 372.1,-553.34 366.4,-544.41 362.07,-549.91"/>
</a>
</g>
</g>
<!-- Node4 -->
<g id="Node000004" class="node">
<title>Node4</title>
<g id="a_Node000004"><a xlink:href="classcom_1_1hust_1_1ittnk68_1_1cnpm_1_1model_1_1Family.html" target="_top" xlink:title=" ">
<polygon fill="white" stroke="none" points="456,-380 316,-380 316,-108 456,-108 456,-380"/>
<text text-anchor="start" x="320" y="-366.5" font-family="Helvetica,sans-Serif" font-size="10.00">com.hust.ittnk68.cnpm.model.</text>
<text text-anchor="start" x="371.38" y="-354.5" font-family="Helvetica,sans-Serif" font-size="10.00">Family</text>
<text text-anchor="start" x="384.5" y="-338.5" font-family="Helvetica,sans-Serif" font-size="10.00"> </text>
<text text-anchor="start" x="321.62" y="-322.5" font-family="Helvetica,sans-Serif" font-size="10.00">+</text>
<text text-anchor="start" x="333.25" y="-322.5" font-family="Helvetica,sans-Serif" font-size="10.00">Family()</text>
<text text-anchor="start" x="321.62" y="-306.5" font-family="Helvetica,sans-Serif" font-size="10.00">+</text>
<text text-anchor="start" x="333.25" y="-306.5" font-family="Helvetica,sans-Serif" font-size="10.00">Family()</text>
<text text-anchor="start" x="321.62" y="-290.5" font-family="Helvetica,sans-Serif" font-size="10.00">+</text>
<text text-anchor="start" x="333.25" y="-290.5" font-family="Helvetica,sans-Serif" font-size="10.00">getFamilyId()</text>
<text text-anchor="start" x="321.62" y="-274.5" font-family="Helvetica,sans-Serif" font-size="10.00">+</text>
<text text-anchor="start" x="333.25" y="-274.5" font-family="Helvetica,sans-Serif" font-size="10.00">setFamilyId()</text>
<text text-anchor="start" x="321.62" y="-258.5" font-family="Helvetica,sans-Serif" font-size="10.00">+</text>
<text text-anchor="start" x="333.25" y="-258.5" font-family="Helvetica,sans-Serif" font-size="10.00">getPersonId()</text>
<text text-anchor="start" x="321.62" y="-242.5" font-family="Helvetica,sans-Serif" font-size="10.00">+</text>
<text text-anchor="start" x="333.25" y="-242.5" font-family="Helvetica,sans-Serif" font-size="10.00">setPersonId()</text>
<text text-anchor="start" x="321.62" y="-226.5" font-family="Helvetica,sans-Serif" font-size="10.00">+</text>
<text text-anchor="start" x="333.25" y="-226.5" font-family="Helvetica,sans-Serif" font-size="10.00">getHouseNumber()</text>
<text text-anchor="start" x="321.62" y="-210.5" font-family="Helvetica,sans-Serif" font-size="10.00">+</text>
<text text-anchor="start" x="333.25" y="-210.5" font-family="Helvetica,sans-Serif" font-size="10.00">setHouseNumber()</text>
<text text-anchor="start" x="321.62" y="-194.5" font-family="Helvetica,sans-Serif" font-size="10.00">+</text>
<text text-anchor="start" x="333.25" y="-194.5" font-family="Helvetica,sans-Serif" font-size="10.00">getId()</text>
<text text-anchor="start" x="321.62" y="-178.5" font-family="Helvetica,sans-Serif" font-size="10.00">+</text>
<text text-anchor="start" x="333.25" y="-178.5" font-family="Helvetica,sans-Serif" font-size="10.00">setId()</text>
<text text-anchor="start" x="321.62" y="-162.5" font-family="Helvetica,sans-Serif" font-size="10.00">+</text>
<text text-anchor="start" x="333.25" y="-162.5" font-family="Helvetica,sans-Serif" font-size="10.00">getSQLTableName()</text>
<text text-anchor="start" x="321.62" y="-146.5" font-family="Helvetica,sans-Serif" font-size="10.00">+</text>
<text text-anchor="start" x="333.25" y="-146.5" font-family="Helvetica,sans-Serif" font-size="10.00">getSQLInsertCommand()</text>
<text text-anchor="start" x="321.62" y="-130.5" font-family="Helvetica,sans-Serif" font-size="10.00">+</text>
<text text-anchor="start" x="333.25" y="-130.5" font-family="Helvetica,sans-Serif" font-size="10.00">getSQLUpdateCommand()</text>
<text text-anchor="start" x="321.62" y="-114.5" font-family="Helvetica,sans-Serif" font-size="10.00">+</text>
<text text-anchor="start" x="333.25" y="-114.5" font-family="Helvetica,sans-Serif" font-size="10.00">convertFromMap()</text>
<polygon fill="#666666" stroke="#666666" points="316,-350 316,-350 456,-350 456,-350 316,-350"/>
<polygon fill="#666666" stroke="#666666" points="316,-334 316,-334 456,-334 456,-334 316,-334"/>
<polygon fill="none" stroke="#666666" points="316,-108 316,-380 456,-380 456,-108 316,-108"/>
</a>
</g>
</g>
<!-- Node1&#45;&gt;Node4 -->
<g id="edge3_Node000001_Node000004" class="edge">
<title>Node1&#45;&gt;Node4</title>
<g id="a_edge3_Node000001_Node000004"><a xlink:title=" ">
<path fill="none" stroke="#63b8ff" d="M443.89,-513.2C435.05,-472.26 424.63,-423.99 415.09,-379.77"/>
<polygon fill="none" stroke="#63b8ff" points="440.43,-513.75 445.96,-522.78 447.27,-512.27 440.43,-513.75"/>
</a>
</g>
</g>
<!-- Node5 -->
<g id="Node000005" class="node">
<title>Node5</title>
<g id="a_Node000005"><a xlink:href="classcom_1_1hust_1_1ittnk68_1_1cnpm_1_1model_1_1PaymentStatus.html" target="_top" xlink:title=" ">
<polygon fill="white" stroke="none" points="614,-412 474,-412 474,-76 614,-76 614,-412"/>
<text text-anchor="start" x="478" y="-398.5" font-family="Helvetica,sans-Serif" font-size="10.00">com.hust.ittnk68.cnpm.model.</text>
<text text-anchor="start" x="510.25" y="-386.5" font-family="Helvetica,sans-Serif" font-size="10.00">PaymentStatus</text>
<text text-anchor="start" x="542.5" y="-370.5" font-family="Helvetica,sans-Serif" font-size="10.00"> </text>
<text text-anchor="start" x="479.62" y="-354.5" font-family="Helvetica,sans-Serif" font-size="10.00">+</text>
<text text-anchor="start" x="491.25" y="-354.5" font-family="Helvetica,sans-Serif" font-size="10.00">PaymentStatus()</text>
<text text-anchor="start" x="479.62" y="-338.5" font-family="Helvetica,sans-Serif" font-size="10.00">+</text>
<text text-anchor="start" x="491.25" y="-338.5" font-family="Helvetica,sans-Serif" font-size="10.00">PaymentStatus()</text>
<text text-anchor="start" x="479.62" y="-322.5" font-family="Helvetica,sans-Serif" font-size="10.00">+</text>
<text text-anchor="start" x="491.25" y="-322.5" font-family="Helvetica,sans-Serif" font-size="10.00">getId()</text>
<text text-anchor="start" x="479.62" y="-306.5" font-family="Helvetica,sans-Serif" font-size="10.00">+</text>
<text text-anchor="start" x="491.25" y="-306.5" font-family="Helvetica,sans-Serif" font-size="10.00">setId()</text>
<text text-anchor="start" x="479.62" y="-290.5" font-family="Helvetica,sans-Serif" font-size="10.00">+</text>
<text text-anchor="start" x="491.25" y="-290.5" font-family="Helvetica,sans-Serif" font-size="10.00">getSQLTableName()</text>
<text text-anchor="start" x="479.62" y="-274.5" font-family="Helvetica,sans-Serif" font-size="10.00">+</text>
<text text-anchor="start" x="491.25" y="-274.5" font-family="Helvetica,sans-Serif" font-size="10.00">getSQLInsertCommand()</text>
<text text-anchor="start" x="479.62" y="-258.5" font-family="Helvetica,sans-Serif" font-size="10.00">+</text>
<text text-anchor="start" x="491.25" y="-258.5" font-family="Helvetica,sans-Serif" font-size="10.00">getSQLUpdateCommand()</text>
<text text-anchor="start" x="479.62" y="-242.5" font-family="Helvetica,sans-Serif" font-size="10.00">+</text>
<text text-anchor="start" x="491.25" y="-242.5" font-family="Helvetica,sans-Serif" font-size="10.00">getPaymentStatusId()</text>
<text text-anchor="start" x="479.62" y="-226.5" font-family="Helvetica,sans-Serif" font-size="10.00">+</text>
<text text-anchor="start" x="491.25" y="-226.5" font-family="Helvetica,sans-Serif" font-size="10.00">setPaymentStatusId()</text>
<text text-anchor="start" x="479.62" y="-210.5" font-family="Helvetica,sans-Serif" font-size="10.00">+</text>
<text text-anchor="start" x="491.25" y="-210.5" font-family="Helvetica,sans-Serif" font-size="10.00">getExpenseId()</text>
<text text-anchor="start" x="479.62" y="-194.5" font-family="Helvetica,sans-Serif" font-size="10.00">+</text>
<text text-anchor="start" x="491.25" y="-194.5" font-family="Helvetica,sans-Serif" font-size="10.00">setExpenseId()</text>
<text text-anchor="start" x="479.62" y="-178.5" font-family="Helvetica,sans-Serif" font-size="10.00">+</text>
<text text-anchor="start" x="491.25" y="-178.5" font-family="Helvetica,sans-Serif" font-size="10.00">getFamilyId()</text>
<text text-anchor="start" x="479.62" y="-162.5" font-family="Helvetica,sans-Serif" font-size="10.00">+</text>
<text text-anchor="start" x="491.25" y="-162.5" font-family="Helvetica,sans-Serif" font-size="10.00">setFamilyId()</text>
<text text-anchor="start" x="479.62" y="-146.5" font-family="Helvetica,sans-Serif" font-size="10.00">+</text>
<text text-anchor="start" x="491.25" y="-146.5" font-family="Helvetica,sans-Serif" font-size="10.00">getTotalPay()</text>
<text text-anchor="start" x="479.62" y="-130.5" font-family="Helvetica,sans-Serif" font-size="10.00">+</text>
<text text-anchor="start" x="491.25" y="-130.5" font-family="Helvetica,sans-Serif" font-size="10.00">setTotalPay()</text>
<text text-anchor="start" x="479.62" y="-114.5" font-family="Helvetica,sans-Serif" font-size="10.00">+</text>
<text text-anchor="start" x="491.25" y="-114.5" font-family="Helvetica,sans-Serif" font-size="10.00">getPublishedDate()</text>
<text text-anchor="start" x="479.62" y="-98.5" font-family="Helvetica,sans-Serif" font-size="10.00">+</text>
<text text-anchor="start" x="491.25" y="-98.5" font-family="Helvetica,sans-Serif" font-size="10.00">setPublishedDate()</text>
<text text-anchor="start" x="479.62" y="-82.5" font-family="Helvetica,sans-Serif" font-size="10.00">+</text>
<text text-anchor="start" x="491.25" y="-82.5" font-family="Helvetica,sans-Serif" font-size="10.00">convertFromMap()</text>
<polygon fill="#666666" stroke="#666666" points="474,-382 474,-382 614,-382 614,-382 474,-382"/>
<polygon fill="#666666" stroke="#666666" points="474,-366 474,-366 614,-366 614,-366 474,-366"/>
<polygon fill="none" stroke="#666666" points="474,-76 474,-412 614,-412 614,-76 474,-76"/>
</a>
</g>
</g>
<!-- Node1&#45;&gt;Node5 -->
<g id="edge4_Node000001_Node000005" class="edge">
<title>Node1&#45;&gt;Node5</title>
<g id="a_edge4_Node000001_Node000005"><a xlink:title=" ">
<path fill="none" stroke="#63b8ff" d="M486.07,-513.4C492.81,-482.16 500.48,-446.64 507.98,-411.9"/>
<polygon fill="none" stroke="#63b8ff" points="482.73,-512.27 484.04,-522.78 489.57,-513.75 482.73,-512.27"/>
</a>
</g>
</g>
<!-- Node6 -->
<g id="Node000006" class="node">
<title>Node6</title>
<g id="a_Node000006"><a xlink:href="classcom_1_1hust_1_1ittnk68_1_1cnpm_1_1model_1_1Person.html" target="_top" xlink:title=" ">
<polygon fill="white" stroke="none" points="772,-488 632,-488 632,0 772,0 772,-488"/>
<text text-anchor="start" x="636" y="-474.5" font-family="Helvetica,sans-Serif" font-size="10.00">com.hust.ittnk68.cnpm.model.</text>
<text text-anchor="start" x="686.62" y="-462.5" font-family="Helvetica,sans-Serif" font-size="10.00">Person</text>
<text text-anchor="start" x="700.5" y="-446.5" font-family="Helvetica,sans-Serif" font-size="10.00"> </text>
<text text-anchor="start" x="637.62" y="-430.5" font-family="Helvetica,sans-Serif" font-size="10.00">+</text>
<text text-anchor="start" x="649.25" y="-430.5" font-family="Helvetica,sans-Serif" font-size="10.00">Person()</text>
<text text-anchor="start" x="637.62" y="-414.5" font-family="Helvetica,sans-Serif" font-size="10.00">+</text>
<text text-anchor="start" x="649.25" y="-414.5" font-family="Helvetica,sans-Serif" font-size="10.00">Person()</text>
<text text-anchor="start" x="637.62" y="-398.5" font-family="Helvetica,sans-Serif" font-size="10.00">+</text>
<text text-anchor="start" x="649.25" y="-398.5" font-family="Helvetica,sans-Serif" font-size="10.00">getPersonId()</text>
<text text-anchor="start" x="637.62" y="-382.5" font-family="Helvetica,sans-Serif" font-size="10.00">+</text>
<text text-anchor="start" x="649.25" y="-382.5" font-family="Helvetica,sans-Serif" font-size="10.00">setPersonId()</text>
<text text-anchor="start" x="637.62" y="-366.5" font-family="Helvetica,sans-Serif" font-size="10.00">+</text>
<text text-anchor="start" x="649.25" y="-366.5" font-family="Helvetica,sans-Serif" font-size="10.00">getFamilyId()</text>
<text text-anchor="start" x="637.62" y="-350.5" font-family="Helvetica,sans-Serif" font-size="10.00">+</text>
<text text-anchor="start" x="649.25" y="-350.5" font-family="Helvetica,sans-Serif" font-size="10.00">setFamilyId()</text>
<text text-anchor="start" x="637.62" y="-334.5" font-family="Helvetica,sans-Serif" font-size="10.00">+</text>
<text text-anchor="start" x="649.25" y="-334.5" font-family="Helvetica,sans-Serif" font-size="10.00">getFullname()</text>
<text text-anchor="start" x="637.62" y="-318.5" font-family="Helvetica,sans-Serif" font-size="10.00">+</text>
<text text-anchor="start" x="649.25" y="-318.5" font-family="Helvetica,sans-Serif" font-size="10.00">setFullname()</text>
<text text-anchor="start" x="637.62" y="-302.5" font-family="Helvetica,sans-Serif" font-size="10.00">+</text>
<text text-anchor="start" x="649.25" y="-302.5" font-family="Helvetica,sans-Serif" font-size="10.00">getDateOfBirth()</text>
<text text-anchor="start" x="637.62" y="-286.5" font-family="Helvetica,sans-Serif" font-size="10.00">+</text>
<text text-anchor="start" x="649.25" y="-286.5" font-family="Helvetica,sans-Serif" font-size="10.00">setDateOfBirth()</text>
<text text-anchor="start" x="637.62" y="-270.5" font-family="Helvetica,sans-Serif" font-size="10.00">+</text>
<text text-anchor="start" x="649.25" y="-270.5" font-family="Helvetica,sans-Serif" font-size="10.00">getCitizenIdentification</text>
<text text-anchor="start" x="649.25" y="-258.5" font-family="Helvetica,sans-Serif" font-size="10.00">Number()</text>
<text text-anchor="start" x="637.62" y="-242.5" font-family="Helvetica,sans-Serif" font-size="10.00">+</text>
<text text-anchor="start" x="649.25" y="-242.5" font-family="Helvetica,sans-Serif" font-size="10.00">setCitizenIdentification</text>
<text text-anchor="start" x="649.25" y="-230.5" font-family="Helvetica,sans-Serif" font-size="10.00">Number()</text>
<text text-anchor="start" x="637.62" y="-214.5" font-family="Helvetica,sans-Serif" font-size="10.00">+</text>
<text text-anchor="start" x="649.25" y="-214.5" font-family="Helvetica,sans-Serif" font-size="10.00">getPhoneNumber()</text>
<text text-anchor="start" x="637.62" y="-198.5" font-family="Helvetica,sans-Serif" font-size="10.00">+</text>
<text text-anchor="start" x="649.25" y="-198.5" font-family="Helvetica,sans-Serif" font-size="10.00">setPhoneNumber()</text>
<text text-anchor="start" x="637.62" y="-182.5" font-family="Helvetica,sans-Serif" font-size="10.00">+</text>
<text text-anchor="start" x="649.25" y="-182.5" font-family="Helvetica,sans-Serif" font-size="10.00">getSex()</text>
<text text-anchor="start" x="637.62" y="-166.5" font-family="Helvetica,sans-Serif" font-size="10.00">+</text>
<text text-anchor="start" x="649.25" y="-166.5" font-family="Helvetica,sans-Serif" font-size="10.00">setSex()</text>
<text text-anchor="start" x="637.62" y="-150.5" font-family="Helvetica,sans-Serif" font-size="10.00">+</text>
<text text-anchor="start" x="649.25" y="-150.5" font-family="Helvetica,sans-Serif" font-size="10.00">getNationality()</text>
<text text-anchor="start" x="637.62" y="-134.5" font-family="Helvetica,sans-Serif" font-size="10.00">+</text>
<text text-anchor="start" x="649.25" y="-134.5" font-family="Helvetica,sans-Serif" font-size="10.00">setNationality()</text>
<text text-anchor="start" x="637.62" y="-118.5" font-family="Helvetica,sans-Serif" font-size="10.00">+</text>
<text text-anchor="start" x="649.25" y="-118.5" font-family="Helvetica,sans-Serif" font-size="10.00">getResidenceStatus()</text>
<text text-anchor="start" x="637.62" y="-102.5" font-family="Helvetica,sans-Serif" font-size="10.00">+</text>
<text text-anchor="start" x="649.25" y="-102.5" font-family="Helvetica,sans-Serif" font-size="10.00">setResidenceStatus()</text>
<text text-anchor="start" x="637.62" y="-86.5" font-family="Helvetica,sans-Serif" font-size="10.00">+</text>
<text text-anchor="start" x="649.25" y="-86.5" font-family="Helvetica,sans-Serif" font-size="10.00">getId()</text>
<text text-anchor="start" x="637.62" y="-70.5" font-family="Helvetica,sans-Serif" font-size="10.00">+</text>
<text text-anchor="start" x="649.25" y="-70.5" font-family="Helvetica,sans-Serif" font-size="10.00">setId()</text>
<text text-anchor="start" x="637.62" y="-54.5" font-family="Helvetica,sans-Serif" font-size="10.00">+</text>
<text text-anchor="start" x="649.25" y="-54.5" font-family="Helvetica,sans-Serif" font-size="10.00">getSQLTableName()</text>
<text text-anchor="start" x="637.62" y="-38.5" font-family="Helvetica,sans-Serif" font-size="10.00">+</text>
<text text-anchor="start" x="649.25" y="-38.5" font-family="Helvetica,sans-Serif" font-size="10.00">getSQLInsertCommand()</text>
<text text-anchor="start" x="637.62" y="-22.5" font-family="Helvetica,sans-Serif" font-size="10.00">+</text>
<text text-anchor="start" x="649.25" y="-22.5" font-family="Helvetica,sans-Serif" font-size="10.00">getSQLUpdateCommand()</text>
<text text-anchor="start" x="637.62" y="-6.5" font-family="Helvetica,sans-Serif" font-size="10.00">+</text>
<text text-anchor="start" x="649.25" y="-6.5" font-family="Helvetica,sans-Serif" font-size="10.00">convertFromMap()</text>
<polygon fill="#666666" stroke="#666666" points="632,-458 632,-458 772,-458 772,-458 632,-458"/>
<polygon fill="#666666" stroke="#666666" points="632,-442 632,-442 772,-442 772,-442 632,-442"/>
<polygon fill="none" stroke="#666666" points="632,0 632,-488 772,-488 772,0 632,0"/>
</a>
</g>
</g>
<!-- Node1&#45;&gt;Node6 -->
<g id="edge5_Node000001_Node000006" class="edge">
<title>Node1&#45;&gt;Node6</title>
<g id="a_edge5_Node000001_Node000006"><a xlink:title=" ">
<path fill="none" stroke="#63b8ff" d="M565.52,-547.35C586.79,-530.17 607.47,-510.13 623,-488 626.12,-483.55 629.12,-478.97 632.01,-474.29"/>
<polygon fill="none" stroke="#63b8ff" points="563.6,-544.41 557.9,-553.34 567.93,-549.91 563.6,-544.41"/>
</a>
</g>
</g>
<!-- Node7 -->
<g id="Node000007" class="node">
<title>Node7</title>
<g id="a_Node000007"><a xlink:href="classcom_1_1hust_1_1ittnk68_1_1cnpm_1_1model_1_1Vehicle.html" target="_top" xlink:title=" ">
<polygon fill="white" stroke="none" points="930,-324 790,-324 790,-164 930,-164 930,-324"/>
<text text-anchor="start" x="794" y="-310.5" font-family="Helvetica,sans-Serif" font-size="10.00">com.hust.ittnk68.cnpm.model.</text>
<text text-anchor="start" x="843.88" y="-298.5" font-family="Helvetica,sans-Serif" font-size="10.00">Vehicle</text>
<text text-anchor="start" x="858.5" y="-282.5" font-family="Helvetica,sans-Serif" font-size="10.00"> </text>
<text text-anchor="start" x="795.62" y="-266.5" font-family="Helvetica,sans-Serif" font-size="10.00">+</text>
<text text-anchor="start" x="807.25" y="-266.5" font-family="Helvetica,sans-Serif" font-size="10.00">Vehicle()</text>
<text text-anchor="start" x="795.62" y="-250.5" font-family="Helvetica,sans-Serif" font-size="10.00">+</text>
<text text-anchor="start" x="807.25" y="-250.5" font-family="Helvetica,sans-Serif" font-size="10.00">Vehicle()</text>
<text text-anchor="start" x="795.62" y="-234.5" font-family="Helvetica,sans-Serif" font-size="10.00">+</text>
<text text-anchor="start" x="807.25" y="-234.5" font-family="Helvetica,sans-Serif" font-size="10.00">getId()</text>
<text text-anchor="start" x="795.62" y="-218.5" font-family="Helvetica,sans-Serif" font-size="10.00">+</text>
<text text-anchor="start" x="807.25" y="-218.5" font-family="Helvetica,sans-Serif" font-size="10.00">setId()</text>
<text text-anchor="start" x="795.62" y="-202.5" font-family="Helvetica,sans-Serif" font-size="10.00">+</text>
<text text-anchor="start" x="807.25" y="-202.5" font-family="Helvetica,sans-Serif" font-size="10.00">getSQLTableName()</text>
<text text-anchor="start" x="795.62" y="-186.5" font-family="Helvetica,sans-Serif" font-size="10.00">+</text>
<text text-anchor="start" x="807.25" y="-186.5" font-family="Helvetica,sans-Serif" font-size="10.00">getSQLInsertCommand()</text>
<text text-anchor="start" x="795.62" y="-170.5" font-family="Helvetica,sans-Serif" font-size="10.00">+</text>
<text text-anchor="start" x="807.25" y="-170.5" font-family="Helvetica,sans-Serif" font-size="10.00">getSQLUpdateCommand()</text>
<polygon fill="#666666" stroke="#666666" points="790,-294 790,-294 930,-294 930,-294 790,-294"/>
<polygon fill="#666666" stroke="#666666" points="790,-278 790,-278 930,-278 930,-278 790,-278"/>
<polygon fill="none" stroke="#666666" points="790,-164 790,-324 930,-324 930,-164 790,-164"/>
</a>
</g>
</g>
<!-- Node1&#45;&gt;Node7 -->
<g id="edge6_Node000001_Node000007" class="edge">
<title>Node1&#45;&gt;Node7</title>
<g id="a_edge6_Node000001_Node000007"><a xlink:title=" ">
<path fill="none" stroke="#63b8ff" d="M567.73,-594.62C636.7,-578.56 724.88,-547.41 781,-488 823.04,-443.5 842.71,-376.36 851.92,-323.93"/>
<polygon fill="none" stroke="#63b8ff" points="567.3,-591.13 558.31,-596.74 568.84,-597.96 567.3,-591.13"/>
</a>
</g>
</g>
</g>
</svg>
