<?xml version="1.0" encoding="UTF-8" standalone="no"?>
<!DOCTYPE svg PUBLIC "-//W3C//DTD SVG 1.1//EN"
 "http://www.w3.org/Graphics/SVG/1.1/DTD/svg11.dtd">
<!-- Generated by graphviz version 12.2.1 (20241206.2353)
 -->
<!-- Title: com.hust.ittnk68.cnpm.communication.ClientMessageBase Pages: 1 -->
<!--zoomable 284 -->

<svg id="main" version="1.1" xmlns="http://www.w3.org/2000/svg" xmlns:xlink="http://www.w3.org/1999/xlink" xml:space="preserve" onload="init(evt)">

<style type="text/css"><![CDATA[
.node, .edge {opacity: 0.7;}
.node.selected, .edge.selected {opacity: 1;}
.edge:hover path { stroke: red; }
.edge:hover polygon { stroke: red; fill: red; }
]]></style>

<defs>
  <circle id="rim" cx="0" cy="0" r="7"/>
  <circle id="rim2" cx="0" cy="0" r="3.5"/>
  <g id="zoomPlus">
    <use xlink:href="#rim" fill="#404040"><set attributeName="fill" to="#808080" begin="zoomplus.mouseover" end="zoomplus.mouseout"/></use>
    <path d="M-4,0h8M0,-4v8" fill="none" stroke="white" stroke-width="1.5" pointer-events="none"/>
  </g>
  <g id="zoomMin">
    <use xlink:href="#rim" fill="#404040"><set attributeName="fill" to="#808080" begin="zoomminus.mouseover" end="zoomminus.mouseout"/></use>
    <path d="M-4,0h8" fill="none" stroke="white" stroke-width="1.5" pointer-events="none"/>
  </g>
  <g id="arrowUp" transform="translate(30 24)">
    <use xlink:href="#rim"/>
    <path pointer-events="none" fill="none" stroke="white" stroke-width="1.5" d="M0,-3.0v7 M-2.5,-0.5L0,-3.0L2.5,-0.5"/>
  </g>
  <g id="arrowRight" transform="rotate(90) translate(36 -43)">
    <use xlink:href="#rim"/>
    <path pointer-events="none" fill="none" stroke="white" stroke-width="1.5" d="M0,-3.0v7 M-2.5,-0.5L0,-3.0L2.5,-0.5"/>
  </g>
  <g id="arrowDown" transform="rotate(180) translate(-30 -48)">
    <use xlink:href="#rim"/>
    <path pointer-events="none" fill="none" stroke="white" stroke-width="1.5" d="M0,-3.0v7 M-2.5,-0.5L0,-3.0L2.5,-0.5"/>
  </g>
  <g id="arrowLeft" transform="rotate(270) translate(-36 17)">
    <use xlink:href="#rim"/>
    <path pointer-events="none" fill="none" stroke="white" stroke-width="1.5" d="M0,-3.0v7 M-2.5,-0.5L0,-3.0L2.5,-0.5"/>
  </g>
  <g id="resetDef">
    <use xlink:href="#rim2" fill="#404040"><set attributeName="fill" to="#808080" begin="reset.mouseover" end="reset.mouseout"/></use>
  </g>
</defs>
<script type="application/ecmascript">
var viewWidth = 1376;
var viewHeight = 284;
var sectionId = 'dynsection-0';
</script>
<script type="application/ecmascript" xlink:href="svg.min.js"/>
<svg id="graph" class="graph">
<g id="viewport">
<title>com.hust.ittnk68.cnpm.communication.ClientMessageBase</title>
<!-- Node1 -->
<g id="Node000001" class="node">
<title>Node1</title>
<g id="a_Node000001"><a xlink:title=" ">
<polygon fill="#999999" stroke="none" points="773.75,-276 594,-276 594,-180 773.75,-180 773.75,-276"/>
<text text-anchor="start" x="598" y="-262.5" font-family="Helvetica,sans-Serif" font-size="10.00">com.hust.ittnk68.cnpm.communication.</text>
<text text-anchor="start" x="640" y="-250.5" font-family="Helvetica,sans-Serif" font-size="10.00">ClientMessageBase</text>
<text text-anchor="start" x="682.38" y="-234.5" font-family="Helvetica,sans-Serif" font-size="10.00"> </text>
<text text-anchor="start" x="615" y="-218.5" font-family="Helvetica,sans-Serif" font-size="10.00">+</text>
<text text-anchor="start" x="642" y="-218.5" font-family="Helvetica,sans-Serif" font-size="10.00">getToken()</text>
<text text-anchor="start" x="615" y="-202.5" font-family="Helvetica,sans-Serif" font-size="10.00">+</text>
<text text-anchor="start" x="642" y="-202.5" font-family="Helvetica,sans-Serif" font-size="10.00">setToken()</text>
<text text-anchor="start" x="615" y="-186.5" font-family="Helvetica,sans-Serif" font-size="10.00">~</text>
<text text-anchor="start" x="642" y="-186.5" font-family="Helvetica,sans-Serif" font-size="10.00">ClientMessageBase()</text>
<polygon fill="#666666" stroke="#666666" points="594,-246 594,-246 773.75,-246 773.75,-246 594,-246"/>
<polygon fill="#666666" stroke="#666666" points="594,-230 594,-230 773.75,-230 773.75,-230 594,-230"/>
<polygon fill="none" stroke="#666666" points="594,-180 594,-276 773.75,-276 773.75,-180 594,-180"/>
</a>
</g>
</g>
<!-- Node2 -->
<g id="Node000002" class="node">
<title>Node2</title>
<g id="a_Node000002"><a xlink:href="classcom_1_1hust_1_1ittnk68_1_1cnpm_1_1communication_1_1AdminCreateObject.html" target="_top" xlink:title=" ">
<polygon fill="white" stroke="none" points="179.75,-120 0,-120 0,-24 179.75,-24 179.75,-120"/>
<text text-anchor="start" x="4" y="-106.5" font-family="Helvetica,sans-Serif" font-size="10.00">com.hust.ittnk68.cnpm.communication.</text>
<text text-anchor="start" x="47.12" y="-94.5" font-family="Helvetica,sans-Serif" font-size="10.00">AdminCreateObject</text>
<text text-anchor="start" x="21.56" y="-78.5" font-family="Helvetica,sans-Serif" font-size="10.00">~</text>
<text text-anchor="start" x="49.12" y="-78.5" font-family="Helvetica,sans-Serif" font-size="10.00">object</text>
<text text-anchor="start" x="21.56" y="-62.5" font-family="Helvetica,sans-Serif" font-size="10.00">+</text>
<text text-anchor="start" x="49.12" y="-62.5" font-family="Helvetica,sans-Serif" font-size="10.00">AdminCreateObject()</text>
<text text-anchor="start" x="21.56" y="-46.5" font-family="Helvetica,sans-Serif" font-size="10.00">+</text>
<text text-anchor="start" x="49.12" y="-46.5" font-family="Helvetica,sans-Serif" font-size="10.00">getObject()</text>
<text text-anchor="start" x="21.56" y="-30.5" font-family="Helvetica,sans-Serif" font-size="10.00">+</text>
<text text-anchor="start" x="49.12" y="-30.5" font-family="Helvetica,sans-Serif" font-size="10.00">setObject()</text>
<polygon fill="#666666" stroke="#666666" points="0,-90 0,-90 179.75,-90 179.75,-90 0,-90"/>
<polygon fill="#666666" stroke="#666666" points="0,-74 0,-74 47.12,-74 47.12,-74 0,-74"/>
<polygon fill="#666666" stroke="#666666" points="47.12,-74 47.12,-74 179.75,-74 179.75,-74 47.12,-74"/>
<polygon fill="none" stroke="#666666" points="0,-24 0,-120 179.75,-120 179.75,-24 0,-24"/>
</a>
</g>
</g>
<!-- Node1&#45;&gt;Node2 -->
<g id="edge1_Node000001_Node000002" class="edge">
<title>Node1&#45;&gt;Node2</title>
<g id="a_edge1_Node000001_Node000002"><a xlink:title=" ">
<path fill="none" stroke="#63b8ff" d="M582.95,-223.42C480.24,-216.75 318.19,-197.78 188.88,-144 174.13,-137.87 159.47,-129.18 146.13,-119.97"/>
<polygon fill="none" stroke="#63b8ff" points="582.54,-226.9 592.74,-224.02 582.98,-219.91 582.54,-226.9"/>
</a>
</g>
</g>
<!-- Node3 -->
<g id="Node000003" class="node">
<title>Node3</title>
<g id="a_Node000003"><a xlink:href="classcom_1_1hust_1_1ittnk68_1_1cnpm_1_1communication_1_1AdminDeleteObject.html" target="_top" xlink:title=" ">
<polygon fill="white" stroke="none" points="377.75,-128 198,-128 198,-16 377.75,-16 377.75,-128"/>
<text text-anchor="start" x="202" y="-114.5" font-family="Helvetica,sans-Serif" font-size="10.00">com.hust.ittnk68.cnpm.communication.</text>
<text text-anchor="start" x="245.5" y="-102.5" font-family="Helvetica,sans-Serif" font-size="10.00">AdminDeleteObject</text>
<text text-anchor="start" x="286.38" y="-86.5" font-family="Helvetica,sans-Serif" font-size="10.00"> </text>
<text text-anchor="start" x="219.75" y="-70.5" font-family="Helvetica,sans-Serif" font-size="10.00">+</text>
<text text-anchor="start" x="247.5" y="-70.5" font-family="Helvetica,sans-Serif" font-size="10.00">AdminDeleteObject()</text>
<text text-anchor="start" x="219.75" y="-54.5" font-family="Helvetica,sans-Serif" font-size="10.00">+</text>
<text text-anchor="start" x="247.5" y="-54.5" font-family="Helvetica,sans-Serif" font-size="10.00">getCondition()</text>
<text text-anchor="start" x="219.75" y="-38.5" font-family="Helvetica,sans-Serif" font-size="10.00">+</text>
<text text-anchor="start" x="247.5" y="-38.5" font-family="Helvetica,sans-Serif" font-size="10.00">getObject()</text>
<text text-anchor="start" x="219.75" y="-22.5" font-family="Helvetica,sans-Serif" font-size="10.00">+</text>
<text text-anchor="start" x="247.5" y="-22.5" font-family="Helvetica,sans-Serif" font-size="10.00">setObject()</text>
<polygon fill="#666666" stroke="#666666" points="198,-98 198,-98 377.75,-98 377.75,-98 198,-98"/>
<polygon fill="#666666" stroke="#666666" points="198,-82 198,-82 377.75,-82 377.75,-82 198,-82"/>
<polygon fill="none" stroke="#666666" points="198,-16 198,-128 377.75,-128 377.75,-16 198,-16"/>
</a>
</g>
</g>
<!-- Node1&#45;&gt;Node3 -->
<g id="edge2_Node000001_Node000003" class="edge">
<title>Node1&#45;&gt;Node3</title>
<g id="a_edge2_Node000001_Node000003"><a xlink:title=" ">
<path fill="none" stroke="#63b8ff" d="M583.01,-208.02C524,-194.7 449.11,-173.86 386.88,-144 377.24,-139.38 367.56,-133.82 358.22,-127.87"/>
<polygon fill="none" stroke="#63b8ff" points="582.21,-211.43 592.73,-210.18 583.73,-204.6 582.21,-211.43"/>
</a>
</g>
</g>
<!-- Node4 -->
<g id="Node000004" class="node">
<title>Node4</title>
<g id="a_Node000004"><a xlink:href="classcom_1_1hust_1_1ittnk68_1_1cnpm_1_1communication_1_1AdminFindObject.html" target="_top" xlink:title=" ">
<polygon fill="white" stroke="none" points="575.75,-136 396,-136 396,-8 575.75,-8 575.75,-136"/>
<text text-anchor="start" x="400" y="-122.5" font-family="Helvetica,sans-Serif" font-size="10.00">com.hust.ittnk68.cnpm.communication.</text>
<text text-anchor="start" x="448.38" y="-110.5" font-family="Helvetica,sans-Serif" font-size="10.00">AdminFindObject</text>
<text text-anchor="start" x="484.38" y="-94.5" font-family="Helvetica,sans-Serif" font-size="10.00"> </text>
<text text-anchor="start" x="420.19" y="-78.5" font-family="Helvetica,sans-Serif" font-size="10.00">+</text>
<text text-anchor="start" x="450.38" y="-78.5" font-family="Helvetica,sans-Serif" font-size="10.00">AdminFindObject()</text>
<text text-anchor="start" x="420.19" y="-62.5" font-family="Helvetica,sans-Serif" font-size="10.00">+</text>
<text text-anchor="start" x="450.38" y="-62.5" font-family="Helvetica,sans-Serif" font-size="10.00">getCondition()</text>
<text text-anchor="start" x="420.19" y="-46.5" font-family="Helvetica,sans-Serif" font-size="10.00">+</text>
<text text-anchor="start" x="450.38" y="-46.5" font-family="Helvetica,sans-Serif" font-size="10.00">setCondition()</text>
<text text-anchor="start" x="420.19" y="-30.5" font-family="Helvetica,sans-Serif" font-size="10.00">+</text>
<text text-anchor="start" x="450.38" y="-30.5" font-family="Helvetica,sans-Serif" font-size="10.00">getObject()</text>
<text text-anchor="start" x="420.19" y="-14.5" font-family="Helvetica,sans-Serif" font-size="10.00">+</text>
<text text-anchor="start" x="450.38" y="-14.5" font-family="Helvetica,sans-Serif" font-size="10.00">setObject()</text>
<polygon fill="#666666" stroke="#666666" points="396,-106 396,-106 575.75,-106 575.75,-106 396,-106"/>
<polygon fill="#666666" stroke="#666666" points="396,-90 396,-90 575.75,-90 575.75,-90 396,-90"/>
<polygon fill="none" stroke="#666666" points="396,-8 396,-136 575.75,-136 575.75,-8 396,-8"/>
</a>
</g>
</g>
<!-- Node1&#45;&gt;Node4 -->
<g id="edge3_Node000001_Node000004" class="edge">
<title>Node1&#45;&gt;Node4</title>
<g id="a_edge3_Node000001_Node000004"><a xlink:title=" ">
<path fill="none" stroke="#63b8ff" d="M614.66,-173.17C599.15,-161.1 582.55,-148.2 566.62,-135.8"/>
<polygon fill="none" stroke="#63b8ff" points="612.42,-175.86 622.47,-179.24 616.72,-170.34 612.42,-175.86"/>
</a>
</g>
</g>
<!-- Node5 -->
<g id="Node000005" class="node">
<title>Node5</title>
<g id="a_Node000005"><a xlink:href="classcom_1_1hust_1_1ittnk68_1_1cnpm_1_1communication_1_1AdminUpdateObject.html" target="_top" xlink:title=" ">
<polygon fill="white" stroke="none" points="773.75,-120 594,-120 594,-24 773.75,-24 773.75,-120"/>
<text text-anchor="start" x="598" y="-106.5" font-family="Helvetica,sans-Serif" font-size="10.00">com.hust.ittnk68.cnpm.communication.</text>
<text text-anchor="start" x="640" y="-94.5" font-family="Helvetica,sans-Serif" font-size="10.00">AdminUpdateObject</text>
<text text-anchor="start" x="682.38" y="-78.5" font-family="Helvetica,sans-Serif" font-size="10.00"> </text>
<text text-anchor="start" x="615" y="-62.5" font-family="Helvetica,sans-Serif" font-size="10.00">+</text>
<text text-anchor="start" x="642" y="-62.5" font-family="Helvetica,sans-Serif" font-size="10.00">AdminUpdateObject()</text>
<text text-anchor="start" x="615" y="-46.5" font-family="Helvetica,sans-Serif" font-size="10.00">+</text>
<text text-anchor="start" x="642" y="-46.5" font-family="Helvetica,sans-Serif" font-size="10.00">getObject()</text>
<text text-anchor="start" x="615" y="-30.5" font-family="Helvetica,sans-Serif" font-size="10.00">+</text>
<text text-anchor="start" x="642" y="-30.5" font-family="Helvetica,sans-Serif" font-size="10.00">setObject()</text>
<polygon fill="#666666" stroke="#666666" points="594,-90 594,-90 773.75,-90 773.75,-90 594,-90"/>
<polygon fill="#666666" stroke="#666666" points="594,-74 594,-74 773.75,-74 773.75,-74 594,-74"/>
<polygon fill="none" stroke="#666666" points="594,-24 594,-120 773.75,-120 773.75,-24 594,-24"/>
</a>
</g>
</g>
<!-- Node1&#45;&gt;Node5 -->
<g id="edge4_Node000001_Node000005" class="edge">
<title>Node1&#45;&gt;Node5</title>
<g id="a_edge4_Node000001_Node000005"><a xlink:title=" ">
<path fill="none" stroke="#63b8ff" d="M683.88,-168.88C683.88,-152.73 683.88,-135.41 683.88,-120"/>
<polygon fill="none" stroke="#63b8ff" points="680.38,-168.86 683.88,-178.86 687.38,-168.86 680.38,-168.86"/>
</a>
</g>
</g>
<!-- Node6 -->
<g id="Node000006" class="node">
<title>Node6</title>
<g id="a_Node000006"><a xlink:href="classcom_1_1hust_1_1ittnk68_1_1cnpm_1_1communication_1_1ClientMessageStartSession.html" target="_top" xlink:title=" ">
<polygon fill="white" stroke="none" points="971.75,-144 792,-144 792,0 971.75,0 971.75,-144"/>
<text text-anchor="start" x="796" y="-130.5" font-family="Helvetica,sans-Serif" font-size="10.00">com.hust.ittnk68.cnpm.communication.</text>
<text text-anchor="start" x="821.12" y="-118.5" font-family="Helvetica,sans-Serif" font-size="10.00">ClientMessageStartSession</text>
<text text-anchor="start" x="804.56" y="-102.5" font-family="Helvetica,sans-Serif" font-size="10.00">~</text>
<text text-anchor="start" x="823.12" y="-102.5" font-family="Helvetica,sans-Serif" font-size="10.00">username</text>
<text text-anchor="start" x="804.56" y="-86.5" font-family="Helvetica,sans-Serif" font-size="10.00">~</text>
<text text-anchor="start" x="823.12" y="-86.5" font-family="Helvetica,sans-Serif" font-size="10.00">digestPassword</text>
<text text-anchor="start" x="804.56" y="-70.5" font-family="Helvetica,sans-Serif" font-size="10.00">+</text>
<text text-anchor="start" x="823.12" y="-70.5" font-family="Helvetica,sans-Serif" font-size="10.00">ClientMessageStartSession()</text>
<text text-anchor="start" x="804.56" y="-54.5" font-family="Helvetica,sans-Serif" font-size="10.00">+</text>
<text text-anchor="start" x="823.12" y="-54.5" font-family="Helvetica,sans-Serif" font-size="10.00">getUsername()</text>
<text text-anchor="start" x="804.56" y="-38.5" font-family="Helvetica,sans-Serif" font-size="10.00">+</text>
<text text-anchor="start" x="823.12" y="-38.5" font-family="Helvetica,sans-Serif" font-size="10.00">setUsername()</text>
<text text-anchor="start" x="804.56" y="-22.5" font-family="Helvetica,sans-Serif" font-size="10.00">+</text>
<text text-anchor="start" x="823.12" y="-22.5" font-family="Helvetica,sans-Serif" font-size="10.00">getDigestPassword()</text>
<text text-anchor="start" x="804.56" y="-6.5" font-family="Helvetica,sans-Serif" font-size="10.00">+</text>
<text text-anchor="start" x="823.12" y="-6.5" font-family="Helvetica,sans-Serif" font-size="10.00">setDigestPassword()</text>
<polygon fill="#666666" stroke="#666666" points="792,-114 792,-114 971.75,-114 971.75,-114 792,-114"/>
<polygon fill="#666666" stroke="#666666" points="792,-82 792,-82 821.12,-82 821.12,-82 792,-82"/>
<polygon fill="#666666" stroke="#666666" points="821.12,-82 821.12,-82 971.75,-82 971.75,-82 821.12,-82"/>
<polygon fill="none" stroke="#666666" points="792,0 792,-144 971.75,-144 971.75,0 792,0"/>
</a>
</g>
</g>
<!-- Node1&#45;&gt;Node6 -->
<g id="edge5_Node000001_Node000006" class="edge">
<title>Node1&#45;&gt;Node6</title>
<g id="a_edge5_Node000001_Node000006"><a xlink:title=" ">
<path fill="none" stroke="#63b8ff" d="M753.11,-173.15C765.68,-163.37 778.96,-153.05 792.03,-142.88"/>
<polygon fill="none" stroke="#63b8ff" points="751.03,-170.34 745.28,-179.24 755.33,-175.86 751.03,-170.34"/>
</a>
</g>
</g>
<!-- Node7 -->
<g id="Node000007" class="node">
<title>Node7</title>
<g id="a_Node000007"><a xlink:href="classcom_1_1hust_1_1ittnk68_1_1cnpm_1_1communication_1_1UserQueryObjectById.html" target="_top" xlink:title=" ">
<polygon fill="white" stroke="none" points="1169.75,-120 990,-120 990,-24 1169.75,-24 1169.75,-120"/>
<text text-anchor="start" x="994" y="-106.5" font-family="Helvetica,sans-Serif" font-size="10.00">com.hust.ittnk68.cnpm.communication.</text>
<text text-anchor="start" x="1031.88" y="-94.5" font-family="Helvetica,sans-Serif" font-size="10.00">UserQueryObjectById</text>
<text text-anchor="start" x="1008.94" y="-78.5" font-family="Helvetica,sans-Serif" font-size="10.00">~</text>
<text text-anchor="start" x="1033.88" y="-78.5" font-family="Helvetica,sans-Serif" font-size="10.00">object</text>
<text text-anchor="start" x="1008.94" y="-62.5" font-family="Helvetica,sans-Serif" font-size="10.00">+</text>
<text text-anchor="start" x="1033.88" y="-62.5" font-family="Helvetica,sans-Serif" font-size="10.00">UserQueryObjectById()</text>
<text text-anchor="start" x="1008.94" y="-46.5" font-family="Helvetica,sans-Serif" font-size="10.00">+</text>
<text text-anchor="start" x="1033.88" y="-46.5" font-family="Helvetica,sans-Serif" font-size="10.00">getObject()</text>
<text text-anchor="start" x="1008.94" y="-30.5" font-family="Helvetica,sans-Serif" font-size="10.00">+</text>
<text text-anchor="start" x="1033.88" y="-30.5" font-family="Helvetica,sans-Serif" font-size="10.00">setObject()</text>
<polygon fill="#666666" stroke="#666666" points="990,-90 990,-90 1169.75,-90 1169.75,-90 990,-90"/>
<polygon fill="#666666" stroke="#666666" points="990,-74 990,-74 1031.88,-74 1031.88,-74 990,-74"/>
<polygon fill="#666666" stroke="#666666" points="1031.88,-74 1031.88,-74 1169.75,-74 1169.75,-74 1031.88,-74"/>
<polygon fill="none" stroke="#666666" points="990,-24 990,-120 1169.75,-120 1169.75,-24 990,-24"/>
</a>
</g>
</g>
<!-- Node1&#45;&gt;Node7 -->
<g id="edge6_Node000001_Node000007" class="edge">
<title>Node1&#45;&gt;Node7</title>
<g id="a_edge6_Node000001_Node000007"><a xlink:title=" ">
<path fill="none" stroke="#63b8ff" d="M784.74,-208.02C843.75,-194.7 918.64,-173.86 980.88,-144 994.7,-137.37 1008.64,-128.8 1021.51,-119.92"/>
<polygon fill="none" stroke="#63b8ff" points="784.02,-204.6 775.02,-210.18 785.54,-211.43 784.02,-204.6"/>
</a>
</g>
</g>
<!-- Node8 -->
<g id="Node000008" class="node">
<title>Node8</title>
<g id="a_Node000008"><a xlink:href="classcom_1_1hust_1_1ittnk68_1_1cnpm_1_1communication_1_1UserQueryPaymentStatus.html" target="_top" xlink:title=" ">
<polygon fill="white" stroke="none" points="1367.75,-104 1188,-104 1188,-40 1367.75,-40 1367.75,-104"/>
<text text-anchor="start" x="1192" y="-90.5" font-family="Helvetica,sans-Serif" font-size="10.00">com.hust.ittnk68.cnpm.communication.</text>
<text text-anchor="start" x="1220.5" y="-78.5" font-family="Helvetica,sans-Serif" font-size="10.00">UserQueryPaymentStatus</text>
<text text-anchor="start" x="1276.38" y="-62.5" font-family="Helvetica,sans-Serif" font-size="10.00"> </text>
<text text-anchor="start" x="1202.25" y="-46.5" font-family="Helvetica,sans-Serif" font-size="10.00">+</text>
<text text-anchor="start" x="1222.5" y="-46.5" font-family="Helvetica,sans-Serif" font-size="10.00">UserQueryPaymentStatus()</text>
<polygon fill="#666666" stroke="#666666" points="1188,-74 1188,-74 1367.75,-74 1367.75,-74 1188,-74"/>
<polygon fill="#666666" stroke="#666666" points="1188,-58 1188,-58 1367.75,-58 1367.75,-58 1188,-58"/>
<polygon fill="none" stroke="#666666" points="1188,-40 1188,-104 1367.75,-104 1367.75,-40 1188,-40"/>
</a>
</g>
</g>
<!-- Node1&#45;&gt;Node8 -->
<g id="edge7_Node000001_Node000008" class="edge">
<title>Node1&#45;&gt;Node8</title>
<g id="a_edge7_Node000001_Node000008"><a xlink:title=" ">
<path fill="none" stroke="#63b8ff" d="M784.8,-223.42C887.51,-216.75 1049.56,-197.78 1178.88,-144 1202.11,-134.33 1225.14,-118.31 1243.13,-103.93"/>
<polygon fill="none" stroke="#63b8ff" points="784.77,-219.91 775.01,-224.02 785.21,-226.9 784.77,-219.91"/>
</a>
</g>
</g>
</g>
</svg>

<g id="navigator" transform="translate(0 0)" fill="#404254">
  <rect fill="#f2f5e9" fill-opacity="0.5" stroke="#606060" stroke-width=".5" x="0" y="0" width="60" height="60"/>
  <use id="zoomplus" xlink:href="#zoomPlus" x="17" y="9" onmousedown="handleZoom(evt,'in')"/>
  <use id="zoomminus" xlink:href="#zoomMin" x="42" y="9" onmousedown="handleZoom(evt,'out')"/>
  <use id="reset" xlink:href="#resetDef" x="30" y="36" onmousedown="handleReset()"/>
   <use id="arrowup" xlink:href="#arrowUp" x="0" y="0" onmousedown="handlePan(0,-1)"/>
  <use id="arrowright" xlink:href="#arrowRight" x="0" y="0" onmousedown="handlePan(1,0)"/>
  <use id="arrowdown" xlink:href="#arrowDown" x="0" y="0" onmousedown="handlePan(0,1)"/>
  <use id="arrowleft" xlink:href="#arrowLeft" x="0" y="0" onmousedown="handlePan(-1,0)"/>
</g>
<svg viewBox="0 0 15 15" width="100%" height="30px" preserveAspectRatio="xMaxYMin meet">
 <g id="arrow_out" transform="scale(0.3 0.3)">
  <a xlink:href="classcom_1_1hust_1_1ittnk68_1_1cnpm_1_1communication_1_1ClientMessageBase__inherit__graph_org.svg" target="_base">
   <rect id="button" ry="5" rx="5" y="6" x="6" height="38" width="38"
        fill="#f2f5e9" fill-opacity="0.5" stroke="#606060" stroke-width="1.0"/>
   <path id="arrow"
     d="M 11.500037,31.436501 C 11.940474,20.09759 22.043105,11.32322 32.158766,21.979434 L 37.068811,17.246167 C 37.068811,17.246167 37.088388,32 37.088388,32 L 22.160133,31.978069 C 22.160133,31.978069 26.997745,27.140456 26.997745,27.140456 C 18.528582,18.264221 13.291696,25.230495 11.500037,31.436501 z"
     style="fill:#404040;"/>
  </a>
 </g>
</svg>

<style type='text/css'>
<![CDATA[
[data-mouse-over-selected='false'] { opacity: 0.7; }
[data-mouse-over-selected='true']  { opacity: 1.0; }
]]>
</style>
<script type="application/ecmascript"><![CDATA[
document.addEventListener('DOMContentLoaded', (event) => {
  highlightEdges();
  highlightAdjacentNodes();
});
]]></script>
</svg>
