<?xml version="1.0" encoding="UTF-8" standalone="no"?>
<!DOCTYPE svg PUBLIC "-//W3C//DTD SVG 1.1//EN"
 "http://www.w3.org/Graphics/SVG/1.1/DTD/svg11.dtd">
<!-- Generated by graphviz version 12.2.1 (20241206.2353)
 -->
<!-- Title: com.hust.ittnk68.cnpm.communication.ServerQrCodeGenerateResponse Pages: 1 -->
<svg width="188pt" height="300pt"
 viewBox="0.00 0.00 187.75 300.00" xmlns="http://www.w3.org/2000/svg" xmlns:xlink="http://www.w3.org/1999/xlink">

<svg id="main" version="1.1" xmlns="http://www.w3.org/2000/svg" xmlns:xlink="http://www.w3.org/1999/xlink" xml:space="preserve">

<style type="text/css"><![CDATA[
.node, .edge {opacity: 0.7;}
.node.selected, .edge.selected {opacity: 1;}
.edge:hover path { stroke: red; }
.edge:hover polygon { stroke: red; fill: red; }
]]></style>
<script type="application/ecmascript" xlink:href="svg.min.js"/>
<svg id="graph" class="graph">
<g id="graph0" class="graph" transform="scale(1 1) rotate(0) translate(4 296)">
<title>com.hust.ittnk68.cnpm.communication.ServerQrCodeGenerateResponse</title>
<!-- Node1 -->
<g id="Node000001" class="node">
<title>Node1</title>
<g id="a_Node000001"><a xlink:title=" ">
<polygon fill="#999999" stroke="none" points="179.75,-128 0,-128 0,0 179.75,0 179.75,-128"/>
<text text-anchor="start" x="4" y="-114.5" font-family="Helvetica,sans-Serif" font-size="10.00">com.hust.ittnk68.cnpm.communication.</text>
<text text-anchor="start" x="16.75" y="-102.5" font-family="Helvetica,sans-Serif" font-size="10.00">ServerQrCodeGenerateResponse</text>
<text text-anchor="start" x="88.38" y="-86.5" font-family="Helvetica,sans-Serif" font-size="10.00"> </text>
<text text-anchor="start" x="6.38" y="-70.5" font-family="Helvetica,sans-Serif" font-size="10.00">+</text>
<text text-anchor="start" x="18.75" y="-70.5" font-family="Helvetica,sans-Serif" font-size="10.00">ServerQrCodeGenerateResponse()</text>
<text text-anchor="start" x="6.38" y="-54.5" font-family="Helvetica,sans-Serif" font-size="10.00">+</text>
<text text-anchor="start" x="18.75" y="-54.5" font-family="Helvetica,sans-Serif" font-size="10.00">getToken()</text>
<text text-anchor="start" x="6.38" y="-38.5" font-family="Helvetica,sans-Serif" font-size="10.00">+</text>
<text text-anchor="start" x="18.75" y="-38.5" font-family="Helvetica,sans-Serif" font-size="10.00">setToken()</text>
<text text-anchor="start" x="6.38" y="-22.5" font-family="Helvetica,sans-Serif" font-size="10.00">+</text>
<text text-anchor="start" x="18.75" y="-22.5" font-family="Helvetica,sans-Serif" font-size="10.00">getQrImageBase64()</text>
<text text-anchor="start" x="6.38" y="-6.5" font-family="Helvetica,sans-Serif" font-size="10.00">+</text>
<text text-anchor="start" x="18.75" y="-6.5" font-family="Helvetica,sans-Serif" font-size="10.00">setQrImageBase64()</text>
<polygon fill="#666666" stroke="#666666" points="0,-98 0,-98 179.75,-98 179.75,-98 0,-98"/>
<polygon fill="#666666" stroke="#666666" points="0,-82 0,-82 179.75,-82 179.75,-82 0,-82"/>
<polygon fill="none" stroke="#666666" points="0,0 0,-128 179.75,-128 179.75,0 0,0"/>
</a>
</g>
</g>
<!-- Node2 -->
<g id="Node000002" class="node">
<title>Node2</title>
<g id="a_Node000002"><a xlink:href="classcom_1_1hust_1_1ittnk68_1_1cnpm_1_1communication_1_1ServerResponseBase.html" target="_top" xlink:title=" ">
<polygon fill="white" stroke="none" points="179.75,-292 0,-292 0,-164 179.75,-164 179.75,-292"/>
<text text-anchor="start" x="4" y="-278.5" font-family="Helvetica,sans-Serif" font-size="10.00">com.hust.ittnk68.cnpm.communication.</text>
<text text-anchor="start" x="42.25" y="-266.5" font-family="Helvetica,sans-Serif" font-size="10.00">ServerResponseBase</text>
<text text-anchor="start" x="88.38" y="-250.5" font-family="Helvetica,sans-Serif" font-size="10.00"> </text>
<text text-anchor="start" x="18.56" y="-234.5" font-family="Helvetica,sans-Serif" font-size="10.00">+</text>
<text text-anchor="start" x="43.12" y="-234.5" font-family="Helvetica,sans-Serif" font-size="10.00">ServerResponseBase()</text>
<text text-anchor="start" x="18.56" y="-218.5" font-family="Helvetica,sans-Serif" font-size="10.00">+</text>
<text text-anchor="start" x="43.12" y="-218.5" font-family="Helvetica,sans-Serif" font-size="10.00">getResponseStatus()</text>
<text text-anchor="start" x="18.56" y="-202.5" font-family="Helvetica,sans-Serif" font-size="10.00">+</text>
<text text-anchor="start" x="43.12" y="-202.5" font-family="Helvetica,sans-Serif" font-size="10.00">setResponseStatus()</text>
<text text-anchor="start" x="18.56" y="-186.5" font-family="Helvetica,sans-Serif" font-size="10.00">+</text>
<text text-anchor="start" x="43.12" y="-186.5" font-family="Helvetica,sans-Serif" font-size="10.00">getResponseMessage()</text>
<text text-anchor="start" x="18.56" y="-170.5" font-family="Helvetica,sans-Serif" font-size="10.00">+</text>
<text text-anchor="start" x="43.12" y="-170.5" font-family="Helvetica,sans-Serif" font-size="10.00">setResponseMessage()</text>
<polygon fill="#666666" stroke="#666666" points="0,-262 0,-262 179.75,-262 179.75,-262 0,-262"/>
<polygon fill="#666666" stroke="#666666" points="0,-246 0,-246 179.75,-246 179.75,-246 0,-246"/>
<polygon fill="none" stroke="#666666" points="0,-164 0,-292 179.75,-292 179.75,-164 0,-164"/>
</a>
</g>
</g>
<!-- Node2&#45;&gt;Node1 -->
<g id="edge1_Node000001_Node000002" class="edge">
<title>Node2&#45;&gt;Node1</title>
<g id="a_edge1_Node000001_Node000002"><a xlink:title=" ">
<path fill="none" stroke="#63b8ff" d="M89.88,-152.97C89.88,-144.53 89.88,-136 89.88,-127.73"/>
<polygon fill="none" stroke="#63b8ff" points="86.38,-152.85 89.88,-162.85 93.38,-152.85 86.38,-152.85"/>
</a>
</g>
</g>
</g>
</svg>
</svg>

<style type='text/css'>
<![CDATA[
[data-mouse-over-selected='false'] { opacity: 0.7; }
[data-mouse-over-selected='true']  { opacity: 1.0; }
]]>
</style>
<script type="application/ecmascript"><![CDATA[
document.addEventListener('DOMContentLoaded', (event) => {
  highlightEdges();
  highlightAdjacentNodes();
});
]]></script>
</svg>
