<?xml version="1.0" encoding="UTF-8" standalone="no"?>
<!DOCTYPE svg PUBLIC "-//W3C//DTD SVG 1.1//EN"
 "http://www.w3.org/Graphics/SVG/1.1/DTD/svg11.dtd">
<!-- Generated by graphviz version 12.2.1 (20241206.2353)
 -->
<!-- Title: com.hust.ittnk68.cnpm.view.DuongFXToggleDatePicker Pages: 1 -->
<svg width="141pt" height="192pt"
 viewBox="0.00 0.00 140.50 192.00" xmlns="http://www.w3.org/2000/svg" xmlns:xlink="http://www.w3.org/1999/xlink">
<g id="graph0" class="graph" transform="scale(1 1) rotate(0) translate(4 188)">
<title>com.hust.ittnk68.cnpm.view.DuongFXToggleDatePicker</title>
<!-- Node1 -->
<g id="Node000001" class="node">
<title>Node1</title>
<g id="a_Node000001"><a xlink:title=" ">
<polygon fill="#999999" stroke="none" points="132.5,-96 0,-96 0,0 132.5,0 132.5,-96"/>
<text text-anchor="start" x="4" y="-82.5" font-family="Helvetica,sans-Serif" font-size="10.00">com.hust.ittnk68.cnpm.view.</text>
<text text-anchor="start" x="7" y="-70.5" font-family="Helvetica,sans-Serif" font-size="10.00">DuongFXToggleDatePicker</text>
<text text-anchor="start" x="64.75" y="-54.5" font-family="Helvetica,sans-Serif" font-size="10.00"> </text>
<text text-anchor="start" x="14.81" y="-38.5" font-family="Helvetica,sans-Serif" font-size="10.00">+</text>
<text text-anchor="start" x="35.62" y="-38.5" font-family="Helvetica,sans-Serif" font-size="10.00">enableProperty()</text>
<text text-anchor="start" x="14.81" y="-22.5" font-family="Helvetica,sans-Serif" font-size="10.00">+</text>
<text text-anchor="start" x="35.62" y="-22.5" font-family="Helvetica,sans-Serif" font-size="10.00">valueProperty()</text>
<text text-anchor="start" x="14.81" y="-6.5" font-family="Helvetica,sans-Serif" font-size="10.00">+</text>
<text text-anchor="start" x="35.62" y="-6.5" font-family="Helvetica,sans-Serif" font-size="10.00">create()</text>
<polygon fill="#666666" stroke="#666666" points="0,-66 0,-66 132.5,-66 132.5,-66 0,-66"/>
<polygon fill="#666666" stroke="#666666" points="0,-50 0,-50 132.5,-50 132.5,-50 0,-50"/>
<polygon fill="none" stroke="#666666" points="0,0 0,-96 132.5,-96 132.5,0 0,0"/>
</a>
</g>
</g>
<!-- Node2 -->
<g id="Node000002" class="node">
<title>Node2</title>
<g id="a_Node000002"><a xlink:href="classInputGroup.html" target="_top" xlink:title=" ">
<polygon fill="white" stroke="none" points="94.25,-184 38.25,-184 38.25,-132 94.25,-132 94.25,-184"/>
<text text-anchor="start" x="42.25" y="-170.5" font-family="Helvetica,sans-Serif" font-size="10.00">InputGroup</text>
<text text-anchor="start" x="64.75" y="-154.5" font-family="Helvetica,sans-Serif" font-size="10.00"> </text>
<text text-anchor="start" x="64.75" y="-138.5" font-family="Helvetica,sans-Serif" font-size="10.00"> </text>
<polygon fill="#666666" stroke="#666666" points="38.25,-166 38.25,-166 94.25,-166 94.25,-166 38.25,-166"/>
<polygon fill="#666666" stroke="#666666" points="38.25,-150 38.25,-150 94.25,-150 94.25,-150 38.25,-150"/>
<polygon fill="none" stroke="#666666" points="38.25,-132 38.25,-184 94.25,-184 94.25,-132 38.25,-132"/>
</a>
</g>
</g>
<!-- Node2&#45;&gt;Node1 -->
<g id="edge1_Node000001_Node000002" class="edge">
<title>Node2&#45;&gt;Node1</title>
<g id="a_edge1_Node000001_Node000002"><a xlink:title=" ">
<path fill="none" stroke="#63b8ff" d="M66.25,-120.93C66.25,-112.86 66.25,-104.19 66.25,-95.75"/>
<polygon fill="none" stroke="#63b8ff" points="62.75,-120.71 66.25,-130.71 69.75,-120.71 62.75,-120.71"/>
</a>
</g>
</g>
</g>
</svg>
