<?xml version="1.0" encoding="UTF-8" standalone="no"?>
<!DOCTYPE svg PUBLIC "-//W3C//DTD SVG 1.1//EN"
 "http://www.w3.org/Graphics/SVG/1.1/DTD/svg11.dtd">
<!-- Generated by graphviz version 12.2.1 (20241206.2353)
 -->
<!-- Title: com.hust.ittnk68.cnpm.group.AccentToggleGroup Pages: 1 -->
<svg width="146pt" height="188pt"
 viewBox="0.00 0.00 145.75 188.00" xmlns="http://www.w3.org/2000/svg" xmlns:xlink="http://www.w3.org/1999/xlink">
<g id="graph0" class="graph" transform="scale(1 1) rotate(0) translate(4 184)">
<title>com.hust.ittnk68.cnpm.group.AccentToggleGroup</title>
<!-- Node1 -->
<g id="Node000001" class="node">
<title>Node1</title>
<g id="a_Node000001"><a xlink:title=" ">
<polygon fill="#999999" stroke="none" points="137.75,-80 0,-80 0,0 137.75,0 137.75,-80"/>
<text text-anchor="start" x="4" y="-66.5" font-family="Helvetica,sans-Serif" font-size="10.00">com.hust.ittnk68.cnpm.group.</text>
<text text-anchor="start" x="26.12" y="-54.5" font-family="Helvetica,sans-Serif" font-size="10.00">AccentToggleGroup</text>
<text text-anchor="start" x="67.38" y="-38.5" font-family="Helvetica,sans-Serif" font-size="10.00"> </text>
<text text-anchor="start" x="11.06" y="-22.5" font-family="Helvetica,sans-Serif" font-size="10.00">+</text>
<text text-anchor="start" x="28.12" y="-22.5" font-family="Helvetica,sans-Serif" font-size="10.00">setActive()</text>
<text text-anchor="start" x="11.06" y="-6.5" font-family="Helvetica,sans-Serif" font-size="10.00">+</text>
<text text-anchor="start" x="28.12" y="-6.5" font-family="Helvetica,sans-Serif" font-size="10.00">AccentToggleGroup()</text>
<polygon fill="#666666" stroke="#666666" points="0,-50 0,-50 137.75,-50 137.75,-50 0,-50"/>
<polygon fill="#666666" stroke="#666666" points="0,-34 0,-34 137.75,-34 137.75,-34 0,-34"/>
<polygon fill="none" stroke="#666666" points="0,0 0,-80 137.75,-80 137.75,0 0,0"/>
</a>
</g>
</g>
<!-- Node2 -->
<g id="Node000002" class="node">
<title>Node2</title>
<g id="a_Node000002"><a xlink:title=" ">
<polygon fill="white" stroke="none" points="104,-180 33.75,-180 33.75,-128 104,-128 104,-180"/>
<text text-anchor="start" x="37.75" y="-166.5" font-family="Helvetica,sans-Serif" font-size="10.00">List&lt; Button &gt;</text>
<text text-anchor="start" x="67.38" y="-150.5" font-family="Helvetica,sans-Serif" font-size="10.00"> </text>
<text text-anchor="start" x="67.38" y="-134.5" font-family="Helvetica,sans-Serif" font-size="10.00"> </text>
<polygon fill="#666666" stroke="#666666" points="33.75,-162 33.75,-162 104,-162 104,-162 33.75,-162"/>
<polygon fill="#666666" stroke="#666666" points="33.75,-146 33.75,-146 104,-146 104,-146 33.75,-146"/>
<polygon fill="none" stroke="#666666" points="33.75,-128 33.75,-180 104,-180 104,-128 33.75,-128"/>
</a>
</g>
</g>
<!-- Node2&#45;&gt;Node1 -->
<g id="edge1_Node000001_Node000002" class="edge">
<title>Node2&#45;&gt;Node1</title>
<g id="a_edge1_Node000001_Node000002"><a xlink:title=" ">
<path fill="none" stroke="#63b8ff" d="M68.88,-128.14C68.88,-117.62 68.88,-104.95 68.88,-92.56"/>
<polygon fill="none" stroke="#63b8ff" points="68.88,-92.77 64.88,-86.77 68.88,-80.77 72.88,-86.77 68.88,-92.77"/>
</a>
</g>
<text text-anchor="middle" x="79.75" y="-100.5" font-family="Helvetica,sans-Serif" font-size="10.00" fill="grey"> ~list</text>
</g>
</g>
</svg>
