<?xml version="1.0" encoding="UTF-8" standalone="no"?>
<!DOCTYPE svg PUBLIC "-//W3C//DTD SVG 1.1//EN"
 "http://www.w3.org/Graphics/SVG/1.1/DTD/svg11.dtd">
<!-- Generated by graphviz version 12.2.1 (20241206.2353)
 -->
<!-- Title: com.hust.ittnk68.cnpm.app.Server Pages: 1 -->
<svg width="138pt" height="88pt"
 viewBox="0.00 0.00 137.50 88.00" xmlns="http://www.w3.org/2000/svg" xmlns:xlink="http://www.w3.org/1999/xlink">
<g id="graph0" class="graph" transform="scale(1 1) rotate(0) translate(4 84)">
<title>com.hust.ittnk68.cnpm.app.Server</title>
<!-- Node1 -->
<g id="Node000001" class="node">
<title>Node1</title>
<g id="a_Node000001"><a xlink:title=" ">
<polygon fill="#999999" stroke="none" points="129.5,-80 0,-80 0,0 129.5,0 129.5,-80"/>
<text text-anchor="start" x="4" y="-66.5" font-family="Helvetica,sans-Serif" font-size="10.00">com.hust.ittnk68.cnpm.app.</text>
<text text-anchor="start" x="50.5" y="-54.5" font-family="Helvetica,sans-Serif" font-size="10.00">Server</text>
<text text-anchor="start" x="63.25" y="-38.5" font-family="Helvetica,sans-Serif" font-size="10.00"> </text>
<text text-anchor="start" x="15.38" y="-22.5" font-family="Helvetica,sans-Serif" font-size="10.00">+</text>
<text text-anchor="start" x="36.75" y="-22.5" font-family="Helvetica,sans-Serif" font-size="10.00">main()</text>
<text text-anchor="start" x="15.38" y="-6.5" font-family="Helvetica,sans-Serif" font-size="10.00">~</text>
<text text-anchor="start" x="36.75" y="-6.5" font-family="Helvetica,sans-Serif" font-size="10.00">exitGracefully()</text>
<polygon fill="#666666" stroke="#666666" points="0,-50 0,-50 129.5,-50 129.5,-50 0,-50"/>
<polygon fill="#666666" stroke="#666666" points="0,-34 0,-34 129.5,-34 129.5,-34 0,-34"/>
<polygon fill="none" stroke="#666666" points="0,0 0,-80 129.5,-80 129.5,0 0,0"/>
</a>
</g>
</g>
</g>
</svg>
