<?xml version="1.0" encoding="UTF-8" standalone="no"?>
<!DOCTYPE svg PUBLIC "-//W3C//DTD SVG 1.1//EN"
 "http://www.w3.org/Graphics/SVG/1.1/DTD/svg11.dtd">
<!-- Generated by graphviz version 12.2.1 (20241206.2353)
 -->
<!-- Title: com.hust.ittnk68.cnpm.view.AdminFamilyManagePage Pages: 1 -->
<svg width="146pt" height="260pt"
 viewBox="0.00 0.00 146.00 260.00" xmlns="http://www.w3.org/2000/svg" xmlns:xlink="http://www.w3.org/1999/xlink">
<g id="graph0" class="graph" transform="scale(1 1) rotate(0) translate(4 256)">
<title>com.hust.ittnk68.cnpm.view.AdminFamilyManagePage</title>
<!-- Node1 -->
<g id="Node000001" class="node">
<title>Node1</title>
<g id="a_Node000001"><a xlink:title=" ">
<polygon fill="#999999" stroke="none" points="138,-64 0,-64 0,0 138,0 138,-64"/>
<text text-anchor="start" x="6.75" y="-50.5" font-family="Helvetica,sans-Serif" font-size="10.00">com.hust.ittnk68.cnpm.view.</text>
<text text-anchor="start" x="12" y="-38.5" font-family="Helvetica,sans-Serif" font-size="10.00">AdminFamilyManagePage</text>
<text text-anchor="start" x="67.5" y="-22.5" font-family="Helvetica,sans-Serif" font-size="10.00"> </text>
<text text-anchor="start" x="4" y="-6.5" font-family="Helvetica,sans-Serif" font-size="10.00">+</text>
<text text-anchor="start" x="14" y="-6.5" font-family="Helvetica,sans-Serif" font-size="10.00">AdminFamilyManagePage()</text>
<polygon fill="#666666" stroke="#666666" points="0,-34 0,-34 138,-34 138,-34 0,-34"/>
<polygon fill="#666666" stroke="#666666" points="0,-18 0,-18 138,-18 138,-18 0,-18"/>
<polygon fill="none" stroke="#666666" points="0,0 0,-64 138,-64 138,0 0,0"/>
</a>
</g>
</g>
<!-- Node2 -->
<g id="Node000002" class="node">
<title>Node2</title>
<g id="a_Node000002"><a xlink:href="classcom_1_1hust_1_1ittnk68_1_1cnpm_1_1view_1_1DuongFXTabPane.html" target="_top" xlink:title=" ">
<polygon fill="white" stroke="none" points="135.25,-164 2.75,-164 2.75,-100 135.25,-100 135.25,-164"/>
<text text-anchor="start" x="6.75" y="-150.5" font-family="Helvetica,sans-Serif" font-size="10.00">com.hust.ittnk68.cnpm.view.</text>
<text text-anchor="start" x="29.25" y="-138.5" font-family="Helvetica,sans-Serif" font-size="10.00">DuongFXTabPane</text>
<text text-anchor="start" x="67.5" y="-122.5" font-family="Helvetica,sans-Serif" font-size="10.00"> </text>
<text text-anchor="start" x="14" y="-106.5" font-family="Helvetica,sans-Serif" font-size="10.00">+</text>
<text text-anchor="start" x="31.25" y="-106.5" font-family="Helvetica,sans-Serif" font-size="10.00">DuongFXTabPane()</text>
<polygon fill="#666666" stroke="#666666" points="2.75,-134 2.75,-134 135.25,-134 135.25,-134 2.75,-134"/>
<polygon fill="#666666" stroke="#666666" points="2.75,-118 2.75,-118 135.25,-118 135.25,-118 2.75,-118"/>
<polygon fill="none" stroke="#666666" points="2.75,-100 2.75,-164 135.25,-164 135.25,-100 2.75,-100"/>
</a>
</g>
</g>
<!-- Node2&#45;&gt;Node1 -->
<g id="edge1_Node000001_Node000002" class="edge">
<title>Node2&#45;&gt;Node1</title>
<g id="a_edge1_Node000001_Node000002"><a xlink:title=" ">
<path fill="none" stroke="#63b8ff" d="M69,-88.77C69,-80.44 69,-71.84 69,-63.97"/>
<polygon fill="none" stroke="#63b8ff" points="65.5,-88.75 69,-98.75 72.5,-88.75 65.5,-88.75"/>
</a>
</g>
</g>
<!-- Node3 -->
<g id="Node000003" class="node">
<title>Node3</title>
<g id="a_Node000003"><a xlink:href="classTabPane.html" target="_top" xlink:title=" ">
<polygon fill="white" stroke="none" points="92.12,-252 45.88,-252 45.88,-200 92.12,-200 92.12,-252"/>
<text text-anchor="start" x="49.88" y="-238.5" font-family="Helvetica,sans-Serif" font-size="10.00">TabPane</text>
<text text-anchor="start" x="67.5" y="-222.5" font-family="Helvetica,sans-Serif" font-size="10.00"> </text>
<text text-anchor="start" x="67.5" y="-206.5" font-family="Helvetica,sans-Serif" font-size="10.00"> </text>
<polygon fill="#666666" stroke="#666666" points="45.88,-234 45.88,-234 92.12,-234 92.12,-234 45.88,-234"/>
<polygon fill="#666666" stroke="#666666" points="45.88,-218 45.88,-218 92.12,-218 92.12,-218 45.88,-218"/>
<polygon fill="none" stroke="#666666" points="45.88,-200 45.88,-252 92.12,-252 92.12,-200 45.88,-200"/>
</a>
</g>
</g>
<!-- Node3&#45;&gt;Node2 -->
<g id="edge2_Node000002_Node000003" class="edge">
<title>Node3&#45;&gt;Node2</title>
<g id="a_edge2_Node000002_Node000003"><a xlink:title=" ">
<path fill="none" stroke="#63b8ff" d="M69,-189.06C69,-180.78 69,-172.04 69,-163.98"/>
<polygon fill="none" stroke="#63b8ff" points="65.5,-188.83 69,-198.83 72.5,-188.83 65.5,-188.83"/>
</a>
</g>
</g>
</g>
</svg>
