<?xml version="1.0" encoding="UTF-8" standalone="no"?>
<!DOCTYPE svg PUBLIC "-//W3C//DTD SVG 1.1//EN"
 "http://www.w3.org/Graphics/SVG/1.1/DTD/svg11.dtd">
<!-- Generated by graphviz version 12.2.1 (20241206.2353)
 -->
<!-- Title: Exception Pages: 1 -->
<svg width="338pt" height="160pt"
 viewBox="0.00 0.00 337.75 160.00" xmlns="http://www.w3.org/2000/svg" xmlns:xlink="http://www.w3.org/1999/xlink">
<g id="graph0" class="graph" transform="scale(1 1) rotate(0) translate(4 156)">
<title>Exception</title>
<!-- Node1 -->
<g id="Node000001" class="node">
<title>Node1</title>
<g id="a_Node000001"><a xlink:title=" ">
<polygon fill="#999999" stroke="none" points="190.62,-152 139.12,-152 139.12,-100 190.62,-100 190.62,-152"/>
<text text-anchor="start" x="143.12" y="-138.5" font-family="Helvetica,sans-Serif" font-size="10.00">Exception</text>
<text text-anchor="start" x="163.38" y="-122.5" font-family="Helvetica,sans-Serif" font-size="10.00"> </text>
<text text-anchor="start" x="163.38" y="-106.5" font-family="Helvetica,sans-Serif" font-size="10.00"> </text>
<polygon fill="#666666" stroke="#666666" points="139.12,-134 139.12,-134 190.62,-134 190.62,-134 139.12,-134"/>
<polygon fill="#666666" stroke="#666666" points="139.12,-118 139.12,-118 190.62,-118 190.62,-118 139.12,-118"/>
<polygon fill="none" stroke="#666666" points="139.12,-100 139.12,-152 190.62,-152 190.62,-100 139.12,-100"/>
</a>
</g>
</g>
<!-- Node2 -->
<g id="Node000002" class="node">
<title>Node2</title>
<g id="a_Node000002"><a xlink:href="classcom_1_1hust_1_1ittnk68_1_1cnpm_1_1exception_1_1ConfigFileException.html" target="_top" xlink:title=" ">
<polygon fill="white" stroke="none" points="155.75,-64 0,-64 0,0 155.75,0 155.75,-64"/>
<text text-anchor="start" x="4" y="-50.5" font-family="Helvetica,sans-Serif" font-size="10.00">com.hust.ittnk68.cnpm.exception.</text>
<text text-anchor="start" x="34" y="-38.5" font-family="Helvetica,sans-Serif" font-size="10.00">ConfigFileException</text>
<text text-anchor="start" x="76.38" y="-22.5" font-family="Helvetica,sans-Serif" font-size="10.00"> </text>
<text text-anchor="start" x="15" y="-6.5" font-family="Helvetica,sans-Serif" font-size="10.00">+</text>
<text text-anchor="start" x="36" y="-6.5" font-family="Helvetica,sans-Serif" font-size="10.00">ConfigFileException()</text>
<polygon fill="#666666" stroke="#666666" points="0,-34 0,-34 155.75,-34 155.75,-34 0,-34"/>
<polygon fill="#666666" stroke="#666666" points="0,-18 0,-18 155.75,-18 155.75,-18 0,-18"/>
<polygon fill="none" stroke="#666666" points="0,0 0,-64 155.75,-64 155.75,0 0,0"/>
</a>
</g>
</g>
<!-- Node1&#45;&gt;Node2 -->
<g id="edge1_Node000001_Node000002" class="edge">
<title>Node1&#45;&gt;Node2</title>
<g id="a_edge1_Node000001_Node000002"><a xlink:title=" ">
<path fill="none" stroke="#63b8ff" d="M133.84,-92.18C125.16,-83 115.75,-73.05 107.18,-63.98"/>
<polygon fill="none" stroke="#63b8ff" points="131.11,-94.39 140.52,-99.25 136.19,-89.58 131.11,-94.39"/>
</a>
</g>
</g>
<!-- Node3 -->
<g id="Node000003" class="node">
<title>Node3</title>
<g id="a_Node000003"><a xlink:href="classcom_1_1hust_1_1ittnk68_1_1cnpm_1_1exception_1_1UserCreateSecondSession.html" target="_top" xlink:title=" ">
<polygon fill="white" stroke="none" points="329.75,-64 174,-64 174,0 329.75,0 329.75,-64"/>
<text text-anchor="start" x="178" y="-50.5" font-family="Helvetica,sans-Serif" font-size="10.00">com.hust.ittnk68.cnpm.exception.</text>
<text text-anchor="start" x="192.62" y="-38.5" font-family="Helvetica,sans-Serif" font-size="10.00">UserCreateSecondSession</text>
<text text-anchor="start" x="250.38" y="-22.5" font-family="Helvetica,sans-Serif" font-size="10.00"> </text>
<text text-anchor="start" x="181.31" y="-6.5" font-family="Helvetica,sans-Serif" font-size="10.00">+</text>
<text text-anchor="start" x="194.62" y="-6.5" font-family="Helvetica,sans-Serif" font-size="10.00">UserCreateSecondSession()</text>
<polygon fill="#666666" stroke="#666666" points="174,-34 174,-34 329.75,-34 329.75,-34 174,-34"/>
<polygon fill="#666666" stroke="#666666" points="174,-18 174,-18 329.75,-18 329.75,-18 174,-18"/>
<polygon fill="none" stroke="#666666" points="174,0 174,-64 329.75,-64 329.75,0 174,0"/>
</a>
</g>
</g>
<!-- Node1&#45;&gt;Node3 -->
<g id="edge2_Node000001_Node000003" class="edge">
<title>Node1&#45;&gt;Node3</title>
<g id="a_edge2_Node000001_Node000003"><a xlink:title=" ">
<path fill="none" stroke="#63b8ff" d="M195.91,-92.18C204.59,-83 214,-73.05 222.57,-63.98"/>
<polygon fill="none" stroke="#63b8ff" points="193.56,-89.58 189.23,-99.25 198.64,-94.39 193.56,-89.58"/>
</a>
</g>
</g>
</g>
</svg>
