<?xml version="1.0" encoding="UTF-8" standalone="no"?>
<!DOCTYPE svg PUBLIC "-//W3C//DTD SVG 1.1//EN"
 "http://www.w3.org/Graphics/SVG/1.1/DTD/svg11.dtd">
<!-- Generated by graphviz version 12.2.1 (20241206.2353)
 -->
<!-- Title: com.hust.ittnk68.cnpm.communication.ClientMessageBase Pages: 1 -->
<svg width="1772pt" height="332pt"
 viewBox="0.00 0.00 1771.75 332.00" xmlns="http://www.w3.org/2000/svg" xmlns:xlink="http://www.w3.org/1999/xlink">
<g id="graph0" class="graph" transform="scale(1 1) rotate(0) translate(4 328)">
<title>com.hust.ittnk68.cnpm.communication.ClientMessageBase</title>
<!-- Node1 -->
<g id="Node000001" class="node">
<title>Node1</title>
<g id="a_Node000001"><a xlink:title=" ">
<polygon fill="#999999" stroke="none" points="971.75,-324 792,-324 792,-228 971.75,-228 971.75,-324"/>
<text text-anchor="start" x="796" y="-310.5" font-family="Helvetica,sans-Serif" font-size="10.00">com.hust.ittnk68.cnpm.communication.</text>
<text text-anchor="start" x="838" y="-298.5" font-family="Helvetica,sans-Serif" font-size="10.00">ClientMessageBase</text>
<text text-anchor="start" x="880.38" y="-282.5" font-family="Helvetica,sans-Serif" font-size="10.00"> </text>
<text text-anchor="start" x="813" y="-266.5" font-family="Helvetica,sans-Serif" font-size="10.00">+</text>
<text text-anchor="start" x="840" y="-266.5" font-family="Helvetica,sans-Serif" font-size="10.00">getUsername()</text>
<text text-anchor="start" x="813" y="-250.5" font-family="Helvetica,sans-Serif" font-size="10.00">+</text>
<text text-anchor="start" x="840" y="-250.5" font-family="Helvetica,sans-Serif" font-size="10.00">setUsername()</text>
<text text-anchor="start" x="813" y="-234.5" font-family="Helvetica,sans-Serif" font-size="10.00">~</text>
<text text-anchor="start" x="840" y="-234.5" font-family="Helvetica,sans-Serif" font-size="10.00">ClientMessageBase()</text>
<polygon fill="#666666" stroke="#666666" points="792,-294 792,-294 971.75,-294 971.75,-294 792,-294"/>
<polygon fill="#666666" stroke="#666666" points="792,-278 792,-278 971.75,-278 971.75,-278 792,-278"/>
<polygon fill="none" stroke="#666666" points="792,-228 792,-324 971.75,-324 971.75,-228 792,-228"/>
</a>
</g>
</g>
<!-- Node2 -->
<g id="Node000002" class="node">
<title>Node2</title>
<g id="a_Node000002"><a xlink:href="classcom_1_1hust_1_1ittnk68_1_1cnpm_1_1communication_1_1AdminCreateObject.html" target="_top" xlink:title=" ">
<polygon fill="white" stroke="none" points="179.75,-144 0,-144 0,-48 179.75,-48 179.75,-144"/>
<text text-anchor="start" x="4" y="-130.5" font-family="Helvetica,sans-Serif" font-size="10.00">com.hust.ittnk68.cnpm.communication.</text>
<text text-anchor="start" x="47.12" y="-118.5" font-family="Helvetica,sans-Serif" font-size="10.00">AdminCreateObject</text>
<text text-anchor="start" x="21.56" y="-102.5" font-family="Helvetica,sans-Serif" font-size="10.00">~</text>
<text text-anchor="start" x="49.12" y="-102.5" font-family="Helvetica,sans-Serif" font-size="10.00">object</text>
<text text-anchor="start" x="21.56" y="-86.5" font-family="Helvetica,sans-Serif" font-size="10.00">+</text>
<text text-anchor="start" x="49.12" y="-86.5" font-family="Helvetica,sans-Serif" font-size="10.00">AdminCreateObject()</text>
<text text-anchor="start" x="21.56" y="-70.5" font-family="Helvetica,sans-Serif" font-size="10.00">+</text>
<text text-anchor="start" x="49.12" y="-70.5" font-family="Helvetica,sans-Serif" font-size="10.00">getObject()</text>
<text text-anchor="start" x="21.56" y="-54.5" font-family="Helvetica,sans-Serif" font-size="10.00">+</text>
<text text-anchor="start" x="49.12" y="-54.5" font-family="Helvetica,sans-Serif" font-size="10.00">setObject()</text>
<polygon fill="#666666" stroke="#666666" points="0,-114 0,-114 179.75,-114 179.75,-114 0,-114"/>
<polygon fill="#666666" stroke="#666666" points="0,-98 0,-98 47.12,-98 47.12,-98 0,-98"/>
<polygon fill="#666666" stroke="#666666" points="47.12,-98 47.12,-98 179.75,-98 179.75,-98 47.12,-98"/>
<polygon fill="none" stroke="#666666" points="0,-48 0,-144 179.75,-144 179.75,-48 0,-48"/>
</a>
</g>
</g>
<!-- Node1&#45;&gt;Node2 -->
<g id="edge1_Node000001_Node000002" class="edge">
<title>Node1&#45;&gt;Node2</title>
<g id="a_edge1_Node000001_Node000002"><a xlink:title=" ">
<path fill="none" stroke="#63b8ff" d="M780.83,-270.75C614.54,-262.46 291.39,-240.51 188.88,-192 165.19,-180.79 143.58,-161.68 126.64,-143.52"/>
<polygon fill="none" stroke="#63b8ff" points="780.37,-274.23 790.53,-271.23 780.71,-267.24 780.37,-274.23"/>
</a>
</g>
</g>
<!-- Node3 -->
<g id="Node000003" class="node">
<title>Node3</title>
<g id="a_Node000003"><a xlink:href="classcom_1_1hust_1_1ittnk68_1_1cnpm_1_1communication_1_1AdminDeleteObject.html" target="_top" xlink:title=" ">
<polygon fill="white" stroke="none" points="377.75,-152 198,-152 198,-40 377.75,-40 377.75,-152"/>
<text text-anchor="start" x="202" y="-138.5" font-family="Helvetica,sans-Serif" font-size="10.00">com.hust.ittnk68.cnpm.communication.</text>
<text text-anchor="start" x="245.5" y="-126.5" font-family="Helvetica,sans-Serif" font-size="10.00">AdminDeleteObject</text>
<text text-anchor="start" x="286.38" y="-110.5" font-family="Helvetica,sans-Serif" font-size="10.00"> </text>
<text text-anchor="start" x="219.75" y="-94.5" font-family="Helvetica,sans-Serif" font-size="10.00">+</text>
<text text-anchor="start" x="247.5" y="-94.5" font-family="Helvetica,sans-Serif" font-size="10.00">AdminDeleteObject()</text>
<text text-anchor="start" x="219.75" y="-78.5" font-family="Helvetica,sans-Serif" font-size="10.00">+</text>
<text text-anchor="start" x="247.5" y="-78.5" font-family="Helvetica,sans-Serif" font-size="10.00">getCondition()</text>
<text text-anchor="start" x="219.75" y="-62.5" font-family="Helvetica,sans-Serif" font-size="10.00">+</text>
<text text-anchor="start" x="247.5" y="-62.5" font-family="Helvetica,sans-Serif" font-size="10.00">getObject()</text>
<text text-anchor="start" x="219.75" y="-46.5" font-family="Helvetica,sans-Serif" font-size="10.00">+</text>
<text text-anchor="start" x="247.5" y="-46.5" font-family="Helvetica,sans-Serif" font-size="10.00">setObject()</text>
<polygon fill="#666666" stroke="#666666" points="198,-122 198,-122 377.75,-122 377.75,-122 198,-122"/>
<polygon fill="#666666" stroke="#666666" points="198,-106 198,-106 377.75,-106 377.75,-106 198,-106"/>
<polygon fill="none" stroke="#666666" points="198,-40 198,-152 377.75,-152 377.75,-40 198,-40"/>
</a>
</g>
</g>
<!-- Node1&#45;&gt;Node3 -->
<g id="edge2_Node000001_Node000003" class="edge">
<title>Node1&#45;&gt;Node3</title>
<g id="a_edge2_Node000001_Node000003"><a xlink:title=" ">
<path fill="none" stroke="#63b8ff" d="M780.7,-265.15C656.55,-251.83 454.22,-225.83 386.88,-192 367.29,-182.16 349,-167.13 333.6,-151.9"/>
<polygon fill="none" stroke="#63b8ff" points="780.28,-268.62 790.59,-266.2 781.02,-261.66 780.28,-268.62"/>
</a>
</g>
</g>
<!-- Node4 -->
<g id="Node000004" class="node">
<title>Node4</title>
<g id="a_Node000004"><a xlink:href="classcom_1_1hust_1_1ittnk68_1_1cnpm_1_1communication_1_1AdminFindObject.html" target="_top" xlink:title=" ">
<polygon fill="white" stroke="none" points="575.75,-160 396,-160 396,-32 575.75,-32 575.75,-160"/>
<text text-anchor="start" x="400" y="-146.5" font-family="Helvetica,sans-Serif" font-size="10.00">com.hust.ittnk68.cnpm.communication.</text>
<text text-anchor="start" x="448.38" y="-134.5" font-family="Helvetica,sans-Serif" font-size="10.00">AdminFindObject</text>
<text text-anchor="start" x="484.38" y="-118.5" font-family="Helvetica,sans-Serif" font-size="10.00"> </text>
<text text-anchor="start" x="420.19" y="-102.5" font-family="Helvetica,sans-Serif" font-size="10.00">+</text>
<text text-anchor="start" x="450.38" y="-102.5" font-family="Helvetica,sans-Serif" font-size="10.00">AdminFindObject()</text>
<text text-anchor="start" x="420.19" y="-86.5" font-family="Helvetica,sans-Serif" font-size="10.00">+</text>
<text text-anchor="start" x="450.38" y="-86.5" font-family="Helvetica,sans-Serif" font-size="10.00">getCondition()</text>
<text text-anchor="start" x="420.19" y="-70.5" font-family="Helvetica,sans-Serif" font-size="10.00">+</text>
<text text-anchor="start" x="450.38" y="-70.5" font-family="Helvetica,sans-Serif" font-size="10.00">setCondition()</text>
<text text-anchor="start" x="420.19" y="-54.5" font-family="Helvetica,sans-Serif" font-size="10.00">+</text>
<text text-anchor="start" x="450.38" y="-54.5" font-family="Helvetica,sans-Serif" font-size="10.00">getObject()</text>
<text text-anchor="start" x="420.19" y="-38.5" font-family="Helvetica,sans-Serif" font-size="10.00">+</text>
<text text-anchor="start" x="450.38" y="-38.5" font-family="Helvetica,sans-Serif" font-size="10.00">setObject()</text>
<polygon fill="#666666" stroke="#666666" points="396,-130 396,-130 575.75,-130 575.75,-130 396,-130"/>
<polygon fill="#666666" stroke="#666666" points="396,-114 396,-114 575.75,-114 575.75,-114 396,-114"/>
<polygon fill="none" stroke="#666666" points="396,-32 396,-160 575.75,-160 575.75,-32 396,-32"/>
</a>
</g>
</g>
<!-- Node1&#45;&gt;Node4 -->
<g id="edge3_Node000001_Node000004" class="edge">
<title>Node1&#45;&gt;Node4</title>
<g id="a_edge3_Node000001_Node000004"><a xlink:title=" ">
<path fill="none" stroke="#63b8ff" d="M781.32,-259.65C721.41,-247.49 645.5,-226.6 584.88,-192 569.67,-183.32 555.03,-171.79 541.9,-159.77"/>
<polygon fill="none" stroke="#63b8ff" points="780.33,-263.03 790.82,-261.53 781.69,-256.16 780.33,-263.03"/>
</a>
</g>
</g>
<!-- Node5 -->
<g id="Node000005" class="node">
<title>Node5</title>
<g id="a_Node000005"><a xlink:href="classcom_1_1hust_1_1ittnk68_1_1cnpm_1_1communication_1_1AdminUpdateObject.html" target="_top" xlink:title=" ">
<polygon fill="white" stroke="none" points="773.75,-144 594,-144 594,-48 773.75,-48 773.75,-144"/>
<text text-anchor="start" x="598" y="-130.5" font-family="Helvetica,sans-Serif" font-size="10.00">com.hust.ittnk68.cnpm.communication.</text>
<text text-anchor="start" x="640" y="-118.5" font-family="Helvetica,sans-Serif" font-size="10.00">AdminUpdateObject</text>
<text text-anchor="start" x="682.38" y="-102.5" font-family="Helvetica,sans-Serif" font-size="10.00"> </text>
<text text-anchor="start" x="615" y="-86.5" font-family="Helvetica,sans-Serif" font-size="10.00">+</text>
<text text-anchor="start" x="642" y="-86.5" font-family="Helvetica,sans-Serif" font-size="10.00">AdminUpdateObject()</text>
<text text-anchor="start" x="615" y="-70.5" font-family="Helvetica,sans-Serif" font-size="10.00">+</text>
<text text-anchor="start" x="642" y="-70.5" font-family="Helvetica,sans-Serif" font-size="10.00">getObject()</text>
<text text-anchor="start" x="615" y="-54.5" font-family="Helvetica,sans-Serif" font-size="10.00">+</text>
<text text-anchor="start" x="642" y="-54.5" font-family="Helvetica,sans-Serif" font-size="10.00">setObject()</text>
<polygon fill="#666666" stroke="#666666" points="594,-114 594,-114 773.75,-114 773.75,-114 594,-114"/>
<polygon fill="#666666" stroke="#666666" points="594,-98 594,-98 773.75,-98 773.75,-98 594,-98"/>
<polygon fill="none" stroke="#666666" points="594,-48 594,-144 773.75,-144 773.75,-48 594,-48"/>
</a>
</g>
</g>
<!-- Node1&#45;&gt;Node5 -->
<g id="edge4_Node000001_Node000005" class="edge">
<title>Node1&#45;&gt;Node5</title>
<g id="a_edge4_Node000001_Node000005"><a xlink:title=" ">
<path fill="none" stroke="#63b8ff" d="M816.03,-220.85C804.86,-211.36 793.45,-201.49 782.88,-192 765.76,-176.65 747.49,-159.37 731.35,-143.8"/>
<polygon fill="none" stroke="#63b8ff" points="813.46,-223.26 823.36,-227.05 817.98,-217.92 813.46,-223.26"/>
</a>
</g>
</g>
<!-- Node6 -->
<g id="Node000006" class="node">
<title>Node6</title>
<g id="a_Node000006"><a xlink:href="classcom_1_1hust_1_1ittnk68_1_1cnpm_1_1communication_1_1PaymentRequest.html" target="_top" xlink:title=" ">
<polygon fill="white" stroke="none" points="971.75,-160 792,-160 792,-32 971.75,-32 971.75,-160"/>
<text text-anchor="start" x="796" y="-146.5" font-family="Helvetica,sans-Serif" font-size="10.00">com.hust.ittnk68.cnpm.communication.</text>
<text text-anchor="start" x="844" y="-134.5" font-family="Helvetica,sans-Serif" font-size="10.00">PaymentRequest</text>
<text text-anchor="start" x="880.38" y="-118.5" font-family="Helvetica,sans-Serif" font-size="10.00"> </text>
<text text-anchor="start" x="812.62" y="-102.5" font-family="Helvetica,sans-Serif" font-size="10.00">+</text>
<text text-anchor="start" x="839.25" y="-102.5" font-family="Helvetica,sans-Serif" font-size="10.00">PaymentRequest()</text>
<text text-anchor="start" x="812.62" y="-86.5" font-family="Helvetica,sans-Serif" font-size="10.00">+</text>
<text text-anchor="start" x="839.25" y="-86.5" font-family="Helvetica,sans-Serif" font-size="10.00">getPaymentStatusId()</text>
<text text-anchor="start" x="812.62" y="-70.5" font-family="Helvetica,sans-Serif" font-size="10.00">+</text>
<text text-anchor="start" x="839.25" y="-70.5" font-family="Helvetica,sans-Serif" font-size="10.00">setPaymentStatusId()</text>
<text text-anchor="start" x="812.62" y="-54.5" font-family="Helvetica,sans-Serif" font-size="10.00">+</text>
<text text-anchor="start" x="839.25" y="-54.5" font-family="Helvetica,sans-Serif" font-size="10.00">getAmount()</text>
<text text-anchor="start" x="812.62" y="-38.5" font-family="Helvetica,sans-Serif" font-size="10.00">+</text>
<text text-anchor="start" x="839.25" y="-38.5" font-family="Helvetica,sans-Serif" font-size="10.00">setAmount()</text>
<polygon fill="#666666" stroke="#666666" points="792,-130 792,-130 971.75,-130 971.75,-130 792,-130"/>
<polygon fill="#666666" stroke="#666666" points="792,-114 792,-114 971.75,-114 971.75,-114 792,-114"/>
<polygon fill="none" stroke="#666666" points="792,-32 792,-160 971.75,-160 971.75,-32 792,-32"/>
</a>
</g>
</g>
<!-- Node1&#45;&gt;Node6 -->
<g id="edge5_Node000001_Node000006" class="edge">
<title>Node1&#45;&gt;Node6</title>
<g id="a_edge5_Node000001_Node000006"><a xlink:title=" ">
<path fill="none" stroke="#63b8ff" d="M881.88,-216.87C881.88,-198.62 881.88,-178.41 881.88,-159.85"/>
<polygon fill="none" stroke="#63b8ff" points="878.38,-216.72 881.88,-226.72 885.38,-216.72 878.38,-216.72"/>
</a>
</g>
</g>
<!-- Node7 -->
<g id="Node000007" class="node">
<title>Node7</title>
<g id="a_Node000007"><a xlink:href="classcom_1_1hust_1_1ittnk68_1_1cnpm_1_1communication_1_1UserGetPaymentQrCode.html" target="_top" xlink:title=" ">
<polygon fill="white" stroke="none" points="1169.75,-192 990,-192 990,0 1169.75,0 1169.75,-192"/>
<text text-anchor="start" x="994" y="-178.5" font-family="Helvetica,sans-Serif" font-size="10.00">com.hust.ittnk68.cnpm.communication.</text>
<text text-anchor="start" x="1025.12" y="-166.5" font-family="Helvetica,sans-Serif" font-size="10.00">UserGetPaymentQrCode</text>
<text text-anchor="start" x="1078.38" y="-150.5" font-family="Helvetica,sans-Serif" font-size="10.00"> </text>
<text text-anchor="start" x="1005.56" y="-134.5" font-family="Helvetica,sans-Serif" font-size="10.00">+</text>
<text text-anchor="start" x="1027.12" y="-134.5" font-family="Helvetica,sans-Serif" font-size="10.00">UserGetPaymentQrCode()</text>
<text text-anchor="start" x="1005.56" y="-118.5" font-family="Helvetica,sans-Serif" font-size="10.00">+</text>
<text text-anchor="start" x="1027.12" y="-118.5" font-family="Helvetica,sans-Serif" font-size="10.00">getPaymentRequest()</text>
<text text-anchor="start" x="1005.56" y="-102.5" font-family="Helvetica,sans-Serif" font-size="10.00">+</text>
<text text-anchor="start" x="1027.12" y="-102.5" font-family="Helvetica,sans-Serif" font-size="10.00">setPaymentRequest()</text>
<text text-anchor="start" x="1005.56" y="-86.5" font-family="Helvetica,sans-Serif" font-size="10.00">+</text>
<text text-anchor="start" x="1027.12" y="-86.5" font-family="Helvetica,sans-Serif" font-size="10.00">getWidth()</text>
<text text-anchor="start" x="1005.56" y="-70.5" font-family="Helvetica,sans-Serif" font-size="10.00">+</text>
<text text-anchor="start" x="1027.12" y="-70.5" font-family="Helvetica,sans-Serif" font-size="10.00">setWidth()</text>
<text text-anchor="start" x="1005.56" y="-54.5" font-family="Helvetica,sans-Serif" font-size="10.00">+</text>
<text text-anchor="start" x="1027.12" y="-54.5" font-family="Helvetica,sans-Serif" font-size="10.00">getHeight()</text>
<text text-anchor="start" x="1005.56" y="-38.5" font-family="Helvetica,sans-Serif" font-size="10.00">+</text>
<text text-anchor="start" x="1027.12" y="-38.5" font-family="Helvetica,sans-Serif" font-size="10.00">setHeight()</text>
<text text-anchor="start" x="1005.56" y="-22.5" font-family="Helvetica,sans-Serif" font-size="10.00">+</text>
<text text-anchor="start" x="1027.12" y="-22.5" font-family="Helvetica,sans-Serif" font-size="10.00">getServerUrl()</text>
<text text-anchor="start" x="1005.56" y="-6.5" font-family="Helvetica,sans-Serif" font-size="10.00">+</text>
<text text-anchor="start" x="1027.12" y="-6.5" font-family="Helvetica,sans-Serif" font-size="10.00">setServerUrl()</text>
<polygon fill="#666666" stroke="#666666" points="990,-162 990,-162 1169.75,-162 1169.75,-162 990,-162"/>
<polygon fill="#666666" stroke="#666666" points="990,-146 990,-146 1169.75,-146 1169.75,-146 990,-146"/>
<polygon fill="none" stroke="#666666" points="990,0 990,-192 1169.75,-192 1169.75,0 990,0"/>
</a>
</g>
</g>
<!-- Node1&#45;&gt;Node7 -->
<g id="edge6_Node000001_Node000007" class="edge">
<title>Node1&#45;&gt;Node7</title>
<g id="a_edge6_Node000001_Node000007"><a xlink:title=" ">
<path fill="none" stroke="#63b8ff" d="M947.72,-220.85C958.89,-211.36 970.3,-201.49 980.88,-192 983.89,-189.3 986.94,-186.53 990.01,-183.73"/>
<polygon fill="none" stroke="#63b8ff" points="945.77,-217.92 940.39,-227.05 950.29,-223.26 945.77,-217.92"/>
</a>
</g>
</g>
<!-- Node8 -->
<g id="Node000008" class="node">
<title>Node8</title>
<g id="a_Node000008"><a xlink:href="classcom_1_1hust_1_1ittnk68_1_1cnpm_1_1communication_1_1UserQueryObjectById.html" target="_top" xlink:title=" ">
<polygon fill="white" stroke="none" points="1367.75,-144 1188,-144 1188,-48 1367.75,-48 1367.75,-144"/>
<text text-anchor="start" x="1192" y="-130.5" font-family="Helvetica,sans-Serif" font-size="10.00">com.hust.ittnk68.cnpm.communication.</text>
<text text-anchor="start" x="1229.88" y="-118.5" font-family="Helvetica,sans-Serif" font-size="10.00">UserQueryObjectById</text>
<text text-anchor="start" x="1206.94" y="-102.5" font-family="Helvetica,sans-Serif" font-size="10.00">~</text>
<text text-anchor="start" x="1231.88" y="-102.5" font-family="Helvetica,sans-Serif" font-size="10.00">object</text>
<text text-anchor="start" x="1206.94" y="-86.5" font-family="Helvetica,sans-Serif" font-size="10.00">+</text>
<text text-anchor="start" x="1231.88" y="-86.5" font-family="Helvetica,sans-Serif" font-size="10.00">UserQueryObjectById()</text>
<text text-anchor="start" x="1206.94" y="-70.5" font-family="Helvetica,sans-Serif" font-size="10.00">+</text>
<text text-anchor="start" x="1231.88" y="-70.5" font-family="Helvetica,sans-Serif" font-size="10.00">getObject()</text>
<text text-anchor="start" x="1206.94" y="-54.5" font-family="Helvetica,sans-Serif" font-size="10.00">+</text>
<text text-anchor="start" x="1231.88" y="-54.5" font-family="Helvetica,sans-Serif" font-size="10.00">setObject()</text>
<polygon fill="#666666" stroke="#666666" points="1188,-114 1188,-114 1367.75,-114 1367.75,-114 1188,-114"/>
<polygon fill="#666666" stroke="#666666" points="1188,-98 1188,-98 1229.88,-98 1229.88,-98 1188,-98"/>
<polygon fill="#666666" stroke="#666666" points="1229.88,-98 1229.88,-98 1367.75,-98 1367.75,-98 1229.88,-98"/>
<polygon fill="none" stroke="#666666" points="1188,-48 1188,-144 1367.75,-144 1367.75,-48 1188,-48"/>
</a>
</g>
</g>
<!-- Node1&#45;&gt;Node8 -->
<g id="edge7_Node000001_Node000008" class="edge">
<title>Node1&#45;&gt;Node8</title>
<g id="a_edge7_Node000001_Node000008"><a xlink:title=" ">
<path fill="none" stroke="#63b8ff" d="M982.43,-259.65C1042.34,-247.49 1118.25,-226.6 1178.88,-192 1200.8,-179.48 1221.55,-161.04 1238.33,-143.73"/>
<polygon fill="none" stroke="#63b8ff" points="982.06,-256.16 972.93,-261.53 983.42,-263.03 982.06,-256.16"/>
</a>
</g>
</g>
<!-- Node9 -->
<g id="Node000009" class="node">
<title>Node9</title>
<g id="a_Node000009"><a xlink:href="classcom_1_1hust_1_1ittnk68_1_1cnpm_1_1communication_1_1UserQueryPaymentStatus.html" target="_top" xlink:title=" ">
<polygon fill="white" stroke="none" points="1565.75,-128 1386,-128 1386,-64 1565.75,-64 1565.75,-128"/>
<text text-anchor="start" x="1390" y="-114.5" font-family="Helvetica,sans-Serif" font-size="10.00">com.hust.ittnk68.cnpm.communication.</text>
<text text-anchor="start" x="1418.5" y="-102.5" font-family="Helvetica,sans-Serif" font-size="10.00">UserQueryPaymentStatus</text>
<text text-anchor="start" x="1474.38" y="-86.5" font-family="Helvetica,sans-Serif" font-size="10.00"> </text>
<text text-anchor="start" x="1400.25" y="-70.5" font-family="Helvetica,sans-Serif" font-size="10.00">+</text>
<text text-anchor="start" x="1420.5" y="-70.5" font-family="Helvetica,sans-Serif" font-size="10.00">UserQueryPaymentStatus()</text>
<polygon fill="#666666" stroke="#666666" points="1386,-98 1386,-98 1565.75,-98 1565.75,-98 1386,-98"/>
<polygon fill="#666666" stroke="#666666" points="1386,-82 1386,-82 1565.75,-82 1565.75,-82 1386,-82"/>
<polygon fill="none" stroke="#666666" points="1386,-64 1386,-128 1565.75,-128 1565.75,-64 1386,-64"/>
</a>
</g>
</g>
<!-- Node1&#45;&gt;Node9 -->
<g id="edge8_Node000001_Node000009" class="edge">
<title>Node1&#45;&gt;Node9</title>
<g id="a_edge8_Node000001_Node000009"><a xlink:title=" ">
<path fill="none" stroke="#63b8ff" d="M983.05,-265.15C1107.2,-251.83 1309.53,-225.83 1376.88,-192 1407.1,-176.82 1434.26,-149.25 1452.45,-127.71"/>
<polygon fill="none" stroke="#63b8ff" points="982.73,-261.66 973.16,-266.2 983.47,-268.62 982.73,-261.66"/>
</a>
</g>
</g>
<!-- Node10 -->
<g id="Node000010" class="node">
<title>Node10</title>
<g id="a_Node000010"><a xlink:href="classcom_1_1hust_1_1ittnk68_1_1cnpm_1_1communication_1_1UserQueryPersonByFId.html" target="_top" xlink:title=" ">
<polygon fill="white" stroke="none" points="1763.75,-128 1584,-128 1584,-64 1763.75,-64 1763.75,-128"/>
<text text-anchor="start" x="1588" y="-114.5" font-family="Helvetica,sans-Serif" font-size="10.00">com.hust.ittnk68.cnpm.communication.</text>
<text text-anchor="start" x="1621.75" y="-102.5" font-family="Helvetica,sans-Serif" font-size="10.00">UserQueryPersonByFId</text>
<text text-anchor="start" x="1672.38" y="-86.5" font-family="Helvetica,sans-Serif" font-size="10.00"> </text>
<text text-anchor="start" x="1600.88" y="-70.5" font-family="Helvetica,sans-Serif" font-size="10.00">+</text>
<text text-anchor="start" x="1623.75" y="-70.5" font-family="Helvetica,sans-Serif" font-size="10.00">UserQueryPersonByFId()</text>
<polygon fill="#666666" stroke="#666666" points="1584,-98 1584,-98 1763.75,-98 1763.75,-98 1584,-98"/>
<polygon fill="#666666" stroke="#666666" points="1584,-82 1584,-82 1763.75,-82 1763.75,-82 1584,-82"/>
<polygon fill="none" stroke="#666666" points="1584,-64 1584,-128 1763.75,-128 1763.75,-64 1584,-64"/>
</a>
</g>
</g>
<!-- Node1&#45;&gt;Node10 -->
<g id="edge9_Node000001_Node000010" class="edge">
<title>Node1&#45;&gt;Node10</title>
<g id="a_edge9_Node000001_Node000010"><a xlink:title=" ">
<path fill="none" stroke="#63b8ff" d="M982.92,-270.75C1149.21,-262.46 1472.36,-240.51 1574.88,-192 1605.67,-177.43 1632.95,-149.49 1651.03,-127.67"/>
<polygon fill="none" stroke="#63b8ff" points="983.04,-267.24 973.22,-271.23 983.38,-274.23 983.04,-267.24"/>
</a>
</g>
</g>
</g>
</svg>
