<?xml version="1.0" encoding="UTF-8" standalone="no"?>
<!DOCTYPE svg PUBLIC "-//W3C//DTD SVG 1.1//EN"
 "http://www.w3.org/Graphics/SVG/1.1/DTD/svg11.dtd">
<!-- Generated by graphviz version 12.2.1 (20241206.2353)
 -->
<!-- Title: Button Pages: 1 -->
<svg width="292pt" height="160pt"
 viewBox="0.00 0.00 291.50 160.00" xmlns="http://www.w3.org/2000/svg" xmlns:xlink="http://www.w3.org/1999/xlink">
<g id="graph0" class="graph" transform="scale(1 1) rotate(0) translate(4 156)">
<title>Button</title>
<!-- Node1 -->
<g id="Node000001" class="node">
<title>Node1</title>
<g id="a_Node000001"><a xlink:title=" ">
<polygon fill="#999999" stroke="none" points="159.5,-152 123,-152 123,-100 159.5,-100 159.5,-152"/>
<text text-anchor="start" x="127" y="-138.5" font-family="Helvetica,sans-Serif" font-size="10.00">Button</text>
<text text-anchor="start" x="139.75" y="-122.5" font-family="Helvetica,sans-Serif" font-size="10.00"> </text>
<text text-anchor="start" x="139.75" y="-106.5" font-family="Helvetica,sans-Serif" font-size="10.00"> </text>
<polygon fill="#666666" stroke="#666666" points="123,-134 123,-134 159.5,-134 159.5,-134 123,-134"/>
<polygon fill="#666666" stroke="#666666" points="123,-118 123,-118 159.5,-118 159.5,-118 123,-118"/>
<polygon fill="none" stroke="#666666" points="123,-100 123,-152 159.5,-152 159.5,-100 123,-100"/>
</a>
</g>
</g>
<!-- Node2 -->
<g id="Node000002" class="node">
<title>Node2</title>
<g id="a_Node000002"><a xlink:href="classcom_1_1hust_1_1ittnk68_1_1cnpm_1_1view_1_1CustomButton.html" target="_top" xlink:title=" ">
<polygon fill="white" stroke="none" points="132.5,-64 0,-64 0,0 132.5,0 132.5,-64"/>
<text text-anchor="start" x="4" y="-50.5" font-family="Helvetica,sans-Serif" font-size="10.00">com.hust.ittnk68.cnpm.view.</text>
<text text-anchor="start" x="34.75" y="-38.5" font-family="Helvetica,sans-Serif" font-size="10.00">CustomButton</text>
<text text-anchor="start" x="64.75" y="-22.5" font-family="Helvetica,sans-Serif" font-size="10.00"> </text>
<text text-anchor="start" x="15.38" y="-6.5" font-family="Helvetica,sans-Serif" font-size="10.00">+</text>
<text text-anchor="start" x="36.75" y="-6.5" font-family="Helvetica,sans-Serif" font-size="10.00">CustomButton()</text>
<polygon fill="#666666" stroke="#666666" points="0,-34 0,-34 132.5,-34 132.5,-34 0,-34"/>
<polygon fill="#666666" stroke="#666666" points="0,-18 0,-18 132.5,-18 132.5,-18 0,-18"/>
<polygon fill="none" stroke="#666666" points="0,0 0,-64 132.5,-64 132.5,0 0,0"/>
</a>
</g>
</g>
<!-- Node1&#45;&gt;Node2 -->
<g id="edge1_Node000001_Node000002" class="edge">
<title>Node1&#45;&gt;Node2</title>
<g id="a_edge1_Node000001_Node000002"><a xlink:title=" ">
<path fill="none" stroke="#63b8ff" d="M116.06,-94.1C108.09,-84.32 99.28,-73.52 91.32,-63.75"/>
<polygon fill="none" stroke="#63b8ff" points="113.11,-96.02 122.14,-101.56 118.53,-91.59 113.11,-96.02"/>
</a>
</g>
</g>
<!-- Node3 -->
<g id="Node000003" class="node">
<title>Node3</title>
<g id="a_Node000003"><a xlink:href="classcom_1_1hust_1_1ittnk68_1_1cnpm_1_1view_1_1IconButton.html" target="_top" xlink:title=" ">
<polygon fill="white" stroke="none" points="283.5,-64 151,-64 151,0 283.5,0 283.5,-64"/>
<text text-anchor="start" x="155" y="-50.5" font-family="Helvetica,sans-Serif" font-size="10.00">com.hust.ittnk68.cnpm.view.</text>
<text text-anchor="start" x="193.62" y="-38.5" font-family="Helvetica,sans-Serif" font-size="10.00">IconButton</text>
<text text-anchor="start" x="215.75" y="-22.5" font-family="Helvetica,sans-Serif" font-size="10.00"> </text>
<text text-anchor="start" x="170.31" y="-6.5" font-family="Helvetica,sans-Serif" font-size="10.00">+</text>
<text text-anchor="start" x="195.62" y="-6.5" font-family="Helvetica,sans-Serif" font-size="10.00">IconButton()</text>
<polygon fill="#666666" stroke="#666666" points="151,-34 151,-34 283.5,-34 283.5,-34 151,-34"/>
<polygon fill="#666666" stroke="#666666" points="151,-18 151,-18 283.5,-18 283.5,-18 151,-18"/>
<polygon fill="none" stroke="#666666" points="151,0 151,-64 283.5,-64 283.5,0 151,0"/>
</a>
</g>
</g>
<!-- Node1&#45;&gt;Node3 -->
<g id="edge2_Node000001_Node000003" class="edge">
<title>Node1&#45;&gt;Node3</title>
<g id="a_edge2_Node000001_Node000003"><a xlink:title=" ">
<path fill="none" stroke="#63b8ff" d="M166.47,-94.48C174.64,-84.58 183.71,-73.6 191.89,-63.7"/>
<polygon fill="none" stroke="#63b8ff" points="163.9,-92.09 160.22,-102.03 169.29,-96.55 163.9,-92.09"/>
</a>
</g>
</g>
</g>
</svg>
