<?xml version="1.0" encoding="UTF-8" standalone="no"?>
<!DOCTYPE svg PUBLIC "-//W3C//DTD SVG 1.1//EN"
 "http://www.w3.org/Graphics/SVG/1.1/DTD/svg11.dtd">
<!-- Generated by graphviz version 12.2.1 (20241206.2353)
 -->
<!-- Title: src/main/java/com/hust/ittnk68/cnpm/view/ClientMenuButton.java Pages: 1 -->
<svg width="1166pt" height="120pt"
 viewBox="0.00 0.00 1166.00 120.00" xmlns="http://www.w3.org/2000/svg" xmlns:xlink="http://www.w3.org/1999/xlink">
<g id="graph0" class="graph" transform="scale(1 1) rotate(0) translate(4 116)">
<title>src/main/java/com/hust/ittnk68/cnpm/view/ClientMenuButton.java</title>
<!-- Node1 -->
<g id="Node000001" class="node">
<title>Node1</title>
<g id="a_Node000001"><a xlink:title=" ">
<polygon fill="#999999" stroke="#666666" points="634.38,-112 483.38,-112 483.38,-68 634.38,-68 634.38,-112"/>
<text text-anchor="start" x="491.38" y="-98.5" font-family="Helvetica,sans-Serif" font-size="10.00">src/main/java/com/hust</text>
<text text-anchor="start" x="491.38" y="-86.5" font-family="Helvetica,sans-Serif" font-size="10.00">/ittnk68/cnpm/view/ClientMenu</text>
<text text-anchor="middle" x="558.88" y="-74.5" font-family="Helvetica,sans-Serif" font-size="10.00">Button.java</text>
</a>
</g>
</g>
<!-- Node2 -->
<g id="Node000002" class="node">
<title>Node2</title>
<g id="a_Node000002"><a xlink:title=" ">
<polygon fill="#e0e0e0" stroke="#999999" points="127.75,-32 0,-32 0,0 127.75,0 127.75,-32"/>
<text text-anchor="start" x="8" y="-18.5" font-family="Helvetica,sans-Serif" font-size="10.00">org.kordamp.ikonli.javafx.</text>
<text text-anchor="middle" x="63.88" y="-6.5" font-family="Helvetica,sans-Serif" font-size="10.00">FontIcon</text>
</a>
</g>
</g>
<!-- Node1&#45;&gt;Node2 -->
<g id="edge1_Node000001_Node000002" class="edge">
<title>Node1&#45;&gt;Node2</title>
<g id="a_edge1_Node000001_Node000002"><a xlink:title=" ">
<path fill="none" stroke="#63b8ff" d="M483.17,-80.36C400.93,-70.61 265.44,-53.52 138.96,-32.29"/>
<polygon fill="#63b8ff" stroke="#63b8ff" points="139.86,-28.89 129.41,-30.67 138.69,-35.79 139.86,-28.89"/>
</a>
</g>
</g>
<!-- Node3 -->
<g id="Node000003" class="node">
<title>Node3</title>
<g id="a_Node000003"><a xlink:title=" ">
<polygon fill="#e0e0e0" stroke="#999999" points="271.62,-26 146.12,-26 146.12,-6 271.62,-6 271.62,-26"/>
<text text-anchor="middle" x="208.88" y="-12.5" font-family="Helvetica,sans-Serif" font-size="10.00">javafx.event.ActionEvent</text>
</a>
</g>
</g>
<!-- Node1&#45;&gt;Node3 -->
<g id="edge2_Node000001_Node000003" class="edge">
<title>Node1&#45;&gt;Node3</title>
<g id="a_edge2_Node000001_Node000003"><a xlink:title=" ">
<path fill="none" stroke="#63b8ff" d="M483.05,-73.52C427.15,-62.09 349.27,-46.14 280.88,-32 275.75,-30.94 270.43,-29.84 265.09,-28.73"/>
<polygon fill="#63b8ff" stroke="#63b8ff" points="266.18,-25.38 255.67,-26.77 264.75,-32.23 266.18,-25.38"/>
</a>
</g>
</g>
<!-- Node4 -->
<g id="Node000004" class="node">
<title>Node4</title>
<g id="a_Node000004"><a xlink:title=" ">
<polygon fill="#e0e0e0" stroke="#999999" points="421.62,-26 290.12,-26 290.12,-6 421.62,-6 421.62,-26"/>
<text text-anchor="middle" x="355.88" y="-12.5" font-family="Helvetica,sans-Serif" font-size="10.00">javafx.event.EventHandler</text>
</a>
</g>
</g>
<!-- Node1&#45;&gt;Node4 -->
<g id="edge3_Node000001_Node000004" class="edge">
<title>Node1&#45;&gt;Node4</title>
<g id="a_edge3_Node000001_Node000004"><a xlink:title=" ">
<path fill="none" stroke="#63b8ff" d="M498.52,-67.59C464.32,-55.46 422.62,-40.67 393.16,-30.22"/>
<polygon fill="#63b8ff" stroke="#63b8ff" points="394.53,-27 383.94,-26.95 392.19,-33.6 394.53,-27"/>
</a>
</g>
</g>
<!-- Node5 -->
<g id="Node000005" class="node">
<title>Node5</title>
<g id="a_Node000005"><a xlink:title=" ">
<polygon fill="#e0e0e0" stroke="#999999" points="544.12,-26 439.62,-26 439.62,-6 544.12,-6 544.12,-26"/>
<text text-anchor="middle" x="491.88" y="-12.5" font-family="Helvetica,sans-Serif" font-size="10.00">javafx.geometry.Pos</text>
</a>
</g>
</g>
<!-- Node1&#45;&gt;Node5 -->
<g id="edge4_Node000001_Node000005" class="edge">
<title>Node1&#45;&gt;Node5</title>
<g id="a_edge4_Node000001_Node000005"><a xlink:title=" ">
<path fill="none" stroke="#63b8ff" d="M539.14,-67.79C529.32,-57.24 517.61,-44.65 508.29,-34.64"/>
<polygon fill="#63b8ff" stroke="#63b8ff" points="510.95,-32.36 501.57,-27.42 505.82,-37.12 510.95,-32.36"/>
</a>
</g>
</g>
<!-- Node6 -->
<g id="Node000006" class="node">
<title>Node6</title>
<g id="a_Node000006"><a xlink:title=" ">
<polygon fill="#e0e0e0" stroke="#999999" points="691.88,-26 561.88,-26 561.88,-6 691.88,-6 691.88,-26"/>
<text text-anchor="middle" x="626.88" y="-12.5" font-family="Helvetica,sans-Serif" font-size="10.00">javafx.scene.control.Label</text>
</a>
</g>
</g>
<!-- Node1&#45;&gt;Node6 -->
<g id="edge5_Node000001_Node000006" class="edge">
<title>Node1&#45;&gt;Node6</title>
<g id="a_edge5_Node000001_Node000006"><a xlink:title=" ">
<path fill="none" stroke="#63b8ff" d="M578.91,-67.79C588.87,-57.24 600.76,-44.65 610.21,-34.64"/>
<polygon fill="#63b8ff" stroke="#63b8ff" points="612.72,-37.09 617.04,-27.41 607.63,-32.28 612.72,-37.09"/>
</a>
</g>
</g>
<!-- Node7 -->
<g id="Node000007" class="node">
<title>Node7</title>
<g id="a_Node000007"><a xlink:title=" ">
<polygon fill="#e0e0e0" stroke="#999999" points="838.12,-26 709.62,-26 709.62,-6 838.12,-6 838.12,-26"/>
<text text-anchor="middle" x="773.88" y="-12.5" font-family="Helvetica,sans-Serif" font-size="10.00">javafx.scene.layout.HBox</text>
</a>
</g>
</g>
<!-- Node1&#45;&gt;Node7 -->
<g id="edge6_Node000001_Node000007" class="edge">
<title>Node1&#45;&gt;Node7</title>
<g id="a_edge6_Node000001_Node000007"><a xlink:title=" ">
<path fill="none" stroke="#63b8ff" d="M622.8,-67.59C659.18,-55.41 703.58,-40.54 734.8,-30.09"/>
<polygon fill="#63b8ff" stroke="#63b8ff" points="735.86,-33.42 744.23,-26.93 733.63,-26.79 735.86,-33.42"/>
</a>
</g>
</g>
<!-- Node8 -->
<g id="Node000008" class="node">
<title>Node8</title>
<g id="a_Node000008"><a xlink:title=" ">
<polygon fill="#e0e0e0" stroke="#999999" points="983.75,-26 856,-26 856,-6 983.75,-6 983.75,-26"/>
<text text-anchor="middle" x="919.88" y="-12.5" font-family="Helvetica,sans-Serif" font-size="10.00">javafx.scene.layout.VBox</text>
</a>
</g>
</g>
<!-- Node1&#45;&gt;Node8 -->
<g id="edge7_Node000001_Node000008" class="edge">
<title>Node1&#45;&gt;Node8</title>
<g id="a_edge7_Node000001_Node000008"><a xlink:title=" ">
<path fill="none" stroke="#63b8ff" d="M634.7,-74.15C692.8,-62.73 774.93,-46.51 846.88,-32 852.07,-30.95 857.47,-29.86 862.88,-28.75"/>
<polygon fill="#63b8ff" stroke="#63b8ff" points="863.36,-32.23 872.45,-26.8 861.95,-25.37 863.36,-32.23"/>
</a>
</g>
</g>
<!-- Node9 -->
<g id="Node000009" class="node">
<title>Node9</title>
<g id="a_Node000009"><a xlink:title=" ">
<polygon fill="#e0e0e0" stroke="#999999" points="1158,-26 1001.75,-26 1001.75,-6 1158,-6 1158,-26"/>
<text text-anchor="middle" x="1079.88" y="-12.5" font-family="Helvetica,sans-Serif" font-size="10.00">javafx.scene.text.TextAlignment</text>
</a>
</g>
</g>
<!-- Node1&#45;&gt;Node9 -->
<g id="edge8_Node000001_Node000009" class="edge">
<title>Node1&#45;&gt;Node9</title>
<g id="a_edge8_Node000001_Node000009"><a xlink:title=" ">
<path fill="none" stroke="#63b8ff" d="M634.66,-79.98C721.38,-69.45 867.59,-51.02 992.88,-32 1000.31,-30.87 1008.09,-29.63 1015.8,-28.35"/>
<polygon fill="#63b8ff" stroke="#63b8ff" points="1016.25,-31.82 1025.53,-26.71 1015.09,-24.92 1016.25,-31.82"/>
</a>
</g>
</g>
</g>
</svg>
