<?xml version="1.0" encoding="UTF-8" standalone="no"?>
<!DOCTYPE svg PUBLIC "-//W3C//DTD SVG 1.1//EN"
 "http://www.w3.org/Graphics/SVG/1.1/DTD/svg11.dtd">
<!-- Generated by graphviz version 12.2.1 (20241206.2353)
 -->
<!-- Title: src/main/java/com/hust/ittnk68/cnpm/view/ClientHomeScreenView.java Pages: 1 -->
<!--zoomable 120 -->

<svg id="main" version="1.1" xmlns="http://www.w3.org/2000/svg" xmlns:xlink="http://www.w3.org/1999/xlink" xml:space="preserve" onload="init(evt)">

<style type="text/css"><![CDATA[
.node, .edge {opacity: 0.7;}
.node.selected, .edge.selected {opacity: 1;}
.edge:hover path { stroke: red; }
.edge:hover polygon { stroke: red; fill: red; }
]]></style>

<defs>
  <circle id="rim" cx="0" cy="0" r="7"/>
  <circle id="rim2" cx="0" cy="0" r="3.5"/>
  <g id="zoomPlus">
    <use xlink:href="#rim" fill="#404040"><set attributeName="fill" to="#808080" begin="zoomplus.mouseover" end="zoomplus.mouseout"/></use>
    <path d="M-4,0h8M0,-4v8" fill="none" stroke="white" stroke-width="1.5" pointer-events="none"/>
  </g>
  <g id="zoomMin">
    <use xlink:href="#rim" fill="#404040"><set attributeName="fill" to="#808080" begin="zoomminus.mouseover" end="zoomminus.mouseout"/></use>
    <path d="M-4,0h8" fill="none" stroke="white" stroke-width="1.5" pointer-events="none"/>
  </g>
  <g id="arrowUp" transform="translate(30 24)">
    <use xlink:href="#rim"/>
    <path pointer-events="none" fill="none" stroke="white" stroke-width="1.5" d="M0,-3.0v7 M-2.5,-0.5L0,-3.0L2.5,-0.5"/>
  </g>
  <g id="arrowRight" transform="rotate(90) translate(36 -43)">
    <use xlink:href="#rim"/>
    <path pointer-events="none" fill="none" stroke="white" stroke-width="1.5" d="M0,-3.0v7 M-2.5,-0.5L0,-3.0L2.5,-0.5"/>
  </g>
  <g id="arrowDown" transform="rotate(180) translate(-30 -48)">
    <use xlink:href="#rim"/>
    <path pointer-events="none" fill="none" stroke="white" stroke-width="1.5" d="M0,-3.0v7 M-2.5,-0.5L0,-3.0L2.5,-0.5"/>
  </g>
  <g id="arrowLeft" transform="rotate(270) translate(-36 17)">
    <use xlink:href="#rim"/>
    <path pointer-events="none" fill="none" stroke="white" stroke-width="1.5" d="M0,-3.0v7 M-2.5,-0.5L0,-3.0L2.5,-0.5"/>
  </g>
  <g id="resetDef">
    <use xlink:href="#rim2" fill="#404040"><set attributeName="fill" to="#808080" begin="reset.mouseover" end="reset.mouseout"/></use>
  </g>
</defs>
<script type="application/ecmascript">
var viewWidth = 4400;
var viewHeight = 120;
var sectionId = 'dynsection-0';
</script>
<script type="application/ecmascript" xlink:href="svg.min.js"/>
<svg id="graph" class="graph">
<g id="viewport">
<title>src/main/java/com/hust/ittnk68/cnpm/view/ClientHomeScreenView.java</title>
<!-- Node1 -->
<g id="Node000001" class="node">
<title>Node1</title>
<g id="a_Node000001"><a xlink:title=" ">
<polygon fill="#999999" stroke="#666666" points="2224,-112 2070.75,-112 2070.75,-68 2224,-68 2224,-112"/>
<text text-anchor="start" x="2078.75" y="-98.5" font-family="Helvetica,sans-Serif" font-size="10.00">src/main/java/com/hust</text>
<text text-anchor="start" x="2078.75" y="-86.5" font-family="Helvetica,sans-Serif" font-size="10.00">/ittnk68/cnpm/view/ClientHome</text>
<text text-anchor="middle" x="2147.38" y="-74.5" font-family="Helvetica,sans-Serif" font-size="10.00">ScreenView.java</text>
</a>
</g>
</g>
<!-- Node2 -->
<g id="Node000002" class="node">
<title>Node2</title>
<g id="a_Node000002"><a xlink:title=" ">
<polygon fill="#e0e0e0" stroke="#999999" points="160.75,-32 0,-32 0,0 160.75,0 160.75,-32"/>
<text text-anchor="start" x="8" y="-18.5" font-family="Helvetica,sans-Serif" font-size="10.00">com.hust.ittnk68.cnpm.controller.</text>
<text text-anchor="middle" x="80.38" y="-6.5" font-family="Helvetica,sans-Serif" font-size="10.00">ClientSceneController</text>
</a>
</g>
</g>
<!-- Node1&#45;&gt;Node2 -->
<g id="edge1_Node000001_Node000002" class="edge">
<title>Node1&#45;&gt;Node2</title>
<g id="a_edge1_Node000001_Node000002"><a xlink:title=" ">
<path fill="none" stroke="#63b8ff" d="M2070.45,-88.21C1756.6,-84.75 571.12,-69.5 172.13,-32.16"/>
<polygon fill="#63b8ff" stroke="#63b8ff" points="172.63,-28.69 162.35,-31.22 171.97,-35.66 172.63,-28.69"/>
</a>
</g>
</g>
<!-- Node3 -->
<g id="Node000003" class="node">
<title>Node3</title>
<g id="a_Node000003"><a xlink:title=" ">
<polygon fill="#e0e0e0" stroke="#999999" points="340.12,-32 178.62,-32 178.62,0 340.12,0 340.12,-32"/>
<text text-anchor="start" x="186.62" y="-18.5" font-family="Helvetica,sans-Serif" font-size="10.00">com.hust.ittnk68.cnpm.interactor.</text>
<text text-anchor="middle" x="259.38" y="-6.5" font-family="Helvetica,sans-Serif" font-size="10.00">ClientInteractor</text>
</a>
</g>
</g>
<!-- Node1&#45;&gt;Node3 -->
<g id="edge2_Node000001_Node000003" class="edge">
<title>Node1&#45;&gt;Node3</title>
<g id="a_edge2_Node000001_Node000003"><a xlink:title=" ">
<path fill="none" stroke="#63b8ff" d="M2070.44,-87.95C1775.08,-83.71 712.84,-66.43 351.58,-32.21"/>
<polygon fill="#63b8ff" stroke="#63b8ff" points="352.12,-28.75 341.83,-31.27 351.44,-35.72 352.12,-28.75"/>
</a>
</g>
</g>
<!-- Node4 -->
<g id="Node000004" class="node">
<title>Node4</title>
<g id="a_Node000004"><a xlink:title=" ">
<polygon fill="#e0e0e0" stroke="#999999" points="496.88,-26 357.88,-26 357.88,-6 496.88,-6 496.88,-26"/>
<text text-anchor="middle" x="427.38" y="-12.5" font-family="Helvetica,sans-Serif" font-size="10.00">atlantafx.base.controls.Card</text>
</a>
</g>
</g>
<!-- Node1&#45;&gt;Node4 -->
<g id="edge3_Node000001_Node000004" class="edge">
<title>Node1&#45;&gt;Node4</title>
<g id="a_edge3_Node000001_Node000004"><a xlink:title=" ">
<path fill="none" stroke="#63b8ff" d="M2070.53,-87.89C1789.15,-83.59 815.36,-66.5 506.38,-32 498.36,-31.11 489.95,-29.85 481.71,-28.45"/>
<polygon fill="#63b8ff" stroke="#63b8ff" points="482.61,-25.05 472.15,-26.72 481.37,-31.94 482.61,-25.05"/>
</a>
</g>
</g>
<!-- Node5 -->
<g id="Node000005" class="node">
<title>Node5</title>
<g id="a_Node000005"><a xlink:title=" ">
<polygon fill="#e0e0e0" stroke="#999999" points="633.38,-32 515.38,-32 515.38,0 633.38,0 633.38,-32"/>
<text text-anchor="start" x="523.38" y="-18.5" font-family="Helvetica,sans-Serif" font-size="10.00">atlantafx.base.controls.</text>
<text text-anchor="middle" x="574.38" y="-6.5" font-family="Helvetica,sans-Serif" font-size="10.00">Spacer</text>
</a>
</g>
</g>
<!-- Node1&#45;&gt;Node5 -->
<g id="edge4_Node000001_Node000005" class="edge">
<title>Node1&#45;&gt;Node5</title>
<g id="a_edge4_Node000001_Node000005"><a xlink:title=" ">
<path fill="none" stroke="#63b8ff" d="M2070.53,-87.91C1807.77,-83.91 945.24,-68.37 644.91,-32.13"/>
<polygon fill="#63b8ff" stroke="#63b8ff" points="645.46,-28.67 635.11,-30.91 644.6,-35.62 645.46,-28.67"/>
</a>
</g>
</g>
<!-- Node6 -->
<g id="Node000006" class="node">
<title>Node6</title>
<g id="a_Node000006"><a xlink:title=" ">
<polygon fill="#e0e0e0" stroke="#999999" points="789.5,-26 651.25,-26 651.25,-6 789.5,-6 789.5,-26"/>
<text text-anchor="middle" x="720.38" y="-12.5" font-family="Helvetica,sans-Serif" font-size="10.00">atlantafx.base.theme.Styles</text>
</a>
</g>
</g>
<!-- Node1&#45;&gt;Node6 -->
<g id="edge5_Node000001_Node000006" class="edge">
<title>Node1&#45;&gt;Node6</title>
<g id="a_edge5_Node000001_Node000006"><a xlink:title=" ">
<path fill="none" stroke="#63b8ff" d="M2070.25,-89.72C1863.47,-90.78 1279.76,-88.14 798.38,-32 790.65,-31.1 782.54,-29.87 774.59,-28.49"/>
<polygon fill="#63b8ff" stroke="#63b8ff" points="775.47,-25.1 765.01,-26.75 774.22,-31.98 775.47,-25.1"/>
</a>
</g>
</g>
<!-- Node7 -->
<g id="Node000007" class="node">
<title>Node7</title>
<g id="a_Node000007"><a xlink:title=" ">
<polygon fill="#e0e0e0" stroke="#999999" points="933.12,-26 807.62,-26 807.62,-6 933.12,-6 933.12,-26"/>
<text text-anchor="middle" x="870.38" y="-12.5" font-family="Helvetica,sans-Serif" font-size="10.00">java.util.function.Supplier</text>
</a>
</g>
</g>
<!-- Node1&#45;&gt;Node7 -->
<g id="edge6_Node000001_Node000007" class="edge">
<title>Node1&#45;&gt;Node7</title>
<g id="a_edge6_Node000001_Node000007"><a xlink:title=" ">
<path fill="none" stroke="#63b8ff" d="M2070.53,-89.56C1879.12,-90.06 1365.96,-85.8 942.38,-32 935.56,-31.13 928.42,-29.97 921.41,-28.67"/>
<polygon fill="#63b8ff" stroke="#63b8ff" points="922.15,-25.25 911.66,-26.75 920.8,-32.12 922.15,-25.25"/>
</a>
</g>
</g>
<!-- Node8 -->
<g id="Node000008" class="node">
<title>Node8</title>
<g id="a_Node000008"><a xlink:title=" ">
<polygon fill="#e0e0e0" stroke="#999999" points="1079.25,-32 951.5,-32 951.5,0 1079.25,0 1079.25,-32"/>
<text text-anchor="start" x="959.5" y="-18.5" font-family="Helvetica,sans-Serif" font-size="10.00">org.kordamp.ikonli.javafx.</text>
<text text-anchor="middle" x="1015.38" y="-6.5" font-family="Helvetica,sans-Serif" font-size="10.00">FontIcon</text>
</a>
</g>
</g>
<!-- Node1&#45;&gt;Node8 -->
<g id="edge7_Node000001_Node000008" class="edge">
<title>Node1&#45;&gt;Node8</title>
<g id="a_edge7_Node000001_Node000008"><a xlink:title=" ">
<path fill="none" stroke="#63b8ff" d="M2070.28,-88.77C1896.83,-87.41 1462.63,-79.28 1090.64,-32.15"/>
<polygon fill="#63b8ff" stroke="#63b8ff" points="1091.24,-28.7 1080.88,-30.91 1090.35,-35.65 1091.24,-28.7"/>
</a>
</g>
</g>
<!-- Node9 -->
<g id="Node000009" class="node">
<title>Node9</title>
<g id="a_Node000009"><a xlink:title=" ">
<polygon fill="#e0e0e0" stroke="#999999" points="1239,-32 1097.75,-32 1097.75,0 1239,0 1239,-32"/>
<text text-anchor="start" x="1105.75" y="-18.5" font-family="Helvetica,sans-Serif" font-size="10.00">org.kordamp.ikonli.material2.</text>
<text text-anchor="middle" x="1168.38" y="-6.5" font-family="Helvetica,sans-Serif" font-size="10.00">Material2AL</text>
</a>
</g>
</g>
<!-- Node1&#45;&gt;Node9 -->
<g id="edge8_Node000001_Node000009" class="edge">
<title>Node1&#45;&gt;Node9</title>
<g id="a_edge8_Node000001_Node000009"><a xlink:title=" ">
<path fill="none" stroke="#63b8ff" d="M2070.32,-87.35C1916.29,-83.34 1559.32,-70.54 1250.78,-32.34"/>
<polygon fill="#63b8ff" stroke="#63b8ff" points="1251.23,-28.87 1240.87,-31.1 1250.36,-35.81 1251.23,-28.87"/>
</a>
</g>
</g>
<!-- Node10 -->
<g id="Node000010" class="node">
<title>Node10</title>
<g id="a_Node000010"><a xlink:title=" ">
<polygon fill="#e0e0e0" stroke="#999999" points="1398,-32 1256.75,-32 1256.75,0 1398,0 1398,-32"/>
<text text-anchor="start" x="1264.75" y="-18.5" font-family="Helvetica,sans-Serif" font-size="10.00">org.kordamp.ikonli.material2.</text>
<text text-anchor="middle" x="1327.38" y="-6.5" font-family="Helvetica,sans-Serif" font-size="10.00">Material2MZ</text>
</a>
</g>
</g>
<!-- Node1&#45;&gt;Node10 -->
<g id="edge9_Node000001_Node000010" class="edge">
<title>Node1&#45;&gt;Node10</title>
<g id="a_edge9_Node000001_Node000010"><a xlink:title=" ">
<path fill="none" stroke="#63b8ff" d="M2070.39,-85.82C1937.61,-79.74 1656.84,-64.23 1409.78,-32.22"/>
<polygon fill="#63b8ff" stroke="#63b8ff" points="1410.28,-28.76 1399.91,-30.93 1409.37,-35.7 1410.28,-28.76"/>
</a>
</g>
</g>
<!-- Node11 -->
<g id="Node000011" class="node">
<title>Node11</title>
<g id="a_Node000011"><a xlink:title=" ">
<polygon fill="#e0e0e0" stroke="#999999" points="1530.5,-26 1416.25,-26 1416.25,-6 1530.5,-6 1530.5,-26"/>
<text text-anchor="middle" x="1473.38" y="-12.5" font-family="Helvetica,sans-Serif" font-size="10.00">javafx.geometry.Insets</text>
</a>
</g>
</g>
<!-- Node1&#45;&gt;Node11 -->
<g id="edge10_Node000001_Node000011" class="edge">
<title>Node1&#45;&gt;Node11</title>
<g id="a_edge10_Node000001_Node000011"><a xlink:title=" ">
<path fill="none" stroke="#63b8ff" d="M2070.67,-85.02C1954.96,-78.28 1729.13,-62.33 1539.38,-32 1533.79,-31.11 1527.97,-30.02 1522.2,-28.84"/>
<polygon fill="#63b8ff" stroke="#63b8ff" points="1523.24,-25.49 1512.73,-26.81 1521.78,-32.33 1523.24,-25.49"/>
</a>
</g>
</g>
<!-- Node12 -->
<g id="Node000012" class="node">
<title>Node12</title>
<g id="a_Node000012"><a xlink:title=" ">
<polygon fill="#e0e0e0" stroke="#999999" points="1652.62,-26 1548.12,-26 1548.12,-6 1652.62,-6 1652.62,-26"/>
<text text-anchor="middle" x="1600.38" y="-12.5" font-family="Helvetica,sans-Serif" font-size="10.00">javafx.geometry.Pos</text>
</a>
</g>
</g>
<!-- Node1&#45;&gt;Node12 -->
<g id="edge11_Node000001_Node000012" class="edge">
<title>Node1&#45;&gt;Node12</title>
<g id="a_edge11_Node000001_Node000012"><a xlink:title=" ">
<path fill="none" stroke="#63b8ff" d="M2070.51,-82.85C1974.52,-74.5 1805.5,-57.63 1662.38,-32 1657.46,-31.12 1652.35,-30.08 1647.27,-28.98"/>
<polygon fill="#63b8ff" stroke="#63b8ff" points="1648.29,-25.62 1637.76,-26.8 1646.73,-32.44 1648.29,-25.62"/>
</a>
</g>
</g>
<!-- Node13 -->
<g id="Node000013" class="node">
<title>Node13</title>
<g id="a_Node000013"><a xlink:title=" ">
<polygon fill="#e0e0e0" stroke="#999999" points="1777.75,-26 1671,-26 1671,-6 1777.75,-6 1777.75,-26"/>
<text text-anchor="middle" x="1724.38" y="-12.5" font-family="Helvetica,sans-Serif" font-size="10.00">javafx.geometry.Side</text>
</a>
</g>
</g>
<!-- Node1&#45;&gt;Node13 -->
<g id="edge12_Node000001_Node000013" class="edge">
<title>Node1&#45;&gt;Node13</title>
<g id="a_edge12_Node000001_Node000013"><a xlink:title=" ">
<path fill="none" stroke="#63b8ff" d="M2070.29,-78.67C1996.99,-68.41 1883.75,-51.43 1786.38,-32 1781.79,-31.09 1777.04,-30.07 1772.29,-29"/>
<polygon fill="#63b8ff" stroke="#63b8ff" points="1773.32,-25.64 1762.79,-26.8 1771.74,-32.46 1773.32,-25.64"/>
</a>
</g>
</g>
<!-- Node14 -->
<g id="Node000014" class="node">
<title>Node14</title>
<g id="a_Node000014"><a xlink:title=" ">
<polygon fill="#e0e0e0" stroke="#999999" points="1893.25,-26 1795.5,-26 1795.5,-6 1893.25,-6 1893.25,-26"/>
<text text-anchor="middle" x="1844.38" y="-12.5" font-family="Helvetica,sans-Serif" font-size="10.00">javafx.scene.Node</text>
</a>
</g>
</g>
<!-- Node1&#45;&gt;Node14 -->
<g id="edge13_Node000001_Node000014" class="edge">
<title>Node1&#45;&gt;Node14</title>
<g id="a_edge13_Node000001_Node000014"><a xlink:title=" ">
<path fill="none" stroke="#63b8ff" d="M2070.29,-71.58C2021.99,-60.53 1958.46,-45.78 1902.38,-32 1898.84,-31.13 1895.19,-30.22 1891.52,-29.29"/>
<polygon fill="#63b8ff" stroke="#63b8ff" points="1892.56,-25.95 1882.01,-26.87 1890.83,-32.73 1892.56,-25.95"/>
</a>
</g>
</g>
<!-- Node15 -->
<g id="Node000015" class="node">
<title>Node15</title>
<g id="a_Node000015"><a xlink:title=" ">
<polygon fill="#e0e0e0" stroke="#999999" points="2061.5,-26 1911.25,-26 1911.25,-6 2061.5,-6 2061.5,-26"/>
<text text-anchor="middle" x="1986.38" y="-12.5" font-family="Helvetica,sans-Serif" font-size="10.00">javafx.scene.control.Accordion</text>
</a>
</g>
</g>
<!-- Node1&#45;&gt;Node15 -->
<g id="edge14_Node000001_Node000015" class="edge">
<title>Node1&#45;&gt;Node15</title>
<g id="a_edge14_Node000001_Node000015"><a xlink:title=" ">
<path fill="none" stroke="#63b8ff" d="M2099.51,-67.59C2073.1,-55.78 2041.05,-41.45 2017.82,-31.06"/>
<polygon fill="#63b8ff" stroke="#63b8ff" points="2019.44,-27.95 2008.88,-27.07 2016.58,-34.34 2019.44,-27.95"/>
</a>
</g>
</g>
<!-- Node16 -->
<g id="Node000016" class="node">
<title>Node16</title>
<g id="a_Node000016"><a xlink:title=" ">
<polygon fill="#e0e0e0" stroke="#999999" points="2215,-26 2079.75,-26 2079.75,-6 2215,-6 2215,-26"/>
<text text-anchor="middle" x="2147.38" y="-12.5" font-family="Helvetica,sans-Serif" font-size="10.00">javafx.scene.control.Button</text>
</a>
</g>
</g>
<!-- Node1&#45;&gt;Node16 -->
<g id="edge15_Node000001_Node000016" class="edge">
<title>Node1&#45;&gt;Node16</title>
<g id="a_edge15_Node000001_Node000016"><a xlink:title=" ">
<path fill="none" stroke="#63b8ff" d="M2147.38,-67.79C2147.38,-58.32 2147.38,-47.2 2147.38,-37.78"/>
<polygon fill="#63b8ff" stroke="#63b8ff" points="2150.88,-37.82 2147.38,-27.82 2143.88,-37.82 2150.88,-37.82"/>
</a>
</g>
</g>
<!-- Node17 -->
<g id="Node000017" class="node">
<title>Node17</title>
<g id="a_Node000017"><a xlink:title=" ">
<polygon fill="#e0e0e0" stroke="#999999" points="2363.38,-26 2233.38,-26 2233.38,-6 2363.38,-6 2363.38,-26"/>
<text text-anchor="middle" x="2298.38" y="-12.5" font-family="Helvetica,sans-Serif" font-size="10.00">javafx.scene.control.Label</text>
</a>
</g>
</g>
<!-- Node1&#45;&gt;Node17 -->
<g id="edge16_Node000001_Node000017" class="edge">
<title>Node1&#45;&gt;Node17</title>
<g id="a_edge16_Node000001_Node000017"><a xlink:title=" ">
<path fill="none" stroke="#63b8ff" d="M2192.27,-67.59C2216.81,-55.89 2246.55,-41.71 2268.29,-31.35"/>
<polygon fill="#63b8ff" stroke="#63b8ff" points="2269.67,-34.56 2277.19,-27.1 2266.66,-28.24 2269.67,-34.56"/>
</a>
</g>
</g>
<!-- Node18 -->
<g id="Node000018" class="node">
<title>Node18</title>
<g id="a_Node000018"><a xlink:title=" ">
<polygon fill="#e0e0e0" stroke="#999999" points="2503.62,-26 2381.12,-26 2381.12,-6 2503.62,-6 2503.62,-26"/>
<text text-anchor="middle" x="2442.38" y="-12.5" font-family="Helvetica,sans-Serif" font-size="10.00">javafx.scene.control.Tab</text>
</a>
</g>
</g>
<!-- Node1&#45;&gt;Node18 -->
<g id="edge17_Node000001_Node000018" class="edge">
<title>Node1&#45;&gt;Node18</title>
<g id="a_edge17_Node000001_Node000018"><a xlink:title=" ">
<path fill="none" stroke="#63b8ff" d="M2224.5,-70.18C2277.53,-57.23 2346.43,-40.42 2392.41,-29.2"/>
<polygon fill="#63b8ff" stroke="#63b8ff" points="2393.22,-32.6 2402.11,-26.83 2391.56,-25.8 2393.22,-32.6"/>
</a>
</g>
</g>
<!-- Node19 -->
<g id="Node000019" class="node">
<title>Node19</title>
<g id="a_Node000019"><a xlink:title=" ">
<polygon fill="#e0e0e0" stroke="#999999" points="2666.88,-26 2521.88,-26 2521.88,-6 2666.88,-6 2666.88,-26"/>
<text text-anchor="middle" x="2594.38" y="-12.5" font-family="Helvetica,sans-Serif" font-size="10.00">javafx.scene.control.TabPane</text>
</a>
</g>
</g>
<!-- Node1&#45;&gt;Node19 -->
<g id="edge18_Node000001_Node000019" class="edge">
<title>Node1&#45;&gt;Node19</title>
<g id="a_edge18_Node000001_Node000019"><a xlink:title=" ">
<path fill="none" stroke="#63b8ff" d="M2224.37,-77.57C2298.31,-66.45 2413.1,-48.83 2512.38,-32 2518.87,-30.9 2525.64,-29.72 2532.39,-28.52"/>
<polygon fill="#63b8ff" stroke="#63b8ff" points="2532.96,-31.97 2542.18,-26.76 2531.72,-25.08 2532.96,-31.97"/>
</a>
</g>
</g>
<!-- Node20 -->
<g id="Node000020" class="node">
<title>Node20</title>
<g id="a_Node000020"><a xlink:title=" ">
<polygon fill="#e0e0e0" stroke="#999999" points="2807.62,-32 2685.12,-32 2685.12,0 2807.62,0 2807.62,-32"/>
<text text-anchor="start" x="2693.12" y="-18.5" font-family="Helvetica,sans-Serif" font-size="10.00">javafx.scene.control.Tab</text>
<text text-anchor="middle" x="2746.38" y="-6.5" font-family="Helvetica,sans-Serif" font-size="10.00">Pane.TabClosingPolicy</text>
</a>
</g>
</g>
<!-- Node1&#45;&gt;Node20 -->
<g id="edge19_Node000001_Node000020" class="edge">
<title>Node1&#45;&gt;Node20</title>
<g id="a_edge19_Node000001_Node000020"><a xlink:title=" ">
<path fill="none" stroke="#63b8ff" d="M2224.36,-83.22C2325.41,-75.08 2508.46,-58.4 2674.1,-32.27"/>
<polygon fill="#63b8ff" stroke="#63b8ff" points="2674.16,-35.8 2683.49,-30.77 2673.06,-28.89 2674.16,-35.8"/>
</a>
</g>
</g>
<!-- Node21 -->
<g id="Node000021" class="node">
<title>Node21</title>
<g id="a_Node000021"><a xlink:title=" ">
<polygon fill="#e0e0e0" stroke="#999999" points="2982.88,-26 2825.88,-26 2825.88,-6 2982.88,-6 2982.88,-26"/>
<text text-anchor="middle" x="2904.38" y="-12.5" font-family="Helvetica,sans-Serif" font-size="10.00">javafx.scene.layout.AnchorPane</text>
</a>
</g>
</g>
<!-- Node1&#45;&gt;Node21 -->
<g id="edge20_Node000001_Node000021" class="edge">
<title>Node1&#45;&gt;Node21</title>
<g id="a_edge20_Node000001_Node000021"><a xlink:title=" ">
<path fill="none" stroke="#63b8ff" d="M2224.35,-84.55C2349.03,-76.86 2602.75,-59.26 2816.38,-32 2824.71,-30.94 2833.47,-29.65 2842.09,-28.28"/>
<polygon fill="#63b8ff" stroke="#63b8ff" points="2842.5,-31.76 2851.8,-26.7 2841.37,-24.85 2842.5,-31.76"/>
</a>
</g>
</g>
<!-- Node22 -->
<g id="Node000022" class="node">
<title>Node22</title>
<g id="a_Node000022"><a xlink:title=" ">
<polygon fill="#e0e0e0" stroke="#999999" points="3155.75,-26 3001,-26 3001,-6 3155.75,-6 3155.75,-26"/>
<text text-anchor="middle" x="3078.38" y="-12.5" font-family="Helvetica,sans-Serif" font-size="10.00">javafx.scene.layout.BorderPane</text>
</a>
</g>
</g>
<!-- Node1&#45;&gt;Node22 -->
<g id="edge21_Node000001_Node000022" class="edge">
<title>Node1&#45;&gt;Node22</title>
<g id="a_edge21_Node000001_Node000022"><a xlink:title=" ">
<path fill="none" stroke="#63b8ff" d="M2224.24,-86.53C2372.99,-81.14 2710.46,-66 2992.38,-32 3000.74,-30.99 3009.54,-29.71 3018.17,-28.33"/>
<polygon fill="#63b8ff" stroke="#63b8ff" points="3018.61,-31.8 3027.9,-26.71 3017.46,-24.9 3018.61,-31.8"/>
</a>
</g>
</g>
<!-- Node23 -->
<g id="Node000023" class="node">
<title>Node23</title>
<g id="a_Node000023"><a xlink:title=" ">
<polygon fill="#e0e0e0" stroke="#999999" points="3311.12,-32 3173.62,-32 3173.62,0 3311.12,0 3311.12,-32"/>
<text text-anchor="start" x="3181.62" y="-18.5" font-family="Helvetica,sans-Serif" font-size="10.00">javafx.scene.layout.Column</text>
<text text-anchor="middle" x="3242.38" y="-6.5" font-family="Helvetica,sans-Serif" font-size="10.00">Constraints</text>
</a>
</g>
</g>
<!-- Node1&#45;&gt;Node23 -->
<g id="edge22_Node000001_Node000023" class="edge">
<title>Node1&#45;&gt;Node23</title>
<g id="a_edge22_Node000001_Node000023"><a xlink:title=" ">
<path fill="none" stroke="#63b8ff" d="M2224.24,-88.2C2392.53,-85.69 2806.31,-75.39 3161.83,-32.2"/>
<polygon fill="#63b8ff" stroke="#63b8ff" points="3162.13,-35.69 3171.63,-31 3161.27,-28.74 3162.13,-35.69"/>
</a>
</g>
</g>
<!-- Node24 -->
<g id="Node000024" class="node">
<title>Node24</title>
<g id="a_Node000024"><a xlink:title=" ">
<polygon fill="#e0e0e0" stroke="#999999" points="3473.5,-26 3329.25,-26 3329.25,-6 3473.5,-6 3473.5,-26"/>
<text text-anchor="middle" x="3401.38" y="-12.5" font-family="Helvetica,sans-Serif" font-size="10.00">javafx.scene.layout.GridPane</text>
</a>
</g>
</g>
<!-- Node1&#45;&gt;Node24 -->
<g id="edge23_Node000001_Node000024" class="edge">
<title>Node1&#45;&gt;Node24</title>
<g id="a_edge23_Node000001_Node000024"><a xlink:title=" ">
<path fill="none" stroke="#63b8ff" d="M2224.18,-88.84C2411.95,-87.66 2909.01,-79.86 3320.38,-32 3328.38,-31.07 3336.79,-29.82 3345.04,-28.44"/>
<polygon fill="#63b8ff" stroke="#63b8ff" points="3345.39,-31.93 3354.64,-26.75 3344.18,-25.04 3345.39,-31.93"/>
</a>
</g>
</g>
<!-- Node25 -->
<g id="Node000025" class="node">
<title>Node25</title>
<g id="a_Node000025"><a xlink:title=" ">
<polygon fill="#e0e0e0" stroke="#999999" points="3619.62,-26 3491.12,-26 3491.12,-6 3619.62,-6 3619.62,-26"/>
<text text-anchor="middle" x="3555.38" y="-12.5" font-family="Helvetica,sans-Serif" font-size="10.00">javafx.scene.layout.HBox</text>
</a>
</g>
</g>
<!-- Node1&#45;&gt;Node25 -->
<g id="edge24_Node000001_Node000025" class="edge">
<title>Node1&#45;&gt;Node25</title>
<g id="a_edge24_Node000001_Node000025"><a xlink:title=" ">
<path fill="none" stroke="#63b8ff" d="M2224.35,-87.33C2470.45,-81.75 3236.31,-62.34 3482.38,-32 3489.37,-31.14 3496.69,-29.96 3503.89,-28.65"/>
<polygon fill="#63b8ff" stroke="#63b8ff" points="3504.38,-32.12 3513.54,-26.78 3503.05,-25.25 3504.38,-32.12"/>
</a>
</g>
</g>
<!-- Node26 -->
<g id="Node000026" class="node">
<title>Node26</title>
<g id="a_Node000026"><a xlink:title=" ">
<polygon fill="#e0e0e0" stroke="#999999" points="3772.62,-26 3638.12,-26 3638.12,-6 3772.62,-6 3772.62,-26"/>
<text text-anchor="middle" x="3705.38" y="-12.5" font-family="Helvetica,sans-Serif" font-size="10.00">javafx.scene.layout.Region</text>
</a>
</g>
</g>
<!-- Node1&#45;&gt;Node26 -->
<g id="edge25_Node000001_Node000026" class="edge">
<title>Node1&#45;&gt;Node26</title>
<g id="a_edge25_Node000001_Node000026"><a xlink:title=" ">
<path fill="none" stroke="#63b8ff" d="M2224.33,-87.6C2487.77,-82.58 3352.33,-64.01 3628.38,-32 3636.1,-31.1 3644.21,-29.86 3652.15,-28.47"/>
<polygon fill="#63b8ff" stroke="#63b8ff" points="3652.51,-31.96 3661.71,-26.71 3651.24,-25.08 3652.51,-31.96"/>
</a>
</g>
</g>
<!-- Node27 -->
<g id="Node000027" class="node">
<title>Node27</title>
<g id="a_Node000027"><a xlink:title=" ">
<polygon fill="#e0e0e0" stroke="#999999" points="3964.5,-26 3790.25,-26 3790.25,-6 3964.5,-6 3964.5,-26"/>
<text text-anchor="middle" x="3877.38" y="-12.5" font-family="Helvetica,sans-Serif" font-size="10.00">javafx.scene.layout.RowConstraints</text>
</a>
</g>
</g>
<!-- Node1&#45;&gt;Node27 -->
<g id="edge26_Node000001_Node000027" class="edge">
<title>Node1&#45;&gt;Node27</title>
<g id="a_edge26_Node000001_Node000027"><a xlink:title=" ">
<path fill="none" stroke="#63b8ff" d="M2224.15,-89.59C2458.3,-90.69 3183.73,-88.91 3781.38,-32 3791.61,-31.03 3802.41,-29.66 3812.94,-28.16"/>
<polygon fill="#63b8ff" stroke="#63b8ff" points="3813.33,-31.64 3822.7,-26.7 3812.3,-24.71 3813.33,-31.64"/>
</a>
</g>
</g>
<!-- Node28 -->
<g id="Node000028" class="node">
<title>Node28</title>
<g id="a_Node000028"><a xlink:title=" ">
<polygon fill="#e0e0e0" stroke="#999999" points="4110.25,-26 3982.5,-26 3982.5,-6 4110.25,-6 4110.25,-26"/>
<text text-anchor="middle" x="4046.38" y="-12.5" font-family="Helvetica,sans-Serif" font-size="10.00">javafx.scene.layout.VBox</text>
</a>
</g>
</g>
<!-- Node1&#45;&gt;Node28 -->
<g id="edge27_Node000001_Node000028" class="edge">
<title>Node1&#45;&gt;Node28</title>
<g id="a_edge27_Node000001_Node000028"><a xlink:title=" ">
<path fill="none" stroke="#63b8ff" d="M2224.48,-88.35C2526.12,-85.56 3626.68,-72.73 3973.38,-32 3980.46,-31.17 3987.88,-30 3995.16,-28.68"/>
<polygon fill="#63b8ff" stroke="#63b8ff" points="3995.77,-32.12 4004.93,-26.79 3994.44,-25.25 3995.77,-32.12"/>
</a>
</g>
</g>
<!-- Node29 -->
<g id="Node000029" class="node">
<title>Node29</title>
<g id="a_Node000029"><a xlink:title=" ">
<polygon fill="#e0e0e0" stroke="#999999" points="4240.75,-26 4128,-26 4128,-6 4240.75,-6 4240.75,-26"/>
<text text-anchor="middle" x="4184.38" y="-12.5" font-family="Helvetica,sans-Serif" font-size="10.00">javafx.scene.text.Text</text>
</a>
</g>
</g>
<!-- Node1&#45;&gt;Node29 -->
<g id="edge28_Node000001_Node000029" class="edge">
<title>Node1&#45;&gt;Node29</title>
<g id="a_edge28_Node000001_Node000029"><a xlink:title=" ">
<path fill="none" stroke="#63b8ff" d="M2224.4,-88.81C2540.99,-87.71 3743.04,-80.38 4119.38,-32 4125.48,-31.22 4131.85,-30.11 4138.11,-28.85"/>
<polygon fill="#63b8ff" stroke="#63b8ff" points="4138.67,-32.31 4147.7,-26.78 4137.19,-25.47 4138.67,-32.31"/>
</a>
</g>
</g>
<!-- Node30 -->
<g id="Node000030" class="node">
<title>Node30</title>
<g id="a_Node000030"><a xlink:title=" ">
<polygon fill="#e0e0e0" stroke="#999999" points="4392.25,-26 4258.5,-26 4258.5,-6 4392.25,-6 4392.25,-26"/>
<text text-anchor="middle" x="4325.38" y="-12.5" font-family="Helvetica,sans-Serif" font-size="10.00">javafx.scene.text.TextFlow</text>
</a>
</g>
</g>
<!-- Node1&#45;&gt;Node30 -->
<g id="edge29_Node000001_Node000030" class="edge">
<title>Node1&#45;&gt;Node30</title>
<g id="a_edge29_Node000001_Node000030"><a xlink:title=" ">
<path fill="none" stroke="#63b8ff" d="M2224.37,-88.64C2553.7,-86.85 3845.4,-77.02 4249.38,-32 4257.01,-31.15 4265.02,-29.93 4272.86,-28.55"/>
<polygon fill="#63b8ff" stroke="#63b8ff" points="4273.48,-32 4282.67,-26.72 4272.19,-25.12 4273.48,-32"/>
</a>
</g>
</g>
</g>
</svg>

<g id="navigator" transform="translate(0 0)" fill="#404254">
  <rect fill="#f2f5e9" fill-opacity="0.5" stroke="#606060" stroke-width=".5" x="0" y="0" width="60" height="60"/>
  <use id="zoomplus" xlink:href="#zoomPlus" x="17" y="9" onmousedown="handleZoom(evt,'in')"/>
  <use id="zoomminus" xlink:href="#zoomMin" x="42" y="9" onmousedown="handleZoom(evt,'out')"/>
  <use id="reset" xlink:href="#resetDef" x="30" y="36" onmousedown="handleReset()"/>
   <use id="arrowup" xlink:href="#arrowUp" x="0" y="0" onmousedown="handlePan(0,-1)"/>
  <use id="arrowright" xlink:href="#arrowRight" x="0" y="0" onmousedown="handlePan(1,0)"/>
  <use id="arrowdown" xlink:href="#arrowDown" x="0" y="0" onmousedown="handlePan(0,1)"/>
  <use id="arrowleft" xlink:href="#arrowLeft" x="0" y="0" onmousedown="handlePan(-1,0)"/>
</g>
<svg viewBox="0 0 15 15" width="100%" height="30px" preserveAspectRatio="xMaxYMin meet">
 <g id="arrow_out" transform="scale(0.3 0.3)">
  <a xlink:href="ClientHomeScreenView_8java__incl_org.svg" target="_base">
   <rect id="button" ry="5" rx="5" y="6" x="6" height="38" width="38"
        fill="#f2f5e9" fill-opacity="0.5" stroke="#606060" stroke-width="1.0"/>
   <path id="arrow"
     d="M 11.500037,31.436501 C 11.940474,20.09759 22.043105,11.32322 32.158766,21.979434 L 37.068811,17.246167 C 37.068811,17.246167 37.088388,32 37.088388,32 L 22.160133,31.978069 C 22.160133,31.978069 26.997745,27.140456 26.997745,27.140456 C 18.528582,18.264221 13.291696,25.230495 11.500037,31.436501 z"
     style="fill:#404040;"/>
  </a>
 </g>
</svg>

<style type='text/css'>
<![CDATA[
[data-mouse-over-selected='false'] { opacity: 0.7; }
[data-mouse-over-selected='true']  { opacity: 1.0; }
]]>
</style>
<script type="application/ecmascript"><![CDATA[
document.addEventListener('DOMContentLoaded', (event) => {
  highlightEdges();
  highlightAdjacentNodes();
});
]]></script>
</svg>
