<?xml version="1.0" encoding="UTF-8" standalone="no"?>
<!DOCTYPE svg PUBLIC "-//W3C//DTD SVG 1.1//EN"
 "http://www.w3.org/Graphics/SVG/1.1/DTD/svg11.dtd">
<!-- Generated by graphviz version 12.2.1 (20241206.2353)
 -->
<!-- Title: src/main/java/com/hust/ittnk68/cnpm/view/ClientHomeSideBar.java Pages: 1 -->
<svg width="1880pt" height="120pt"
 viewBox="0.00 0.00 1880.25 120.00" xmlns="http://www.w3.org/2000/svg" xmlns:xlink="http://www.w3.org/1999/xlink">
<g id="graph0" class="graph" transform="scale(1 1) rotate(0) translate(4 116)">
<title>src/main/java/com/hust/ittnk68/cnpm/view/ClientHomeSideBar.java</title>
<!-- Node1 -->
<g id="Node000001" class="node">
<title>Node1</title>
<g id="a_Node000001"><a xlink:title=" ">
<polygon fill="#999999" stroke="#666666" points="1054,-112 900.75,-112 900.75,-68 1054,-68 1054,-112"/>
<text text-anchor="start" x="908.75" y="-98.5" font-family="Helvetica,sans-Serif" font-size="10.00">src/main/java/com/hust</text>
<text text-anchor="start" x="908.75" y="-86.5" font-family="Helvetica,sans-Serif" font-size="10.00">/ittnk68/cnpm/view/ClientHome</text>
<text text-anchor="middle" x="977.38" y="-74.5" font-family="Helvetica,sans-Serif" font-size="10.00">SideBar.java</text>
</a>
</g>
</g>
<!-- Node2 -->
<g id="Node000002" class="node">
<title>Node2</title>
<g id="a_Node000002"><a xlink:title=" ">
<polygon fill="#e0e0e0" stroke="#999999" points="160.75,-32 0,-32 0,0 160.75,0 160.75,-32"/>
<text text-anchor="start" x="8" y="-18.5" font-family="Helvetica,sans-Serif" font-size="10.00">com.hust.ittnk68.cnpm.controller.</text>
<text text-anchor="middle" x="80.38" y="-6.5" font-family="Helvetica,sans-Serif" font-size="10.00">ClientSceneController</text>
</a>
</g>
</g>
<!-- Node1&#45;&gt;Node2 -->
<g id="edge1_Node000001_Node000002" class="edge">
<title>Node1&#45;&gt;Node2</title>
<g id="a_edge1_Node000001_Node000002"><a xlink:title=" ">
<path fill="none" stroke="#63b8ff" d="M900.27,-86.04C758.23,-80.05 445.48,-64.33 172.2,-32.26"/>
<polygon fill="#63b8ff" stroke="#63b8ff" points="172.7,-28.8 162.36,-31.1 171.88,-35.75 172.7,-28.8"/>
</a>
</g>
</g>
<!-- Node3 -->
<g id="Node000003" class="node">
<title>Node3</title>
<g id="a_Node000003"><a xlink:title=" ">
<polygon fill="#e0e0e0" stroke="#999999" points="324.25,-32 178.5,-32 178.5,0 324.25,0 324.25,-32"/>
<text text-anchor="start" x="186.5" y="-18.5" font-family="Helvetica,sans-Serif" font-size="10.00">com.hust.ittnk68.cnpm.group.</text>
<text text-anchor="middle" x="251.38" y="-6.5" font-family="Helvetica,sans-Serif" font-size="10.00">AccentToggleGroup</text>
</a>
</g>
</g>
<!-- Node1&#45;&gt;Node3 -->
<g id="edge2_Node000001_Node000003" class="edge">
<title>Node1&#45;&gt;Node3</title>
<g id="a_edge2_Node000001_Node000003"><a xlink:title=" ">
<path fill="none" stroke="#63b8ff" d="M900.29,-84.49C781.33,-77.03 545.67,-60.21 335.87,-32.26"/>
<polygon fill="#63b8ff" stroke="#63b8ff" points="336.52,-28.82 326.14,-30.95 335.58,-35.75 336.52,-28.82"/>
</a>
</g>
</g>
<!-- Node4 -->
<g id="Node000004" class="node">
<title>Node4</title>
<g id="a_Node000004"><a xlink:title=" ">
<polygon fill="#e0e0e0" stroke="#999999" points="504.12,-32 342.62,-32 342.62,0 504.12,0 504.12,-32"/>
<text text-anchor="start" x="350.62" y="-18.5" font-family="Helvetica,sans-Serif" font-size="10.00">com.hust.ittnk68.cnpm.interactor.</text>
<text text-anchor="middle" x="423.38" y="-6.5" font-family="Helvetica,sans-Serif" font-size="10.00">ClientInteractor</text>
</a>
</g>
</g>
<!-- Node1&#45;&gt;Node4 -->
<g id="edge3_Node000001_Node000004" class="edge">
<title>Node1&#45;&gt;Node4</title>
<g id="a_edge3_Node000001_Node000004"><a xlink:title=" ">
<path fill="none" stroke="#63b8ff" d="M900.47,-80.58C810.67,-70.51 657.36,-52.61 515.37,-32.25"/>
<polygon fill="#63b8ff" stroke="#63b8ff" points="516.2,-28.83 505.8,-30.87 515.2,-35.76 516.2,-28.83"/>
</a>
</g>
</g>
<!-- Node5 -->
<g id="Node000005" class="node">
<title>Node5</title>
<g id="a_Node000005"><a xlink:title=" ">
<polygon fill="#e0e0e0" stroke="#999999" points="650.25,-32 522.5,-32 522.5,0 650.25,0 650.25,-32"/>
<text text-anchor="start" x="530.5" y="-18.5" font-family="Helvetica,sans-Serif" font-size="10.00">org.kordamp.ikonli.javafx.</text>
<text text-anchor="middle" x="586.38" y="-6.5" font-family="Helvetica,sans-Serif" font-size="10.00">FontIcon</text>
</a>
</g>
</g>
<!-- Node1&#45;&gt;Node5 -->
<g id="edge4_Node000001_Node000005" class="edge">
<title>Node1&#45;&gt;Node5</title>
<g id="a_edge4_Node000001_Node000005"><a xlink:title=" ">
<path fill="none" stroke="#63b8ff" d="M900.49,-75.78C838.66,-65.02 749.28,-49.18 661.68,-32.42"/>
<polygon fill="#63b8ff" stroke="#63b8ff" points="662.42,-28.99 651.94,-30.55 661.1,-35.87 662.42,-28.99"/>
</a>
</g>
</g>
<!-- Node6 -->
<g id="Node000006" class="node">
<title>Node6</title>
<g id="a_Node000006"><a xlink:title=" ">
<polygon fill="#e0e0e0" stroke="#999999" points="810,-32 668.75,-32 668.75,0 810,0 810,-32"/>
<text text-anchor="start" x="676.75" y="-18.5" font-family="Helvetica,sans-Serif" font-size="10.00">org.kordamp.ikonli.material2.</text>
<text text-anchor="middle" x="739.38" y="-6.5" font-family="Helvetica,sans-Serif" font-size="10.00">Material2AL</text>
</a>
</g>
</g>
<!-- Node1&#45;&gt;Node6 -->
<g id="edge5_Node000001_Node000006" class="edge">
<title>Node1&#45;&gt;Node6</title>
<g id="a_edge5_Node000001_Node000006"><a xlink:title=" ">
<path fill="none" stroke="#63b8ff" d="M906.61,-67.59C873.13,-57.46 833.51,-45.48 801.24,-35.72"/>
<polygon fill="#63b8ff" stroke="#63b8ff" points="802.63,-32.48 792.05,-32.93 800.6,-39.18 802.63,-32.48"/>
</a>
</g>
</g>
<!-- Node7 -->
<g id="Node000007" class="node">
<title>Node7</title>
<g id="a_Node000007"><a xlink:title=" ">
<polygon fill="#e0e0e0" stroke="#999999" points="969,-32 827.75,-32 827.75,0 969,0 969,-32"/>
<text text-anchor="start" x="835.75" y="-18.5" font-family="Helvetica,sans-Serif" font-size="10.00">org.kordamp.ikonli.material2.</text>
<text text-anchor="middle" x="898.38" y="-6.5" font-family="Helvetica,sans-Serif" font-size="10.00">Material2RoundAL</text>
</a>
</g>
</g>
<!-- Node1&#45;&gt;Node7 -->
<g id="edge6_Node000001_Node000007" class="edge">
<title>Node1&#45;&gt;Node7</title>
<g id="a_edge6_Node000001_Node000007"><a xlink:title=" ">
<path fill="none" stroke="#63b8ff" d="M954.1,-67.79C944.38,-58.93 933.08,-48.63 923.21,-39.63"/>
<polygon fill="#63b8ff" stroke="#63b8ff" points="925.84,-37.3 916.09,-33.15 921.12,-42.47 925.84,-37.3"/>
</a>
</g>
</g>
<!-- Node8 -->
<g id="Node000008" class="node">
<title>Node8</title>
<g id="a_Node000008"><a xlink:title=" ">
<polygon fill="#e0e0e0" stroke="#999999" points="1128,-32 986.75,-32 986.75,0 1128,0 1128,-32"/>
<text text-anchor="start" x="994.75" y="-18.5" font-family="Helvetica,sans-Serif" font-size="10.00">org.kordamp.ikonli.material2.</text>
<text text-anchor="middle" x="1057.38" y="-6.5" font-family="Helvetica,sans-Serif" font-size="10.00">Material2SharpAL</text>
</a>
</g>
</g>
<!-- Node1&#45;&gt;Node8 -->
<g id="edge7_Node000001_Node000008" class="edge">
<title>Node1&#45;&gt;Node8</title>
<g id="a_edge7_Node000001_Node000008"><a xlink:title=" ">
<path fill="none" stroke="#63b8ff" d="M1000.94,-67.79C1010.78,-58.93 1022.23,-48.63 1032.23,-39.63"/>
<polygon fill="#63b8ff" stroke="#63b8ff" points="1034.35,-42.43 1039.44,-33.14 1029.67,-37.23 1034.35,-42.43"/>
</a>
</g>
</g>
<!-- Node9 -->
<g id="Node000009" class="node">
<title>Node9</title>
<g id="a_Node000009"><a xlink:title=" ">
<polygon fill="#e0e0e0" stroke="#999999" points="1284.5,-26 1146.25,-26 1146.25,-6 1284.5,-6 1284.5,-26"/>
<text text-anchor="middle" x="1215.38" y="-12.5" font-family="Helvetica,sans-Serif" font-size="10.00">atlantafx.base.theme.Styles</text>
</a>
</g>
</g>
<!-- Node1&#45;&gt;Node9 -->
<g id="edge8_Node000001_Node000009" class="edge">
<title>Node1&#45;&gt;Node9</title>
<g id="a_edge8_Node000001_Node000009"><a xlink:title=" ">
<path fill="none" stroke="#63b8ff" d="M1048.14,-67.59C1088.94,-55.25 1138.85,-40.15 1173.47,-29.68"/>
<polygon fill="#63b8ff" stroke="#63b8ff" points="1174.14,-33.13 1182.7,-26.89 1172.11,-26.43 1174.14,-33.13"/>
</a>
</g>
</g>
<!-- Node10 -->
<g id="Node000010" class="node">
<title>Node10</title>
<g id="a_Node000010"><a xlink:title=" ">
<polygon fill="#e0e0e0" stroke="#999999" points="1406.62,-26 1302.12,-26 1302.12,-6 1406.62,-6 1406.62,-26"/>
<text text-anchor="middle" x="1354.38" y="-12.5" font-family="Helvetica,sans-Serif" font-size="10.00">javafx.geometry.Pos</text>
</a>
</g>
</g>
<!-- Node1&#45;&gt;Node10 -->
<g id="edge9_Node000001_Node000010" class="edge">
<title>Node1&#45;&gt;Node10</title>
<g id="a_edge9_Node000001_Node000010"><a xlink:title=" ">
<path fill="none" stroke="#63b8ff" d="M1054.26,-76.52C1118.41,-65.77 1212.13,-49.3 1293.38,-32 1297.63,-31.09 1302.05,-30.1 1306.46,-29.08"/>
<polygon fill="#63b8ff" stroke="#63b8ff" points="1306.97,-32.56 1315.89,-26.84 1305.35,-25.75 1306.97,-32.56"/>
</a>
</g>
</g>
<!-- Node11 -->
<g id="Node000011" class="node">
<title>Node11</title>
<g id="a_Node000011"><a xlink:title=" ">
<polygon fill="#e0e0e0" stroke="#999999" points="1579.75,-26 1425,-26 1425,-6 1579.75,-6 1579.75,-26"/>
<text text-anchor="middle" x="1502.38" y="-12.5" font-family="Helvetica,sans-Serif" font-size="10.00">javafx.scene.layout.BorderPane</text>
</a>
</g>
</g>
<!-- Node1&#45;&gt;Node11 -->
<g id="edge10_Node000001_Node000011" class="edge">
<title>Node1&#45;&gt;Node11</title>
<g id="a_edge10_Node000001_Node000011"><a xlink:title=" ">
<path fill="none" stroke="#63b8ff" d="M1054.26,-79.97C1141.83,-69.46 1289.13,-51.09 1415.38,-32 1422.81,-30.88 1430.59,-29.63 1438.3,-28.36"/>
<polygon fill="#63b8ff" stroke="#63b8ff" points="1438.75,-31.83 1448.03,-26.72 1437.59,-24.93 1438.75,-31.83"/>
</a>
</g>
</g>
<!-- Node12 -->
<g id="Node000012" class="node">
<title>Node12</title>
<g id="a_Node000012"><a xlink:title=" ">
<polygon fill="#e0e0e0" stroke="#999999" points="1726.62,-26 1598.12,-26 1598.12,-6 1726.62,-6 1726.62,-26"/>
<text text-anchor="middle" x="1662.38" y="-12.5" font-family="Helvetica,sans-Serif" font-size="10.00">javafx.scene.layout.HBox</text>
</a>
</g>
</g>
<!-- Node1&#45;&gt;Node12 -->
<g id="edge11_Node000001_Node000012" class="edge">
<title>Node1&#45;&gt;Node12</title>
<g id="a_edge11_Node000001_Node000012"><a xlink:title=" ">
<path fill="none" stroke="#63b8ff" d="M1054.37,-84.47C1170.54,-77.03 1397.35,-60.19 1588.38,-32 1594.94,-31.03 1601.8,-29.86 1608.58,-28.6"/>
<polygon fill="#63b8ff" stroke="#63b8ff" points="1609.22,-32.05 1618.37,-26.71 1607.89,-25.17 1609.22,-32.05"/>
</a>
</g>
</g>
<!-- Node13 -->
<g id="Node000013" class="node">
<title>Node13</title>
<g id="a_Node000013"><a xlink:title=" ">
<polygon fill="#e0e0e0" stroke="#999999" points="1872.25,-26 1744.5,-26 1744.5,-6 1872.25,-6 1872.25,-26"/>
<text text-anchor="middle" x="1808.38" y="-12.5" font-family="Helvetica,sans-Serif" font-size="10.00">javafx.scene.layout.VBox</text>
</a>
</g>
</g>
<!-- Node1&#45;&gt;Node13 -->
<g id="edge12_Node000001_Node000013" class="edge">
<title>Node1&#45;&gt;Node13</title>
<g id="a_edge12_Node000001_Node000013"><a xlink:title=" ">
<path fill="none" stroke="#63b8ff" d="M1054.38,-86.46C1191.75,-81.2 1487.86,-66.59 1735.38,-32 1741.94,-31.08 1748.81,-29.93 1755.58,-28.68"/>
<polygon fill="#63b8ff" stroke="#63b8ff" points="1756.21,-32.12 1765.36,-26.78 1754.87,-25.25 1756.21,-32.12"/>
</a>
</g>
</g>
</g>
</svg>
