<?xml version="1.0" encoding="UTF-8" standalone="no"?>
<!DOCTYPE svg PUBLIC "-//W3C//DTD SVG 1.1//EN"
 "http://www.w3.org/Graphics/SVG/1.1/DTD/svg11.dtd">
<!-- Generated by graphviz version 12.2.1 (20241206.2353)
 -->
<!-- Title: src/main/java/com/hust/ittnk68/cnpm/view/ClientFamilyPage.java Pages: 1 -->
<svg width="8523pt" height="120pt"
 viewBox="0.00 0.00 8522.75 120.00" xmlns="http://www.w3.org/2000/svg" xmlns:xlink="http://www.w3.org/1999/xlink">
<g id="graph0" class="graph" transform="scale(1 1) rotate(0) translate(4 116)">
<title>src/main/java/com/hust/ittnk68/cnpm/view/ClientFamilyPage.java</title>
<!-- Node1 -->
<g id="Node000001" class="node">
<title>Node1</title>
<g id="a_Node000001"><a xlink:title=" ">
<polygon fill="#999999" stroke="#666666" points="4674,-112 4517.75,-112 4517.75,-68 4674,-68 4674,-112"/>
<text text-anchor="start" x="4525.75" y="-98.5" font-family="Helvetica,sans-Serif" font-size="10.00">src/main/java/com/hust</text>
<text text-anchor="start" x="4525.75" y="-86.5" font-family="Helvetica,sans-Serif" font-size="10.00">/ittnk68/cnpm/view/ClientFamily</text>
<text text-anchor="middle" x="4595.88" y="-74.5" font-family="Helvetica,sans-Serif" font-size="10.00">Page.java</text>
</a>
</g>
</g>
<!-- Node2 -->
<g id="Node000002" class="node">
<title>Node2</title>
<g id="a_Node000002"><a xlink:title=" ">
<polygon fill="#e0e0e0" stroke="#999999" points="91.75,-26 0,-26 0,-6 91.75,-6 91.75,-26"/>
<text text-anchor="middle" x="45.88" y="-12.5" font-family="Helvetica,sans-Serif" font-size="10.00">java.util.ArrayList</text>
</a>
</g>
</g>
<!-- Node1&#45;&gt;Node2 -->
<g id="edge1_Node000001_Node000002" class="edge">
<title>Node1&#45;&gt;Node2</title>
<g id="a_edge1_Node000001_Node000002"><a xlink:title=" ">
<path fill="none" stroke="#63b8ff" d="M4517.48,-89.2C3955.91,-90.5 554.45,-95.67 100.88,-32 96.13,-31.33 91.22,-30.38 86.37,-29.28"/>
<polygon fill="#63b8ff" stroke="#63b8ff" points="87.29,-25.91 76.74,-26.86 85.59,-32.69 87.29,-25.91"/>
</a>
</g>
</g>
<!-- Node3 -->
<g id="Node000003" class="node">
<title>Node3</title>
<g id="a_Node000003"><a xlink:title=" ">
<polygon fill="#e0e0e0" stroke="#999999" points="178.12,-26 109.62,-26 109.62,-6 178.12,-6 178.12,-26"/>
<text text-anchor="middle" x="143.88" y="-12.5" font-family="Helvetica,sans-Serif" font-size="10.00">java.util.List</text>
</a>
</g>
</g>
<!-- Node1&#45;&gt;Node3 -->
<g id="edge2_Node000001_Node000003" class="edge">
<title>Node1&#45;&gt;Node3</title>
<g id="a_edge2_Node000001_Node000003"><a xlink:title=" ">
<path fill="none" stroke="#63b8ff" d="M4517.58,-88.7C3944.16,-86.45 408.52,-71.02 186.88,-32 183.84,-31.47 180.73,-30.75 177.65,-29.91"/>
<polygon fill="#63b8ff" stroke="#63b8ff" points="178.75,-26.59 168.16,-26.95 176.67,-33.27 178.75,-26.59"/>
</a>
</g>
</g>
<!-- Node4 -->
<g id="Node000004" class="node">
<title>Node4</title>
<g id="a_Node000004"><a xlink:title=" ">
<polygon fill="#e0e0e0" stroke="#999999" points="267.62,-26 196.12,-26 196.12,-6 267.62,-6 267.62,-26"/>
<text text-anchor="middle" x="231.88" y="-12.5" font-family="Helvetica,sans-Serif" font-size="10.00">java.util.Map</text>
</a>
</g>
</g>
<!-- Node1&#45;&gt;Node4 -->
<g id="edge3_Node000001_Node000004" class="edge">
<title>Node1&#45;&gt;Node4</title>
<g id="a_edge3_Node000001_Node000004"><a xlink:title=" ">
<path fill="none" stroke="#63b8ff" d="M4517.39,-88.65C3950.15,-86.05 494.02,-68.71 276.88,-32 273.49,-31.43 270.02,-30.65 266.57,-29.74"/>
<polygon fill="#63b8ff" stroke="#63b8ff" points="267.85,-26.46 257.26,-26.93 265.83,-33.17 267.85,-26.46"/>
</a>
</g>
</g>
<!-- Node5 -->
<g id="Node000005" class="node">
<title>Node5</title>
<g id="a_Node000005"><a xlink:title=" ">
<polygon fill="#e0e0e0" stroke="#999999" points="419.75,-32 286,-32 286,0 419.75,0 419.75,-32"/>
<text text-anchor="start" x="294" y="-18.5" font-family="Helvetica,sans-Serif" font-size="10.00">java.util.concurrent.atomic.</text>
<text text-anchor="middle" x="352.88" y="-6.5" font-family="Helvetica,sans-Serif" font-size="10.00">AtomicReference</text>
</a>
</g>
</g>
<!-- Node1&#45;&gt;Node5 -->
<g id="edge4_Node000001_Node000005" class="edge">
<title>Node1&#45;&gt;Node5</title>
<g id="a_edge4_Node000001_Node000005"><a xlink:title=" ">
<path fill="none" stroke="#63b8ff" d="M4517.31,-88.78C3983.92,-87.2 901.38,-76.21 431.17,-32.03"/>
<polygon fill="#63b8ff" stroke="#63b8ff" points="431.71,-28.57 421.42,-31.06 431.02,-35.53 431.71,-28.57"/>
</a>
</g>
</g>
<!-- Node6 -->
<g id="Node000006" class="node">
<title>Node6</title>
<g id="a_Node000006"><a xlink:title=" ">
<polygon fill="#e0e0e0" stroke="#999999" points="595.75,-32 438,-32 438,0 595.75,0 595.75,-32"/>
<text text-anchor="start" x="446" y="-18.5" font-family="Helvetica,sans-Serif" font-size="10.00">com.fasterxml.jackson.databind.</text>
<text text-anchor="middle" x="516.88" y="-6.5" font-family="Helvetica,sans-Serif" font-size="10.00">ObjectMapper</text>
</a>
</g>
</g>
<!-- Node1&#45;&gt;Node6 -->
<g id="edge5_Node000001_Node000006" class="edge">
<title>Node1&#45;&gt;Node6</title>
<g id="a_edge5_Node000001_Node000006"><a xlink:title=" ">
<path fill="none" stroke="#63b8ff" d="M4517.3,-88.61C3997.38,-85.93 1059.76,-69.26 607.4,-32.07"/>
<polygon fill="#63b8ff" stroke="#63b8ff" points="607.73,-28.58 597.46,-31.2 607.12,-35.56 607.73,-28.58"/>
</a>
</g>
</g>
<!-- Node7 -->
<g id="Node000007" class="node">
<title>Node7</title>
<g id="a_Node000007"><a xlink:title=" ">
<polygon fill="#e0e0e0" stroke="#999999" points="771.75,-32 614,-32 614,0 771.75,0 771.75,-32"/>
<text text-anchor="start" x="622" y="-18.5" font-family="Helvetica,sans-Serif" font-size="10.00">com.hust.ittnk68.cnpm.callback.</text>
<text text-anchor="middle" x="692.88" y="-6.5" font-family="Helvetica,sans-Serif" font-size="10.00">UpdateMessageInterface</text>
</a>
</g>
</g>
<!-- Node1&#45;&gt;Node7 -->
<g id="edge6_Node000001_Node000007" class="edge">
<title>Node1&#45;&gt;Node7</title>
<g id="a_edge6_Node000001_Node000007"><a xlink:title=" ">
<path fill="none" stroke="#63b8ff" d="M4517.51,-88.55C4011.76,-85.59 1216.05,-67.71 783.2,-32.05"/>
<polygon fill="#63b8ff" stroke="#63b8ff" points="783.73,-28.58 773.46,-31.2 783.12,-35.56 783.73,-28.58"/>
</a>
</g>
</g>
<!-- Node8 -->
<g id="Node000008" class="node">
<title>Node8</title>
<g id="a_Node000008"><a xlink:title=" ">
<polygon fill="#e0e0e0" stroke="#999999" points="977.75,-32 790,-32 790,0 977.75,0 977.75,-32"/>
<text text-anchor="start" x="798" y="-18.5" font-family="Helvetica,sans-Serif" font-size="10.00">com.hust.ittnk68.cnpm.communication.</text>
<text text-anchor="middle" x="883.88" y="-6.5" font-family="Helvetica,sans-Serif" font-size="10.00">PaymentRequest</text>
</a>
</g>
</g>
<!-- Node1&#45;&gt;Node8 -->
<g id="edge7_Node000001_Node000008" class="edge">
<title>Node1&#45;&gt;Node8</title>
<g id="a_edge7_Node000001_Node000008"><a xlink:title=" ">
<path fill="none" stroke="#63b8ff" d="M4517.39,-89.14C4059.75,-89.73 1731,-89.88 989.46,-32.12"/>
<polygon fill="#63b8ff" stroke="#63b8ff" points="989.87,-28.64 979.63,-31.34 989.32,-35.62 989.87,-28.64"/>
</a>
</g>
</g>
<!-- Node9 -->
<g id="Node000009" class="node">
<title>Node9</title>
<g id="a_Node000009"><a xlink:title=" ">
<polygon fill="#e0e0e0" stroke="#999999" points="1183.75,-32 996,-32 996,0 1183.75,0 1183.75,-32"/>
<text text-anchor="start" x="1004" y="-18.5" font-family="Helvetica,sans-Serif" font-size="10.00">com.hust.ittnk68.cnpm.communication.</text>
<text text-anchor="middle" x="1089.88" y="-6.5" font-family="Helvetica,sans-Serif" font-size="10.00">ServerCheckBankingResponse</text>
</a>
</g>
</g>
<!-- Node1&#45;&gt;Node9 -->
<g id="edge8_Node000001_Node000009" class="edge">
<title>Node1&#45;&gt;Node9</title>
<g id="a_edge8_Node000001_Node000009"><a xlink:title=" ">
<path fill="none" stroke="#63b8ff" d="M4517.58,-89.05C4076.16,-89.13 1893.79,-86.75 1195.55,-32.13"/>
<polygon fill="#63b8ff" stroke="#63b8ff" points="1195.87,-28.64 1185.63,-31.34 1195.32,-35.62 1195.87,-28.64"/>
</a>
</g>
</g>
<!-- Node10 -->
<g id="Node000010" class="node">
<title>Node10</title>
<g id="a_Node000010"><a xlink:title=" ">
<polygon fill="#e0e0e0" stroke="#999999" points="1389.75,-32 1202,-32 1202,0 1389.75,0 1389.75,-32"/>
<text text-anchor="start" x="1210" y="-18.5" font-family="Helvetica,sans-Serif" font-size="10.00">com.hust.ittnk68.cnpm.communication.</text>
<text text-anchor="middle" x="1295.88" y="-6.5" font-family="Helvetica,sans-Serif" font-size="10.00">ServerObjectByIdQueryResponse</text>
</a>
</g>
</g>
<!-- Node1&#45;&gt;Node10 -->
<g id="edge9_Node000001_Node000010" class="edge">
<title>Node1&#45;&gt;Node10</title>
<g id="a_edge9_Node000001_Node000010"><a xlink:title=" ">
<path fill="none" stroke="#63b8ff" d="M4517.48,-88.95C4092.09,-88.49 2056.28,-83.61 1401.55,-32.13"/>
<polygon fill="#63b8ff" stroke="#63b8ff" points="1401.88,-28.64 1391.63,-31.33 1401.32,-35.62 1401.88,-28.64"/>
</a>
</g>
</g>
<!-- Node11 -->
<g id="Node000011" class="node">
<title>Node11</title>
<g id="a_Node000011"><a xlink:title=" ">
<polygon fill="#e0e0e0" stroke="#999999" points="1595.75,-32 1408,-32 1408,0 1595.75,0 1595.75,-32"/>
<text text-anchor="start" x="1416" y="-18.5" font-family="Helvetica,sans-Serif" font-size="10.00">com.hust.ittnk68.cnpm.communication.</text>
<text text-anchor="middle" x="1501.88" y="-6.5" font-family="Helvetica,sans-Serif" font-size="10.00">ServerPaymentStatusQueryResponse</text>
</a>
</g>
</g>
<!-- Node1&#45;&gt;Node11 -->
<g id="edge10_Node000001_Node000011" class="edge">
<title>Node1&#45;&gt;Node11</title>
<g id="a_edge10_Node000001_Node000011"><a xlink:title=" ">
<path fill="none" stroke="#63b8ff" d="M4517.54,-88.84C4108.97,-87.81 2218.25,-80.49 1607.23,-32.1"/>
<polygon fill="#63b8ff" stroke="#63b8ff" points="1607.88,-28.65 1597.63,-31.33 1607.32,-35.62 1607.88,-28.65"/>
</a>
</g>
</g>
<!-- Node12 -->
<g id="Node000012" class="node">
<title>Node12</title>
<g id="a_Node000012"><a xlink:title=" ">
<polygon fill="#e0e0e0" stroke="#999999" points="1801.75,-32 1614,-32 1614,0 1801.75,0 1801.75,-32"/>
<text text-anchor="start" x="1622" y="-18.5" font-family="Helvetica,sans-Serif" font-size="10.00">com.hust.ittnk68.cnpm.communication.</text>
<text text-anchor="middle" x="1707.88" y="-6.5" font-family="Helvetica,sans-Serif" font-size="10.00">ServerQrCodeGenerateResponse</text>
</a>
</g>
</g>
<!-- Node1&#45;&gt;Node12 -->
<g id="edge11_Node000001_Node000012" class="edge">
<title>Node1&#45;&gt;Node12</title>
<g id="a_edge11_Node000001_Node000012"><a xlink:title=" ">
<path fill="none" stroke="#63b8ff" d="M4517.49,-88.71C4126.2,-87.08 2380.97,-77.37 1813.27,-32.11"/>
<polygon fill="#63b8ff" stroke="#63b8ff" points="1813.88,-28.65 1803.63,-31.33 1813.31,-35.62 1813.88,-28.65"/>
</a>
</g>
</g>
<!-- Node13 -->
<g id="Node000013" class="node">
<title>Node13</title>
<g id="a_Node000013"><a xlink:title=" ">
<polygon fill="#e0e0e0" stroke="#999999" points="2007.75,-32 1820,-32 1820,0 2007.75,0 2007.75,-32"/>
<text text-anchor="start" x="1828" y="-18.5" font-family="Helvetica,sans-Serif" font-size="10.00">com.hust.ittnk68.cnpm.communication.</text>
<text text-anchor="middle" x="1913.88" y="-6.5" font-family="Helvetica,sans-Serif" font-size="10.00">ServerQueryPersonByFIdResponse</text>
</a>
</g>
</g>
<!-- Node1&#45;&gt;Node13 -->
<g id="edge12_Node000001_Node000013" class="edge">
<title>Node1&#45;&gt;Node13</title>
<g id="a_edge12_Node000001_Node000013"><a xlink:title=" ">
<path fill="none" stroke="#63b8ff" d="M4517.46,-88.56C4144.2,-86.29 2544.31,-74.27 2019.56,-32.13"/>
<polygon fill="#63b8ff" stroke="#63b8ff" points="2019.88,-28.65 2009.63,-31.32 2019.31,-35.63 2019.88,-28.65"/>
</a>
</g>
</g>
<!-- Node14 -->
<g id="Node000014" class="node">
<title>Node14</title>
<g id="a_Node000014"><a xlink:title=" ">
<polygon fill="#e0e0e0" stroke="#999999" points="2213.75,-32 2026,-32 2026,0 2213.75,0 2213.75,-32"/>
<text text-anchor="start" x="2034" y="-18.5" font-family="Helvetica,sans-Serif" font-size="10.00">com.hust.ittnk68.cnpm.communication.</text>
<text text-anchor="middle" x="2119.88" y="-6.5" font-family="Helvetica,sans-Serif" font-size="10.00">UserGetPaymentQrCode</text>
</a>
</g>
</g>
<!-- Node1&#45;&gt;Node14 -->
<g id="edge13_Node000001_Node000014" class="edge">
<title>Node1&#45;&gt;Node14</title>
<g id="a_edge13_Node000001_Node000014"><a xlink:title=" ">
<path fill="none" stroke="#63b8ff" d="M4517.27,-88.39C4162.41,-85.43 2706.55,-71.16 2225.31,-32.12"/>
<polygon fill="#63b8ff" stroke="#63b8ff" points="2225.89,-28.65 2215.63,-31.31 2225.31,-35.63 2225.89,-28.65"/>
</a>
</g>
</g>
<!-- Node15 -->
<g id="Node000015" class="node">
<title>Node15</title>
<g id="a_Node000015"><a xlink:title=" ">
<polygon fill="#e0e0e0" stroke="#999999" points="2419.75,-32 2232,-32 2232,0 2419.75,0 2419.75,-32"/>
<text text-anchor="start" x="2240" y="-18.5" font-family="Helvetica,sans-Serif" font-size="10.00">com.hust.ittnk68.cnpm.communication.</text>
<text text-anchor="middle" x="2325.88" y="-6.5" font-family="Helvetica,sans-Serif" font-size="10.00">UserQueryObjectById</text>
</a>
</g>
</g>
<!-- Node1&#45;&gt;Node15 -->
<g id="edge14_Node000001_Node000015" class="edge">
<title>Node1&#45;&gt;Node15</title>
<g id="a_edge14_Node000001_Node000015"><a xlink:title=" ">
<path fill="none" stroke="#63b8ff" d="M4517.41,-88.18C4182.47,-84.5 2870.09,-68.09 2431.58,-32.14"/>
<polygon fill="#63b8ff" stroke="#63b8ff" points="2431.89,-28.66 2421.63,-31.31 2431.3,-35.63 2431.89,-28.66"/>
</a>
</g>
</g>
<!-- Node16 -->
<g id="Node000016" class="node">
<title>Node16</title>
<g id="a_Node000016"><a xlink:title=" ">
<polygon fill="#e0e0e0" stroke="#999999" points="2625.75,-32 2438,-32 2438,0 2625.75,0 2625.75,-32"/>
<text text-anchor="start" x="2446" y="-18.5" font-family="Helvetica,sans-Serif" font-size="10.00">com.hust.ittnk68.cnpm.communication.</text>
<text text-anchor="middle" x="2531.88" y="-6.5" font-family="Helvetica,sans-Serif" font-size="10.00">UserQueryPaymentStatus</text>
</a>
</g>
</g>
<!-- Node1&#45;&gt;Node16 -->
<g id="edge15_Node000001_Node000016" class="edge">
<title>Node1&#45;&gt;Node16</title>
<g id="a_edge15_Node000001_Node000016"><a xlink:title=" ">
<path fill="none" stroke="#63b8ff" d="M4517.5,-87.93C4203.21,-83.47 3032.61,-65.02 2637.31,-32.12"/>
<polygon fill="#63b8ff" stroke="#63b8ff" points="2637.89,-28.66 2627.63,-31.3 2637.3,-35.63 2637.89,-28.66"/>
</a>
</g>
</g>
<!-- Node17 -->
<g id="Node000017" class="node">
<title>Node17</title>
<g id="a_Node000017"><a xlink:title=" ">
<polygon fill="#e0e0e0" stroke="#999999" points="2831.75,-32 2644,-32 2644,0 2831.75,0 2831.75,-32"/>
<text text-anchor="start" x="2652" y="-18.5" font-family="Helvetica,sans-Serif" font-size="10.00">com.hust.ittnk68.cnpm.communication.</text>
<text text-anchor="middle" x="2737.88" y="-6.5" font-family="Helvetica,sans-Serif" font-size="10.00">UserQueryPersonByFId</text>
</a>
</g>
</g>
<!-- Node1&#45;&gt;Node17 -->
<g id="edge16_Node000001_Node000017" class="edge">
<title>Node1&#45;&gt;Node17</title>
<g id="a_edge16_Node000001_Node000017"><a xlink:title=" ">
<path fill="none" stroke="#63b8ff" d="M4517.41,-89.58C4271.72,-90.74 3495.31,-89.33 2843.16,-32.13"/>
<polygon fill="#63b8ff" stroke="#63b8ff" points="2843.9,-28.68 2833.63,-31.29 2843.29,-35.66 2843.9,-28.68"/>
</a>
</g>
</g>
<!-- Node18 -->
<g id="Node000018" class="node">
<title>Node18</title>
<g id="a_Node000018"><a xlink:title=" ">
<polygon fill="#e0e0e0" stroke="#999999" points="3010.25,-32 2849.5,-32 2849.5,0 3010.25,0 3010.25,-32"/>
<text text-anchor="start" x="2857.5" y="-18.5" font-family="Helvetica,sans-Serif" font-size="10.00">com.hust.ittnk68.cnpm.controller.</text>
<text text-anchor="middle" x="2929.88" y="-6.5" font-family="Helvetica,sans-Serif" font-size="10.00">ClientSceneController</text>
</a>
</g>
</g>
<!-- Node1&#45;&gt;Node18 -->
<g id="edge17_Node000001_Node000018" class="edge">
<title>Node1&#45;&gt;Node18</title>
<g id="a_edge17_Node000001_Node000018"><a xlink:title=" ">
<path fill="none" stroke="#63b8ff" d="M4517.34,-87.52C4244.39,-82.18 3336.95,-62.6 3021.75,-32.18"/>
<polygon fill="#63b8ff" stroke="#63b8ff" points="3022.14,-28.7 3011.85,-31.2 3021.45,-35.67 3022.14,-28.7"/>
</a>
</g>
</g>
<!-- Node19 -->
<g id="Node000019" class="node">
<title>Node19</title>
<g id="a_Node000019"><a xlink:title=" ">
<polygon fill="#e0e0e0" stroke="#999999" points="3175.88,-32 3027.88,-32 3027.88,0 3175.88,0 3175.88,-32"/>
<text text-anchor="start" x="3035.88" y="-18.5" font-family="Helvetica,sans-Serif" font-size="10.00">com.hust.ittnk68.cnpm.model.</text>
<text text-anchor="middle" x="3101.88" y="-6.5" font-family="Helvetica,sans-Serif" font-size="10.00">Expense</text>
</a>
</g>
</g>
<!-- Node1&#45;&gt;Node19 -->
<g id="edge18_Node000001_Node000019" class="edge">
<title>Node1&#45;&gt;Node19</title>
<g id="a_edge18_Node000001_Node000019"><a xlink:title=" ">
<path fill="none" stroke="#63b8ff" d="M4517.58,-89.63C4305.05,-90.52 3699.5,-87.68 3187.33,-32.16"/>
<polygon fill="#63b8ff" stroke="#63b8ff" points="3187.84,-28.69 3177.52,-31.09 3187.08,-35.65 3187.84,-28.69"/>
</a>
</g>
</g>
<!-- Node20 -->
<g id="Node000020" class="node">
<title>Node20</title>
<g id="a_Node000020"><a xlink:title=" ">
<polygon fill="#e0e0e0" stroke="#999999" points="3341.88,-32 3193.88,-32 3193.88,0 3341.88,0 3341.88,-32"/>
<text text-anchor="start" x="3201.88" y="-18.5" font-family="Helvetica,sans-Serif" font-size="10.00">com.hust.ittnk68.cnpm.model.</text>
<text text-anchor="middle" x="3267.88" y="-6.5" font-family="Helvetica,sans-Serif" font-size="10.00">PaymentStatus</text>
</a>
</g>
</g>
<!-- Node1&#45;&gt;Node20 -->
<g id="edge19_Node000001_Node000020" class="edge">
<title>Node1&#45;&gt;Node20</title>
<g id="a_edge19_Node000001_Node000020"><a xlink:title=" ">
<path fill="none" stroke="#63b8ff" d="M4517.29,-89.02C4321.94,-88.3 3798.55,-81.6 3353.18,-32.15"/>
<polygon fill="#63b8ff" stroke="#63b8ff" points="3353.85,-28.71 3343.52,-31.07 3353.07,-35.66 3353.85,-28.71"/>
</a>
</g>
</g>
<!-- Node21 -->
<g id="Node000021" class="node">
<title>Node21</title>
<g id="a_Node000021"><a xlink:title=" ">
<polygon fill="#e0e0e0" stroke="#999999" points="3500.12,-32 3359.62,-32 3359.62,0 3500.12,0 3500.12,-32"/>
<text text-anchor="start" x="3367.62" y="-18.5" font-family="Helvetica,sans-Serif" font-size="10.00">com.hust.ittnk68.cnpm.type.</text>
<text text-anchor="middle" x="3429.88" y="-6.5" font-family="Helvetica,sans-Serif" font-size="10.00">ExpenseType</text>
</a>
</g>
</g>
<!-- Node1&#45;&gt;Node21 -->
<g id="edge20_Node000001_Node000021" class="edge">
<title>Node1&#45;&gt;Node21</title>
<g id="a_edge20_Node000001_Node000021"><a xlink:title=" ">
<path fill="none" stroke="#63b8ff" d="M4517.54,-88.45C4340.2,-86.44 3894.33,-77.06 3511.77,-32.1"/>
<polygon fill="#63b8ff" stroke="#63b8ff" points="3512.31,-28.64 3501.97,-30.94 3511.49,-35.59 3512.31,-28.64"/>
</a>
</g>
</g>
<!-- Node22 -->
<g id="Node000022" class="node">
<title>Node22</title>
<g id="a_Node000022"><a xlink:title=" ">
<polygon fill="#e0e0e0" stroke="#999999" points="3659.12,-32 3518.62,-32 3518.62,0 3659.12,0 3659.12,-32"/>
<text text-anchor="start" x="3526.62" y="-18.5" font-family="Helvetica,sans-Serif" font-size="10.00">com.hust.ittnk68.cnpm.type.</text>
<text text-anchor="middle" x="3588.88" y="-6.5" font-family="Helvetica,sans-Serif" font-size="10.00">ResponseStatus</text>
</a>
</g>
</g>
<!-- Node1&#45;&gt;Node22 -->
<g id="edge21_Node000001_Node000022" class="edge">
<title>Node1&#45;&gt;Node22</title>
<g id="a_edge21_Node000001_Node000022"><a xlink:title=" ">
<path fill="none" stroke="#63b8ff" d="M4517.35,-87.52C4358.96,-83.81 3989.78,-71.48 3670.77,-32.26"/>
<polygon fill="#63b8ff" stroke="#63b8ff" points="3671.3,-28.8 3660.94,-31.04 3670.43,-35.75 3671.3,-28.8"/>
</a>
</g>
</g>
<!-- Node23 -->
<g id="Node000023" class="node">
<title>Node23</title>
<g id="a_Node000023"><a xlink:title=" ">
<polygon fill="#e0e0e0" stroke="#999999" points="3804.75,-32 3677,-32 3677,0 3804.75,0 3804.75,-32"/>
<text text-anchor="start" x="3685" y="-18.5" font-family="Helvetica,sans-Serif" font-size="10.00">org.kordamp.ikonli.javafx.</text>
<text text-anchor="middle" x="3740.88" y="-6.5" font-family="Helvetica,sans-Serif" font-size="10.00">FontIcon</text>
</a>
</g>
</g>
<!-- Node1&#45;&gt;Node23 -->
<g id="edge22_Node000001_Node000023" class="edge">
<title>Node1&#45;&gt;Node23</title>
<g id="a_edge22_Node000001_Node000023"><a xlink:title=" ">
<path fill="none" stroke="#63b8ff" d="M4517.27,-86.65C4377.92,-81.74 4078.36,-67.86 3816.16,-32.19"/>
<polygon fill="#63b8ff" stroke="#63b8ff" points="3816.77,-28.74 3806.39,-30.85 3815.82,-35.68 3816.77,-28.74"/>
</a>
</g>
</g>
<!-- Node24 -->
<g id="Node000024" class="node">
<title>Node24</title>
<g id="a_Node000024"><a xlink:title=" ">
<polygon fill="#e0e0e0" stroke="#999999" points="3964.5,-32 3823.25,-32 3823.25,0 3964.5,0 3964.5,-32"/>
<text text-anchor="start" x="3831.25" y="-18.5" font-family="Helvetica,sans-Serif" font-size="10.00">org.kordamp.ikonli.material2.</text>
<text text-anchor="middle" x="3893.88" y="-6.5" font-family="Helvetica,sans-Serif" font-size="10.00">Material2MZ</text>
</a>
</g>
</g>
<!-- Node1&#45;&gt;Node24 -->
<g id="edge23_Node000001_Node000024" class="edge">
<title>Node1&#45;&gt;Node24</title>
<g id="a_edge23_Node000001_Node000024"><a xlink:title=" ">
<path fill="none" stroke="#63b8ff" d="M4517.41,-84.26C4401.21,-76.69 4176.36,-60 3976.21,-32.39"/>
<polygon fill="#63b8ff" stroke="#63b8ff" points="3976.77,-28.94 3966.38,-31.03 3975.8,-35.87 3976.77,-28.94"/>
</a>
</g>
</g>
<!-- Node25 -->
<g id="Node000025" class="node">
<title>Node25</title>
<g id="a_Node000025"><a xlink:title=" ">
<polygon fill="#e0e0e0" stroke="#999999" points="4123.5,-32 3982.25,-32 3982.25,0 4123.5,0 4123.5,-32"/>
<text text-anchor="start" x="3990.25" y="-18.5" font-family="Helvetica,sans-Serif" font-size="10.00">org.kordamp.ikonli.material2.</text>
<text text-anchor="middle" x="4052.88" y="-6.5" font-family="Helvetica,sans-Serif" font-size="10.00">Material2OutlinedAL</text>
</a>
</g>
</g>
<!-- Node1&#45;&gt;Node25 -->
<g id="edge24_Node000001_Node000025" class="edge">
<title>Node1&#45;&gt;Node25</title>
<g id="a_edge24_Node000001_Node000025"><a xlink:title=" ">
<path fill="none" stroke="#63b8ff" d="M4517.25,-80.93C4427.23,-71.33 4275.08,-54.02 4135.23,-32.47"/>
<polygon fill="#63b8ff" stroke="#63b8ff" points="4135.81,-29.02 4125.39,-30.94 4134.74,-35.94 4135.81,-29.02"/>
</a>
</g>
</g>
<!-- Node26 -->
<g id="Node000026" class="node">
<title>Node26</title>
<g id="a_Node000026"><a xlink:title=" ">
<polygon fill="#e0e0e0" stroke="#999999" points="4280.38,-26 4141.38,-26 4141.38,-6 4280.38,-6 4280.38,-26"/>
<text text-anchor="middle" x="4210.88" y="-12.5" font-family="Helvetica,sans-Serif" font-size="10.00">atlantafx.base.controls.Card</text>
</a>
</g>
</g>
<!-- Node1&#45;&gt;Node26 -->
<g id="edge25_Node000001_Node000026" class="edge">
<title>Node1&#45;&gt;Node26</title>
<g id="a_edge25_Node000001_Node000026"><a xlink:title=" ">
<path fill="none" stroke="#63b8ff" d="M4517.3,-74.55C4455.26,-63.11 4366.51,-46.67 4288.88,-32 4283.03,-30.9 4276.94,-29.74 4270.86,-28.58"/>
<polygon fill="#63b8ff" stroke="#63b8ff" points="4271.93,-25.22 4261.45,-26.77 4270.61,-32.09 4271.93,-25.22"/>
</a>
</g>
</g>
<!-- Node27 -->
<g id="Node000027" class="node">
<title>Node27</title>
<g id="a_Node000027"><a xlink:title=" ">
<polygon fill="#e0e0e0" stroke="#999999" points="4431.75,-26 4298,-26 4298,-6 4431.75,-6 4431.75,-26"/>
<text text-anchor="middle" x="4364.88" y="-12.5" font-family="Helvetica,sans-Serif" font-size="10.00">atlantafx.base.controls.Tile</text>
</a>
</g>
</g>
<!-- Node1&#45;&gt;Node27 -->
<g id="edge26_Node000001_Node000027" class="edge">
<title>Node1&#45;&gt;Node27</title>
<g id="a_edge26_Node000001_Node000027"><a xlink:title=" ">
<path fill="none" stroke="#63b8ff" d="M4527.19,-67.59C4487.76,-55.3 4439.57,-40.28 4405.98,-29.81"/>
<polygon fill="#63b8ff" stroke="#63b8ff" points="4407.22,-26.53 4396.63,-26.9 4405.14,-33.22 4407.22,-26.53"/>
</a>
</g>
</g>
<!-- Node28 -->
<g id="Node000028" class="node">
<title>Node28</title>
<g id="a_Node000028"><a xlink:title=" ">
<polygon fill="#e0e0e0" stroke="#999999" points="4588,-26 4449.75,-26 4449.75,-6 4588,-6 4588,-26"/>
<text text-anchor="middle" x="4518.88" y="-12.5" font-family="Helvetica,sans-Serif" font-size="10.00">atlantafx.base.theme.Styles</text>
</a>
</g>
</g>
<!-- Node1&#45;&gt;Node28 -->
<g id="edge27_Node000001_Node000028" class="edge">
<title>Node1&#45;&gt;Node28</title>
<g id="a_edge27_Node000001_Node000028"><a xlink:title=" ">
<path fill="none" stroke="#63b8ff" d="M4573.19,-67.79C4561.68,-57.03 4547.9,-44.14 4537.09,-34.03"/>
<polygon fill="#63b8ff" stroke="#63b8ff" points="4539.63,-31.62 4529.94,-27.35 4534.85,-36.73 4539.63,-31.62"/>
</a>
</g>
</g>
<!-- Node29 -->
<g id="Node000029" class="node">
<title>Node29</title>
<g id="a_Node000029"><a xlink:title=" ">
<polygon fill="#e0e0e0" stroke="#999999" points="4739.75,-26 4606,-26 4606,-6 4739.75,-6 4739.75,-26"/>
<text text-anchor="middle" x="4672.88" y="-12.5" font-family="Helvetica,sans-Serif" font-size="10.00">javafx.animation.Animation</text>
</a>
</g>
</g>
<!-- Node1&#45;&gt;Node29 -->
<g id="edge28_Node000001_Node000029" class="edge">
<title>Node1&#45;&gt;Node29</title>
<g id="a_edge28_Node000001_Node000029"><a xlink:title=" ">
<path fill="none" stroke="#63b8ff" d="M4618.56,-67.79C4630.07,-57.03 4643.85,-44.14 4654.66,-34.03"/>
<polygon fill="#63b8ff" stroke="#63b8ff" points="4656.9,-36.73 4661.81,-27.35 4652.12,-31.62 4656.9,-36.73"/>
</a>
</g>
</g>
<!-- Node30 -->
<g id="Node000030" class="node">
<title>Node30</title>
<g id="a_Node000030"><a xlink:title=" ">
<polygon fill="#e0e0e0" stroke="#999999" points="4893.5,-26 4758.25,-26 4758.25,-6 4893.5,-6 4893.5,-26"/>
<text text-anchor="middle" x="4825.88" y="-12.5" font-family="Helvetica,sans-Serif" font-size="10.00">javafx.animation.KeyFrame</text>
</a>
</g>
</g>
<!-- Node1&#45;&gt;Node30 -->
<g id="edge29_Node000001_Node000030" class="edge">
<title>Node1&#45;&gt;Node30</title>
<g id="a_edge29_Node000001_Node000030"><a xlink:title=" ">
<path fill="none" stroke="#63b8ff" d="M4664.26,-67.59C4703.52,-55.3 4751.5,-40.28 4784.94,-29.81"/>
<polygon fill="#63b8ff" stroke="#63b8ff" points="4785.75,-33.23 4794.25,-26.9 4783.66,-26.55 4785.75,-33.23"/>
</a>
</g>
</g>
<!-- Node31 -->
<g id="Node000031" class="node">
<title>Node31</title>
<g id="a_Node000031"><a xlink:title=" ">
<polygon fill="#e0e0e0" stroke="#999999" points="5074,-26 4911.75,-26 4911.75,-6 5074,-6 5074,-26"/>
<text text-anchor="middle" x="4992.88" y="-12.5" font-family="Helvetica,sans-Serif" font-size="10.00">javafx.animation.RotateTransition</text>
</a>
</g>
</g>
<!-- Node1&#45;&gt;Node31 -->
<g id="edge30_Node000001_Node000031" class="edge">
<title>Node1&#45;&gt;Node31</title>
<g id="a_edge30_Node000001_Node000031"><a xlink:title=" ">
<path fill="none" stroke="#63b8ff" d="M4674.31,-74.78C4749.01,-61.23 4860.06,-41.09 4929.38,-28.52"/>
<polygon fill="#63b8ff" stroke="#63b8ff" points="4929.85,-31.99 4939.06,-26.76 4928.6,-25.1 4929.85,-31.99"/>
</a>
</g>
</g>
<!-- Node32 -->
<g id="Node000032" class="node">
<title>Node32</title>
<g id="a_Node000032"><a xlink:title=" ">
<polygon fill="#e0e0e0" stroke="#999999" points="5219.38,-26 5092.38,-26 5092.38,-6 5219.38,-6 5219.38,-26"/>
<text text-anchor="middle" x="5155.88" y="-12.5" font-family="Helvetica,sans-Serif" font-size="10.00">javafx.animation.Timeline</text>
</a>
</g>
</g>
<!-- Node1&#45;&gt;Node32 -->
<g id="edge31_Node000001_Node000032" class="edge">
<title>Node1&#45;&gt;Node32</title>
<g id="a_edge31_Node000001_Node000032"><a xlink:title=" ">
<path fill="none" stroke="#63b8ff" d="M4674.18,-81.93C4770.64,-72.74 4939.37,-55.1 5082.88,-32 5089.18,-30.99 5095.76,-29.81 5102.28,-28.56"/>
<polygon fill="#63b8ff" stroke="#63b8ff" points="5102.52,-32.08 5111.66,-26.72 5101.17,-25.21 5102.52,-32.08"/>
</a>
</g>
</g>
<!-- Node33 -->
<g id="Node000033" class="node">
<title>Node33</title>
<g id="a_Node000033"><a xlink:title=" ">
<polygon fill="#e0e0e0" stroke="#999999" points="5368.62,-26 5237.12,-26 5237.12,-6 5368.62,-6 5368.62,-26"/>
<text text-anchor="middle" x="5302.88" y="-12.5" font-family="Helvetica,sans-Serif" font-size="10.00">javafx.application.Platform</text>
</a>
</g>
</g>
<!-- Node1&#45;&gt;Node33 -->
<g id="edge32_Node000001_Node000033" class="edge">
<title>Node1&#45;&gt;Node33</title>
<g id="a_edge32_Node000001_Node000033"><a xlink:title=" ">
<path fill="none" stroke="#63b8ff" d="M4674.16,-84.73C4794.05,-77.57 5030.16,-61 5228.88,-32 5235.44,-31.04 5242.3,-29.88 5249.08,-28.62"/>
<polygon fill="#63b8ff" stroke="#63b8ff" points="5249.72,-32.07 5258.88,-26.74 5248.39,-25.19 5249.72,-32.07"/>
</a>
</g>
</g>
<!-- Node34 -->
<g id="Node000034" class="node">
<title>Node34</title>
<g id="a_Node000034"><a xlink:title=" ">
<polygon fill="#e0e0e0" stroke="#999999" points="5501.38,-26 5386.38,-26 5386.38,-6 5501.38,-6 5501.38,-26"/>
<text text-anchor="middle" x="5443.88" y="-12.5" font-family="Helvetica,sans-Serif" font-size="10.00">javafx.concurrent.Task</text>
</a>
</g>
</g>
<!-- Node1&#45;&gt;Node34 -->
<g id="edge33_Node000001_Node000034" class="edge">
<title>Node1&#45;&gt;Node34</title>
<g id="a_edge33_Node000001_Node000034"><a xlink:title=" ">
<path fill="none" stroke="#63b8ff" d="M4674.28,-87.19C4815.62,-83.06 5122.24,-70.14 5377.88,-32 5383.61,-31.14 5389.59,-30.06 5395.5,-28.87"/>
<polygon fill="#63b8ff" stroke="#63b8ff" points="5396.18,-32.3 5405.23,-26.79 5394.72,-25.46 5396.18,-32.3"/>
</a>
</g>
</g>
<!-- Node35 -->
<g id="Node000035" class="node">
<title>Node35</title>
<g id="a_Node000035"><a xlink:title=" ">
<polygon fill="#e0e0e0" stroke="#999999" points="5634,-26 5519.75,-26 5519.75,-6 5634,-6 5634,-26"/>
<text text-anchor="middle" x="5576.88" y="-12.5" font-family="Helvetica,sans-Serif" font-size="10.00">javafx.geometry.Insets</text>
</a>
</g>
</g>
<!-- Node1&#45;&gt;Node35 -->
<g id="edge34_Node000001_Node000035" class="edge">
<title>Node1&#45;&gt;Node35</title>
<g id="a_edge34_Node000001_Node000035"><a xlink:title=" ">
<path fill="none" stroke="#63b8ff" d="M4674.34,-88.36C4833.1,-86.14 5203.47,-76.21 5510.88,-32 5516.84,-31.14 5523.06,-30.03 5529.19,-28.79"/>
<polygon fill="#63b8ff" stroke="#63b8ff" points="5529.54,-32.3 5538.59,-26.78 5528.08,-25.45 5529.54,-32.3"/>
</a>
</g>
</g>
<!-- Node36 -->
<g id="Node000036" class="node">
<title>Node36</title>
<g id="a_Node000036"><a xlink:title=" ">
<polygon fill="#e0e0e0" stroke="#999999" points="5756.12,-26 5651.62,-26 5651.62,-6 5756.12,-6 5756.12,-26"/>
<text text-anchor="middle" x="5703.88" y="-12.5" font-family="Helvetica,sans-Serif" font-size="10.00">javafx.geometry.Pos</text>
</a>
</g>
</g>
<!-- Node1&#45;&gt;Node36 -->
<g id="edge35_Node000001_Node000036" class="edge">
<title>Node1&#45;&gt;Node36</title>
<g id="a_edge35_Node000001_Node000036"><a xlink:title=" ">
<path fill="none" stroke="#63b8ff" d="M4674.2,-89.71C4849.01,-90.21 5283.89,-85.43 5642.88,-32 5648.19,-31.21 5653.72,-30.17 5659.19,-29"/>
<polygon fill="#63b8ff" stroke="#63b8ff" points="5659.78,-32.45 5668.74,-26.8 5658.22,-25.63 5659.78,-32.45"/>
</a>
</g>
</g>
<!-- Node37 -->
<g id="Node000037" class="node">
<title>Node37</title>
<g id="a_Node000037"><a xlink:title=" ">
<polygon fill="#e0e0e0" stroke="#999999" points="5871.75,-26 5774,-26 5774,-6 5871.75,-6 5871.75,-26"/>
<text text-anchor="middle" x="5822.88" y="-12.5" font-family="Helvetica,sans-Serif" font-size="10.00">javafx.scene.Node</text>
</a>
</g>
</g>
<!-- Node1&#45;&gt;Node37 -->
<g id="edge36_Node000001_Node000037" class="edge">
<title>Node1&#45;&gt;Node37</title>
<g id="a_edge36_Node000001_Node000037"><a xlink:title=" ">
<path fill="none" stroke="#63b8ff" d="M4674.3,-87.27C4900.89,-81.92 5553.7,-64.11 5764.88,-32 5769.87,-31.24 5775.05,-30.23 5780.18,-29.09"/>
<polygon fill="#63b8ff" stroke="#63b8ff" points="5780.83,-32.53 5789.74,-26.79 5779.2,-25.73 5780.83,-32.53"/>
</a>
</g>
</g>
<!-- Node38 -->
<g id="Node000038" class="node">
<title>Node38</title>
<g id="a_Node000038"><a xlink:title=" ">
<polygon fill="#e0e0e0" stroke="#999999" points="6025.5,-26 5890.25,-26 5890.25,-6 6025.5,-6 6025.5,-26"/>
<text text-anchor="middle" x="5957.88" y="-12.5" font-family="Helvetica,sans-Serif" font-size="10.00">javafx.scene.control.Button</text>
</a>
</g>
</g>
<!-- Node1&#45;&gt;Node38 -->
<g id="edge37_Node000001_Node000038" class="edge">
<title>Node1&#45;&gt;Node38</title>
<g id="a_edge37_Node000001_Node000038"><a xlink:title=" ">
<path fill="none" stroke="#63b8ff" d="M4674.43,-89.55C4875.75,-90.09 5426.29,-86.06 5880.88,-32 5888.42,-31.1 5896.33,-29.89 5904.09,-28.53"/>
<polygon fill="#63b8ff" stroke="#63b8ff" points="5904.6,-31.99 5913.8,-26.74 5903.33,-25.11 5904.6,-31.99"/>
</a>
</g>
</g>
<!-- Node39 -->
<g id="Node000039" class="node">
<title>Node39</title>
<g id="a_Node000039"><a xlink:title=" ">
<polygon fill="#e0e0e0" stroke="#999999" points="6173.88,-26 6043.88,-26 6043.88,-6 6173.88,-6 6173.88,-26"/>
<text text-anchor="middle" x="6108.88" y="-12.5" font-family="Helvetica,sans-Serif" font-size="10.00">javafx.scene.control.Label</text>
</a>
</g>
</g>
<!-- Node1&#45;&gt;Node39 -->
<g id="edge38_Node000001_Node000039" class="edge">
<title>Node1&#45;&gt;Node39</title>
<g id="a_edge38_Node000001_Node000039"><a xlink:title=" ">
<path fill="none" stroke="#63b8ff" d="M4674.25,-87.55C4934.42,-82.49 5768.03,-64.12 6034.88,-32 6042.13,-31.13 6049.74,-29.92 6057.21,-28.57"/>
<polygon fill="#63b8ff" stroke="#63b8ff" points="6057.7,-32.04 6066.87,-26.72 6056.39,-25.16 6057.7,-32.04"/>
</a>
</g>
</g>
<!-- Node40 -->
<g id="Node000040" class="node">
<title>Node40</title>
<g id="a_Node000040"><a xlink:title=" ">
<polygon fill="#e0e0e0" stroke="#999999" points="6345.88,-26 6191.88,-26 6191.88,-6 6345.88,-6 6345.88,-26"/>
<text text-anchor="middle" x="6268.88" y="-12.5" font-family="Helvetica,sans-Serif" font-size="10.00">javafx.scene.control.ScrollPane</text>
</a>
</g>
</g>
<!-- Node1&#45;&gt;Node40 -->
<g id="edge39_Node000001_Node000040" class="edge">
<title>Node1&#45;&gt;Node40</title>
<g id="a_edge39_Node000001_Node000040"><a xlink:title=" ">
<path fill="none" stroke="#63b8ff" d="M4674.43,-87.6C4951.94,-82.44 5885.37,-63.14 6182.88,-32 6191.67,-31.08 6200.93,-29.8 6209.97,-28.37"/>
<polygon fill="#63b8ff" stroke="#63b8ff" points="6210.49,-31.83 6219.78,-26.75 6209.34,-24.93 6210.49,-31.83"/>
</a>
</g>
</g>
<!-- Node41 -->
<g id="Node000041" class="node">
<title>Node41</title>
<g id="a_Node000041"><a xlink:title=" ">
<polygon fill="#e0e0e0" stroke="#999999" points="6486.12,-26 6363.62,-26 6363.62,-6 6486.12,-6 6486.12,-26"/>
<text text-anchor="middle" x="6424.88" y="-12.5" font-family="Helvetica,sans-Serif" font-size="10.00">javafx.scene.control.Tab</text>
</a>
</g>
</g>
<!-- Node1&#45;&gt;Node41 -->
<g id="edge40_Node000001_Node000041" class="edge">
<title>Node1&#45;&gt;Node41</title>
<g id="a_edge40_Node000001_Node000041"><a xlink:title=" ">
<path fill="none" stroke="#63b8ff" d="M4674.42,-88.32C4971,-85.47 6022.69,-72.64 6354.88,-32 6361.68,-31.17 6368.79,-30 6375.78,-28.68"/>
<polygon fill="#63b8ff" stroke="#63b8ff" points="6375.98,-32.21 6385.09,-26.8 6374.59,-25.34 6375.98,-32.21"/>
</a>
</g>
</g>
<!-- Node42 -->
<g id="Node000042" class="node">
<title>Node42</title>
<g id="a_Node000042"><a xlink:title=" ">
<polygon fill="#e0e0e0" stroke="#999999" points="6657.12,-26 6504.62,-26 6504.62,-6 6657.12,-6 6657.12,-26"/>
<text text-anchor="middle" x="6580.88" y="-12.5" font-family="Helvetica,sans-Serif" font-size="10.00">javafx.scene.image.ImageView</text>
</a>
</g>
</g>
<!-- Node1&#45;&gt;Node42 -->
<g id="edge41_Node000001_Node000042" class="edge">
<title>Node1&#45;&gt;Node42</title>
<g id="a_edge41_Node000001_Node000042"><a xlink:title=" ">
<path fill="none" stroke="#63b8ff" d="M4674.43,-88.14C4985.7,-84.49 6133.1,-68.79 6494.88,-32 6503.88,-31.08 6513.36,-29.78 6522.61,-28.32"/>
<polygon fill="#63b8ff" stroke="#63b8ff" points="6522.94,-31.81 6532.24,-26.72 6521.8,-24.9 6522.94,-31.81"/>
</a>
</g>
</g>
<!-- Node43 -->
<g id="Node000043" class="node">
<title>Node43</title>
<g id="a_Node000043"><a xlink:title=" ">
<polygon fill="#e0e0e0" stroke="#999999" points="6832.38,-26 6675.38,-26 6675.38,-6 6832.38,-6 6832.38,-26"/>
<text text-anchor="middle" x="6753.88" y="-12.5" font-family="Helvetica,sans-Serif" font-size="10.00">javafx.scene.layout.AnchorPane</text>
</a>
</g>
</g>
<!-- Node1&#45;&gt;Node43 -->
<g id="edge42_Node000001_Node000043" class="edge">
<title>Node1&#45;&gt;Node43</title>
<g id="a_edge42_Node000001_Node000043"><a xlink:title=" ">
<path fill="none" stroke="#63b8ff" d="M4674.42,-88.32C5003,-85.26 6268.63,-71.13 6665.88,-32 6675.19,-31.08 6685,-29.76 6694.56,-28.28"/>
<polygon fill="#63b8ff" stroke="#63b8ff" points="6694.82,-31.79 6704.13,-26.73 6693.7,-24.88 6694.82,-31.79"/>
</a>
</g>
</g>
<!-- Node44 -->
<g id="Node000044" class="node">
<title>Node44</title>
<g id="a_Node000044"><a xlink:title=" ">
<polygon fill="#e0e0e0" stroke="#999999" points="6979.12,-26 6850.62,-26 6850.62,-6 6979.12,-6 6979.12,-26"/>
<text text-anchor="middle" x="6914.88" y="-12.5" font-family="Helvetica,sans-Serif" font-size="10.00">javafx.scene.layout.HBox</text>
</a>
</g>
</g>
<!-- Node1&#45;&gt;Node44 -->
<g id="edge43_Node000001_Node000044" class="edge">
<title>Node1&#45;&gt;Node44</title>
<g id="a_edge43_Node000001_Node000044"><a xlink:title=" ">
<path fill="none" stroke="#63b8ff" d="M4674.34,-88.87C5019.99,-88.04 6408.82,-81.59 6841.88,-32 6849.13,-31.17 6856.74,-29.98 6864.18,-28.62"/>
<polygon fill="#63b8ff" stroke="#63b8ff" points="6864.66,-32.09 6873.81,-26.75 6863.33,-25.22 6864.66,-32.09"/>
</a>
</g>
</g>
<!-- Node45 -->
<g id="Node000045" class="node">
<title>Node45</title>
<g id="a_Node000045"><a xlink:title=" ">
<polygon fill="#e0e0e0" stroke="#999999" points="7132.12,-26 6997.62,-26 6997.62,-6 7132.12,-6 7132.12,-26"/>
<text text-anchor="middle" x="7064.88" y="-12.5" font-family="Helvetica,sans-Serif" font-size="10.00">javafx.scene.layout.Priority</text>
</a>
</g>
</g>
<!-- Node1&#45;&gt;Node45 -->
<g id="edge44_Node000001_Node000045" class="edge">
<title>Node1&#45;&gt;Node45</title>
<g id="a_edge44_Node000001_Node000045"><a xlink:title=" ">
<path fill="none" stroke="#63b8ff" d="M4674.26,-88.91C5033.41,-88.22 6524.19,-82.33 6987.88,-32 6995.7,-31.15 7003.91,-29.92 7011.94,-28.53"/>
<polygon fill="#63b8ff" stroke="#63b8ff" points="7012.42,-32 7021.62,-26.74 7011.15,-25.11 7012.42,-32"/>
</a>
</g>
</g>
<!-- Node46 -->
<g id="Node000046" class="node">
<title>Node46</title>
<g id="a_Node000046"><a xlink:title=" ">
<polygon fill="#e0e0e0" stroke="#999999" points="7285.12,-26 7150.62,-26 7150.62,-6 7285.12,-6 7285.12,-26"/>
<text text-anchor="middle" x="7217.88" y="-12.5" font-family="Helvetica,sans-Serif" font-size="10.00">javafx.scene.layout.Region</text>
</a>
</g>
</g>
<!-- Node1&#45;&gt;Node46 -->
<g id="edge45_Node000001_Node000046" class="edge">
<title>Node1&#45;&gt;Node46</title>
<g id="a_edge45_Node000001_Node000046"><a xlink:title=" ">
<path fill="none" stroke="#63b8ff" d="M4674.23,-89.04C5047.24,-88.96 6645.31,-85.43 7140.88,-32 7148.7,-31.16 7156.91,-29.93 7164.94,-28.54"/>
<polygon fill="#63b8ff" stroke="#63b8ff" points="7165.42,-32.01 7174.62,-26.75 7164.15,-25.12 7165.42,-32.01"/>
</a>
</g>
</g>
<!-- Node47 -->
<g id="Node000047" class="node">
<title>Node47</title>
<g id="a_Node000047"><a xlink:title=" ">
<polygon fill="#e0e0e0" stroke="#999999" points="7430.75,-26 7303,-26 7303,-6 7430.75,-6 7430.75,-26"/>
<text text-anchor="middle" x="7366.88" y="-12.5" font-family="Helvetica,sans-Serif" font-size="10.00">javafx.scene.layout.VBox</text>
</a>
</g>
</g>
<!-- Node1&#45;&gt;Node47 -->
<g id="edge46_Node000001_Node000047" class="edge">
<title>Node1&#45;&gt;Node47</title>
<g id="a_edge46_Node000001_Node000047"><a xlink:title=" ">
<path fill="none" stroke="#63b8ff" d="M4674.41,-89.26C5061.28,-90.27 6766.75,-91.23 7293.88,-32 7301.13,-31.18 7308.74,-30 7316.19,-28.65"/>
<polygon fill="#63b8ff" stroke="#63b8ff" points="7316.67,-32.12 7325.82,-26.78 7315.33,-25.25 7316.67,-32.12"/>
</a>
</g>
</g>
<!-- Node48 -->
<g id="Node000048" class="node">
<title>Node48</title>
<g id="a_Node000048"><a xlink:title=" ">
<polygon fill="#e0e0e0" stroke="#999999" points="7570.75,-26 7449,-26 7449,-6 7570.75,-6 7570.75,-26"/>
<text text-anchor="middle" x="7509.88" y="-12.5" font-family="Helvetica,sans-Serif" font-size="10.00">javafx.scene.paint.Color</text>
</a>
</g>
</g>
<!-- Node1&#45;&gt;Node48 -->
<g id="edge47_Node000001_Node000048" class="edge">
<title>Node1&#45;&gt;Node48</title>
<g id="a_edge47_Node000001_Node000048"><a xlink:title=" ">
<path fill="none" stroke="#63b8ff" d="M4674.39,-88.32C5103.78,-84.5 7158.96,-64.61 7439.88,-32 7446.76,-31.2 7453.97,-30.04 7461.03,-28.71"/>
<polygon fill="#63b8ff" stroke="#63b8ff" points="7461.72,-32.14 7470.83,-26.73 7460.33,-25.28 7461.72,-32.14"/>
</a>
</g>
</g>
<!-- Node49 -->
<g id="Node000049" class="node">
<title>Node49</title>
<g id="a_Node000049"><a xlink:title=" ">
<polygon fill="#e0e0e0" stroke="#999999" points="7718.5,-26 7589.25,-26 7589.25,-6 7718.5,-6 7718.5,-26"/>
<text text-anchor="middle" x="7653.88" y="-12.5" font-family="Helvetica,sans-Serif" font-size="10.00">javafx.scene.shape.Circle</text>
</a>
</g>
</g>
<!-- Node1&#45;&gt;Node49 -->
<g id="edge48_Node000001_Node000049" class="edge">
<title>Node1&#45;&gt;Node49</title>
<g id="a_edge48_Node000001_Node000049"><a xlink:title=" ">
<path fill="none" stroke="#63b8ff" d="M4674.23,-88.35C5115.79,-84.58 7284.05,-64.54 7579.88,-32 7587.4,-31.17 7595.3,-29.95 7603.02,-28.56"/>
<polygon fill="#63b8ff" stroke="#63b8ff" points="7603.5,-32.04 7612.66,-26.71 7602.18,-25.16 7603.5,-32.04"/>
</a>
</g>
</g>
<!-- Node50 -->
<g id="Node000050" class="node">
<title>Node50</title>
<g id="a_Node000050"><a xlink:title=" ">
<polygon fill="#e0e0e0" stroke="#999999" points="7869,-32 7736.75,-32 7736.75,0 7869,0 7869,-32"/>
<text text-anchor="start" x="7744.75" y="-18.5" font-family="Helvetica,sans-Serif" font-size="10.00">javafx.scene.shape.Stroke</text>
<text text-anchor="middle" x="7802.88" y="-6.5" font-family="Helvetica,sans-Serif" font-size="10.00">LineCap</text>
</a>
</g>
</g>
<!-- Node1&#45;&gt;Node50 -->
<g id="edge49_Node000001_Node000050" class="edge">
<title>Node1&#45;&gt;Node50</title>
<g id="a_edge49_Node000001_Node000050"><a xlink:title=" ">
<path fill="none" stroke="#63b8ff" d="M4674.38,-88.41C5124.17,-84.94 7366.44,-66.12 7725.07,-32.09"/>
<polygon fill="#63b8ff" stroke="#63b8ff" points="7725.21,-35.6 7734.81,-31.11 7724.51,-28.63 7725.21,-35.6"/>
</a>
</g>
</g>
<!-- Node51 -->
<g id="Node000051" class="node">
<title>Node51</title>
<g id="a_Node000051"><a xlink:title=" ">
<polygon fill="#e0e0e0" stroke="#999999" points="8000.62,-26 7887.12,-26 7887.12,-6 8000.62,-6 8000.62,-26"/>
<text text-anchor="middle" x="7943.88" y="-12.5" font-family="Helvetica,sans-Serif" font-size="10.00">javafx.scene.text.Font</text>
</a>
</g>
</g>
<!-- Node1&#45;&gt;Node51 -->
<g id="edge50_Node000001_Node000051" class="edge">
<title>Node1&#45;&gt;Node51</title>
<g id="a_edge50_Node000001_Node000051"><a xlink:title=" ">
<path fill="none" stroke="#63b8ff" d="M4674.31,-88.61C5141.78,-86.13 7551.15,-71.54 7877.88,-32 7884.3,-31.22 7891.02,-30.08 7897.6,-28.78"/>
<polygon fill="#63b8ff" stroke="#63b8ff" points="7897.96,-32.28 7907.01,-26.77 7896.5,-25.44 7897.96,-32.28"/>
</a>
</g>
</g>
<!-- Node52 -->
<g id="Node000052" class="node">
<title>Node52</title>
<g id="a_Node000052"><a xlink:title=" ">
<polygon fill="#e0e0e0" stroke="#999999" points="8131.25,-26 8018.5,-26 8018.5,-6 8131.25,-6 8131.25,-26"/>
<text text-anchor="middle" x="8074.88" y="-12.5" font-family="Helvetica,sans-Serif" font-size="10.00">javafx.scene.text.Text</text>
</a>
</g>
</g>
<!-- Node1&#45;&gt;Node52 -->
<g id="edge51_Node000001_Node000052" class="edge">
<title>Node1&#45;&gt;Node52</title>
<g id="a_edge51_Node000001_Node000052"><a xlink:title=" ">
<path fill="none" stroke="#63b8ff" d="M4674.34,-88.68C5152.89,-86.59 7669.34,-73.67 8009.88,-32 8016.05,-31.24 8022.5,-30.14 8028.84,-28.88"/>
<polygon fill="#63b8ff" stroke="#63b8ff" points="8029.52,-32.31 8038.55,-26.78 8028.04,-25.47 8029.52,-32.31"/>
</a>
</g>
</g>
<!-- Node53 -->
<g id="Node000053" class="node">
<title>Node53</title>
<g id="a_Node000053"><a xlink:title=" ">
<polygon fill="#e0e0e0" stroke="#999999" points="8282.75,-26 8149,-26 8149,-6 8282.75,-6 8282.75,-26"/>
<text text-anchor="middle" x="8215.88" y="-12.5" font-family="Helvetica,sans-Serif" font-size="10.00">javafx.scene.text.TextFlow</text>
</a>
</g>
</g>
<!-- Node1&#45;&gt;Node53 -->
<g id="edge52_Node000001_Node000053" class="edge">
<title>Node1&#45;&gt;Node53</title>
<g id="a_edge52_Node000001_Node000053"><a xlink:title=" ">
<path fill="none" stroke="#63b8ff" d="M4674.12,-88.58C5162.68,-85.86 7784.95,-69.57 8139.88,-32 8147.69,-31.17 8155.9,-29.94 8163.92,-28.53"/>
<polygon fill="#63b8ff" stroke="#63b8ff" points="8164.39,-32.01 8173.57,-26.73 8163.1,-25.13 8164.39,-32.01"/>
</a>
</g>
</g>
<!-- Node54 -->
<g id="Node000054" class="node">
<title>Node54</title>
<g id="a_Node000054"><a xlink:title=" ">
<polygon fill="#e0e0e0" stroke="#999999" points="8398.75,-26 8301,-26 8301,-6 8398.75,-6 8398.75,-26"/>
<text text-anchor="middle" x="8349.88" y="-12.5" font-family="Helvetica,sans-Serif" font-size="10.00">javafx.stage.Stage</text>
</a>
</g>
</g>
<!-- Node1&#45;&gt;Node54 -->
<g id="edge53_Node000001_Node000054" class="edge">
<title>Node1&#45;&gt;Node54</title>
<g id="a_edge53_Node000001_Node000054"><a xlink:title=" ">
<path fill="none" stroke="#63b8ff" d="M4674.25,-88.91C5175.43,-88.18 7922.22,-81.93 8291.88,-32 8297.14,-31.29 8302.61,-30.27 8308,-29.08"/>
<polygon fill="#63b8ff" stroke="#63b8ff" points="8308.46,-32.57 8317.37,-26.83 8306.83,-25.76 8308.46,-32.57"/>
</a>
</g>
</g>
<!-- Node55 -->
<g id="Node000055" class="node">
<title>Node55</title>
<g id="a_Node000055"><a xlink:title=" ">
<polygon fill="#e0e0e0" stroke="#999999" points="8514.75,-26 8417,-26 8417,-6 8514.75,-6 8514.75,-26"/>
<text text-anchor="middle" x="8465.88" y="-12.5" font-family="Helvetica,sans-Serif" font-size="10.00">javafx.util.Duration</text>
</a>
</g>
</g>
<!-- Node1&#45;&gt;Node55 -->
<g id="edge54_Node000001_Node000055" class="edge">
<title>Node1&#45;&gt;Node55</title>
<g id="a_edge54_Node000001_Node000055"><a xlink:title=" ">
<path fill="none" stroke="#63b8ff" d="M4674.22,-88.95C5184.47,-88.47 8025.99,-83.49 8407.88,-32 8413.14,-31.29 8418.61,-30.27 8424,-29.08"/>
<polygon fill="#63b8ff" stroke="#63b8ff" points="8424.46,-32.57 8433.37,-26.83 8422.83,-25.76 8424.46,-32.57"/>
</a>
</g>
</g>
</g>
</svg>
