<?xml version="1.0" encoding="UTF-8" standalone="no"?>
<!DOCTYPE svg PUBLIC "-//W3C//DTD SVG 1.1//EN"
 "http://www.w3.org/Graphics/SVG/1.1/DTD/svg11.dtd">
<!-- Generated by graphviz version 12.2.1 (20241206.2353)
 -->
<!-- Title: src/main/java/com/hust/ittnk68/cnpm/view/ClientExpensePage.java Pages: 1 -->
<svg width="7935pt" height="120pt"
 viewBox="0.00 0.00 7934.75 120.00" xmlns="http://www.w3.org/2000/svg" xmlns:xlink="http://www.w3.org/1999/xlink">
<g id="graph0" class="graph" transform="scale(1 1) rotate(0) translate(4 116)">
<title>src/main/java/com/hust/ittnk68/cnpm/view/ClientExpensePage.java</title>
<!-- Node1 -->
<g id="Node000001" class="node">
<title>Node1</title>
<g id="a_Node000001"><a xlink:title=" ">
<polygon fill="#999999" stroke="#666666" points="4320.5,-112 4155.25,-112 4155.25,-68 4320.5,-68 4320.5,-112"/>
<text text-anchor="start" x="4163.25" y="-98.5" font-family="Helvetica,sans-Serif" font-size="10.00">src/main/java/com/hust</text>
<text text-anchor="start" x="4163.25" y="-86.5" font-family="Helvetica,sans-Serif" font-size="10.00">/ittnk68/cnpm/view/ClientExpense</text>
<text text-anchor="middle" x="4237.88" y="-74.5" font-family="Helvetica,sans-Serif" font-size="10.00">Page.java</text>
</a>
</g>
</g>
<!-- Node2 -->
<g id="Node000002" class="node">
<title>Node2</title>
<g id="a_Node000002"><a xlink:title=" ">
<polygon fill="#e0e0e0" stroke="#999999" points="91.75,-26 0,-26 0,-6 91.75,-6 91.75,-26"/>
<text text-anchor="middle" x="45.88" y="-12.5" font-family="Helvetica,sans-Serif" font-size="10.00">java.util.ArrayList</text>
</a>
</g>
</g>
<!-- Node1&#45;&gt;Node2 -->
<g id="edge1_Node000001_Node000002" class="edge">
<title>Node1&#45;&gt;Node2</title>
<g id="a_edge1_Node000001_Node000002"><a xlink:title=" ">
<path fill="none" stroke="#63b8ff" d="M4155.05,-89.11C3607.32,-89.71 515.52,-90.44 100.88,-32 96.13,-31.33 91.22,-30.38 86.37,-29.28"/>
<polygon fill="#63b8ff" stroke="#63b8ff" points="87.29,-25.9 76.74,-26.86 85.59,-32.69 87.29,-25.9"/>
</a>
</g>
</g>
<!-- Node3 -->
<g id="Node000003" class="node">
<title>Node3</title>
<g id="a_Node000003"><a xlink:title=" ">
<polygon fill="#e0e0e0" stroke="#999999" points="178.12,-26 109.62,-26 109.62,-6 178.12,-6 178.12,-26"/>
<text text-anchor="middle" x="143.88" y="-12.5" font-family="Helvetica,sans-Serif" font-size="10.00">java.util.List</text>
</a>
</g>
</g>
<!-- Node1&#45;&gt;Node3 -->
<g id="edge2_Node000001_Node000003" class="edge">
<title>Node1&#45;&gt;Node3</title>
<g id="a_edge2_Node000001_Node000003"><a xlink:title=" ">
<path fill="none" stroke="#63b8ff" d="M4155.08,-88.59C3596.05,-85.72 389.15,-67.73 186.88,-32 183.84,-31.46 180.73,-30.74 177.65,-29.91"/>
<polygon fill="#63b8ff" stroke="#63b8ff" points="178.75,-26.59 168.16,-26.95 176.67,-33.27 178.75,-26.59"/>
</a>
</g>
</g>
<!-- Node4 -->
<g id="Node000004" class="node">
<title>Node4</title>
<g id="a_Node000004"><a xlink:title=" ">
<polygon fill="#e0e0e0" stroke="#999999" points="267.62,-26 196.12,-26 196.12,-6 267.62,-6 267.62,-26"/>
<text text-anchor="middle" x="231.88" y="-12.5" font-family="Helvetica,sans-Serif" font-size="10.00">java.util.Map</text>
</a>
</g>
</g>
<!-- Node1&#45;&gt;Node4 -->
<g id="edge3_Node000001_Node000004" class="edge">
<title>Node1&#45;&gt;Node4</title>
<g id="a_edge3_Node000001_Node000004"><a xlink:title=" ">
<path fill="none" stroke="#63b8ff" d="M4155.16,-88.53C3603.64,-85.3 474.68,-65.56 276.88,-32 273.49,-31.43 270.02,-30.64 266.58,-29.73"/>
<polygon fill="#63b8ff" stroke="#63b8ff" points="267.85,-26.46 257.26,-26.93 265.83,-33.16 267.85,-26.46"/>
</a>
</g>
</g>
<!-- Node5 -->
<g id="Node000005" class="node">
<title>Node5</title>
<g id="a_Node000005"><a xlink:title=" ">
<polygon fill="#e0e0e0" stroke="#999999" points="419.75,-32 286,-32 286,0 419.75,0 419.75,-32"/>
<text text-anchor="start" x="294" y="-18.5" font-family="Helvetica,sans-Serif" font-size="10.00">java.util.concurrent.atomic.</text>
<text text-anchor="middle" x="352.88" y="-6.5" font-family="Helvetica,sans-Serif" font-size="10.00">AtomicReference</text>
</a>
</g>
</g>
<!-- Node1&#45;&gt;Node5 -->
<g id="edge4_Node000001_Node000005" class="edge">
<title>Node1&#45;&gt;Node5</title>
<g id="a_edge4_Node000001_Node000005"><a xlink:title=" ">
<path fill="none" stroke="#63b8ff" d="M4155.05,-88.66C3637.96,-86.39 861.47,-72.46 431.09,-32.02"/>
<polygon fill="#63b8ff" stroke="#63b8ff" points="431.72,-28.57 421.42,-31.06 431.02,-35.53 431.72,-28.57"/>
</a>
</g>
</g>
<!-- Node6 -->
<g id="Node000006" class="node">
<title>Node6</title>
<g id="a_Node000006"><a xlink:title=" ">
<polygon fill="#e0e0e0" stroke="#999999" points="595.75,-32 438,-32 438,0 595.75,0 595.75,-32"/>
<text text-anchor="start" x="446" y="-18.5" font-family="Helvetica,sans-Serif" font-size="10.00">com.hust.ittnk68.cnpm.callback.</text>
<text text-anchor="middle" x="516.88" y="-6.5" font-family="Helvetica,sans-Serif" font-size="10.00">UpdateMessageInterface</text>
</a>
</g>
</g>
<!-- Node1&#45;&gt;Node6 -->
<g id="edge5_Node000001_Node000006" class="edge">
<title>Node1&#45;&gt;Node6</title>
<g id="a_edge5_Node000001_Node000006"><a xlink:title=" ">
<path fill="none" stroke="#63b8ff" d="M4154.82,-88.46C3651.64,-85.09 1019.31,-66.01 607.22,-32.05"/>
<polygon fill="#63b8ff" stroke="#63b8ff" points="607.73,-28.58 597.46,-31.2 607.12,-35.56 607.73,-28.58"/>
</a>
</g>
</g>
<!-- Node7 -->
<g id="Node000007" class="node">
<title>Node7</title>
<g id="a_Node000007"><a xlink:title=" ">
<polygon fill="#e0e0e0" stroke="#999999" points="801.75,-32 614,-32 614,0 801.75,0 801.75,-32"/>
<text text-anchor="start" x="622" y="-18.5" font-family="Helvetica,sans-Serif" font-size="10.00">com.hust.ittnk68.cnpm.communication.</text>
<text text-anchor="middle" x="707.88" y="-6.5" font-family="Helvetica,sans-Serif" font-size="10.00">PaymentRequest</text>
</a>
</g>
</g>
<!-- Node1&#45;&gt;Node7 -->
<g id="edge6_Node000001_Node000007" class="edge">
<title>Node1&#45;&gt;Node7</title>
<g id="a_edge6_Node000001_Node000007"><a xlink:title=" ">
<path fill="none" stroke="#63b8ff" d="M4154.96,-89.06C3701.22,-89.19 1514.03,-86.93 813.34,-32.11"/>
<polygon fill="#63b8ff" stroke="#63b8ff" points="813.87,-28.64 803.63,-31.34 813.32,-35.62 813.87,-28.64"/>
</a>
</g>
</g>
<!-- Node8 -->
<g id="Node000008" class="node">
<title>Node8</title>
<g id="a_Node000008"><a xlink:title=" ">
<polygon fill="#e0e0e0" stroke="#999999" points="1007.75,-32 820,-32 820,0 1007.75,0 1007.75,-32"/>
<text text-anchor="start" x="828" y="-18.5" font-family="Helvetica,sans-Serif" font-size="10.00">com.hust.ittnk68.cnpm.communication.</text>
<text text-anchor="middle" x="913.88" y="-6.5" font-family="Helvetica,sans-Serif" font-size="10.00">ServerCheckBankingResponse</text>
</a>
</g>
</g>
<!-- Node1&#45;&gt;Node8 -->
<g id="edge7_Node000001_Node000008" class="edge">
<title>Node1&#45;&gt;Node8</title>
<g id="a_edge7_Node000001_Node000008"><a xlink:title=" ">
<path fill="none" stroke="#63b8ff" d="M4154.96,-88.96C3717.81,-88.53 1676.17,-83.8 1019.12,-32.09"/>
<polygon fill="#63b8ff" stroke="#63b8ff" points="1019.88,-28.64 1009.63,-31.33 1019.32,-35.62 1019.88,-28.64"/>
</a>
</g>
</g>
<!-- Node9 -->
<g id="Node000009" class="node">
<title>Node9</title>
<g id="a_Node000009"><a xlink:title=" ">
<polygon fill="#e0e0e0" stroke="#999999" points="1213.75,-32 1026,-32 1026,0 1213.75,0 1213.75,-32"/>
<text text-anchor="start" x="1034" y="-18.5" font-family="Helvetica,sans-Serif" font-size="10.00">com.hust.ittnk68.cnpm.communication.</text>
<text text-anchor="middle" x="1119.88" y="-6.5" font-family="Helvetica,sans-Serif" font-size="10.00">ServerObjectByIdQueryResponse</text>
</a>
</g>
</g>
<!-- Node1&#45;&gt;Node9 -->
<g id="edge8_Node000001_Node000009" class="edge">
<title>Node1&#45;&gt;Node9</title>
<g id="a_edge8_Node000001_Node000009"><a xlink:title=" ">
<path fill="none" stroke="#63b8ff" d="M4154.77,-88.84C3734.45,-87.83 1839.08,-80.67 1225.28,-32.11"/>
<polygon fill="#63b8ff" stroke="#63b8ff" points="1225.88,-28.64 1215.63,-31.33 1225.32,-35.62 1225.88,-28.64"/>
</a>
</g>
</g>
<!-- Node10 -->
<g id="Node000010" class="node">
<title>Node10</title>
<g id="a_Node000010"><a xlink:title=" ">
<polygon fill="#e0e0e0" stroke="#999999" points="1419.75,-32 1232,-32 1232,0 1419.75,0 1419.75,-32"/>
<text text-anchor="start" x="1240" y="-18.5" font-family="Helvetica,sans-Serif" font-size="10.00">com.hust.ittnk68.cnpm.communication.</text>
<text text-anchor="middle" x="1325.88" y="-6.5" font-family="Helvetica,sans-Serif" font-size="10.00">ServerPaymentStatusQueryResponse</text>
</a>
</g>
</g>
<!-- Node1&#45;&gt;Node10 -->
<g id="edge9_Node000001_Node000010" class="edge">
<title>Node1&#45;&gt;Node10</title>
<g id="a_edge9_Node000001_Node000010"><a xlink:title=" ">
<path fill="none" stroke="#63b8ff" d="M4154.83,-88.71C3752.44,-87.09 2001.93,-77.56 1431.32,-32.11"/>
<polygon fill="#63b8ff" stroke="#63b8ff" points="1431.88,-28.65 1421.63,-31.33 1431.31,-35.62 1431.88,-28.65"/>
</a>
</g>
</g>
<!-- Node11 -->
<g id="Node000011" class="node">
<title>Node11</title>
<g id="a_Node000011"><a xlink:title=" ">
<polygon fill="#e0e0e0" stroke="#999999" points="1625.75,-32 1438,-32 1438,0 1625.75,0 1625.75,-32"/>
<text text-anchor="start" x="1446" y="-18.5" font-family="Helvetica,sans-Serif" font-size="10.00">com.hust.ittnk68.cnpm.communication.</text>
<text text-anchor="middle" x="1531.88" y="-6.5" font-family="Helvetica,sans-Serif" font-size="10.00">ServerQrCodeGenerateResponse</text>
</a>
</g>
</g>
<!-- Node1&#45;&gt;Node11 -->
<g id="edge10_Node000001_Node000011" class="edge">
<title>Node1&#45;&gt;Node11</title>
<g id="a_edge10_Node000001_Node000011"><a xlink:title=" ">
<path fill="none" stroke="#63b8ff" d="M4154.9,-88.56C3771.1,-86.29 2164.61,-74.46 1637.24,-32.11"/>
<polygon fill="#63b8ff" stroke="#63b8ff" points="1637.88,-28.65 1627.63,-31.32 1637.31,-35.63 1637.88,-28.65"/>
</a>
</g>
</g>
<!-- Node12 -->
<g id="Node000012" class="node">
<title>Node12</title>
<g id="a_Node000012"><a xlink:title=" ">
<polygon fill="#e0e0e0" stroke="#999999" points="1831.75,-32 1644,-32 1644,0 1831.75,0 1831.75,-32"/>
<text text-anchor="start" x="1652" y="-18.5" font-family="Helvetica,sans-Serif" font-size="10.00">com.hust.ittnk68.cnpm.communication.</text>
<text text-anchor="middle" x="1737.88" y="-6.5" font-family="Helvetica,sans-Serif" font-size="10.00">UserGetPaymentQrCode</text>
</a>
</g>
</g>
<!-- Node1&#45;&gt;Node12 -->
<g id="edge11_Node000001_Node000012" class="edge">
<title>Node1&#45;&gt;Node12</title>
<g id="a_edge11_Node000001_Node000012"><a xlink:title=" ">
<path fill="none" stroke="#63b8ff" d="M4154.82,-88.37C3790.12,-85.42 2327.76,-71.36 1843.38,-32.12"/>
<polygon fill="#63b8ff" stroke="#63b8ff" points="1843.88,-28.65 1833.63,-31.32 1843.31,-35.63 1843.88,-28.65"/>
</a>
</g>
</g>
<!-- Node13 -->
<g id="Node000013" class="node">
<title>Node13</title>
<g id="a_Node000013"><a xlink:title=" ">
<polygon fill="#e0e0e0" stroke="#999999" points="2037.75,-32 1850,-32 1850,0 2037.75,0 2037.75,-32"/>
<text text-anchor="start" x="1858" y="-18.5" font-family="Helvetica,sans-Serif" font-size="10.00">com.hust.ittnk68.cnpm.communication.</text>
<text text-anchor="middle" x="1943.88" y="-6.5" font-family="Helvetica,sans-Serif" font-size="10.00">UserQueryObjectById</text>
</a>
</g>
</g>
<!-- Node1&#45;&gt;Node13 -->
<g id="edge12_Node000001_Node000013" class="edge">
<title>Node1&#45;&gt;Node13</title>
<g id="a_edge12_Node000001_Node000013"><a xlink:title=" ">
<path fill="none" stroke="#63b8ff" d="M4154.76,-88.16C3810.05,-84.47 2490.64,-68.28 2049.34,-32.12"/>
<polygon fill="#63b8ff" stroke="#63b8ff" points="2049.89,-28.66 2039.63,-31.31 2049.3,-35.63 2049.89,-28.66"/>
</a>
</g>
</g>
<!-- Node14 -->
<g id="Node000014" class="node">
<title>Node14</title>
<g id="a_Node000014"><a xlink:title=" ">
<polygon fill="#e0e0e0" stroke="#999999" points="2243.75,-32 2056,-32 2056,0 2243.75,0 2243.75,-32"/>
<text text-anchor="start" x="2064" y="-18.5" font-family="Helvetica,sans-Serif" font-size="10.00">com.hust.ittnk68.cnpm.communication.</text>
<text text-anchor="middle" x="2149.88" y="-6.5" font-family="Helvetica,sans-Serif" font-size="10.00">UserQueryPaymentStatus</text>
</a>
</g>
</g>
<!-- Node1&#45;&gt;Node14 -->
<g id="edge13_Node000001_Node000014" class="edge">
<title>Node1&#45;&gt;Node14</title>
<g id="a_edge13_Node000001_Node000014"><a xlink:title=" ">
<path fill="none" stroke="#63b8ff" d="M4154.96,-87.9C3831.61,-83.42 2653.95,-65.22 2255.4,-32.13"/>
<polygon fill="#63b8ff" stroke="#63b8ff" points="2255.89,-28.66 2245.63,-31.3 2255.3,-35.63 2255.89,-28.66"/>
</a>
</g>
</g>
<!-- Node15 -->
<g id="Node000015" class="node">
<title>Node15</title>
<g id="a_Node000015"><a xlink:title=" ">
<polygon fill="#e0e0e0" stroke="#999999" points="2422.25,-32 2261.5,-32 2261.5,0 2422.25,0 2422.25,-32"/>
<text text-anchor="start" x="2269.5" y="-18.5" font-family="Helvetica,sans-Serif" font-size="10.00">com.hust.ittnk68.cnpm.controller.</text>
<text text-anchor="middle" x="2341.88" y="-6.5" font-family="Helvetica,sans-Serif" font-size="10.00">ClientSceneController</text>
</a>
</g>
</g>
<!-- Node1&#45;&gt;Node15 -->
<g id="edge14_Node000001_Node000015" class="edge">
<title>Node1&#45;&gt;Node15</title>
<g id="a_edge14_Node000001_Node000015"><a xlink:title=" ">
<path fill="none" stroke="#63b8ff" d="M4154.88,-87.88C3850.45,-83.52 2794.58,-66.34 2433.59,-32.16"/>
<polygon fill="#63b8ff" stroke="#63b8ff" points="2434.14,-28.69 2423.85,-31.21 2433.46,-35.66 2434.14,-28.69"/>
</a>
</g>
</g>
<!-- Node16 -->
<g id="Node000016" class="node">
<title>Node16</title>
<g id="a_Node000016"><a xlink:title=" ">
<polygon fill="#e0e0e0" stroke="#999999" points="2587.88,-32 2439.88,-32 2439.88,0 2587.88,0 2587.88,-32"/>
<text text-anchor="start" x="2447.88" y="-18.5" font-family="Helvetica,sans-Serif" font-size="10.00">com.hust.ittnk68.cnpm.model.</text>
<text text-anchor="middle" x="2513.88" y="-6.5" font-family="Helvetica,sans-Serif" font-size="10.00">Expense</text>
</a>
</g>
</g>
<!-- Node1&#45;&gt;Node16 -->
<g id="edge15_Node000001_Node000016" class="edge">
<title>Node1&#45;&gt;Node16</title>
<g id="a_edge15_Node000001_Node000016"><a xlink:title=" ">
<path fill="none" stroke="#63b8ff" d="M4155.14,-87.7C3869.72,-82.99 2926.35,-65.32 2599.38,-32.13"/>
<polygon fill="#63b8ff" stroke="#63b8ff" points="2599.82,-28.66 2589.52,-31.1 2599.1,-35.62 2599.82,-28.66"/>
</a>
</g>
</g>
<!-- Node17 -->
<g id="Node000017" class="node">
<title>Node17</title>
<g id="a_Node000017"><a xlink:title=" ">
<polygon fill="#e0e0e0" stroke="#999999" points="2753.88,-32 2605.88,-32 2605.88,0 2753.88,0 2753.88,-32"/>
<text text-anchor="start" x="2613.88" y="-18.5" font-family="Helvetica,sans-Serif" font-size="10.00">com.hust.ittnk68.cnpm.model.</text>
<text text-anchor="middle" x="2679.88" y="-6.5" font-family="Helvetica,sans-Serif" font-size="10.00">PaymentStatus</text>
</a>
</g>
</g>
<!-- Node1&#45;&gt;Node17 -->
<g id="edge16_Node000001_Node000017" class="edge">
<title>Node1&#45;&gt;Node17</title>
<g id="a_edge16_Node000001_Node000017"><a xlink:title=" ">
<path fill="none" stroke="#63b8ff" d="M4154.75,-87.32C3888.57,-81.71 3058.07,-62.31 2765.45,-32.14"/>
<polygon fill="#63b8ff" stroke="#63b8ff" points="2765.83,-28.67 2755.52,-31.09 2765.09,-35.63 2765.83,-28.67"/>
</a>
</g>
</g>
<!-- Node18 -->
<g id="Node000018" class="node">
<title>Node18</title>
<g id="a_Node000018"><a xlink:title=" ">
<polygon fill="#e0e0e0" stroke="#999999" points="2912.12,-32 2771.62,-32 2771.62,0 2912.12,0 2912.12,-32"/>
<text text-anchor="start" x="2779.62" y="-18.5" font-family="Helvetica,sans-Serif" font-size="10.00">com.hust.ittnk68.cnpm.type.</text>
<text text-anchor="middle" x="2841.88" y="-6.5" font-family="Helvetica,sans-Serif" font-size="10.00">ExpenseType</text>
</a>
</g>
</g>
<!-- Node1&#45;&gt;Node18 -->
<g id="edge17_Node000001_Node000018" class="edge">
<title>Node1&#45;&gt;Node18</title>
<g id="a_edge17_Node000001_Node000018"><a xlink:title=" ">
<path fill="none" stroke="#63b8ff" d="M4154.79,-89.49C3948.15,-89.82 3394.38,-85.32 2923.57,-32.06"/>
<polygon fill="#63b8ff" stroke="#63b8ff" points="2924.3,-28.63 2913.97,-30.97 2923.51,-35.58 2924.3,-28.63"/>
</a>
</g>
</g>
<!-- Node19 -->
<g id="Node000019" class="node">
<title>Node19</title>
<g id="a_Node000019"><a xlink:title=" ">
<polygon fill="#e0e0e0" stroke="#999999" points="3071.12,-32 2930.62,-32 2930.62,0 3071.12,0 3071.12,-32"/>
<text text-anchor="start" x="2938.62" y="-18.5" font-family="Helvetica,sans-Serif" font-size="10.00">com.hust.ittnk68.cnpm.type.</text>
<text text-anchor="middle" x="3000.88" y="-6.5" font-family="Helvetica,sans-Serif" font-size="10.00">ResponseStatus</text>
</a>
</g>
</g>
<!-- Node1&#45;&gt;Node19 -->
<g id="edge18_Node000001_Node000019" class="edge">
<title>Node1&#45;&gt;Node19</title>
<g id="a_edge18_Node000001_Node000019"><a xlink:title=" ">
<path fill="none" stroke="#63b8ff" d="M4155.06,-88.85C3966.33,-87.66 3489.82,-79.85 3082.85,-32.25"/>
<polygon fill="#63b8ff" stroke="#63b8ff" points="3083.28,-28.77 3072.94,-31.08 3082.46,-35.72 3083.28,-28.77"/>
</a>
</g>
</g>
<!-- Node20 -->
<g id="Node000020" class="node">
<title>Node20</title>
<g id="a_Node000020"><a xlink:title=" ">
<polygon fill="#e0e0e0" stroke="#999999" points="3216.75,-32 3089,-32 3089,0 3216.75,0 3216.75,-32"/>
<text text-anchor="start" x="3097" y="-18.5" font-family="Helvetica,sans-Serif" font-size="10.00">org.kordamp.ikonli.javafx.</text>
<text text-anchor="middle" x="3152.88" y="-6.5" font-family="Helvetica,sans-Serif" font-size="10.00">FontIcon</text>
</a>
</g>
</g>
<!-- Node1&#45;&gt;Node20 -->
<g id="edge19_Node000001_Node000020" class="edge">
<title>Node1&#45;&gt;Node20</title>
<g id="a_edge19_Node000001_Node000020"><a xlink:title=" ">
<path fill="none" stroke="#63b8ff" d="M4154.85,-88.43C3983.38,-86.36 3577.61,-76.85 3228.24,-32.17"/>
<polygon fill="#63b8ff" stroke="#63b8ff" points="3228.75,-28.71 3218.38,-30.9 3227.85,-35.65 3228.75,-28.71"/>
</a>
</g>
</g>
<!-- Node21 -->
<g id="Node000021" class="node">
<title>Node21</title>
<g id="a_Node000021"><a xlink:title=" ">
<polygon fill="#e0e0e0" stroke="#999999" points="3376.5,-32 3235.25,-32 3235.25,0 3376.5,0 3376.5,-32"/>
<text text-anchor="start" x="3243.25" y="-18.5" font-family="Helvetica,sans-Serif" font-size="10.00">org.kordamp.ikonli.material2.</text>
<text text-anchor="middle" x="3305.88" y="-6.5" font-family="Helvetica,sans-Serif" font-size="10.00">Material2MZ</text>
</a>
</g>
</g>
<!-- Node1&#45;&gt;Node21 -->
<g id="edge20_Node000001_Node000021" class="edge">
<title>Node1&#45;&gt;Node21</title>
<g id="a_edge20_Node000001_Node000021"><a xlink:title=" ">
<path fill="none" stroke="#63b8ff" d="M4154.91,-86.79C4004,-82.03 3674.39,-68.29 3387.9,-32.3"/>
<polygon fill="#63b8ff" stroke="#63b8ff" points="3388.73,-28.88 3378.37,-31.09 3387.85,-35.82 3388.73,-28.88"/>
</a>
</g>
</g>
<!-- Node22 -->
<g id="Node000022" class="node">
<title>Node22</title>
<g id="a_Node000022"><a xlink:title=" ">
<polygon fill="#e0e0e0" stroke="#999999" points="3535.5,-32 3394.25,-32 3394.25,0 3535.5,0 3535.5,-32"/>
<text text-anchor="start" x="3402.25" y="-18.5" font-family="Helvetica,sans-Serif" font-size="10.00">org.kordamp.ikonli.material2.</text>
<text text-anchor="middle" x="3464.88" y="-6.5" font-family="Helvetica,sans-Serif" font-size="10.00">Material2OutlinedAL</text>
</a>
</g>
</g>
<!-- Node1&#45;&gt;Node22 -->
<g id="edge21_Node000001_Node000022" class="edge">
<title>Node1&#45;&gt;Node22</title>
<g id="a_edge21_Node000001_Node000022"><a xlink:title=" ">
<path fill="none" stroke="#63b8ff" d="M4154.78,-85.02C4026.42,-78.24 3772.02,-62.31 3547.23,-32.38"/>
<polygon fill="#63b8ff" stroke="#63b8ff" points="3547.75,-28.91 3537.38,-31.05 3546.82,-35.85 3547.75,-28.91"/>
</a>
</g>
</g>
<!-- Node23 -->
<g id="Node000023" class="node">
<title>Node23</title>
<g id="a_Node000023"><a xlink:title=" ">
<polygon fill="#e0e0e0" stroke="#999999" points="3692.38,-26 3553.38,-26 3553.38,-6 3692.38,-6 3692.38,-26"/>
<text text-anchor="middle" x="3622.88" y="-12.5" font-family="Helvetica,sans-Serif" font-size="10.00">atlantafx.base.controls.Card</text>
</a>
</g>
</g>
<!-- Node1&#45;&gt;Node23 -->
<g id="edge22_Node000001_Node000023" class="edge">
<title>Node1&#45;&gt;Node23</title>
<g id="a_edge22_Node000001_Node000023"><a xlink:title=" ">
<path fill="none" stroke="#63b8ff" d="M4154.81,-82.37C4049.05,-73.42 3860.83,-55.83 3700.88,-32 3693.98,-30.97 3686.77,-29.77 3679.64,-28.49"/>
<polygon fill="#63b8ff" stroke="#63b8ff" points="3680.5,-25.09 3670.03,-26.72 3679.24,-31.98 3680.5,-25.09"/>
</a>
</g>
</g>
<!-- Node24 -->
<g id="Node000024" class="node">
<title>Node24</title>
<g id="a_Node000024"><a xlink:title=" ">
<polygon fill="#e0e0e0" stroke="#999999" points="3843.75,-26 3710,-26 3710,-6 3843.75,-6 3843.75,-26"/>
<text text-anchor="middle" x="3776.88" y="-12.5" font-family="Helvetica,sans-Serif" font-size="10.00">atlantafx.base.controls.Tile</text>
</a>
</g>
</g>
<!-- Node1&#45;&gt;Node24 -->
<g id="edge23_Node000001_Node000024" class="edge">
<title>Node1&#45;&gt;Node24</title>
<g id="a_edge23_Node000001_Node000024"><a xlink:title=" ">
<path fill="none" stroke="#63b8ff" d="M4155.08,-77.91C4076.99,-67.17 3956.75,-49.93 3852.88,-32 3846.83,-30.96 3840.52,-29.81 3834.24,-28.63"/>
<polygon fill="#63b8ff" stroke="#63b8ff" points="3835,-25.21 3824.51,-26.76 3833.68,-32.08 3835,-25.21"/>
</a>
</g>
</g>
<!-- Node25 -->
<g id="Node000025" class="node">
<title>Node25</title>
<g id="a_Node000025"><a xlink:title=" ">
<polygon fill="#e0e0e0" stroke="#999999" points="4000,-26 3861.75,-26 3861.75,-6 4000,-6 4000,-26"/>
<text text-anchor="middle" x="3930.88" y="-12.5" font-family="Helvetica,sans-Serif" font-size="10.00">atlantafx.base.theme.Styles</text>
</a>
</g>
</g>
<!-- Node1&#45;&gt;Node25 -->
<g id="edge24_Node000001_Node000025" class="edge">
<title>Node1&#45;&gt;Node25</title>
<g id="a_edge24_Node000001_Node000025"><a xlink:title=" ">
<path fill="none" stroke="#63b8ff" d="M4154.8,-69.52C4099.84,-56.63 4029.51,-40.13 3982.47,-29.1"/>
<polygon fill="#63b8ff" stroke="#63b8ff" points="3983.34,-25.71 3972.8,-26.83 3981.74,-32.52 3983.34,-25.71"/>
</a>
</g>
</g>
<!-- Node26 -->
<g id="Node000026" class="node">
<title>Node26</title>
<g id="a_Node000026"><a xlink:title=" ">
<polygon fill="#e0e0e0" stroke="#999999" points="4151.75,-26 4018,-26 4018,-6 4151.75,-6 4151.75,-26"/>
<text text-anchor="middle" x="4084.88" y="-12.5" font-family="Helvetica,sans-Serif" font-size="10.00">javafx.animation.Animation</text>
</a>
</g>
</g>
<!-- Node1&#45;&gt;Node26 -->
<g id="edge25_Node000001_Node000026" class="edge">
<title>Node1&#45;&gt;Node26</title>
<g id="a_edge25_Node000001_Node000026"><a xlink:title=" ">
<path fill="none" stroke="#63b8ff" d="M4192.38,-67.59C4167.52,-55.89 4137.39,-41.71 4115.36,-31.35"/>
<polygon fill="#63b8ff" stroke="#63b8ff" points="4116.86,-28.18 4106.32,-27.09 4113.88,-34.52 4116.86,-28.18"/>
</a>
</g>
</g>
<!-- Node27 -->
<g id="Node000027" class="node">
<title>Node27</title>
<g id="a_Node000027"><a xlink:title=" ">
<polygon fill="#e0e0e0" stroke="#999999" points="4305.5,-26 4170.25,-26 4170.25,-6 4305.5,-6 4305.5,-26"/>
<text text-anchor="middle" x="4237.88" y="-12.5" font-family="Helvetica,sans-Serif" font-size="10.00">javafx.animation.KeyFrame</text>
</a>
</g>
</g>
<!-- Node1&#45;&gt;Node27 -->
<g id="edge26_Node000001_Node000027" class="edge">
<title>Node1&#45;&gt;Node27</title>
<g id="a_edge26_Node000001_Node000027"><a xlink:title=" ">
<path fill="none" stroke="#63b8ff" d="M4237.88,-67.79C4237.88,-58.32 4237.88,-47.2 4237.88,-37.78"/>
<polygon fill="#63b8ff" stroke="#63b8ff" points="4241.38,-37.82 4237.88,-27.82 4234.38,-37.82 4241.38,-37.82"/>
</a>
</g>
</g>
<!-- Node28 -->
<g id="Node000028" class="node">
<title>Node28</title>
<g id="a_Node000028"><a xlink:title=" ">
<polygon fill="#e0e0e0" stroke="#999999" points="4486,-26 4323.75,-26 4323.75,-6 4486,-6 4486,-26"/>
<text text-anchor="middle" x="4404.88" y="-12.5" font-family="Helvetica,sans-Serif" font-size="10.00">javafx.animation.RotateTransition</text>
</a>
</g>
</g>
<!-- Node1&#45;&gt;Node28 -->
<g id="edge27_Node000001_Node000028" class="edge">
<title>Node1&#45;&gt;Node28</title>
<g id="a_edge27_Node000001_Node000028"><a xlink:title=" ">
<path fill="none" stroke="#63b8ff" d="M4287.53,-67.59C4315.04,-55.73 4348.46,-41.32 4372.58,-30.92"/>
<polygon fill="#63b8ff" stroke="#63b8ff" points="4373.77,-34.22 4381.57,-27.05 4371,-27.79 4373.77,-34.22"/>
</a>
</g>
</g>
<!-- Node29 -->
<g id="Node000029" class="node">
<title>Node29</title>
<g id="a_Node000029"><a xlink:title=" ">
<polygon fill="#e0e0e0" stroke="#999999" points="4631.38,-26 4504.38,-26 4504.38,-6 4631.38,-6 4631.38,-26"/>
<text text-anchor="middle" x="4567.88" y="-12.5" font-family="Helvetica,sans-Serif" font-size="10.00">javafx.animation.Timeline</text>
</a>
</g>
</g>
<!-- Node1&#45;&gt;Node29 -->
<g id="edge28_Node000001_Node000029" class="edge">
<title>Node1&#45;&gt;Node29</title>
<g id="a_edge28_Node000001_Node000029"><a xlink:title=" ">
<path fill="none" stroke="#63b8ff" d="M4320.72,-70.92C4381.02,-57.77 4460.97,-40.32 4513.39,-28.89"/>
<polygon fill="#63b8ff" stroke="#63b8ff" points="4513.96,-32.35 4522.98,-26.8 4512.46,-25.51 4513.96,-32.35"/>
</a>
</g>
</g>
<!-- Node30 -->
<g id="Node000030" class="node">
<title>Node30</title>
<g id="a_Node000030"><a xlink:title=" ">
<polygon fill="#e0e0e0" stroke="#999999" points="4780.62,-26 4649.12,-26 4649.12,-6 4780.62,-6 4780.62,-26"/>
<text text-anchor="middle" x="4714.88" y="-12.5" font-family="Helvetica,sans-Serif" font-size="10.00">javafx.application.Platform</text>
</a>
</g>
</g>
<!-- Node1&#45;&gt;Node30 -->
<g id="edge29_Node000001_Node000030" class="edge">
<title>Node1&#45;&gt;Node30</title>
<g id="a_edge29_Node000001_Node000030"><a xlink:title=" ">
<path fill="none" stroke="#63b8ff" d="M4320.68,-78.75C4402.31,-68.3 4530.5,-50.98 4640.88,-32 4646.85,-30.97 4653.08,-29.83 4659.28,-28.64"/>
<polygon fill="#63b8ff" stroke="#63b8ff" points="4659.72,-32.12 4668.86,-26.76 4658.37,-25.25 4659.72,-32.12"/>
</a>
</g>
</g>
<!-- Node31 -->
<g id="Node000031" class="node">
<title>Node31</title>
<g id="a_Node000031"><a xlink:title=" ">
<polygon fill="#e0e0e0" stroke="#999999" points="4913.38,-26 4798.38,-26 4798.38,-6 4913.38,-6 4913.38,-26"/>
<text text-anchor="middle" x="4855.88" y="-12.5" font-family="Helvetica,sans-Serif" font-size="10.00">javafx.concurrent.Task</text>
</a>
</g>
</g>
<!-- Node1&#45;&gt;Node31 -->
<g id="edge30_Node000001_Node000031" class="edge">
<title>Node1&#45;&gt;Node31</title>
<g id="a_edge30_Node000001_Node000031"><a xlink:title=" ">
<path fill="none" stroke="#63b8ff" d="M4320.59,-83.58C4428.9,-75.78 4624.47,-59.23 4789.88,-32 4795.46,-31.08 4801.27,-29.98 4807.04,-28.79"/>
<polygon fill="#63b8ff" stroke="#63b8ff" points="4807.47,-32.28 4816.51,-26.75 4806,-25.44 4807.47,-32.28"/>
</a>
</g>
</g>
<!-- Node32 -->
<g id="Node000032" class="node">
<title>Node32</title>
<g id="a_Node000032"><a xlink:title=" ">
<polygon fill="#e0e0e0" stroke="#999999" points="5046,-26 4931.75,-26 4931.75,-6 5046,-6 5046,-26"/>
<text text-anchor="middle" x="4988.88" y="-12.5" font-family="Helvetica,sans-Serif" font-size="10.00">javafx.geometry.Insets</text>
</a>
</g>
</g>
<!-- Node1&#45;&gt;Node32 -->
<g id="edge31_Node000001_Node000032" class="edge">
<title>Node1&#45;&gt;Node32</title>
<g id="a_edge31_Node000001_Node000032"><a xlink:title=" ">
<path fill="none" stroke="#63b8ff" d="M4320.83,-85.86C4450.1,-80.12 4707.2,-65.31 4922.88,-32 4928.54,-31.13 4934.43,-30.04 4940.27,-28.86"/>
<polygon fill="#63b8ff" stroke="#63b8ff" points="4940.83,-32.32 4949.88,-26.8 4939.36,-25.47 4940.83,-32.32"/>
</a>
</g>
</g>
<!-- Node33 -->
<g id="Node000033" class="node">
<title>Node33</title>
<g id="a_Node000033"><a xlink:title=" ">
<polygon fill="#e0e0e0" stroke="#999999" points="5168.12,-26 5063.62,-26 5063.62,-6 5168.12,-6 5168.12,-26"/>
<text text-anchor="middle" x="5115.88" y="-12.5" font-family="Helvetica,sans-Serif" font-size="10.00">javafx.geometry.Pos</text>
</a>
</g>
</g>
<!-- Node1&#45;&gt;Node33 -->
<g id="edge32_Node000001_Node000033" class="edge">
<title>Node1&#45;&gt;Node33</title>
<g id="a_edge32_Node000001_Node000033"><a xlink:title=" ">
<path fill="none" stroke="#63b8ff" d="M4320.74,-87.9C4468.91,-84.9 4788.68,-73.7 5054.88,-32 5060.12,-31.18 5065.58,-30.13 5070.98,-28.96"/>
<polygon fill="#63b8ff" stroke="#63b8ff" points="5071.45,-32.44 5080.41,-26.79 5069.88,-25.62 5071.45,-32.44"/>
</a>
</g>
</g>
<!-- Node34 -->
<g id="Node000034" class="node">
<title>Node34</title>
<g id="a_Node000034"><a xlink:title=" ">
<polygon fill="#e0e0e0" stroke="#999999" points="5283.75,-26 5186,-26 5186,-6 5283.75,-6 5283.75,-26"/>
<text text-anchor="middle" x="5234.88" y="-12.5" font-family="Helvetica,sans-Serif" font-size="10.00">javafx.scene.Node</text>
</a>
</g>
</g>
<!-- Node1&#45;&gt;Node34 -->
<g id="edge33_Node000001_Node000034" class="edge">
<title>Node1&#45;&gt;Node34</title>
<g id="a_edge33_Node000001_Node000034"><a xlink:title=" ">
<path fill="none" stroke="#63b8ff" d="M4320.72,-89.3C4485.07,-88.73 4863.52,-81.56 5176.88,-32 5181.8,-31.22 5186.92,-30.21 5191.99,-29.07"/>
<polygon fill="#63b8ff" stroke="#63b8ff" points="5192.52,-32.54 5201.42,-26.8 5190.88,-25.74 5192.52,-32.54"/>
</a>
</g>
</g>
<!-- Node35 -->
<g id="Node000035" class="node">
<title>Node35</title>
<g id="a_Node000035"><a xlink:title=" ">
<polygon fill="#e0e0e0" stroke="#999999" points="5437.5,-26 5302.25,-26 5302.25,-6 5437.5,-6 5437.5,-26"/>
<text text-anchor="middle" x="5369.88" y="-12.5" font-family="Helvetica,sans-Serif" font-size="10.00">javafx.scene.control.Button</text>
</a>
</g>
</g>
<!-- Node1&#45;&gt;Node35 -->
<g id="edge34_Node000001_Node000035" class="edge">
<title>Node1&#45;&gt;Node35</title>
<g id="a_edge34_Node000001_Node000035"><a xlink:title=" ">
<path fill="none" stroke="#63b8ff" d="M4320.97,-88.41C4499.54,-86.29 4932.9,-76.57 5292.88,-32 5300.32,-31.08 5308.13,-29.86 5315.8,-28.51"/>
<polygon fill="#63b8ff" stroke="#63b8ff" points="5316.19,-32 5325.39,-26.74 5314.92,-25.11 5316.19,-32"/>
</a>
</g>
</g>
<!-- Node36 -->
<g id="Node000036" class="node">
<title>Node36</title>
<g id="a_Node000036"><a xlink:title=" ">
<polygon fill="#e0e0e0" stroke="#999999" points="5585.88,-26 5455.88,-26 5455.88,-6 5585.88,-6 5585.88,-26"/>
<text text-anchor="middle" x="5520.88" y="-12.5" font-family="Helvetica,sans-Serif" font-size="10.00">javafx.scene.control.Label</text>
</a>
</g>
</g>
<!-- Node1&#45;&gt;Node36 -->
<g id="edge35_Node000001_Node000036" class="edge">
<title>Node1&#45;&gt;Node36</title>
<g id="a_edge35_Node000001_Node000036"><a xlink:title=" ">
<path fill="none" stroke="#63b8ff" d="M4320.7,-89.44C4517.05,-89.55 5025.91,-84.28 5446.88,-32 5453.96,-31.12 5461.38,-29.94 5468.67,-28.62"/>
<polygon fill="#63b8ff" stroke="#63b8ff" points="5469.31,-32.06 5478.47,-26.74 5467.99,-25.18 5469.31,-32.06"/>
</a>
</g>
</g>
<!-- Node37 -->
<g id="Node000037" class="node">
<title>Node37</title>
<g id="a_Node000037"><a xlink:title=" ">
<polygon fill="#e0e0e0" stroke="#999999" points="5757.88,-26 5603.88,-26 5603.88,-6 5757.88,-6 5757.88,-26"/>
<text text-anchor="middle" x="5680.88" y="-12.5" font-family="Helvetica,sans-Serif" font-size="10.00">javafx.scene.control.ScrollPane</text>
</a>
</g>
</g>
<!-- Node1&#45;&gt;Node37 -->
<g id="edge36_Node000001_Node000037" class="edge">
<title>Node1&#45;&gt;Node37</title>
<g id="a_edge36_Node000001_Node000037"><a xlink:title=" ">
<path fill="none" stroke="#63b8ff" d="M4320.76,-89.28C4533.21,-89.18 5114.27,-83.78 5594.88,-32 5603.67,-31.05 5612.92,-29.76 5621.97,-28.32"/>
<polygon fill="#63b8ff" stroke="#63b8ff" points="5622.48,-31.79 5631.78,-26.69 5621.34,-24.88 5622.48,-31.79"/>
</a>
</g>
</g>
<!-- Node38 -->
<g id="Node000038" class="node">
<title>Node38</title>
<g id="a_Node000038"><a xlink:title=" ">
<polygon fill="#e0e0e0" stroke="#999999" points="5898.12,-26 5775.62,-26 5775.62,-6 5898.12,-6 5898.12,-26"/>
<text text-anchor="middle" x="5836.88" y="-12.5" font-family="Helvetica,sans-Serif" font-size="10.00">javafx.scene.control.Tab</text>
</a>
</g>
</g>
<!-- Node1&#45;&gt;Node38 -->
<g id="edge37_Node000001_Node000038" class="edge">
<title>Node1&#45;&gt;Node38</title>
<g id="a_edge37_Node000001_Node000038"><a xlink:title=" ">
<path fill="none" stroke="#63b8ff" d="M4320.68,-87.81C4596.62,-83.55 5483.35,-67.39 5766.88,-32 5773.67,-31.15 5780.79,-29.97 5787.77,-28.65"/>
<polygon fill="#63b8ff" stroke="#63b8ff" points="5787.98,-32.18 5797.08,-26.76 5786.59,-25.31 5787.98,-32.18"/>
</a>
</g>
</g>
<!-- Node39 -->
<g id="Node000039" class="node">
<title>Node39</title>
<g id="a_Node000039"><a xlink:title=" ">
<polygon fill="#e0e0e0" stroke="#999999" points="6069.12,-26 5916.62,-26 5916.62,-6 6069.12,-6 6069.12,-26"/>
<text text-anchor="middle" x="5992.88" y="-12.5" font-family="Helvetica,sans-Serif" font-size="10.00">javafx.scene.image.ImageView</text>
</a>
</g>
</g>
<!-- Node1&#45;&gt;Node39 -->
<g id="edge38_Node000001_Node000039" class="edge">
<title>Node1&#45;&gt;Node39</title>
<g id="a_edge38_Node000001_Node000039"><a xlink:title=" ">
<path fill="none" stroke="#63b8ff" d="M4321,-87.69C4613.46,-82.83 5594.17,-64.45 5906.88,-32 5915.88,-31.07 5925.36,-29.75 5934.61,-28.28"/>
<polygon fill="#63b8ff" stroke="#63b8ff" points="5934.94,-31.78 5944.23,-26.68 5933.79,-24.87 5934.94,-31.78"/>
</a>
</g>
</g>
<!-- Node40 -->
<g id="Node000040" class="node">
<title>Node40</title>
<g id="a_Node000040"><a xlink:title=" ">
<polygon fill="#e0e0e0" stroke="#999999" points="6244.38,-26 6087.38,-26 6087.38,-6 6244.38,-6 6244.38,-26"/>
<text text-anchor="middle" x="6165.88" y="-12.5" font-family="Helvetica,sans-Serif" font-size="10.00">javafx.scene.layout.AnchorPane</text>
</a>
</g>
</g>
<!-- Node1&#45;&gt;Node40 -->
<g id="edge39_Node000001_Node000040" class="edge">
<title>Node1&#45;&gt;Node40</title>
<g id="a_edge39_Node000001_Node000040"><a xlink:title=" ">
<path fill="none" stroke="#63b8ff" d="M4320.78,-87.95C4631.91,-83.78 5729.86,-66.88 6077.88,-32 6087.19,-31.07 6097,-29.74 6106.56,-28.26"/>
<polygon fill="#63b8ff" stroke="#63b8ff" points="6106.82,-31.76 6116.13,-26.7 6105.7,-24.85 6106.82,-31.76"/>
</a>
</g>
</g>
<!-- Node41 -->
<g id="Node000041" class="node">
<title>Node41</title>
<g id="a_Node000041"><a xlink:title=" ">
<polygon fill="#e0e0e0" stroke="#999999" points="6391.12,-26 6262.62,-26 6262.62,-6 6391.12,-6 6391.12,-26"/>
<text text-anchor="middle" x="6326.88" y="-12.5" font-family="Helvetica,sans-Serif" font-size="10.00">javafx.scene.layout.HBox</text>
</a>
</g>
</g>
<!-- Node1&#45;&gt;Node41 -->
<g id="edge40_Node000001_Node000041" class="edge">
<title>Node1&#45;&gt;Node41</title>
<g id="a_edge40_Node000001_Node000041"><a xlink:title=" ">
<path fill="none" stroke="#63b8ff" d="M4320.74,-88.58C4650.5,-86.63 5870.2,-76.5 6253.88,-32 6261.13,-31.16 6268.73,-29.96 6276.18,-28.6"/>
<polygon fill="#63b8ff" stroke="#63b8ff" points="6276.66,-32.07 6285.81,-26.73 6275.33,-25.2 6276.66,-32.07"/>
</a>
</g>
</g>
<!-- Node42 -->
<g id="Node000042" class="node">
<title>Node42</title>
<g id="a_Node000042"><a xlink:title=" ">
<polygon fill="#e0e0e0" stroke="#999999" points="6544.12,-26 6409.62,-26 6409.62,-6 6544.12,-6 6544.12,-26"/>
<text text-anchor="middle" x="6476.88" y="-12.5" font-family="Helvetica,sans-Serif" font-size="10.00">javafx.scene.layout.Priority</text>
</a>
</g>
</g>
<!-- Node1&#45;&gt;Node42 -->
<g id="edge41_Node000001_Node000042" class="edge">
<title>Node1&#45;&gt;Node42</title>
<g id="a_edge41_Node000001_Node000042"><a xlink:title=" ">
<path fill="none" stroke="#63b8ff" d="M4320.81,-88.66C4665.46,-86.94 5985.82,-77.47 6399.88,-32 6407.7,-31.14 6415.91,-29.91 6423.94,-28.51"/>
<polygon fill="#63b8ff" stroke="#63b8ff" points="6424.42,-31.98 6433.62,-26.72 6423.15,-25.09 6424.42,-31.98"/>
</a>
</g>
</g>
<!-- Node43 -->
<g id="Node000043" class="node">
<title>Node43</title>
<g id="a_Node000043"><a xlink:title=" ">
<polygon fill="#e0e0e0" stroke="#999999" points="6697.12,-26 6562.62,-26 6562.62,-6 6697.12,-6 6697.12,-26"/>
<text text-anchor="middle" x="6629.88" y="-12.5" font-family="Helvetica,sans-Serif" font-size="10.00">javafx.scene.layout.Region</text>
</a>
</g>
</g>
<!-- Node1&#45;&gt;Node43 -->
<g id="edge42_Node000001_Node000043" class="edge">
<title>Node1&#45;&gt;Node43</title>
<g id="a_edge42_Node000001_Node000043"><a xlink:title=" ">
<path fill="none" stroke="#63b8ff" d="M4320.84,-88.82C4680.55,-87.77 6107.12,-80.56 6552.88,-32 6560.7,-31.15 6568.91,-29.92 6576.94,-28.52"/>
<polygon fill="#63b8ff" stroke="#63b8ff" points="6577.42,-31.99 6586.62,-26.73 6576.15,-25.11 6577.42,-31.99"/>
</a>
</g>
</g>
<!-- Node44 -->
<g id="Node000044" class="node">
<title>Node44</title>
<g id="a_Node000044"><a xlink:title=" ">
<polygon fill="#e0e0e0" stroke="#999999" points="6842.75,-26 6715,-26 6715,-6 6842.75,-6 6842.75,-26"/>
<text text-anchor="middle" x="6778.88" y="-12.5" font-family="Helvetica,sans-Serif" font-size="10.00">javafx.scene.layout.VBox</text>
</a>
</g>
</g>
<!-- Node1&#45;&gt;Node44 -->
<g id="edge43_Node000001_Node000044" class="edge">
<title>Node1&#45;&gt;Node44</title>
<g id="a_edge43_Node000001_Node000044"><a xlink:title=" ">
<path fill="none" stroke="#63b8ff" d="M4320.94,-89.09C4695.36,-89.16 6228.65,-86.1 6705.88,-32 6713.13,-31.18 6720.74,-29.99 6728.19,-28.63"/>
<polygon fill="#63b8ff" stroke="#63b8ff" points="6728.66,-32.11 6737.82,-26.77 6727.33,-25.23 6728.66,-32.11"/>
</a>
</g>
</g>
<!-- Node45 -->
<g id="Node000045" class="node">
<title>Node45</title>
<g id="a_Node000045"><a xlink:title=" ">
<polygon fill="#e0e0e0" stroke="#999999" points="6982.75,-26 6861,-26 6861,-6 6982.75,-6 6982.75,-26"/>
<text text-anchor="middle" x="6921.88" y="-12.5" font-family="Helvetica,sans-Serif" font-size="10.00">javafx.scene.paint.Color</text>
</a>
</g>
</g>
<!-- Node1&#45;&gt;Node45 -->
<g id="edge44_Node000001_Node000045" class="edge">
<title>Node1&#45;&gt;Node45</title>
<g id="a_edge44_Node000001_Node000045"><a xlink:title=" ">
<path fill="none" stroke="#63b8ff" d="M4320.95,-89.3C4708.87,-90.4 6344.52,-91.35 6851.88,-32 6858.68,-31.2 6865.8,-30.06 6872.78,-28.74"/>
<polygon fill="#63b8ff" stroke="#63b8ff" points="6873.35,-32.2 6882.46,-26.79 6871.97,-25.34 6873.35,-32.2"/>
</a>
</g>
</g>
<!-- Node46 -->
<g id="Node000046" class="node">
<title>Node46</title>
<g id="a_Node000046"><a xlink:title=" ">
<polygon fill="#e0e0e0" stroke="#999999" points="7130.5,-26 7001.25,-26 7001.25,-6 7130.5,-6 7130.5,-26"/>
<text text-anchor="middle" x="7065.88" y="-12.5" font-family="Helvetica,sans-Serif" font-size="10.00">javafx.scene.shape.Circle</text>
</a>
</g>
</g>
<!-- Node1&#45;&gt;Node46 -->
<g id="edge45_Node000001_Node000046" class="edge">
<title>Node1&#45;&gt;Node46</title>
<g id="a_edge45_Node000001_Node000046"><a xlink:title=" ">
<path fill="none" stroke="#63b8ff" d="M4320.68,-89.29C4720.6,-90.37 6454.91,-91.49 6991.88,-32 6999.23,-31.19 7006.94,-30 7014.49,-28.65"/>
<polygon fill="#63b8ff" stroke="#63b8ff" points="7015.1,-32.09 7024.27,-26.78 7013.79,-25.22 7015.1,-32.09"/>
</a>
</g>
</g>
<!-- Node47 -->
<g id="Node000047" class="node">
<title>Node47</title>
<g id="a_Node000047"><a xlink:title=" ">
<polygon fill="#e0e0e0" stroke="#999999" points="7281,-32 7148.75,-32 7148.75,0 7281,0 7281,-32"/>
<text text-anchor="start" x="7156.75" y="-18.5" font-family="Helvetica,sans-Serif" font-size="10.00">javafx.scene.shape.Stroke</text>
<text text-anchor="middle" x="7214.88" y="-6.5" font-family="Helvetica,sans-Serif" font-size="10.00">LineCap</text>
</a>
</g>
</g>
<!-- Node1&#45;&gt;Node47 -->
<g id="edge46_Node000001_Node000047" class="edge">
<title>Node1&#45;&gt;Node47</title>
<g id="a_edge46_Node000001_Node000047"><a xlink:title=" ">
<path fill="none" stroke="#63b8ff" d="M4320.97,-89.36C4731.74,-90.85 6548.8,-93.82 7137.19,-32.14"/>
<polygon fill="#63b8ff" stroke="#63b8ff" points="7137.24,-35.66 7146.81,-31.11 7136.49,-28.69 7137.24,-35.66"/>
</a>
</g>
</g>
<!-- Node48 -->
<g id="Node000048" class="node">
<title>Node48</title>
<g id="a_Node000048"><a xlink:title=" ">
<polygon fill="#e0e0e0" stroke="#999999" points="7412.62,-26 7299.12,-26 7299.12,-6 7412.62,-6 7412.62,-26"/>
<text text-anchor="middle" x="7355.88" y="-12.5" font-family="Helvetica,sans-Serif" font-size="10.00">javafx.scene.text.Font</text>
</a>
</g>
</g>
<!-- Node1&#45;&gt;Node48 -->
<g id="edge47_Node000001_Node000048" class="edge">
<title>Node1&#45;&gt;Node48</title>
<g id="a_edge47_Node000001_Node000048"><a xlink:title=" ">
<path fill="none" stroke="#63b8ff" d="M4320.63,-88.47C4778.16,-85.39 6988.29,-68.69 7289.88,-32 7296.3,-31.22 7303.02,-30.08 7309.6,-28.77"/>
<polygon fill="#63b8ff" stroke="#63b8ff" points="7309.96,-32.27 7319.01,-26.76 7308.5,-25.43 7309.96,-32.27"/>
</a>
</g>
</g>
<!-- Node49 -->
<g id="Node000049" class="node">
<title>Node49</title>
<g id="a_Node000049"><a xlink:title=" ">
<polygon fill="#e0e0e0" stroke="#999999" points="7543.25,-26 7430.5,-26 7430.5,-6 7543.25,-6 7543.25,-26"/>
<text text-anchor="middle" x="7486.88" y="-12.5" font-family="Helvetica,sans-Serif" font-size="10.00">javafx.scene.text.Text</text>
</a>
</g>
</g>
<!-- Node1&#45;&gt;Node49 -->
<g id="edge48_Node000001_Node000049" class="edge">
<title>Node1&#45;&gt;Node49</title>
<g id="a_edge48_Node000001_Node000049"><a xlink:title=" ">
<path fill="none" stroke="#63b8ff" d="M4320.73,-88.55C4790.21,-85.87 7106.52,-70.78 7421.88,-32 7428.05,-31.24 7434.5,-30.14 7440.84,-28.87"/>
<polygon fill="#63b8ff" stroke="#63b8ff" points="7441.52,-32.31 7450.55,-26.77 7440.04,-25.46 7441.52,-32.31"/>
</a>
</g>
</g>
<!-- Node50 -->
<g id="Node000050" class="node">
<title>Node50</title>
<g id="a_Node000050"><a xlink:title=" ">
<polygon fill="#e0e0e0" stroke="#999999" points="7694.75,-26 7561,-26 7561,-6 7694.75,-6 7694.75,-26"/>
<text text-anchor="middle" x="7627.88" y="-12.5" font-family="Helvetica,sans-Serif" font-size="10.00">javafx.scene.text.TextFlow</text>
</a>
</g>
</g>
<!-- Node1&#45;&gt;Node50 -->
<g id="edge49_Node000001_Node000050" class="edge">
<title>Node1&#45;&gt;Node50</title>
<g id="a_edge49_Node000001_Node000050"><a xlink:title=" ">
<path fill="none" stroke="#63b8ff" d="M4320.94,-88.46C4802.14,-85.18 7222.32,-67.07 7551.88,-32 7559.69,-31.17 7567.9,-29.93 7575.92,-28.52"/>
<polygon fill="#63b8ff" stroke="#63b8ff" points="7576.39,-32 7585.57,-26.72 7575.1,-25.12 7576.39,-32"/>
</a>
</g>
</g>
<!-- Node51 -->
<g id="Node000051" class="node">
<title>Node51</title>
<g id="a_Node000051"><a xlink:title=" ">
<polygon fill="#e0e0e0" stroke="#999999" points="7810.75,-26 7713,-26 7713,-6 7810.75,-6 7810.75,-26"/>
<text text-anchor="middle" x="7761.88" y="-12.5" font-family="Helvetica,sans-Serif" font-size="10.00">javafx.stage.Stage</text>
</a>
</g>
</g>
<!-- Node1&#45;&gt;Node51 -->
<g id="edge50_Node000001_Node000051" class="edge">
<title>Node1&#45;&gt;Node51</title>
<g id="a_edge50_Node000001_Node000051"><a xlink:title=" ">
<path fill="none" stroke="#63b8ff" d="M4320.73,-88.81C4814.51,-87.53 7359.48,-78.69 7703.88,-32 7709.14,-31.29 7714.61,-30.26 7720,-29.08"/>
<polygon fill="#63b8ff" stroke="#63b8ff" points="7720.46,-32.56 7729.37,-26.82 7718.83,-25.76 7720.46,-32.56"/>
</a>
</g>
</g>
<!-- Node52 -->
<g id="Node000052" class="node">
<title>Node52</title>
<g id="a_Node000052"><a xlink:title=" ">
<polygon fill="#e0e0e0" stroke="#999999" points="7926.75,-26 7829,-26 7829,-6 7926.75,-6 7926.75,-26"/>
<text text-anchor="middle" x="7877.88" y="-12.5" font-family="Helvetica,sans-Serif" font-size="10.00">javafx.util.Duration</text>
</a>
</g>
</g>
<!-- Node1&#45;&gt;Node52 -->
<g id="edge51_Node000001_Node000052" class="edge">
<title>Node1&#45;&gt;Node52</title>
<g id="a_edge51_Node000001_Node000052"><a xlink:title=" ">
<path fill="none" stroke="#63b8ff" d="M4320.62,-88.86C4823.83,-87.85 7463.27,-80.25 7819.88,-32 7825.14,-31.29 7830.61,-30.26 7836,-29.08"/>
<polygon fill="#63b8ff" stroke="#63b8ff" points="7836.46,-32.57 7845.37,-26.83 7834.83,-25.76 7836.46,-32.57"/>
</a>
</g>
</g>
</g>
</svg>
