<?xml version="1.0" encoding="UTF-8" standalone="no"?>
<!DOCTYPE svg PUBLIC "-//W3C//DTD SVG 1.1//EN"
 "http://www.w3.org/Graphics/SVG/1.1/DTD/svg11.dtd">
<!-- Generated by graphviz version 12.2.1 (20241206.2353)
 -->
<!-- Title: src/main/java/com/hust/ittnk68/cnpm/view/ClientHomePage.java Pages: 1 -->
<svg width="1689pt" height="120pt"
 viewBox="0.00 0.00 1688.50 120.00" xmlns="http://www.w3.org/2000/svg" xmlns:xlink="http://www.w3.org/1999/xlink">
<g id="graph0" class="graph" transform="scale(1 1) rotate(0) translate(4 116)">
<title>src/main/java/com/hust/ittnk68/cnpm/view/ClientHomePage.java</title>
<!-- Node1 -->
<g id="Node000001" class="node">
<title>Node1</title>
<g id="a_Node000001"><a xlink:title=" ">
<polygon fill="#999999" stroke="#666666" points="904.88,-112 751.62,-112 751.62,-68 904.88,-68 904.88,-112"/>
<text text-anchor="start" x="759.62" y="-98.5" font-family="Helvetica,sans-Serif" font-size="10.00">src/main/java/com/hust</text>
<text text-anchor="start" x="759.62" y="-86.5" font-family="Helvetica,sans-Serif" font-size="10.00">/ittnk68/cnpm/view/ClientHome</text>
<text text-anchor="middle" x="828.25" y="-74.5" font-family="Helvetica,sans-Serif" font-size="10.00">Page.java</text>
</a>
</g>
</g>
<!-- Node2 -->
<g id="Node000002" class="node">
<title>Node2</title>
<g id="a_Node000002"><a xlink:title=" ">
<polygon fill="#e0e0e0" stroke="#999999" points="128.5,-26 0,-26 0,-6 128.5,-6 128.5,-26"/>
<text text-anchor="middle" x="64.25" y="-12.5" font-family="Helvetica,sans-Serif" font-size="10.00">java.util.stream.IntStream</text>
</a>
</g>
</g>
<!-- Node1&#45;&gt;Node2 -->
<g id="edge1_Node000001_Node000002" class="edge">
<title>Node1&#45;&gt;Node2</title>
<g id="a_edge1_Node000001_Node000002"><a xlink:title=" ">
<path fill="none" stroke="#63b8ff" d="M751.34,-85.6C623.54,-79.3 359.6,-63.47 138.25,-32 131.52,-31.04 124.48,-29.86 117.52,-28.58"/>
<polygon fill="#63b8ff" stroke="#63b8ff" points="118.33,-25.17 107.85,-26.71 117.01,-32.04 118.33,-25.17"/>
</a>
</g>
</g>
<!-- Node3 -->
<g id="Node000003" class="node">
<title>Node3</title>
<g id="a_Node000003"><a xlink:title=" ">
<polygon fill="#e0e0e0" stroke="#999999" points="307.62,-32 146.88,-32 146.88,0 307.62,0 307.62,-32"/>
<text text-anchor="start" x="154.88" y="-18.5" font-family="Helvetica,sans-Serif" font-size="10.00">com.hust.ittnk68.cnpm.controller.</text>
<text text-anchor="middle" x="227.25" y="-6.5" font-family="Helvetica,sans-Serif" font-size="10.00">ClientSceneController</text>
</a>
</g>
</g>
<!-- Node1&#45;&gt;Node3 -->
<g id="edge2_Node000001_Node000003" class="edge">
<title>Node1&#45;&gt;Node3</title>
<g id="a_edge2_Node000001_Node000003"><a xlink:title=" ">
<path fill="none" stroke="#63b8ff" d="M751.32,-81.79C653.25,-72.3 478.23,-54.35 318.72,-32.3"/>
<polygon fill="#63b8ff" stroke="#63b8ff" points="319.63,-28.9 309.25,-30.98 318.67,-35.83 319.63,-28.9"/>
</a>
</g>
</g>
<!-- Node4 -->
<g id="Node000004" class="node">
<title>Node4</title>
<g id="a_Node000004"><a xlink:title=" ">
<polygon fill="#e0e0e0" stroke="#999999" points="443.25,-32 325.25,-32 325.25,0 443.25,0 443.25,-32"/>
<text text-anchor="start" x="333.25" y="-18.5" font-family="Helvetica,sans-Serif" font-size="10.00">atlantafx.base.controls.</text>
<text text-anchor="middle" x="384.25" y="-6.5" font-family="Helvetica,sans-Serif" font-size="10.00">Calendar</text>
</a>
</g>
</g>
<!-- Node1&#45;&gt;Node4 -->
<g id="edge3_Node000001_Node000004" class="edge">
<title>Node1&#45;&gt;Node4</title>
<g id="a_edge3_Node000001_Node000004"><a xlink:title=" ">
<path fill="none" stroke="#63b8ff" d="M751.31,-78.86C677.66,-68.82 563.21,-52.3 454.7,-32.39"/>
<polygon fill="#63b8ff" stroke="#63b8ff" points="455.5,-28.97 445.03,-30.6 454.23,-35.86 455.5,-28.97"/>
</a>
</g>
</g>
<!-- Node5 -->
<g id="Node000005" class="node">
<title>Node5</title>
<g id="a_Node000005"><a xlink:title=" ">
<polygon fill="#e0e0e0" stroke="#999999" points="575.38,-26 461.12,-26 461.12,-6 575.38,-6 575.38,-26"/>
<text text-anchor="middle" x="518.25" y="-12.5" font-family="Helvetica,sans-Serif" font-size="10.00">javafx.geometry.Insets</text>
</a>
</g>
</g>
<!-- Node1&#45;&gt;Node5 -->
<g id="edge4_Node000001_Node000005" class="edge">
<title>Node1&#45;&gt;Node5</title>
<g id="a_edge4_Node000001_Node000005"><a xlink:title=" ">
<path fill="none" stroke="#63b8ff" d="M751.22,-71.11C694.66,-57.97 619.37,-40.49 569.89,-28.99"/>
<polygon fill="#63b8ff" stroke="#63b8ff" points="570.83,-25.62 560.29,-26.76 569.24,-32.44 570.83,-25.62"/>
</a>
</g>
</g>
<!-- Node6 -->
<g id="Node000006" class="node">
<title>Node6</title>
<g id="a_Node000006"><a xlink:title=" ">
<polygon fill="#e0e0e0" stroke="#999999" points="731.38,-26 593.12,-26 593.12,-6 731.38,-6 731.38,-26"/>
<text text-anchor="middle" x="662.25" y="-12.5" font-family="Helvetica,sans-Serif" font-size="10.00">javafx.scene.chart.BarChart</text>
</a>
</g>
</g>
<!-- Node1&#45;&gt;Node6 -->
<g id="edge5_Node000001_Node000006" class="edge">
<title>Node1&#45;&gt;Node6</title>
<g id="a_edge5_Node000001_Node000006"><a xlink:title=" ">
<path fill="none" stroke="#63b8ff" d="M778.89,-67.59C751.54,-55.73 718.33,-41.32 694.35,-30.92"/>
<polygon fill="#63b8ff" stroke="#63b8ff" points="695.99,-27.82 685.42,-27.05 693.2,-34.24 695.99,-27.82"/>
</a>
</g>
</g>
<!-- Node7 -->
<g id="Node000007" class="node">
<title>Node7</title>
<g id="a_Node000007"><a xlink:title=" ">
<polygon fill="#e0e0e0" stroke="#999999" points="907.5,-26 749,-26 749,-6 907.5,-6 907.5,-26"/>
<text text-anchor="middle" x="828.25" y="-12.5" font-family="Helvetica,sans-Serif" font-size="10.00">javafx.scene.chart.CategoryAxis</text>
</a>
</g>
</g>
<!-- Node1&#45;&gt;Node7 -->
<g id="edge6_Node000001_Node000007" class="edge">
<title>Node1&#45;&gt;Node7</title>
<g id="a_edge6_Node000001_Node000007"><a xlink:title=" ">
<path fill="none" stroke="#63b8ff" d="M828.25,-67.79C828.25,-58.32 828.25,-47.2 828.25,-37.78"/>
<polygon fill="#63b8ff" stroke="#63b8ff" points="831.75,-37.82 828.25,-27.82 824.75,-37.82 831.75,-37.82"/>
</a>
</g>
</g>
<!-- Node8 -->
<g id="Node000008" class="node">
<title>Node8</title>
<g id="a_Node000008"><a xlink:title=" ">
<polygon fill="#e0e0e0" stroke="#999999" points="1078.88,-26 925.62,-26 925.62,-6 1078.88,-6 1078.88,-26"/>
<text text-anchor="middle" x="1002.25" y="-12.5" font-family="Helvetica,sans-Serif" font-size="10.00">javafx.scene.chart.NumberAxis</text>
</a>
</g>
</g>
<!-- Node1&#45;&gt;Node8 -->
<g id="edge7_Node000001_Node000008" class="edge">
<title>Node1&#45;&gt;Node8</title>
<g id="a_edge7_Node000001_Node000008"><a xlink:title=" ">
<path fill="none" stroke="#63b8ff" d="M879.98,-67.59C908.78,-55.68 943.78,-41.19 968.95,-30.78"/>
<polygon fill="#63b8ff" stroke="#63b8ff" points="970.12,-34.08 978.02,-27.03 967.44,-27.62 970.12,-34.08"/>
</a>
</g>
</g>
<!-- Node9 -->
<g id="Node000009" class="node">
<title>Node9</title>
<g id="a_Node000009"><a xlink:title=" ">
<polygon fill="#e0e0e0" stroke="#999999" points="1233.62,-26 1096.88,-26 1096.88,-6 1233.62,-6 1233.62,-26"/>
<text text-anchor="middle" x="1165.25" y="-12.5" font-family="Helvetica,sans-Serif" font-size="10.00">javafx.scene.chart.XYChart</text>
</a>
</g>
</g>
<!-- Node1&#45;&gt;Node9 -->
<g id="edge8_Node000001_Node000009" class="edge">
<title>Node1&#45;&gt;Node9</title>
<g id="a_edge8_Node000001_Node000009"><a xlink:title=" ">
<path fill="none" stroke="#63b8ff" d="M905.14,-72.57C967.66,-59.21 1054.35,-40.69 1110.13,-28.78"/>
<polygon fill="#63b8ff" stroke="#63b8ff" points="1110.67,-32.24 1119.72,-26.73 1109.21,-25.39 1110.67,-32.24"/>
</a>
</g>
</g>
<!-- Node10 -->
<g id="Node000010" class="node">
<title>Node10</title>
<g id="a_Node000010"><a xlink:title=" ">
<polygon fill="#e0e0e0" stroke="#999999" points="1381.25,-26 1251.25,-26 1251.25,-6 1381.25,-6 1381.25,-26"/>
<text text-anchor="middle" x="1316.25" y="-12.5" font-family="Helvetica,sans-Serif" font-size="10.00">javafx.scene.control.Label</text>
</a>
</g>
</g>
<!-- Node1&#45;&gt;Node10 -->
<g id="edge9_Node000001_Node000010" class="edge">
<title>Node1&#45;&gt;Node10</title>
<g id="a_edge9_Node000001_Node000010"><a xlink:title=" ">
<path fill="none" stroke="#63b8ff" d="M905.16,-79.89C988.45,-69.67 1125.13,-51.91 1242.25,-32 1248.23,-30.98 1254.46,-29.85 1260.66,-28.66"/>
<polygon fill="#63b8ff" stroke="#63b8ff" points="1261.1,-32.14 1270.24,-26.79 1259.75,-25.27 1261.1,-32.14"/>
</a>
</g>
</g>
<!-- Node11 -->
<g id="Node000011" class="node">
<title>Node11</title>
<g id="a_Node000011"><a xlink:title=" ">
<polygon fill="#e0e0e0" stroke="#999999" points="1527.5,-26 1399,-26 1399,-6 1527.5,-6 1527.5,-26"/>
<text text-anchor="middle" x="1463.25" y="-12.5" font-family="Helvetica,sans-Serif" font-size="10.00">javafx.scene.layout.HBox</text>
</a>
</g>
</g>
<!-- Node1&#45;&gt;Node11 -->
<g id="edge10_Node000001_Node000011" class="edge">
<title>Node1&#45;&gt;Node11</title>
<g id="a_edge10_Node000001_Node000011"><a xlink:title=" ">
<path fill="none" stroke="#63b8ff" d="M904.92,-83.7C1013.39,-75.65 1217.69,-58.41 1390.25,-32 1396.64,-31.02 1403.32,-29.85 1409.93,-28.61"/>
<polygon fill="#63b8ff" stroke="#63b8ff" points="1410.29,-32.1 1419.43,-26.75 1408.95,-25.23 1410.29,-32.1"/>
</a>
</g>
</g>
<!-- Node12 -->
<g id="Node000012" class="node">
<title>Node12</title>
<g id="a_Node000012"><a xlink:title=" ">
<polygon fill="#e0e0e0" stroke="#999999" points="1680.5,-26 1546,-26 1546,-6 1680.5,-6 1680.5,-26"/>
<text text-anchor="middle" x="1613.25" y="-12.5" font-family="Helvetica,sans-Serif" font-size="10.00">javafx.scene.layout.Priority</text>
</a>
</g>
</g>
<!-- Node1&#45;&gt;Node12 -->
<g id="edge11_Node000001_Node000012" class="edge">
<title>Node1&#45;&gt;Node12</title>
<g id="a_edge11_Node000001_Node000012"><a xlink:title=" ">
<path fill="none" stroke="#63b8ff" d="M905.3,-85.63C1035.68,-79.29 1307.95,-63.33 1536.25,-32 1543.25,-31.04 1550.57,-29.85 1557.79,-28.57"/>
<polygon fill="#63b8ff" stroke="#63b8ff" points="1558.32,-32.03 1567.52,-26.77 1557.05,-25.15 1558.32,-32.03"/>
</a>
</g>
</g>
</g>
</svg>
