<?xml version="1.0" encoding="UTF-8" standalone="no"?>
<!DOCTYPE svg PUBLIC "-//W3C//DTD SVG 1.1//EN"
 "http://www.w3.org/Graphics/SVG/1.1/DTD/svg11.dtd">
<!-- Generated by graphviz version 12.2.1 (20241206.2353)
 -->
<!-- Title: src/main/java/com/hust/ittnk68/cnpm/Client.java Pages: 1 -->
<svg width="1010pt" height="108pt"
 viewBox="0.00 0.00 1010.00 108.00" xmlns="http://www.w3.org/2000/svg" xmlns:xlink="http://www.w3.org/1999/xlink">
<g id="graph0" class="graph" transform="scale(1 1) rotate(0) translate(4 104)">
<title>src/main/java/com/hust/ittnk68/cnpm/Client.java</title>
<!-- Node1 -->
<g id="Node000001" class="node">
<title>Node1</title>
<g id="a_Node000001"><a xlink:title=" ">
<polygon fill="#999999" stroke="#666666" points="574.62,-100 449.88,-100 449.88,-68 574.62,-68 574.62,-100"/>
<text text-anchor="start" x="457.88" y="-86.5" font-family="Helvetica,sans-Serif" font-size="10.00">src/main/java/com/hust</text>
<text text-anchor="middle" x="512.25" y="-74.5" font-family="Helvetica,sans-Serif" font-size="10.00">/ittnk68/cnpm/Client.java</text>
</a>
</g>
</g>
<!-- Node2 -->
<g id="Node000002" class="node">
<title>Node2</title>
<g id="a_Node000002"><a xlink:title=" ">
<polygon fill="#e0e0e0" stroke="#999999" points="146.5,-32 0,-32 0,0 146.5,0 146.5,-32"/>
<text text-anchor="start" x="8" y="-18.5" font-family="Helvetica,sans-Serif" font-size="10.00">java.security.InvalidParameter</text>
<text text-anchor="middle" x="73.25" y="-6.5" font-family="Helvetica,sans-Serif" font-size="10.00">Exception</text>
</a>
</g>
</g>
<!-- Node1&#45;&gt;Node2 -->
<g id="edge1_Node000001_Node000002" class="edge">
<title>Node1&#45;&gt;Node2</title>
<g id="a_edge1_Node000001_Node000002"><a xlink:title=" ">
<path fill="none" stroke="#63b8ff" d="M449.58,-74.8C380.58,-65.6 266.06,-49.84 158.08,-32.43"/>
<polygon fill="#63b8ff" stroke="#63b8ff" points="158.91,-29.02 148.48,-30.87 157.79,-35.93 158.91,-29.02"/>
</a>
</g>
</g>
<!-- Node3 -->
<g id="Node000003" class="node">
<title>Node3</title>
<g id="a_Node000003"><a xlink:title=" ">
<polygon fill="#e0e0e0" stroke="#999999" points="245.88,-26 164.62,-26 164.62,-6 245.88,-6 245.88,-26"/>
<text text-anchor="middle" x="205.25" y="-12.5" font-family="Helvetica,sans-Serif" font-size="10.00">java.util.Locale</text>
</a>
</g>
</g>
<!-- Node1&#45;&gt;Node3 -->
<g id="edge2_Node000001_Node000003" class="edge">
<title>Node1&#45;&gt;Node3</title>
<g id="a_edge2_Node000001_Node000003"><a xlink:title=" ">
<path fill="none" stroke="#63b8ff" d="M449.56,-72.29C397.3,-62.95 321.02,-48.35 255.25,-32 252.16,-31.23 248.97,-30.39 245.78,-29.51"/>
<polygon fill="#63b8ff" stroke="#63b8ff" points="247.03,-26.23 236.45,-26.85 245.11,-32.96 247.03,-26.23"/>
</a>
</g>
</g>
<!-- Node4 -->
<g id="Node000004" class="node">
<title>Node4</title>
<g id="a_Node000004"><a xlink:title=" ">
<polygon fill="#e0e0e0" stroke="#999999" points="424.62,-32 263.88,-32 263.88,0 424.62,0 424.62,-32"/>
<text text-anchor="start" x="271.88" y="-18.5" font-family="Helvetica,sans-Serif" font-size="10.00">com.hust.ittnk68.cnpm.controller.</text>
<text text-anchor="middle" x="344.25" y="-6.5" font-family="Helvetica,sans-Serif" font-size="10.00">ClientSceneController</text>
</a>
</g>
</g>
<!-- Node1&#45;&gt;Node4 -->
<g id="edge3_Node000001_Node000004" class="edge">
<title>Node1&#45;&gt;Node4</title>
<g id="a_edge3_Node000001_Node000004"><a xlink:title=" ">
<path fill="none" stroke="#63b8ff" d="M472.86,-67.53C449.35,-58.29 419.28,-46.48 394.13,-36.6"/>
<polygon fill="#63b8ff" stroke="#63b8ff" points="395.68,-33.44 385.09,-33.04 393.12,-39.96 395.68,-33.44"/>
</a>
</g>
</g>
<!-- Node5 -->
<g id="Node000005" class="node">
<title>Node5</title>
<g id="a_Node000005"><a xlink:title=" ">
<polygon fill="#e0e0e0" stroke="#999999" points="581.75,-32 442.75,-32 442.75,0 581.75,0 581.75,-32"/>
<text text-anchor="start" x="450.75" y="-18.5" font-family="Helvetica,sans-Serif" font-size="10.00">atlantafx.base.theme.Primer</text>
<text text-anchor="middle" x="512.25" y="-6.5" font-family="Helvetica,sans-Serif" font-size="10.00">Light</text>
</a>
</g>
</g>
<!-- Node1&#45;&gt;Node5 -->
<g id="edge4_Node000001_Node000005" class="edge">
<title>Node1&#45;&gt;Node5</title>
<g id="a_edge4_Node000001_Node000005"><a xlink:title=" ">
<path fill="none" stroke="#63b8ff" d="M512.25,-67.69C512.25,-60.53 512.25,-51.79 512.25,-43.59"/>
<polygon fill="#63b8ff" stroke="#63b8ff" points="515.75,-43.74 512.25,-33.74 508.75,-43.74 515.75,-43.74"/>
</a>
</g>
</g>
<!-- Node6 -->
<g id="Node000006" class="node">
<title>Node6</title>
<g id="a_Node000006"><a xlink:title=" ">
<polygon fill="#e0e0e0" stroke="#999999" points="742.62,-26 599.88,-26 599.88,-6 742.62,-6 742.62,-26"/>
<text text-anchor="middle" x="671.25" y="-12.5" font-family="Helvetica,sans-Serif" font-size="10.00">javafx.application.Application</text>
</a>
</g>
</g>
<!-- Node1&#45;&gt;Node6 -->
<g id="edge5_Node000001_Node000006" class="edge">
<title>Node1&#45;&gt;Node6</title>
<g id="a_edge5_Node000001_Node000006"><a xlink:title=" ">
<path fill="none" stroke="#63b8ff" d="M549.53,-67.53C576.35,-56.39 612.21,-41.51 638.05,-30.78"/>
<polygon fill="#63b8ff" stroke="#63b8ff" points="639.17,-34.11 647.06,-27.04 636.48,-27.64 639.17,-34.11"/>
</a>
</g>
</g>
<!-- Node7 -->
<g id="Node000007" class="node">
<title>Node7</title>
<g id="a_Node000007"><a xlink:title=" ">
<polygon fill="#e0e0e0" stroke="#999999" points="858.12,-26 760.38,-26 760.38,-6 858.12,-6 858.12,-26"/>
<text text-anchor="middle" x="809.25" y="-12.5" font-family="Helvetica,sans-Serif" font-size="10.00">javafx.stage.Stage</text>
</a>
</g>
</g>
<!-- Node1&#45;&gt;Node7 -->
<g id="edge6_Node000001_Node000007" class="edge">
<title>Node1&#45;&gt;Node7</title>
<g id="a_edge6_Node000001_Node000007"><a xlink:title=" ">
<path fill="none" stroke="#63b8ff" d="M575.06,-70.36C623.36,-60.46 691.68,-46.05 751.25,-32 755.01,-31.11 758.9,-30.17 762.8,-29.2"/>
<polygon fill="#63b8ff" stroke="#63b8ff" points="763.42,-32.65 772.26,-26.81 761.71,-25.87 763.42,-32.65"/>
</a>
</g>
</g>
<!-- Node8 -->
<g id="Node000008" class="node">
<title>Node8</title>
<g id="a_Node000008"><a xlink:title=" ">
<polygon fill="#e0e0e0" stroke="#999999" points="1002,-26 876.5,-26 876.5,-6 1002,-6 1002,-26"/>
<text text-anchor="middle" x="939.25" y="-12.5" font-family="Helvetica,sans-Serif" font-size="10.00">java.awt.im.InputContext</text>
</a>
</g>
</g>
<!-- Node1&#45;&gt;Node8 -->
<g id="edge7_Node000001_Node000008" class="edge">
<title>Node1&#45;&gt;Node8</title>
<g id="a_edge7_Node000001_Node000008"><a xlink:title=" ">
<path fill="none" stroke="#63b8ff" d="M574.96,-75.2C646.05,-66.08 765.3,-49.93 867.25,-32 872.92,-31 878.83,-29.89 884.71,-28.74"/>
<polygon fill="#63b8ff" stroke="#63b8ff" points="885.33,-32.18 894.45,-26.78 883.95,-25.32 885.33,-32.18"/>
</a>
</g>
</g>
</g>
</svg>
