<?xml version="1.0" encoding="UTF-8" standalone="no"?>
<!DOCTYPE svg PUBLIC "-//W3C//DTD SVG 1.1//EN"
 "http://www.w3.org/Graphics/SVG/1.1/DTD/svg11.dtd">
<!-- Generated by graphviz version 12.2.1 (20241206.2353)
 -->
<!-- Title: src/main/java/com/hust/ittnk68/cnpm/view/ClientHomeSideBar.java Pages: 1 -->
<!--zoomable 120 -->

<svg id="main" version="1.1" xmlns="http://www.w3.org/2000/svg" xmlns:xlink="http://www.w3.org/1999/xlink" xml:space="preserve" onload="init(evt)">

<style type="text/css"><![CDATA[
.node, .edge {opacity: 0.7;}
.node.selected, .edge.selected {opacity: 1;}
.edge:hover path { stroke: red; }
.edge:hover polygon { stroke: red; fill: red; }
]]></style>

<defs>
  <circle id="rim" cx="0" cy="0" r="7"/>
  <circle id="rim2" cx="0" cy="0" r="3.5"/>
  <g id="zoomPlus">
    <use xlink:href="#rim" fill="#404040"><set attributeName="fill" to="#808080" begin="zoomplus.mouseover" end="zoomplus.mouseout"/></use>
    <path d="M-4,0h8M0,-4v8" fill="none" stroke="white" stroke-width="1.5" pointer-events="none"/>
  </g>
  <g id="zoomMin">
    <use xlink:href="#rim" fill="#404040"><set attributeName="fill" to="#808080" begin="zoomminus.mouseover" end="zoomminus.mouseout"/></use>
    <path d="M-4,0h8" fill="none" stroke="white" stroke-width="1.5" pointer-events="none"/>
  </g>
  <g id="arrowUp" transform="translate(30 24)">
    <use xlink:href="#rim"/>
    <path pointer-events="none" fill="none" stroke="white" stroke-width="1.5" d="M0,-3.0v7 M-2.5,-0.5L0,-3.0L2.5,-0.5"/>
  </g>
  <g id="arrowRight" transform="rotate(90) translate(36 -43)">
    <use xlink:href="#rim"/>
    <path pointer-events="none" fill="none" stroke="white" stroke-width="1.5" d="M0,-3.0v7 M-2.5,-0.5L0,-3.0L2.5,-0.5"/>
  </g>
  <g id="arrowDown" transform="rotate(180) translate(-30 -48)">
    <use xlink:href="#rim"/>
    <path pointer-events="none" fill="none" stroke="white" stroke-width="1.5" d="M0,-3.0v7 M-2.5,-0.5L0,-3.0L2.5,-0.5"/>
  </g>
  <g id="arrowLeft" transform="rotate(270) translate(-36 17)">
    <use xlink:href="#rim"/>
    <path pointer-events="none" fill="none" stroke="white" stroke-width="1.5" d="M0,-3.0v7 M-2.5,-0.5L0,-3.0L2.5,-0.5"/>
  </g>
  <g id="resetDef">
    <use xlink:href="#rim2" fill="#404040"><set attributeName="fill" to="#808080" begin="reset.mouseover" end="reset.mouseout"/></use>
  </g>
</defs>
<script type="application/ecmascript">
var viewWidth = 2039;
var viewHeight = 120;
var sectionId = 'dynsection-0';
</script>
<script type="application/ecmascript" xlink:href="svg.min.js"/>
<svg id="graph" class="graph">
<g id="viewport">
<title>src/main/java/com/hust/ittnk68/cnpm/view/ClientHomeSideBar.java</title>
<!-- Node1 -->
<g id="Node000001" class="node">
<title>Node1</title>
<g id="a_Node000001"><a xlink:title=" ">
<polygon fill="#999999" stroke="#666666" points="1110.5,-112 957.25,-112 957.25,-68 1110.5,-68 1110.5,-112"/>
<text text-anchor="start" x="965.25" y="-98.5" font-family="Helvetica,sans-Serif" font-size="10.00">src/main/java/com/hust</text>
<text text-anchor="start" x="965.25" y="-86.5" font-family="Helvetica,sans-Serif" font-size="10.00">/ittnk68/cnpm/view/ClientHome</text>
<text text-anchor="middle" x="1033.88" y="-74.5" font-family="Helvetica,sans-Serif" font-size="10.00">SideBar.java</text>
</a>
</g>
</g>
<!-- Node2 -->
<g id="Node000002" class="node">
<title>Node2</title>
<g id="a_Node000002"><a xlink:title=" ">
<polygon fill="#e0e0e0" stroke="#999999" points="127.75,-32 0,-32 0,0 127.75,0 127.75,-32"/>
<text text-anchor="start" x="8" y="-18.5" font-family="Helvetica,sans-Serif" font-size="10.00">org.kordamp.ikonli.javafx.</text>
<text text-anchor="middle" x="63.88" y="-6.5" font-family="Helvetica,sans-Serif" font-size="10.00">FontIcon</text>
</a>
</g>
</g>
<!-- Node1&#45;&gt;Node2 -->
<g id="edge1_Node000001_Node000002" class="edge">
<title>Node1&#45;&gt;Node2</title>
<g id="a_edge1_Node000001_Node000002"><a xlink:title=" ">
<path fill="none" stroke="#63b8ff" d="M957.03,-87.72C803.42,-84.37 447.49,-72.68 139.29,-32.19"/>
<polygon fill="#63b8ff" stroke="#63b8ff" points="139.76,-28.72 129.38,-30.88 138.84,-35.66 139.76,-28.72"/>
</a>
</g>
</g>
<!-- Node3 -->
<g id="Node000003" class="node">
<title>Node3</title>
<g id="a_Node000003"><a xlink:title=" ">
<polygon fill="#e0e0e0" stroke="#999999" points="287.5,-32 146.25,-32 146.25,0 287.5,0 287.5,-32"/>
<text text-anchor="start" x="154.25" y="-18.5" font-family="Helvetica,sans-Serif" font-size="10.00">org.kordamp.ikonli.material2.</text>
<text text-anchor="middle" x="216.88" y="-6.5" font-family="Helvetica,sans-Serif" font-size="10.00">Material2AL</text>
</a>
</g>
</g>
<!-- Node1&#45;&gt;Node3 -->
<g id="edge2_Node000001_Node000003" class="edge">
<title>Node1&#45;&gt;Node3</title>
<g id="a_edge2_Node000001_Node000003"><a xlink:title=" ">
<path fill="none" stroke="#63b8ff" d="M956.82,-85.86C824.28,-79.83 544.47,-64.42 299.16,-32.35"/>
<polygon fill="#63b8ff" stroke="#63b8ff" points="299.75,-28.9 289.37,-31.06 298.83,-35.84 299.75,-28.9"/>
</a>
</g>
</g>
<!-- Node4 -->
<g id="Node000004" class="node">
<title>Node4</title>
<g id="a_Node000004"><a xlink:title=" ">
<polygon fill="#e0e0e0" stroke="#999999" points="446.5,-32 305.25,-32 305.25,0 446.5,0 446.5,-32"/>
<text text-anchor="start" x="313.25" y="-18.5" font-family="Helvetica,sans-Serif" font-size="10.00">org.kordamp.ikonli.material2.</text>
<text text-anchor="middle" x="375.88" y="-6.5" font-family="Helvetica,sans-Serif" font-size="10.00">Material2MZ</text>
</a>
</g>
</g>
<!-- Node1&#45;&gt;Node4 -->
<g id="edge3_Node000001_Node000004" class="edge">
<title>Node1&#45;&gt;Node4</title>
<g id="a_edge3_Node000001_Node000004"><a xlink:title=" ">
<path fill="none" stroke="#63b8ff" d="M956.81,-83.62C847.83,-75.52 642.27,-58.45 458.14,-32.4"/>
<polygon fill="#63b8ff" stroke="#63b8ff" points="458.78,-28.96 448.38,-31.01 457.79,-35.89 458.78,-28.96"/>
</a>
</g>
</g>
<!-- Node5 -->
<g id="Node000005" class="node">
<title>Node5</title>
<g id="a_Node000005"><a xlink:title=" ">
<polygon fill="#e0e0e0" stroke="#999999" points="605.5,-32 464.25,-32 464.25,0 605.5,0 605.5,-32"/>
<text text-anchor="start" x="472.25" y="-18.5" font-family="Helvetica,sans-Serif" font-size="10.00">org.kordamp.ikonli.material2.</text>
<text text-anchor="middle" x="534.88" y="-6.5" font-family="Helvetica,sans-Serif" font-size="10.00">Material2RoundAL</text>
</a>
</g>
</g>
<!-- Node1&#45;&gt;Node5 -->
<g id="edge4_Node000001_Node000005" class="edge">
<title>Node1&#45;&gt;Node5</title>
<g id="a_edge4_Node000001_Node000005"><a xlink:title=" ">
<path fill="none" stroke="#63b8ff" d="M957.05,-79.81C875.17,-69.73 741.47,-52.48 617.13,-32.49"/>
<polygon fill="#63b8ff" stroke="#63b8ff" points="617.83,-29.05 607.4,-30.91 616.71,-35.96 617.83,-29.05"/>
</a>
</g>
</g>
<!-- Node6 -->
<g id="Node000006" class="node">
<title>Node6</title>
<g id="a_Node000006"><a xlink:title=" ">
<polygon fill="#e0e0e0" stroke="#999999" points="764.5,-32 623.25,-32 623.25,0 764.5,0 764.5,-32"/>
<text text-anchor="start" x="631.25" y="-18.5" font-family="Helvetica,sans-Serif" font-size="10.00">org.kordamp.ikonli.material2.</text>
<text text-anchor="middle" x="693.88" y="-6.5" font-family="Helvetica,sans-Serif" font-size="10.00">Material2SharpAL</text>
</a>
</g>
</g>
<!-- Node1&#45;&gt;Node6 -->
<g id="edge5_Node000001_Node000006" class="edge">
<title>Node1&#45;&gt;Node6</title>
<g id="a_edge5_Node000001_Node000006"><a xlink:title=" ">
<path fill="none" stroke="#63b8ff" d="M957.15,-72.75C903.19,-61.32 831.06,-46.05 775.95,-34.38"/>
<polygon fill="#63b8ff" stroke="#63b8ff" points="776.8,-30.98 766.29,-32.34 775.35,-37.83 776.8,-30.98"/>
</a>
</g>
</g>
<!-- Node7 -->
<g id="Node000007" class="node">
<title>Node7</title>
<g id="a_Node000007"><a xlink:title=" ">
<polygon fill="#e0e0e0" stroke="#999999" points="943.25,-32 782.5,-32 782.5,0 943.25,0 943.25,-32"/>
<text text-anchor="start" x="790.5" y="-18.5" font-family="Helvetica,sans-Serif" font-size="10.00">com.hust.ittnk68.cnpm.controller.</text>
<text text-anchor="middle" x="862.88" y="-6.5" font-family="Helvetica,sans-Serif" font-size="10.00">ClientSceneController</text>
</a>
</g>
</g>
<!-- Node1&#45;&gt;Node7 -->
<g id="edge6_Node000001_Node000007" class="edge">
<title>Node1&#45;&gt;Node7</title>
<g id="a_edge6_Node000001_Node000007"><a xlink:title=" ">
<path fill="none" stroke="#63b8ff" d="M983.03,-67.59C959.92,-57.86 932.73,-46.41 910.07,-36.87"/>
<polygon fill="#63b8ff" stroke="#63b8ff" points="911.65,-33.74 901.07,-33.08 908.93,-40.19 911.65,-33.74"/>
</a>
</g>
</g>
<!-- Node8 -->
<g id="Node000008" class="node">
<title>Node8</title>
<g id="a_Node000008"><a xlink:title=" ">
<polygon fill="#e0e0e0" stroke="#999999" points="1106.75,-32 961,-32 961,0 1106.75,0 1106.75,-32"/>
<text text-anchor="start" x="969" y="-18.5" font-family="Helvetica,sans-Serif" font-size="10.00">com.hust.ittnk68.cnpm.group.</text>
<text text-anchor="middle" x="1033.88" y="-6.5" font-family="Helvetica,sans-Serif" font-size="10.00">AccentToggleGroup</text>
</a>
</g>
</g>
<!-- Node1&#45;&gt;Node8 -->
<g id="edge7_Node000001_Node000008" class="edge">
<title>Node1&#45;&gt;Node8</title>
<g id="a_edge7_Node000001_Node000008"><a xlink:title=" ">
<path fill="none" stroke="#63b8ff" d="M1033.88,-67.79C1033.88,-60.18 1033.88,-51.52 1033.88,-43.52"/>
<polygon fill="#63b8ff" stroke="#63b8ff" points="1037.38,-43.64 1033.88,-33.64 1030.38,-43.64 1037.38,-43.64"/>
</a>
</g>
</g>
<!-- Node9 -->
<g id="Node000009" class="node">
<title>Node9</title>
<g id="a_Node000009"><a xlink:title=" ">
<polygon fill="#e0e0e0" stroke="#999999" points="1286.62,-32 1125.12,-32 1125.12,0 1286.62,0 1286.62,-32"/>
<text text-anchor="start" x="1133.12" y="-18.5" font-family="Helvetica,sans-Serif" font-size="10.00">com.hust.ittnk68.cnpm.interactor.</text>
<text text-anchor="middle" x="1205.88" y="-6.5" font-family="Helvetica,sans-Serif" font-size="10.00">ClientInteractor</text>
</a>
</g>
</g>
<!-- Node1&#45;&gt;Node9 -->
<g id="edge8_Node000001_Node000009" class="edge">
<title>Node1&#45;&gt;Node9</title>
<g id="a_edge8_Node000001_Node000009"><a xlink:title=" ">
<path fill="none" stroke="#63b8ff" d="M1085.01,-67.59C1108.27,-57.86 1135.61,-46.41 1158.41,-36.87"/>
<polygon fill="#63b8ff" stroke="#63b8ff" points="1159.59,-40.17 1167.46,-33.08 1156.89,-33.71 1159.59,-40.17"/>
</a>
</g>
</g>
<!-- Node10 -->
<g id="Node000010" class="node">
<title>Node10</title>
<g id="a_Node000010"><a xlink:title=" ">
<polygon fill="#e0e0e0" stroke="#999999" points="1443,-26 1304.75,-26 1304.75,-6 1443,-6 1443,-26"/>
<text text-anchor="middle" x="1373.88" y="-12.5" font-family="Helvetica,sans-Serif" font-size="10.00">atlantafx.base.theme.Styles</text>
</a>
</g>
</g>
<!-- Node1&#45;&gt;Node10 -->
<g id="edge9_Node000001_Node000010" class="edge">
<title>Node1&#45;&gt;Node10</title>
<g id="a_edge9_Node000001_Node000010"><a xlink:title=" ">
<path fill="none" stroke="#63b8ff" d="M1110.6,-72.75C1173.63,-59.4 1261.45,-40.81 1317.98,-28.84"/>
<polygon fill="#63b8ff" stroke="#63b8ff" points="1318.66,-32.27 1327.72,-26.77 1317.21,-25.42 1318.66,-32.27"/>
</a>
</g>
</g>
<!-- Node11 -->
<g id="Node000011" class="node">
<title>Node11</title>
<g id="a_Node000011"><a xlink:title=" ">
<polygon fill="#e0e0e0" stroke="#999999" points="1565.12,-26 1460.62,-26 1460.62,-6 1565.12,-6 1565.12,-26"/>
<text text-anchor="middle" x="1512.88" y="-12.5" font-family="Helvetica,sans-Serif" font-size="10.00">javafx.geometry.Pos</text>
</a>
</g>
</g>
<!-- Node1&#45;&gt;Node11 -->
<g id="edge10_Node000001_Node000011" class="edge">
<title>Node1&#45;&gt;Node11</title>
<g id="a_edge10_Node000001_Node000011"><a xlink:title=" ">
<path fill="none" stroke="#63b8ff" d="M1110.93,-80.96C1195.1,-71.61 1333.7,-54.52 1451.88,-32 1456.52,-31.12 1461.33,-30.1 1466.13,-29.03"/>
<polygon fill="#63b8ff" stroke="#63b8ff" points="1466.79,-32.47 1475.74,-26.78 1465.2,-25.65 1466.79,-32.47"/>
</a>
</g>
</g>
<!-- Node12 -->
<g id="Node000012" class="node">
<title>Node12</title>
<g id="a_Node000012"><a xlink:title=" ">
<polygon fill="#e0e0e0" stroke="#999999" points="1738.25,-26 1583.5,-26 1583.5,-6 1738.25,-6 1738.25,-26"/>
<text text-anchor="middle" x="1660.88" y="-12.5" font-family="Helvetica,sans-Serif" font-size="10.00">javafx.scene.layout.BorderPane</text>
</a>
</g>
</g>
<!-- Node1&#45;&gt;Node12 -->
<g id="edge11_Node000001_Node000012" class="edge">
<title>Node1&#45;&gt;Node12</title>
<g id="a_edge11_Node000001_Node000012"><a xlink:title=" ">
<path fill="none" stroke="#63b8ff" d="M1110.97,-82.46C1215.93,-73.2 1409.53,-54.82 1573.88,-32 1581.81,-30.9 1590.13,-29.62 1598.34,-28.29"/>
<polygon fill="#63b8ff" stroke="#63b8ff" points="1598.65,-31.78 1607.94,-26.69 1597.51,-24.88 1598.65,-31.78"/>
</a>
</g>
</g>
<!-- Node13 -->
<g id="Node000013" class="node">
<title>Node13</title>
<g id="a_Node000013"><a xlink:title=" ">
<polygon fill="#e0e0e0" stroke="#999999" points="1885.12,-26 1756.62,-26 1756.62,-6 1885.12,-6 1885.12,-26"/>
<text text-anchor="middle" x="1820.88" y="-12.5" font-family="Helvetica,sans-Serif" font-size="10.00">javafx.scene.layout.HBox</text>
</a>
</g>
</g>
<!-- Node1&#45;&gt;Node13 -->
<g id="edge12_Node000001_Node000013" class="edge">
<title>Node1&#45;&gt;Node13</title>
<g id="a_edge12_Node000001_Node000013"><a xlink:title=" ">
<path fill="none" stroke="#63b8ff" d="M1110.97,-85.88C1242.11,-79.89 1516.77,-64.4 1746.88,-32 1753.61,-31.05 1760.65,-29.87 1767.6,-28.59"/>
<polygon fill="#63b8ff" stroke="#63b8ff" points="1768.12,-32.06 1777.28,-26.73 1766.8,-25.18 1768.12,-32.06"/>
</a>
</g>
</g>
<!-- Node14 -->
<g id="Node000014" class="node">
<title>Node14</title>
<g id="a_Node000014"><a xlink:title=" ">
<polygon fill="#e0e0e0" stroke="#999999" points="2030.75,-26 1903,-26 1903,-6 2030.75,-6 2030.75,-26"/>
<text text-anchor="middle" x="1966.88" y="-12.5" font-family="Helvetica,sans-Serif" font-size="10.00">javafx.scene.layout.VBox</text>
</a>
</g>
</g>
<!-- Node1&#45;&gt;Node14 -->
<g id="edge13_Node000001_Node000014" class="edge">
<title>Node1&#45;&gt;Node14</title>
<g id="a_edge13_Node000001_Node000014"><a xlink:title=" ">
<path fill="none" stroke="#63b8ff" d="M1110.73,-87.42C1261.54,-83.55 1606.58,-70.85 1893.88,-32 1900.61,-31.09 1907.65,-29.92 1914.6,-28.64"/>
<polygon fill="#63b8ff" stroke="#63b8ff" points="1915.1,-32.11 1924.25,-26.76 1913.76,-25.23 1915.1,-32.11"/>
</a>
</g>
</g>
</g>
</svg>

<g id="navigator" transform="translate(0 0)" fill="#404254">
  <rect fill="#f2f5e9" fill-opacity="0.5" stroke="#606060" stroke-width=".5" x="0" y="0" width="60" height="60"/>
  <use id="zoomplus" xlink:href="#zoomPlus" x="17" y="9" onmousedown="handleZoom(evt,'in')"/>
  <use id="zoomminus" xlink:href="#zoomMin" x="42" y="9" onmousedown="handleZoom(evt,'out')"/>
  <use id="reset" xlink:href="#resetDef" x="30" y="36" onmousedown="handleReset()"/>
   <use id="arrowup" xlink:href="#arrowUp" x="0" y="0" onmousedown="handlePan(0,-1)"/>
  <use id="arrowright" xlink:href="#arrowRight" x="0" y="0" onmousedown="handlePan(1,0)"/>
  <use id="arrowdown" xlink:href="#arrowDown" x="0" y="0" onmousedown="handlePan(0,1)"/>
  <use id="arrowleft" xlink:href="#arrowLeft" x="0" y="0" onmousedown="handlePan(-1,0)"/>
</g>
<svg viewBox="0 0 15 15" width="100%" height="30px" preserveAspectRatio="xMaxYMin meet">
 <g id="arrow_out" transform="scale(0.3 0.3)">
  <a xlink:href="ClientHomeSideBar_8java__incl_org.svg" target="_base">
   <rect id="button" ry="5" rx="5" y="6" x="6" height="38" width="38"
        fill="#f2f5e9" fill-opacity="0.5" stroke="#606060" stroke-width="1.0"/>
   <path id="arrow"
     d="M 11.500037,31.436501 C 11.940474,20.09759 22.043105,11.32322 32.158766,21.979434 L 37.068811,17.246167 C 37.068811,17.246167 37.088388,32 37.088388,32 L 22.160133,31.978069 C 22.160133,31.978069 26.997745,27.140456 26.997745,27.140456 C 18.528582,18.264221 13.291696,25.230495 11.500037,31.436501 z"
     style="fill:#404040;"/>
  </a>
 </g>
</svg>

<style type='text/css'>
<![CDATA[
[data-mouse-over-selected='false'] { opacity: 0.7; }
[data-mouse-over-selected='true']  { opacity: 1.0; }
]]>
</style>
<script type="application/ecmascript"><![CDATA[
document.addEventListener('DOMContentLoaded', (event) => {
  highlightEdges();
  highlightAdjacentNodes();
});
]]></script>
</svg>
