<?xml version="1.0" encoding="UTF-8" standalone="no"?>
<!DOCTYPE svg PUBLIC "-//W3C//DTD SVG 1.1//EN"
 "http://www.w3.org/Graphics/SVG/1.1/DTD/svg11.dtd">
<!-- Generated by graphviz version 12.2.1 (20241206.2353)
 -->
<!-- Title: src/main/java/com/hust/ittnk68/cnpm/controller/ClientHomeScreenController.java Pages: 1 -->
<svg width="660pt" height="120pt"
 viewBox="0.00 0.00 659.62 120.00" xmlns="http://www.w3.org/2000/svg" xmlns:xlink="http://www.w3.org/1999/xlink">
<g id="graph0" class="graph" transform="scale(1 1) rotate(0) translate(4 116)">
<title>src/main/java/com/hust/ittnk68/cnpm/controller/ClientHomeScreenController.java</title>
<!-- Node1 -->
<g id="Node000001" class="node">
<title>Node1</title>
<g id="a_Node000001"><a xlink:title=" ">
<polygon fill="#999999" stroke="#666666" points="424.25,-112 260.5,-112 260.5,-68 424.25,-68 424.25,-112"/>
<text text-anchor="start" x="268.5" y="-98.5" font-family="Helvetica,sans-Serif" font-size="10.00">src/main/java/com/hust</text>
<text text-anchor="start" x="268.5" y="-86.5" font-family="Helvetica,sans-Serif" font-size="10.00">/ittnk68/cnpm/controller</text>
<text text-anchor="middle" x="342.38" y="-74.5" font-family="Helvetica,sans-Serif" font-size="10.00">/ClientHomeScreenController.java</text>
</a>
</g>
</g>
<!-- Node2 -->
<g id="Node000002" class="node">
<title>Node2</title>
<g id="a_Node000002"><a xlink:title=" ">
<polygon fill="#e0e0e0" stroke="#999999" points="160.75,-32 0,-32 0,0 160.75,0 160.75,-32"/>
<text text-anchor="start" x="8" y="-18.5" font-family="Helvetica,sans-Serif" font-size="10.00">com.hust.ittnk68.cnpm.controller.</text>
<text text-anchor="middle" x="80.38" y="-6.5" font-family="Helvetica,sans-Serif" font-size="10.00">ClientSceneController</text>
</a>
</g>
</g>
<!-- Node1&#45;&gt;Node2 -->
<g id="edge1_Node000001_Node000002" class="edge">
<title>Node1&#45;&gt;Node2</title>
<g id="a_edge1_Node000001_Node000002"><a xlink:title=" ">
<path fill="none" stroke="#63b8ff" d="M264.48,-67.59C227.29,-57.37 183.24,-45.27 147.55,-35.46"/>
<polygon fill="#63b8ff" stroke="#63b8ff" points="148.79,-32.17 138.22,-32.9 146.94,-38.92 148.79,-32.17"/>
</a>
</g>
</g>
<!-- Node3 -->
<g id="Node000003" class="node">
<title>Node3</title>
<g id="a_Node000003"><a xlink:title=" ">
<polygon fill="#e0e0e0" stroke="#999999" points="340.12,-32 178.62,-32 178.62,0 340.12,0 340.12,-32"/>
<text text-anchor="start" x="186.62" y="-18.5" font-family="Helvetica,sans-Serif" font-size="10.00">com.hust.ittnk68.cnpm.interactor.</text>
<text text-anchor="middle" x="259.38" y="-6.5" font-family="Helvetica,sans-Serif" font-size="10.00">ClientInteractor</text>
</a>
</g>
</g>
<!-- Node1&#45;&gt;Node3 -->
<g id="edge2_Node000001_Node000003" class="edge">
<title>Node1&#45;&gt;Node3</title>
<g id="a_edge2_Node000001_Node000003"><a xlink:title=" ">
<path fill="none" stroke="#63b8ff" d="M317.92,-67.79C307.79,-59 296.01,-48.78 285.69,-39.83"/>
<polygon fill="#63b8ff" stroke="#63b8ff" points="288.06,-37.25 278.22,-33.34 283.48,-42.54 288.06,-37.25"/>
</a>
</g>
</g>
<!-- Node4 -->
<g id="Node000004" class="node">
<title>Node4</title>
<g id="a_Node000004"><a xlink:title=" ">
<polygon fill="#e0e0e0" stroke="#999999" points="492.62,-26 358.12,-26 358.12,-6 492.62,-6 492.62,-26"/>
<text text-anchor="middle" x="425.38" y="-12.5" font-family="Helvetica,sans-Serif" font-size="10.00">javafx.scene.layout.Region</text>
</a>
</g>
</g>
<!-- Node1&#45;&gt;Node4 -->
<g id="edge3_Node000001_Node000004" class="edge">
<title>Node1&#45;&gt;Node4</title>
<g id="a_edge3_Node000001_Node000004"><a xlink:title=" ">
<path fill="none" stroke="#63b8ff" d="M366.83,-67.79C379.36,-56.92 394.39,-43.88 406.09,-33.73"/>
<polygon fill="#63b8ff" stroke="#63b8ff" points="408.24,-36.5 413.5,-27.3 403.65,-31.21 408.24,-36.5"/>
</a>
</g>
</g>
<!-- Node5 -->
<g id="Node000005" class="node">
<title>Node5</title>
<g id="a_Node000005"><a xlink:title=" ">
<polygon fill="#e0e0e0" stroke="#999999" points="651.62,-32 511.12,-32 511.12,0 651.62,0 651.62,-32"/>
<text text-anchor="start" x="519.12" y="-18.5" font-family="Helvetica,sans-Serif" font-size="10.00">com.hust.ittnk68.cnpm.view.</text>
<text text-anchor="middle" x="581.38" y="-6.5" font-family="Helvetica,sans-Serif" font-size="10.00">ClientHomeScreenView</text>
</a>
</g>
</g>
<!-- Node1&#45;&gt;Node5 -->
<g id="edge4_Node000001_Node000005" class="edge">
<title>Node1&#45;&gt;Node5</title>
<g id="a_edge4_Node000001_Node000005"><a xlink:title=" ">
<path fill="none" stroke="#63b8ff" d="M413.44,-67.59C447.06,-57.46 486.85,-45.48 519.25,-35.72"/>
<polygon fill="#63b8ff" stroke="#63b8ff" points="519.92,-39.17 528.49,-32.93 517.9,-32.47 519.92,-39.17"/>
</a>
</g>
</g>
</g>
</svg>
