<?xml version="1.0" encoding="UTF-8" standalone="no"?>
<!DOCTYPE svg PUBLIC "-//W3C//DTD SVG 1.1//EN"
 "http://www.w3.org/Graphics/SVG/1.1/DTD/svg11.dtd">
<!-- Generated by graphviz version 12.2.1 (20241206.2353)
 -->
<!-- Title: src/main/java/com/hust/ittnk68/cnpm/view/ClientExpensePage.java Pages: 1 -->
<svg width="3831pt" height="120pt"
 viewBox="0.00 0.00 3830.75 120.00" xmlns="http://www.w3.org/2000/svg" xmlns:xlink="http://www.w3.org/1999/xlink">
<g id="graph0" class="graph" transform="scale(1 1) rotate(0) translate(4 116)">
<title>src/main/java/com/hust/ittnk68/cnpm/view/ClientExpensePage.java</title>
<!-- Node1 -->
<g id="Node000001" class="node">
<title>Node1</title>
<g id="a_Node000001"><a xlink:title=" ">
<polygon fill="#999999" stroke="#666666" points="2075.5,-112 1910.25,-112 1910.25,-68 2075.5,-68 2075.5,-112"/>
<text text-anchor="start" x="1918.25" y="-98.5" font-family="Helvetica,sans-Serif" font-size="10.00">src/main/java/com/hust</text>
<text text-anchor="start" x="1918.25" y="-86.5" font-family="Helvetica,sans-Serif" font-size="10.00">/ittnk68/cnpm/view/ClientExpense</text>
<text text-anchor="middle" x="1992.88" y="-74.5" font-family="Helvetica,sans-Serif" font-size="10.00">Page.java</text>
</a>
</g>
</g>
<!-- Node2 -->
<g id="Node000002" class="node">
<title>Node2</title>
<g id="a_Node000002"><a xlink:title=" ">
<polygon fill="#e0e0e0" stroke="#999999" points="91.75,-26 0,-26 0,-6 91.75,-6 91.75,-26"/>
<text text-anchor="middle" x="45.88" y="-12.5" font-family="Helvetica,sans-Serif" font-size="10.00">java.util.ArrayList</text>
</a>
</g>
</g>
<!-- Node1&#45;&gt;Node2 -->
<g id="edge1_Node000001_Node000002" class="edge">
<title>Node1&#45;&gt;Node2</title>
<g id="a_edge1_Node000001_Node000002"><a xlink:title=" ">
<path fill="none" stroke="#63b8ff" d="M1909.94,-89.1C1592.89,-89.09 457.48,-85.23 100.88,-32 96.19,-31.3 91.34,-30.34 86.55,-29.24"/>
<polygon fill="#63b8ff" stroke="#63b8ff" points="87.59,-25.89 77.04,-26.84 85.88,-32.68 87.59,-25.89"/>
</a>
</g>
</g>
<!-- Node3 -->
<g id="Node000003" class="node">
<title>Node3</title>
<g id="a_Node000003"><a xlink:title=" ">
<polygon fill="#e0e0e0" stroke="#999999" points="178.12,-26 109.62,-26 109.62,-6 178.12,-6 178.12,-26"/>
<text text-anchor="middle" x="143.88" y="-12.5" font-family="Helvetica,sans-Serif" font-size="10.00">java.util.List</text>
</a>
</g>
</g>
<!-- Node1&#45;&gt;Node3 -->
<g id="edge2_Node000001_Node000003" class="edge">
<title>Node1&#45;&gt;Node3</title>
<g id="a_edge2_Node000001_Node000003"><a xlink:title=" ">
<path fill="none" stroke="#63b8ff" d="M1909.83,-87.86C1578.02,-83.11 357.18,-63.62 186.88,-32 183.85,-31.44 180.74,-30.7 177.66,-29.85"/>
<polygon fill="#63b8ff" stroke="#63b8ff" points="178.77,-26.53 168.18,-26.87 176.67,-33.21 178.77,-26.53"/>
</a>
</g>
</g>
<!-- Node4 -->
<g id="Node000004" class="node">
<title>Node4</title>
<g id="a_Node000004"><a xlink:title=" ">
<polygon fill="#e0e0e0" stroke="#999999" points="267.62,-26 196.12,-26 196.12,-6 267.62,-6 267.62,-26"/>
<text text-anchor="middle" x="231.88" y="-12.5" font-family="Helvetica,sans-Serif" font-size="10.00">java.util.Map</text>
</a>
</g>
</g>
<!-- Node1&#45;&gt;Node4 -->
<g id="edge3_Node000001_Node000004" class="edge">
<title>Node1&#45;&gt;Node4</title>
<g id="a_edge3_Node000001_Node000004"><a xlink:title=" ">
<path fill="none" stroke="#63b8ff" d="M1909.76,-89.4C1611.52,-90.36 595.95,-89.23 276.88,-32 273.5,-31.39 270.03,-30.59 266.59,-29.66"/>
<polygon fill="#63b8ff" stroke="#63b8ff" points="267.86,-26.39 257.28,-26.84 265.83,-33.09 267.86,-26.39"/>
</a>
</g>
</g>
<!-- Node5 -->
<g id="Node000005" class="node">
<title>Node5</title>
<g id="a_Node000005"><a xlink:title=" ">
<polygon fill="#e0e0e0" stroke="#999999" points="413.75,-32 286,-32 286,0 413.75,0 413.75,-32"/>
<text text-anchor="start" x="294" y="-18.5" font-family="Helvetica,sans-Serif" font-size="10.00">org.kordamp.ikonli.javafx.</text>
<text text-anchor="middle" x="349.88" y="-6.5" font-family="Helvetica,sans-Serif" font-size="10.00">FontIcon</text>
</a>
</g>
</g>
<!-- Node1&#45;&gt;Node5 -->
<g id="edge4_Node000001_Node000005" class="edge">
<title>Node1&#45;&gt;Node5</title>
<g id="a_edge4_Node000001_Node000005"><a xlink:title=" ">
<path fill="none" stroke="#63b8ff" d="M1909.82,-87.81C1632.23,-83.55 737.06,-67.45 425.16,-32.1"/>
<polygon fill="#63b8ff" stroke="#63b8ff" points="425.71,-28.64 415.37,-30.95 424.9,-35.59 425.71,-28.64"/>
</a>
</g>
</g>
<!-- Node6 -->
<g id="Node000006" class="node">
<title>Node6</title>
<g id="a_Node000006"><a xlink:title=" ">
<polygon fill="#e0e0e0" stroke="#999999" points="573.5,-32 432.25,-32 432.25,0 573.5,0 573.5,-32"/>
<text text-anchor="start" x="440.25" y="-18.5" font-family="Helvetica,sans-Serif" font-size="10.00">org.kordamp.ikonli.material2.</text>
<text text-anchor="middle" x="502.88" y="-6.5" font-family="Helvetica,sans-Serif" font-size="10.00">Material2MZ</text>
</a>
</g>
</g>
<!-- Node1&#45;&gt;Node6 -->
<g id="edge5_Node000001_Node000006" class="edge">
<title>Node1&#45;&gt;Node6</title>
<g id="a_edge5_Node000001_Node000006"><a xlink:title=" ">
<path fill="none" stroke="#63b8ff" d="M1910.16,-87.26C1652.23,-81.59 863.7,-62.29 585.15,-32.24"/>
<polygon fill="#63b8ff" stroke="#63b8ff" points="585.69,-28.78 575.36,-31.16 584.91,-35.74 585.69,-28.78"/>
</a>
</g>
</g>
<!-- Node7 -->
<g id="Node000007" class="node">
<title>Node7</title>
<g id="a_Node000007"><a xlink:title=" ">
<polygon fill="#e0e0e0" stroke="#999999" points="732.5,-32 591.25,-32 591.25,0 732.5,0 732.5,-32"/>
<text text-anchor="start" x="599.25" y="-18.5" font-family="Helvetica,sans-Serif" font-size="10.00">org.kordamp.ikonli.material2.</text>
<text text-anchor="middle" x="661.88" y="-6.5" font-family="Helvetica,sans-Serif" font-size="10.00">Material2OutlinedAL</text>
</a>
</g>
</g>
<!-- Node1&#45;&gt;Node7 -->
<g id="edge6_Node000001_Node000007" class="edge">
<title>Node1&#45;&gt;Node7</title>
<g id="a_edge6_Node000001_Node000007"><a xlink:title=" ">
<path fill="none" stroke="#63b8ff" d="M1909.85,-89.22C1710.4,-88.88 1188.5,-82.87 744.04,-32.13"/>
<polygon fill="#63b8ff" stroke="#63b8ff" points="744.73,-28.69 734.4,-31.02 743.93,-35.64 744.73,-28.69"/>
</a>
</g>
</g>
<!-- Node8 -->
<g id="Node000008" class="node">
<title>Node8</title>
<g id="a_Node000008"><a xlink:title=" ">
<polygon fill="#e0e0e0" stroke="#999999" points="938.75,-32 751,-32 751,0 938.75,0 938.75,-32"/>
<text text-anchor="start" x="759" y="-18.5" font-family="Helvetica,sans-Serif" font-size="10.00">com.hust.ittnk68.cnpm.communication.</text>
<text text-anchor="middle" x="844.88" y="-6.5" font-family="Helvetica,sans-Serif" font-size="10.00">ServerObjectByIdQueryResponse</text>
</a>
</g>
</g>
<!-- Node1&#45;&gt;Node8 -->
<g id="edge7_Node000001_Node000008" class="edge">
<title>Node1&#45;&gt;Node8</title>
<g id="a_edge7_Node000001_Node000008"><a xlink:title=" ">
<path fill="none" stroke="#63b8ff" d="M1910.04,-87.02C1734.85,-82.27 1313.7,-67.96 950.4,-32.19"/>
<polygon fill="#63b8ff" stroke="#63b8ff" points="950.94,-28.73 940.64,-31.22 950.24,-35.69 950.94,-28.73"/>
</a>
</g>
</g>
<!-- Node9 -->
<g id="Node000009" class="node">
<title>Node9</title>
<g id="a_Node000009"><a xlink:title=" ">
<polygon fill="#e0e0e0" stroke="#999999" points="1144.75,-32 957,-32 957,0 1144.75,0 1144.75,-32"/>
<text text-anchor="start" x="965" y="-18.5" font-family="Helvetica,sans-Serif" font-size="10.00">com.hust.ittnk68.cnpm.communication.</text>
<text text-anchor="middle" x="1050.88" y="-6.5" font-family="Helvetica,sans-Serif" font-size="10.00">ServerPaymentStatusQueryResponse</text>
</a>
</g>
</g>
<!-- Node1&#45;&gt;Node9 -->
<g id="edge8_Node000001_Node000009" class="edge">
<title>Node1&#45;&gt;Node9</title>
<g id="a_edge8_Node000001_Node000009"><a xlink:title=" ">
<path fill="none" stroke="#63b8ff" d="M1909.93,-85.48C1761.11,-78.7 1438.71,-61.9 1156.43,-32.22"/>
<polygon fill="#63b8ff" stroke="#63b8ff" points="1156.96,-28.76 1146.64,-31.18 1156.22,-35.72 1156.96,-28.76"/>
</a>
</g>
</g>
<!-- Node10 -->
<g id="Node000010" class="node">
<title>Node10</title>
<g id="a_Node000010"><a xlink:title=" ">
<polygon fill="#e0e0e0" stroke="#999999" points="1350.75,-32 1163,-32 1163,0 1350.75,0 1350.75,-32"/>
<text text-anchor="start" x="1171" y="-18.5" font-family="Helvetica,sans-Serif" font-size="10.00">com.hust.ittnk68.cnpm.communication.</text>
<text text-anchor="middle" x="1256.88" y="-6.5" font-family="Helvetica,sans-Serif" font-size="10.00">UserQueryObjectById</text>
</a>
</g>
</g>
<!-- Node1&#45;&gt;Node10 -->
<g id="edge9_Node000001_Node000010" class="edge">
<title>Node1&#45;&gt;Node10</title>
<g id="a_edge9_Node000001_Node000010"><a xlink:title=" ">
<path fill="none" stroke="#63b8ff" d="M1909.78,-82.98C1790.83,-74.03 1564.93,-55.83 1362.31,-32.25"/>
<polygon fill="#63b8ff" stroke="#63b8ff" points="1362.99,-28.8 1352.65,-31.12 1362.18,-35.76 1362.99,-28.8"/>
</a>
</g>
</g>
<!-- Node11 -->
<g id="Node000011" class="node">
<title>Node11</title>
<g id="a_Node000011"><a xlink:title=" ">
<polygon fill="#e0e0e0" stroke="#999999" points="1556.75,-32 1369,-32 1369,0 1556.75,0 1556.75,-32"/>
<text text-anchor="start" x="1377" y="-18.5" font-family="Helvetica,sans-Serif" font-size="10.00">com.hust.ittnk68.cnpm.communication.</text>
<text text-anchor="middle" x="1462.88" y="-6.5" font-family="Helvetica,sans-Serif" font-size="10.00">UserQueryPaymentStatus</text>
</a>
</g>
</g>
<!-- Node1&#45;&gt;Node11 -->
<g id="edge10_Node000001_Node000011" class="edge">
<title>Node1&#45;&gt;Node11</title>
<g id="a_edge10_Node000001_Node000011"><a xlink:title=" ">
<path fill="none" stroke="#63b8ff" d="M1909.78,-78.21C1826.22,-67.28 1693.38,-49.73 1568.46,-32.35"/>
<polygon fill="#63b8ff" stroke="#63b8ff" points="1569.05,-28.9 1558.67,-30.99 1568.09,-35.83 1569.05,-28.9"/>
</a>
</g>
</g>
<!-- Node12 -->
<g id="Node000012" class="node">
<title>Node12</title>
<g id="a_Node000012"><a xlink:title=" ">
<polygon fill="#e0e0e0" stroke="#999999" points="1735.25,-32 1574.5,-32 1574.5,0 1735.25,0 1735.25,-32"/>
<text text-anchor="start" x="1582.5" y="-18.5" font-family="Helvetica,sans-Serif" font-size="10.00">com.hust.ittnk68.cnpm.controller.</text>
<text text-anchor="middle" x="1654.88" y="-6.5" font-family="Helvetica,sans-Serif" font-size="10.00">ClientSceneController</text>
</a>
</g>
</g>
<!-- Node1&#45;&gt;Node12 -->
<g id="edge11_Node000001_Node000012" class="edge">
<title>Node1&#45;&gt;Node12</title>
<g id="a_edge11_Node000001_Node000012"><a xlink:title=" ">
<path fill="none" stroke="#63b8ff" d="M1909.76,-71.29C1857.77,-60.22 1791.01,-46 1738.85,-34.89"/>
<polygon fill="#63b8ff" stroke="#63b8ff" points="1739.61,-31.47 1729.1,-32.81 1738.15,-38.32 1739.61,-31.47"/>
</a>
</g>
</g>
<!-- Node13 -->
<g id="Node000013" class="node">
<title>Node13</title>
<g id="a_Node000013"><a xlink:title=" ">
<polygon fill="#e0e0e0" stroke="#999999" points="1900.88,-32 1752.88,-32 1752.88,0 1900.88,0 1900.88,-32"/>
<text text-anchor="start" x="1760.88" y="-18.5" font-family="Helvetica,sans-Serif" font-size="10.00">com.hust.ittnk68.cnpm.model.</text>
<text text-anchor="middle" x="1826.88" y="-6.5" font-family="Helvetica,sans-Serif" font-size="10.00">Expense</text>
</a>
</g>
</g>
<!-- Node1&#45;&gt;Node13 -->
<g id="edge12_Node000001_Node000013" class="edge">
<title>Node1&#45;&gt;Node13</title>
<g id="a_edge12_Node000001_Node000013"><a xlink:title=" ">
<path fill="none" stroke="#63b8ff" d="M1943.52,-67.59C1921.18,-57.9 1894.93,-46.52 1872.99,-37"/>
<polygon fill="#63b8ff" stroke="#63b8ff" points="1874.56,-33.87 1863.99,-33.1 1871.77,-40.29 1874.56,-33.87"/>
</a>
</g>
</g>
<!-- Node14 -->
<g id="Node000014" class="node">
<title>Node14</title>
<g id="a_Node000014"><a xlink:title=" ">
<polygon fill="#e0e0e0" stroke="#999999" points="2066.88,-32 1918.88,-32 1918.88,0 2066.88,0 2066.88,-32"/>
<text text-anchor="start" x="1926.88" y="-18.5" font-family="Helvetica,sans-Serif" font-size="10.00">com.hust.ittnk68.cnpm.model.</text>
<text text-anchor="middle" x="1992.88" y="-6.5" font-family="Helvetica,sans-Serif" font-size="10.00">PaymentStatus</text>
</a>
</g>
</g>
<!-- Node1&#45;&gt;Node14 -->
<g id="edge13_Node000001_Node000014" class="edge">
<title>Node1&#45;&gt;Node14</title>
<g id="a_edge13_Node000001_Node000014"><a xlink:title=" ">
<path fill="none" stroke="#63b8ff" d="M1992.88,-67.79C1992.88,-60.18 1992.88,-51.52 1992.88,-43.52"/>
<polygon fill="#63b8ff" stroke="#63b8ff" points="1996.38,-43.64 1992.88,-33.64 1989.38,-43.64 1996.38,-43.64"/>
</a>
</g>
</g>
<!-- Node15 -->
<g id="Node000015" class="node">
<title>Node15</title>
<g id="a_Node000015"><a xlink:title=" ">
<polygon fill="#e0e0e0" stroke="#999999" points="2225.12,-32 2084.62,-32 2084.62,0 2225.12,0 2225.12,-32"/>
<text text-anchor="start" x="2092.62" y="-18.5" font-family="Helvetica,sans-Serif" font-size="10.00">com.hust.ittnk68.cnpm.type.</text>
<text text-anchor="middle" x="2154.88" y="-6.5" font-family="Helvetica,sans-Serif" font-size="10.00">ExpenseType</text>
</a>
</g>
</g>
<!-- Node1&#45;&gt;Node15 -->
<g id="edge14_Node000001_Node000015" class="edge">
<title>Node1&#45;&gt;Node15</title>
<g id="a_edge14_Node000001_Node000015"><a xlink:title=" ">
<path fill="none" stroke="#63b8ff" d="M2041.04,-67.59C2062.74,-57.95 2088.23,-46.62 2109.58,-37.13"/>
<polygon fill="#63b8ff" stroke="#63b8ff" points="2110.91,-40.37 2118.63,-33.11 2108.07,-33.97 2110.91,-40.37"/>
</a>
</g>
</g>
<!-- Node16 -->
<g id="Node000016" class="node">
<title>Node16</title>
<g id="a_Node000016"><a xlink:title=" ">
<polygon fill="#e0e0e0" stroke="#999999" points="2384.12,-32 2243.62,-32 2243.62,0 2384.12,0 2384.12,-32"/>
<text text-anchor="start" x="2251.62" y="-18.5" font-family="Helvetica,sans-Serif" font-size="10.00">com.hust.ittnk68.cnpm.type.</text>
<text text-anchor="middle" x="2313.88" y="-6.5" font-family="Helvetica,sans-Serif" font-size="10.00">ResponseStatus</text>
</a>
</g>
</g>
<!-- Node1&#45;&gt;Node16 -->
<g id="edge15_Node000001_Node000016" class="edge">
<title>Node1&#45;&gt;Node16</title>
<g id="a_edge15_Node000001_Node000016"><a xlink:title=" ">
<path fill="none" stroke="#63b8ff" d="M2075.96,-70.36C2124.64,-59.44 2185.83,-45.72 2233.96,-34.93"/>
<polygon fill="#63b8ff" stroke="#63b8ff" points="2234.49,-38.39 2243.48,-32.79 2232.95,-31.56 2234.49,-38.39"/>
</a>
</g>
</g>
<!-- Node17 -->
<g id="Node000017" class="node">
<title>Node17</title>
<g id="a_Node000017"><a xlink:title=" ">
<polygon fill="#e0e0e0" stroke="#999999" points="2535.75,-26 2402,-26 2402,-6 2535.75,-6 2535.75,-26"/>
<text text-anchor="middle" x="2468.88" y="-12.5" font-family="Helvetica,sans-Serif" font-size="10.00">atlantafx.base.controls.Tile</text>
</a>
</g>
</g>
<!-- Node1&#45;&gt;Node17 -->
<g id="edge16_Node000001_Node000017" class="edge">
<title>Node1&#45;&gt;Node17</title>
<g id="a_edge16_Node000001_Node000017"><a xlink:title=" ">
<path fill="none" stroke="#63b8ff" d="M2075.81,-78.49C2156.85,-67.92 2283.61,-50.55 2392.88,-32 2399.16,-30.93 2405.72,-29.75 2412.25,-28.52"/>
<polygon fill="#63b8ff" stroke="#63b8ff" points="2412.48,-32.04 2421.65,-26.72 2411.17,-25.17 2412.48,-32.04"/>
</a>
</g>
</g>
<!-- Node18 -->
<g id="Node000018" class="node">
<title>Node18</title>
<g id="a_Node000018"><a xlink:title=" ">
<polygon fill="#e0e0e0" stroke="#999999" points="2692,-26 2553.75,-26 2553.75,-6 2692,-6 2692,-26"/>
<text text-anchor="middle" x="2622.88" y="-12.5" font-family="Helvetica,sans-Serif" font-size="10.00">atlantafx.base.theme.Styles</text>
</a>
</g>
</g>
<!-- Node1&#45;&gt;Node18 -->
<g id="edge17_Node000001_Node000018" class="edge">
<title>Node1&#45;&gt;Node18</title>
<g id="a_edge17_Node000001_Node000018"><a xlink:title=" ">
<path fill="none" stroke="#63b8ff" d="M2075.92,-82.69C2184.18,-73.95 2379.27,-56.43 2544.88,-32 2551.77,-30.98 2558.98,-29.78 2566.11,-28.51"/>
<polygon fill="#63b8ff" stroke="#63b8ff" points="2566.52,-32 2575.72,-26.75 2565.25,-25.11 2566.52,-32"/>
</a>
</g>
</g>
<!-- Node19 -->
<g id="Node000019" class="node">
<title>Node19</title>
<g id="a_Node000019"><a xlink:title=" ">
<polygon fill="#e0e0e0" stroke="#999999" points="2825.38,-26 2710.38,-26 2710.38,-6 2825.38,-6 2825.38,-26"/>
<text text-anchor="middle" x="2767.88" y="-12.5" font-family="Helvetica,sans-Serif" font-size="10.00">javafx.concurrent.Task</text>
</a>
</g>
</g>
<!-- Node1&#45;&gt;Node19 -->
<g id="edge18_Node000001_Node000019" class="edge">
<title>Node1&#45;&gt;Node19</title>
<g id="a_edge18_Node000001_Node000019"><a xlink:title=" ">
<path fill="none" stroke="#63b8ff" d="M2075.88,-86.08C2208.57,-80.58 2476.38,-66 2700.88,-32 2706.62,-31.13 2712.61,-30.05 2718.54,-28.86"/>
<polygon fill="#63b8ff" stroke="#63b8ff" points="2719.24,-32.29 2728.3,-26.81 2717.8,-25.44 2719.24,-32.29"/>
</a>
</g>
</g>
<!-- Node20 -->
<g id="Node000020" class="node">
<title>Node20</title>
<g id="a_Node000020"><a xlink:title=" ">
<polygon fill="#e0e0e0" stroke="#999999" points="2958,-26 2843.75,-26 2843.75,-6 2958,-6 2958,-26"/>
<text text-anchor="middle" x="2900.88" y="-12.5" font-family="Helvetica,sans-Serif" font-size="10.00">javafx.geometry.Insets</text>
</a>
</g>
</g>
<!-- Node1&#45;&gt;Node20 -->
<g id="edge19_Node000001_Node000020" class="edge">
<title>Node1&#45;&gt;Node20</title>
<g id="a_edge19_Node000001_Node000020"><a xlink:title=" ">
<path fill="none" stroke="#63b8ff" d="M2075.8,-87.66C2227.3,-84.28 2558.71,-72.48 2834.88,-32 2840.83,-31.13 2847.05,-30 2853.19,-28.76"/>
<polygon fill="#63b8ff" stroke="#63b8ff" points="2853.54,-32.27 2862.58,-26.75 2852.07,-25.42 2853.54,-32.27"/>
</a>
</g>
</g>
<!-- Node21 -->
<g id="Node000021" class="node">
<title>Node21</title>
<g id="a_Node000021"><a xlink:title=" ">
<polygon fill="#e0e0e0" stroke="#999999" points="3073.75,-26 2976,-26 2976,-6 3073.75,-6 3073.75,-26"/>
<text text-anchor="middle" x="3024.88" y="-12.5" font-family="Helvetica,sans-Serif" font-size="10.00">javafx.scene.Node</text>
</a>
</g>
</g>
<!-- Node1&#45;&gt;Node21 -->
<g id="edge20_Node000001_Node000021" class="edge">
<title>Node1&#45;&gt;Node21</title>
<g id="a_edge20_Node000001_Node000021"><a xlink:title=" ">
<path fill="none" stroke="#63b8ff" d="M2075.87,-89.56C2244.72,-89.52 2639.94,-83.34 2966.88,-32 2971.81,-31.23 2976.93,-30.21 2981.99,-29.08"/>
<polygon fill="#63b8ff" stroke="#63b8ff" points="2982.52,-32.56 2991.42,-26.81 2980.88,-25.75 2982.52,-32.56"/>
</a>
</g>
</g>
<!-- Node22 -->
<g id="Node000022" class="node">
<title>Node22</title>
<g id="a_Node000022"><a xlink:title=" ">
<polygon fill="#e0e0e0" stroke="#999999" points="3245.88,-26 3091.88,-26 3091.88,-6 3245.88,-6 3245.88,-26"/>
<text text-anchor="middle" x="3168.88" y="-12.5" font-family="Helvetica,sans-Serif" font-size="10.00">javafx.scene.control.ScrollPane</text>
</a>
</g>
</g>
<!-- Node1&#45;&gt;Node22 -->
<g id="edge21_Node000001_Node000022" class="edge">
<title>Node1&#45;&gt;Node22</title>
<g id="a_edge21_Node000001_Node000022"><a xlink:title=" ">
<path fill="none" stroke="#63b8ff" d="M2075.88,-88.06C2258.5,-85.26 2708.63,-74.27 3082.88,-32 3091.56,-31.02 3100.69,-29.72 3109.63,-28.29"/>
<polygon fill="#63b8ff" stroke="#63b8ff" points="3110.03,-31.78 3119.32,-26.68 3108.88,-24.87 3110.03,-31.78"/>
</a>
</g>
</g>
<!-- Node23 -->
<g id="Node000023" class="node">
<title>Node23</title>
<g id="a_Node000023"><a xlink:title=" ">
<polygon fill="#e0e0e0" stroke="#999999" points="3386.12,-26 3263.62,-26 3263.62,-6 3386.12,-6 3386.12,-26"/>
<text text-anchor="middle" x="3324.88" y="-12.5" font-family="Helvetica,sans-Serif" font-size="10.00">javafx.scene.control.Tab</text>
</a>
</g>
</g>
<!-- Node1&#45;&gt;Node23 -->
<g id="edge22_Node000001_Node000023" class="edge">
<title>Node1&#45;&gt;Node23</title>
<g id="a_edge22_Node000001_Node000023"><a xlink:title=" ">
<path fill="none" stroke="#63b8ff" d="M2075.74,-87.05C2318.55,-81.07 3025.66,-61.53 3254.88,-32 3261.43,-31.16 3268.28,-30.01 3275.02,-28.74"/>
<polygon fill="#63b8ff" stroke="#63b8ff" points="3275.6,-32.19 3284.71,-26.79 3274.22,-25.33 3275.6,-32.19"/>
</a>
</g>
</g>
<!-- Node24 -->
<g id="Node000024" class="node">
<title>Node24</title>
<g id="a_Node000024"><a xlink:title=" ">
<polygon fill="#e0e0e0" stroke="#999999" points="3561.38,-26 3404.38,-26 3404.38,-6 3561.38,-6 3561.38,-26"/>
<text text-anchor="middle" x="3482.88" y="-12.5" font-family="Helvetica,sans-Serif" font-size="10.00">javafx.scene.layout.AnchorPane</text>
</a>
</g>
</g>
<!-- Node1&#45;&gt;Node24 -->
<g id="edge23_Node000001_Node000024" class="edge">
<title>Node1&#45;&gt;Node24</title>
<g id="a_edge23_Node000001_Node000024"><a xlink:title=" ">
<path fill="none" stroke="#63b8ff" d="M2075.71,-89.33C2292.83,-89.4 2896.1,-84.43 3394.88,-32 3403.97,-31.04 3413.55,-29.73 3422.9,-28.28"/>
<polygon fill="#63b8ff" stroke="#63b8ff" points="3423.35,-31.75 3432.66,-26.69 3422.23,-24.84 3423.35,-31.75"/>
</a>
</g>
</g>
<!-- Node25 -->
<g id="Node000025" class="node">
<title>Node25</title>
<g id="a_Node000025"><a xlink:title=" ">
<polygon fill="#e0e0e0" stroke="#999999" points="3706.75,-26 3579,-26 3579,-6 3706.75,-6 3706.75,-26"/>
<text text-anchor="middle" x="3642.88" y="-12.5" font-family="Helvetica,sans-Serif" font-size="10.00">javafx.scene.layout.VBox</text>
</a>
</g>
</g>
<!-- Node1&#45;&gt;Node25 -->
<g id="edge24_Node000001_Node000025" class="edge">
<title>Node1&#45;&gt;Node25</title>
<g id="a_edge24_Node000001_Node000025"><a xlink:title=" ">
<path fill="none" stroke="#63b8ff" d="M2075.86,-87.86C2357.76,-83.69 3277.3,-67.62 3570.88,-32 3577.86,-31.15 3585.18,-29.97 3592.36,-28.65"/>
<polygon fill="#63b8ff" stroke="#63b8ff" points="3592.84,-32.12 3601.98,-26.76 3591.49,-25.25 3592.84,-32.12"/>
</a>
</g>
</g>
<!-- Node26 -->
<g id="Node000026" class="node">
<title>Node26</title>
<g id="a_Node000026"><a xlink:title=" ">
<polygon fill="#e0e0e0" stroke="#999999" points="3822.75,-26 3725,-26 3725,-6 3822.75,-6 3822.75,-26"/>
<text text-anchor="middle" x="3773.88" y="-12.5" font-family="Helvetica,sans-Serif" font-size="10.00">javafx.stage.Stage</text>
</a>
</g>
</g>
<!-- Node1&#45;&gt;Node26 -->
<g id="edge25_Node000001_Node000026" class="edge">
<title>Node1&#45;&gt;Node26</title>
<g id="a_edge25_Node000001_Node000026"><a xlink:title=" ">
<path fill="none" stroke="#63b8ff" d="M2075.95,-88.67C2374.67,-87.11 3393.62,-78.42 3715.88,-32 3720.93,-31.27 3726.19,-30.27 3731.38,-29.13"/>
<polygon fill="#63b8ff" stroke="#63b8ff" points="3732.15,-32.54 3741.05,-26.8 3730.51,-25.73 3732.15,-32.54"/>
</a>
</g>
</g>
</g>
</svg>
