<?xml version="1.0" encoding="UTF-8" standalone="no"?>
<!DOCTYPE svg PUBLIC "-//W3C//DTD SVG 1.1//EN"
 "http://www.w3.org/Graphics/SVG/1.1/DTD/svg11.dtd">
<!-- Generated by graphviz version 12.2.1 (20241206.2353)
 -->
<!-- Title: src/main/java/com/hust/ittnk68/cnpm/controller/ClientSceneController.java Pages: 1 -->
<svg width="8949pt" height="120pt"
 viewBox="0.00 0.00 8948.88 120.00" xmlns="http://www.w3.org/2000/svg" xmlns:xlink="http://www.w3.org/1999/xlink">
<g id="graph0" class="graph" transform="scale(1 1) rotate(0) translate(4 116)">
<title>src/main/java/com/hust/ittnk68/cnpm/controller/ClientSceneController.java</title>
<!-- Node1 -->
<g id="Node000001" class="node">
<title>Node1</title>
<g id="a_Node000001"><a xlink:title=" ">
<polygon fill="#999999" stroke="#666666" points="4525.25,-112 4390.75,-112 4390.75,-68 4525.25,-68 4525.25,-112"/>
<text text-anchor="start" x="4398.75" y="-98.5" font-family="Helvetica,sans-Serif" font-size="10.00">src/main/java/com/hust</text>
<text text-anchor="start" x="4398.75" y="-86.5" font-family="Helvetica,sans-Serif" font-size="10.00">/ittnk68/cnpm/controller</text>
<text text-anchor="middle" x="4458" y="-74.5" font-family="Helvetica,sans-Serif" font-size="10.00">/ClientSceneController.java</text>
</a>
</g>
</g>
<!-- Node2 -->
<g id="Node000002" class="node">
<title>Node2</title>
<g id="a_Node000002"><a xlink:title=" ">
<polygon fill="#e0e0e0" stroke="#999999" points="148,-32 0,-32 0,0 148,0 148,-32"/>
<text text-anchor="start" x="8" y="-18.5" font-family="Helvetica,sans-Serif" font-size="10.00">com.hust.ittnk68.cnpm.model.</text>
<text text-anchor="middle" x="74" y="-6.5" font-family="Helvetica,sans-Serif" font-size="10.00">ClientModel</text>
</a>
</g>
</g>
<!-- Node1&#45;&gt;Node2 -->
<g id="edge1_Node000001_Node000002" class="edge">
<title>Node1&#45;&gt;Node2</title>
<g id="a_edge1_Node000001_Node000002"><a xlink:title=" ">
<path fill="none" stroke="#63b8ff" d="M4390.56,-88.78C3881.4,-87.04 648.03,-74.43 159.49,-32.06"/>
<polygon fill="#63b8ff" stroke="#63b8ff" points="159.91,-28.59 149.63,-31.16 159.27,-35.56 159.91,-28.59"/>
</a>
</g>
</g>
<!-- Node3 -->
<g id="Node000003" class="node">
<title>Node3</title>
<g id="a_Node000003"><a xlink:title=" ">
<polygon fill="#e0e0e0" stroke="#999999" points="314,-32 166,-32 166,0 314,0 314,-32"/>
<text text-anchor="start" x="174" y="-18.5" font-family="Helvetica,sans-Serif" font-size="10.00">com.hust.ittnk68.cnpm.model.</text>
<text text-anchor="middle" x="240" y="-6.5" font-family="Helvetica,sans-Serif" font-size="10.00">CreateAccountModel</text>
</a>
</g>
</g>
<!-- Node1&#45;&gt;Node3 -->
<g id="edge2_Node000001_Node000003" class="edge">
<title>Node1&#45;&gt;Node3</title>
<g id="a_edge2_Node000001_Node000003"><a xlink:title=" ">
<path fill="none" stroke="#63b8ff" d="M4390.39,-88.74C3892.15,-86.75 795.64,-72.86 325.38,-32.05"/>
<polygon fill="#63b8ff" stroke="#63b8ff" points="325.91,-28.59 315.63,-31.16 325.27,-35.56 325.91,-28.59"/>
</a>
</g>
</g>
<!-- Node4 -->
<g id="Node000004" class="node">
<title>Node4</title>
<g id="a_Node000004"><a xlink:title=" ">
<polygon fill="#e0e0e0" stroke="#999999" points="480,-32 332,-32 332,0 480,0 480,-32"/>
<text text-anchor="start" x="340" y="-18.5" font-family="Helvetica,sans-Serif" font-size="10.00">com.hust.ittnk68.cnpm.model.</text>
<text text-anchor="middle" x="406" y="-6.5" font-family="Helvetica,sans-Serif" font-size="10.00">CreateExpenseModel</text>
</a>
</g>
</g>
<!-- Node1&#45;&gt;Node4 -->
<g id="edge3_Node000001_Node000004" class="edge">
<title>Node1&#45;&gt;Node4</title>
<g id="a_edge3_Node000001_Node000004"><a xlink:title=" ">
<path fill="none" stroke="#63b8ff" d="M4390.39,-88.7C3903.97,-86.46 944.65,-71.31 491.58,-32.07"/>
<polygon fill="#63b8ff" stroke="#63b8ff" points="491.91,-28.58 481.63,-31.16 491.27,-35.56 491.91,-28.58"/>
</a>
</g>
</g>
<!-- Node5 -->
<g id="Node000005" class="node">
<title>Node5</title>
<g id="a_Node000005"><a xlink:title=" ">
<polygon fill="#e0e0e0" stroke="#999999" points="646,-32 498,-32 498,0 646,0 646,-32"/>
<text text-anchor="start" x="506" y="-18.5" font-family="Helvetica,sans-Serif" font-size="10.00">com.hust.ittnk68.cnpm.model.</text>
<text text-anchor="middle" x="572" y="-6.5" font-family="Helvetica,sans-Serif" font-size="10.00">CreateFamilyModel</text>
</a>
</g>
</g>
<!-- Node1&#45;&gt;Node5 -->
<g id="edge4_Node000001_Node000005" class="edge">
<title>Node1&#45;&gt;Node5</title>
<g id="a_edge4_Node000001_Node000005"><a xlink:title=" ">
<path fill="none" stroke="#63b8ff" d="M4390.57,-88.66C3916.61,-86.15 1092.09,-69.76 657.42,-32.05"/>
<polygon fill="#63b8ff" stroke="#63b8ff" points="657.91,-28.58 647.63,-31.16 657.27,-35.56 657.91,-28.58"/>
</a>
</g>
</g>
<!-- Node6 -->
<g id="Node000006" class="node">
<title>Node6</title>
<g id="a_Node000006"><a xlink:title=" ">
<polygon fill="#e0e0e0" stroke="#999999" points="812,-32 664,-32 664,0 812,0 812,-32"/>
<text text-anchor="start" x="672" y="-18.5" font-family="Helvetica,sans-Serif" font-size="10.00">com.hust.ittnk68.cnpm.model.</text>
<text text-anchor="middle" x="738" y="-6.5" font-family="Helvetica,sans-Serif" font-size="10.00">CreatePaymentStatusModel</text>
</a>
</g>
</g>
<!-- Node1&#45;&gt;Node6 -->
<g id="edge5_Node000001_Node000006" class="edge">
<title>Node1&#45;&gt;Node6</title>
<g id="a_edge5_Node000001_Node000006"><a xlink:title=" ">
<path fill="none" stroke="#63b8ff" d="M4390.56,-88.61C3928.85,-85.82 1240.67,-68.21 823.52,-32.06"/>
<polygon fill="#63b8ff" stroke="#63b8ff" points="823.91,-28.58 813.64,-31.15 823.27,-35.55 823.91,-28.58"/>
</a>
</g>
</g>
<!-- Node7 -->
<g id="Node000007" class="node">
<title>Node7</title>
<g id="a_Node000007"><a xlink:title=" ">
<polygon fill="#e0e0e0" stroke="#999999" points="978,-32 830,-32 830,0 978,0 978,-32"/>
<text text-anchor="start" x="838" y="-18.5" font-family="Helvetica,sans-Serif" font-size="10.00">com.hust.ittnk68.cnpm.model.</text>
<text text-anchor="middle" x="904" y="-6.5" font-family="Helvetica,sans-Serif" font-size="10.00">CreatePersonModel</text>
</a>
</g>
</g>
<!-- Node1&#45;&gt;Node7 -->
<g id="edge6_Node000001_Node000007" class="edge">
<title>Node1&#45;&gt;Node7</title>
<g id="a_edge6_Node000001_Node000007"><a xlink:title=" ">
<path fill="none" stroke="#63b8ff" d="M4390.39,-88.55C3940.77,-85.48 1388.96,-66.67 989.58,-32.07"/>
<polygon fill="#63b8ff" stroke="#63b8ff" points="989.91,-28.58 979.64,-31.15 989.27,-35.55 989.91,-28.58"/>
</a>
</g>
</g>
<!-- Node8 -->
<g id="Node000008" class="node">
<title>Node8</title>
<g id="a_Node000008"><a xlink:title=" ">
<polygon fill="#e0e0e0" stroke="#999999" points="1144,-32 996,-32 996,0 1144,0 1144,-32"/>
<text text-anchor="start" x="1004" y="-18.5" font-family="Helvetica,sans-Serif" font-size="10.00">com.hust.ittnk68.cnpm.model.</text>
<text text-anchor="middle" x="1070" y="-6.5" font-family="Helvetica,sans-Serif" font-size="10.00">FindAccountModel</text>
</a>
</g>
</g>
<!-- Node1&#45;&gt;Node8 -->
<g id="edge7_Node000001_Node000008" class="edge">
<title>Node1&#45;&gt;Node8</title>
<g id="a_edge7_Node000001_Node000008"><a xlink:title=" ">
<path fill="none" stroke="#63b8ff" d="M4390.46,-88.49C3953.9,-85.12 1537.09,-65.13 1155.58,-32.07"/>
<polygon fill="#63b8ff" stroke="#63b8ff" points="1155.92,-28.58 1145.64,-31.15 1155.27,-35.55 1155.92,-28.58"/>
</a>
</g>
</g>
<!-- Node9 -->
<g id="Node000009" class="node">
<title>Node9</title>
<g id="a_Node000009"><a xlink:title=" ">
<polygon fill="#e0e0e0" stroke="#999999" points="1310,-32 1162,-32 1162,0 1310,0 1310,-32"/>
<text text-anchor="start" x="1170" y="-18.5" font-family="Helvetica,sans-Serif" font-size="10.00">com.hust.ittnk68.cnpm.model.</text>
<text text-anchor="middle" x="1236" y="-6.5" font-family="Helvetica,sans-Serif" font-size="10.00">FindExpenseModel</text>
</a>
</g>
</g>
<!-- Node1&#45;&gt;Node9 -->
<g id="edge8_Node000001_Node000009" class="edge">
<title>Node1&#45;&gt;Node9</title>
<g id="a_edge8_Node000001_Node000009"><a xlink:title=" ">
<path fill="none" stroke="#63b8ff" d="M4390.35,-89.25C3994,-90.5 1968.57,-93.77 1321.43,-32.1"/>
<polygon fill="#63b8ff" stroke="#63b8ff" points="1321.93,-28.63 1311.64,-31.15 1321.25,-35.6 1321.93,-28.63"/>
</a>
</g>
</g>
<!-- Node10 -->
<g id="Node000010" class="node">
<title>Node10</title>
<g id="a_Node000010"><a xlink:title=" ">
<polygon fill="#e0e0e0" stroke="#999999" points="1476,-32 1328,-32 1328,0 1476,0 1476,-32"/>
<text text-anchor="start" x="1336" y="-18.5" font-family="Helvetica,sans-Serif" font-size="10.00">com.hust.ittnk68.cnpm.model.</text>
<text text-anchor="middle" x="1402" y="-6.5" font-family="Helvetica,sans-Serif" font-size="10.00">FindFamilyModel</text>
</a>
</g>
</g>
<!-- Node1&#45;&gt;Node10 -->
<g id="edge9_Node000001_Node000010" class="edge">
<title>Node1&#45;&gt;Node10</title>
<g id="a_edge9_Node000001_Node000010"><a xlink:title=" ">
<path fill="none" stroke="#63b8ff" d="M4390.51,-89.17C4007.13,-89.92 2099.26,-90.66 1487.26,-32.09"/>
<polygon fill="#63b8ff" stroke="#63b8ff" points="1487.93,-28.64 1477.64,-31.15 1487.25,-35.6 1487.93,-28.64"/>
</a>
</g>
</g>
<!-- Node11 -->
<g id="Node000011" class="node">
<title>Node11</title>
<g id="a_Node000011"><a xlink:title=" ">
<polygon fill="#e0e0e0" stroke="#999999" points="1642,-32 1494,-32 1494,0 1642,0 1642,-32"/>
<text text-anchor="start" x="1502" y="-18.5" font-family="Helvetica,sans-Serif" font-size="10.00">com.hust.ittnk68.cnpm.model.</text>
<text text-anchor="middle" x="1568" y="-6.5" font-family="Helvetica,sans-Serif" font-size="10.00">FindPaymentStatusModel</text>
</a>
</g>
</g>
<!-- Node1&#45;&gt;Node11 -->
<g id="edge10_Node000001_Node000011" class="edge">
<title>Node1&#45;&gt;Node11</title>
<g id="a_edge10_Node000001_Node000011"><a xlink:title=" ">
<path fill="none" stroke="#63b8ff" d="M4390.36,-89.08C4019.69,-89.31 2230.6,-87.54 1653.46,-32.11"/>
<polygon fill="#63b8ff" stroke="#63b8ff" points="1653.93,-28.64 1643.64,-31.15 1653.25,-35.6 1653.93,-28.64"/>
</a>
</g>
</g>
<!-- Node12 -->
<g id="Node000012" class="node">
<title>Node12</title>
<g id="a_Node000012"><a xlink:title=" ">
<polygon fill="#e0e0e0" stroke="#999999" points="1808,-32 1660,-32 1660,0 1808,0 1808,-32"/>
<text text-anchor="start" x="1668" y="-18.5" font-family="Helvetica,sans-Serif" font-size="10.00">com.hust.ittnk68.cnpm.model.</text>
<text text-anchor="middle" x="1734" y="-6.5" font-family="Helvetica,sans-Serif" font-size="10.00">FindPersonModel</text>
</a>
</g>
</g>
<!-- Node1&#45;&gt;Node12 -->
<g id="edge11_Node000001_Node000012" class="edge">
<title>Node1&#45;&gt;Node12</title>
<g id="a_edge11_Node000001_Node000012"><a xlink:title=" ">
<path fill="none" stroke="#63b8ff" d="M4390.28,-88.98C4032.85,-88.67 2361.81,-84.42 1819.56,-32.12"/>
<polygon fill="#63b8ff" stroke="#63b8ff" points="1819.93,-28.64 1809.64,-31.14 1819.24,-35.61 1819.93,-28.64"/>
</a>
</g>
</g>
<!-- Node13 -->
<g id="Node000013" class="node">
<title>Node13</title>
<g id="a_Node000013"><a xlink:title=" ">
<polygon fill="#e0e0e0" stroke="#999999" points="1974,-32 1826,-32 1826,0 1974,0 1974,-32"/>
<text text-anchor="start" x="1834" y="-18.5" font-family="Helvetica,sans-Serif" font-size="10.00">com.hust.ittnk68.cnpm.model.</text>
<text text-anchor="middle" x="1900" y="-6.5" font-family="Helvetica,sans-Serif" font-size="10.00">UpdateAccountModel</text>
</a>
</g>
</g>
<!-- Node1&#45;&gt;Node13 -->
<g id="edge12_Node000001_Node000013" class="edge">
<title>Node1&#45;&gt;Node13</title>
<g id="a_edge12_Node000001_Node000013"><a xlink:title=" ">
<path fill="none" stroke="#63b8ff" d="M4390.32,-88.87C4046.79,-87.98 2492.92,-81.33 1985.55,-32.12"/>
<polygon fill="#63b8ff" stroke="#63b8ff" points="1985.93,-28.64 1975.64,-31.14 1985.24,-35.61 1985.93,-28.64"/>
</a>
</g>
</g>
<!-- Node14 -->
<g id="Node000014" class="node">
<title>Node14</title>
<g id="a_Node000014"><a xlink:title=" ">
<polygon fill="#e0e0e0" stroke="#999999" points="2140,-32 1992,-32 1992,0 2140,0 2140,-32"/>
<text text-anchor="start" x="2000" y="-18.5" font-family="Helvetica,sans-Serif" font-size="10.00">com.hust.ittnk68.cnpm.model.</text>
<text text-anchor="middle" x="2066" y="-6.5" font-family="Helvetica,sans-Serif" font-size="10.00">UpdateExpenseModel</text>
</a>
</g>
</g>
<!-- Node1&#45;&gt;Node14 -->
<g id="edge13_Node000001_Node000014" class="edge">
<title>Node1&#45;&gt;Node14</title>
<g id="a_edge13_Node000001_Node000014"><a xlink:title=" ">
<path fill="none" stroke="#63b8ff" d="M4390.26,-88.74C4060.89,-87.25 2623.82,-78.23 2151.45,-32.11"/>
<polygon fill="#63b8ff" stroke="#63b8ff" points="2151.94,-28.64 2141.64,-31.13 2151.24,-35.61 2151.94,-28.64"/>
</a>
</g>
</g>
<!-- Node15 -->
<g id="Node000015" class="node">
<title>Node15</title>
<g id="a_Node000015"><a xlink:title=" ">
<polygon fill="#e0e0e0" stroke="#999999" points="2306,-32 2158,-32 2158,0 2306,0 2306,-32"/>
<text text-anchor="start" x="2166" y="-18.5" font-family="Helvetica,sans-Serif" font-size="10.00">com.hust.ittnk68.cnpm.model.</text>
<text text-anchor="middle" x="2232" y="-6.5" font-family="Helvetica,sans-Serif" font-size="10.00">UpdateFamilyModel</text>
</a>
</g>
</g>
<!-- Node1&#45;&gt;Node15 -->
<g id="edge14_Node000001_Node000015" class="edge">
<title>Node1&#45;&gt;Node15</title>
<g id="a_edge14_Node000001_Node000015"><a xlink:title=" ">
<path fill="none" stroke="#63b8ff" d="M4390.45,-88.59C4076.31,-86.46 2755.35,-75.16 2317.57,-32.13"/>
<polygon fill="#63b8ff" stroke="#63b8ff" points="2317.94,-28.65 2307.64,-31.13 2317.24,-35.61 2317.94,-28.65"/>
</a>
</g>
</g>
<!-- Node16 -->
<g id="Node000016" class="node">
<title>Node16</title>
<g id="a_Node000016"><a xlink:title=" ">
<polygon fill="#e0e0e0" stroke="#999999" points="2472,-32 2324,-32 2324,0 2472,0 2472,-32"/>
<text text-anchor="start" x="2332" y="-18.5" font-family="Helvetica,sans-Serif" font-size="10.00">com.hust.ittnk68.cnpm.model.</text>
<text text-anchor="middle" x="2398" y="-6.5" font-family="Helvetica,sans-Serif" font-size="10.00">UpdatePaymentStatusModel</text>
</a>
</g>
</g>
<!-- Node1&#45;&gt;Node16 -->
<g id="edge15_Node000001_Node000016" class="edge">
<title>Node1&#45;&gt;Node16</title>
<g id="a_edge15_Node000001_Node000016"><a xlink:title=" ">
<path fill="none" stroke="#63b8ff" d="M4390.48,-88.41C4091.77,-85.61 2886.55,-72.09 2483.53,-32.13"/>
<polygon fill="#63b8ff" stroke="#63b8ff" points="2483.94,-28.65 2473.64,-31.12 2483.23,-35.61 2483.94,-28.65"/>
</a>
</g>
</g>
<!-- Node17 -->
<g id="Node000017" class="node">
<title>Node17</title>
<g id="a_Node000017"><a xlink:title=" ">
<polygon fill="#e0e0e0" stroke="#999999" points="2638,-32 2490,-32 2490,0 2638,0 2638,-32"/>
<text text-anchor="start" x="2498" y="-18.5" font-family="Helvetica,sans-Serif" font-size="10.00">com.hust.ittnk68.cnpm.model.</text>
<text text-anchor="middle" x="2564" y="-6.5" font-family="Helvetica,sans-Serif" font-size="10.00">UpdatePersonModel</text>
</a>
</g>
</g>
<!-- Node1&#45;&gt;Node17 -->
<g id="edge16_Node000001_Node000017" class="edge">
<title>Node1&#45;&gt;Node17</title>
<g id="a_edge16_Node000001_Node000017"><a xlink:title=" ">
<path fill="none" stroke="#63b8ff" d="M4390.48,-88.21C4107.8,-84.69 3017.5,-69.03 2649.34,-32.11"/>
<polygon fill="#63b8ff" stroke="#63b8ff" points="2649.95,-28.65 2639.64,-31.11 2649.23,-35.62 2649.95,-28.65"/>
</a>
</g>
</g>
<!-- Node18 -->
<g id="Node000018" class="node">
<title>Node18</title>
<g id="a_Node000018"><a xlink:title=" ">
<polygon fill="#e0e0e0" stroke="#999999" points="2796.25,-32 2655.75,-32 2655.75,0 2796.25,0 2796.25,-32"/>
<text text-anchor="start" x="2663.75" y="-18.5" font-family="Helvetica,sans-Serif" font-size="10.00">com.hust.ittnk68.cnpm.type.</text>
<text text-anchor="middle" x="2726" y="-6.5" font-family="Helvetica,sans-Serif" font-size="10.00">AccountType</text>
</a>
</g>
</g>
<!-- Node1&#45;&gt;Node18 -->
<g id="edge17_Node000001_Node000018" class="edge">
<title>Node1&#45;&gt;Node18</title>
<g id="a_edge17_Node000001_Node000018"><a xlink:title=" ">
<path fill="none" stroke="#63b8ff" d="M4390.57,-88.03C4124.11,-84 3143.21,-67.13 2807.76,-32.03"/>
<polygon fill="#63b8ff" stroke="#63b8ff" points="2808.41,-28.58 2798.09,-30.99 2807.66,-35.54 2808.41,-28.58"/>
</a>
</g>
</g>
<!-- Node19 -->
<g id="Node000019" class="node">
<title>Node19</title>
<g id="a_Node000019"><a xlink:title=" ">
<polygon fill="#e0e0e0" stroke="#999999" points="2955.25,-32 2814.75,-32 2814.75,0 2955.25,0 2955.25,-32"/>
<text text-anchor="start" x="2822.75" y="-18.5" font-family="Helvetica,sans-Serif" font-size="10.00">com.hust.ittnk68.cnpm.type.</text>
<text text-anchor="middle" x="2885" y="-6.5" font-family="Helvetica,sans-Serif" font-size="10.00">ResponseStatus</text>
</a>
</g>
</g>
<!-- Node1&#45;&gt;Node19 -->
<g id="edge18_Node000001_Node000019" class="edge">
<title>Node1&#45;&gt;Node19</title>
<g id="a_edge18_Node000001_Node000019"><a xlink:title=" ">
<path fill="none" stroke="#63b8ff" d="M4390.66,-87.77C4141.17,-83.01 3268.79,-64.48 2966.92,-32.19"/>
<polygon fill="#63b8ff" stroke="#63b8ff" points="2967.38,-28.72 2957.06,-31.1 2966.62,-35.68 2967.38,-28.72"/>
</a>
</g>
</g>
<!-- Node20 -->
<g id="Node000020" class="node">
<title>Node20</title>
<g id="a_Node000020"><a xlink:title=" ">
<polygon fill="#e0e0e0" stroke="#999999" points="3091,-32 2973,-32 2973,0 3091,0 3091,-32"/>
<text text-anchor="start" x="2981" y="-18.5" font-family="Helvetica,sans-Serif" font-size="10.00">atlantafx.base.controls.</text>
<text text-anchor="middle" x="3032" y="-6.5" font-family="Helvetica,sans-Serif" font-size="10.00">Notification</text>
</a>
</g>
</g>
<!-- Node1&#45;&gt;Node20 -->
<g id="edge19_Node000001_Node000020" class="edge">
<title>Node1&#45;&gt;Node20</title>
<g id="a_edge19_Node000001_Node000020"><a xlink:title=" ">
<path fill="none" stroke="#63b8ff" d="M4390.32,-87.73C4155.44,-83.08 3375.47,-65.54 3102.29,-32.11"/>
<polygon fill="#63b8ff" stroke="#63b8ff" points="3103.09,-28.68 3092.73,-30.9 3102.21,-35.62 3103.09,-28.68"/>
</a>
</g>
</g>
<!-- Node21 -->
<g id="Node000021" class="node">
<title>Node21</title>
<g id="a_Node000021"><a xlink:title=" ">
<polygon fill="#e0e0e0" stroke="#999999" points="3247.12,-26 3108.88,-26 3108.88,-6 3247.12,-6 3247.12,-26"/>
<text text-anchor="middle" x="3178" y="-12.5" font-family="Helvetica,sans-Serif" font-size="10.00">atlantafx.base.theme.Styles</text>
</a>
</g>
</g>
<!-- Node1&#45;&gt;Node21 -->
<g id="edge20_Node000001_Node000021" class="edge">
<title>Node1&#45;&gt;Node21</title>
<g id="a_edge20_Node000001_Node000021"><a xlink:title=" ">
<path fill="none" stroke="#63b8ff" d="M4390.28,-89.16C4206.91,-88.88 3685.67,-83.24 3256,-32 3248.28,-31.08 3240.17,-29.84 3232.22,-28.46"/>
<polygon fill="#63b8ff" stroke="#63b8ff" points="3233.1,-25.06 3222.64,-26.71 3231.85,-31.95 3233.1,-25.06"/>
</a>
</g>
</g>
<!-- Node22 -->
<g id="Node000022" class="node">
<title>Node22</title>
<g id="a_Node000022"><a xlink:title=" ">
<polygon fill="#e0e0e0" stroke="#999999" points="3410.5,-26 3265.5,-26 3265.5,-6 3410.5,-6 3410.5,-26"/>
<text text-anchor="middle" x="3338" y="-12.5" font-family="Helvetica,sans-Serif" font-size="10.00">atlantafx.base.util.Animations</text>
</a>
</g>
</g>
<!-- Node1&#45;&gt;Node22 -->
<g id="edge21_Node000001_Node000022" class="edge">
<title>Node1&#45;&gt;Node22</title>
<g id="a_edge21_Node000001_Node000022"><a xlink:title=" ">
<path fill="none" stroke="#63b8ff" d="M4390.28,-88.29C4224.18,-85.89 3783.58,-75.58 3419,-32 3410.99,-31.04 3402.59,-29.78 3394.34,-28.39"/>
<polygon fill="#63b8ff" stroke="#63b8ff" points="3395.2,-24.99 3384.74,-26.7 3393.99,-31.88 3395.2,-24.99"/>
</a>
</g>
</g>
<!-- Node23 -->
<g id="Node000023" class="node">
<title>Node23</title>
<g id="a_Node000023"><a xlink:title=" ">
<polygon fill="#e0e0e0" stroke="#999999" points="3555.88,-32 3428.12,-32 3428.12,0 3555.88,0 3555.88,-32"/>
<text text-anchor="start" x="3436.12" y="-18.5" font-family="Helvetica,sans-Serif" font-size="10.00">org.kordamp.ikonli.javafx.</text>
<text text-anchor="middle" x="3492" y="-6.5" font-family="Helvetica,sans-Serif" font-size="10.00">FontIcon</text>
</a>
</g>
</g>
<!-- Node1&#45;&gt;Node23 -->
<g id="edge22_Node000001_Node000023" class="edge">
<title>Node1&#45;&gt;Node23</title>
<g id="a_edge22_Node000001_Node000023"><a xlink:title=" ">
<path fill="none" stroke="#63b8ff" d="M4390.47,-87.89C4242.81,-84.76 3880.04,-73.33 3567.12,-32.15"/>
<polygon fill="#63b8ff" stroke="#63b8ff" points="3567.88,-28.72 3557.51,-30.88 3566.96,-35.66 3567.88,-28.72"/>
</a>
</g>
</g>
<!-- Node24 -->
<g id="Node000024" class="node">
<title>Node24</title>
<g id="a_Node000024"><a xlink:title=" ">
<polygon fill="#e0e0e0" stroke="#999999" points="3728.38,-32 3573.62,-32 3573.62,0 3728.38,0 3728.38,-32"/>
<text text-anchor="start" x="3581.62" y="-18.5" font-family="Helvetica,sans-Serif" font-size="10.00">org.springframework.web.client.</text>
<text text-anchor="middle" x="3651" y="-6.5" font-family="Helvetica,sans-Serif" font-size="10.00">RestClient</text>
</a>
</g>
</g>
<!-- Node1&#45;&gt;Node24 -->
<g id="edge23_Node000001_Node000024" class="edge">
<title>Node1&#45;&gt;Node24</title>
<g id="a_edge23_Node000001_Node000024"><a xlink:title=" ">
<path fill="none" stroke="#63b8ff" d="M4390.69,-85.79C4264.83,-79.33 3985.12,-62.8 3740.04,-32.32"/>
<polygon fill="#63b8ff" stroke="#63b8ff" points="3740.63,-28.86 3730.27,-31.09 3739.75,-35.81 3740.63,-28.86"/>
</a>
</g>
</g>
<!-- Node25 -->
<g id="Node000025" class="node">
<title>Node25</title>
<g id="a_Node000025"><a xlink:title=" ">
<polygon fill="#e0e0e0" stroke="#999999" points="3933.88,-32 3746.12,-32 3746.12,0 3933.88,0 3933.88,-32"/>
<text text-anchor="start" x="3754.12" y="-18.5" font-family="Helvetica,sans-Serif" font-size="10.00">com.hust.ittnk68.cnpm.communication.</text>
<text text-anchor="middle" x="3840" y="-6.5" font-family="Helvetica,sans-Serif" font-size="10.00">AdminCreateObject</text>
</a>
</g>
</g>
<!-- Node1&#45;&gt;Node25 -->
<g id="edge24_Node000001_Node000025" class="edge">
<title>Node1&#45;&gt;Node25</title>
<g id="a_edge24_Node000001_Node000025"><a xlink:title=" ">
<path fill="none" stroke="#63b8ff" d="M4390.43,-82.27C4294.13,-72.51 4111.6,-53.4 3945.69,-32.32"/>
<polygon fill="#63b8ff" stroke="#63b8ff" points="3946.15,-28.85 3935.78,-31.05 3945.26,-35.79 3946.15,-28.85"/>
</a>
</g>
</g>
<!-- Node26 -->
<g id="Node000026" class="node">
<title>Node26</title>
<g id="a_Node000026"><a xlink:title=" ">
<polygon fill="#e0e0e0" stroke="#999999" points="4139.88,-32 3952.12,-32 3952.12,0 4139.88,0 4139.88,-32"/>
<text text-anchor="start" x="3960.12" y="-18.5" font-family="Helvetica,sans-Serif" font-size="10.00">com.hust.ittnk68.cnpm.communication.</text>
<text text-anchor="middle" x="4046" y="-6.5" font-family="Helvetica,sans-Serif" font-size="10.00">AdminDeleteObject</text>
</a>
</g>
</g>
<!-- Node1&#45;&gt;Node26 -->
<g id="edge25_Node000001_Node000026" class="edge">
<title>Node1&#45;&gt;Node26</title>
<g id="a_edge25_Node000001_Node000026"><a xlink:title=" ">
<path fill="none" stroke="#63b8ff" d="M4390.43,-77.19C4323.85,-65.56 4221.36,-47.64 4145.47,-34.38"/>
<polygon fill="#63b8ff" stroke="#63b8ff" points="4146.42,-31 4135.97,-32.72 4145.22,-37.89 4146.42,-31"/>
</a>
</g>
</g>
<!-- Node27 -->
<g id="Node000027" class="node">
<title>Node27</title>
<g id="a_Node000027"><a xlink:title=" ">
<polygon fill="#e0e0e0" stroke="#999999" points="4345.88,-32 4158.12,-32 4158.12,0 4345.88,0 4345.88,-32"/>
<text text-anchor="start" x="4166.12" y="-18.5" font-family="Helvetica,sans-Serif" font-size="10.00">com.hust.ittnk68.cnpm.communication.</text>
<text text-anchor="middle" x="4252" y="-6.5" font-family="Helvetica,sans-Serif" font-size="10.00">AdminFindObject</text>
</a>
</g>
</g>
<!-- Node1&#45;&gt;Node27 -->
<g id="edge26_Node000001_Node000027" class="edge">
<title>Node1&#45;&gt;Node27</title>
<g id="a_edge26_Node000001_Node000027"><a xlink:title=" ">
<path fill="none" stroke="#63b8ff" d="M4396.75,-67.59C4368.27,-57.64 4334.67,-45.89 4307.01,-36.23"/>
<polygon fill="#63b8ff" stroke="#63b8ff" points="4308.36,-32.99 4297.76,-32.99 4306.05,-39.6 4308.36,-32.99"/>
</a>
</g>
</g>
<!-- Node28 -->
<g id="Node000028" class="node">
<title>Node28</title>
<g id="a_Node000028"><a xlink:title=" ">
<polygon fill="#e0e0e0" stroke="#999999" points="4551.88,-32 4364.12,-32 4364.12,0 4551.88,0 4551.88,-32"/>
<text text-anchor="start" x="4372.12" y="-18.5" font-family="Helvetica,sans-Serif" font-size="10.00">com.hust.ittnk68.cnpm.communication.</text>
<text text-anchor="middle" x="4458" y="-6.5" font-family="Helvetica,sans-Serif" font-size="10.00">AdminUpdateObject</text>
</a>
</g>
</g>
<!-- Node1&#45;&gt;Node28 -->
<g id="edge27_Node000001_Node000028" class="edge">
<title>Node1&#45;&gt;Node28</title>
<g id="a_edge27_Node000001_Node000028"><a xlink:title=" ">
<path fill="none" stroke="#63b8ff" d="M4458,-67.79C4458,-60.18 4458,-51.52 4458,-43.52"/>
<polygon fill="#63b8ff" stroke="#63b8ff" points="4461.5,-43.64 4458,-33.64 4454.5,-43.64 4461.5,-43.64"/>
</a>
</g>
</g>
<!-- Node29 -->
<g id="Node000029" class="node">
<title>Node29</title>
<g id="a_Node000029"><a xlink:title=" ">
<polygon fill="#e0e0e0" stroke="#999999" points="4757.88,-32 4570.12,-32 4570.12,0 4757.88,0 4757.88,-32"/>
<text text-anchor="start" x="4578.12" y="-18.5" font-family="Helvetica,sans-Serif" font-size="10.00">com.hust.ittnk68.cnpm.communication.</text>
<text text-anchor="middle" x="4664" y="-6.5" font-family="Helvetica,sans-Serif" font-size="10.00">ApiMapping</text>
</a>
</g>
</g>
<!-- Node1&#45;&gt;Node29 -->
<g id="edge28_Node000001_Node000029" class="edge">
<title>Node1&#45;&gt;Node29</title>
<g id="a_edge28_Node000001_Node000029"><a xlink:title=" ">
<path fill="none" stroke="#63b8ff" d="M4519.25,-67.59C4547.73,-57.64 4581.33,-45.89 4608.99,-36.23"/>
<polygon fill="#63b8ff" stroke="#63b8ff" points="4609.95,-39.6 4618.24,-32.99 4607.64,-32.99 4609.95,-39.6"/>
</a>
</g>
</g>
<!-- Node30 -->
<g id="Node000030" class="node">
<title>Node30</title>
<g id="a_Node000030"><a xlink:title=" ">
<polygon fill="#e0e0e0" stroke="#999999" points="4963.88,-32 4776.12,-32 4776.12,0 4963.88,0 4963.88,-32"/>
<text text-anchor="start" x="4784.12" y="-18.5" font-family="Helvetica,sans-Serif" font-size="10.00">com.hust.ittnk68.cnpm.communication.</text>
<text text-anchor="middle" x="4870" y="-6.5" font-family="Helvetica,sans-Serif" font-size="10.00">ClientMessageStartSession</text>
</a>
</g>
</g>
<!-- Node1&#45;&gt;Node30 -->
<g id="edge29_Node000001_Node000030" class="edge">
<title>Node1&#45;&gt;Node30</title>
<g id="a_edge29_Node000001_Node000030"><a xlink:title=" ">
<path fill="none" stroke="#63b8ff" d="M4525.57,-77.19C4592.15,-65.56 4694.64,-47.64 4770.53,-34.38"/>
<polygon fill="#63b8ff" stroke="#63b8ff" points="4770.78,-37.89 4780.03,-32.72 4769.58,-31 4770.78,-37.89"/>
</a>
</g>
</g>
<!-- Node31 -->
<g id="Node000031" class="node">
<title>Node31</title>
<g id="a_Node000031"><a xlink:title=" ">
<polygon fill="#e0e0e0" stroke="#999999" points="5169.88,-32 4982.12,-32 4982.12,0 5169.88,0 5169.88,-32"/>
<text text-anchor="start" x="4990.12" y="-18.5" font-family="Helvetica,sans-Serif" font-size="10.00">com.hust.ittnk68.cnpm.communication.</text>
<text text-anchor="middle" x="5076" y="-6.5" font-family="Helvetica,sans-Serif" font-size="10.00">ServerCreateObjectResponse</text>
</a>
</g>
</g>
<!-- Node1&#45;&gt;Node31 -->
<g id="edge30_Node000001_Node000031" class="edge">
<title>Node1&#45;&gt;Node31</title>
<g id="a_edge30_Node000001_Node000031"><a xlink:title=" ">
<path fill="none" stroke="#63b8ff" d="M4525.57,-82.27C4621.87,-72.51 4804.4,-53.4 4970.31,-32.32"/>
<polygon fill="#63b8ff" stroke="#63b8ff" points="4970.74,-35.79 4980.22,-31.05 4969.85,-28.85 4970.74,-35.79"/>
</a>
</g>
</g>
<!-- Node32 -->
<g id="Node000032" class="node">
<title>Node32</title>
<g id="a_Node000032"><a xlink:title=" ">
<polygon fill="#e0e0e0" stroke="#999999" points="5375.88,-32 5188.12,-32 5188.12,0 5375.88,0 5375.88,-32"/>
<text text-anchor="start" x="5196.12" y="-18.5" font-family="Helvetica,sans-Serif" font-size="10.00">com.hust.ittnk68.cnpm.communication.</text>
<text text-anchor="middle" x="5282" y="-6.5" font-family="Helvetica,sans-Serif" font-size="10.00">ServerDeleteObjectResponse</text>
</a>
</g>
</g>
<!-- Node1&#45;&gt;Node32 -->
<g id="edge31_Node000001_Node000032" class="edge">
<title>Node1&#45;&gt;Node32</title>
<g id="a_edge31_Node000001_Node000032"><a xlink:title=" ">
<path fill="none" stroke="#63b8ff" d="M4525.74,-85.13C4651.71,-77.62 4930.81,-59.45 5176.43,-32.24"/>
<polygon fill="#63b8ff" stroke="#63b8ff" points="5176.68,-35.74 5186.23,-31.15 5175.9,-28.78 5176.68,-35.74"/>
</a>
</g>
</g>
<!-- Node33 -->
<g id="Node000033" class="node">
<title>Node33</title>
<g id="a_Node000033"><a xlink:title=" ">
<polygon fill="#e0e0e0" stroke="#999999" points="5581.88,-32 5394.12,-32 5394.12,0 5581.88,0 5581.88,-32"/>
<text text-anchor="start" x="5402.12" y="-18.5" font-family="Helvetica,sans-Serif" font-size="10.00">com.hust.ittnk68.cnpm.communication.</text>
<text text-anchor="middle" x="5488" y="-6.5" font-family="Helvetica,sans-Serif" font-size="10.00">ServerFindObjectResponse</text>
</a>
</g>
</g>
<!-- Node1&#45;&gt;Node33 -->
<g id="edge32_Node000001_Node000033" class="edge">
<title>Node1&#45;&gt;Node33</title>
<g id="a_edge32_Node000001_Node000033"><a xlink:title=" ">
<path fill="none" stroke="#63b8ff" d="M4525.62,-86.77C4677.14,-81.36 5055.6,-65.52 5382.62,-32.19"/>
<polygon fill="#63b8ff" stroke="#63b8ff" points="5382.64,-35.71 5392.23,-31.2 5381.93,-28.74 5382.64,-35.71"/>
</a>
</g>
</g>
<!-- Node34 -->
<g id="Node000034" class="node">
<title>Node34</title>
<g id="a_Node000034"><a xlink:title=" ">
<polygon fill="#e0e0e0" stroke="#999999" points="5787.88,-32 5600.12,-32 5600.12,0 5787.88,0 5787.88,-32"/>
<text text-anchor="start" x="5608.12" y="-18.5" font-family="Helvetica,sans-Serif" font-size="10.00">com.hust.ittnk68.cnpm.communication.</text>
<text text-anchor="middle" x="5694" y="-6.5" font-family="Helvetica,sans-Serif" font-size="10.00">ServerObjectByIdQueryResponse</text>
</a>
</g>
</g>
<!-- Node1&#45;&gt;Node34 -->
<g id="edge33_Node000001_Node000034" class="edge">
<title>Node1&#45;&gt;Node34</title>
<g id="a_edge33_Node000001_Node000034"><a xlink:title=" ">
<path fill="none" stroke="#63b8ff" d="M4525.53,-87.82C4699.81,-84.31 5179.18,-71.63 5588.57,-32.18"/>
<polygon fill="#63b8ff" stroke="#63b8ff" points="5588.62,-35.69 5598.24,-31.24 5587.95,-28.72 5588.62,-35.69"/>
</a>
</g>
</g>
<!-- Node35 -->
<g id="Node000035" class="node">
<title>Node35</title>
<g id="a_Node000035"><a xlink:title=" ">
<polygon fill="#e0e0e0" stroke="#999999" points="5993.88,-32 5806.12,-32 5806.12,0 5993.88,0 5993.88,-32"/>
<text text-anchor="start" x="5814.12" y="-18.5" font-family="Helvetica,sans-Serif" font-size="10.00">com.hust.ittnk68.cnpm.communication.</text>
<text text-anchor="middle" x="5900" y="-6.5" font-family="Helvetica,sans-Serif" font-size="10.00">ServerPaymentStatusQueryResponse</text>
</a>
</g>
</g>
<!-- Node1&#45;&gt;Node35 -->
<g id="edge34_Node000001_Node000035" class="edge">
<title>Node1&#45;&gt;Node35</title>
<g id="a_edge34_Node000001_Node000035"><a xlink:title=" ">
<path fill="none" stroke="#63b8ff" d="M4525.74,-88.56C4721.05,-86.76 5302.21,-77.74 5794.5,-32.17"/>
<polygon fill="#63b8ff" stroke="#63b8ff" points="5794.61,-35.67 5804.24,-31.26 5793.96,-28.7 5794.61,-35.67"/>
</a>
</g>
</g>
<!-- Node36 -->
<g id="Node000036" class="node">
<title>Node36</title>
<g id="a_Node000036"><a xlink:title=" ">
<polygon fill="#e0e0e0" stroke="#999999" points="6199.88,-32 6012.12,-32 6012.12,0 6199.88,0 6199.88,-32"/>
<text text-anchor="start" x="6020.12" y="-18.5" font-family="Helvetica,sans-Serif" font-size="10.00">com.hust.ittnk68.cnpm.communication.</text>
<text text-anchor="middle" x="6106" y="-6.5" font-family="Helvetica,sans-Serif" font-size="10.00">ServerResponseStartSession</text>
</a>
</g>
</g>
<!-- Node1&#45;&gt;Node36 -->
<g id="edge35_Node000001_Node000036" class="edge">
<title>Node1&#45;&gt;Node36</title>
<g id="a_edge35_Node000001_Node000036"><a xlink:title=" ">
<path fill="none" stroke="#63b8ff" d="M4525.55,-89.1C4739.93,-88.87 5424.2,-83.91 6000.3,-32.18"/>
<polygon fill="#63b8ff" stroke="#63b8ff" points="6000.6,-35.66 6010.24,-31.28 5999.97,-28.69 6000.6,-35.66"/>
</a>
</g>
</g>
<!-- Node37 -->
<g id="Node000037" class="node">
<title>Node37</title>
<g id="a_Node000037"><a xlink:title=" ">
<polygon fill="#e0e0e0" stroke="#999999" points="6405.88,-32 6218.12,-32 6218.12,0 6405.88,0 6405.88,-32"/>
<text text-anchor="start" x="6226.12" y="-18.5" font-family="Helvetica,sans-Serif" font-size="10.00">com.hust.ittnk68.cnpm.communication.</text>
<text text-anchor="middle" x="6312" y="-6.5" font-family="Helvetica,sans-Serif" font-size="10.00">ServerUpdateObjectResponse</text>
</a>
</g>
</g>
<!-- Node1&#45;&gt;Node37 -->
<g id="edge36_Node000001_Node000037" class="edge">
<title>Node1&#45;&gt;Node37</title>
<g id="a_edge36_Node000001_Node000037"><a xlink:title=" ">
<path fill="none" stroke="#63b8ff" d="M4525.36,-89.52C4757.55,-90.73 5546.06,-90.09 6206.57,-32.14"/>
<polygon fill="#63b8ff" stroke="#63b8ff" points="6206.59,-35.66 6216.24,-31.29 6205.97,-28.68 6206.59,-35.66"/>
</a>
</g>
</g>
<!-- Node38 -->
<g id="Node000038" class="node">
<title>Node38</title>
<g id="a_Node000038"><a xlink:title=" ">
<polygon fill="#e0e0e0" stroke="#999999" points="6611.88,-32 6424.12,-32 6424.12,0 6611.88,0 6611.88,-32"/>
<text text-anchor="start" x="6432.12" y="-18.5" font-family="Helvetica,sans-Serif" font-size="10.00">com.hust.ittnk68.cnpm.communication.</text>
<text text-anchor="middle" x="6518" y="-6.5" font-family="Helvetica,sans-Serif" font-size="10.00">UserQueryObjectById</text>
</a>
</g>
</g>
<!-- Node1&#45;&gt;Node38 -->
<g id="edge37_Node000001_Node000038" class="edge">
<title>Node1&#45;&gt;Node38</title>
<g id="a_edge37_Node000001_Node000038"><a xlink:title=" ">
<path fill="none" stroke="#63b8ff" d="M4525.56,-88.08C4822.39,-83.89 6013.3,-65.34 6412.46,-32.13"/>
<polygon fill="#63b8ff" stroke="#63b8ff" points="6412.58,-35.63 6422.24,-31.3 6411.98,-28.66 6412.58,-35.63"/>
</a>
</g>
</g>
<!-- Node39 -->
<g id="Node000039" class="node">
<title>Node39</title>
<g id="a_Node000039"><a xlink:title=" ">
<polygon fill="#e0e0e0" stroke="#999999" points="6817.88,-32 6630.12,-32 6630.12,0 6817.88,0 6817.88,-32"/>
<text text-anchor="start" x="6638.12" y="-18.5" font-family="Helvetica,sans-Serif" font-size="10.00">com.hust.ittnk68.cnpm.communication.</text>
<text text-anchor="middle" x="6724" y="-6.5" font-family="Helvetica,sans-Serif" font-size="10.00">UserQueryPaymentStatus</text>
</a>
</g>
</g>
<!-- Node1&#45;&gt;Node39 -->
<g id="edge38_Node000001_Node000039" class="edge">
<title>Node1&#45;&gt;Node39</title>
<g id="a_edge38_Node000001_Node000039"><a xlink:title=" ">
<path fill="none" stroke="#63b8ff" d="M4525.62,-88.3C4841.68,-84.85 6176.27,-68.41 6618.52,-32.12"/>
<polygon fill="#63b8ff" stroke="#63b8ff" points="6618.57,-35.63 6628.24,-31.31 6617.99,-28.66 6618.57,-35.63"/>
</a>
</g>
</g>
<!-- Node40 -->
<g id="Node000040" class="node">
<title>Node40</title>
<g id="a_Node000040"><a xlink:title=" ">
<polygon fill="#e0e0e0" stroke="#999999" points="6996.38,-32 6835.62,-32 6835.62,0 6996.38,0 6996.38,-32"/>
<text text-anchor="start" x="6843.62" y="-18.5" font-family="Helvetica,sans-Serif" font-size="10.00">com.hust.ittnk68.cnpm.controller.</text>
<text text-anchor="middle" x="6916" y="-6.5" font-family="Helvetica,sans-Serif" font-size="10.00">ClientSceneController</text>
</a>
</g>
</g>
<!-- Node1&#45;&gt;Node40 -->
<g id="edge39_Node000001_Node000040" class="edge">
<title>Node1&#45;&gt;Node40</title>
<g id="a_edge39_Node000001_Node000040"><a xlink:title=" ">
<path fill="none" stroke="#63b8ff" d="M4525.53,-88.68C4859.69,-86.9 6339.32,-76.64 6824.27,-32.15"/>
<polygon fill="#63b8ff" stroke="#63b8ff" points="6824.4,-35.65 6834.03,-31.23 6823.75,-28.68 6824.4,-35.65"/>
</a>
</g>
</g>
<!-- Node41 -->
<g id="Node000041" class="node">
<title>Node41</title>
<g id="a_Node000041"><a xlink:title=" ">
<polygon fill="#e0e0e0" stroke="#999999" points="7175.75,-32 7014.25,-32 7014.25,0 7175.75,0 7175.75,-32"/>
<text text-anchor="start" x="7022.25" y="-18.5" font-family="Helvetica,sans-Serif" font-size="10.00">com.hust.ittnk68.cnpm.interactor.</text>
<text text-anchor="middle" x="7095" y="-6.5" font-family="Helvetica,sans-Serif" font-size="10.00">ClientInteractor</text>
</a>
</g>
</g>
<!-- Node1&#45;&gt;Node41 -->
<g id="edge40_Node000001_Node000041" class="edge">
<title>Node1&#45;&gt;Node41</title>
<g id="a_edge40_Node000001_Node000041"><a xlink:title=" ">
<path fill="none" stroke="#63b8ff" d="M4525.59,-88.79C4874.97,-87.54 6479.66,-79.29 7002.72,-32.09"/>
<polygon fill="#63b8ff" stroke="#63b8ff" points="7002.97,-35.58 7012.61,-31.18 7002.33,-28.61 7002.97,-35.58"/>
</a>
</g>
</g>
<!-- Node42 -->
<g id="Node000042" class="node">
<title>Node42</title>
<g id="a_Node000042"><a xlink:title=" ">
<polygon fill="#e0e0e0" stroke="#999999" points="7320.5,-26 7193.5,-26 7193.5,-6 7320.5,-6 7320.5,-26"/>
<text text-anchor="middle" x="7257" y="-12.5" font-family="Helvetica,sans-Serif" font-size="10.00">javafx.animation.Timeline</text>
</a>
</g>
</g>
<!-- Node1&#45;&gt;Node42 -->
<g id="edge41_Node000001_Node000042" class="edge">
<title>Node1&#45;&gt;Node42</title>
<g id="a_edge41_Node000001_Node000042"><a xlink:title=" ">
<path fill="none" stroke="#63b8ff" d="M4525.52,-89.28C4892.13,-90.53 6646.7,-93.17 7185,-32 7192.08,-31.2 7199.49,-30.03 7206.75,-28.7"/>
<polygon fill="#63b8ff" stroke="#63b8ff" points="7207.35,-32.15 7216.49,-26.79 7206,-25.28 7207.35,-32.15"/>
</a>
</g>
</g>
<!-- Node43 -->
<g id="Node000043" class="node">
<title>Node43</title>
<g id="a_Node000043"><a xlink:title=" ">
<polygon fill="#e0e0e0" stroke="#999999" points="7453.12,-26 7338.88,-26 7338.88,-6 7453.12,-6 7453.12,-26"/>
<text text-anchor="middle" x="7396" y="-12.5" font-family="Helvetica,sans-Serif" font-size="10.00">javafx.geometry.Insets</text>
</a>
</g>
</g>
<!-- Node1&#45;&gt;Node43 -->
<g id="edge42_Node000001_Node000043" class="edge">
<title>Node1&#45;&gt;Node43</title>
<g id="a_edge42_Node000001_Node000043"><a xlink:title=" ">
<path fill="none" stroke="#63b8ff" d="M4525.65,-88.48C4932.29,-85.27 7043.89,-66.98 7330,-32 7336.43,-31.21 7343.14,-30.07 7349.73,-28.76"/>
<polygon fill="#63b8ff" stroke="#63b8ff" points="7350.08,-32.27 7359.13,-26.75 7348.62,-25.42 7350.08,-32.27"/>
</a>
</g>
</g>
<!-- Node44 -->
<g id="Node000044" class="node">
<title>Node44</title>
<g id="a_Node000044"><a xlink:title=" ">
<polygon fill="#e0e0e0" stroke="#999999" points="7575.25,-26 7470.75,-26 7470.75,-6 7575.25,-6 7575.25,-26"/>
<text text-anchor="middle" x="7523" y="-12.5" font-family="Helvetica,sans-Serif" font-size="10.00">javafx.geometry.Pos</text>
</a>
</g>
</g>
<!-- Node1&#45;&gt;Node44 -->
<g id="edge43_Node000001_Node000044" class="edge">
<title>Node1&#45;&gt;Node44</title>
<g id="a_edge43_Node000001_Node000044"><a xlink:title=" ">
<path fill="none" stroke="#63b8ff" d="M4525.69,-88.62C4943.39,-86.14 7162.34,-71.19 7462,-32 7467.67,-31.26 7473.57,-30.19 7479.38,-28.97"/>
<polygon fill="#63b8ff" stroke="#63b8ff" points="7479.89,-32.44 7488.85,-26.79 7478.33,-25.62 7479.89,-32.44"/>
</a>
</g>
</g>
<!-- Node45 -->
<g id="Node000045" class="node">
<title>Node45</title>
<g id="a_Node000045"><a xlink:title=" ">
<polygon fill="#e0e0e0" stroke="#999999" points="7696.5,-26 7593.5,-26 7593.5,-6 7696.5,-6 7696.5,-26"/>
<text text-anchor="middle" x="7645" y="-12.5" font-family="Helvetica,sans-Serif" font-size="10.00">javafx.scene.Parent</text>
</a>
</g>
</g>
<!-- Node1&#45;&gt;Node45 -->
<g id="edge44_Node000001_Node000045" class="edge">
<title>Node1&#45;&gt;Node45</title>
<g id="a_edge44_Node000001_Node000045"><a xlink:title=" ">
<path fill="none" stroke="#63b8ff" d="M4525.65,-88.67C4953.13,-86.48 7271.48,-72.75 7584,-32 7589.67,-31.26 7595.57,-30.2 7601.38,-28.97"/>
<polygon fill="#63b8ff" stroke="#63b8ff" points="7601.89,-32.44 7610.86,-26.79 7600.33,-25.62 7601.89,-32.44"/>
</a>
</g>
</g>
<!-- Node46 -->
<g id="Node000046" class="node">
<title>Node46</title>
<g id="a_Node000046"><a xlink:title=" ">
<polygon fill="#e0e0e0" stroke="#999999" points="7817.12,-26 7714.88,-26 7714.88,-6 7817.12,-6 7817.12,-26"/>
<text text-anchor="middle" x="7766" y="-12.5" font-family="Helvetica,sans-Serif" font-size="10.00">javafx.scene.Scene</text>
</a>
</g>
</g>
<!-- Node1&#45;&gt;Node46 -->
<g id="edge45_Node000001_Node000046" class="edge">
<title>Node1&#45;&gt;Node46</title>
<g id="a_edge45_Node000001_Node000046"><a xlink:title=" ">
<path fill="none" stroke="#63b8ff" d="M4525.45,-88.74C4962.08,-86.92 7380.66,-74.95 7706,-32 7711.58,-31.26 7717.39,-30.2 7723.1,-28.97"/>
<polygon fill="#63b8ff" stroke="#63b8ff" points="7723.46,-32.48 7732.4,-26.8 7721.87,-25.67 7723.46,-32.48"/>
</a>
</g>
</g>
<!-- Node47 -->
<g id="Node000047" class="node">
<title>Node47</title>
<g id="a_Node000047"><a xlink:title=" ">
<polygon fill="#e0e0e0" stroke="#999999" points="7969.25,-26 7834.75,-26 7834.75,-6 7969.25,-6 7969.25,-26"/>
<text text-anchor="middle" x="7902" y="-12.5" font-family="Helvetica,sans-Serif" font-size="10.00">javafx.scene.layout.Region</text>
</a>
</g>
</g>
<!-- Node1&#45;&gt;Node47 -->
<g id="edge46_Node000001_Node000047" class="edge">
<title>Node1&#45;&gt;Node47</title>
<g id="a_edge46_Node000001_Node000047"><a xlink:title=" ">
<path fill="none" stroke="#63b8ff" d="M4525.39,-88.58C4971.09,-85.72 7486.99,-68.03 7826,-32 7833.82,-31.17 7842.03,-29.94 7850.04,-28.53"/>
<polygon fill="#63b8ff" stroke="#63b8ff" points="7850.51,-32 7859.7,-26.72 7849.22,-25.12 7850.51,-32"/>
</a>
</g>
</g>
<!-- Node48 -->
<g id="Node000048" class="node">
<title>Node48</title>
<g id="a_Node000048"><a xlink:title=" ">
<polygon fill="#e0e0e0" stroke="#999999" points="8138.88,-26 7987.12,-26 7987.12,-6 8138.88,-6 8138.88,-26"/>
<text text-anchor="middle" x="8063" y="-12.5" font-family="Helvetica,sans-Serif" font-size="10.00">javafx.scene.layout.StackPane</text>
</a>
</g>
</g>
<!-- Node1&#45;&gt;Node48 -->
<g id="edge47_Node000001_Node000048" class="edge">
<title>Node1&#45;&gt;Node48</title>
<g id="a_edge47_Node000001_Node000048"><a xlink:title=" ">
<path fill="none" stroke="#63b8ff" d="M4525.46,-88.55C4982.89,-85.43 7622.56,-66.02 7978,-32 7987.12,-31.13 7996.73,-29.82 8006.08,-28.32"/>
<polygon fill="#63b8ff" stroke="#63b8ff" points="8006.53,-31.8 8015.81,-26.69 8005.37,-24.9 8006.53,-31.8"/>
</a>
</g>
</g>
<!-- Node49 -->
<g id="Node000049" class="node">
<title>Node49</title>
<g id="a_Node000049"><a xlink:title=" ">
<polygon fill="#e0e0e0" stroke="#999999" points="8305,-26 8157,-26 8157,-6 8305,-6 8305,-26"/>
<text text-anchor="middle" x="8231" y="-12.5" font-family="Helvetica,sans-Serif" font-size="10.00">javafx.scene.shape.Rectangle</text>
</a>
</g>
</g>
<!-- Node1&#45;&gt;Node49 -->
<g id="edge48_Node000001_Node000049" class="edge">
<title>Node1&#45;&gt;Node49</title>
<g id="a_edge48_Node000001_Node000049"><a xlink:title=" ">
<path fill="none" stroke="#63b8ff" d="M4525.67,-88.62C4996.4,-85.9 7774.66,-68.37 8148,-32 8156.81,-31.14 8166.09,-29.85 8175.13,-28.38"/>
<polygon fill="#63b8ff" stroke="#63b8ff" points="8175.64,-31.85 8184.9,-26.7 8174.45,-24.95 8175.64,-31.85"/>
</a>
</g>
</g>
<!-- Node50 -->
<g id="Node000050" class="node">
<title>Node50</title>
<g id="a_Node000050"><a xlink:title=" ">
<polygon fill="#e0e0e0" stroke="#999999" points="8444.88,-26 8323.12,-26 8323.12,-6 8444.88,-6 8444.88,-26"/>
<text text-anchor="middle" x="8384" y="-12.5" font-family="Helvetica,sans-Serif" font-size="10.00">javafx.scene.paint.Color</text>
</a>
</g>
</g>
<!-- Node1&#45;&gt;Node50 -->
<g id="edge49_Node000001_Node000050" class="edge">
<title>Node1&#45;&gt;Node50</title>
<g id="a_edge49_Node000001_Node000050"><a xlink:title=" ">
<path fill="none" stroke="#63b8ff" d="M4525.61,-88.8C5008.32,-87.28 7923.68,-76.27 8314,-32 8320.89,-31.22 8328.09,-30.07 8335.16,-28.74"/>
<polygon fill="#63b8ff" stroke="#63b8ff" points="8335.85,-32.17 8344.96,-26.76 8334.46,-25.31 8335.85,-32.17"/>
</a>
</g>
</g>
<!-- Node51 -->
<g id="Node000051" class="node">
<title>Node51</title>
<g id="a_Node000051"><a xlink:title=" ">
<polygon fill="#e0e0e0" stroke="#999999" points="8571.5,-26 8462.5,-26 8462.5,-6 8571.5,-6 8571.5,-26"/>
<text text-anchor="middle" x="8517" y="-12.5" font-family="Helvetica,sans-Serif" font-size="10.00">javafx.stage.Modality</text>
</a>
</g>
</g>
<!-- Node1&#45;&gt;Node51 -->
<g id="edge50_Node000001_Node000051" class="edge">
<title>Node1&#45;&gt;Node51</title>
<g id="a_edge50_Node000001_Node000051"><a xlink:title=" ">
<path fill="none" stroke="#63b8ff" d="M4525.7,-88.93C5018.73,-88.31 8049.4,-82.43 8454,-32 8460,-31.25 8466.25,-30.16 8472.39,-28.89"/>
<polygon fill="#63b8ff" stroke="#63b8ff" points="8472.77,-32.4 8481.77,-26.81 8471.25,-25.56 8472.77,-32.4"/>
</a>
</g>
</g>
<!-- Node52 -->
<g id="Node000052" class="node">
<title>Node52</title>
<g id="a_Node000052"><a xlink:title=" ">
<polygon fill="#e0e0e0" stroke="#999999" points="8686.88,-26 8589.12,-26 8589.12,-6 8686.88,-6 8686.88,-26"/>
<text text-anchor="middle" x="8638" y="-12.5" font-family="Helvetica,sans-Serif" font-size="10.00">javafx.stage.Stage</text>
</a>
</g>
</g>
<!-- Node1&#45;&gt;Node52 -->
<g id="edge51_Node000001_Node000052" class="edge">
<title>Node1&#45;&gt;Node52</title>
<g id="a_edge51_Node000001_Node000052"><a xlink:title=" ">
<path fill="none" stroke="#63b8ff" d="M4525.45,-89.06C5026.67,-89.36 8163.51,-88.95 8581,-32 8586.04,-31.31 8591.27,-30.33 8596.43,-29.18"/>
<polygon fill="#63b8ff" stroke="#63b8ff" points="8597.15,-32.61 8606.04,-26.84 8595.5,-25.81 8597.15,-32.61"/>
</a>
</g>
</g>
<!-- Node53 -->
<g id="Node000053" class="node">
<title>Node53</title>
<g id="a_Node000053"><a xlink:title=" ">
<polygon fill="#e0e0e0" stroke="#999999" points="8825.12,-26 8704.88,-26 8704.88,-6 8825.12,-6 8825.12,-26"/>
<text text-anchor="middle" x="8765" y="-12.5" font-family="Helvetica,sans-Serif" font-size="10.00">javafx.stage.StageStyle</text>
</a>
</g>
</g>
<!-- Node1&#45;&gt;Node53 -->
<g id="edge52_Node000001_Node000053" class="edge">
<title>Node1&#45;&gt;Node53</title>
<g id="a_edge52_Node000001_Node000053"><a xlink:title=" ">
<path fill="none" stroke="#63b8ff" d="M4525.67,-88.91C5035.49,-88.12 8265.24,-81.21 8696,-32 8702.79,-31.22 8709.9,-30.07 8716.86,-28.75"/>
<polygon fill="#63b8ff" stroke="#63b8ff" points="8717.41,-32.21 8726.5,-26.78 8716,-25.35 8717.41,-32.21"/>
</a>
</g>
</g>
<!-- Node54 -->
<g id="Node000054" class="node">
<title>Node54</title>
<g id="a_Node000054"><a xlink:title=" ">
<polygon fill="#e0e0e0" stroke="#999999" points="8940.88,-26 8843.12,-26 8843.12,-6 8940.88,-6 8940.88,-26"/>
<text text-anchor="middle" x="8892" y="-12.5" font-family="Helvetica,sans-Serif" font-size="10.00">javafx.util.Duration</text>
</a>
</g>
</g>
<!-- Node1&#45;&gt;Node54 -->
<g id="edge53_Node000001_Node000054" class="edge">
<title>Node1&#45;&gt;Node54</title>
<g id="a_edge53_Node000001_Node000054"><a xlink:title=" ">
<path fill="none" stroke="#63b8ff" d="M4525.41,-89.1C5043.85,-89.73 8389.57,-91.48 8834,-32 8839.26,-31.3 8844.74,-30.28 8850.12,-29.09"/>
<polygon fill="#63b8ff" stroke="#63b8ff" points="8850.59,-32.58 8859.5,-26.84 8848.95,-25.77 8850.59,-32.58"/>
</a>
</g>
</g>
</g>
</svg>
