<?xml version="1.0" encoding="UTF-8" standalone="no"?>
<!DOCTYPE svg PUBLIC "-//W3C//DTD SVG 1.1//EN"
 "http://www.w3.org/Graphics/SVG/1.1/DTD/svg11.dtd">
<!-- Generated by graphviz version 12.2.1 (20241206.2353)
 -->
<!-- Title: src/main/java/com/hust/ittnk68/cnpm/config/ConfigFileUtils.java Pages: 1 -->
<svg width="527pt" height="108pt"
 viewBox="0.00 0.00 526.75 108.00" xmlns="http://www.w3.org/2000/svg" xmlns:xlink="http://www.w3.org/1999/xlink">
<g id="graph0" class="graph" transform="scale(1 1) rotate(0) translate(4 104)">
<title>src/main/java/com/hust/ittnk68/cnpm/config/ConfigFileUtils.java</title>
<!-- Node1 -->
<g id="Node000001" class="node">
<title>Node1</title>
<g id="a_Node000001"><a xlink:title=" ">
<polygon fill="#999999" stroke="#666666" points="357.12,-100 205.38,-100 205.38,-56 357.12,-56 357.12,-100"/>
<text text-anchor="start" x="213.38" y="-86.5" font-family="Helvetica,sans-Serif" font-size="10.00">src/main/java/com/hust</text>
<text text-anchor="start" x="213.38" y="-74.5" font-family="Helvetica,sans-Serif" font-size="10.00">/ittnk68/cnpm/config/ConfigFile</text>
<text text-anchor="middle" x="281.25" y="-62.5" font-family="Helvetica,sans-Serif" font-size="10.00">Utils.java</text>
</a>
</g>
</g>
<!-- Node2 -->
<g id="Node000002" class="node">
<title>Node2</title>
<g id="a_Node000002"><a xlink:title=" ">
<polygon fill="#e0e0e0" stroke="#999999" points="116.5,-20 0,-20 0,0 116.5,0 116.5,-20"/>
<text text-anchor="middle" x="58.25" y="-6.5" font-family="Helvetica,sans-Serif" font-size="10.00">java.io.FileInputStream</text>
</a>
</g>
</g>
<!-- Node1&#45;&gt;Node2 -->
<g id="edge1_Node000001_Node000002" class="edge">
<title>Node1&#45;&gt;Node2</title>
<g id="a_edge1_Node000001_Node000002"><a xlink:title=" ">
<path fill="none" stroke="#63b8ff" d="M208.85,-55.57C173.17,-45.01 131.37,-32.64 100.88,-23.62"/>
<polygon fill="#63b8ff" stroke="#63b8ff" points="102.22,-20.36 91.64,-20.88 100.23,-27.08 102.22,-20.36"/>
</a>
</g>
</g>
<!-- Node3 -->
<g id="Node000003" class="node">
<title>Node3</title>
<g id="a_Node000003"><a xlink:title=" ">
<polygon fill="#e0e0e0" stroke="#999999" points="284,-20 134.5,-20 134.5,0 284,0 284,-20"/>
<text text-anchor="middle" x="209.25" y="-6.5" font-family="Helvetica,sans-Serif" font-size="10.00">java.io.FileNotFoundException</text>
</a>
</g>
</g>
<!-- Node1&#45;&gt;Node3 -->
<g id="edge2_Node000001_Node000003" class="edge">
<title>Node1&#45;&gt;Node3</title>
<g id="a_edge2_Node000001_Node000003"><a xlink:title=" ">
<path fill="none" stroke="#63b8ff" d="M258.07,-55.75C248.33,-46.82 237.15,-36.57 227.94,-28.13"/>
<polygon fill="#63b8ff" stroke="#63b8ff" points="230.38,-25.62 220.64,-21.44 225.65,-30.78 230.38,-25.62"/>
</a>
</g>
</g>
<!-- Node4 -->
<g id="Node000004" class="node">
<title>Node4</title>
<g id="a_Node000004"><a xlink:title=" ">
<polygon fill="#e0e0e0" stroke="#999999" points="404,-20 302.5,-20 302.5,0 404,0 404,-20"/>
<text text-anchor="middle" x="353.25" y="-6.5" font-family="Helvetica,sans-Serif" font-size="10.00">java.io.IOException</text>
</a>
</g>
</g>
<!-- Node1&#45;&gt;Node4 -->
<g id="edge3_Node000001_Node000004" class="edge">
<title>Node1&#45;&gt;Node4</title>
<g id="a_edge3_Node000001_Node000004"><a xlink:title=" ">
<path fill="none" stroke="#63b8ff" d="M304.43,-55.75C314.17,-46.82 325.35,-36.57 334.56,-28.13"/>
<polygon fill="#63b8ff" stroke="#63b8ff" points="336.85,-30.78 341.86,-21.44 332.12,-25.62 336.85,-30.78"/>
</a>
</g>
</g>
<!-- Node5 -->
<g id="Node000005" class="node">
<title>Node5</title>
<g id="a_Node000005"><a xlink:title=" ">
<polygon fill="#e0e0e0" stroke="#999999" points="518.75,-20 421.75,-20 421.75,0 518.75,0 518.75,-20"/>
<text text-anchor="middle" x="470.25" y="-6.5" font-family="Helvetica,sans-Serif" font-size="10.00">java.util.Properties</text>
</a>
</g>
</g>
<!-- Node1&#45;&gt;Node5 -->
<g id="edge4_Node000001_Node000005" class="edge">
<title>Node1&#45;&gt;Node5</title>
<g id="a_edge4_Node000001_Node000005"><a xlink:title=" ">
<path fill="none" stroke="#63b8ff" d="M342.61,-55.57C372.28,-45.21 406.94,-33.11 432.65,-24.13"/>
<polygon fill="#63b8ff" stroke="#63b8ff" points="433.72,-27.47 442,-20.86 431.41,-20.86 433.72,-27.47"/>
</a>
</g>
</g>
</g>
</svg>
