<?xml version="1.0" encoding="UTF-8" standalone="no"?>
<!DOCTYPE svg PUBLIC "-//W3C//DTD SVG 1.1//EN"
 "http://www.w3.org/Graphics/SVG/1.1/DTD/svg11.dtd">
<!-- Generated by graphviz version 12.2.1 (20241206.2353)
 -->
<!-- Title: src/main/java/com/hust/ittnk68/cnpm/config/ConfigFileUtils.java Pages: 1 -->
<svg width="511pt" height="108pt"
 viewBox="0.00 0.00 511.25 108.00" xmlns="http://www.w3.org/2000/svg" xmlns:xlink="http://www.w3.org/1999/xlink">
<g id="graph0" class="graph" transform="scale(1 1) rotate(0) translate(4 104)">
<title>src/main/java/com/hust/ittnk68/cnpm/config/ConfigFileUtils.java</title>
<!-- Node1 -->
<g id="Node000001" class="node">
<title>Node1</title>
<g id="a_Node000001"><a xlink:title=" ">
<polygon fill="#999999" stroke="#666666" points="353.62,-100 201.88,-100 201.88,-56 353.62,-56 353.62,-100"/>
<text text-anchor="start" x="209.88" y="-86.5" font-family="Helvetica,sans-Serif" font-size="10.00">src/main/java/com/hust</text>
<text text-anchor="start" x="209.88" y="-74.5" font-family="Helvetica,sans-Serif" font-size="10.00">/ittnk68/cnpm/config/ConfigFile</text>
<text text-anchor="middle" x="277.75" y="-62.5" font-family="Helvetica,sans-Serif" font-size="10.00">Utils.java</text>
</a>
</g>
</g>
<!-- Node2 -->
<g id="Node000002" class="node">
<title>Node2</title>
<g id="a_Node000002"><a xlink:title=" ">
<polygon fill="#e0e0e0" stroke="#999999" points="149.5,-20 0,-20 0,0 149.5,0 149.5,-20"/>
<text text-anchor="middle" x="74.75" y="-6.5" font-family="Helvetica,sans-Serif" font-size="10.00">java.io.FileNotFoundException</text>
</a>
</g>
</g>
<!-- Node1&#45;&gt;Node2 -->
<g id="edge1_Node000001_Node000002" class="edge">
<title>Node1&#45;&gt;Node2</title>
<g id="a_edge1_Node000001_Node000002"><a xlink:title=" ">
<path fill="none" stroke="#63b8ff" d="M211.84,-55.57C179.79,-45.15 142.32,-32.97 114.66,-23.97"/>
<polygon fill="#63b8ff" stroke="#63b8ff" points="115.85,-20.68 105.26,-20.92 113.69,-27.34 115.85,-20.68"/>
</a>
</g>
</g>
<!-- Node3 -->
<g id="Node000003" class="node">
<title>Node3</title>
<g id="a_Node000003"><a xlink:title=" ">
<polygon fill="#e0e0e0" stroke="#999999" points="269.5,-20 168,-20 168,0 269.5,0 269.5,-20"/>
<text text-anchor="middle" x="218.75" y="-6.5" font-family="Helvetica,sans-Serif" font-size="10.00">java.io.IOException</text>
</a>
</g>
</g>
<!-- Node1&#45;&gt;Node3 -->
<g id="edge2_Node000001_Node000003" class="edge">
<title>Node1&#45;&gt;Node3</title>
<g id="a_edge2_Node000001_Node000003"><a xlink:title=" ">
<path fill="none" stroke="#63b8ff" d="M258.76,-55.75C251.02,-47.1 242.18,-37.21 234.78,-28.93"/>
<polygon fill="#63b8ff" stroke="#63b8ff" points="237.45,-26.67 228.18,-21.55 232.23,-31.34 237.45,-26.67"/>
</a>
</g>
</g>
<!-- Node4 -->
<g id="Node000004" class="node">
<title>Node4</title>
<g id="a_Node000004"><a xlink:title=" ">
<polygon fill="#e0e0e0" stroke="#999999" points="388.12,-20 287.38,-20 287.38,0 388.12,0 388.12,-20"/>
<text text-anchor="middle" x="337.75" y="-6.5" font-family="Helvetica,sans-Serif" font-size="10.00">java.io.InputStream</text>
</a>
</g>
</g>
<!-- Node1&#45;&gt;Node4 -->
<g id="edge3_Node000001_Node000004" class="edge">
<title>Node1&#45;&gt;Node4</title>
<g id="a_edge3_Node000001_Node000004"><a xlink:title=" ">
<path fill="none" stroke="#63b8ff" d="M297.06,-55.75C304.93,-47.1 313.92,-37.21 321.45,-28.93"/>
<polygon fill="#63b8ff" stroke="#63b8ff" points="324.03,-31.29 328.17,-21.54 318.85,-26.58 324.03,-31.29"/>
</a>
</g>
</g>
<!-- Node5 -->
<g id="Node000005" class="node">
<title>Node5</title>
<g id="a_Node000005"><a xlink:title=" ">
<polygon fill="#e0e0e0" stroke="#999999" points="503.25,-20 406.25,-20 406.25,0 503.25,0 503.25,-20"/>
<text text-anchor="middle" x="454.75" y="-6.5" font-family="Helvetica,sans-Serif" font-size="10.00">java.util.Properties</text>
</a>
</g>
</g>
<!-- Node1&#45;&gt;Node5 -->
<g id="edge4_Node000001_Node000005" class="edge">
<title>Node1&#45;&gt;Node5</title>
<g id="a_edge4_Node000001_Node000005"><a xlink:title=" ">
<path fill="none" stroke="#63b8ff" d="M335.22,-55.57C362.75,-45.3 394.88,-33.32 418.89,-24.37"/>
<polygon fill="#63b8ff" stroke="#63b8ff" points="420.07,-27.67 428.22,-20.89 417.62,-21.11 420.07,-27.67"/>
</a>
</g>
</g>
</g>
</svg>
