<?xml version="1.0" encoding="UTF-8" standalone="no"?>
<!DOCTYPE svg PUBLIC "-//W3C//DTD SVG 1.1//EN"
 "http://www.w3.org/Graphics/SVG/1.1/DTD/svg11.dtd">
<!-- Generated by graphviz version 12.2.1 (20241206.2353)
 -->
<!-- Title: src/main/java/com/hust/ittnk68/cnpm Pages: 1 -->
<!--zoomable 96 -->

<svg id="main" version="1.1" xmlns="http://www.w3.org/2000/svg" xmlns:xlink="http://www.w3.org/1999/xlink" xml:space="preserve" onload="init(evt)">

<style type="text/css"><![CDATA[
.node, .edge {opacity: 0.7;}
.node.selected, .edge.selected {opacity: 1;}
.edge:hover path { stroke: red; }
.edge:hover polygon { stroke: red; fill: red; }
]]></style>

<defs>
  <circle id="rim" cx="0" cy="0" r="7"/>
  <circle id="rim2" cx="0" cy="0" r="3.5"/>
  <g id="zoomPlus">
    <use xlink:href="#rim" fill="#404040"><set attributeName="fill" to="#808080" begin="zoomplus.mouseover" end="zoomplus.mouseout"/></use>
    <path d="M-4,0h8M0,-4v8" fill="none" stroke="white" stroke-width="1.5" pointer-events="none"/>
  </g>
  <g id="zoomMin">
    <use xlink:href="#rim" fill="#404040"><set attributeName="fill" to="#808080" begin="zoomminus.mouseover" end="zoomminus.mouseout"/></use>
    <path d="M-4,0h8" fill="none" stroke="white" stroke-width="1.5" pointer-events="none"/>
  </g>
  <g id="arrowUp" transform="translate(30 24)">
    <use xlink:href="#rim"/>
    <path pointer-events="none" fill="none" stroke="white" stroke-width="1.5" d="M0,-3.0v7 M-2.5,-0.5L0,-3.0L2.5,-0.5"/>
  </g>
  <g id="arrowRight" transform="rotate(90) translate(36 -43)">
    <use xlink:href="#rim"/>
    <path pointer-events="none" fill="none" stroke="white" stroke-width="1.5" d="M0,-3.0v7 M-2.5,-0.5L0,-3.0L2.5,-0.5"/>
  </g>
  <g id="arrowDown" transform="rotate(180) translate(-30 -48)">
    <use xlink:href="#rim"/>
    <path pointer-events="none" fill="none" stroke="white" stroke-width="1.5" d="M0,-3.0v7 M-2.5,-0.5L0,-3.0L2.5,-0.5"/>
  </g>
  <g id="arrowLeft" transform="rotate(270) translate(-36 17)">
    <use xlink:href="#rim"/>
    <path pointer-events="none" fill="none" stroke="white" stroke-width="1.5" d="M0,-3.0v7 M-2.5,-0.5L0,-3.0L2.5,-0.5"/>
  </g>
  <g id="resetDef">
    <use xlink:href="#rim2" fill="#404040"><set attributeName="fill" to="#808080" begin="reset.mouseover" end="reset.mouseout"/></use>
  </g>
</defs>
<script type="application/ecmascript">
var viewWidth = 950;
var viewHeight = 96;
var sectionId = 'dynsection-0';
</script>
<script type="application/ecmascript" xlink:href="svg.min.js"/>
<svg id="graph" class="graph">
<g id="viewport">
<title>src/main/java/com/hust/ittnk68/cnpm</title>
<g id="clust1" class="cluster">
<title>clusterdir_8a7b89284b61a2ec4884ede55bf0d52a</title>
<g id="a_clust1"><a xlink:href="dir_8a7b89284b61a2ec4884ede55bf0d52a.html" target="_top" xlink:title="ittnk68">
<polygon fill="#edf0f7" stroke="#7f7f7f" stroke-dasharray="5,2" points="8,-8 8,-80 934,-80 934,-8 8,-8"/>
<text text-anchor="middle" x="471" y="-66.5" font-family="Helvetica,sans-Serif" font-size="10.00">ittnk68</text>
</a>
</g>
</g>
<g id="clust2" class="cluster">
<title>clusterdir_19c1a852add0c7c0d4e6a9ddfb1e6a45</title>
<g id="a_clust2"><a xlink:href="dir_19c1a852add0c7c0d4e6a9ddfb1e6a45.html" target="_top">
<polygon fill="#edf0f7" stroke="#404040" stroke-width="2" points="16,-16 16,-52 926,-52 926,-16 16,-16"/>
</a>
</g>
</g>
<!-- dir_19c1a852add0c7c0d4e6a9ddfb1e6a45 -->
<g id="node1" class="node">
<title>dir_19c1a852add0c7c0d4e6a9ddfb1e6a45</title>
<text text-anchor="middle" x="44" y="-30.5" font-family="Helvetica,sans-Serif" font-size="10.00">cnpm</text>
</g>
<!-- dir_ac82544f6610269dc8ad42f4d140e312 -->
<g id="node2" class="node">
<title>dir_ac82544f6610269dc8ad42f4d140e312</title>
<g id="a_node2"><a xlink:href="dir_ac82544f6610269dc8ad42f4d140e312.html" target="_top" xlink:title="app">
<polygon fill="#a2b4d6" stroke="#404040" points="113.88,-44 82.12,-44 82.12,-24 113.88,-24 113.88,-44"/>
<text text-anchor="middle" x="98" y="-30.5" font-family="Helvetica,sans-Serif" font-size="10.00">app</text>
</a>
</g>
</g>
<!-- dir_50c3ee156e8cde791ea5bfe3729ca2da -->
<g id="node3" class="node">
<title>dir_50c3ee156e8cde791ea5bfe3729ca2da</title>
<g id="a_node3"><a xlink:href="dir_50c3ee156e8cde791ea5bfe3729ca2da.html" target="_top" xlink:title="communication">
<polygon fill="#a2b4d6" stroke="#404040" points="214,-44 132,-44 132,-24 214,-24 214,-44"/>
<text text-anchor="middle" x="173" y="-30.5" font-family="Helvetica,sans-Serif" font-size="10.00">communication</text>
</a>
</g>
</g>
<!-- dir_d618ea10bd5df1fa7ef8320e87e924c0 -->
<g id="node4" class="node">
<title>dir_d618ea10bd5df1fa7ef8320e87e924c0</title>
<g id="a_node4"><a xlink:href="dir_d618ea10bd5df1fa7ef8320e87e924c0.html" target="_top" xlink:title="config">
<polygon fill="#a2b4d6" stroke="#404040" points="274.12,-44 231.88,-44 231.88,-24 274.12,-24 274.12,-44"/>
<text text-anchor="middle" x="253" y="-30.5" font-family="Helvetica,sans-Serif" font-size="10.00">config</text>
</a>
</g>
</g>
<!-- dir_e8cbe85db834691dbb5b053d17e42228 -->
<g id="node5" class="node">
<title>dir_e8cbe85db834691dbb5b053d17e42228</title>
<g id="a_node5"><a xlink:href="dir_e8cbe85db834691dbb5b053d17e42228.html" target="_top" xlink:title="controller">
<polygon fill="#a2b4d6" stroke="#404040" points="347.88,-44 292.12,-44 292.12,-24 347.88,-24 347.88,-44"/>
<text text-anchor="middle" x="320" y="-30.5" font-family="Helvetica,sans-Serif" font-size="10.00">controller</text>
</a>
</g>
</g>
<!-- dir_f9a25135231656f5311dafc4dbfaf350 -->
<g id="node6" class="node">
<title>dir_f9a25135231656f5311dafc4dbfaf350</title>
<g id="a_node6"><a xlink:href="dir_f9a25135231656f5311dafc4dbfaf350.html" target="_top" xlink:title="database">
<polygon fill="#a2b4d6" stroke="#404040" points="421.88,-44 366.12,-44 366.12,-24 421.88,-24 421.88,-44"/>
<text text-anchor="middle" x="394" y="-30.5" font-family="Helvetica,sans-Serif" font-size="10.00">database</text>
</a>
</g>
</g>
<!-- dir_7c3d28e3da89fafe33f8b26925526834 -->
<g id="node7" class="node">
<title>dir_7c3d28e3da89fafe33f8b26925526834</title>
<g id="a_node7"><a xlink:href="dir_7c3d28e3da89fafe33f8b26925526834.html" target="_top" xlink:title="exception">
<polygon fill="#a2b4d6" stroke="#404040" points="498,-44 440,-44 440,-24 498,-24 498,-44"/>
<text text-anchor="middle" x="469" y="-30.5" font-family="Helvetica,sans-Serif" font-size="10.00">exception</text>
</a>
</g>
</g>
<!-- dir_49a7a1ca8d33abfca7554ab1acdc8ba1 -->
<g id="node8" class="node">
<title>dir_49a7a1ca8d33abfca7554ab1acdc8ba1</title>
<g id="a_node8"><a xlink:href="dir_49a7a1ca8d33abfca7554ab1acdc8ba1.html" target="_top" xlink:title="group">
<polygon fill="#a2b4d6" stroke="#404040" points="556,-44 516,-44 516,-24 556,-24 556,-44"/>
<text text-anchor="middle" x="536" y="-30.5" font-family="Helvetica,sans-Serif" font-size="10.00">group</text>
</a>
</g>
</g>
<!-- dir_6e467aa747ce8aaed8c9183bc7091f50 -->
<g id="node9" class="node">
<title>dir_6e467aa747ce8aaed8c9183bc7091f50</title>
<g id="a_node9"><a xlink:href="dir_6e467aa747ce8aaed8c9183bc7091f50.html" target="_top" xlink:title="interactor">
<polygon fill="#a2b4d6" stroke="#404040" points="630.25,-44 573.75,-44 573.75,-24 630.25,-24 630.25,-44"/>
<text text-anchor="middle" x="602" y="-30.5" font-family="Helvetica,sans-Serif" font-size="10.00">interactor</text>
</a>
</g>
</g>
<!-- dir_70f4376b862e96332421af813e8c7c82 -->
<g id="node10" class="node">
<title>dir_70f4376b862e96332421af813e8c7c82</title>
<g id="a_node10"><a xlink:href="dir_70f4376b862e96332421af813e8c7c82.html" target="_top" xlink:title="model">
<polygon fill="#a2b4d6" stroke="#404040" points="690.12,-44 647.88,-44 647.88,-24 690.12,-24 690.12,-44"/>
<text text-anchor="middle" x="669" y="-30.5" font-family="Helvetica,sans-Serif" font-size="10.00">model</text>
</a>
</g>
</g>
<!-- dir_a608d34b4e61cdd753f440f66aa75a7b -->
<g id="node11" class="node">
<title>dir_a608d34b4e61cdd753f440f66aa75a7b</title>
<g id="a_node11"><a xlink:href="dir_a608d34b4e61cdd753f440f66aa75a7b.html" target="_top" xlink:title="session">
<polygon fill="#a2b4d6" stroke="#404040" points="757.88,-44 708.12,-44 708.12,-24 757.88,-24 757.88,-44"/>
<text text-anchor="middle" x="733" y="-30.5" font-family="Helvetica,sans-Serif" font-size="10.00">session</text>
</a>
</g>
</g>
<!-- dir_050f64ed3a03741af215eefed68cfeef -->
<g id="node12" class="node">
<title>dir_050f64ed3a03741af215eefed68cfeef</title>
<g id="a_node12"><a xlink:href="dir_050f64ed3a03741af215eefed68cfeef.html" target="_top" xlink:title="sms">
<polygon fill="#a2b4d6" stroke="#404040" points="810.38,-44 775.62,-44 775.62,-24 810.38,-24 810.38,-44"/>
<text text-anchor="middle" x="793" y="-30.5" font-family="Helvetica,sans-Serif" font-size="10.00">sms</text>
</a>
</g>
</g>
<!-- dir_57c82a7ee36c32cbb874aa2325c5f580 -->
<g id="node13" class="node">
<title>dir_57c82a7ee36c32cbb874aa2325c5f580</title>
<g id="a_node13"><a xlink:href="dir_57c82a7ee36c32cbb874aa2325c5f580.html" target="_top" xlink:title="type">
<polygon fill="#a2b4d6" stroke="#404040" points="863.38,-44 828.62,-44 828.62,-24 863.38,-24 863.38,-44"/>
<text text-anchor="middle" x="846" y="-30.5" font-family="Helvetica,sans-Serif" font-size="10.00">type</text>
</a>
</g>
</g>
<!-- dir_19b070c31c25a0010be3eba02baff0e0 -->
<g id="node14" class="node">
<title>dir_19b070c31c25a0010be3eba02baff0e0</title>
<g id="a_node14"><a xlink:href="dir_19b070c31c25a0010be3eba02baff0e0.html" target="_top" xlink:title="view">
<polygon fill="#a2b4d6" stroke="#404040" points="918.12,-44 881.88,-44 881.88,-24 918.12,-24 918.12,-44"/>
<text text-anchor="middle" x="900" y="-30.5" font-family="Helvetica,sans-Serif" font-size="10.00">view</text>
</a>
</g>
</g>
</g>
</svg>

<g id="navigator" transform="translate(0 0)" fill="#404254">
  <rect fill="#f2f5e9" fill-opacity="0.5" stroke="#606060" stroke-width=".5" x="0" y="0" width="60" height="60"/>
  <use id="zoomplus" xlink:href="#zoomPlus" x="17" y="9" onmousedown="handleZoom(evt,'in')"/>
  <use id="zoomminus" xlink:href="#zoomMin" x="42" y="9" onmousedown="handleZoom(evt,'out')"/>
  <use id="reset" xlink:href="#resetDef" x="30" y="36" onmousedown="handleReset()"/>
   <use id="arrowup" xlink:href="#arrowUp" x="0" y="0" onmousedown="handlePan(0,-1)"/>
  <use id="arrowright" xlink:href="#arrowRight" x="0" y="0" onmousedown="handlePan(1,0)"/>
  <use id="arrowdown" xlink:href="#arrowDown" x="0" y="0" onmousedown="handlePan(0,1)"/>
  <use id="arrowleft" xlink:href="#arrowLeft" x="0" y="0" onmousedown="handlePan(-1,0)"/>
</g>
<svg viewBox="0 0 15 15" width="100%" height="30px" preserveAspectRatio="xMaxYMin meet">
 <g id="arrow_out" transform="scale(0.3 0.3)">
  <a xlink:href="dir_19c1a852add0c7c0d4e6a9ddfb1e6a45_dep_org.svg" target="_base">
   <rect id="button" ry="5" rx="5" y="6" x="6" height="38" width="38"
        fill="#f2f5e9" fill-opacity="0.5" stroke="#606060" stroke-width="1.0"/>
   <path id="arrow"
     d="M 11.500037,31.436501 C 11.940474,20.09759 22.043105,11.32322 32.158766,21.979434 L 37.068811,17.246167 C 37.068811,17.246167 37.088388,32 37.088388,32 L 22.160133,31.978069 C 22.160133,31.978069 26.997745,27.140456 26.997745,27.140456 C 18.528582,18.264221 13.291696,25.230495 11.500037,31.436501 z"
     style="fill:#404040;"/>
  </a>
 </g>
</svg>

<style type='text/css'>
<![CDATA[
[data-mouse-over-selected='false'] { opacity: 0.7; }
[data-mouse-over-selected='true']  { opacity: 1.0; }
]]>
</style>
<script type="application/ecmascript"><![CDATA[
document.addEventListener('DOMContentLoaded', (event) => {
  highlightEdges();
  highlightAdjacentNodes();
});
]]></script>
</svg>
