<?xml version="1.0" encoding="UTF-8" standalone="no"?>
<!DOCTYPE svg PUBLIC "-//W3C//DTD SVG 1.1//EN"
 "http://www.w3.org/Graphics/SVG/1.1/DTD/svg11.dtd">
<!-- Generated by graphviz version 12.2.1 (20241206.2353)
 -->
<!-- Title: src/main/java/com/hust/ittnk68/cnpm/view/DuongFXToggleDatePicker.java Pages: 1 -->
<svg width="1908pt" height="120pt"
 viewBox="0.00 0.00 1908.38 120.00" xmlns="http://www.w3.org/2000/svg" xmlns:xlink="http://www.w3.org/1999/xlink">
<g id="graph0" class="graph" transform="scale(1 1) rotate(0) translate(4 116)">
<title>src/main/java/com/hust/ittnk68/cnpm/view/DuongFXToggleDatePicker.java</title>
<!-- Node1 -->
<g id="Node000001" class="node">
<title>Node1</title>
<g id="a_Node000001"><a xlink:title=" ">
<polygon fill="#999999" stroke="#666666" points="1015.12,-112 843.88,-112 843.88,-68 1015.12,-68 1015.12,-112"/>
<text text-anchor="start" x="851.88" y="-98.5" font-family="Helvetica,sans-Serif" font-size="10.00">src/main/java/com/hust</text>
<text text-anchor="start" x="851.88" y="-86.5" font-family="Helvetica,sans-Serif" font-size="10.00">/ittnk68/cnpm/view/DuongFXToggle</text>
<text text-anchor="middle" x="929.5" y="-74.5" font-family="Helvetica,sans-Serif" font-size="10.00">DatePicker.java</text>
</a>
</g>
</g>
<!-- Node2 -->
<g id="Node000002" class="node">
<title>Node2</title>
<g id="a_Node000002"><a xlink:title=" ">
<polygon fill="#e0e0e0" stroke="#999999" points="103,-26 0,-26 0,-6 103,-6 103,-26"/>
<text text-anchor="middle" x="51.5" y="-12.5" font-family="Helvetica,sans-Serif" font-size="10.00">java.time.LocalDate</text>
</a>
</g>
</g>
<!-- Node1&#45;&gt;Node2 -->
<g id="edge1_Node000001_Node000002" class="edge">
<title>Node1&#45;&gt;Node2</title>
<g id="a_edge1_Node000001_Node000002"><a xlink:title=" ">
<path fill="none" stroke="#63b8ff" d="M843.39,-87.83C693.83,-84.73 376.76,-73.4 112.5,-32 107.25,-31.18 101.8,-30.13 96.4,-28.96"/>
<polygon fill="#63b8ff" stroke="#63b8ff" points="97.49,-25.62 86.96,-26.79 95.92,-32.44 97.49,-25.62"/>
</a>
</g>
</g>
<!-- Node3 -->
<g id="Node000003" class="node">
<title>Node3</title>
<g id="a_Node000003"><a xlink:title=" ">
<polygon fill="#e0e0e0" stroke="#999999" points="209.88,-26 121.12,-26 121.12,-6 209.88,-6 209.88,-26"/>
<text text-anchor="middle" x="165.5" y="-12.5" font-family="Helvetica,sans-Serif" font-size="10.00">java.time.ZoneId</text>
</a>
</g>
</g>
<!-- Node1&#45;&gt;Node3 -->
<g id="edge2_Node000001_Node000003" class="edge">
<title>Node1&#45;&gt;Node3</title>
<g id="a_edge2_Node000001_Node000003"><a xlink:title=" ">
<path fill="none" stroke="#63b8ff" d="M843.44,-87.52C709.02,-84 441.54,-72.1 218.5,-32 214.4,-31.26 210.16,-30.34 205.95,-29.32"/>
<polygon fill="#63b8ff" stroke="#63b8ff" points="207,-25.98 196.44,-26.83 205.22,-32.75 207,-25.98"/>
</a>
</g>
</g>
<!-- Node4 -->
<g id="Node000004" class="node">
<title>Node4</title>
<g id="a_Node000004"><a xlink:title=" ">
<polygon fill="#e0e0e0" stroke="#999999" points="359.25,-32 227.75,-32 227.75,0 359.25,0 359.25,-32"/>
<text text-anchor="start" x="235.75" y="-18.5" font-family="Helvetica,sans-Serif" font-size="10.00">atlantafx.base.layout.Input</text>
<text text-anchor="middle" x="293.5" y="-6.5" font-family="Helvetica,sans-Serif" font-size="10.00">Group</text>
</a>
</g>
</g>
<!-- Node1&#45;&gt;Node4 -->
<g id="edge3_Node000001_Node000004" class="edge">
<title>Node1&#45;&gt;Node4</title>
<g id="a_edge3_Node000001_Node000004"><a xlink:title=" ">
<path fill="none" stroke="#63b8ff" d="M843.64,-82.86C735.61,-74.55 544.23,-57.91 370.82,-32.26"/>
<polygon fill="#63b8ff" stroke="#63b8ff" points="371.6,-28.84 361.19,-30.82 370.56,-35.76 371.6,-28.84"/>
</a>
</g>
</g>
<!-- Node5 -->
<g id="Node000005" class="node">
<title>Node5</title>
<g id="a_Node000005"><a xlink:title=" ">
<polygon fill="#e0e0e0" stroke="#999999" points="523.75,-32 377.25,-32 377.25,0 523.75,0 523.75,-32"/>
<text text-anchor="start" x="385.25" y="-18.5" font-family="Helvetica,sans-Serif" font-size="10.00">javafx.beans.property.Boolean</text>
<text text-anchor="middle" x="450.5" y="-6.5" font-family="Helvetica,sans-Serif" font-size="10.00">Property</text>
</a>
</g>
</g>
<!-- Node1&#45;&gt;Node5 -->
<g id="edge4_Node000001_Node000005" class="edge">
<title>Node1&#45;&gt;Node5</title>
<g id="a_edge4_Node000001_Node000005"><a xlink:title=" ">
<path fill="none" stroke="#63b8ff" d="M843.39,-77.61C765.48,-67.07 647.28,-50.55 535.39,-32.44"/>
<polygon fill="#63b8ff" stroke="#63b8ff" points="536.16,-29.02 525.73,-30.87 535.04,-35.93 536.16,-29.02"/>
</a>
</g>
</g>
<!-- Node6 -->
<g id="Node000006" class="node">
<title>Node6</title>
<g id="a_Node000006"><a xlink:title=" ">
<polygon fill="#e0e0e0" stroke="#999999" points="681.38,-32 541.62,-32 541.62,0 681.38,0 681.38,-32"/>
<text text-anchor="start" x="549.62" y="-18.5" font-family="Helvetica,sans-Serif" font-size="10.00">javafx.beans.property.Object</text>
<text text-anchor="middle" x="611.5" y="-6.5" font-family="Helvetica,sans-Serif" font-size="10.00">Property</text>
</a>
</g>
</g>
<!-- Node1&#45;&gt;Node6 -->
<g id="edge5_Node000001_Node000006" class="edge">
<title>Node1&#45;&gt;Node6</title>
<g id="a_edge5_Node000001_Node000006"><a xlink:title=" ">
<path fill="none" stroke="#63b8ff" d="M843.44,-69.52C795.95,-58.76 737.37,-45.5 690.96,-34.99"/>
<polygon fill="#63b8ff" stroke="#63b8ff" points="691.75,-31.58 681.22,-32.79 690.2,-38.41 691.75,-31.58"/>
</a>
</g>
</g>
<!-- Node7 -->
<g id="Node000007" class="node">
<title>Node7</title>
<g id="a_Node000007"><a xlink:title=" ">
<polygon fill="#e0e0e0" stroke="#999999" points="841.12,-32 699.88,-32 699.88,0 841.12,0 841.12,-32"/>
<text text-anchor="start" x="707.88" y="-18.5" font-family="Helvetica,sans-Serif" font-size="10.00">javafx.beans.property.Simple</text>
<text text-anchor="middle" x="770.5" y="-6.5" font-family="Helvetica,sans-Serif" font-size="10.00">BooleanProperty</text>
</a>
</g>
</g>
<!-- Node1&#45;&gt;Node7 -->
<g id="edge6_Node000001_Node000007" class="edge">
<title>Node1&#45;&gt;Node7</title>
<g id="a_edge6_Node000001_Node000007"><a xlink:title=" ">
<path fill="none" stroke="#63b8ff" d="M882.23,-67.59C860.92,-57.95 835.91,-46.62 814.95,-37.13"/>
<polygon fill="#63b8ff" stroke="#63b8ff" points="816.65,-34.06 806.1,-33.12 813.76,-40.43 816.65,-34.06"/>
</a>
</g>
</g>
<!-- Node8 -->
<g id="Node000008" class="node">
<title>Node8</title>
<g id="a_Node000008"><a xlink:title=" ">
<polygon fill="#e0e0e0" stroke="#999999" points="1000.12,-32 858.88,-32 858.88,0 1000.12,0 1000.12,-32"/>
<text text-anchor="start" x="866.88" y="-18.5" font-family="Helvetica,sans-Serif" font-size="10.00">javafx.beans.property.Simple</text>
<text text-anchor="middle" x="929.5" y="-6.5" font-family="Helvetica,sans-Serif" font-size="10.00">ObjectProperty</text>
</a>
</g>
</g>
<!-- Node1&#45;&gt;Node8 -->
<g id="edge7_Node000001_Node000008" class="edge">
<title>Node1&#45;&gt;Node8</title>
<g id="a_edge7_Node000001_Node000008"><a xlink:title=" ">
<path fill="none" stroke="#63b8ff" d="M929.5,-67.79C929.5,-60.18 929.5,-51.52 929.5,-43.52"/>
<polygon fill="#63b8ff" stroke="#63b8ff" points="933,-43.64 929.5,-33.64 926,-43.64 933,-43.64"/>
</a>
</g>
</g>
<!-- Node9 -->
<g id="Node000009" class="node">
<title>Node9</title>
<g id="a_Node000009"><a xlink:title=" ">
<polygon fill="#e0e0e0" stroke="#999999" points="1152.75,-32 1018.25,-32 1018.25,0 1152.75,0 1152.75,-32"/>
<text text-anchor="start" x="1026.25" y="-18.5" font-family="Helvetica,sans-Serif" font-size="10.00">javafx.beans.value.Change</text>
<text text-anchor="middle" x="1085.5" y="-6.5" font-family="Helvetica,sans-Serif" font-size="10.00">Listener</text>
</a>
</g>
</g>
<!-- Node1&#45;&gt;Node9 -->
<g id="edge8_Node000001_Node000009" class="edge">
<title>Node1&#45;&gt;Node9</title>
<g id="a_edge8_Node000001_Node000009"><a xlink:title=" ">
<path fill="none" stroke="#63b8ff" d="M975.88,-67.59C996.69,-57.99 1021.1,-46.72 1041.6,-37.26"/>
<polygon fill="#63b8ff" stroke="#63b8ff" points="1042.94,-40.5 1050.55,-33.13 1040.01,-34.14 1042.94,-40.5"/>
</a>
</g>
</g>
<!-- Node10 -->
<g id="Node000010" class="node">
<title>Node10</title>
<g id="a_Node000010"><a xlink:title=" ">
<polygon fill="#e0e0e0" stroke="#999999" points="1320.62,-32 1170.38,-32 1170.38,0 1320.62,0 1320.62,-32"/>
<text text-anchor="start" x="1178.38" y="-18.5" font-family="Helvetica,sans-Serif" font-size="10.00">javafx.beans.value.Observable</text>
<text text-anchor="middle" x="1245.5" y="-6.5" font-family="Helvetica,sans-Serif" font-size="10.00">Value</text>
</a>
</g>
</g>
<!-- Node1&#45;&gt;Node10 -->
<g id="edge9_Node000001_Node000010" class="edge">
<title>Node1&#45;&gt;Node10</title>
<g id="a_edge9_Node000001_Node000010"><a xlink:title=" ">
<path fill="none" stroke="#63b8ff" d="M1015.43,-69.42C1062.54,-58.69 1120.52,-45.48 1166.49,-35"/>
<polygon fill="#63b8ff" stroke="#63b8ff" points="1167.16,-38.44 1176.13,-32.81 1165.6,-31.61 1167.16,-38.44"/>
</a>
</g>
</g>
<!-- Node11 -->
<g id="Node000011" class="node">
<title>Node11</title>
<g id="a_Node000011"><a xlink:title=" ">
<polygon fill="#e0e0e0" stroke="#999999" points="1490.75,-26 1338.25,-26 1338.25,-6 1490.75,-6 1490.75,-26"/>
<text text-anchor="middle" x="1414.5" y="-12.5" font-family="Helvetica,sans-Serif" font-size="10.00">javafx.scene.control.CheckBox</text>
</a>
</g>
</g>
<!-- Node1&#45;&gt;Node11 -->
<g id="edge10_Node000001_Node000011" class="edge">
<title>Node1&#45;&gt;Node11</title>
<g id="a_edge10_Node000001_Node000011"><a xlink:title=" ">
<path fill="none" stroke="#63b8ff" d="M1015.45,-77.59C1096.54,-66.63 1221.44,-49.23 1329.5,-32 1336.49,-30.89 1343.8,-29.67 1351.07,-28.43"/>
<polygon fill="#63b8ff" stroke="#63b8ff" points="1351.65,-31.88 1360.91,-26.73 1350.46,-24.98 1351.65,-31.88"/>
</a>
</g>
</g>
<!-- Node12 -->
<g id="Node000012" class="node">
<title>Node12</title>
<g id="a_Node000012"><a xlink:title=" ">
<polygon fill="#e0e0e0" stroke="#999999" points="1636.38,-32 1508.62,-32 1508.62,0 1636.38,0 1636.38,-32"/>
<text text-anchor="start" x="1516.62" y="-18.5" font-family="Helvetica,sans-Serif" font-size="10.00">javafx.scene.control.Date</text>
<text text-anchor="middle" x="1572.5" y="-6.5" font-family="Helvetica,sans-Serif" font-size="10.00">Picker</text>
</a>
</g>
</g>
<!-- Node1&#45;&gt;Node12 -->
<g id="edge11_Node000001_Node000012" class="edge">
<title>Node1&#45;&gt;Node12</title>
<g id="a_edge11_Node000001_Node000012"><a xlink:title=" ">
<path fill="none" stroke="#63b8ff" d="M1015.31,-83.19C1124.81,-75.15 1320.25,-58.73 1497.12,-32.26"/>
<polygon fill="#63b8ff" stroke="#63b8ff" points="1497.61,-35.73 1506.98,-30.77 1496.57,-28.81 1497.61,-35.73"/>
</a>
</g>
</g>
<!-- Node13 -->
<g id="Node000013" class="node">
<title>Node13</title>
<g id="a_Node000013"><a xlink:title=" ">
<polygon fill="#e0e0e0" stroke="#999999" points="1784.5,-26 1654.5,-26 1654.5,-6 1784.5,-6 1784.5,-26"/>
<text text-anchor="middle" x="1719.5" y="-12.5" font-family="Helvetica,sans-Serif" font-size="10.00">javafx.scene.control.Label</text>
</a>
</g>
</g>
<!-- Node1&#45;&gt;Node13 -->
<g id="edge12_Node000001_Node000013" class="edge">
<title>Node1&#45;&gt;Node13</title>
<g id="a_edge12_Node000001_Node000013"><a xlink:title=" ">
<path fill="none" stroke="#63b8ff" d="M1015.56,-85.5C1150.38,-79.27 1419.37,-63.8 1645.5,-32 1652.23,-31.05 1659.28,-29.87 1666.23,-28.6"/>
<polygon fill="#63b8ff" stroke="#63b8ff" points="1666.74,-32.06 1675.9,-26.74 1665.42,-25.19 1666.74,-32.06"/>
</a>
</g>
</g>
<!-- Node14 -->
<g id="Node000014" class="node">
<title>Node14</title>
<g id="a_Node000014"><a xlink:title=" ">
<polygon fill="#e0e0e0" stroke="#999999" points="1900.38,-26 1802.62,-26 1802.62,-6 1900.38,-6 1900.38,-26"/>
<text text-anchor="middle" x="1851.5" y="-12.5" font-family="Helvetica,sans-Serif" font-size="10.00">javafx.scene.Node</text>
</a>
</g>
</g>
<!-- Node1&#45;&gt;Node14 -->
<g id="edge13_Node000001_Node000014" class="edge">
<title>Node1&#45;&gt;Node14</title>
<g id="a_edge13_Node000001_Node000014"><a xlink:title=" ">
<path fill="none" stroke="#63b8ff" d="M1015.33,-88.64C1171.28,-86.81 1511.13,-77.42 1793.5,-32 1798.24,-31.24 1803.15,-30.26 1808.02,-29.18"/>
<polygon fill="#63b8ff" stroke="#63b8ff" points="1808.83,-32.58 1817.74,-26.85 1807.2,-25.78 1808.83,-32.58"/>
</a>
</g>
</g>
</g>
</svg>
