<?xml version="1.0" encoding="UTF-8" standalone="no"?>
<!DOCTYPE svg PUBLIC "-//W3C//DTD SVG 1.1//EN"
 "http://www.w3.org/Graphics/SVG/1.1/DTD/svg11.dtd">
<!-- Generated by graphviz version 12.2.1 (20241206.2353)
 -->
<!-- Title: com.hust.ittnk68.cnpm.type.ExpenseType Pages: 1 -->
<svg width="216pt" height="312pt"
 viewBox="0.00 0.00 216.25 312.00" xmlns="http://www.w3.org/2000/svg" xmlns:xlink="http://www.w3.org/1999/xlink">

<svg id="main" version="1.1" xmlns="http://www.w3.org/2000/svg" xmlns:xlink="http://www.w3.org/1999/xlink" xml:space="preserve">

<style type="text/css"><![CDATA[
.node, .edge {opacity: 0.7;}
.node.selected, .edge.selected {opacity: 1;}
.edge:hover path { stroke: red; }
.edge:hover polygon { stroke: red; fill: red; }
]]></style>
<script type="application/ecmascript" xlink:href="svg.min.js"/>
<svg id="graph" class="graph">
<g id="graph0" class="graph" transform="scale(1 1) rotate(0) translate(4 308)">
<title>com.hust.ittnk68.cnpm.type.ExpenseType</title>
<!-- Node1 -->
<g id="Node000001" class="node">
<title>Node1</title>
<g id="a_Node000001"><a xlink:title=" ">
<polygon fill="#999999" stroke="none" points="170.38,-192 37.88,-192 37.88,0 170.38,0 170.38,-192"/>
<text text-anchor="start" x="41.88" y="-178.5" font-family="Helvetica,sans-Serif" font-size="10.00">com.hust.ittnk68.cnpm.type.</text>
<text text-anchor="start" x="74.5" y="-166.5" font-family="Helvetica,sans-Serif" font-size="10.00">ExpenseType</text>
<text text-anchor="start" x="51.19" y="-150.5" font-family="Helvetica,sans-Serif" font-size="10.00">+</text>
<text text-anchor="start" x="70.5" y="-150.5" font-family="Helvetica,sans-Serif" font-size="10.00">SERVICE</text>
<text text-anchor="start" x="51.19" y="-134.5" font-family="Helvetica,sans-Serif" font-size="10.00">+</text>
<text text-anchor="start" x="70.5" y="-134.5" font-family="Helvetica,sans-Serif" font-size="10.00">ELECTRIC</text>
<text text-anchor="start" x="51.19" y="-118.5" font-family="Helvetica,sans-Serif" font-size="10.00">+</text>
<text text-anchor="start" x="70.5" y="-118.5" font-family="Helvetica,sans-Serif" font-size="10.00">WATER</text>
<text text-anchor="start" x="51.19" y="-102.5" font-family="Helvetica,sans-Serif" font-size="10.00">+</text>
<text text-anchor="start" x="70.5" y="-102.5" font-family="Helvetica,sans-Serif" font-size="10.00">VEHICLE_PARK</text>
<text text-anchor="start" x="51.19" y="-86.5" font-family="Helvetica,sans-Serif" font-size="10.00">+</text>
<text text-anchor="start" x="70.5" y="-86.5" font-family="Helvetica,sans-Serif" font-size="10.00">DONATION</text>
<text text-anchor="start" x="51.19" y="-70.5" font-family="Helvetica,sans-Serif" font-size="10.00">+</text>
<text text-anchor="start" x="70.5" y="-70.5" font-family="Helvetica,sans-Serif" font-size="10.00">ExpenseType()</text>
<text text-anchor="start" x="51.19" y="-54.5" font-family="Helvetica,sans-Serif" font-size="10.00">+</text>
<text text-anchor="start" x="70.5" y="-54.5" font-family="Helvetica,sans-Serif" font-size="10.00">toString()</text>
<text text-anchor="start" x="51.19" y="-38.5" font-family="Helvetica,sans-Serif" font-size="10.00">+</text>
<text text-anchor="start" x="70.5" y="-38.5" font-family="Helvetica,sans-Serif" font-size="10.00">matchByString()</text>
<text text-anchor="start" x="51.19" y="-22.5" font-family="Helvetica,sans-Serif" font-size="10.00">+</text>
<text text-anchor="start" x="70.5" y="-22.5" font-family="Helvetica,sans-Serif" font-size="10.00">[static initializer]()</text>
<text text-anchor="start" x="51.19" y="-6.5" font-family="Helvetica,sans-Serif" font-size="10.00">+</text>
<text text-anchor="start" x="70.5" y="-6.5" font-family="Helvetica,sans-Serif" font-size="10.00">getIkonCode()</text>
<polygon fill="#666666" stroke="#666666" points="37.88,-162 37.88,-162 170.38,-162 170.38,-162 37.88,-162"/>
<polygon fill="#666666" stroke="#666666" points="37.88,-82 37.88,-82 68.5,-82 68.5,-82 37.88,-82"/>
<polygon fill="#666666" stroke="#666666" points="68.5,-82 68.5,-82 170.38,-82 170.38,-82 68.5,-82"/>
<polygon fill="none" stroke="#666666" points="37.88,0 37.88,-192 170.38,-192 170.38,0 37.88,0"/>
</a>
</g>
</g>
<!-- Node2 -->
<g id="Node000002" class="node">
<title>Node2</title>
<g id="a_Node000002"><a xlink:title=" ">
<polygon fill="white" stroke="none" points="208.25,-304 0,-304 0,-240 208.25,-240 208.25,-304"/>
<text text-anchor="start" x="4" y="-290.5" font-family="Helvetica,sans-Serif" font-size="10.00">static final Map&lt; com.hust.ittnk68.cnpm.type.</text>
<text text-anchor="start" x="57.62" y="-278.5" font-family="Helvetica,sans-Serif" font-size="10.00">ExpenseType, Ikon &gt;</text>
<text text-anchor="start" x="102.62" y="-262.5" font-family="Helvetica,sans-Serif" font-size="10.00"> </text>
<text text-anchor="start" x="102.62" y="-246.5" font-family="Helvetica,sans-Serif" font-size="10.00"> </text>
<polygon fill="#666666" stroke="#666666" points="0,-274 0,-274 208.25,-274 208.25,-274 0,-274"/>
<polygon fill="#666666" stroke="#666666" points="0,-258 0,-258 208.25,-258 208.25,-258 0,-258"/>
<polygon fill="none" stroke="#666666" points="0,-240 0,-304 208.25,-304 208.25,-240 0,-240"/>
</a>
</g>
</g>
<!-- Node2&#45;&gt;Node1 -->
<g id="edge1_Node000001_Node000002" class="edge">
<title>Node2&#45;&gt;Node1</title>
<g id="a_edge1_Node000001_Node000002"><a xlink:title=" ">
<path fill="none" stroke="#63b8ff" d="M104.12,-240.29C104.12,-229.79 104.12,-217.38 104.12,-204.32"/>
<polygon fill="none" stroke="#63b8ff" points="104.13,-204.54 100.13,-198.54 104.13,-192.54 108.13,-198.54 104.13,-204.54"/>
</a>
</g>
<text text-anchor="middle" x="152.12" y="-212.5" font-family="Helvetica,sans-Serif" font-size="10.00" fill="grey"> +expenseTypeToIcon</text>
</g>
</g>
</svg>
</svg>

<style type='text/css'>
<![CDATA[
[data-mouse-over-selected='false'] { opacity: 0.7; }
[data-mouse-over-selected='true']  { opacity: 1.0; }
]]>
</style>
<script type="application/ecmascript"><![CDATA[
document.addEventListener('DOMContentLoaded', (event) => {
  highlightEdges();
  highlightAdjacentNodes();
});
]]></script>
</svg>
