<?xml version="1.0" encoding="UTF-8" standalone="no"?>
<!DOCTYPE svg PUBLIC "-//W3C//DTD SVG 1.1//EN"
 "http://www.w3.org/Graphics/SVG/1.1/DTD/svg11.dtd">
<!-- Generated by graphviz version 12.2.1 (20241206.2353)
 -->
<!-- Title: com.hust.ittnk68.cnpm.type.VehicleType Pages: 1 -->
<svg width="141pt" height="152pt"
 viewBox="0.00 0.00 140.50 152.00" xmlns="http://www.w3.org/2000/svg" xmlns:xlink="http://www.w3.org/1999/xlink">
<g id="graph0" class="graph" transform="scale(1 1) rotate(0) translate(4 148)">
<title>com.hust.ittnk68.cnpm.type.VehicleType</title>
<!-- Node1 -->
<g id="Node000001" class="node">
<title>Node1</title>
<g id="a_Node000001"><a xlink:title=" ">
<polygon fill="#999999" stroke="none" points="132.5,-144 0,-144 0,0 132.5,0 132.5,-144"/>
<text text-anchor="start" x="4" y="-130.5" font-family="Helvetica,sans-Serif" font-size="10.00">com.hust.ittnk68.cnpm.type.</text>
<text text-anchor="start" x="39.62" y="-118.5" font-family="Helvetica,sans-Serif" font-size="10.00">VehicleType</text>
<text text-anchor="start" x="7.88" y="-102.5" font-family="Helvetica,sans-Serif" font-size="10.00">+</text>
<text text-anchor="start" x="21.75" y="-102.5" font-family="Helvetica,sans-Serif" font-size="10.00">TRUCK</text>
<text text-anchor="start" x="7.88" y="-86.5" font-family="Helvetica,sans-Serif" font-size="10.00">+</text>
<text text-anchor="start" x="21.75" y="-86.5" font-family="Helvetica,sans-Serif" font-size="10.00">CAR</text>
<text text-anchor="start" x="7.88" y="-70.5" font-family="Helvetica,sans-Serif" font-size="10.00">+</text>
<text text-anchor="start" x="21.75" y="-70.5" font-family="Helvetica,sans-Serif" font-size="10.00">BICYCLE</text>
<text text-anchor="start" x="7.88" y="-54.5" font-family="Helvetica,sans-Serif" font-size="10.00">+</text>
<text text-anchor="start" x="21.75" y="-54.5" font-family="Helvetica,sans-Serif" font-size="10.00">MOTORCYCLE</text>
<text text-anchor="start" x="7.88" y="-38.5" font-family="Helvetica,sans-Serif" font-size="10.00">+</text>
<text text-anchor="start" x="21.75" y="-38.5" font-family="Helvetica,sans-Serif" font-size="10.00">ELECTRIC_BICYCLE</text>
<text text-anchor="start" x="7.88" y="-22.5" font-family="Helvetica,sans-Serif" font-size="10.00">+</text>
<text text-anchor="start" x="21.75" y="-22.5" font-family="Helvetica,sans-Serif" font-size="10.00">VehicleType()</text>
<text text-anchor="start" x="7.88" y="-6.5" font-family="Helvetica,sans-Serif" font-size="10.00">+</text>
<text text-anchor="start" x="21.75" y="-6.5" font-family="Helvetica,sans-Serif" font-size="10.00">toString()</text>
<polygon fill="#666666" stroke="#666666" points="0,-114 0,-114 132.5,-114 132.5,-114 0,-114"/>
<polygon fill="#666666" stroke="#666666" points="0,-34 0,-34 19.75,-34 19.75,-34 0,-34"/>
<polygon fill="#666666" stroke="#666666" points="19.75,-34 19.75,-34 132.5,-34 132.5,-34 19.75,-34"/>
<polygon fill="none" stroke="#666666" points="0,0 0,-144 132.5,-144 132.5,0 0,0"/>
</a>
</g>
</g>
</g>
</svg>
