<?xml version="1.0" encoding="UTF-8" standalone="no"?>
<!DOCTYPE svg PUBLIC "-//W3C//DTD SVG 1.1//EN"
 "http://www.w3.org/Graphics/SVG/1.1/DTD/svg11.dtd">
<!-- Generated by graphviz version 12.2.1 (20241206.2353)
 -->
<!-- Title: com.hust.ittnk68.cnpm.type.Sex Pages: 1 -->
<svg width="158pt" height="108pt"
 viewBox="0.00 0.00 157.75 108.00" xmlns="http://www.w3.org/2000/svg" xmlns:xlink="http://www.w3.org/1999/xlink">
<g id="graph0" class="graph" transform="scale(1 1) rotate(0) translate(4 104)">
<title>com.hust.ittnk68.cnpm.type.Sex</title>
<!-- Node1 -->
<g id="Node000001" class="node">
<title>Node1</title>
<g id="a_Node000001"><a xlink:title=" ">
<polygon fill="#999999" stroke="none" points="149.75,-100 0,-100 0,0 149.75,0 149.75,-100"/>
<text text-anchor="start" x="4" y="-86.5" font-family="Helvetica,sans-Serif" font-size="10.00">com.hust.ittnk68.cnpm.type.Sex</text>
<text text-anchor="start" x="19.31" y="-70.5" font-family="Helvetica,sans-Serif" font-size="10.00">+</text>
<text text-anchor="start" x="44.62" y="-70.5" font-family="Helvetica,sans-Serif" font-size="10.00">MALE</text>
<text text-anchor="start" x="19.31" y="-54.5" font-family="Helvetica,sans-Serif" font-size="10.00">+</text>
<text text-anchor="start" x="44.62" y="-54.5" font-family="Helvetica,sans-Serif" font-size="10.00">FEMALE</text>
<text text-anchor="start" x="19.31" y="-38.5" font-family="Helvetica,sans-Serif" font-size="10.00">+</text>
<text text-anchor="start" x="44.62" y="-38.5" font-family="Helvetica,sans-Serif" font-size="10.00">Sex()</text>
<text text-anchor="start" x="19.31" y="-22.5" font-family="Helvetica,sans-Serif" font-size="10.00">+</text>
<text text-anchor="start" x="44.62" y="-22.5" font-family="Helvetica,sans-Serif" font-size="10.00">toString()</text>
<text text-anchor="start" x="19.31" y="-6.5" font-family="Helvetica,sans-Serif" font-size="10.00">+</text>
<text text-anchor="start" x="44.62" y="-6.5" font-family="Helvetica,sans-Serif" font-size="10.00">matchByString()</text>
<polygon fill="#666666" stroke="#666666" points="0,-82 0,-82 149.75,-82 149.75,-82 0,-82"/>
<polygon fill="#666666" stroke="#666666" points="0,-50 0,-50 42.62,-50 42.62,-50 0,-50"/>
<polygon fill="#666666" stroke="#666666" points="42.62,-50 42.62,-50 149.75,-50 149.75,-50 42.62,-50"/>
<polygon fill="none" stroke="#666666" points="0,0 0,-100 149.75,-100 149.75,0 0,0"/>
</a>
</g>
</g>
</g>
</svg>
