<?xml version="1.0" encoding="UTF-8" standalone="no"?>
<!DOCTYPE svg PUBLIC "-//W3C//DTD SVG 1.1//EN"
 "http://www.w3.org/Graphics/SVG/1.1/DTD/svg11.dtd">
<!-- Generated by graphviz version 12.2.1 (20241206.2353)
 -->
<!-- Title: src/main/java/com/hust/ittnk68/cnpm/type/ExpenseType.java Pages: 1 -->
<svg width="1195pt" height="108pt"
 viewBox="0.00 0.00 1194.75 108.00" xmlns="http://www.w3.org/2000/svg" xmlns:xlink="http://www.w3.org/1999/xlink">
<g id="graph0" class="graph" transform="scale(1 1) rotate(0) translate(4 104)">
<title>src/main/java/com/hust/ittnk68/cnpm/type/ExpenseType.java</title>
<!-- Node1 -->
<g id="Node000001" class="node">
<title>Node1</title>
<g id="a_Node000001"><a xlink:title=" ">
<polygon fill="#999999" stroke="#666666" points="556.88,-100 376.62,-100 376.62,-68 556.88,-68 556.88,-100"/>
<text text-anchor="start" x="384.62" y="-86.5" font-family="Helvetica,sans-Serif" font-size="10.00">src/main/java/com/hust</text>
<text text-anchor="middle" x="466.75" y="-74.5" font-family="Helvetica,sans-Serif" font-size="10.00">/ittnk68/cnpm/type/ExpenseType.java</text>
</a>
</g>
</g>
<!-- Node2 -->
<g id="Node000002" class="node">
<title>Node2</title>
<g id="a_Node000002"><a xlink:title=" ">
<polygon fill="#e0e0e0" stroke="#999999" points="71.5,-26 0,-26 0,-6 71.5,-6 71.5,-26"/>
<text text-anchor="middle" x="35.75" y="-12.5" font-family="Helvetica,sans-Serif" font-size="10.00">java.util.Map</text>
</a>
</g>
</g>
<!-- Node1&#45;&gt;Node2 -->
<g id="edge1_Node000001_Node000002" class="edge">
<title>Node1&#45;&gt;Node2</title>
<g id="a_edge1_Node000001_Node000002"><a xlink:title=" ">
<path fill="none" stroke="#63b8ff" d="M376.19,-75.94C297.41,-68.64 180.54,-55 80.75,-32 77.94,-31.35 75.06,-30.6 72.18,-29.79"/>
<polygon fill="#63b8ff" stroke="#63b8ff" points="73.24,-26.45 62.66,-26.87 71.19,-33.15 73.24,-26.45"/>
</a>
</g>
</g>
<!-- Node3 -->
<g id="Node000003" class="node">
<title>Node3</title>
<g id="a_Node000003"><a xlink:title=" ">
<polygon fill="#e0e0e0" stroke="#999999" points="178.12,-26 89.38,-26 89.38,-6 178.12,-6 178.12,-26"/>
<text text-anchor="middle" x="133.75" y="-12.5" font-family="Helvetica,sans-Serif" font-size="10.00">java.util.Optional</text>
</a>
</g>
</g>
<!-- Node1&#45;&gt;Node3 -->
<g id="edge2_Node000001_Node000003" class="edge">
<title>Node1&#45;&gt;Node3</title>
<g id="a_edge2_Node000001_Node000003"><a xlink:title=" ">
<path fill="none" stroke="#63b8ff" d="M376.14,-68.75C321.1,-59.54 249.56,-46.57 186.75,-32 183.37,-31.21 179.87,-30.35 176.38,-29.45"/>
<polygon fill="#63b8ff" stroke="#63b8ff" points="177.32,-26.07 166.75,-26.85 175.5,-32.83 177.32,-26.07"/>
</a>
</g>
</g>
<!-- Node4 -->
<g id="Node000004" class="node">
<title>Node4</title>
<g id="a_Node000004"><a xlink:title=" ">
<polygon fill="#e0e0e0" stroke="#999999" points="277.38,-26 196.12,-26 196.12,-6 277.38,-6 277.38,-26"/>
<text text-anchor="middle" x="236.75" y="-12.5" font-family="Helvetica,sans-Serif" font-size="10.00">java.util.Arrays</text>
</a>
</g>
</g>
<!-- Node1&#45;&gt;Node4 -->
<g id="edge3_Node000001_Node000004" class="edge">
<title>Node1&#45;&gt;Node4</title>
<g id="a_edge3_Node000001_Node000004"><a xlink:title=" ">
<path fill="none" stroke="#63b8ff" d="M411.54,-67.59C375.89,-57.59 328.53,-44.19 286.75,-32 284.18,-31.25 281.54,-30.47 278.88,-29.69"/>
<polygon fill="#63b8ff" stroke="#63b8ff" points="279.97,-26.36 269.39,-26.87 277.97,-33.07 279.97,-26.36"/>
</a>
</g>
</g>
<!-- Node5 -->
<g id="Node000005" class="node">
<title>Node5</title>
<g id="a_Node000005"><a xlink:title=" ">
<polygon fill="#e0e0e0" stroke="#999999" points="390.12,-26 295.38,-26 295.38,-6 390.12,-6 390.12,-26"/>
<text text-anchor="middle" x="342.75" y="-12.5" font-family="Helvetica,sans-Serif" font-size="10.00">java.util.HashMap</text>
</a>
</g>
</g>
<!-- Node1&#45;&gt;Node5 -->
<g id="edge4_Node000001_Node000005" class="edge">
<title>Node1&#45;&gt;Node5</title>
<g id="a_edge4_Node000001_Node000005"><a xlink:title=" ">
<path fill="none" stroke="#63b8ff" d="M437.68,-67.53C417.41,-56.74 390.53,-42.43 370.55,-31.8"/>
<polygon fill="#63b8ff" stroke="#63b8ff" points="372.33,-28.78 361.86,-27.17 369.04,-34.96 372.33,-28.78"/>
</a>
</g>
</g>
<!-- Node6 -->
<g id="Node000006" class="node">
<title>Node6</title>
<g id="a_Node000006"><a xlink:title=" ">
<polygon fill="#e0e0e0" stroke="#999999" points="525.38,-26 408.12,-26 408.12,-6 525.38,-6 525.38,-26"/>
<text text-anchor="middle" x="466.75" y="-12.5" font-family="Helvetica,sans-Serif" font-size="10.00">org.kordamp.ikonli.Ikon</text>
</a>
</g>
</g>
<!-- Node1&#45;&gt;Node6 -->
<g id="edge5_Node000001_Node000006" class="edge">
<title>Node1&#45;&gt;Node6</title>
<g id="a_edge5_Node000001_Node000006"><a xlink:title=" ">
<path fill="none" stroke="#63b8ff" d="M466.75,-67.69C466.75,-58.8 466.75,-47.46 466.75,-37.77"/>
<polygon fill="#63b8ff" stroke="#63b8ff" points="470.25,-37.83 466.75,-27.83 463.25,-37.83 470.25,-37.83"/>
</a>
</g>
</g>
<!-- Node7 -->
<g id="Node000007" class="node">
<title>Node7</title>
<g id="a_Node000007"><a xlink:title=" ">
<polygon fill="#e0e0e0" stroke="#999999" points="684.38,-32 543.12,-32 543.12,0 684.38,0 684.38,-32"/>
<text text-anchor="start" x="551.12" y="-18.5" font-family="Helvetica,sans-Serif" font-size="10.00">org.kordamp.ikonli.material2.</text>
<text text-anchor="middle" x="613.75" y="-6.5" font-family="Helvetica,sans-Serif" font-size="10.00">Material2AL</text>
</a>
</g>
</g>
<!-- Node1&#45;&gt;Node7 -->
<g id="edge6_Node000001_Node000007" class="edge">
<title>Node1&#45;&gt;Node7</title>
<g id="a_edge6_Node000001_Node000007"><a xlink:title=" ">
<path fill="none" stroke="#63b8ff" d="M501.21,-67.53C521.42,-58.46 547.16,-46.9 568.92,-37.13"/>
<polygon fill="#63b8ff" stroke="#63b8ff" points="570.18,-40.4 577.87,-33.11 567.31,-34.01 570.18,-40.4"/>
</a>
</g>
</g>
<!-- Node8 -->
<g id="Node000008" class="node">
<title>Node8</title>
<g id="a_Node000008"><a xlink:title=" ">
<polygon fill="#e0e0e0" stroke="#999999" points="843.38,-32 702.12,-32 702.12,0 843.38,0 843.38,-32"/>
<text text-anchor="start" x="710.12" y="-18.5" font-family="Helvetica,sans-Serif" font-size="10.00">org.kordamp.ikonli.material2.</text>
<text text-anchor="middle" x="772.75" y="-6.5" font-family="Helvetica,sans-Serif" font-size="10.00">Material2MZ</text>
</a>
</g>
</g>
<!-- Node1&#45;&gt;Node8 -->
<g id="edge7_Node000001_Node000008" class="edge">
<title>Node1&#45;&gt;Node8</title>
<g id="a_edge7_Node000001_Node000008"><a xlink:title=" ">
<path fill="none" stroke="#63b8ff" d="M538.49,-67.53C584.04,-57.7 643.12,-44.96 690.55,-34.73"/>
<polygon fill="#63b8ff" stroke="#63b8ff" points="691.2,-38.17 700.24,-32.64 689.73,-31.33 691.2,-38.17"/>
</a>
</g>
</g>
<!-- Node9 -->
<g id="Node000009" class="node">
<title>Node9</title>
<g id="a_Node000009"><a xlink:title=" ">
<polygon fill="#e0e0e0" stroke="#999999" points="1002.38,-32 861.12,-32 861.12,0 1002.38,0 1002.38,-32"/>
<text text-anchor="start" x="869.12" y="-18.5" font-family="Helvetica,sans-Serif" font-size="10.00">org.kordamp.ikonli.material2.</text>
<text text-anchor="middle" x="931.75" y="-6.5" font-family="Helvetica,sans-Serif" font-size="10.00">Material2OutlinedMZ</text>
</a>
</g>
</g>
<!-- Node1&#45;&gt;Node9 -->
<g id="edge8_Node000001_Node000009" class="edge">
<title>Node1&#45;&gt;Node9</title>
<g id="a_edge8_Node000001_Node000009"><a xlink:title=" ">
<path fill="none" stroke="#63b8ff" d="M557.04,-72.53C632.72,-63.41 743.9,-49.25 849.53,-32.47"/>
<polygon fill="#63b8ff" stroke="#63b8ff" points="849.91,-35.96 859.23,-30.92 848.8,-29.04 849.91,-35.96"/>
</a>
</g>
</g>
<!-- Node10 -->
<g id="Node000010" class="node">
<title>Node10</title>
<g id="a_Node000010"><a xlink:title=" ">
<polygon fill="#e0e0e0" stroke="#999999" points="1186.75,-32 1020.75,-32 1020.75,0 1186.75,0 1186.75,-32"/>
<text text-anchor="start" x="1028.75" y="-18.5" font-family="Helvetica,sans-Serif" font-size="10.00">com.fasterxml.jackson.annotation.</text>
<text text-anchor="middle" x="1103.75" y="-6.5" font-family="Helvetica,sans-Serif" font-size="10.00">JsonIgnore</text>
</a>
</g>
</g>
<!-- Node1&#45;&gt;Node10 -->
<g id="edge9_Node000001_Node000010" class="edge">
<title>Node1&#45;&gt;Node10</title>
<g id="a_edge9_Node000001_Node000010"><a xlink:title=" ">
<path fill="none" stroke="#63b8ff" d="M557.13,-76.44C662.98,-68.34 843.86,-53.15 1009.17,-32.28"/>
<polygon fill="#63b8ff" stroke="#63b8ff" points="1009.56,-35.75 1019.04,-31.02 1008.68,-28.81 1009.56,-35.75"/>
</a>
</g>
</g>
</g>
</svg>
