<?xml version="1.0" encoding="UTF-8" standalone="no"?>
<!DOCTYPE svg PUBLIC "-//W3C//DTD SVG 1.1//EN"
 "http://www.w3.org/Graphics/SVG/1.1/DTD/svg11.dtd">
<!-- Generated by graphviz version 12.2.1 (20241206.2353)
 -->
<!-- Title: src/main/java/com/hust/ittnk68/cnpm/type/ExpenseType.java Pages: 1 -->
<!--zoomable 108 -->

<svg id="main" version="1.1" xmlns="http://www.w3.org/2000/svg" xmlns:xlink="http://www.w3.org/1999/xlink" xml:space="preserve" onload="init(evt)">

<style type="text/css"><![CDATA[
.node, .edge {opacity: 0.7;}
.node.selected, .edge.selected {opacity: 1;}
.edge:hover path { stroke: red; }
.edge:hover polygon { stroke: red; fill: red; }
]]></style>

<defs>
  <circle id="rim" cx="0" cy="0" r="7"/>
  <circle id="rim2" cx="0" cy="0" r="3.5"/>
  <g id="zoomPlus">
    <use xlink:href="#rim" fill="#404040"><set attributeName="fill" to="#808080" begin="zoomplus.mouseover" end="zoomplus.mouseout"/></use>
    <path d="M-4,0h8M0,-4v8" fill="none" stroke="white" stroke-width="1.5" pointer-events="none"/>
  </g>
  <g id="zoomMin">
    <use xlink:href="#rim" fill="#404040"><set attributeName="fill" to="#808080" begin="zoomminus.mouseover" end="zoomminus.mouseout"/></use>
    <path d="M-4,0h8" fill="none" stroke="white" stroke-width="1.5" pointer-events="none"/>
  </g>
  <g id="arrowUp" transform="translate(30 24)">
    <use xlink:href="#rim"/>
    <path pointer-events="none" fill="none" stroke="white" stroke-width="1.5" d="M0,-3.0v7 M-2.5,-0.5L0,-3.0L2.5,-0.5"/>
  </g>
  <g id="arrowRight" transform="rotate(90) translate(36 -43)">
    <use xlink:href="#rim"/>
    <path pointer-events="none" fill="none" stroke="white" stroke-width="1.5" d="M0,-3.0v7 M-2.5,-0.5L0,-3.0L2.5,-0.5"/>
  </g>
  <g id="arrowDown" transform="rotate(180) translate(-30 -48)">
    <use xlink:href="#rim"/>
    <path pointer-events="none" fill="none" stroke="white" stroke-width="1.5" d="M0,-3.0v7 M-2.5,-0.5L0,-3.0L2.5,-0.5"/>
  </g>
  <g id="arrowLeft" transform="rotate(270) translate(-36 17)">
    <use xlink:href="#rim"/>
    <path pointer-events="none" fill="none" stroke="white" stroke-width="1.5" d="M0,-3.0v7 M-2.5,-0.5L0,-3.0L2.5,-0.5"/>
  </g>
  <g id="resetDef">
    <use xlink:href="#rim2" fill="#404040"><set attributeName="fill" to="#808080" begin="reset.mouseover" end="reset.mouseout"/></use>
  </g>
</defs>
<script type="application/ecmascript">
var viewWidth = 1195;
var viewHeight = 108;
var sectionId = 'dynsection-0';
</script>
<script type="application/ecmascript" xlink:href="svg.min.js"/>
<svg id="graph" class="graph">
<g id="viewport">
<title>src/main/java/com/hust/ittnk68/cnpm/type/ExpenseType.java</title>
<!-- Node1 -->
<g id="Node000001" class="node">
<title>Node1</title>
<g id="a_Node000001"><a xlink:title=" ">
<polygon fill="#999999" stroke="#666666" points="556.88,-100 376.62,-100 376.62,-68 556.88,-68 556.88,-100"/>
<text text-anchor="start" x="384.62" y="-86.5" font-family="Helvetica,sans-Serif" font-size="10.00">src/main/java/com/hust</text>
<text text-anchor="middle" x="466.75" y="-74.5" font-family="Helvetica,sans-Serif" font-size="10.00">/ittnk68/cnpm/type/ExpenseType.java</text>
</a>
</g>
</g>
<!-- Node2 -->
<g id="Node000002" class="node">
<title>Node2</title>
<g id="a_Node000002"><a xlink:title=" ">
<polygon fill="#e0e0e0" stroke="#999999" points="71.5,-26 0,-26 0,-6 71.5,-6 71.5,-26"/>
<text text-anchor="middle" x="35.75" y="-12.5" font-family="Helvetica,sans-Serif" font-size="10.00">java.util.Map</text>
</a>
</g>
</g>
<!-- Node1&#45;&gt;Node2 -->
<g id="edge1_Node000001_Node000002" class="edge">
<title>Node1&#45;&gt;Node2</title>
<g id="a_edge1_Node000001_Node000002"><a xlink:title=" ">
<path fill="none" stroke="#63b8ff" d="M376.19,-75.94C297.41,-68.64 180.54,-55 80.75,-32 77.94,-31.35 75.06,-30.6 72.18,-29.79"/>
<polygon fill="#63b8ff" stroke="#63b8ff" points="73.24,-26.45 62.66,-26.87 71.19,-33.15 73.24,-26.45"/>
</a>
</g>
</g>
<!-- Node3 -->
<g id="Node000003" class="node">
<title>Node3</title>
<g id="a_Node000003"><a xlink:title=" ">
<polygon fill="#e0e0e0" stroke="#999999" points="178.12,-26 89.38,-26 89.38,-6 178.12,-6 178.12,-26"/>
<text text-anchor="middle" x="133.75" y="-12.5" font-family="Helvetica,sans-Serif" font-size="10.00">java.util.Optional</text>
</a>
</g>
</g>
<!-- Node1&#45;&gt;Node3 -->
<g id="edge2_Node000001_Node000003" class="edge">
<title>Node1&#45;&gt;Node3</title>
<g id="a_edge2_Node000001_Node000003"><a xlink:title=" ">
<path fill="none" stroke="#63b8ff" d="M376.14,-68.75C321.1,-59.54 249.56,-46.57 186.75,-32 183.37,-31.21 179.87,-30.35 176.38,-29.45"/>
<polygon fill="#63b8ff" stroke="#63b8ff" points="177.32,-26.07 166.75,-26.85 175.5,-32.83 177.32,-26.07"/>
</a>
</g>
</g>
<!-- Node4 -->
<g id="Node000004" class="node">
<title>Node4</title>
<g id="a_Node000004"><a xlink:title=" ">
<polygon fill="#e0e0e0" stroke="#999999" points="277.38,-26 196.12,-26 196.12,-6 277.38,-6 277.38,-26"/>
<text text-anchor="middle" x="236.75" y="-12.5" font-family="Helvetica,sans-Serif" font-size="10.00">java.util.Arrays</text>
</a>
</g>
</g>
<!-- Node1&#45;&gt;Node4 -->
<g id="edge3_Node000001_Node000004" class="edge">
<title>Node1&#45;&gt;Node4</title>
<g id="a_edge3_Node000001_Node000004"><a xlink:title=" ">
<path fill="none" stroke="#63b8ff" d="M411.54,-67.59C375.89,-57.59 328.53,-44.19 286.75,-32 284.18,-31.25 281.54,-30.47 278.88,-29.69"/>
<polygon fill="#63b8ff" stroke="#63b8ff" points="279.97,-26.36 269.39,-26.87 277.97,-33.07 279.97,-26.36"/>
</a>
</g>
</g>
<!-- Node5 -->
<g id="Node000005" class="node">
<title>Node5</title>
<g id="a_Node000005"><a xlink:title=" ">
<polygon fill="#e0e0e0" stroke="#999999" points="390.12,-26 295.38,-26 295.38,-6 390.12,-6 390.12,-26"/>
<text text-anchor="middle" x="342.75" y="-12.5" font-family="Helvetica,sans-Serif" font-size="10.00">java.util.HashMap</text>
</a>
</g>
</g>
<!-- Node1&#45;&gt;Node5 -->
<g id="edge4_Node000001_Node000005" class="edge">
<title>Node1&#45;&gt;Node5</title>
<g id="a_edge4_Node000001_Node000005"><a xlink:title=" ">
<path fill="none" stroke="#63b8ff" d="M437.68,-67.53C417.41,-56.74 390.53,-42.43 370.55,-31.8"/>
<polygon fill="#63b8ff" stroke="#63b8ff" points="372.33,-28.78 361.86,-27.17 369.04,-34.96 372.33,-28.78"/>
</a>
</g>
</g>
<!-- Node6 -->
<g id="Node000006" class="node">
<title>Node6</title>
<g id="a_Node000006"><a xlink:title=" ">
<polygon fill="#e0e0e0" stroke="#999999" points="525.38,-26 408.12,-26 408.12,-6 525.38,-6 525.38,-26"/>
<text text-anchor="middle" x="466.75" y="-12.5" font-family="Helvetica,sans-Serif" font-size="10.00">org.kordamp.ikonli.Ikon</text>
</a>
</g>
</g>
<!-- Node1&#45;&gt;Node6 -->
<g id="edge5_Node000001_Node000006" class="edge">
<title>Node1&#45;&gt;Node6</title>
<g id="a_edge5_Node000001_Node000006"><a xlink:title=" ">
<path fill="none" stroke="#63b8ff" d="M466.75,-67.69C466.75,-58.8 466.75,-47.46 466.75,-37.77"/>
<polygon fill="#63b8ff" stroke="#63b8ff" points="470.25,-37.83 466.75,-27.83 463.25,-37.83 470.25,-37.83"/>
</a>
</g>
</g>
<!-- Node7 -->
<g id="Node000007" class="node">
<title>Node7</title>
<g id="a_Node000007"><a xlink:title=" ">
<polygon fill="#e0e0e0" stroke="#999999" points="684.38,-32 543.12,-32 543.12,0 684.38,0 684.38,-32"/>
<text text-anchor="start" x="551.12" y="-18.5" font-family="Helvetica,sans-Serif" font-size="10.00">org.kordamp.ikonli.material2.</text>
<text text-anchor="middle" x="613.75" y="-6.5" font-family="Helvetica,sans-Serif" font-size="10.00">Material2AL</text>
</a>
</g>
</g>
<!-- Node1&#45;&gt;Node7 -->
<g id="edge6_Node000001_Node000007" class="edge">
<title>Node1&#45;&gt;Node7</title>
<g id="a_edge6_Node000001_Node000007"><a xlink:title=" ">
<path fill="none" stroke="#63b8ff" d="M501.21,-67.53C521.42,-58.46 547.16,-46.9 568.92,-37.13"/>
<polygon fill="#63b8ff" stroke="#63b8ff" points="570.18,-40.4 577.87,-33.11 567.31,-34.01 570.18,-40.4"/>
</a>
</g>
</g>
<!-- Node8 -->
<g id="Node000008" class="node">
<title>Node8</title>
<g id="a_Node000008"><a xlink:title=" ">
<polygon fill="#e0e0e0" stroke="#999999" points="843.38,-32 702.12,-32 702.12,0 843.38,0 843.38,-32"/>
<text text-anchor="start" x="710.12" y="-18.5" font-family="Helvetica,sans-Serif" font-size="10.00">org.kordamp.ikonli.material2.</text>
<text text-anchor="middle" x="772.75" y="-6.5" font-family="Helvetica,sans-Serif" font-size="10.00">Material2MZ</text>
</a>
</g>
</g>
<!-- Node1&#45;&gt;Node8 -->
<g id="edge7_Node000001_Node000008" class="edge">
<title>Node1&#45;&gt;Node8</title>
<g id="a_edge7_Node000001_Node000008"><a xlink:title=" ">
<path fill="none" stroke="#63b8ff" d="M538.49,-67.53C584.04,-57.7 643.12,-44.96 690.55,-34.73"/>
<polygon fill="#63b8ff" stroke="#63b8ff" points="691.2,-38.17 700.24,-32.64 689.73,-31.33 691.2,-38.17"/>
</a>
</g>
</g>
<!-- Node9 -->
<g id="Node000009" class="node">
<title>Node9</title>
<g id="a_Node000009"><a xlink:title=" ">
<polygon fill="#e0e0e0" stroke="#999999" points="1002.38,-32 861.12,-32 861.12,0 1002.38,0 1002.38,-32"/>
<text text-anchor="start" x="869.12" y="-18.5" font-family="Helvetica,sans-Serif" font-size="10.00">org.kordamp.ikonli.material2.</text>
<text text-anchor="middle" x="931.75" y="-6.5" font-family="Helvetica,sans-Serif" font-size="10.00">Material2OutlinedMZ</text>
</a>
</g>
</g>
<!-- Node1&#45;&gt;Node9 -->
<g id="edge8_Node000001_Node000009" class="edge">
<title>Node1&#45;&gt;Node9</title>
<g id="a_edge8_Node000001_Node000009"><a xlink:title=" ">
<path fill="none" stroke="#63b8ff" d="M557.04,-72.53C632.72,-63.41 743.9,-49.25 849.53,-32.47"/>
<polygon fill="#63b8ff" stroke="#63b8ff" points="849.91,-35.96 859.23,-30.92 848.8,-29.04 849.91,-35.96"/>
</a>
</g>
</g>
<!-- Node10 -->
<g id="Node000010" class="node">
<title>Node10</title>
<g id="a_Node000010"><a xlink:title=" ">
<polygon fill="#e0e0e0" stroke="#999999" points="1186.75,-32 1020.75,-32 1020.75,0 1186.75,0 1186.75,-32"/>
<text text-anchor="start" x="1028.75" y="-18.5" font-family="Helvetica,sans-Serif" font-size="10.00">com.fasterxml.jackson.annotation.</text>
<text text-anchor="middle" x="1103.75" y="-6.5" font-family="Helvetica,sans-Serif" font-size="10.00">JsonIgnore</text>
</a>
</g>
</g>
<!-- Node1&#45;&gt;Node10 -->
<g id="edge9_Node000001_Node000010" class="edge">
<title>Node1&#45;&gt;Node10</title>
<g id="a_edge9_Node000001_Node000010"><a xlink:title=" ">
<path fill="none" stroke="#63b8ff" d="M557.13,-76.44C662.98,-68.34 843.86,-53.15 1009.17,-32.28"/>
<polygon fill="#63b8ff" stroke="#63b8ff" points="1009.56,-35.75 1019.04,-31.02 1008.68,-28.81 1009.56,-35.75"/>
</a>
</g>
</g>
</g>
</svg>

<g id="navigator" transform="translate(0 0)" fill="#404254">
  <rect fill="#f2f5e9" fill-opacity="0.5" stroke="#606060" stroke-width=".5" x="0" y="0" width="60" height="60"/>
  <use id="zoomplus" xlink:href="#zoomPlus" x="17" y="9" onmousedown="handleZoom(evt,'in')"/>
  <use id="zoomminus" xlink:href="#zoomMin" x="42" y="9" onmousedown="handleZoom(evt,'out')"/>
  <use id="reset" xlink:href="#resetDef" x="30" y="36" onmousedown="handleReset()"/>
   <use id="arrowup" xlink:href="#arrowUp" x="0" y="0" onmousedown="handlePan(0,-1)"/>
  <use id="arrowright" xlink:href="#arrowRight" x="0" y="0" onmousedown="handlePan(1,0)"/>
  <use id="arrowdown" xlink:href="#arrowDown" x="0" y="0" onmousedown="handlePan(0,1)"/>
  <use id="arrowleft" xlink:href="#arrowLeft" x="0" y="0" onmousedown="handlePan(-1,0)"/>
</g>
<svg viewBox="0 0 15 15" width="100%" height="30px" preserveAspectRatio="xMaxYMin meet">
 <g id="arrow_out" transform="scale(0.3 0.3)">
  <a xlink:href="ExpenseType_8java__incl_org.svg" target="_base">
   <rect id="button" ry="5" rx="5" y="6" x="6" height="38" width="38"
        fill="#f2f5e9" fill-opacity="0.5" stroke="#606060" stroke-width="1.0"/>
   <path id="arrow"
     d="M 11.500037,31.436501 C 11.940474,20.09759 22.043105,11.32322 32.158766,21.979434 L 37.068811,17.246167 C 37.068811,17.246167 37.088388,32 37.088388,32 L 22.160133,31.978069 C 22.160133,31.978069 26.997745,27.140456 26.997745,27.140456 C 18.528582,18.264221 13.291696,25.230495 11.500037,31.436501 z"
     style="fill:#404040;"/>
  </a>
 </g>
</svg>

<style type='text/css'>
<![CDATA[
[data-mouse-over-selected='false'] { opacity: 0.7; }
[data-mouse-over-selected='true']  { opacity: 1.0; }
]]>
</style>
<script type="application/ecmascript"><![CDATA[
document.addEventListener('DOMContentLoaded', (event) => {
  highlightEdges();
  highlightAdjacentNodes();
});
]]></script>
</svg>
