<?xml version="1.0" encoding="UTF-8" standalone="no"?>
<!DOCTYPE svg PUBLIC "-//W3C//DTD SVG 1.1//EN"
 "http://www.w3.org/Graphics/SVG/1.1/DTD/svg11.dtd">
<!-- Generated by graphviz version 12.2.1 (20241206.2353)
 -->
<!-- Title: src/main/java/com/hust/ittnk68/cnpm/security/FilterConfig.java Pages: 1 -->
<svg width="703pt" height="108pt"
 viewBox="0.00 0.00 703.38 108.00" xmlns="http://www.w3.org/2000/svg" xmlns:xlink="http://www.w3.org/1999/xlink">
<g id="graph0" class="graph" transform="scale(1 1) rotate(0) translate(4 104)">
<title>src/main/java/com/hust/ittnk68/cnpm/security/FilterConfig.java</title>
<!-- Node1 -->
<g id="Node000001" class="node">
<title>Node1</title>
<g id="a_Node000001"><a xlink:title=" ">
<polygon fill="#999999" stroke="#666666" points="457.75,-100 339.75,-100 339.75,-56 457.75,-56 457.75,-100"/>
<text text-anchor="start" x="347.75" y="-86.5" font-family="Helvetica,sans-Serif" font-size="10.00">src/main/java/com/hust</text>
<text text-anchor="start" x="347.75" y="-74.5" font-family="Helvetica,sans-Serif" font-size="10.00">/ittnk68/cnpm/security</text>
<text text-anchor="middle" x="398.75" y="-62.5" font-family="Helvetica,sans-Serif" font-size="10.00">/FilterConfig.java</text>
</a>
</g>
</g>
<!-- Node2 -->
<g id="Node000002" class="node">
<title>Node2</title>
<g id="a_Node000002"><a xlink:title=" ">
<polygon fill="#e0e0e0" stroke="#999999" points="179.5,-20 0,-20 0,0 179.5,0 179.5,-20"/>
<text text-anchor="middle" x="89.75" y="-6.5" font-family="Helvetica,sans-Serif" font-size="10.00">com.hust.ittnk68.cnpm.security.filter.*</text>
</a>
</g>
</g>
<!-- Node1&#45;&gt;Node2 -->
<g id="edge1_Node000001_Node000002" class="edge">
<title>Node1&#45;&gt;Node2</title>
<g id="a_edge1_Node000001_Node000002"><a xlink:title=" ">
<path fill="none" stroke="#63b8ff" d="M339.54,-64.35C283.42,-52.37 199.79,-34.5 145.01,-22.8"/>
<polygon fill="#63b8ff" stroke="#63b8ff" points="145.77,-19.39 135.26,-20.72 144.31,-26.23 145.77,-19.39"/>
</a>
</g>
</g>
<!-- Node3 -->
<g id="Node000003" class="node">
<title>Node3</title>
<g id="a_Node000003"><a xlink:title=" ">
<polygon fill="#e0e0e0" stroke="#999999" points="392,-20 197.5,-20 197.5,0 392,0 392,-20"/>
<text text-anchor="middle" x="294.75" y="-6.5" font-family="Helvetica,sans-Serif" font-size="10.00">org.springframework.context.annotation.*</text>
</a>
</g>
</g>
<!-- Node1&#45;&gt;Node3 -->
<g id="edge2_Node000001_Node000003" class="edge">
<title>Node1&#45;&gt;Node3</title>
<g id="a_edge2_Node000001_Node000003"><a xlink:title=" ">
<path fill="none" stroke="#63b8ff" d="M364.98,-55.57C350.05,-46.09 332.82,-35.16 319.16,-26.49"/>
<polygon fill="#63b8ff" stroke="#63b8ff" points="321.1,-23.58 310.79,-21.18 317.35,-29.49 321.1,-23.58"/>
</a>
</g>
</g>
<!-- Node4 -->
<g id="Node000004" class="node">
<title>Node4</title>
<g id="a_Node000004"><a xlink:title=" ">
<polygon fill="#e0e0e0" stroke="#999999" points="595.88,-20 409.62,-20 409.62,0 595.88,0 595.88,-20"/>
<text text-anchor="middle" x="502.75" y="-6.5" font-family="Helvetica,sans-Serif" font-size="10.00">org.springframework.boot.web.servlet.*</text>
</a>
</g>
</g>
<!-- Node1&#45;&gt;Node4 -->
<g id="edge3_Node000001_Node000004" class="edge">
<title>Node1&#45;&gt;Node4</title>
<g id="a_edge3_Node000001_Node000004"><a xlink:title=" ">
<path fill="none" stroke="#63b8ff" d="M432.52,-55.57C447.45,-46.09 464.68,-35.16 478.34,-26.49"/>
<polygon fill="#63b8ff" stroke="#63b8ff" points="480.15,-29.49 486.71,-21.18 476.4,-23.58 480.15,-29.49"/>
</a>
</g>
</g>
<!-- Node5 -->
<g id="Node000005" class="node">
<title>Node5</title>
<g id="a_Node000005"><a xlink:title=" ">
<polygon fill="#e0e0e0" stroke="#999999" points="695.38,-20 614.12,-20 614.12,0 695.38,0 695.38,-20"/>
<text text-anchor="middle" x="654.75" y="-6.5" font-family="Helvetica,sans-Serif" font-size="10.00">java.util.Arrays</text>
</a>
</g>
</g>
<!-- Node1&#45;&gt;Node5 -->
<g id="edge4_Node000001_Node000005" class="edge">
<title>Node1&#45;&gt;Node5</title>
<g id="a_edge4_Node000001_Node000005"><a xlink:title=" ">
<path fill="none" stroke="#63b8ff" d="M458.12,-61.69C503.45,-50.01 565.08,-34.12 607.18,-23.26"/>
<polygon fill="#63b8ff" stroke="#63b8ff" points="607.97,-26.68 616.78,-20.79 606.22,-19.9 607.97,-26.68"/>
</a>
</g>
</g>
</g>
</svg>
