<?xml version="1.0" encoding="UTF-8" standalone="no"?>
<!DOCTYPE svg PUBLIC "-//W3C//DTD SVG 1.1//EN"
 "http://www.w3.org/Graphics/SVG/1.1/DTD/svg11.dtd">
<!-- Generated by graphviz version 12.2.1 (20241206.2353)
 -->
<!-- Title: src/main/java/com/hust/ittnk68/cnpm/model/FindPersonModel.java Pages: 1 -->
<svg width="1235pt" height="120pt"
 viewBox="0.00 0.00 1235.38 120.00" xmlns="http://www.w3.org/2000/svg" xmlns:xlink="http://www.w3.org/1999/xlink">
<g id="graph0" class="graph" transform="scale(1 1) rotate(0) translate(4 116)">
<title>src/main/java/com/hust/ittnk68/cnpm/model/FindPersonModel.java</title>
<!-- Node1 -->
<g id="Node000001" class="node">
<title>Node1</title>
<g id="a_Node000001"><a xlink:title=" ">
<polygon fill="#999999" stroke="#666666" points="672,-112 515,-112 515,-68 672,-68 672,-112"/>
<text text-anchor="start" x="523" y="-98.5" font-family="Helvetica,sans-Serif" font-size="10.00">src/main/java/com/hust</text>
<text text-anchor="start" x="523" y="-86.5" font-family="Helvetica,sans-Serif" font-size="10.00">/ittnk68/cnpm/model/FindPerson</text>
<text text-anchor="middle" x="593.5" y="-74.5" font-family="Helvetica,sans-Serif" font-size="10.00">Model.java</text>
</a>
</g>
</g>
<!-- Node2 -->
<g id="Node000002" class="node">
<title>Node2</title>
<g id="a_Node000002"><a xlink:title=" ">
<polygon fill="#e0e0e0" stroke="#999999" points="103,-26 0,-26 0,-6 103,-6 103,-26"/>
<text text-anchor="middle" x="51.5" y="-12.5" font-family="Helvetica,sans-Serif" font-size="10.00">java.time.LocalDate</text>
</a>
</g>
</g>
<!-- Node1&#45;&gt;Node2 -->
<g id="edge1_Node000001_Node000002" class="edge">
<title>Node1&#45;&gt;Node2</title>
<g id="a_edge1_Node000001_Node000002"><a xlink:title=" ">
<path fill="none" stroke="#63b8ff" d="M514.74,-82.67C419.12,-74.29 253.16,-57.53 112.5,-32 107.66,-31.12 102.63,-30.09 97.64,-28.98"/>
<polygon fill="#63b8ff" stroke="#63b8ff" points="98.83,-25.66 88.3,-26.81 97.25,-32.48 98.83,-25.66"/>
</a>
</g>
</g>
<!-- Node3 -->
<g id="Node000003" class="node">
<title>Node3</title>
<g id="a_Node000003"><a xlink:title=" ">
<polygon fill="#e0e0e0" stroke="#999999" points="267.75,-32 121.25,-32 121.25,0 267.75,0 267.75,-32"/>
<text text-anchor="start" x="129.25" y="-18.5" font-family="Helvetica,sans-Serif" font-size="10.00">javafx.beans.property.Boolean</text>
<text text-anchor="middle" x="194.5" y="-6.5" font-family="Helvetica,sans-Serif" font-size="10.00">Property</text>
</a>
</g>
</g>
<!-- Node1&#45;&gt;Node3 -->
<g id="edge2_Node000001_Node000003" class="edge">
<title>Node1&#45;&gt;Node3</title>
<g id="a_edge2_Node000001_Node000003"><a xlink:title=" ">
<path fill="none" stroke="#63b8ff" d="M514.67,-74.89C453.16,-63.87 365.22,-48.08 278.88,-32.43"/>
<polygon fill="#63b8ff" stroke="#63b8ff" points="279.77,-29.03 269.3,-30.69 278.52,-35.92 279.77,-29.03"/>
</a>
</g>
</g>
<!-- Node4 -->
<g id="Node000004" class="node">
<title>Node4</title>
<g id="a_Node000004"><a xlink:title=" ">
<polygon fill="#e0e0e0" stroke="#999999" points="425.38,-32 285.62,-32 285.62,0 425.38,0 425.38,-32"/>
<text text-anchor="start" x="293.62" y="-18.5" font-family="Helvetica,sans-Serif" font-size="10.00">javafx.beans.property.Object</text>
<text text-anchor="middle" x="355.5" y="-6.5" font-family="Helvetica,sans-Serif" font-size="10.00">Property</text>
</a>
</g>
</g>
<!-- Node1&#45;&gt;Node4 -->
<g id="edge3_Node000001_Node000004" class="edge">
<title>Node1&#45;&gt;Node4</title>
<g id="a_edge3_Node000001_Node000004"><a xlink:title=" ">
<path fill="none" stroke="#63b8ff" d="M522.74,-67.59C489.25,-57.46 449.63,-45.48 417.36,-35.72"/>
<polygon fill="#63b8ff" stroke="#63b8ff" points="418.76,-32.48 408.17,-32.93 416.73,-39.18 418.76,-32.48"/>
</a>
</g>
</g>
<!-- Node5 -->
<g id="Node000005" class="node">
<title>Node5</title>
<g id="a_Node000005"><a xlink:title=" ">
<polygon fill="#e0e0e0" stroke="#999999" points="585.12,-32 443.88,-32 443.88,0 585.12,0 585.12,-32"/>
<text text-anchor="start" x="451.88" y="-18.5" font-family="Helvetica,sans-Serif" font-size="10.00">javafx.beans.property.Simple</text>
<text text-anchor="middle" x="514.5" y="-6.5" font-family="Helvetica,sans-Serif" font-size="10.00">BooleanProperty</text>
</a>
</g>
</g>
<!-- Node1&#45;&gt;Node5 -->
<g id="edge4_Node000001_Node000005" class="edge">
<title>Node1&#45;&gt;Node5</title>
<g id="a_edge4_Node000001_Node000005"><a xlink:title=" ">
<path fill="none" stroke="#63b8ff" d="M570.22,-67.79C560.51,-58.93 549.21,-48.63 539.33,-39.63"/>
<polygon fill="#63b8ff" stroke="#63b8ff" points="541.96,-37.3 532.22,-33.15 537.25,-42.47 541.96,-37.3"/>
</a>
</g>
</g>
<!-- Node6 -->
<g id="Node000006" class="node">
<title>Node6</title>
<g id="a_Node000006"><a xlink:title=" ">
<polygon fill="#e0e0e0" stroke="#999999" points="744.12,-32 602.88,-32 602.88,0 744.12,0 744.12,-32"/>
<text text-anchor="start" x="610.88" y="-18.5" font-family="Helvetica,sans-Serif" font-size="10.00">javafx.beans.property.Simple</text>
<text text-anchor="middle" x="673.5" y="-6.5" font-family="Helvetica,sans-Serif" font-size="10.00">ObjectProperty</text>
</a>
</g>
</g>
<!-- Node1&#45;&gt;Node6 -->
<g id="edge5_Node000001_Node000006" class="edge">
<title>Node1&#45;&gt;Node6</title>
<g id="a_edge5_Node000001_Node000006"><a xlink:title=" ">
<path fill="none" stroke="#63b8ff" d="M617.07,-67.79C626.91,-58.93 638.35,-48.63 648.35,-39.63"/>
<polygon fill="#63b8ff" stroke="#63b8ff" points="650.48,-42.43 655.57,-33.14 645.79,-37.23 650.48,-42.43"/>
</a>
</g>
</g>
<!-- Node7 -->
<g id="Node000007" class="node">
<title>Node7</title>
<g id="a_Node000007"><a xlink:title=" ">
<polygon fill="#e0e0e0" stroke="#999999" points="903.12,-32 761.88,-32 761.88,0 903.12,0 903.12,-32"/>
<text text-anchor="start" x="769.88" y="-18.5" font-family="Helvetica,sans-Serif" font-size="10.00">javafx.beans.property.Simple</text>
<text text-anchor="middle" x="832.5" y="-6.5" font-family="Helvetica,sans-Serif" font-size="10.00">StringProperty</text>
</a>
</g>
</g>
<!-- Node1&#45;&gt;Node7 -->
<g id="edge6_Node000001_Node000007" class="edge">
<title>Node1&#45;&gt;Node7</title>
<g id="a_edge6_Node000001_Node000007"><a xlink:title=" ">
<path fill="none" stroke="#63b8ff" d="M664.56,-67.59C698.19,-57.46 737.97,-45.48 770.38,-35.72"/>
<polygon fill="#63b8ff" stroke="#63b8ff" points="771.05,-39.17 779.61,-32.93 769.03,-32.47 771.05,-39.17"/>
</a>
</g>
</g>
<!-- Node8 -->
<g id="Node000008" class="node">
<title>Node8</title>
<g id="a_Node000008"><a xlink:title=" ">
<polygon fill="#e0e0e0" stroke="#999999" points="1057.88,-32 921.12,-32 921.12,0 1057.88,0 1057.88,-32"/>
<text text-anchor="start" x="929.12" y="-18.5" font-family="Helvetica,sans-Serif" font-size="10.00">javafx.beans.property.String</text>
<text text-anchor="middle" x="989.5" y="-6.5" font-family="Helvetica,sans-Serif" font-size="10.00">Property</text>
</a>
</g>
</g>
<!-- Node1&#45;&gt;Node8 -->
<g id="edge7_Node000001_Node000008" class="edge">
<title>Node1&#45;&gt;Node8</title>
<g id="a_edge7_Node000001_Node000008"><a xlink:title=" ">
<path fill="none" stroke="#63b8ff" d="M672.22,-75.29C734.17,-64.41 823,-48.64 909.57,-32.53"/>
<polygon fill="#63b8ff" stroke="#63b8ff" points="909.99,-36.02 919.18,-30.74 908.7,-29.13 909.99,-36.02"/>
</a>
</g>
</g>
<!-- Node9 -->
<g id="Node000009" class="node">
<title>Node9</title>
<g id="a_Node000009"><a xlink:title=" ">
<polygon fill="#e0e0e0" stroke="#999999" points="1227.38,-26 1075.62,-26 1075.62,-6 1227.38,-6 1227.38,-26"/>
<text text-anchor="middle" x="1151.5" y="-12.5" font-family="Helvetica,sans-Serif" font-size="10.00">javafx.scene.control.TableView</text>
</a>
</g>
</g>
<!-- Node1&#45;&gt;Node9 -->
<g id="edge8_Node000001_Node000009" class="edge">
<title>Node1&#45;&gt;Node9</title>
<g id="a_edge8_Node000001_Node000009"><a xlink:title=" ">
<path fill="none" stroke="#63b8ff" d="M672.35,-80.83C766.38,-70.79 928.23,-52.52 1066.5,-32 1073.87,-30.91 1081.58,-29.67 1089.23,-28.39"/>
<polygon fill="#63b8ff" stroke="#63b8ff" points="1089.57,-31.88 1098.84,-26.75 1088.39,-24.98 1089.57,-31.88"/>
</a>
</g>
</g>
</g>
</svg>
