<?xml version="1.0" encoding="UTF-8" standalone="no"?>
<!DOCTYPE svg PUBLIC "-//W3C//DTD SVG 1.1//EN"
 "http://www.w3.org/Graphics/SVG/1.1/DTD/svg11.dtd">
<!-- Generated by graphviz version 12.2.1 (20241206.2353)
 -->
<!-- Title: src/main/java/com/hust/ittnk68/cnpm/view/IconButton.java Pages: 1 -->
<svg width="726pt" height="108pt"
 viewBox="0.00 0.00 725.88 108.00" xmlns="http://www.w3.org/2000/svg" xmlns:xlink="http://www.w3.org/1999/xlink">
<g id="graph0" class="graph" transform="scale(1 1) rotate(0) translate(4 104)">
<title>src/main/java/com/hust/ittnk68/cnpm/view/IconButton.java</title>
<!-- Node1 -->
<g id="Node000001" class="node">
<title>Node1</title>
<g id="a_Node000001"><a xlink:title=" ">
<polygon fill="#999999" stroke="#666666" points="458.12,-100 288.38,-100 288.38,-68 458.12,-68 458.12,-100"/>
<text text-anchor="start" x="296.38" y="-86.5" font-family="Helvetica,sans-Serif" font-size="10.00">src/main/java/com/hust</text>
<text text-anchor="middle" x="373.25" y="-74.5" font-family="Helvetica,sans-Serif" font-size="10.00">/ittnk68/cnpm/view/IconButton.java</text>
</a>
</g>
</g>
<!-- Node2 -->
<g id="Node000002" class="node">
<title>Node2</title>
<g id="a_Node000002"><a xlink:title=" ">
<polygon fill="#e0e0e0" stroke="#999999" points="140.5,-32 0,-32 0,0 140.5,0 140.5,-32"/>
<text text-anchor="start" x="8" y="-18.5" font-family="Helvetica,sans-Serif" font-size="10.00">com.hust.ittnk68.cnpm.view.</text>
<text text-anchor="middle" x="70.25" y="-6.5" font-family="Helvetica,sans-Serif" font-size="10.00">IconButton</text>
</a>
</g>
</g>
<!-- Node1&#45;&gt;Node2 -->
<g id="edge1_Node000001_Node000002" class="edge">
<title>Node1&#45;&gt;Node2</title>
<g id="a_edge1_Node000001_Node000002"><a xlink:title=" ">
<path fill="none" stroke="#63b8ff" d="M302.21,-67.53C257.19,-57.72 198.82,-45.01 151.9,-34.78"/>
<polygon fill="#63b8ff" stroke="#63b8ff" points="152.84,-31.41 142.32,-32.7 151.35,-38.25 152.84,-31.41"/>
</a>
</g>
</g>
<!-- Node3 -->
<g id="Node000003" class="node">
<title>Node3</title>
<g id="a_Node000003"><a xlink:title=" ">
<polygon fill="#e0e0e0" stroke="#999999" points="286.12,-32 158.38,-32 158.38,0 286.12,0 286.12,-32"/>
<text text-anchor="start" x="166.38" y="-18.5" font-family="Helvetica,sans-Serif" font-size="10.00">org.kordamp.ikonli.javafx.</text>
<text text-anchor="middle" x="222.25" y="-6.5" font-family="Helvetica,sans-Serif" font-size="10.00">FontIcon</text>
</a>
</g>
</g>
<!-- Node1&#45;&gt;Node3 -->
<g id="edge2_Node000001_Node000003" class="edge">
<title>Node1&#45;&gt;Node3</title>
<g id="a_edge2_Node000001_Node000003"><a xlink:title=" ">
<path fill="none" stroke="#63b8ff" d="M337.85,-67.53C317,-58.41 290.41,-46.79 267.99,-36.99"/>
<polygon fill="#63b8ff" stroke="#63b8ff" points="269.64,-33.9 259.08,-33.1 266.84,-40.31 269.64,-33.9"/>
</a>
</g>
</g>
<!-- Node4 -->
<g id="Node000004" class="node">
<title>Node4</title>
<g id="a_Node000004"><a xlink:title=" ">
<polygon fill="#e0e0e0" stroke="#999999" points="442.38,-26 304.12,-26 304.12,-6 442.38,-6 442.38,-26"/>
<text text-anchor="middle" x="373.25" y="-12.5" font-family="Helvetica,sans-Serif" font-size="10.00">atlantafx.base.theme.Styles</text>
</a>
</g>
</g>
<!-- Node1&#45;&gt;Node4 -->
<g id="edge3_Node000001_Node000004" class="edge">
<title>Node1&#45;&gt;Node4</title>
<g id="a_edge3_Node000001_Node000004"><a xlink:title=" ">
<path fill="none" stroke="#63b8ff" d="M373.25,-67.69C373.25,-58.8 373.25,-47.46 373.25,-37.77"/>
<polygon fill="#63b8ff" stroke="#63b8ff" points="376.75,-37.83 373.25,-27.83 369.75,-37.83 376.75,-37.83"/>
</a>
</g>
</g>
<!-- Node5 -->
<g id="Node000005" class="node">
<title>Node5</title>
<g id="a_Node000005"><a xlink:title=" ">
<polygon fill="#e0e0e0" stroke="#999999" points="564.12,-26 460.38,-26 460.38,-6 564.12,-6 564.12,-26"/>
<text text-anchor="middle" x="512.25" y="-12.5" font-family="Helvetica,sans-Serif" font-size="10.00">javafx.scene.Cursor</text>
</a>
</g>
</g>
<!-- Node1&#45;&gt;Node5 -->
<g id="edge4_Node000001_Node000005" class="edge">
<title>Node1&#45;&gt;Node5</title>
<g id="a_edge4_Node000001_Node000005"><a xlink:title=" ">
<path fill="none" stroke="#63b8ff" d="M405.84,-67.53C428.87,-56.59 459.52,-42.04 482.01,-31.36"/>
<polygon fill="#63b8ff" stroke="#63b8ff" points="483.43,-34.56 490.96,-27.11 480.42,-28.24 483.43,-34.56"/>
</a>
</g>
</g>
<!-- Node6 -->
<g id="Node000006" class="node">
<title>Node6</title>
<g id="a_Node000006"><a xlink:title=" ">
<polygon fill="#e0e0e0" stroke="#999999" points="717.88,-26 582.62,-26 582.62,-6 717.88,-6 717.88,-26"/>
<text text-anchor="middle" x="650.25" y="-12.5" font-family="Helvetica,sans-Serif" font-size="10.00">javafx.scene.control.Button</text>
</a>
</g>
</g>
<!-- Node1&#45;&gt;Node6 -->
<g id="edge5_Node000001_Node000006" class="edge">
<title>Node1&#45;&gt;Node6</title>
<g id="a_edge5_Node000001_Node000006"><a xlink:title=" ">
<path fill="none" stroke="#63b8ff" d="M438.19,-67.53C487.43,-55.79 554.14,-39.9 599.5,-29.09"/>
<polygon fill="#63b8ff" stroke="#63b8ff" points="600.16,-32.53 609.07,-26.81 598.54,-25.72 600.16,-32.53"/>
</a>
</g>
</g>
</g>
</svg>
