<?xml version="1.0" encoding="UTF-8" standalone="no"?>
<!DOCTYPE svg PUBLIC "-//W3C//DTD SVG 1.1//EN"
 "http://www.w3.org/Graphics/SVG/1.1/DTD/svg11.dtd">
<!-- Generated by graphviz version 12.2.1 (20241206.2353)
 -->
<!-- Title: Graphical Class Hierarchy Pages: 1 -->
<svg width="229pt" height="90pt"
 viewBox="0.00 0.00 229.00 90.00" xmlns="http://www.w3.org/2000/svg" xmlns:xlink="http://www.w3.org/1999/xlink">
<g id="graph0" class="graph" transform="scale(1 1) rotate(0) translate(4 86)">
<title>Graphical Class Hierarchy</title>
<!-- Node0 -->
<g id="Node000000" class="node">
<title>Node0</title>
<g id="a_Node000000"><a xlink:href="classButton.html" target="_top" xlink:title=" ">
<polygon fill="white" stroke="#666666" points="44.5,-51 0,-51 0,-31 44.5,-31 44.5,-51"/>
<text text-anchor="middle" x="22.25" y="-37.5" font-family="Helvetica,sans-Serif" font-size="10.00">Button</text>
</a>
</g>
</g>
<!-- Node1 -->
<g id="Node000001" class="node">
<title>Node1</title>
<g id="a_Node000001"><a xlink:href="classcom_1_1hust_1_1ittnk68_1_1cnpm_1_1view_1_1CustomButton.html" target="_top" xlink:title=" ">
<polygon fill="white" stroke="#666666" points="221,-82 80.5,-82 80.5,-50 221,-50 221,-82"/>
<text text-anchor="start" x="88.5" y="-68.5" font-family="Helvetica,sans-Serif" font-size="10.00">com.hust.ittnk68.cnpm.view.</text>
<text text-anchor="middle" x="150.75" y="-56.5" font-family="Helvetica,sans-Serif" font-size="10.00">CustomButton</text>
</a>
</g>
</g>
<!-- Node0&#45;&gt;Node1 -->
<g id="edge6_Node000000_Node000001" class="edge">
<title>Node0&#45;&gt;Node1</title>
<g id="a_edge6_Node000000_Node000001"><a xlink:title=" ">
<path fill="none" stroke="#63b8ff" d="M56.05,-47.48C63.54,-48.96 71.76,-50.59 80.14,-52.24"/>
<polygon fill="#63b8ff" stroke="#63b8ff" points="56.97,-44.1 46.48,-45.59 55.61,-50.96 56.97,-44.1"/>
</a>
</g>
</g>
<!-- Node2 -->
<g id="Node000002" class="node">
<title>Node2</title>
<g id="a_Node000002"><a xlink:href="classcom_1_1hust_1_1ittnk68_1_1cnpm_1_1view_1_1IconButton.html" target="_top" xlink:title=" ">
<polygon fill="white" stroke="#666666" points="221,-32 80.5,-32 80.5,0 221,0 221,-32"/>
<text text-anchor="start" x="88.5" y="-18.5" font-family="Helvetica,sans-Serif" font-size="10.00">com.hust.ittnk68.cnpm.view.</text>
<text text-anchor="middle" x="150.75" y="-6.5" font-family="Helvetica,sans-Serif" font-size="10.00">IconButton</text>
</a>
</g>
</g>
<!-- Node0&#45;&gt;Node2 -->
<g id="edge7_Node000000_Node000002" class="edge">
<title>Node0&#45;&gt;Node2</title>
<g id="a_edge7_Node000000_Node000002"><a xlink:title=" ">
<path fill="none" stroke="#63b8ff" d="M56.05,-34.52C63.54,-33.04 71.76,-31.41 80.14,-29.76"/>
<polygon fill="#63b8ff" stroke="#63b8ff" points="55.61,-31.04 46.48,-36.41 56.97,-37.9 55.61,-31.04"/>
</a>
</g>
</g>
</g>
</svg>
