<?xml version="1.0" encoding="UTF-8" standalone="no"?>
<!DOCTYPE svg PUBLIC "-//W3C//DTD SVG 1.1//EN"
 "http://www.w3.org/Graphics/SVG/1.1/DTD/svg11.dtd">
<!-- Generated by graphviz version 12.2.1 (20241206.2353)
 -->
<!-- Title: Graphical Class Hierarchy Pages: 1 -->
<svg width="420pt" height="340pt"
 viewBox="0.00 0.00 419.50 340.00" xmlns="http://www.w3.org/2000/svg" xmlns:xlink="http://www.w3.org/1999/xlink">
<g id="graph0" class="graph" transform="scale(1 1) rotate(0) translate(4 336)">
<title>Graphical Class Hierarchy</title>
<!-- Node0 -->
<g id="Node000000" class="node">
<title>Node0</title>
<g id="a_Node000000"><a xlink:href="classcom_1_1hust_1_1ittnk68_1_1cnpm_1_1communication_1_1ServerResponseBase.html" target="_top" xlink:title=" ">
<polygon fill="white" stroke="#666666" points="187.75,-182 0,-182 0,-150 187.75,-150 187.75,-182"/>
<text text-anchor="start" x="8" y="-168.5" font-family="Helvetica,sans-Serif" font-size="10.00">com.hust.ittnk68.cnpm.communication.</text>
<text text-anchor="middle" x="93.88" y="-156.5" font-family="Helvetica,sans-Serif" font-size="10.00">ServerResponseBase</text>
</a>
</g>
</g>
<!-- Node1 -->
<g id="Node000001" class="node">
<title>Node1</title>
<g id="a_Node000001"><a xlink:href="classcom_1_1hust_1_1ittnk68_1_1cnpm_1_1communication_1_1ServerCreateObjectResponse.html" target="_top" xlink:title=" ">
<polygon fill="white" stroke="#666666" points="411.5,-332 223.75,-332 223.75,-300 411.5,-300 411.5,-332"/>
<text text-anchor="start" x="231.75" y="-318.5" font-family="Helvetica,sans-Serif" font-size="10.00">com.hust.ittnk68.cnpm.communication.</text>
<text text-anchor="middle" x="317.62" y="-306.5" font-family="Helvetica,sans-Serif" font-size="10.00">ServerCreateObjectResponse</text>
</a>
</g>
</g>
<!-- Node0&#45;&gt;Node1 -->
<g id="edge14_Node000000_Node000001" class="edge">
<title>Node0&#45;&gt;Node1</title>
<g id="a_edge14_Node000000_Node000001"><a xlink:title=" ">
<path fill="none" stroke="#63b8ff" d="M113.95,-190.99C136.94,-219.38 178.21,-265.14 223.75,-291 229.56,-294.3 235.82,-297.18 242.25,-299.69"/>
<polygon fill="#63b8ff" stroke="#63b8ff" points="116.77,-188.91 107.81,-183.26 111.29,-193.27 116.77,-188.91"/>
</a>
</g>
</g>
<!-- Node2 -->
<g id="Node000002" class="node">
<title>Node2</title>
<g id="a_Node000002"><a xlink:href="classcom_1_1hust_1_1ittnk68_1_1cnpm_1_1communication_1_1ServerDeleteObjectResponse.html" target="_top" xlink:title=" ">
<polygon fill="white" stroke="#666666" points="411.5,-282 223.75,-282 223.75,-250 411.5,-250 411.5,-282"/>
<text text-anchor="start" x="231.75" y="-268.5" font-family="Helvetica,sans-Serif" font-size="10.00">com.hust.ittnk68.cnpm.communication.</text>
<text text-anchor="middle" x="317.62" y="-256.5" font-family="Helvetica,sans-Serif" font-size="10.00">ServerDeleteObjectResponse</text>
</a>
</g>
</g>
<!-- Node0&#45;&gt;Node2 -->
<g id="edge15_Node000000_Node000002" class="edge">
<title>Node0&#45;&gt;Node2</title>
<g id="a_edge15_Node000000_Node000002"><a xlink:title=" ">
<path fill="none" stroke="#63b8ff" d="M128.06,-188.61C153.37,-205.02 189.58,-226.75 223.75,-241 231.3,-244.15 239.37,-247.01 247.47,-249.57"/>
<polygon fill="#63b8ff" stroke="#63b8ff" points="130.13,-185.78 119.85,-183.21 126.29,-191.63 130.13,-185.78"/>
</a>
</g>
</g>
<!-- Node3 -->
<g id="Node000003" class="node">
<title>Node3</title>
<g id="a_Node000003"><a xlink:href="classcom_1_1hust_1_1ittnk68_1_1cnpm_1_1communication_1_1ServerFindObjectResponse.html" target="_top" xlink:title=" ">
<polygon fill="white" stroke="#666666" points="411.5,-232 223.75,-232 223.75,-200 411.5,-200 411.5,-232"/>
<text text-anchor="start" x="231.75" y="-218.5" font-family="Helvetica,sans-Serif" font-size="10.00">com.hust.ittnk68.cnpm.communication.</text>
<text text-anchor="middle" x="317.62" y="-206.5" font-family="Helvetica,sans-Serif" font-size="10.00">ServerFindObjectResponse</text>
</a>
</g>
</g>
<!-- Node0&#45;&gt;Node3 -->
<g id="edge16_Node000000_Node000003" class="edge">
<title>Node0&#45;&gt;Node3</title>
<g id="a_edge16_Node000000_Node000003"><a xlink:title=" ">
<path fill="none" stroke="#63b8ff" d="M178.81,-184.92C200.15,-189.74 222.92,-194.87 243.66,-199.55"/>
<polygon fill="#63b8ff" stroke="#63b8ff" points="179.79,-181.56 169.27,-182.77 178.25,-188.39 179.79,-181.56"/>
</a>
</g>
</g>
<!-- Node4 -->
<g id="Node000004" class="node">
<title>Node4</title>
<g id="a_Node000004"><a xlink:href="classcom_1_1hust_1_1ittnk68_1_1cnpm_1_1communication_1_1ServerObjectByIdQueryResponse.html" target="_top" xlink:title=" ">
<polygon fill="white" stroke="#666666" points="411.5,-182 223.75,-182 223.75,-150 411.5,-150 411.5,-182"/>
<text text-anchor="start" x="231.75" y="-168.5" font-family="Helvetica,sans-Serif" font-size="10.00">com.hust.ittnk68.cnpm.communication.</text>
<text text-anchor="middle" x="317.62" y="-156.5" font-family="Helvetica,sans-Serif" font-size="10.00">ServerObjectByIdQueryResponse</text>
</a>
</g>
</g>
<!-- Node0&#45;&gt;Node4 -->
<g id="edge17_Node000000_Node000004" class="edge">
<title>Node0&#45;&gt;Node4</title>
<g id="a_edge17_Node000000_Node000004"><a xlink:title=" ">
<path fill="none" stroke="#63b8ff" d="M199.29,-166C207.35,-166 215.45,-166 223.43,-166"/>
<polygon fill="#63b8ff" stroke="#63b8ff" points="199.47,-162.5 189.47,-166 199.47,-169.5 199.47,-162.5"/>
</a>
</g>
</g>
<!-- Node5 -->
<g id="Node000005" class="node">
<title>Node5</title>
<g id="a_Node000005"><a xlink:href="classcom_1_1hust_1_1ittnk68_1_1cnpm_1_1communication_1_1ServerPaymentStatusQueryResponse.html" target="_top" xlink:title=" ">
<polygon fill="white" stroke="#666666" points="411.5,-132 223.75,-132 223.75,-100 411.5,-100 411.5,-132"/>
<text text-anchor="start" x="231.75" y="-118.5" font-family="Helvetica,sans-Serif" font-size="10.00">com.hust.ittnk68.cnpm.communication.</text>
<text text-anchor="middle" x="317.62" y="-106.5" font-family="Helvetica,sans-Serif" font-size="10.00">ServerPaymentStatusQueryResponse</text>
</a>
</g>
</g>
<!-- Node0&#45;&gt;Node5 -->
<g id="edge18_Node000000_Node000005" class="edge">
<title>Node0&#45;&gt;Node5</title>
<g id="a_edge18_Node000000_Node000005"><a xlink:title=" ">
<path fill="none" stroke="#63b8ff" d="M178.81,-147.08C200.15,-142.26 222.92,-137.13 243.66,-132.45"/>
<polygon fill="#63b8ff" stroke="#63b8ff" points="178.25,-143.61 169.27,-149.23 179.79,-150.44 178.25,-143.61"/>
</a>
</g>
</g>
<!-- Node6 -->
<g id="Node000006" class="node">
<title>Node6</title>
<g id="a_Node000006"><a xlink:href="classcom_1_1hust_1_1ittnk68_1_1cnpm_1_1communication_1_1ServerResponseStartSession.html" target="_top" xlink:title=" ">
<polygon fill="white" stroke="#666666" points="411.5,-82 223.75,-82 223.75,-50 411.5,-50 411.5,-82"/>
<text text-anchor="start" x="231.75" y="-68.5" font-family="Helvetica,sans-Serif" font-size="10.00">com.hust.ittnk68.cnpm.communication.</text>
<text text-anchor="middle" x="317.62" y="-56.5" font-family="Helvetica,sans-Serif" font-size="10.00">ServerResponseStartSession</text>
</a>
</g>
</g>
<!-- Node0&#45;&gt;Node6 -->
<g id="edge19_Node000000_Node000006" class="edge">
<title>Node0&#45;&gt;Node6</title>
<g id="a_edge19_Node000000_Node000006"><a xlink:title=" ">
<path fill="none" stroke="#63b8ff" d="M128.06,-143.39C153.37,-126.98 189.58,-105.25 223.75,-91 231.3,-87.85 239.37,-84.99 247.47,-82.43"/>
<polygon fill="#63b8ff" stroke="#63b8ff" points="126.29,-140.37 119.85,-148.79 130.13,-146.22 126.29,-140.37"/>
</a>
</g>
</g>
<!-- Node7 -->
<g id="Node000007" class="node">
<title>Node7</title>
<g id="a_Node000007"><a xlink:href="classcom_1_1hust_1_1ittnk68_1_1cnpm_1_1communication_1_1ServerUpdateObjectResponse.html" target="_top" xlink:title=" ">
<polygon fill="white" stroke="#666666" points="411.5,-32 223.75,-32 223.75,0 411.5,0 411.5,-32"/>
<text text-anchor="start" x="231.75" y="-18.5" font-family="Helvetica,sans-Serif" font-size="10.00">com.hust.ittnk68.cnpm.communication.</text>
<text text-anchor="middle" x="317.62" y="-6.5" font-family="Helvetica,sans-Serif" font-size="10.00">ServerUpdateObjectResponse</text>
</a>
</g>
</g>
<!-- Node0&#45;&gt;Node7 -->
<g id="edge20_Node000000_Node000007" class="edge">
<title>Node0&#45;&gt;Node7</title>
<g id="a_edge20_Node000000_Node000007"><a xlink:title=" ">
<path fill="none" stroke="#63b8ff" d="M113.95,-141.01C136.94,-112.62 178.21,-66.86 223.75,-41 229.56,-37.7 235.82,-34.82 242.25,-32.31"/>
<polygon fill="#63b8ff" stroke="#63b8ff" points="111.29,-138.73 107.81,-148.74 116.77,-143.09 111.29,-138.73"/>
</a>
</g>
</g>
</g>
</svg>
