<?xml version="1.0" encoding="UTF-8" standalone="no"?>
<!DOCTYPE svg PUBLIC "-//W3C//DTD SVG 1.1//EN"
 "http://www.w3.org/Graphics/SVG/1.1/DTD/svg11.dtd">
<!-- Generated by graphviz version 12.2.1 (20241206.2353)
 -->
<!-- Title: Graphical Class Hierarchy Pages: 1 -->
<svg width="420pt" height="440pt"
 viewBox="0.00 0.00 419.50 440.00" xmlns="http://www.w3.org/2000/svg" xmlns:xlink="http://www.w3.org/1999/xlink">
<g id="graph0" class="graph" transform="scale(1 1) rotate(0) translate(4 436)">
<title>Graphical Class Hierarchy</title>
<!-- Node0 -->
<g id="Node000000" class="node">
<title>Node0</title>
<g id="a_Node000000"><a xlink:href="classcom_1_1hust_1_1ittnk68_1_1cnpm_1_1communication_1_1ClientMessageBase.html" target="_top" xlink:title=" ">
<polygon fill="white" stroke="#666666" points="187.75,-232 0,-232 0,-200 187.75,-200 187.75,-232"/>
<text text-anchor="start" x="8" y="-218.5" font-family="Helvetica,sans-Serif" font-size="10.00">com.hust.ittnk68.cnpm.communication.</text>
<text text-anchor="middle" x="93.88" y="-206.5" font-family="Helvetica,sans-Serif" font-size="10.00">ClientMessageBase</text>
</a>
</g>
</g>
<!-- Node1 -->
<g id="Node000001" class="node">
<title>Node1</title>
<g id="a_Node000001"><a xlink:href="classcom_1_1hust_1_1ittnk68_1_1cnpm_1_1communication_1_1AdminCreateObject.html" target="_top" xlink:title=" ">
<polygon fill="white" stroke="#666666" points="411.5,-432 223.75,-432 223.75,-400 411.5,-400 411.5,-432"/>
<text text-anchor="start" x="231.75" y="-418.5" font-family="Helvetica,sans-Serif" font-size="10.00">com.hust.ittnk68.cnpm.communication.</text>
<text text-anchor="middle" x="317.62" y="-406.5" font-family="Helvetica,sans-Serif" font-size="10.00">AdminCreateObject</text>
</a>
</g>
</g>
<!-- Node0&#45;&gt;Node1 -->
<g id="edge9_Node000000_Node000001" class="edge">
<title>Node0&#45;&gt;Node1</title>
<g id="a_edge9_Node000000_Node000001"><a xlink:title=" ">
<path fill="none" stroke="#63b8ff" d="M107.06,-242.35C126.3,-280.95 167.37,-352.47 223.75,-391 228.58,-394.3 233.82,-397.16 239.27,-399.65"/>
<polygon fill="#63b8ff" stroke="#63b8ff" points="110.4,-241.21 102.89,-233.75 104.11,-244.27 110.4,-241.21"/>
</a>
</g>
</g>
<!-- Node2 -->
<g id="Node000002" class="node">
<title>Node2</title>
<g id="a_Node000002"><a xlink:href="classcom_1_1hust_1_1ittnk68_1_1cnpm_1_1communication_1_1AdminDeleteObject.html" target="_top" xlink:title=" ">
<polygon fill="white" stroke="#666666" points="411.5,-382 223.75,-382 223.75,-350 411.5,-350 411.5,-382"/>
<text text-anchor="start" x="231.75" y="-368.5" font-family="Helvetica,sans-Serif" font-size="10.00">com.hust.ittnk68.cnpm.communication.</text>
<text text-anchor="middle" x="317.62" y="-356.5" font-family="Helvetica,sans-Serif" font-size="10.00">AdminDeleteObject</text>
</a>
</g>
</g>
<!-- Node0&#45;&gt;Node2 -->
<g id="edge10_Node000000_Node000002" class="edge">
<title>Node0&#45;&gt;Node2</title>
<g id="a_edge10_Node000000_Node000002"><a xlink:title=" ">
<path fill="none" stroke="#63b8ff" d="M113.95,-240.99C136.94,-269.38 178.21,-315.14 223.75,-341 229.56,-344.3 235.82,-347.18 242.25,-349.69"/>
<polygon fill="#63b8ff" stroke="#63b8ff" points="116.77,-238.91 107.81,-233.26 111.29,-243.27 116.77,-238.91"/>
</a>
</g>
</g>
<!-- Node3 -->
<g id="Node000003" class="node">
<title>Node3</title>
<g id="a_Node000003"><a xlink:href="classcom_1_1hust_1_1ittnk68_1_1cnpm_1_1communication_1_1AdminFindObject.html" target="_top" xlink:title=" ">
<polygon fill="white" stroke="#666666" points="411.5,-332 223.75,-332 223.75,-300 411.5,-300 411.5,-332"/>
<text text-anchor="start" x="231.75" y="-318.5" font-family="Helvetica,sans-Serif" font-size="10.00">com.hust.ittnk68.cnpm.communication.</text>
<text text-anchor="middle" x="317.62" y="-306.5" font-family="Helvetica,sans-Serif" font-size="10.00">AdminFindObject</text>
</a>
</g>
</g>
<!-- Node0&#45;&gt;Node3 -->
<g id="edge11_Node000000_Node000003" class="edge">
<title>Node0&#45;&gt;Node3</title>
<g id="a_edge11_Node000000_Node000003"><a xlink:title=" ">
<path fill="none" stroke="#63b8ff" d="M128.06,-238.61C153.37,-255.02 189.58,-276.75 223.75,-291 231.3,-294.15 239.37,-297.01 247.47,-299.57"/>
<polygon fill="#63b8ff" stroke="#63b8ff" points="130.13,-235.78 119.85,-233.21 126.29,-241.63 130.13,-235.78"/>
</a>
</g>
</g>
<!-- Node4 -->
<g id="Node000004" class="node">
<title>Node4</title>
<g id="a_Node000004"><a xlink:href="classcom_1_1hust_1_1ittnk68_1_1cnpm_1_1communication_1_1AdminUpdateObject.html" target="_top" xlink:title=" ">
<polygon fill="white" stroke="#666666" points="411.5,-282 223.75,-282 223.75,-250 411.5,-250 411.5,-282"/>
<text text-anchor="start" x="231.75" y="-268.5" font-family="Helvetica,sans-Serif" font-size="10.00">com.hust.ittnk68.cnpm.communication.</text>
<text text-anchor="middle" x="317.62" y="-256.5" font-family="Helvetica,sans-Serif" font-size="10.00">AdminUpdateObject</text>
</a>
</g>
</g>
<!-- Node0&#45;&gt;Node4 -->
<g id="edge12_Node000000_Node000004" class="edge">
<title>Node0&#45;&gt;Node4</title>
<g id="a_edge12_Node000000_Node000004"><a xlink:title=" ">
<path fill="none" stroke="#63b8ff" d="M178.81,-234.92C200.15,-239.74 222.92,-244.87 243.66,-249.55"/>
<polygon fill="#63b8ff" stroke="#63b8ff" points="179.79,-231.56 169.27,-232.77 178.25,-238.39 179.79,-231.56"/>
</a>
</g>
</g>
<!-- Node5 -->
<g id="Node000005" class="node">
<title>Node5</title>
<g id="a_Node000005"><a xlink:href="classcom_1_1hust_1_1ittnk68_1_1cnpm_1_1communication_1_1PaymentRequest.html" target="_top" xlink:title=" ">
<polygon fill="white" stroke="#666666" points="411.5,-232 223.75,-232 223.75,-200 411.5,-200 411.5,-232"/>
<text text-anchor="start" x="231.75" y="-218.5" font-family="Helvetica,sans-Serif" font-size="10.00">com.hust.ittnk68.cnpm.communication.</text>
<text text-anchor="middle" x="317.62" y="-206.5" font-family="Helvetica,sans-Serif" font-size="10.00">PaymentRequest</text>
</a>
</g>
</g>
<!-- Node0&#45;&gt;Node5 -->
<g id="edge13_Node000000_Node000005" class="edge">
<title>Node0&#45;&gt;Node5</title>
<g id="a_edge13_Node000000_Node000005"><a xlink:title=" ">
<path fill="none" stroke="#63b8ff" d="M199.29,-216C207.35,-216 215.45,-216 223.43,-216"/>
<polygon fill="#63b8ff" stroke="#63b8ff" points="199.47,-212.5 189.47,-216 199.47,-219.5 199.47,-212.5"/>
</a>
</g>
</g>
<!-- Node6 -->
<g id="Node000006" class="node">
<title>Node6</title>
<g id="a_Node000006"><a xlink:href="classcom_1_1hust_1_1ittnk68_1_1cnpm_1_1communication_1_1UserGetPaymentQrCode.html" target="_top" xlink:title=" ">
<polygon fill="white" stroke="#666666" points="411.5,-182 223.75,-182 223.75,-150 411.5,-150 411.5,-182"/>
<text text-anchor="start" x="231.75" y="-168.5" font-family="Helvetica,sans-Serif" font-size="10.00">com.hust.ittnk68.cnpm.communication.</text>
<text text-anchor="middle" x="317.62" y="-156.5" font-family="Helvetica,sans-Serif" font-size="10.00">UserGetPaymentQrCode</text>
</a>
</g>
</g>
<!-- Node0&#45;&gt;Node6 -->
<g id="edge14_Node000000_Node000006" class="edge">
<title>Node0&#45;&gt;Node6</title>
<g id="a_edge14_Node000000_Node000006"><a xlink:title=" ">
<path fill="none" stroke="#63b8ff" d="M178.81,-197.08C200.15,-192.26 222.92,-187.13 243.66,-182.45"/>
<polygon fill="#63b8ff" stroke="#63b8ff" points="178.25,-193.61 169.27,-199.23 179.79,-200.44 178.25,-193.61"/>
</a>
</g>
</g>
<!-- Node7 -->
<g id="Node000007" class="node">
<title>Node7</title>
<g id="a_Node000007"><a xlink:href="classcom_1_1hust_1_1ittnk68_1_1cnpm_1_1communication_1_1UserQueryObjectById.html" target="_top" xlink:title=" ">
<polygon fill="white" stroke="#666666" points="411.5,-132 223.75,-132 223.75,-100 411.5,-100 411.5,-132"/>
<text text-anchor="start" x="231.75" y="-118.5" font-family="Helvetica,sans-Serif" font-size="10.00">com.hust.ittnk68.cnpm.communication.</text>
<text text-anchor="middle" x="317.62" y="-106.5" font-family="Helvetica,sans-Serif" font-size="10.00">UserQueryObjectById</text>
</a>
</g>
</g>
<!-- Node0&#45;&gt;Node7 -->
<g id="edge15_Node000000_Node000007" class="edge">
<title>Node0&#45;&gt;Node7</title>
<g id="a_edge15_Node000000_Node000007"><a xlink:title=" ">
<path fill="none" stroke="#63b8ff" d="M128.06,-193.39C153.37,-176.98 189.58,-155.25 223.75,-141 231.3,-137.85 239.37,-134.99 247.47,-132.43"/>
<polygon fill="#63b8ff" stroke="#63b8ff" points="126.29,-190.37 119.85,-198.79 130.13,-196.22 126.29,-190.37"/>
</a>
</g>
</g>
<!-- Node8 -->
<g id="Node000008" class="node">
<title>Node8</title>
<g id="a_Node000008"><a xlink:href="classcom_1_1hust_1_1ittnk68_1_1cnpm_1_1communication_1_1UserQueryPaymentStatus.html" target="_top" xlink:title=" ">
<polygon fill="white" stroke="#666666" points="411.5,-82 223.75,-82 223.75,-50 411.5,-50 411.5,-82"/>
<text text-anchor="start" x="231.75" y="-68.5" font-family="Helvetica,sans-Serif" font-size="10.00">com.hust.ittnk68.cnpm.communication.</text>
<text text-anchor="middle" x="317.62" y="-56.5" font-family="Helvetica,sans-Serif" font-size="10.00">UserQueryPaymentStatus</text>
</a>
</g>
</g>
<!-- Node0&#45;&gt;Node8 -->
<g id="edge16_Node000000_Node000008" class="edge">
<title>Node0&#45;&gt;Node8</title>
<g id="a_edge16_Node000000_Node000008"><a xlink:title=" ">
<path fill="none" stroke="#63b8ff" d="M113.95,-191.01C136.94,-162.62 178.21,-116.86 223.75,-91 229.56,-87.7 235.82,-84.82 242.25,-82.31"/>
<polygon fill="#63b8ff" stroke="#63b8ff" points="111.29,-188.73 107.81,-198.74 116.77,-193.09 111.29,-188.73"/>
</a>
</g>
</g>
<!-- Node9 -->
<g id="Node000009" class="node">
<title>Node9</title>
<g id="a_Node000009"><a xlink:href="classcom_1_1hust_1_1ittnk68_1_1cnpm_1_1communication_1_1UserQueryPersonByFId.html" target="_top" xlink:title=" ">
<polygon fill="white" stroke="#666666" points="411.5,-32 223.75,-32 223.75,0 411.5,0 411.5,-32"/>
<text text-anchor="start" x="231.75" y="-18.5" font-family="Helvetica,sans-Serif" font-size="10.00">com.hust.ittnk68.cnpm.communication.</text>
<text text-anchor="middle" x="317.62" y="-6.5" font-family="Helvetica,sans-Serif" font-size="10.00">UserQueryPersonByFId</text>
</a>
</g>
</g>
<!-- Node0&#45;&gt;Node9 -->
<g id="edge17_Node000000_Node000009" class="edge">
<title>Node0&#45;&gt;Node9</title>
<g id="a_edge17_Node000000_Node000009"><a xlink:title=" ">
<path fill="none" stroke="#63b8ff" d="M107.06,-189.65C126.3,-151.05 167.37,-79.53 223.75,-41 228.58,-37.7 233.82,-34.84 239.27,-32.35"/>
<polygon fill="#63b8ff" stroke="#63b8ff" points="104.11,-187.73 102.89,-198.25 110.4,-190.79 104.11,-187.73"/>
</a>
</g>
</g>
</g>
</svg>
