<?xml version="1.0" encoding="UTF-8" standalone="no"?>
<!DOCTYPE svg PUBLIC "-//W3C//DTD SVG 1.1//EN"
 "http://www.w3.org/Graphics/SVG/1.1/DTD/svg11.dtd">
<!-- Generated by graphviz version 12.2.1 (20241206.2353)
 -->
<!-- Title: Graphical Class Hierarchy Pages: 1 -->
<svg width="225pt" height="90pt"
 viewBox="0.00 0.00 224.50 90.00" xmlns="http://www.w3.org/2000/svg" xmlns:xlink="http://www.w3.org/1999/xlink">
<g id="graph0" class="graph" transform="scale(1 1) rotate(0) translate(4 86)">
<title>Graphical Class Hierarchy</title>
<!-- Node0 -->
<g id="Node000000" class="node">
<title>Node0</title>
<g id="a_Node000000"><a xlink:href="classVBox.html" target="_top" xlink:title=" ">
<polygon fill="white" stroke="#666666" points="40,-51 0,-51 0,-31 40,-31 40,-51"/>
<text text-anchor="middle" x="20" y="-37.5" font-family="Helvetica,sans-Serif" font-size="10.00">VBox</text>
</a>
</g>
</g>
<!-- Node1 -->
<g id="Node000001" class="node">
<title>Node1</title>
<g id="a_Node000001"><a xlink:href="classcom_1_1hust_1_1ittnk68_1_1cnpm_1_1view_1_1ClientMenuButton.html" target="_top" xlink:title=" ">
<polygon fill="white" stroke="#666666" points="216.5,-82 76,-82 76,-50 216.5,-50 216.5,-82"/>
<text text-anchor="start" x="84" y="-68.5" font-family="Helvetica,sans-Serif" font-size="10.00">com.hust.ittnk68.cnpm.view.</text>
<text text-anchor="middle" x="146.25" y="-56.5" font-family="Helvetica,sans-Serif" font-size="10.00">ClientMenuButton</text>
</a>
</g>
</g>
<!-- Node0&#45;&gt;Node1 -->
<g id="edge45_Node000000_Node000001" class="edge">
<title>Node0&#45;&gt;Node1</title>
<g id="a_edge45_Node000000_Node000001"><a xlink:title=" ">
<path fill="none" stroke="#63b8ff" d="M51.62,-47.16C59.01,-48.65 67.21,-50.3 75.59,-51.98"/>
<polygon fill="#63b8ff" stroke="#63b8ff" points="52.39,-43.75 41.9,-45.2 51.01,-50.61 52.39,-43.75"/>
</a>
</g>
</g>
<!-- Node2 -->
<g id="Node000002" class="node">
<title>Node2</title>
<g id="a_Node000002"><a xlink:href="classcom_1_1hust_1_1ittnk68_1_1cnpm_1_1view_1_1LoadingView.html" target="_top" xlink:title=" ">
<polygon fill="white" stroke="#666666" points="216.5,-32 76,-32 76,0 216.5,0 216.5,-32"/>
<text text-anchor="start" x="84" y="-18.5" font-family="Helvetica,sans-Serif" font-size="10.00">com.hust.ittnk68.cnpm.view.</text>
<text text-anchor="middle" x="146.25" y="-6.5" font-family="Helvetica,sans-Serif" font-size="10.00">LoadingView</text>
</a>
</g>
</g>
<!-- Node0&#45;&gt;Node2 -->
<g id="edge46_Node000000_Node000002" class="edge">
<title>Node0&#45;&gt;Node2</title>
<g id="a_edge46_Node000000_Node000002"><a xlink:title=" ">
<path fill="none" stroke="#63b8ff" d="M51.62,-34.84C59.01,-33.35 67.21,-31.7 75.59,-30.02"/>
<polygon fill="#63b8ff" stroke="#63b8ff" points="51.01,-31.39 41.9,-36.8 52.39,-38.25 51.01,-31.39"/>
</a>
</g>
</g>
</g>
</svg>
