<?xml version="1.0" encoding="UTF-8" standalone="no"?>
<!DOCTYPE svg PUBLIC "-//W3C//DTD SVG 1.1//EN"
 "http://www.w3.org/Graphics/SVG/1.1/DTD/svg11.dtd">
<!-- Generated by graphviz version 12.2.1 (20241206.2353)
 -->
<!-- Title: Graphical Class Hierarchy Pages: 1 -->
<svg width="420pt" height="540pt"
 viewBox="0.00 0.00 419.50 540.00" xmlns="http://www.w3.org/2000/svg" xmlns:xlink="http://www.w3.org/1999/xlink">
<g id="graph0" class="graph" transform="scale(1 1) rotate(0) translate(4 536)">
<title>Graphical Class Hierarchy</title>
<!-- Node0 -->
<g id="Node000000" class="node">
<title>Node0</title>
<g id="a_Node000000"><a xlink:href="classcom_1_1hust_1_1ittnk68_1_1cnpm_1_1communication_1_1ServerResponseBase.html" target="_top" xlink:title=" ">
<polygon fill="white" stroke="#666666" points="187.75,-282 0,-282 0,-250 187.75,-250 187.75,-282"/>
<text text-anchor="start" x="8" y="-268.5" font-family="Helvetica,sans-Serif" font-size="10.00">com.hust.ittnk68.cnpm.communication.</text>
<text text-anchor="middle" x="93.88" y="-256.5" font-family="Helvetica,sans-Serif" font-size="10.00">ServerResponseBase</text>
</a>
</g>
</g>
<!-- Node1 -->
<g id="Node000001" class="node">
<title>Node1</title>
<g id="a_Node000001"><a xlink:href="classcom_1_1hust_1_1ittnk68_1_1cnpm_1_1communication_1_1PaymentResponse.html" target="_top" xlink:title=" ">
<polygon fill="white" stroke="#666666" points="411.5,-532 223.75,-532 223.75,-500 411.5,-500 411.5,-532"/>
<text text-anchor="start" x="231.75" y="-518.5" font-family="Helvetica,sans-Serif" font-size="10.00">com.hust.ittnk68.cnpm.communication.</text>
<text text-anchor="middle" x="317.62" y="-506.5" font-family="Helvetica,sans-Serif" font-size="10.00">PaymentResponse</text>
</a>
</g>
</g>
<!-- Node0&#45;&gt;Node1 -->
<g id="edge18_Node000000_Node000001" class="edge">
<title>Node0&#45;&gt;Node1</title>
<g id="a_edge18_Node000000_Node000001"><a xlink:title=" ">
<path fill="none" stroke="#63b8ff" d="M102.78,-293.16C118.06,-340.71 156.21,-438.93 223.75,-491 227.98,-494.26 232.61,-497.1 237.46,-499.57"/>
<polygon fill="#63b8ff" stroke="#63b8ff" points="106.14,-292.18 99.84,-283.66 99.46,-294.25 106.14,-292.18"/>
</a>
</g>
</g>
<!-- Node2 -->
<g id="Node000002" class="node">
<title>Node2</title>
<g id="a_Node000002"><a xlink:href="classcom_1_1hust_1_1ittnk68_1_1cnpm_1_1communication_1_1ServerCheckBankingResponse.html" target="_top" xlink:title=" ">
<polygon fill="white" stroke="#666666" points="411.5,-482 223.75,-482 223.75,-450 411.5,-450 411.5,-482"/>
<text text-anchor="start" x="231.75" y="-468.5" font-family="Helvetica,sans-Serif" font-size="10.00">com.hust.ittnk68.cnpm.communication.</text>
<text text-anchor="middle" x="317.62" y="-456.5" font-family="Helvetica,sans-Serif" font-size="10.00">ServerCheckBankingResponse</text>
</a>
</g>
</g>
<!-- Node0&#45;&gt;Node2 -->
<g id="edge19_Node000000_Node000002" class="edge">
<title>Node0&#45;&gt;Node2</title>
<g id="a_edge19_Node000000_Node000002"><a xlink:title=" ">
<path fill="none" stroke="#63b8ff" d="M107.06,-292.35C126.3,-330.95 167.37,-402.47 223.75,-441 228.58,-444.3 233.82,-447.16 239.27,-449.65"/>
<polygon fill="#63b8ff" stroke="#63b8ff" points="110.4,-291.21 102.89,-283.75 104.11,-294.27 110.4,-291.21"/>
</a>
</g>
</g>
<!-- Node3 -->
<g id="Node000003" class="node">
<title>Node3</title>
<g id="a_Node000003"><a xlink:href="classcom_1_1hust_1_1ittnk68_1_1cnpm_1_1communication_1_1ServerCreateObjectResponse.html" target="_top" xlink:title=" ">
<polygon fill="white" stroke="#666666" points="411.5,-432 223.75,-432 223.75,-400 411.5,-400 411.5,-432"/>
<text text-anchor="start" x="231.75" y="-418.5" font-family="Helvetica,sans-Serif" font-size="10.00">com.hust.ittnk68.cnpm.communication.</text>
<text text-anchor="middle" x="317.62" y="-406.5" font-family="Helvetica,sans-Serif" font-size="10.00">ServerCreateObjectResponse</text>
</a>
</g>
</g>
<!-- Node0&#45;&gt;Node3 -->
<g id="edge20_Node000000_Node000003" class="edge">
<title>Node0&#45;&gt;Node3</title>
<g id="a_edge20_Node000000_Node000003"><a xlink:title=" ">
<path fill="none" stroke="#63b8ff" d="M113.95,-290.99C136.94,-319.38 178.21,-365.14 223.75,-391 229.56,-394.3 235.82,-397.18 242.25,-399.69"/>
<polygon fill="#63b8ff" stroke="#63b8ff" points="116.77,-288.91 107.81,-283.26 111.29,-293.27 116.77,-288.91"/>
</a>
</g>
</g>
<!-- Node4 -->
<g id="Node000004" class="node">
<title>Node4</title>
<g id="a_Node000004"><a xlink:href="classcom_1_1hust_1_1ittnk68_1_1cnpm_1_1communication_1_1ServerDeleteObjectResponse.html" target="_top" xlink:title=" ">
<polygon fill="white" stroke="#666666" points="411.5,-382 223.75,-382 223.75,-350 411.5,-350 411.5,-382"/>
<text text-anchor="start" x="231.75" y="-368.5" font-family="Helvetica,sans-Serif" font-size="10.00">com.hust.ittnk68.cnpm.communication.</text>
<text text-anchor="middle" x="317.62" y="-356.5" font-family="Helvetica,sans-Serif" font-size="10.00">ServerDeleteObjectResponse</text>
</a>
</g>
</g>
<!-- Node0&#45;&gt;Node4 -->
<g id="edge21_Node000000_Node000004" class="edge">
<title>Node0&#45;&gt;Node4</title>
<g id="a_edge21_Node000000_Node000004"><a xlink:title=" ">
<path fill="none" stroke="#63b8ff" d="M128.06,-288.61C153.37,-305.02 189.58,-326.75 223.75,-341 231.3,-344.15 239.37,-347.01 247.47,-349.57"/>
<polygon fill="#63b8ff" stroke="#63b8ff" points="130.13,-285.78 119.85,-283.21 126.29,-291.63 130.13,-285.78"/>
</a>
</g>
</g>
<!-- Node5 -->
<g id="Node000005" class="node">
<title>Node5</title>
<g id="a_Node000005"><a xlink:href="classcom_1_1hust_1_1ittnk68_1_1cnpm_1_1communication_1_1ServerFindObjectResponse.html" target="_top" xlink:title=" ">
<polygon fill="white" stroke="#666666" points="411.5,-332 223.75,-332 223.75,-300 411.5,-300 411.5,-332"/>
<text text-anchor="start" x="231.75" y="-318.5" font-family="Helvetica,sans-Serif" font-size="10.00">com.hust.ittnk68.cnpm.communication.</text>
<text text-anchor="middle" x="317.62" y="-306.5" font-family="Helvetica,sans-Serif" font-size="10.00">ServerFindObjectResponse</text>
</a>
</g>
</g>
<!-- Node0&#45;&gt;Node5 -->
<g id="edge22_Node000000_Node000005" class="edge">
<title>Node0&#45;&gt;Node5</title>
<g id="a_edge22_Node000000_Node000005"><a xlink:title=" ">
<path fill="none" stroke="#63b8ff" d="M178.81,-284.92C200.15,-289.74 222.92,-294.87 243.66,-299.55"/>
<polygon fill="#63b8ff" stroke="#63b8ff" points="179.79,-281.56 169.27,-282.77 178.25,-288.39 179.79,-281.56"/>
</a>
</g>
</g>
<!-- Node6 -->
<g id="Node000006" class="node">
<title>Node6</title>
<g id="a_Node000006"><a xlink:href="classcom_1_1hust_1_1ittnk68_1_1cnpm_1_1communication_1_1ServerObjectByIdQueryResponse.html" target="_top" xlink:title=" ">
<polygon fill="white" stroke="#666666" points="411.5,-282 223.75,-282 223.75,-250 411.5,-250 411.5,-282"/>
<text text-anchor="start" x="231.75" y="-268.5" font-family="Helvetica,sans-Serif" font-size="10.00">com.hust.ittnk68.cnpm.communication.</text>
<text text-anchor="middle" x="317.62" y="-256.5" font-family="Helvetica,sans-Serif" font-size="10.00">ServerObjectByIdQueryResponse</text>
</a>
</g>
</g>
<!-- Node0&#45;&gt;Node6 -->
<g id="edge23_Node000000_Node000006" class="edge">
<title>Node0&#45;&gt;Node6</title>
<g id="a_edge23_Node000000_Node000006"><a xlink:title=" ">
<path fill="none" stroke="#63b8ff" d="M199.29,-266C207.35,-266 215.45,-266 223.43,-266"/>
<polygon fill="#63b8ff" stroke="#63b8ff" points="199.47,-262.5 189.47,-266 199.47,-269.5 199.47,-262.5"/>
</a>
</g>
</g>
<!-- Node7 -->
<g id="Node000007" class="node">
<title>Node7</title>
<g id="a_Node000007"><a xlink:href="classcom_1_1hust_1_1ittnk68_1_1cnpm_1_1communication_1_1ServerPaymentStatusQueryResponse.html" target="_top" xlink:title=" ">
<polygon fill="white" stroke="#666666" points="411.5,-232 223.75,-232 223.75,-200 411.5,-200 411.5,-232"/>
<text text-anchor="start" x="231.75" y="-218.5" font-family="Helvetica,sans-Serif" font-size="10.00">com.hust.ittnk68.cnpm.communication.</text>
<text text-anchor="middle" x="317.62" y="-206.5" font-family="Helvetica,sans-Serif" font-size="10.00">ServerPaymentStatusQueryResponse</text>
</a>
</g>
</g>
<!-- Node0&#45;&gt;Node7 -->
<g id="edge24_Node000000_Node000007" class="edge">
<title>Node0&#45;&gt;Node7</title>
<g id="a_edge24_Node000000_Node000007"><a xlink:title=" ">
<path fill="none" stroke="#63b8ff" d="M178.81,-247.08C200.15,-242.26 222.92,-237.13 243.66,-232.45"/>
<polygon fill="#63b8ff" stroke="#63b8ff" points="178.25,-243.61 169.27,-249.23 179.79,-250.44 178.25,-243.61"/>
</a>
</g>
</g>
<!-- Node8 -->
<g id="Node000008" class="node">
<title>Node8</title>
<g id="a_Node000008"><a xlink:href="classcom_1_1hust_1_1ittnk68_1_1cnpm_1_1communication_1_1ServerQrCodeGenerateResponse.html" target="_top" xlink:title=" ">
<polygon fill="white" stroke="#666666" points="411.5,-182 223.75,-182 223.75,-150 411.5,-150 411.5,-182"/>
<text text-anchor="start" x="231.75" y="-168.5" font-family="Helvetica,sans-Serif" font-size="10.00">com.hust.ittnk68.cnpm.communication.</text>
<text text-anchor="middle" x="317.62" y="-156.5" font-family="Helvetica,sans-Serif" font-size="10.00">ServerQrCodeGenerateResponse</text>
</a>
</g>
</g>
<!-- Node0&#45;&gt;Node8 -->
<g id="edge25_Node000000_Node000008" class="edge">
<title>Node0&#45;&gt;Node8</title>
<g id="a_edge25_Node000000_Node000008"><a xlink:title=" ">
<path fill="none" stroke="#63b8ff" d="M128.06,-243.39C153.37,-226.98 189.58,-205.25 223.75,-191 231.3,-187.85 239.37,-184.99 247.47,-182.43"/>
<polygon fill="#63b8ff" stroke="#63b8ff" points="126.29,-240.37 119.85,-248.79 130.13,-246.22 126.29,-240.37"/>
</a>
</g>
</g>
<!-- Node9 -->
<g id="Node000009" class="node">
<title>Node9</title>
<g id="a_Node000009"><a xlink:href="classcom_1_1hust_1_1ittnk68_1_1cnpm_1_1communication_1_1ServerQueryPersonByFIdResponse.html" target="_top" xlink:title=" ">
<polygon fill="white" stroke="#666666" points="411.5,-132 223.75,-132 223.75,-100 411.5,-100 411.5,-132"/>
<text text-anchor="start" x="231.75" y="-118.5" font-family="Helvetica,sans-Serif" font-size="10.00">com.hust.ittnk68.cnpm.communication.</text>
<text text-anchor="middle" x="317.62" y="-106.5" font-family="Helvetica,sans-Serif" font-size="10.00">ServerQueryPersonByFIdResponse</text>
</a>
</g>
</g>
<!-- Node0&#45;&gt;Node9 -->
<g id="edge26_Node000000_Node000009" class="edge">
<title>Node0&#45;&gt;Node9</title>
<g id="a_edge26_Node000000_Node000009"><a xlink:title=" ">
<path fill="none" stroke="#63b8ff" d="M113.95,-241.01C136.94,-212.62 178.21,-166.86 223.75,-141 229.56,-137.7 235.82,-134.82 242.25,-132.31"/>
<polygon fill="#63b8ff" stroke="#63b8ff" points="111.29,-238.73 107.81,-248.74 116.77,-243.09 111.29,-238.73"/>
</a>
</g>
</g>
<!-- Node10 -->
<g id="Node000010" class="node">
<title>Node10</title>
<g id="a_Node000010"><a xlink:href="classcom_1_1hust_1_1ittnk68_1_1cnpm_1_1communication_1_1ServerResponseStartSession.html" target="_top" xlink:title=" ">
<polygon fill="white" stroke="#666666" points="411.5,-82 223.75,-82 223.75,-50 411.5,-50 411.5,-82"/>
<text text-anchor="start" x="231.75" y="-68.5" font-family="Helvetica,sans-Serif" font-size="10.00">com.hust.ittnk68.cnpm.communication.</text>
<text text-anchor="middle" x="317.62" y="-56.5" font-family="Helvetica,sans-Serif" font-size="10.00">ServerResponseStartSession</text>
</a>
</g>
</g>
<!-- Node0&#45;&gt;Node10 -->
<g id="edge27_Node000000_Node000010" class="edge">
<title>Node0&#45;&gt;Node10</title>
<g id="a_edge27_Node000000_Node000010"><a xlink:title=" ">
<path fill="none" stroke="#63b8ff" d="M107.06,-239.65C126.3,-201.05 167.37,-129.53 223.75,-91 228.58,-87.7 233.82,-84.84 239.27,-82.35"/>
<polygon fill="#63b8ff" stroke="#63b8ff" points="104.11,-237.73 102.89,-248.25 110.4,-240.79 104.11,-237.73"/>
</a>
</g>
</g>
<!-- Node11 -->
<g id="Node000011" class="node">
<title>Node11</title>
<g id="a_Node000011"><a xlink:href="classcom_1_1hust_1_1ittnk68_1_1cnpm_1_1communication_1_1ServerUpdateObjectResponse.html" target="_top" xlink:title=" ">
<polygon fill="white" stroke="#666666" points="411.5,-32 223.75,-32 223.75,0 411.5,0 411.5,-32"/>
<text text-anchor="start" x="231.75" y="-18.5" font-family="Helvetica,sans-Serif" font-size="10.00">com.hust.ittnk68.cnpm.communication.</text>
<text text-anchor="middle" x="317.62" y="-6.5" font-family="Helvetica,sans-Serif" font-size="10.00">ServerUpdateObjectResponse</text>
</a>
</g>
</g>
<!-- Node0&#45;&gt;Node11 -->
<g id="edge28_Node000000_Node000011" class="edge">
<title>Node0&#45;&gt;Node11</title>
<g id="a_edge28_Node000000_Node000011"><a xlink:title=" ">
<path fill="none" stroke="#63b8ff" d="M102.78,-238.84C118.06,-191.29 156.21,-93.07 223.75,-41 227.98,-37.74 232.61,-34.9 237.46,-32.43"/>
<polygon fill="#63b8ff" stroke="#63b8ff" points="99.46,-237.75 99.84,-248.34 106.14,-239.82 99.46,-237.75"/>
</a>
</g>
</g>
</g>
</svg>
