<?xml version="1.0" encoding="UTF-8" standalone="no"?>
<!DOCTYPE svg PUBLIC "-//W3C//DTD SVG 1.1//EN"
 "http://www.w3.org/Graphics/SVG/1.1/DTD/svg11.dtd">
<!-- Generated by graphviz version 12.2.1 (20241206.2353)
 -->
<!-- Title: Graphical Class Hierarchy Pages: 1 -->
<svg width="354pt" height="290pt"
 viewBox="0.00 0.00 353.50 290.00" xmlns="http://www.w3.org/2000/svg" xmlns:xlink="http://www.w3.org/1999/xlink">
<g id="graph0" class="graph" transform="scale(1 1) rotate(0) translate(4 286)">
<title>Graphical Class Hierarchy</title>
<!-- Node0 -->
<g id="Node000000" class="node">
<title>Node0</title>
<g id="a_Node000000"><a xlink:href="classcom_1_1hust_1_1ittnk68_1_1cnpm_1_1database_1_1GetSQLProperties.html" target="_top" xlink:title=" ">
<polygon fill="white" stroke="#666666" points="161.5,-157 0,-157 0,-125 161.5,-125 161.5,-157"/>
<text text-anchor="start" x="8" y="-143.5" font-family="Helvetica,sans-Serif" font-size="10.00">com.hust.ittnk68.cnpm.database.</text>
<text text-anchor="middle" x="80.75" y="-131.5" font-family="Helvetica,sans-Serif" font-size="10.00">GetSQLProperties</text>
</a>
</g>
</g>
<!-- Node1 -->
<g id="Node000001" class="node">
<title>Node1</title>
<g id="a_Node000001"><a xlink:href="classcom_1_1hust_1_1ittnk68_1_1cnpm_1_1model_1_1Account.html" target="_top" xlink:title=" ">
<polygon fill="white" stroke="#666666" points="345.5,-282 197.5,-282 197.5,-250 345.5,-250 345.5,-282"/>
<text text-anchor="start" x="205.5" y="-268.5" font-family="Helvetica,sans-Serif" font-size="10.00">com.hust.ittnk68.cnpm.model.</text>
<text text-anchor="middle" x="271.5" y="-256.5" font-family="Helvetica,sans-Serif" font-size="10.00">Account</text>
</a>
</g>
</g>
<!-- Node0&#45;&gt;Node1 -->
<g id="edge30_Node000000_Node000001" class="edge">
<title>Node0&#45;&gt;Node1</title>
<g id="a_edge30_Node000000_Node000001"><a xlink:title=" ">
<path fill="none" stroke="#63b8ff" d="M104.47,-165.39C126.42,-187.72 161.56,-220.36 197.5,-241 203.08,-244.2 209.13,-247.08 215.28,-249.65"/>
<polygon fill="#63b8ff" stroke="#63b8ff" points="107.24,-163.22 97.77,-158.46 102.21,-168.09 107.24,-163.22"/>
</a>
</g>
</g>
<!-- Node2 -->
<g id="Node000002" class="node">
<title>Node2</title>
<g id="a_Node000002"><a xlink:href="classcom_1_1hust_1_1ittnk68_1_1cnpm_1_1model_1_1Expense.html" target="_top" xlink:title=" ">
<polygon fill="white" stroke="#666666" points="345.5,-232 197.5,-232 197.5,-200 345.5,-200 345.5,-232"/>
<text text-anchor="start" x="205.5" y="-218.5" font-family="Helvetica,sans-Serif" font-size="10.00">com.hust.ittnk68.cnpm.model.</text>
<text text-anchor="middle" x="271.5" y="-206.5" font-family="Helvetica,sans-Serif" font-size="10.00">Expense</text>
</a>
</g>
</g>
<!-- Node0&#45;&gt;Node2 -->
<g id="edge31_Node000000_Node000002" class="edge">
<title>Node0&#45;&gt;Node2</title>
<g id="a_edge31_Node000000_Node000002"><a xlink:title=" ">
<path fill="none" stroke="#63b8ff" d="M128.2,-162.05C149.21,-171.31 174.44,-182.09 197.5,-191 205,-193.9 212.99,-196.81 220.83,-199.57"/>
<polygon fill="#63b8ff" stroke="#63b8ff" points="129.89,-158.97 119.33,-158.11 127.05,-165.36 129.89,-158.97"/>
</a>
</g>
</g>
<!-- Node3 -->
<g id="Node000003" class="node">
<title>Node3</title>
<g id="a_Node000003"><a xlink:href="classcom_1_1hust_1_1ittnk68_1_1cnpm_1_1model_1_1Family.html" target="_top" xlink:title=" ">
<polygon fill="white" stroke="#666666" points="345.5,-182 197.5,-182 197.5,-150 345.5,-150 345.5,-182"/>
<text text-anchor="start" x="205.5" y="-168.5" font-family="Helvetica,sans-Serif" font-size="10.00">com.hust.ittnk68.cnpm.model.</text>
<text text-anchor="middle" x="271.5" y="-156.5" font-family="Helvetica,sans-Serif" font-size="10.00">Family</text>
</a>
</g>
</g>
<!-- Node0&#45;&gt;Node3 -->
<g id="edge32_Node000000_Node000003" class="edge">
<title>Node0&#45;&gt;Node3</title>
<g id="a_edge32_Node000000_Node000003"><a xlink:title=" ">
<path fill="none" stroke="#63b8ff" d="M173.16,-153.11C181.23,-154.18 189.33,-155.25 197.22,-156.29"/>
<polygon fill="#63b8ff" stroke="#63b8ff" points="173.67,-149.64 163.3,-151.8 172.75,-156.58 173.67,-149.64"/>
</a>
</g>
</g>
<!-- Node4 -->
<g id="Node000004" class="node">
<title>Node4</title>
<g id="a_Node000004"><a xlink:href="classcom_1_1hust_1_1ittnk68_1_1cnpm_1_1model_1_1PaymentStatus.html" target="_top" xlink:title=" ">
<polygon fill="white" stroke="#666666" points="345.5,-132 197.5,-132 197.5,-100 345.5,-100 345.5,-132"/>
<text text-anchor="start" x="205.5" y="-118.5" font-family="Helvetica,sans-Serif" font-size="10.00">com.hust.ittnk68.cnpm.model.</text>
<text text-anchor="middle" x="271.5" y="-106.5" font-family="Helvetica,sans-Serif" font-size="10.00">PaymentStatus</text>
</a>
</g>
</g>
<!-- Node0&#45;&gt;Node4 -->
<g id="edge33_Node000000_Node000004" class="edge">
<title>Node0&#45;&gt;Node4</title>
<g id="a_edge33_Node000000_Node000004"><a xlink:title=" ">
<path fill="none" stroke="#63b8ff" d="M173.16,-128.89C181.23,-127.82 189.33,-126.75 197.22,-125.71"/>
<polygon fill="#63b8ff" stroke="#63b8ff" points="172.75,-125.42 163.3,-130.2 173.67,-132.36 172.75,-125.42"/>
</a>
</g>
</g>
<!-- Node5 -->
<g id="Node000005" class="node">
<title>Node5</title>
<g id="a_Node000005"><a xlink:href="classcom_1_1hust_1_1ittnk68_1_1cnpm_1_1model_1_1Person.html" target="_top" xlink:title=" ">
<polygon fill="white" stroke="#666666" points="345.5,-82 197.5,-82 197.5,-50 345.5,-50 345.5,-82"/>
<text text-anchor="start" x="205.5" y="-68.5" font-family="Helvetica,sans-Serif" font-size="10.00">com.hust.ittnk68.cnpm.model.</text>
<text text-anchor="middle" x="271.5" y="-56.5" font-family="Helvetica,sans-Serif" font-size="10.00">Person</text>
</a>
</g>
</g>
<!-- Node0&#45;&gt;Node5 -->
<g id="edge34_Node000000_Node000005" class="edge">
<title>Node0&#45;&gt;Node5</title>
<g id="a_edge34_Node000000_Node000005"><a xlink:title=" ">
<path fill="none" stroke="#63b8ff" d="M128.2,-119.95C149.21,-110.69 174.44,-99.91 197.5,-91 205,-88.1 212.99,-85.19 220.83,-82.43"/>
<polygon fill="#63b8ff" stroke="#63b8ff" points="127.05,-116.64 119.33,-123.89 129.89,-123.03 127.05,-116.64"/>
</a>
</g>
</g>
<!-- Node6 -->
<g id="Node000006" class="node">
<title>Node6</title>
<g id="a_Node000006"><a xlink:href="classcom_1_1hust_1_1ittnk68_1_1cnpm_1_1model_1_1Vehicle.html" target="_top" xlink:title=" ">
<polygon fill="white" stroke="#666666" points="345.5,-32 197.5,-32 197.5,0 345.5,0 345.5,-32"/>
<text text-anchor="start" x="205.5" y="-18.5" font-family="Helvetica,sans-Serif" font-size="10.00">com.hust.ittnk68.cnpm.model.</text>
<text text-anchor="middle" x="271.5" y="-6.5" font-family="Helvetica,sans-Serif" font-size="10.00">Vehicle</text>
</a>
</g>
</g>
<!-- Node0&#45;&gt;Node6 -->
<g id="edge35_Node000000_Node000006" class="edge">
<title>Node0&#45;&gt;Node6</title>
<g id="a_edge35_Node000000_Node000006"><a xlink:title=" ">
<path fill="none" stroke="#63b8ff" d="M104.47,-116.61C126.42,-94.28 161.56,-61.64 197.5,-41 203.08,-37.8 209.13,-34.92 215.28,-32.35"/>
<polygon fill="#63b8ff" stroke="#63b8ff" points="102.21,-113.91 97.77,-123.54 107.24,-118.78 102.21,-113.91"/>
</a>
</g>
</g>
</g>
</svg>
