<?xml version="1.0" encoding="UTF-8" standalone="no"?>
<!DOCTYPE svg PUBLIC "-//W3C//DTD SVG 1.1//EN"
 "http://www.w3.org/Graphics/SVG/1.1/DTD/svg11.dtd">
<!-- Generated by graphviz version 12.2.1 (20241206.2353)
 -->
<!-- Title: Graphical Class Hierarchy Pages: 1 -->
<svg width="443pt" height="290pt"
 viewBox="0.00 0.00 443.00 290.00" xmlns="http://www.w3.org/2000/svg" xmlns:xlink="http://www.w3.org/1999/xlink">
<g id="graph0" class="graph" transform="scale(1 1) rotate(0) translate(4 286)">
<title>Graphical Class Hierarchy</title>
<!-- Node0 -->
<g id="Node000000" class="node">
<title>Node0</title>
<g id="a_Node000000"><a xlink:href="classTabPane.html" target="_top" xlink:title=" ">
<polygon fill="white" stroke="#666666" points="54.25,-151 0,-151 0,-131 54.25,-131 54.25,-151"/>
<text text-anchor="middle" x="27.12" y="-137.5" font-family="Helvetica,sans-Serif" font-size="10.00">TabPane</text>
</a>
</g>
</g>
<!-- Node1 -->
<g id="Node000001" class="node">
<title>Node1</title>
<g id="a_Node000001"><a xlink:href="classcom_1_1hust_1_1ittnk68_1_1cnpm_1_1view_1_1DuongFXTabPane.html" target="_top" xlink:title=" ">
<polygon fill="white" stroke="#666666" points="230.75,-157 90.25,-157 90.25,-125 230.75,-125 230.75,-157"/>
<text text-anchor="start" x="98.25" y="-143.5" font-family="Helvetica,sans-Serif" font-size="10.00">com.hust.ittnk68.cnpm.view.</text>
<text text-anchor="middle" x="160.5" y="-131.5" font-family="Helvetica,sans-Serif" font-size="10.00">DuongFXTabPane</text>
</a>
</g>
</g>
<!-- Node0&#45;&gt;Node1 -->
<g id="edge36_Node000000_Node000001" class="edge">
<title>Node0&#45;&gt;Node1</title>
<g id="a_edge36_Node000000_Node000001"><a xlink:title=" ">
<path fill="none" stroke="#63b8ff" d="M66.03,-141C73.59,-141 81.76,-141 90.01,-141"/>
<polygon fill="#63b8ff" stroke="#63b8ff" points="66.22,-137.5 56.22,-141 66.22,-144.5 66.22,-137.5"/>
</a>
</g>
</g>
<!-- Node2 -->
<g id="Node000002" class="node">
<title>Node2</title>
<g id="a_Node000002"><a xlink:href="classcom_1_1hust_1_1ittnk68_1_1cnpm_1_1view_1_1AdminAccountManagePage.html" target="_top" xlink:title=" ">
<polygon fill="white" stroke="#666666" points="421.12,-282 280.62,-282 280.62,-250 421.12,-250 421.12,-282"/>
<text text-anchor="start" x="288.62" y="-268.5" font-family="Helvetica,sans-Serif" font-size="10.00">com.hust.ittnk68.cnpm.view.</text>
<text text-anchor="middle" x="350.88" y="-256.5" font-family="Helvetica,sans-Serif" font-size="10.00">AdminAccountManagePage</text>
</a>
</g>
</g>
<!-- Node1&#45;&gt;Node2 -->
<g id="edge37_Node000001_Node000002" class="edge">
<title>Node1&#45;&gt;Node2</title>
<g id="a_edge37_Node000001_Node000002"><a xlink:title=" ">
<path fill="none" stroke="#63b8ff" d="M181.73,-166.01C201.28,-188.63 232.84,-221.31 266.75,-241 272.35,-244.25 278.42,-247.12 284.64,-249.64"/>
<polygon fill="#63b8ff" stroke="#63b8ff" points="184.47,-163.82 175.34,-158.45 179.12,-168.34 184.47,-163.82"/>
</a>
</g>
</g>
<!-- Node3 -->
<g id="Node000003" class="node">
<title>Node3</title>
<g id="a_Node000003"><a xlink:href="classcom_1_1hust_1_1ittnk68_1_1cnpm_1_1view_1_1AdminExpenseManagePage.html" target="_top" xlink:title=" ">
<polygon fill="white" stroke="#666666" points="421.12,-232 280.62,-232 280.62,-200 421.12,-200 421.12,-232"/>
<text text-anchor="start" x="288.62" y="-218.5" font-family="Helvetica,sans-Serif" font-size="10.00">com.hust.ittnk68.cnpm.view.</text>
<text text-anchor="middle" x="350.88" y="-206.5" font-family="Helvetica,sans-Serif" font-size="10.00">AdminExpenseManagePage</text>
</a>
</g>
</g>
<!-- Node1&#45;&gt;Node3 -->
<g id="edge38_Node000001_Node000003" class="edge">
<title>Node1&#45;&gt;Node3</title>
<g id="a_edge38_Node000001_Node000003"><a xlink:title=" ">
<path fill="none" stroke="#63b8ff" d="M202.91,-162.45C222.04,-171.9 245.25,-182.71 266.75,-191 274.62,-194.03 283.03,-196.94 291.36,-199.62"/>
<polygon fill="#63b8ff" stroke="#63b8ff" points="204.6,-159.39 194.09,-158.05 201.47,-165.65 204.6,-159.39"/>
</a>
</g>
</g>
<!-- Node4 -->
<g id="Node000004" class="node">
<title>Node4</title>
<g id="a_Node000004"><a xlink:href="classcom_1_1hust_1_1ittnk68_1_1cnpm_1_1view_1_1AdminFamilyManagePage.html" target="_top" xlink:title=" ">
<polygon fill="white" stroke="#666666" points="421.12,-182 280.62,-182 280.62,-150 421.12,-150 421.12,-182"/>
<text text-anchor="start" x="288.62" y="-168.5" font-family="Helvetica,sans-Serif" font-size="10.00">com.hust.ittnk68.cnpm.view.</text>
<text text-anchor="middle" x="350.88" y="-156.5" font-family="Helvetica,sans-Serif" font-size="10.00">AdminFamilyManagePage</text>
</a>
</g>
</g>
<!-- Node1&#45;&gt;Node4 -->
<g id="edge39_Node000001_Node000004" class="edge">
<title>Node1&#45;&gt;Node4</title>
<g id="a_edge39_Node000001_Node000004"><a xlink:title=" ">
<path fill="none" stroke="#63b8ff" d="M242.14,-151.7C254.82,-153.38 267.83,-155.11 280.24,-156.76"/>
<polygon fill="#63b8ff" stroke="#63b8ff" points="242.98,-148.28 232.61,-150.44 242.06,-155.22 242.98,-148.28"/>
</a>
</g>
</g>
<!-- Node5 -->
<g id="Node000005" class="node">
<title>Node5</title>
<g id="a_Node000005"><a xlink:href="classcom_1_1hust_1_1ittnk68_1_1cnpm_1_1view_1_1AdminPaymentStatusManagePage.html" target="_top" xlink:title=" ">
<polygon fill="white" stroke="#666666" points="435,-132 266.75,-132 266.75,-100 435,-100 435,-132"/>
<text text-anchor="start" x="274.75" y="-118.5" font-family="Helvetica,sans-Serif" font-size="10.00">com.hust.ittnk68.cnpm.view.</text>
<text text-anchor="middle" x="350.88" y="-106.5" font-family="Helvetica,sans-Serif" font-size="10.00">AdminPaymentStatusManagePage</text>
</a>
</g>
</g>
<!-- Node1&#45;&gt;Node5 -->
<g id="edge40_Node000001_Node000005" class="edge">
<title>Node1&#45;&gt;Node5</title>
<g id="a_edge40_Node000001_Node000005"><a xlink:title=" ">
<path fill="none" stroke="#63b8ff" d="M242.32,-130.27C250.34,-129.21 258.48,-128.13 266.52,-127.06"/>
<polygon fill="#63b8ff" stroke="#63b8ff" points="242.06,-126.78 232.61,-131.56 242.98,-133.72 242.06,-126.78"/>
</a>
</g>
</g>
<!-- Node6 -->
<g id="Node000006" class="node">
<title>Node6</title>
<g id="a_Node000006"><a xlink:href="classcom_1_1hust_1_1ittnk68_1_1cnpm_1_1view_1_1AdminPersonManagePage.html" target="_top" xlink:title=" ">
<polygon fill="white" stroke="#666666" points="421.12,-82 280.62,-82 280.62,-50 421.12,-50 421.12,-82"/>
<text text-anchor="start" x="288.62" y="-68.5" font-family="Helvetica,sans-Serif" font-size="10.00">com.hust.ittnk68.cnpm.view.</text>
<text text-anchor="middle" x="350.88" y="-56.5" font-family="Helvetica,sans-Serif" font-size="10.00">AdminPersonManagePage</text>
</a>
</g>
</g>
<!-- Node1&#45;&gt;Node6 -->
<g id="edge41_Node000001_Node000006" class="edge">
<title>Node1&#45;&gt;Node6</title>
<g id="a_edge41_Node000001_Node000006"><a xlink:title=" ">
<path fill="none" stroke="#63b8ff" d="M202.91,-119.55C222.04,-110.1 245.25,-99.29 266.75,-91 274.62,-87.97 283.03,-85.06 291.36,-82.38"/>
<polygon fill="#63b8ff" stroke="#63b8ff" points="201.47,-116.35 194.09,-123.95 204.6,-122.61 201.47,-116.35"/>
</a>
</g>
</g>
<!-- Node7 -->
<g id="Node000007" class="node">
<title>Node7</title>
<g id="a_Node000007"><a xlink:href="classcom_1_1hust_1_1ittnk68_1_1cnpm_1_1view_1_1ClientExpensePage.html" target="_top" xlink:title=" ">
<polygon fill="white" stroke="#666666" points="421.12,-32 280.62,-32 280.62,0 421.12,0 421.12,-32"/>
<text text-anchor="start" x="288.62" y="-18.5" font-family="Helvetica,sans-Serif" font-size="10.00">com.hust.ittnk68.cnpm.view.</text>
<text text-anchor="middle" x="350.88" y="-6.5" font-family="Helvetica,sans-Serif" font-size="10.00">ClientExpensePage</text>
</a>
</g>
</g>
<!-- Node1&#45;&gt;Node7 -->
<g id="edge42_Node000001_Node000007" class="edge">
<title>Node1&#45;&gt;Node7</title>
<g id="a_edge42_Node000001_Node000007"><a xlink:title=" ">
<path fill="none" stroke="#63b8ff" d="M181.73,-115.99C201.28,-93.37 232.84,-60.69 266.75,-41 272.35,-37.75 278.42,-34.88 284.64,-32.36"/>
<polygon fill="#63b8ff" stroke="#63b8ff" points="179.12,-113.66 175.34,-123.55 184.47,-118.18 179.12,-113.66"/>
</a>
</g>
</g>
</g>
</svg>
