<?xml version="1.0" encoding="UTF-8" standalone="no"?>
<!DOCTYPE svg PUBLIC "-//W3C//DTD SVG 1.1//EN"
 "http://www.w3.org/Graphics/SVG/1.1/DTD/svg11.dtd">
<!-- Generated by graphviz version 12.2.1 (20241206.2353)
 -->
<!-- Title: Graphical Class Hierarchy Pages: 1 -->
<svg width="267pt" height="90pt"
 viewBox="0.00 0.00 267.25 90.00" xmlns="http://www.w3.org/2000/svg" xmlns:xlink="http://www.w3.org/1999/xlink">
<g id="graph0" class="graph" transform="scale(1 1) rotate(0) translate(4 86)">
<title>Graphical Class Hierarchy</title>
<!-- Node0 -->
<g id="Node000000" class="node">
<title>Node0</title>
<g id="a_Node000000"><a xlink:href="classException.html" target="_top" xlink:title=" ">
<polygon fill="white" stroke="#666666" points="59.5,-51 0,-51 0,-31 59.5,-31 59.5,-51"/>
<text text-anchor="middle" x="29.75" y="-37.5" font-family="Helvetica,sans-Serif" font-size="10.00">Exception</text>
</a>
</g>
</g>
<!-- Node1 -->
<g id="Node000001" class="node">
<title>Node1</title>
<g id="a_Node000001"><a xlink:href="classcom_1_1hust_1_1ittnk68_1_1cnpm_1_1exception_1_1ConfigFileException.html" target="_top" xlink:title=" ">
<polygon fill="white" stroke="#666666" points="259.25,-82 95.5,-82 95.5,-50 259.25,-50 259.25,-82"/>
<text text-anchor="start" x="103.5" y="-68.5" font-family="Helvetica,sans-Serif" font-size="10.00">com.hust.ittnk68.cnpm.exception.</text>
<text text-anchor="middle" x="177.38" y="-56.5" font-family="Helvetica,sans-Serif" font-size="10.00">ConfigFileException</text>
</a>
</g>
</g>
<!-- Node0&#45;&gt;Node1 -->
<g id="edge36_Node000000_Node000001" class="edge">
<title>Node0&#45;&gt;Node1</title>
<g id="a_edge36_Node000000_Node000001"><a xlink:title=" ">
<path fill="none" stroke="#63b8ff" d="M71.17,-47.94C78.71,-49.23 86.83,-50.63 95.09,-52.05"/>
<polygon fill="#63b8ff" stroke="#63b8ff" points="71.81,-44.5 61.36,-46.26 70.62,-51.4 71.81,-44.5"/>
</a>
</g>
</g>
<!-- Node2 -->
<g id="Node000002" class="node">
<title>Node2</title>
<g id="a_Node000002"><a xlink:href="classcom_1_1hust_1_1ittnk68_1_1cnpm_1_1exception_1_1UserCreateSecondSession.html" target="_top" xlink:title=" ">
<polygon fill="white" stroke="#666666" points="259.25,-32 95.5,-32 95.5,0 259.25,0 259.25,-32"/>
<text text-anchor="start" x="103.5" y="-18.5" font-family="Helvetica,sans-Serif" font-size="10.00">com.hust.ittnk68.cnpm.exception.</text>
<text text-anchor="middle" x="177.38" y="-6.5" font-family="Helvetica,sans-Serif" font-size="10.00">UserCreateSecondSession</text>
</a>
</g>
</g>
<!-- Node0&#45;&gt;Node2 -->
<g id="edge37_Node000000_Node000002" class="edge">
<title>Node0&#45;&gt;Node2</title>
<g id="a_edge37_Node000000_Node000002"><a xlink:title=" ">
<path fill="none" stroke="#63b8ff" d="M71.17,-34.06C78.71,-32.77 86.83,-31.37 95.09,-29.95"/>
<polygon fill="#63b8ff" stroke="#63b8ff" points="70.62,-30.6 61.36,-35.74 71.81,-37.5 70.62,-30.6"/>
</a>
</g>
</g>
</g>
</svg>
