<?xml version="1.0" encoding="UTF-8" standalone="no"?>
<!DOCTYPE svg PUBLIC "-//W3C//DTD SVG 1.1//EN"
 "http://www.w3.org/Graphics/SVG/1.1/DTD/svg11.dtd">
<!-- Generated by graphviz version 12.2.1 (20241206.2353)
 -->
<!-- Title: Graphical Class Hierarchy Pages: 1 -->
<svg width="418pt" height="140pt"
 viewBox="0.00 0.00 417.50 140.00" xmlns="http://www.w3.org/2000/svg" xmlns:xlink="http://www.w3.org/1999/xlink">
<g id="graph0" class="graph" transform="scale(1 1) rotate(0) translate(4 136)">
<title>Graphical Class Hierarchy</title>
<!-- Node0 -->
<g id="Node000000" class="node">
<title>Node0</title>
<g id="a_Node000000"><a xlink:href="classGridPane.html" target="_top" xlink:title=" ">
<polygon fill="white" stroke="#666666" points="56.5,-76 0,-76 0,-56 56.5,-56 56.5,-76"/>
<text text-anchor="middle" x="28.25" y="-62.5" font-family="Helvetica,sans-Serif" font-size="10.00">GridPane</text>
</a>
</g>
</g>
<!-- Node1 -->
<g id="Node000001" class="node">
<title>Node1</title>
<g id="a_Node000001"><a xlink:href="classcom_1_1hust_1_1ittnk68_1_1cnpm_1_1view_1_1DuongFXGridPane.html" target="_top" xlink:title=" ">
<polygon fill="white" stroke="#666666" points="233,-82 92.5,-82 92.5,-50 233,-50 233,-82"/>
<text text-anchor="start" x="100.5" y="-68.5" font-family="Helvetica,sans-Serif" font-size="10.00">com.hust.ittnk68.cnpm.view.</text>
<text text-anchor="middle" x="162.75" y="-56.5" font-family="Helvetica,sans-Serif" font-size="10.00">DuongFXGridPane</text>
</a>
</g>
</g>
<!-- Node0&#45;&gt;Node1 -->
<g id="edge38_Node000000_Node000001" class="edge">
<title>Node0&#45;&gt;Node1</title>
<g id="a_edge38_Node000000_Node000001"><a xlink:title=" ">
<path fill="none" stroke="#63b8ff" d="M68.12,-66C75.74,-66 83.95,-66 92.23,-66"/>
<polygon fill="#63b8ff" stroke="#63b8ff" points="68.22,-62.5 58.22,-66 68.22,-69.5 68.22,-62.5"/>
</a>
</g>
</g>
<!-- Node2 -->
<g id="Node000002" class="node">
<title>Node2</title>
<g id="a_Node000002"><a xlink:href="classcom_1_1hust_1_1ittnk68_1_1cnpm_1_1view_1_1AdminHomeView.html" target="_top" xlink:title=" ">
<polygon fill="white" stroke="#666666" points="409.5,-132 269,-132 269,-100 409.5,-100 409.5,-132"/>
<text text-anchor="start" x="277" y="-118.5" font-family="Helvetica,sans-Serif" font-size="10.00">com.hust.ittnk68.cnpm.view.</text>
<text text-anchor="middle" x="339.25" y="-106.5" font-family="Helvetica,sans-Serif" font-size="10.00">AdminHomeView</text>
</a>
</g>
</g>
<!-- Node1&#45;&gt;Node2 -->
<g id="edge39_Node000001_Node000002" class="edge">
<title>Node1&#45;&gt;Node2</title>
<g id="a_edge39_Node000001_Node000002"><a xlink:title=" ">
<path fill="none" stroke="#63b8ff" d="M231.88,-85.52C248.02,-90.15 265.07,-95.03 280.69,-99.51"/>
<polygon fill="#63b8ff" stroke="#63b8ff" points="232.92,-82.18 222.34,-82.79 230.99,-88.91 232.92,-82.18"/>
</a>
</g>
</g>
<!-- Node3 -->
<g id="Node000003" class="node">
<title>Node3</title>
<g id="a_Node000003"><a xlink:href="classcom_1_1hust_1_1ittnk68_1_1cnpm_1_1view_1_1ClientHomePage.html" target="_top" xlink:title=" ">
<polygon fill="white" stroke="#666666" points="409.5,-82 269,-82 269,-50 409.5,-50 409.5,-82"/>
<text text-anchor="start" x="277" y="-68.5" font-family="Helvetica,sans-Serif" font-size="10.00">com.hust.ittnk68.cnpm.view.</text>
<text text-anchor="middle" x="339.25" y="-56.5" font-family="Helvetica,sans-Serif" font-size="10.00">ClientHomePage</text>
</a>
</g>
</g>
<!-- Node1&#45;&gt;Node3 -->
<g id="edge40_Node000001_Node000003" class="edge">
<title>Node1&#45;&gt;Node3</title>
<g id="a_edge40_Node000001_Node000003"><a xlink:title=" ">
<path fill="none" stroke="#63b8ff" d="M244.98,-66C252.89,-66 260.86,-66 268.64,-66"/>
<polygon fill="#63b8ff" stroke="#63b8ff" points="244.98,-62.5 234.98,-66 244.98,-69.5 244.98,-62.5"/>
</a>
</g>
</g>
<!-- Node4 -->
<g id="Node000004" class="node">
<title>Node4</title>
<g id="a_Node000004"><a xlink:href="classcom_1_1hust_1_1ittnk68_1_1cnpm_1_1view_1_1ClientHomeScreenView.html" target="_top" xlink:title=" ">
<polygon fill="white" stroke="#666666" points="409.5,-32 269,-32 269,0 409.5,0 409.5,-32"/>
<text text-anchor="start" x="277" y="-18.5" font-family="Helvetica,sans-Serif" font-size="10.00">com.hust.ittnk68.cnpm.view.</text>
<text text-anchor="middle" x="339.25" y="-6.5" font-family="Helvetica,sans-Serif" font-size="10.00">ClientHomeScreenView</text>
</a>
</g>
</g>
<!-- Node1&#45;&gt;Node4 -->
<g id="edge41_Node000001_Node000004" class="edge">
<title>Node1&#45;&gt;Node4</title>
<g id="a_edge41_Node000001_Node000004"><a xlink:title=" ">
<path fill="none" stroke="#63b8ff" d="M231.88,-46.48C248.02,-41.85 265.07,-36.97 280.69,-32.49"/>
<polygon fill="#63b8ff" stroke="#63b8ff" points="230.99,-43.09 222.34,-49.21 232.92,-49.82 230.99,-43.09"/>
</a>
</g>
</g>
</g>
</svg>
