<?xml version="1.0" encoding="UTF-8" standalone="no"?>
<!DOCTYPE svg PUBLIC "-//W3C//DTD SVG 1.1//EN"
 "http://www.w3.org/Graphics/SVG/1.1/DTD/svg11.dtd">
<!-- Generated by graphviz version 12.2.1 (20241206.2353)
 -->
<!-- Title: Graphical Class Hierarchy Pages: 1 -->
<svg width="252pt" height="140pt"
 viewBox="0.00 0.00 251.50 140.00" xmlns="http://www.w3.org/2000/svg" xmlns:xlink="http://www.w3.org/1999/xlink">
<g id="graph0" class="graph" transform="scale(1 1) rotate(0) translate(4 136)">
<title>Graphical Class Hierarchy</title>
<!-- Node0 -->
<g id="Node000000" class="node">
<title>Node0</title>
<g id="a_Node000000"><a xlink:href="classBorderPane.html" target="_top" xlink:title=" ">
<polygon fill="white" stroke="#666666" points="67,-76 0,-76 0,-56 67,-56 67,-76"/>
<text text-anchor="middle" x="33.5" y="-62.5" font-family="Helvetica,sans-Serif" font-size="10.00">BorderPane</text>
</a>
</g>
</g>
<!-- Node1 -->
<g id="Node000001" class="node">
<title>Node1</title>
<g id="a_Node000001"><a xlink:href="classcom_1_1hust_1_1ittnk68_1_1cnpm_1_1view_1_1AdminHomeSideBar.html" target="_top" xlink:title=" ">
<polygon fill="white" stroke="#666666" points="243.5,-132 103,-132 103,-100 243.5,-100 243.5,-132"/>
<text text-anchor="start" x="111" y="-118.5" font-family="Helvetica,sans-Serif" font-size="10.00">com.hust.ittnk68.cnpm.view.</text>
<text text-anchor="middle" x="173.25" y="-106.5" font-family="Helvetica,sans-Serif" font-size="10.00">AdminHomeSideBar</text>
</a>
</g>
</g>
<!-- Node0&#45;&gt;Node1 -->
<g id="edge3_Node000000_Node000001" class="edge">
<title>Node0&#45;&gt;Node1</title>
<g id="a_edge3_Node000000_Node000001"><a xlink:title=" ">
<path fill="none" stroke="#63b8ff" d="M73.95,-80.43C83.46,-83.89 93.59,-87.58 103,-91 110.69,-93.79 118.86,-96.75 126.8,-99.62"/>
<polygon fill="#63b8ff" stroke="#63b8ff" points="75.17,-77.14 64.58,-77 72.77,-83.72 75.17,-77.14"/>
</a>
</g>
</g>
<!-- Node2 -->
<g id="Node000002" class="node">
<title>Node2</title>
<g id="a_Node000002"><a xlink:href="classcom_1_1hust_1_1ittnk68_1_1cnpm_1_1view_1_1ClientHomeSideBar.html" target="_top" xlink:title=" ">
<polygon fill="white" stroke="#666666" points="243.5,-82 103,-82 103,-50 243.5,-50 243.5,-82"/>
<text text-anchor="start" x="111" y="-68.5" font-family="Helvetica,sans-Serif" font-size="10.00">com.hust.ittnk68.cnpm.view.</text>
<text text-anchor="middle" x="173.25" y="-56.5" font-family="Helvetica,sans-Serif" font-size="10.00">ClientHomeSideBar</text>
</a>
</g>
</g>
<!-- Node0&#45;&gt;Node2 -->
<g id="edge4_Node000000_Node000002" class="edge">
<title>Node0&#45;&gt;Node2</title>
<g id="a_edge4_Node000000_Node000002"><a xlink:title=" ">
<path fill="none" stroke="#63b8ff" d="M78.99,-66C86.59,-66 94.64,-66 102.71,-66"/>
<polygon fill="#63b8ff" stroke="#63b8ff" points="79.01,-62.5 69.01,-66 79.01,-69.5 79.01,-62.5"/>
</a>
</g>
</g>
<!-- Node3 -->
<g id="Node000003" class="node">
<title>Node3</title>
<g id="a_Node000003"><a xlink:href="classcom_1_1hust_1_1ittnk68_1_1cnpm_1_1view_1_1LoginView.html" target="_top" xlink:title=" ">
<polygon fill="white" stroke="#666666" points="243.5,-32 103,-32 103,0 243.5,0 243.5,-32"/>
<text text-anchor="start" x="111" y="-18.5" font-family="Helvetica,sans-Serif" font-size="10.00">com.hust.ittnk68.cnpm.view.</text>
<text text-anchor="middle" x="173.25" y="-6.5" font-family="Helvetica,sans-Serif" font-size="10.00">LoginView</text>
</a>
</g>
</g>
<!-- Node0&#45;&gt;Node3 -->
<g id="edge5_Node000000_Node000003" class="edge">
<title>Node0&#45;&gt;Node3</title>
<g id="a_edge5_Node000000_Node000003"><a xlink:title=" ">
<path fill="none" stroke="#63b8ff" d="M73.95,-51.57C83.46,-48.11 93.59,-44.42 103,-41 110.69,-38.21 118.86,-35.25 126.8,-32.38"/>
<polygon fill="#63b8ff" stroke="#63b8ff" points="72.77,-48.28 64.58,-55 75.17,-54.86 72.77,-48.28"/>
</a>
</g>
</g>
</g>
</svg>
