<?xml version="1.0" encoding="UTF-8" standalone="no"?>
<!DOCTYPE svg PUBLIC "-//W3C//DTD SVG 1.1//EN"
 "http://www.w3.org/Graphics/SVG/1.1/DTD/svg11.dtd">
<!-- Generated by graphviz version 12.2.1 (20241206.2353)
 -->
<!-- Title: com.hust.ittnk68.cnpm.config.DefaultConfig Pages: 1 -->
<svg width="148pt" height="252pt"
 viewBox="0.00 0.00 148.00 252.00" xmlns="http://www.w3.org/2000/svg" xmlns:xlink="http://www.w3.org/1999/xlink">
<g id="graph0" class="graph" transform="scale(1 1) rotate(0) translate(4 248)">
<title>com.hust.ittnk68.cnpm.config.DefaultConfig</title>
<!-- Node1 -->
<g id="Node000001" class="node">
<title>Node1</title>
<g id="a_Node000001"><a xlink:title=" ">
<polygon fill="#999999" stroke="none" points="140,-244 0,-244 0,-148 140,-148 140,-244"/>
<text text-anchor="start" x="4" y="-230.5" font-family="Helvetica,sans-Serif" font-size="10.00">com.hust.ittnk68.cnpm.config.</text>
<text text-anchor="start" x="40" y="-218.5" font-family="Helvetica,sans-Serif" font-size="10.00">DefaultConfig</text>
<text text-anchor="start" x="68.5" y="-202.5" font-family="Helvetica,sans-Serif" font-size="10.00"> </text>
<text text-anchor="start" x="10.69" y="-186.5" font-family="Helvetica,sans-Serif" font-size="10.00">+</text>
<text text-anchor="start" x="27.38" y="-186.5" font-family="Helvetica,sans-Serif" font-size="10.00">keyExists()</text>
<text text-anchor="start" x="10.69" y="-170.5" font-family="Helvetica,sans-Serif" font-size="10.00">+</text>
<text text-anchor="start" x="27.38" y="-170.5" font-family="Helvetica,sans-Serif" font-size="10.00">getProperty()</text>
<text text-anchor="start" x="10.69" y="-154.5" font-family="Helvetica,sans-Serif" font-size="10.00">+</text>
<text text-anchor="start" x="27.38" y="-154.5" font-family="Helvetica,sans-Serif" font-size="10.00">getDefaultProperties()</text>
<polygon fill="#666666" stroke="#666666" points="0,-214 0,-214 140,-214 140,-214 0,-214"/>
<polygon fill="#666666" stroke="#666666" points="0,-198 0,-198 140,-198 140,-198 0,-198"/>
<polygon fill="none" stroke="#666666" points="0,-148 0,-244 140,-244 140,-148 0,-148"/>
</a>
</g>
</g>
<!-- Node2 -->
<g id="Node000002" class="node">
<title>Node2</title>
<g id="a_Node000002"><a xlink:href="classcom_1_1hust_1_1ittnk68_1_1cnpm_1_1config_1_1MySQLDefaultConfig.html" target="_top" xlink:title=" ">
<polygon fill="white" stroke="none" points="140,-112 0,-112 0,0 140,0 140,-112"/>
<text text-anchor="start" x="4" y="-98.5" font-family="Helvetica,sans-Serif" font-size="10.00">com.hust.ittnk68.cnpm.config.</text>
<text text-anchor="start" x="23.5" y="-86.5" font-family="Helvetica,sans-Serif" font-size="10.00">MySQLDefaultConfig</text>
<text text-anchor="start" x="68.5" y="-70.5" font-family="Helvetica,sans-Serif" font-size="10.00"> </text>
<text text-anchor="start" x="10.69" y="-54.5" font-family="Helvetica,sans-Serif" font-size="10.00">+</text>
<text text-anchor="start" x="27.38" y="-54.5" font-family="Helvetica,sans-Serif" font-size="10.00">keyExists()</text>
<text text-anchor="start" x="10.69" y="-38.5" font-family="Helvetica,sans-Serif" font-size="10.00">+</text>
<text text-anchor="start" x="27.38" y="-38.5" font-family="Helvetica,sans-Serif" font-size="10.00">getProperty()</text>
<text text-anchor="start" x="10.69" y="-22.5" font-family="Helvetica,sans-Serif" font-size="10.00">+</text>
<text text-anchor="start" x="27.38" y="-22.5" font-family="Helvetica,sans-Serif" font-size="10.00">getDefaultProperties()</text>
<text text-anchor="start" x="10.69" y="-6.5" font-family="Helvetica,sans-Serif" font-size="10.00">~</text>
<text text-anchor="start" x="27.38" y="-6.5" font-family="Helvetica,sans-Serif" font-size="10.00">[static initializer]()</text>
<polygon fill="#666666" stroke="#666666" points="0,-82 0,-82 140,-82 140,-82 0,-82"/>
<polygon fill="#666666" stroke="#666666" points="0,-66 0,-66 140,-66 140,-66 0,-66"/>
<polygon fill="none" stroke="#666666" points="0,0 0,-112 140,-112 140,0 0,0"/>
</a>
</g>
</g>
<!-- Node1&#45;&gt;Node2 -->
<g id="edge1_Node000001_Node000002" class="edge">
<title>Node1&#45;&gt;Node2</title>
<g id="a_edge1_Node000001_Node000002"><a xlink:title=" ">
<path fill="none" stroke="#63b8ff" d="M70,-137.05C70,-128.68 70,-120.08 70,-111.78"/>
<polygon fill="none" stroke="#63b8ff" points="66.5,-136.77 70,-146.77 73.5,-136.77 66.5,-136.77"/>
</a>
</g>
</g>
</g>
</svg>
