<?xml version="1.0" encoding="UTF-8" standalone="no"?>
<!DOCTYPE svg PUBLIC "-//W3C//DTD SVG 1.1//EN"
 "http://www.w3.org/Graphics/SVG/1.1/DTD/svg11.dtd">
<!-- Generated by graphviz version 12.2.1 (20241206.2353)
 -->
<!-- Title: src/main/java/com/hust/ittnk68/cnpm/auth/JwtUtil.java Pages: 1 -->
<svg width="1082pt" height="108pt"
 viewBox="0.00 0.00 1082.38 108.00" xmlns="http://www.w3.org/2000/svg" xmlns:xlink="http://www.w3.org/1999/xlink">
<g id="graph0" class="graph" transform="scale(1 1) rotate(0) translate(4 104)">
<title>src/main/java/com/hust/ittnk68/cnpm/auth/JwtUtil.java</title>
<!-- Node1 -->
<g id="Node000001" class="node">
<title>Node1</title>
<g id="a_Node000001"><a xlink:title=" ">
<polygon fill="#999999" stroke="#666666" points="539.25,-100 387.5,-100 387.5,-68 539.25,-68 539.25,-100"/>
<text text-anchor="start" x="395.5" y="-86.5" font-family="Helvetica,sans-Serif" font-size="10.00">src/main/java/com/hust</text>
<text text-anchor="middle" x="463.38" y="-74.5" font-family="Helvetica,sans-Serif" font-size="10.00">/ittnk68/cnpm/auth/JwtUtil.java</text>
</a>
</g>
</g>
<!-- Node2 -->
<g id="Node000002" class="node">
<title>Node2</title>
<g id="a_Node000002"><a xlink:title=" ">
<polygon fill="#e0e0e0" stroke="#999999" points="76.75,-26 0,-26 0,-6 76.75,-6 76.75,-26"/>
<text text-anchor="middle" x="38.38" y="-12.5" font-family="Helvetica,sans-Serif" font-size="10.00">java.security.*</text>
</a>
</g>
</g>
<!-- Node1&#45;&gt;Node2 -->
<g id="edge1_Node000001_Node000002" class="edge">
<title>Node1&#45;&gt;Node2</title>
<g id="a_edge1_Node000001_Node000002"><a xlink:title=" ">
<path fill="none" stroke="#63b8ff" d="M387.02,-76.65C310.17,-69.34 188.58,-55.24 85.38,-32 82.24,-31.29 79.02,-30.47 75.8,-29.59"/>
<polygon fill="#63b8ff" stroke="#63b8ff" points="77.03,-26.3 66.45,-26.82 75.04,-33.01 77.03,-26.3"/>
</a>
</g>
</g>
<!-- Node3 -->
<g id="Node000003" class="node">
<title>Node3</title>
<g id="a_Node000003"><a xlink:title=" ">
<polygon fill="#e0e0e0" stroke="#999999" points="188,-26 94.75,-26 94.75,-6 188,-6 188,-26"/>
<text text-anchor="middle" x="141.38" y="-12.5" font-family="Helvetica,sans-Serif" font-size="10.00">io.jsonwebtoken.*</text>
</a>
</g>
</g>
<!-- Node1&#45;&gt;Node3 -->
<g id="edge2_Node000001_Node000003" class="edge">
<title>Node1&#45;&gt;Node3</title>
<g id="a_edge2_Node000001_Node000003"><a xlink:title=" ">
<path fill="none" stroke="#63b8ff" d="M387.11,-69.89C333.76,-60.35 260.96,-46.59 197.38,-32 193.63,-31.14 189.76,-30.2 185.88,-29.23"/>
<polygon fill="#63b8ff" stroke="#63b8ff" points="187.06,-25.92 176.5,-26.82 185.31,-32.7 187.06,-25.92"/>
</a>
</g>
</g>
<!-- Node4 -->
<g id="Node000004" class="node">
<title>Node4</title>
<g id="a_Node000004"><a xlink:title=" ">
<polygon fill="#e0e0e0" stroke="#999999" points="280.25,-26 206.5,-26 206.5,-6 280.25,-6 280.25,-26"/>
<text text-anchor="middle" x="243.38" y="-12.5" font-family="Helvetica,sans-Serif" font-size="10.00">java.util.Date</text>
</a>
</g>
</g>
<!-- Node1&#45;&gt;Node4 -->
<g id="edge3_Node000001_Node000004" class="edge">
<title>Node1&#45;&gt;Node4</title>
<g id="a_edge3_Node000001_Node000004"><a xlink:title=" ">
<path fill="none" stroke="#63b8ff" d="M409.17,-67.57C374.77,-57.66 329.37,-44.38 289.38,-32 287.27,-31.35 285.11,-30.67 282.93,-29.98"/>
<polygon fill="#63b8ff" stroke="#63b8ff" points="284.07,-26.67 273.48,-26.96 281.94,-33.34 284.07,-26.67"/>
</a>
</g>
</g>
<!-- Node5 -->
<g id="Node000005" class="node">
<title>Node5</title>
<g id="a_Node000005"><a xlink:title=" ">
<polygon fill="#e0e0e0" stroke="#999999" points="454.5,-32 298.25,-32 298.25,0 454.5,0 454.5,-32"/>
<text text-anchor="start" x="306.25" y="-18.5" font-family="Helvetica,sans-Serif" font-size="10.00">org.springframework.stereotype.</text>
<text text-anchor="middle" x="376.38" y="-6.5" font-family="Helvetica,sans-Serif" font-size="10.00">Component</text>
</a>
</g>
</g>
<!-- Node1&#45;&gt;Node5 -->
<g id="edge4_Node000001_Node000005" class="edge">
<title>Node1&#45;&gt;Node5</title>
<g id="a_edge4_Node000001_Node000005"><a xlink:title=" ">
<path fill="none" stroke="#63b8ff" d="M443.2,-67.69C432.08,-59.26 418.07,-48.63 405.76,-39.29"/>
<polygon fill="#63b8ff" stroke="#63b8ff" points="408.03,-36.62 397.95,-33.37 403.8,-42.2 408.03,-36.62"/>
</a>
</g>
</g>
<!-- Node6 -->
<g id="Node000006" class="node">
<title>Node6</title>
<g id="a_Node000006"><a xlink:title=" ">
<polygon fill="#e0e0e0" stroke="#999999" points="630.25,-32 472.5,-32 472.5,0 630.25,0 630.25,-32"/>
<text text-anchor="start" x="480.5" y="-18.5" font-family="Helvetica,sans-Serif" font-size="10.00">com.fasterxml.jackson.databind.</text>
<text text-anchor="middle" x="551.38" y="-6.5" font-family="Helvetica,sans-Serif" font-size="10.00">ObjectMapper</text>
</a>
</g>
</g>
<!-- Node1&#45;&gt;Node6 -->
<g id="edge5_Node000001_Node000006" class="edge">
<title>Node1&#45;&gt;Node6</title>
<g id="a_edge5_Node000001_Node000006"><a xlink:title=" ">
<path fill="none" stroke="#63b8ff" d="M483.79,-67.69C495.03,-59.26 509.2,-48.63 521.66,-39.29"/>
<polygon fill="#63b8ff" stroke="#63b8ff" points="523.66,-42.16 529.56,-33.36 519.46,-36.56 523.66,-42.16"/>
</a>
</g>
</g>
<!-- Node7 -->
<g id="Node000007" class="node">
<title>Node7</title>
<g id="a_Node000007"><a xlink:title=" ">
<polygon fill="#e0e0e0" stroke="#999999" points="788.25,-32 648.5,-32 648.5,0 788.25,0 788.25,-32"/>
<text text-anchor="start" x="656.5" y="-18.5" font-family="Helvetica,sans-Serif" font-size="10.00">com.fasterxml.jackson.core.</text>
<text text-anchor="middle" x="718.38" y="-6.5" font-family="Helvetica,sans-Serif" font-size="10.00">JsonProcessingException</text>
</a>
</g>
</g>
<!-- Node1&#45;&gt;Node7 -->
<g id="edge6_Node000001_Node000007" class="edge">
<title>Node1&#45;&gt;Node7</title>
<g id="a_edge6_Node000001_Node000007"><a xlink:title=" ">
<path fill="none" stroke="#63b8ff" d="M523.16,-67.53C560.35,-57.9 608.38,-45.47 647.48,-35.35"/>
<polygon fill="#63b8ff" stroke="#63b8ff" points="648.25,-38.76 657.06,-32.87 646.5,-31.99 648.25,-38.76"/>
</a>
</g>
</g>
<!-- Node8 -->
<g id="Node000008" class="node">
<title>Node8</title>
<g id="a_Node000008"><a xlink:title=" ">
<polygon fill="#e0e0e0" stroke="#999999" points="908.12,-26 806.62,-26 806.62,-6 908.12,-6 908.12,-26"/>
<text text-anchor="middle" x="857.38" y="-12.5" font-family="Helvetica,sans-Serif" font-size="10.00">java.io.IOException</text>
</a>
</g>
</g>
<!-- Node1&#45;&gt;Node8 -->
<g id="edge7_Node000001_Node000008" class="edge">
<title>Node1&#45;&gt;Node8</title>
<g id="a_edge7_Node000001_Node000008"><a xlink:title=" ">
<path fill="none" stroke="#63b8ff" d="M539.67,-73.42C607.6,-64.39 709.53,-49.65 797.38,-32 801.75,-31.12 806.29,-30.13 810.82,-29.09"/>
<polygon fill="#63b8ff" stroke="#63b8ff" points="811.58,-32.51 820.49,-26.79 809.95,-25.7 811.58,-32.51"/>
</a>
</g>
</g>
<!-- Node9 -->
<g id="Node000009" class="node">
<title>Node9</title>
<g id="a_Node000009"><a xlink:title=" ">
<polygon fill="#e0e0e0" stroke="#999999" points="1074.38,-32 926.38,-32 926.38,0 1074.38,0 1074.38,-32"/>
<text text-anchor="start" x="934.38" y="-18.5" font-family="Helvetica,sans-Serif" font-size="10.00">com.hust.ittnk68.cnpm.model.</text>
<text text-anchor="middle" x="1000.38" y="-6.5" font-family="Helvetica,sans-Serif" font-size="10.00">Account</text>
</a>
</g>
</g>
<!-- Node1&#45;&gt;Node9 -->
<g id="edge8_Node000001_Node000009" class="edge">
<title>Node1&#45;&gt;Node9</title>
<g id="a_edge8_Node000001_Node000009"><a xlink:title=" ">
<path fill="none" stroke="#63b8ff" d="M539.49,-76.02C627.45,-67.6 776.81,-52.22 915,-32.29"/>
<polygon fill="#63b8ff" stroke="#63b8ff" points="915.31,-35.78 924.71,-30.88 914.31,-28.85 915.31,-35.78"/>
</a>
</g>
</g>
</g>
</svg>
