<?xml version="1.0" encoding="UTF-8" standalone="no"?>
<!DOCTYPE svg PUBLIC "-//W3C//DTD SVG 1.1//EN"
 "http://www.w3.org/Graphics/SVG/1.1/DTD/svg11.dtd">
<!-- Generated by graphviz version 12.2.1 (20241206.2353)
 -->
<!-- Title: src/main/java/com/hust/ittnk68/cnpm/view/LoadingView.java Pages: 1 -->
<svg width="727pt" height="96pt"
 viewBox="0.00 0.00 727.38 96.00" xmlns="http://www.w3.org/2000/svg" xmlns:xlink="http://www.w3.org/1999/xlink">
<g id="graph0" class="graph" transform="scale(1 1) rotate(0) translate(4 92)">
<title>src/main/java/com/hust/ittnk68/cnpm/view/LoadingView.java</title>
<!-- Node1 -->
<g id="Node000001" class="node">
<title>Node1</title>
<g id="a_Node000001"><a xlink:title=" ">
<polygon fill="#999999" stroke="#666666" points="418.75,-88 242.25,-88 242.25,-56 418.75,-56 418.75,-88"/>
<text text-anchor="start" x="250.25" y="-74.5" font-family="Helvetica,sans-Serif" font-size="10.00">src/main/java/com/hust</text>
<text text-anchor="middle" x="330.5" y="-62.5" font-family="Helvetica,sans-Serif" font-size="10.00">/ittnk68/cnpm/view/LoadingView.java</text>
</a>
</g>
</g>
<!-- Node2 -->
<g id="Node000002" class="node">
<title>Node2</title>
<g id="a_Node000002"><a xlink:title=" ">
<polygon fill="#e0e0e0" stroke="#999999" points="115,-20 0,-20 0,0 115,0 115,-20"/>
<text text-anchor="middle" x="57.5" y="-6.5" font-family="Helvetica,sans-Serif" font-size="10.00">javafx.concurrent.Task</text>
</a>
</g>
</g>
<!-- Node1&#45;&gt;Node2 -->
<g id="edge1_Node000001_Node000002" class="edge">
<title>Node1&#45;&gt;Node2</title>
<g id="a_edge1_Node000001_Node000002"><a xlink:title=" ">
<path fill="none" stroke="#63b8ff" d="M260.2,-55.55C213.93,-45.38 154.28,-32.27 111.7,-22.91"/>
<polygon fill="#63b8ff" stroke="#63b8ff" points="112.7,-19.55 102.19,-20.82 111.2,-26.39 112.7,-19.55"/>
</a>
</g>
</g>
<!-- Node3 -->
<g id="Node000003" class="node">
<title>Node3</title>
<g id="a_Node000003"><a xlink:title=" ">
<polygon fill="#e0e0e0" stroke="#999999" points="247.62,-20 133.38,-20 133.38,0 247.62,0 247.62,-20"/>
<text text-anchor="middle" x="190.5" y="-6.5" font-family="Helvetica,sans-Serif" font-size="10.00">javafx.geometry.Insets</text>
</a>
</g>
</g>
<!-- Node1&#45;&gt;Node3 -->
<g id="edge2_Node000001_Node000003" class="edge">
<title>Node1&#45;&gt;Node3</title>
<g id="a_edge2_Node000001_Node000003"><a xlink:title=" ">
<path fill="none" stroke="#63b8ff" d="M294.45,-55.55C272.37,-46.09 244.35,-34.08 222.96,-24.91"/>
<polygon fill="#63b8ff" stroke="#63b8ff" points="224.41,-21.73 213.84,-21 221.66,-28.16 224.41,-21.73"/>
</a>
</g>
</g>
<!-- Node4 -->
<g id="Node000004" class="node">
<title>Node4</title>
<g id="a_Node000004"><a xlink:title=" ">
<polygon fill="#e0e0e0" stroke="#999999" points="395.5,-20 265.5,-20 265.5,0 395.5,0 395.5,-20"/>
<text text-anchor="middle" x="330.5" y="-6.5" font-family="Helvetica,sans-Serif" font-size="10.00">javafx.scene.control.Label</text>
</a>
</g>
</g>
<!-- Node1&#45;&gt;Node4 -->
<g id="edge3_Node000001_Node000004" class="edge">
<title>Node1&#45;&gt;Node4</title>
<g id="a_edge3_Node000001_Node000004"><a xlink:title=" ">
<path fill="none" stroke="#63b8ff" d="M330.5,-55.55C330.5,-48.34 330.5,-39.66 330.5,-31.88"/>
<polygon fill="#63b8ff" stroke="#63b8ff" points="334,-31.92 330.5,-21.92 327,-31.92 334,-31.92"/>
</a>
</g>
</g>
<!-- Node5 -->
<g id="Node000005" class="node">
<title>Node5</title>
<g id="a_Node000005"><a xlink:title=" ">
<polygon fill="#e0e0e0" stroke="#999999" points="573.88,-20 413.12,-20 413.12,0 573.88,0 573.88,-20"/>
<text text-anchor="middle" x="493.5" y="-6.5" font-family="Helvetica,sans-Serif" font-size="10.00">javafx.scene.control.ProgressBar</text>
</a>
</g>
</g>
<!-- Node1&#45;&gt;Node5 -->
<g id="edge4_Node000001_Node000005" class="edge">
<title>Node1&#45;&gt;Node5</title>
<g id="a_edge4_Node000001_Node000005"><a xlink:title=" ">
<path fill="none" stroke="#63b8ff" d="M372.48,-55.55C398.77,-45.87 432.31,-33.53 457.4,-24.29"/>
<polygon fill="#63b8ff" stroke="#63b8ff" points="458.35,-27.67 466.52,-20.93 455.93,-21.1 458.35,-27.67"/>
</a>
</g>
</g>
<!-- Node6 -->
<g id="Node000006" class="node">
<title>Node6</title>
<g id="a_Node000006"><a xlink:title=" ">
<polygon fill="#e0e0e0" stroke="#999999" points="719.38,-20 591.62,-20 591.62,0 719.38,0 719.38,-20"/>
<text text-anchor="middle" x="655.5" y="-6.5" font-family="Helvetica,sans-Serif" font-size="10.00">javafx.scene.layout.VBox</text>
</a>
</g>
</g>
<!-- Node1&#45;&gt;Node6 -->
<g id="edge5_Node000001_Node000006" class="edge">
<title>Node1&#45;&gt;Node6</title>
<g id="a_edge5_Node000001_Node000006"><a xlink:title=" ">
<path fill="none" stroke="#63b8ff" d="M414.2,-55.55C469.97,-45.25 542.1,-31.94 592.91,-22.55"/>
<polygon fill="#63b8ff" stroke="#63b8ff" points="593.37,-26.03 602.57,-20.77 592.1,-19.14 593.37,-26.03"/>
</a>
</g>
</g>
</g>
</svg>
