<?xml version="1.0" encoding="UTF-8" standalone="no"?>
<!DOCTYPE svg PUBLIC "-//W3C//DTD SVG 1.1//EN"
 "http://www.w3.org/Graphics/SVG/1.1/DTD/svg11.dtd">
<!-- Generated by graphviz version 12.2.1 (20241206.2353)
 -->
<!-- Title: src/main/java/com/hust/ittnk68/cnpm/database/MySQLDatabase.java Pages: 1 -->
<svg width="1607pt" height="120pt"
 viewBox="0.00 0.00 1606.62 120.00" xmlns="http://www.w3.org/2000/svg" xmlns:xlink="http://www.w3.org/1999/xlink">
<g id="graph0" class="graph" transform="scale(1 1) rotate(0) translate(4 116)">
<title>src/main/java/com/hust/ittnk68/cnpm/database/MySQLDatabase.java</title>
<!-- Node1 -->
<g id="Node000001" class="node">
<title>Node1</title>
<g id="a_Node000001"><a xlink:title=" ">
<polygon fill="#999999" stroke="#666666" points="765.75,-112 647.75,-112 647.75,-68 765.75,-68 765.75,-112"/>
<text text-anchor="start" x="655.75" y="-98.5" font-family="Helvetica,sans-Serif" font-size="10.00">src/main/java/com/hust</text>
<text text-anchor="start" x="655.75" y="-86.5" font-family="Helvetica,sans-Serif" font-size="10.00">/ittnk68/cnpm/database</text>
<text text-anchor="middle" x="706.75" y="-74.5" font-family="Helvetica,sans-Serif" font-size="10.00">/MySQLDatabase.java</text>
</a>
</g>
</g>
<!-- Node2 -->
<g id="Node000002" class="node">
<title>Node2</title>
<g id="a_Node000002"><a xlink:title=" ">
<polygon fill="#e0e0e0" stroke="#999999" points="149.5,-26 0,-26 0,-6 149.5,-6 149.5,-26"/>
<text text-anchor="middle" x="74.75" y="-12.5" font-family="Helvetica,sans-Serif" font-size="10.00">java.io.FileNotFoundException</text>
</a>
</g>
</g>
<!-- Node1&#45;&gt;Node2 -->
<g id="edge1_Node000001_Node000002" class="edge">
<title>Node1&#45;&gt;Node2</title>
<g id="a_edge1_Node000001_Node000002"><a xlink:title=" ">
<path fill="none" stroke="#63b8ff" d="M647.38,-84.26C546.63,-75.89 335.87,-56.99 158.75,-32 151.26,-30.94 143.42,-29.71 135.66,-28.42"/>
<polygon fill="#63b8ff" stroke="#63b8ff" points="136.34,-24.98 125.89,-26.74 135.16,-31.88 136.34,-24.98"/>
</a>
</g>
</g>
<!-- Node3 -->
<g id="Node000003" class="node">
<title>Node3</title>
<g id="a_Node000003"><a xlink:title=" ">
<polygon fill="#e0e0e0" stroke="#999999" points="269.5,-26 168,-26 168,-6 269.5,-6 269.5,-26"/>
<text text-anchor="middle" x="218.75" y="-12.5" font-family="Helvetica,sans-Serif" font-size="10.00">java.io.IOException</text>
</a>
</g>
</g>
<!-- Node1&#45;&gt;Node3 -->
<g id="edge2_Node000001_Node000003" class="edge">
<title>Node1&#45;&gt;Node3</title>
<g id="a_edge2_Node000001_Node000003"><a xlink:title=" ">
<path fill="none" stroke="#63b8ff" d="M647.57,-83.25C564.66,-74.71 409.45,-56.96 278.75,-32 274.18,-31.13 269.44,-30.12 264.72,-29.05"/>
<polygon fill="#63b8ff" stroke="#63b8ff" points="265.83,-25.72 255.29,-26.82 264.22,-32.53 265.83,-25.72"/>
</a>
</g>
</g>
<!-- Node4 -->
<g id="Node000004" class="node">
<title>Node4</title>
<g id="a_Node000004"><a xlink:title=" ">
<polygon fill="#e0e0e0" stroke="#999999" points="389.88,-26 287.62,-26 287.62,-6 389.88,-6 389.88,-26"/>
<text text-anchor="middle" x="338.75" y="-12.5" font-family="Helvetica,sans-Serif" font-size="10.00">java.sql.Connection</text>
</a>
</g>
</g>
<!-- Node1&#45;&gt;Node4 -->
<g id="edge3_Node000001_Node000004" class="edge">
<title>Node1&#45;&gt;Node4</title>
<g id="a_edge3_Node000001_Node000004"><a xlink:title=" ">
<path fill="none" stroke="#63b8ff" d="M647.49,-79.16C585.31,-68.56 484.84,-50.71 398.75,-32 394.68,-31.12 390.47,-30.16 386.25,-29.16"/>
<polygon fill="#63b8ff" stroke="#63b8ff" points="387.17,-25.78 376.63,-26.84 385.53,-32.59 387.17,-25.78"/>
</a>
</g>
</g>
<!-- Node5 -->
<g id="Node000005" class="node">
<title>Node5</title>
<g id="a_Node000005"><a xlink:title=" ">
<polygon fill="#e0e0e0" stroke="#999999" points="505.62,-26 407.88,-26 407.88,-6 505.62,-6 505.62,-26"/>
<text text-anchor="middle" x="456.75" y="-12.5" font-family="Helvetica,sans-Serif" font-size="10.00">java.sql.Statement</text>
</a>
</g>
</g>
<!-- Node1&#45;&gt;Node5 -->
<g id="edge4_Node000001_Node000005" class="edge">
<title>Node1&#45;&gt;Node5</title>
<g id="a_edge4_Node000001_Node000005"><a xlink:title=" ">
<path fill="none" stroke="#63b8ff" d="M647.5,-71.94C602.37,-58.94 541.24,-41.33 500.47,-29.59"/>
<polygon fill="#63b8ff" stroke="#63b8ff" points="501.57,-26.27 491,-26.86 499.64,-32.99 501.57,-26.27"/>
</a>
</g>
</g>
<!-- Node6 -->
<g id="Node000006" class="node">
<title>Node6</title>
<g id="a_Node000006"><a xlink:title=" ">
<polygon fill="#e0e0e0" stroke="#999999" points="592,-26 523.5,-26 523.5,-6 592,-6 592,-26"/>
<text text-anchor="middle" x="557.75" y="-12.5" font-family="Helvetica,sans-Serif" font-size="10.00">java.util.List</text>
</a>
</g>
</g>
<!-- Node1&#45;&gt;Node6 -->
<g id="edge5_Node000001_Node000006" class="edge">
<title>Node1&#45;&gt;Node6</title>
<g id="a_edge5_Node000001_Node000006"><a xlink:title=" ">
<path fill="none" stroke="#63b8ff" d="M662.45,-67.59C638.23,-55.89 608.89,-41.71 587.44,-31.35"/>
<polygon fill="#63b8ff" stroke="#63b8ff" points="589.19,-28.31 578.66,-27.11 586.15,-34.61 589.19,-28.31"/>
</a>
</g>
</g>
<!-- Node7 -->
<g id="Node000007" class="node">
<title>Node7</title>
<g id="a_Node000007"><a xlink:title=" ">
<polygon fill="#e0e0e0" stroke="#999999" points="681.5,-26 610,-26 610,-6 681.5,-6 681.5,-26"/>
<text text-anchor="middle" x="645.75" y="-12.5" font-family="Helvetica,sans-Serif" font-size="10.00">java.util.Map</text>
</a>
</g>
</g>
<!-- Node1&#45;&gt;Node7 -->
<g id="edge6_Node000001_Node000007" class="edge">
<title>Node1&#45;&gt;Node7</title>
<g id="a_edge6_Node000001_Node000007"><a xlink:title=" ">
<path fill="none" stroke="#63b8ff" d="M688.78,-67.79C679.94,-57.35 669.39,-44.91 660.96,-34.95"/>
<polygon fill="#63b8ff" stroke="#63b8ff" points="663.75,-32.83 654.62,-27.47 658.41,-37.36 663.75,-32.83"/>
</a>
</g>
</g>
<!-- Node8 -->
<g id="Node000008" class="node">
<title>Node8</title>
<g id="a_Node000008"><a xlink:title=" ">
<polygon fill="#e0e0e0" stroke="#999999" points="836.12,-26 699.38,-26 699.38,-6 836.12,-6 836.12,-26"/>
<text text-anchor="middle" x="767.75" y="-12.5" font-family="Helvetica,sans-Serif" font-size="10.00">java.sql.PreparedStatement</text>
</a>
</g>
</g>
<!-- Node1&#45;&gt;Node8 -->
<g id="edge7_Node000001_Node000008" class="edge">
<title>Node1&#45;&gt;Node8</title>
<g id="a_edge7_Node000001_Node000008"><a xlink:title=" ">
<path fill="none" stroke="#63b8ff" d="M724.72,-67.79C733.56,-57.35 744.11,-44.91 752.54,-34.95"/>
<polygon fill="#63b8ff" stroke="#63b8ff" points="755.09,-37.36 758.88,-27.47 749.75,-32.83 755.09,-37.36"/>
</a>
</g>
</g>
<!-- Node9 -->
<g id="Node000009" class="node">
<title>Node9</title>
<g id="a_Node000009"><a xlink:title=" ">
<polygon fill="#e0e0e0" stroke="#999999" points="950.88,-26 854.62,-26 854.62,-6 950.88,-6 950.88,-26"/>
<text text-anchor="middle" x="902.75" y="-12.5" font-family="Helvetica,sans-Serif" font-size="10.00">java.sql.ResultSet</text>
</a>
</g>
</g>
<!-- Node1&#45;&gt;Node9 -->
<g id="edge8_Node000001_Node000009" class="edge">
<title>Node1&#45;&gt;Node9</title>
<g id="a_edge8_Node000001_Node000009"><a xlink:title=" ">
<path fill="none" stroke="#63b8ff" d="M765.03,-67.59C797.9,-55.52 837.95,-40.8 866.37,-30.36"/>
<polygon fill="#63b8ff" stroke="#63b8ff" points="867.43,-33.7 875.61,-26.97 865.02,-27.13 867.43,-33.7"/>
</a>
</g>
</g>
<!-- Node10 -->
<g id="Node000010" class="node">
<title>Node10</title>
<g id="a_Node000010"><a xlink:title=" ">
<polygon fill="#e0e0e0" stroke="#999999" points="1084.62,-26 968.88,-26 968.88,-6 1084.62,-6 1084.62,-26"/>
<text text-anchor="middle" x="1026.75" y="-12.5" font-family="Helvetica,sans-Serif" font-size="10.00">java.sql.SQLException</text>
</a>
</g>
</g>
<!-- Node1&#45;&gt;Node10 -->
<g id="edge9_Node000001_Node000010" class="edge">
<title>Node1&#45;&gt;Node10</title>
<g id="a_edge9_Node000001_Node000010"><a xlink:title=" ">
<path fill="none" stroke="#63b8ff" d="M766.19,-75.63C825.84,-62.21 916.84,-41.73 974,-28.87"/>
<polygon fill="#63b8ff" stroke="#63b8ff" points="974.49,-32.35 983.48,-26.74 972.96,-25.52 974.49,-32.35"/>
</a>
</g>
</g>
<!-- Node11 -->
<g id="Node000011" class="node">
<title>Node11</title>
<g id="a_Node000011"><a xlink:title=" ">
<polygon fill="#e0e0e0" stroke="#999999" points="1250.75,-32 1102.75,-32 1102.75,0 1250.75,0 1250.75,-32"/>
<text text-anchor="start" x="1110.75" y="-18.5" font-family="Helvetica,sans-Serif" font-size="10.00">com.hust.ittnk68.cnpm.config.</text>
<text text-anchor="middle" x="1176.75" y="-6.5" font-family="Helvetica,sans-Serif" font-size="10.00">ConfigFileLoader</text>
</a>
</g>
</g>
<!-- Node1&#45;&gt;Node11 -->
<g id="edge10_Node000001_Node000011" class="edge">
<title>Node1&#45;&gt;Node11</title>
<g id="a_edge10_Node000001_Node000011"><a xlink:title=" ">
<path fill="none" stroke="#63b8ff" d="M766.18,-80.86C839.93,-70.62 969.81,-52.14 1091.22,-32.39"/>
<polygon fill="#63b8ff" stroke="#63b8ff" points="1091.76,-35.84 1101.07,-30.78 1090.63,-28.93 1091.76,-35.84"/>
</a>
</g>
</g>
<!-- Node12 -->
<g id="Node000012" class="node">
<title>Node12</title>
<g id="a_Node000012"><a xlink:title=" ">
<polygon fill="#e0e0e0" stroke="#999999" points="1416.75,-32 1268.75,-32 1268.75,0 1416.75,0 1416.75,-32"/>
<text text-anchor="start" x="1276.75" y="-18.5" font-family="Helvetica,sans-Serif" font-size="10.00">com.hust.ittnk68.cnpm.config.</text>
<text text-anchor="middle" x="1342.75" y="-6.5" font-family="Helvetica,sans-Serif" font-size="10.00">MySQLDefaultConfig</text>
</a>
</g>
</g>
<!-- Node1&#45;&gt;Node12 -->
<g id="edge11_Node000001_Node000012" class="edge">
<title>Node1&#45;&gt;Node12</title>
<g id="a_edge11_Node000001_Node000012"><a xlink:title=" ">
<path fill="none" stroke="#63b8ff" d="M765.86,-84.39C865.18,-76.33 1072.07,-58.14 1257.26,-32.29"/>
<polygon fill="#63b8ff" stroke="#63b8ff" points="1257.67,-35.76 1267.08,-30.9 1256.69,-28.83 1257.67,-35.76"/>
</a>
</g>
</g>
<!-- Node13 -->
<g id="Node000013" class="node">
<title>Node13</title>
<g id="a_Node000013"><a xlink:title=" ">
<polygon fill="#e0e0e0" stroke="#999999" points="1598.62,-32 1434.88,-32 1434.88,0 1598.62,0 1598.62,-32"/>
<text text-anchor="start" x="1442.88" y="-18.5" font-family="Helvetica,sans-Serif" font-size="10.00">com.hust.ittnk68.cnpm.exception.</text>
<text text-anchor="middle" x="1516.75" y="-6.5" font-family="Helvetica,sans-Serif" font-size="10.00">ConfigFileException</text>
</a>
</g>
</g>
<!-- Node1&#45;&gt;Node13 -->
<g id="edge12_Node000001_Node000013" class="edge">
<title>Node1&#45;&gt;Node13</title>
<g id="a_edge12_Node000001_Node000013"><a xlink:title=" ">
<path fill="none" stroke="#63b8ff" d="M766.1,-85.99C887.54,-79.47 1173.28,-62.24 1423.33,-32.23"/>
<polygon fill="#63b8ff" stroke="#63b8ff" points="1423.45,-35.74 1432.95,-31.07 1422.6,-28.79 1423.45,-35.74"/>
</a>
</g>
</g>
</g>
</svg>
