<?xml version="1.0" encoding="UTF-8" standalone="no"?>
<!DOCTYPE svg PUBLIC "-//W3C//DTD SVG 1.1//EN"
 "http://www.w3.org/Graphics/SVG/1.1/DTD/svg11.dtd">
<!-- Generated by graphviz version 12.2.1 (20241206.2353)
 -->
<!-- Title: src/main/java/com/hust/ittnk68/cnpm/database/MySQLDatabaseUtils.java Pages: 1 -->
<svg width="809pt" height="120pt"
 viewBox="0.00 0.00 809.00 120.00" xmlns="http://www.w3.org/2000/svg" xmlns:xlink="http://www.w3.org/1999/xlink">
<g id="graph0" class="graph" transform="scale(1 1) rotate(0) translate(4 116)">
<title>src/main/java/com/hust/ittnk68/cnpm/database/MySQLDatabaseUtils.java</title>
<!-- Node1 -->
<g id="Node000001" class="node">
<title>Node1</title>
<g id="a_Node000001"><a xlink:title=" ">
<polygon fill="#999999" stroke="#666666" points="557.38,-112 422.12,-112 422.12,-68 557.38,-68 557.38,-112"/>
<text text-anchor="start" x="430.12" y="-98.5" font-family="Helvetica,sans-Serif" font-size="10.00">src/main/java/com/hust</text>
<text text-anchor="start" x="430.12" y="-86.5" font-family="Helvetica,sans-Serif" font-size="10.00">/ittnk68/cnpm/database</text>
<text text-anchor="middle" x="489.75" y="-74.5" font-family="Helvetica,sans-Serif" font-size="10.00">/MySQLDatabaseUtils.java</text>
</a>
</g>
</g>
<!-- Node2 -->
<g id="Node000002" class="node">
<title>Node2</title>
<g id="a_Node000002"><a xlink:title=" ">
<polygon fill="#e0e0e0" stroke="#999999" points="161.5,-32 0,-32 0,0 161.5,0 161.5,-32"/>
<text text-anchor="start" x="8" y="-18.5" font-family="Helvetica,sans-Serif" font-size="10.00">com.hust.ittnk68.cnpm.database.</text>
<text text-anchor="middle" x="80.75" y="-6.5" font-family="Helvetica,sans-Serif" font-size="10.00">MySQLDatabaseUtils</text>
</a>
</g>
</g>
<!-- Node1&#45;&gt;Node2 -->
<g id="edge1_Node000001_Node000002" class="edge">
<title>Node1&#45;&gt;Node2</title>
<g id="a_edge1_Node000001_Node000002"><a xlink:title=" ">
<path fill="none" stroke="#63b8ff" d="M421.75,-77.03C353.66,-65.04 248.42,-46.52 172.86,-33.21"/>
<polygon fill="#63b8ff" stroke="#63b8ff" points="173.88,-29.84 163.43,-31.55 172.67,-36.74 173.88,-29.84"/>
</a>
</g>
</g>
<!-- Node3 -->
<g id="Node000003" class="node">
<title>Node3</title>
<g id="a_Node000003"><a xlink:title=" ">
<polygon fill="#e0e0e0" stroke="#999999" points="327.75,-32 179.75,-32 179.75,0 327.75,0 327.75,-32"/>
<text text-anchor="start" x="187.75" y="-18.5" font-family="Helvetica,sans-Serif" font-size="10.00">com.hust.ittnk68.cnpm.model.</text>
<text text-anchor="middle" x="253.75" y="-6.5" font-family="Helvetica,sans-Serif" font-size="10.00">Account</text>
</a>
</g>
</g>
<!-- Node1&#45;&gt;Node3 -->
<g id="edge2_Node000001_Node000003" class="edge">
<title>Node1&#45;&gt;Node3</title>
<g id="a_edge2_Node000001_Node000003"><a xlink:title=" ">
<path fill="none" stroke="#63b8ff" d="M421.81,-68.27C388.16,-58.01 347.85,-45.71 315.15,-35.73"/>
<polygon fill="#63b8ff" stroke="#63b8ff" points="316.4,-32.46 305.82,-32.88 314.36,-39.15 316.4,-32.46"/>
</a>
</g>
</g>
<!-- Node4 -->
<g id="Node000004" class="node">
<title>Node4</title>
<g id="a_Node000004"><a xlink:title=" ">
<polygon fill="#e0e0e0" stroke="#999999" points="437.62,-26 345.88,-26 345.88,-6 437.62,-6 437.62,-26"/>
<text text-anchor="middle" x="391.75" y="-12.5" font-family="Helvetica,sans-Serif" font-size="10.00">java.util.ArrayList</text>
</a>
</g>
</g>
<!-- Node1&#45;&gt;Node4 -->
<g id="edge3_Node000001_Node000004" class="edge">
<title>Node1&#45;&gt;Node4</title>
<g id="a_edge3_Node000001_Node000004"><a xlink:title=" ">
<path fill="none" stroke="#63b8ff" d="M460.61,-67.59C445.63,-56.59 427.66,-43.39 413.84,-33.23"/>
<polygon fill="#63b8ff" stroke="#63b8ff" points="415.96,-30.44 405.83,-27.34 411.82,-36.09 415.96,-30.44"/>
</a>
</g>
</g>
<!-- Node5 -->
<g id="Node000005" class="node">
<title>Node5</title>
<g id="a_Node000005"><a xlink:title=" ">
<polygon fill="#e0e0e0" stroke="#999999" points="524,-26 455.5,-26 455.5,-6 524,-6 524,-26"/>
<text text-anchor="middle" x="489.75" y="-12.5" font-family="Helvetica,sans-Serif" font-size="10.00">java.util.List</text>
</a>
</g>
</g>
<!-- Node1&#45;&gt;Node5 -->
<g id="edge4_Node000001_Node000005" class="edge">
<title>Node1&#45;&gt;Node5</title>
<g id="a_edge4_Node000001_Node000005"><a xlink:title=" ">
<path fill="none" stroke="#63b8ff" d="M489.75,-67.79C489.75,-58.32 489.75,-47.2 489.75,-37.78"/>
<polygon fill="#63b8ff" stroke="#63b8ff" points="493.25,-37.82 489.75,-27.82 486.25,-37.82 493.25,-37.82"/>
</a>
</g>
</g>
<!-- Node6 -->
<g id="Node000006" class="node">
<title>Node6</title>
<g id="a_Node000006"><a xlink:title=" ">
<polygon fill="#e0e0e0" stroke="#999999" points="613.5,-26 542,-26 542,-6 613.5,-6 613.5,-26"/>
<text text-anchor="middle" x="577.75" y="-12.5" font-family="Helvetica,sans-Serif" font-size="10.00">java.util.Map</text>
</a>
</g>
</g>
<!-- Node1&#45;&gt;Node6 -->
<g id="edge5_Node000001_Node000006" class="edge">
<title>Node1&#45;&gt;Node6</title>
<g id="a_edge5_Node000001_Node000006"><a xlink:title=" ">
<path fill="none" stroke="#63b8ff" d="M515.68,-67.79C529.09,-56.81 545.22,-43.62 557.67,-33.43"/>
<polygon fill="#63b8ff" stroke="#63b8ff" points="559.67,-36.31 565.2,-27.27 555.24,-30.89 559.67,-36.31"/>
</a>
</g>
</g>
<!-- Node7 -->
<g id="Node000007" class="node">
<title>Node7</title>
<g id="a_Node000007"><a xlink:title=" ">
<polygon fill="#e0e0e0" stroke="#999999" points="726.12,-26 631.38,-26 631.38,-6 726.12,-6 726.12,-26"/>
<text text-anchor="middle" x="678.75" y="-12.5" font-family="Helvetica,sans-Serif" font-size="10.00">java.util.HashMap</text>
</a>
</g>
</g>
<!-- Node1&#45;&gt;Node7 -->
<g id="edge6_Node000001_Node000007" class="edge">
<title>Node1&#45;&gt;Node7</title>
<g id="a_edge6_Node000001_Node000007"><a xlink:title=" ">
<path fill="none" stroke="#63b8ff" d="M545.94,-67.59C577.5,-55.57 615.93,-40.93 643.31,-30.5"/>
<polygon fill="#63b8ff" stroke="#63b8ff" points="644.44,-33.82 652.53,-26.99 641.94,-27.28 644.44,-33.82"/>
</a>
</g>
</g>
<!-- Node8 -->
<g id="Node000008" class="node">
<title>Node8</title>
<g id="a_Node000008"><a xlink:title=" ">
<polygon fill="#e0e0e0" stroke="#999999" points="801,-26 744.5,-26 744.5,-6 801,-6 801,-26"/>
<text text-anchor="middle" x="772.75" y="-12.5" font-family="Helvetica,sans-Serif" font-size="10.00">java.sql.*</text>
</a>
</g>
</g>
<!-- Node1&#45;&gt;Node8 -->
<g id="edge7_Node000001_Node000008" class="edge">
<title>Node1&#45;&gt;Node8</title>
<g id="a_edge7_Node000001_Node000008"><a xlink:title=" ">
<path fill="none" stroke="#63b8ff" d="M557.8,-75.98C607.37,-65.82 675.86,-50.36 734.75,-32 736.36,-31.5 737.99,-30.96 739.64,-30.4"/>
<polygon fill="#63b8ff" stroke="#63b8ff" points="740.84,-33.69 749.02,-26.96 738.43,-27.12 740.84,-33.69"/>
</a>
</g>
</g>
</g>
</svg>
