<?xml version="1.0" encoding="UTF-8" standalone="no"?>
<!DOCTYPE svg PUBLIC "-//W3C//DTD SVG 1.1//EN"
 "http://www.w3.org/Graphics/SVG/1.1/DTD/svg11.dtd">
<!-- Generated by graphviz version 12.2.1 (20241206.2353)
 -->
<!-- Title: src/main/java/com/hust/ittnk68/cnpm/model/PaymentStatus.java Pages: 1 -->
<svg width="624pt" height="108pt"
 viewBox="0.00 0.00 623.50 108.00" xmlns="http://www.w3.org/2000/svg" xmlns:xlink="http://www.w3.org/1999/xlink">
<g id="graph0" class="graph" transform="scale(1 1) rotate(0) translate(4 104)">
<title>src/main/java/com/hust/ittnk68/cnpm/model/PaymentStatus.java</title>
<!-- Node1 -->
<g id="Node000001" class="node">
<title>Node1</title>
<g id="a_Node000001"><a xlink:title=" ">
<polygon fill="#999999" stroke="#666666" points="361.75,-100 165.75,-100 165.75,-68 361.75,-68 361.75,-100"/>
<text text-anchor="start" x="173.75" y="-86.5" font-family="Helvetica,sans-Serif" font-size="10.00">src/main/java/com/hust</text>
<text text-anchor="middle" x="263.75" y="-74.5" font-family="Helvetica,sans-Serif" font-size="10.00">/ittnk68/cnpm/model/PaymentStatus.java</text>
</a>
</g>
</g>
<!-- Node2 -->
<g id="Node000002" class="node">
<title>Node2</title>
<g id="a_Node000002"><a xlink:title=" ">
<polygon fill="#e0e0e0" stroke="#999999" points="71.5,-26 0,-26 0,-6 71.5,-6 71.5,-26"/>
<text text-anchor="middle" x="35.75" y="-12.5" font-family="Helvetica,sans-Serif" font-size="10.00">java.util.Map</text>
</a>
</g>
</g>
<!-- Node1&#45;&gt;Node2 -->
<g id="edge1_Node000001_Node000002" class="edge">
<title>Node1&#45;&gt;Node2</title>
<g id="a_edge1_Node000001_Node000002"><a xlink:title=" ">
<path fill="none" stroke="#63b8ff" d="M205.43,-67.54C169.38,-57.79 122.22,-44.68 80.75,-32 78.54,-31.32 76.26,-30.61 73.98,-29.89"/>
<polygon fill="#63b8ff" stroke="#63b8ff" points="75.32,-26.64 64.73,-26.89 73.16,-33.3 75.32,-26.64"/>
</a>
</g>
</g>
<!-- Node3 -->
<g id="Node000003" class="node">
<title>Node3</title>
<g id="a_Node000003"><a xlink:title=" ">
<polygon fill="#e0e0e0" stroke="#999999" points="255.75,-32 89.75,-32 89.75,0 255.75,0 255.75,-32"/>
<text text-anchor="start" x="97.75" y="-18.5" font-family="Helvetica,sans-Serif" font-size="10.00">com.fasterxml.jackson.annotation.</text>
<text text-anchor="middle" x="172.75" y="-6.5" font-family="Helvetica,sans-Serif" font-size="10.00">JsonIgnore</text>
</a>
</g>
</g>
<!-- Node1&#45;&gt;Node3 -->
<g id="edge2_Node000001_Node000003" class="edge">
<title>Node1&#45;&gt;Node3</title>
<g id="a_edge2_Node000001_Node000003"><a xlink:title=" ">
<path fill="none" stroke="#63b8ff" d="M242.64,-67.69C230.9,-59.17 216.07,-48.42 203.1,-39.01"/>
<polygon fill="#63b8ff" stroke="#63b8ff" points="205.43,-36.38 195.28,-33.34 201.32,-42.05 205.43,-36.38"/>
</a>
</g>
</g>
<!-- Node4 -->
<g id="Node000004" class="node">
<title>Node4</title>
<g id="a_Node000004"><a xlink:title=" ">
<polygon fill="#e0e0e0" stroke="#999999" points="435.5,-32 274,-32 274,0 435.5,0 435.5,-32"/>
<text text-anchor="start" x="282" y="-18.5" font-family="Helvetica,sans-Serif" font-size="10.00">com.hust.ittnk68.cnpm.database.</text>
<text text-anchor="middle" x="354.75" y="-6.5" font-family="Helvetica,sans-Serif" font-size="10.00">GetSQLProperties</text>
</a>
</g>
</g>
<!-- Node1&#45;&gt;Node4 -->
<g id="edge3_Node000001_Node000004" class="edge">
<title>Node1&#45;&gt;Node4</title>
<g id="a_edge3_Node000001_Node000004"><a xlink:title=" ">
<path fill="none" stroke="#63b8ff" d="M284.86,-67.69C296.6,-59.17 311.43,-48.42 324.4,-39.01"/>
<polygon fill="#63b8ff" stroke="#63b8ff" points="326.18,-42.05 332.22,-33.34 322.07,-36.38 326.18,-42.05"/>
</a>
</g>
</g>
<!-- Node5 -->
<g id="Node000005" class="node">
<title>Node5</title>
<g id="a_Node000005"><a xlink:title=" ">
<polygon fill="#e0e0e0" stroke="#999999" points="615.5,-26 454,-26 454,-6 615.5,-6 615.5,-26"/>
<text text-anchor="middle" x="534.75" y="-12.5" font-family="Helvetica,sans-Serif" font-size="10.00">com.hust.ittnk68.cnpm.type.Date</text>
</a>
</g>
</g>
<!-- Node1&#45;&gt;Node5 -->
<g id="edge4_Node000001_Node000005" class="edge">
<title>Node1&#45;&gt;Node5</title>
<g id="a_edge4_Node000001_Node000005"><a xlink:title=" ">
<path fill="none" stroke="#63b8ff" d="M327.29,-67.53C375.36,-55.82 440.44,-39.97 484.82,-29.16"/>
<polygon fill="#63b8ff" stroke="#63b8ff" points="485.55,-32.59 494.44,-26.82 483.89,-25.78 485.55,-32.59"/>
</a>
</g>
</g>
</g>
</svg>
