<?xml version="1.0" encoding="UTF-8" standalone="no"?>
<!DOCTYPE svg PUBLIC "-//W3C//DTD SVG 1.1//EN"
 "http://www.w3.org/Graphics/SVG/1.1/DTD/svg11.dtd">
<!-- Generated by graphviz version 12.2.1 (20241206.2353)
 -->
<!-- Title: src/main/java/com/hust/ittnk68/cnpm/service/PaymentController.java Pages: 1 -->
<!--zoomable 120 -->

<svg id="main" version="1.1" xmlns="http://www.w3.org/2000/svg" xmlns:xlink="http://www.w3.org/1999/xlink" xml:space="preserve" onload="init(evt)">

<style type="text/css"><![CDATA[
.node, .edge {opacity: 0.7;}
.node.selected, .edge.selected {opacity: 1;}
.edge:hover path { stroke: red; }
.edge:hover polygon { stroke: red; fill: red; }
]]></style>

<defs>
  <circle id="rim" cx="0" cy="0" r="7"/>
  <circle id="rim2" cx="0" cy="0" r="3.5"/>
  <g id="zoomPlus">
    <use xlink:href="#rim" fill="#404040"><set attributeName="fill" to="#808080" begin="zoomplus.mouseover" end="zoomplus.mouseout"/></use>
    <path d="M-4,0h8M0,-4v8" fill="none" stroke="white" stroke-width="1.5" pointer-events="none"/>
  </g>
  <g id="zoomMin">
    <use xlink:href="#rim" fill="#404040"><set attributeName="fill" to="#808080" begin="zoomminus.mouseover" end="zoomminus.mouseout"/></use>
    <path d="M-4,0h8" fill="none" stroke="white" stroke-width="1.5" pointer-events="none"/>
  </g>
  <g id="arrowUp" transform="translate(30 24)">
    <use xlink:href="#rim"/>
    <path pointer-events="none" fill="none" stroke="white" stroke-width="1.5" d="M0,-3.0v7 M-2.5,-0.5L0,-3.0L2.5,-0.5"/>
  </g>
  <g id="arrowRight" transform="rotate(90) translate(36 -43)">
    <use xlink:href="#rim"/>
    <path pointer-events="none" fill="none" stroke="white" stroke-width="1.5" d="M0,-3.0v7 M-2.5,-0.5L0,-3.0L2.5,-0.5"/>
  </g>
  <g id="arrowDown" transform="rotate(180) translate(-30 -48)">
    <use xlink:href="#rim"/>
    <path pointer-events="none" fill="none" stroke="white" stroke-width="1.5" d="M0,-3.0v7 M-2.5,-0.5L0,-3.0L2.5,-0.5"/>
  </g>
  <g id="arrowLeft" transform="rotate(270) translate(-36 17)">
    <use xlink:href="#rim"/>
    <path pointer-events="none" fill="none" stroke="white" stroke-width="1.5" d="M0,-3.0v7 M-2.5,-0.5L0,-3.0L2.5,-0.5"/>
  </g>
  <g id="resetDef">
    <use xlink:href="#rim2" fill="#404040"><set attributeName="fill" to="#808080" begin="reset.mouseover" end="reset.mouseout"/></use>
  </g>
</defs>
<script type="application/ecmascript">
var viewWidth = 4742;
var viewHeight = 120;
var sectionId = 'dynsection-0';
</script>
<script type="application/ecmascript" xlink:href="svg.min.js"/>
<svg id="graph" class="graph">
<g id="viewport">
<title>src/main/java/com/hust/ittnk68/cnpm/service/PaymentController.java</title>
<!-- Node1 -->
<g id="Node000001" class="node">
<title>Node1</title>
<g id="a_Node000001"><a xlink:title=" ">
<polygon fill="#999999" stroke="#666666" points="2209,-112 2088.75,-112 2088.75,-68 2209,-68 2209,-112"/>
<text text-anchor="start" x="2096.75" y="-98.5" font-family="Helvetica,sans-Serif" font-size="10.00">src/main/java/com/hust</text>
<text text-anchor="start" x="2096.75" y="-86.5" font-family="Helvetica,sans-Serif" font-size="10.00">/ittnk68/cnpm/service</text>
<text text-anchor="middle" x="2148.88" y="-74.5" font-family="Helvetica,sans-Serif" font-size="10.00">/PaymentController.java</text>
</a>
</g>
</g>
<!-- Node2 -->
<g id="Node000002" class="node">
<title>Node2</title>
<g id="a_Node000002"><a xlink:title=" ">
<polygon fill="#e0e0e0" stroke="#999999" points="109.75,-26 0,-26 0,-6 109.75,-6 109.75,-26"/>
<text text-anchor="middle" x="54.88" y="-12.5" font-family="Helvetica,sans-Serif" font-size="10.00">java.net.URLEncoder</text>
</a>
</g>
</g>
<!-- Node1&#45;&gt;Node2 -->
<g id="edge1_Node000001_Node000002" class="edge">
<title>Node1&#45;&gt;Node2</title>
<g id="a_edge1_Node000001_Node000002"><a xlink:title=" ">
<path fill="none" stroke="#63b8ff" d="M2088.54,-88.95C1794.99,-88.45 514.18,-83.34 118.88,-32 112.86,-31.22 106.59,-30.12 100.42,-28.86"/>
<polygon fill="#63b8ff" stroke="#63b8ff" points="101.51,-25.52 91,-26.79 100.01,-32.35 101.51,-25.52"/>
</a>
</g>
</g>
<!-- Node3 -->
<g id="Node000003" class="node">
<title>Node3</title>
<g id="a_Node000003"><a xlink:title=" ">
<polygon fill="#e0e0e0" stroke="#999999" points="243.75,-26 128,-26 128,-6 243.75,-6 243.75,-26"/>
<text text-anchor="middle" x="185.88" y="-12.5" font-family="Helvetica,sans-Serif" font-size="10.00">java.sql.SQLException</text>
</a>
</g>
</g>
<!-- Node1&#45;&gt;Node3 -->
<g id="edge2_Node000001_Node000003" class="edge">
<title>Node1&#45;&gt;Node3</title>
<g id="a_edge2_Node000001_Node000003"><a xlink:title=" ">
<path fill="none" stroke="#63b8ff" d="M2088.37,-88.73C1806.51,-87.23 620.46,-78.25 252.88,-32 246.44,-31.19 239.7,-30.05 233.1,-28.75"/>
<polygon fill="#63b8ff" stroke="#63b8ff" points="234.15,-25.39 223.65,-26.76 232.71,-32.24 234.15,-25.39"/>
</a>
</g>
</g>
<!-- Node4 -->
<g id="Node000004" class="node">
<title>Node4</title>
<g id="a_Node000004"><a xlink:title=" ">
<polygon fill="#e0e0e0" stroke="#999999" points="330.12,-26 261.62,-26 261.62,-6 330.12,-6 330.12,-26"/>
<text text-anchor="middle" x="295.88" y="-12.5" font-family="Helvetica,sans-Serif" font-size="10.00">java.util.List</text>
</a>
</g>
</g>
<!-- Node1&#45;&gt;Node4 -->
<g id="edge3_Node000001_Node000004" class="edge">
<title>Node1&#45;&gt;Node4</title>
<g id="a_edge3_Node000001_Node000004"><a xlink:title=" ">
<path fill="none" stroke="#63b8ff" d="M2088.31,-88.18C1793.27,-84.07 513.72,-64.46 338.88,-32 335.85,-31.44 332.74,-30.7 329.66,-29.85"/>
<polygon fill="#63b8ff" stroke="#63b8ff" points="330.77,-26.53 320.18,-26.87 328.67,-33.21 330.77,-26.53"/>
</a>
</g>
</g>
<!-- Node5 -->
<g id="Node000005" class="node">
<title>Node5</title>
<g id="a_Node000005"><a xlink:title=" ">
<polygon fill="#e0e0e0" stroke="#999999" points="419.62,-26 348.12,-26 348.12,-6 419.62,-6 419.62,-26"/>
<text text-anchor="middle" x="383.88" y="-12.5" font-family="Helvetica,sans-Serif" font-size="10.00">java.util.Map</text>
</a>
</g>
</g>
<!-- Node1&#45;&gt;Node5 -->
<g id="edge4_Node000001_Node000005" class="edge">
<title>Node1&#45;&gt;Node5</title>
<g id="a_edge4_Node000001_Node000005"><a xlink:title=" ">
<path fill="none" stroke="#63b8ff" d="M2088.64,-89.33C1823.32,-90.41 757.51,-90.93 428.88,-32 425.5,-31.39 422.03,-30.59 418.59,-29.66"/>
<polygon fill="#63b8ff" stroke="#63b8ff" points="419.86,-26.39 409.28,-26.84 417.83,-33.09 419.86,-26.39"/>
</a>
</g>
</g>
<!-- Node6 -->
<g id="Node000006" class="node">
<title>Node6</title>
<g id="a_Node000006"><a xlink:title=" ">
<polygon fill="#e0e0e0" stroke="#999999" points="599.62,-32 438.12,-32 438.12,0 599.62,0 599.62,-32"/>
<text text-anchor="start" x="446.12" y="-18.5" font-family="Helvetica,sans-Serif" font-size="10.00">com.fasterxml.jackson.core.type.</text>
<text text-anchor="middle" x="518.88" y="-6.5" font-family="Helvetica,sans-Serif" font-size="10.00">TypeReference</text>
</a>
</g>
</g>
<!-- Node1&#45;&gt;Node6 -->
<g id="edge5_Node000001_Node000006" class="edge">
<title>Node1&#45;&gt;Node6</title>
<g id="a_edge5_Node000001_Node000006"><a xlink:title=" ">
<path fill="none" stroke="#63b8ff" d="M2088.51,-89.54C1882.96,-90.79 1191.35,-90.18 610.87,-32.1"/>
<polygon fill="#63b8ff" stroke="#63b8ff" points="611.57,-28.66 601.27,-31.14 610.87,-35.62 611.57,-28.66"/>
</a>
</g>
</g>
<!-- Node7 -->
<g id="Node000007" class="node">
<title>Node7</title>
<g id="a_Node000007"><a xlink:title=" ">
<polygon fill="#e0e0e0" stroke="#999999" points="775.75,-32 618,-32 618,0 775.75,0 775.75,-32"/>
<text text-anchor="start" x="626" y="-18.5" font-family="Helvetica,sans-Serif" font-size="10.00">com.fasterxml.jackson.databind.</text>
<text text-anchor="middle" x="696.88" y="-6.5" font-family="Helvetica,sans-Serif" font-size="10.00">ObjectMapper</text>
</a>
</g>
</g>
<!-- Node1&#45;&gt;Node7 -->
<g id="edge6_Node000001_Node000007" class="edge">
<title>Node1&#45;&gt;Node7</title>
<g id="a_edge6_Node000001_Node000007"><a xlink:title=" ">
<path fill="none" stroke="#63b8ff" d="M2088.51,-89.21C1898.48,-89.28 1295.54,-85.09 787.2,-32.15"/>
<polygon fill="#63b8ff" stroke="#63b8ff" points="787.78,-28.69 777.47,-31.13 787.05,-35.65 787.78,-28.69"/>
</a>
</g>
</g>
<!-- Node8 -->
<g id="Node000008" class="node">
<title>Node8</title>
<g id="a_Node000008"><a xlink:title=" ">
<polygon fill="#e0e0e0" stroke="#999999" points="951.75,-32 794,-32 794,0 951.75,0 951.75,-32"/>
<text text-anchor="start" x="802" y="-18.5" font-family="Helvetica,sans-Serif" font-size="10.00">com.fasterxml.jackson.databind.</text>
<text text-anchor="middle" x="872.88" y="-6.5" font-family="Helvetica,sans-Serif" font-size="10.00">SerializationFeature</text>
</a>
</g>
</g>
<!-- Node1&#45;&gt;Node8 -->
<g id="edge7_Node000001_Node000008" class="edge">
<title>Node1&#45;&gt;Node8</title>
<g id="a_edge7_Node000001_Node000008"><a xlink:title=" ">
<path fill="none" stroke="#63b8ff" d="M2088.41,-88.68C1914.84,-87.2 1400.08,-78.97 963.24,-32.16"/>
<polygon fill="#63b8ff" stroke="#63b8ff" points="963.79,-28.7 953.47,-31.11 963.04,-35.66 963.79,-28.7"/>
</a>
</g>
</g>
<!-- Node9 -->
<g id="Node000009" class="node">
<title>Node9</title>
<g id="a_Node000009"><a xlink:title=" ">
<polygon fill="#e0e0e0" stroke="#999999" points="1110.12,-32 969.62,-32 969.62,0 1110.12,0 1110.12,-32"/>
<text text-anchor="start" x="977.62" y="-18.5" font-family="Helvetica,sans-Serif" font-size="10.00">com.hust.ittnk68.cnpm.auth.</text>
<text text-anchor="middle" x="1039.88" y="-6.5" font-family="Helvetica,sans-Serif" font-size="10.00">JwtUtil</text>
</a>
</g>
</g>
<!-- Node1&#45;&gt;Node9 -->
<g id="edge8_Node000001_Node000009" class="edge">
<title>Node1&#45;&gt;Node9</title>
<g id="a_edge8_Node000001_Node000009"><a xlink:title=" ">
<path fill="none" stroke="#63b8ff" d="M2088.26,-88.44C1930.47,-86.39 1493.94,-76.89 1121.71,-32.24"/>
<polygon fill="#63b8ff" stroke="#63b8ff" points="1122.29,-28.79 1111.94,-31.06 1121.45,-35.74 1122.29,-28.79"/>
</a>
</g>
</g>
<!-- Node10 -->
<g id="Node000010" class="node">
<title>Node10</title>
<g id="a_Node000010"><a xlink:title=" ">
<polygon fill="#e0e0e0" stroke="#999999" points="1315.75,-32 1128,-32 1128,0 1315.75,0 1315.75,-32"/>
<text text-anchor="start" x="1136" y="-18.5" font-family="Helvetica,sans-Serif" font-size="10.00">com.hust.ittnk68.cnpm.communication.</text>
<text text-anchor="middle" x="1221.88" y="-6.5" font-family="Helvetica,sans-Serif" font-size="10.00">ApiMapping</text>
</a>
</g>
</g>
<!-- Node1&#45;&gt;Node10 -->
<g id="edge9_Node000001_Node000010" class="edge">
<title>Node1&#45;&gt;Node10</title>
<g id="a_edge9_Node000001_Node000010"><a xlink:title=" ">
<path fill="none" stroke="#63b8ff" d="M2088.26,-86.38C1953.44,-80.21 1618.33,-62.99 1327.34,-32.21"/>
<polygon fill="#63b8ff" stroke="#63b8ff" points="1327.96,-28.76 1317.64,-31.18 1327.22,-35.72 1327.96,-28.76"/>
</a>
</g>
</g>
<!-- Node11 -->
<g id="Node000011" class="node">
<title>Node11</title>
<g id="a_Node000011"><a xlink:title=" ">
<polygon fill="#e0e0e0" stroke="#999999" points="1521.75,-32 1334,-32 1334,0 1521.75,0 1521.75,-32"/>
<text text-anchor="start" x="1342" y="-18.5" font-family="Helvetica,sans-Serif" font-size="10.00">com.hust.ittnk68.cnpm.communication.</text>
<text text-anchor="middle" x="1427.88" y="-6.5" font-family="Helvetica,sans-Serif" font-size="10.00">PaymentRequest</text>
</a>
</g>
</g>
<!-- Node1&#45;&gt;Node11 -->
<g id="edge10_Node000001_Node000011" class="edge">
<title>Node1&#45;&gt;Node11</title>
<g id="a_edge10_Node000001_Node000011"><a xlink:title=" ">
<path fill="none" stroke="#63b8ff" d="M2088.67,-84.51C1979.97,-76.16 1743.47,-56.95 1533.4,-32.26"/>
<polygon fill="#63b8ff" stroke="#63b8ff" points="1533.99,-28.81 1523.65,-31.11 1533.17,-35.76 1533.99,-28.81"/>
</a>
</g>
</g>
<!-- Node12 -->
<g id="Node000012" class="node">
<title>Node12</title>
<g id="a_Node000012"><a xlink:title=" ">
<polygon fill="#e0e0e0" stroke="#999999" points="1727.75,-32 1540,-32 1540,0 1727.75,0 1727.75,-32"/>
<text text-anchor="start" x="1548" y="-18.5" font-family="Helvetica,sans-Serif" font-size="10.00">com.hust.ittnk68.cnpm.communication.</text>
<text text-anchor="middle" x="1633.88" y="-6.5" font-family="Helvetica,sans-Serif" font-size="10.00">PaymentResponse</text>
</a>
</g>
</g>
<!-- Node1&#45;&gt;Node12 -->
<g id="edge11_Node000001_Node000012" class="edge">
<title>Node1&#45;&gt;Node12</title>
<g id="a_edge11_Node000001_Node000012"><a xlink:title=" ">
<path fill="none" stroke="#63b8ff" d="M2088.47,-80.78C2010.43,-70.13 1870.04,-50.87 1739.55,-32.37"/>
<polygon fill="#63b8ff" stroke="#63b8ff" points="1740.06,-28.91 1729.67,-30.97 1739.08,-35.84 1740.06,-28.91"/>
</a>
</g>
</g>
<!-- Node13 -->
<g id="Node000013" class="node">
<title>Node13</title>
<g id="a_Node000013"><a xlink:title=" ">
<polygon fill="#e0e0e0" stroke="#999999" points="1933.75,-32 1746,-32 1746,0 1933.75,0 1933.75,-32"/>
<text text-anchor="start" x="1754" y="-18.5" font-family="Helvetica,sans-Serif" font-size="10.00">com.hust.ittnk68.cnpm.communication.</text>
<text text-anchor="middle" x="1839.88" y="-6.5" font-family="Helvetica,sans-Serif" font-size="10.00">ServerCheckBankingResponse</text>
</a>
</g>
</g>
<!-- Node1&#45;&gt;Node13 -->
<g id="edge12_Node000001_Node000013" class="edge">
<title>Node1&#45;&gt;Node13</title>
<g id="a_edge12_Node000001_Node000013"><a xlink:title=" ">
<path fill="none" stroke="#63b8ff" d="M2088.56,-74.95C2039.62,-63.54 1970.28,-47.39 1917.25,-35.03"/>
<polygon fill="#63b8ff" stroke="#63b8ff" points="1918.2,-31.66 1907.66,-32.8 1916.61,-38.47 1918.2,-31.66"/>
</a>
</g>
</g>
<!-- Node14 -->
<g id="Node000014" class="node">
<title>Node14</title>
<g id="a_Node000014"><a xlink:title=" ">
<polygon fill="#e0e0e0" stroke="#999999" points="2139.75,-32 1952,-32 1952,0 2139.75,0 2139.75,-32"/>
<text text-anchor="start" x="1960" y="-18.5" font-family="Helvetica,sans-Serif" font-size="10.00">com.hust.ittnk68.cnpm.communication.</text>
<text text-anchor="middle" x="2045.88" y="-6.5" font-family="Helvetica,sans-Serif" font-size="10.00">ServerQrCodeGenerateResponse</text>
</a>
</g>
</g>
<!-- Node1&#45;&gt;Node14 -->
<g id="edge13_Node000001_Node000014" class="edge">
<title>Node1&#45;&gt;Node14</title>
<g id="a_edge13_Node000001_Node000014"><a xlink:title=" ">
<path fill="none" stroke="#63b8ff" d="M2118.25,-67.59C2105.27,-58.52 2090.16,-47.96 2077.12,-38.84"/>
<polygon fill="#63b8ff" stroke="#63b8ff" points="2079.48,-36.22 2069.28,-33.36 2075.47,-41.96 2079.48,-36.22"/>
</a>
</g>
</g>
<!-- Node15 -->
<g id="Node000015" class="node">
<title>Node15</title>
<g id="a_Node000015"><a xlink:title=" ">
<polygon fill="#e0e0e0" stroke="#999999" points="2345.75,-32 2158,-32 2158,0 2345.75,0 2345.75,-32"/>
<text text-anchor="start" x="2166" y="-18.5" font-family="Helvetica,sans-Serif" font-size="10.00">com.hust.ittnk68.cnpm.communication.</text>
<text text-anchor="middle" x="2251.88" y="-6.5" font-family="Helvetica,sans-Serif" font-size="10.00">UserGetPaymentQrCode</text>
</a>
</g>
</g>
<!-- Node1&#45;&gt;Node15 -->
<g id="edge14_Node000001_Node000015" class="edge">
<title>Node1&#45;&gt;Node15</title>
<g id="a_edge14_Node000001_Node000015"><a xlink:title=" ">
<path fill="none" stroke="#63b8ff" d="M2179.5,-67.59C2192.48,-58.52 2207.59,-47.96 2220.63,-38.84"/>
<polygon fill="#63b8ff" stroke="#63b8ff" points="2222.28,-41.96 2228.47,-33.36 2218.27,-36.22 2222.28,-41.96"/>
</a>
</g>
</g>
<!-- Node16 -->
<g id="Node000016" class="node">
<title>Node16</title>
<g id="a_Node000016"><a xlink:title=" ">
<polygon fill="#e0e0e0" stroke="#999999" points="2525.62,-32 2364.12,-32 2364.12,0 2525.62,0 2525.62,-32"/>
<text text-anchor="start" x="2372.12" y="-18.5" font-family="Helvetica,sans-Serif" font-size="10.00">com.hust.ittnk68.cnpm.database.</text>
<text text-anchor="middle" x="2444.88" y="-6.5" font-family="Helvetica,sans-Serif" font-size="10.00">MySQLDatabase</text>
</a>
</g>
</g>
<!-- Node1&#45;&gt;Node16 -->
<g id="edge15_Node000001_Node000016" class="edge">
<title>Node1&#45;&gt;Node16</title>
<g id="a_edge15_Node000001_Node000016"><a xlink:title=" ">
<path fill="none" stroke="#63b8ff" d="M2209.49,-74.26C2256.03,-62.93 2320.54,-47.24 2370.26,-35.15"/>
<polygon fill="#63b8ff" stroke="#63b8ff" points="2370.91,-38.59 2379.8,-32.83 2369.26,-31.79 2370.91,-38.59"/>
</a>
</g>
</g>
<!-- Node17 -->
<g id="Node000017" class="node">
<title>Node17</title>
<g id="a_Node000017"><a xlink:title=" ">
<polygon fill="#e0e0e0" stroke="#999999" points="2691.88,-32 2543.88,-32 2543.88,0 2691.88,0 2691.88,-32"/>
<text text-anchor="start" x="2551.88" y="-18.5" font-family="Helvetica,sans-Serif" font-size="10.00">com.hust.ittnk68.cnpm.model.</text>
<text text-anchor="middle" x="2617.88" y="-6.5" font-family="Helvetica,sans-Serif" font-size="10.00">Expense</text>
</a>
</g>
</g>
<!-- Node1&#45;&gt;Node17 -->
<g id="edge16_Node000001_Node000017" class="edge">
<title>Node1&#45;&gt;Node17</title>
<g id="a_edge16_Node000001_Node000017"><a xlink:title=" ">
<path fill="none" stroke="#63b8ff" d="M2209.47,-80.67C2283.26,-70.38 2411.98,-52 2532.43,-32.37"/>
<polygon fill="#63b8ff" stroke="#63b8ff" points="2532.89,-35.84 2542.19,-30.77 2531.76,-28.94 2532.89,-35.84"/>
</a>
</g>
</g>
<!-- Node18 -->
<g id="Node000018" class="node">
<title>Node18</title>
<g id="a_Node000018"><a xlink:title=" ">
<polygon fill="#e0e0e0" stroke="#999999" points="2857.88,-32 2709.88,-32 2709.88,0 2857.88,0 2857.88,-32"/>
<text text-anchor="start" x="2717.88" y="-18.5" font-family="Helvetica,sans-Serif" font-size="10.00">com.hust.ittnk68.cnpm.model.</text>
<text text-anchor="middle" x="2783.88" y="-6.5" font-family="Helvetica,sans-Serif" font-size="10.00">PaymentStatus</text>
</a>
</g>
</g>
<!-- Node1&#45;&gt;Node18 -->
<g id="edge17_Node000001_Node000018" class="edge">
<title>Node1&#45;&gt;Node18</title>
<g id="a_edge17_Node000001_Node000018"><a xlink:title=" ">
<path fill="none" stroke="#63b8ff" d="M2209.09,-84.29C2308.71,-76.16 2514.29,-58 2698.45,-32.28"/>
<polygon fill="#63b8ff" stroke="#63b8ff" points="2698.8,-35.76 2708.21,-30.9 2697.82,-28.83 2698.8,-35.76"/>
</a>
</g>
</g>
<!-- Node19 -->
<g id="Node000019" class="node">
<title>Node19</title>
<g id="a_Node000019"><a xlink:title=" ">
<polygon fill="#e0e0e0" stroke="#999999" points="3030.25,-32 2875.5,-32 2875.5,0 3030.25,0 3030.25,-32"/>
<text text-anchor="start" x="2883.5" y="-18.5" font-family="Helvetica,sans-Serif" font-size="10.00">com.hust.ittnk68.cnpm.security.</text>
<text text-anchor="middle" x="2952.88" y="-6.5" font-family="Helvetica,sans-Serif" font-size="10.00">AuthorizationService</text>
</a>
</g>
</g>
<!-- Node1&#45;&gt;Node19 -->
<g id="edge18_Node000001_Node000019" class="edge">
<title>Node1&#45;&gt;Node19</title>
<g id="a_edge18_Node000001_Node000019"><a xlink:title=" ">
<path fill="none" stroke="#63b8ff" d="M2209.11,-86.12C2330.95,-79.89 2615.54,-63.25 2864.05,-32.29"/>
<polygon fill="#63b8ff" stroke="#63b8ff" points="2864.12,-35.81 2873.61,-31.09 2863.25,-28.86 2864.12,-35.81"/>
</a>
</g>
</g>
<!-- Node20 -->
<g id="Node000020" class="node">
<title>Node20</title>
<g id="a_Node000020"><a xlink:title=" ">
<polygon fill="#e0e0e0" stroke="#999999" points="3189.12,-32 3048.62,-32 3048.62,0 3189.12,0 3189.12,-32"/>
<text text-anchor="start" x="3056.62" y="-18.5" font-family="Helvetica,sans-Serif" font-size="10.00">com.hust.ittnk68.cnpm.type.</text>
<text text-anchor="middle" x="3118.88" y="-6.5" font-family="Helvetica,sans-Serif" font-size="10.00">ResponseStatus</text>
</a>
</g>
</g>
<!-- Node1&#45;&gt;Node20 -->
<g id="edge19_Node000001_Node000020" class="edge">
<title>Node1&#45;&gt;Node20</title>
<g id="a_edge19_Node000001_Node000020"><a xlink:title=" ">
<path fill="none" stroke="#63b8ff" d="M2209.28,-87.66C2351.67,-83.95 2719.59,-71.21 3037.01,-32.12"/>
<polygon fill="#63b8ff" stroke="#63b8ff" points="3037.28,-35.61 3046.78,-30.9 3036.42,-28.67 3037.28,-35.61"/>
</a>
</g>
</g>
<!-- Node21 -->
<g id="Node000021" class="node">
<title>Node21</title>
<g id="a_Node000021"><a xlink:title=" ">
<polygon fill="#e0e0e0" stroke="#999999" points="3423,-32 3206.75,-32 3206.75,0 3423,0 3423,-32"/>
<text text-anchor="start" x="3214.75" y="-18.5" font-family="Helvetica,sans-Serif" font-size="10.00">org.springframework.beans.factory.annotation.</text>
<text text-anchor="middle" x="3314.88" y="-6.5" font-family="Helvetica,sans-Serif" font-size="10.00">Autowired</text>
</a>
</g>
</g>
<!-- Node1&#45;&gt;Node21 -->
<g id="edge20_Node000001_Node000021" class="edge">
<title>Node1&#45;&gt;Node21</title>
<g id="a_edge20_Node000001_Node000021"><a xlink:title=" ">
<path fill="none" stroke="#63b8ff" d="M2209.3,-87.27C2368.7,-82.36 2813.99,-66.5 3195.28,-32.19"/>
<polygon fill="#63b8ff" stroke="#63b8ff" points="3195.39,-35.7 3205.03,-31.31 3194.76,-28.73 3195.39,-35.7"/>
</a>
</g>
</g>
<!-- Node22 -->
<g id="Node000022" class="node">
<title>Node22</title>
<g id="a_Node000022"><a xlink:title=" ">
<polygon fill="#e0e0e0" stroke="#999999" points="3654.5,-32 3441.25,-32 3441.25,0 3654.5,0 3654.5,-32"/>
<text text-anchor="start" x="3449.25" y="-18.5" font-family="Helvetica,sans-Serif" font-size="10.00">org.springframework.security.access.prepost.</text>
<text text-anchor="middle" x="3547.88" y="-6.5" font-family="Helvetica,sans-Serif" font-size="10.00">PreAuthorize</text>
</a>
</g>
</g>
<!-- Node1&#45;&gt;Node22 -->
<g id="edge21_Node000001_Node000022" class="edge">
<title>Node1&#45;&gt;Node22</title>
<g id="a_edge21_Node000001_Node000022"><a xlink:title=" ">
<path fill="none" stroke="#63b8ff" d="M2209.44,-88.12C2392.06,-85.08 2953.48,-72.91 3429.55,-32.15"/>
<polygon fill="#63b8ff" stroke="#63b8ff" points="3429.61,-35.66 3439.27,-31.31 3429.01,-28.68 3429.61,-35.66"/>
</a>
</g>
</g>
<!-- Node23 -->
<g id="Node000023" class="node">
<title>Node23</title>
<g id="a_Node000023"><a xlink:title=" ">
<polygon fill="#e0e0e0" stroke="#999999" points="3869.62,-32 3672.12,-32 3672.12,0 3869.62,0 3869.62,-32"/>
<text text-anchor="start" x="3680.12" y="-18.5" font-family="Helvetica,sans-Serif" font-size="10.00">org.springframework.web.bind.annotation.</text>
<text text-anchor="middle" x="3770.88" y="-6.5" font-family="Helvetica,sans-Serif" font-size="10.00">GetMapping</text>
</a>
</g>
</g>
<!-- Node1&#45;&gt;Node23 -->
<g id="edge22_Node000001_Node000023" class="edge">
<title>Node1&#45;&gt;Node23</title>
<g id="a_edge22_Node000001_Node000023"><a xlink:title=" ">
<path fill="none" stroke="#63b8ff" d="M2209.27,-88.93C2412.59,-88.23 3090.84,-82.09 3660.49,-32.25"/>
<polygon fill="#63b8ff" stroke="#63b8ff" points="3660.65,-35.75 3670.31,-31.38 3660.04,-28.77 3660.65,-35.75"/>
</a>
</g>
</g>
<!-- Node24 -->
<g id="Node000024" class="node">
<title>Node24</title>
<g id="a_Node000024"><a xlink:title=" ">
<polygon fill="#e0e0e0" stroke="#999999" points="4085.62,-32 3888.12,-32 3888.12,0 4085.62,0 4085.62,-32"/>
<text text-anchor="start" x="3896.12" y="-18.5" font-family="Helvetica,sans-Serif" font-size="10.00">org.springframework.web.bind.annotation.</text>
<text text-anchor="middle" x="3986.88" y="-6.5" font-family="Helvetica,sans-Serif" font-size="10.00">RequestBody</text>
</a>
</g>
</g>
<!-- Node1&#45;&gt;Node24 -->
<g id="edge23_Node000001_Node000024" class="edge">
<title>Node1&#45;&gt;Node24</title>
<g id="a_edge23_Node000001_Node000024"><a xlink:title=" ">
<path fill="none" stroke="#63b8ff" d="M2209.15,-89.3C2430.24,-89.93 3217.62,-87.92 3876.6,-32.13"/>
<polygon fill="#63b8ff" stroke="#63b8ff" points="3876.58,-35.64 3886.25,-31.31 3875.99,-28.67 3876.58,-35.64"/>
</a>
</g>
</g>
<!-- Node25 -->
<g id="Node000025" class="node">
<title>Node25</title>
<g id="a_Node000025"><a xlink:title=" ">
<polygon fill="#e0e0e0" stroke="#999999" points="4301.62,-32 4104.12,-32 4104.12,0 4301.62,0 4301.62,-32"/>
<text text-anchor="start" x="4112.12" y="-18.5" font-family="Helvetica,sans-Serif" font-size="10.00">org.springframework.web.bind.annotation.</text>
<text text-anchor="middle" x="4202.88" y="-6.5" font-family="Helvetica,sans-Serif" font-size="10.00">RequestMapping</text>
</a>
</g>
</g>
<!-- Node1&#45;&gt;Node25 -->
<g id="edge24_Node000001_Node000025" class="edge">
<title>Node1&#45;&gt;Node25</title>
<g id="a_edge24_Node000001_Node000025"><a xlink:title=" ">
<path fill="none" stroke="#63b8ff" d="M2209.46,-88.11C2493.09,-83.83 3692.19,-64.2 4092.44,-32.12"/>
<polygon fill="#63b8ff" stroke="#63b8ff" points="4092.57,-35.62 4102.25,-31.32 4092,-28.65 4092.57,-35.62"/>
</a>
</g>
</g>
<!-- Node26 -->
<g id="Node000026" class="node">
<title>Node26</title>
<g id="a_Node000026"><a xlink:title=" ">
<polygon fill="#e0e0e0" stroke="#999999" points="4517.62,-32 4320.12,-32 4320.12,0 4517.62,0 4517.62,-32"/>
<text text-anchor="start" x="4328.12" y="-18.5" font-family="Helvetica,sans-Serif" font-size="10.00">org.springframework.web.bind.annotation.</text>
<text text-anchor="middle" x="4418.88" y="-6.5" font-family="Helvetica,sans-Serif" font-size="10.00">RequestParam</text>
</a>
</g>
</g>
<!-- Node1&#45;&gt;Node26 -->
<g id="edge25_Node000001_Node000026" class="edge">
<title>Node1&#45;&gt;Node26</title>
<g id="a_edge25_Node000001_Node000026"><a xlink:title=" ">
<path fill="none" stroke="#63b8ff" d="M2209.47,-88.32C2512.12,-84.77 3862.79,-67.29 4308.44,-32.12"/>
<polygon fill="#63b8ff" stroke="#63b8ff" points="4308.56,-35.62 4318.25,-31.33 4308,-28.64 4308.56,-35.62"/>
</a>
</g>
</g>
<!-- Node27 -->
<g id="Node000027" class="node">
<title>Node27</title>
<g id="a_Node000027"><a xlink:title=" ">
<polygon fill="#e0e0e0" stroke="#999999" points="4733.62,-32 4536.12,-32 4536.12,0 4733.62,0 4733.62,-32"/>
<text text-anchor="start" x="4544.12" y="-18.5" font-family="Helvetica,sans-Serif" font-size="10.00">org.springframework.web.bind.annotation.</text>
<text text-anchor="middle" x="4634.88" y="-6.5" font-family="Helvetica,sans-Serif" font-size="10.00">RestController</text>
</a>
</g>
</g>
<!-- Node1&#45;&gt;Node27 -->
<g id="edge26_Node000001_Node000027" class="edge">
<title>Node1&#45;&gt;Node27</title>
<g id="a_edge26_Node000001_Node000027"><a xlink:title=" ">
<path fill="none" stroke="#63b8ff" d="M2209.29,-88.49C2529.61,-85.63 4032.99,-70.4 4524.34,-32.12"/>
<polygon fill="#63b8ff" stroke="#63b8ff" points="4524.56,-35.62 4534.25,-31.33 4524,-28.64 4524.56,-35.62"/>
</a>
</g>
</g>
</g>
</svg>

<g id="navigator" transform="translate(0 0)" fill="#404254">
  <rect fill="#f2f5e9" fill-opacity="0.5" stroke="#606060" stroke-width=".5" x="0" y="0" width="60" height="60"/>
  <use id="zoomplus" xlink:href="#zoomPlus" x="17" y="9" onmousedown="handleZoom(evt,'in')"/>
  <use id="zoomminus" xlink:href="#zoomMin" x="42" y="9" onmousedown="handleZoom(evt,'out')"/>
  <use id="reset" xlink:href="#resetDef" x="30" y="36" onmousedown="handleReset()"/>
   <use id="arrowup" xlink:href="#arrowUp" x="0" y="0" onmousedown="handlePan(0,-1)"/>
  <use id="arrowright" xlink:href="#arrowRight" x="0" y="0" onmousedown="handlePan(1,0)"/>
  <use id="arrowdown" xlink:href="#arrowDown" x="0" y="0" onmousedown="handlePan(0,1)"/>
  <use id="arrowleft" xlink:href="#arrowLeft" x="0" y="0" onmousedown="handlePan(-1,0)"/>
</g>
<svg viewBox="0 0 15 15" width="100%" height="30px" preserveAspectRatio="xMaxYMin meet">
 <g id="arrow_out" transform="scale(0.3 0.3)">
  <a xlink:href="PaymentController_8java__incl_org.svg" target="_base">
   <rect id="button" ry="5" rx="5" y="6" x="6" height="38" width="38"
        fill="#f2f5e9" fill-opacity="0.5" stroke="#606060" stroke-width="1.0"/>
   <path id="arrow"
     d="M 11.500037,31.436501 C 11.940474,20.09759 22.043105,11.32322 32.158766,21.979434 L 37.068811,17.246167 C 37.068811,17.246167 37.088388,32 37.088388,32 L 22.160133,31.978069 C 22.160133,31.978069 26.997745,27.140456 26.997745,27.140456 C 18.528582,18.264221 13.291696,25.230495 11.500037,31.436501 z"
     style="fill:#404040;"/>
  </a>
 </g>
</svg>

<style type='text/css'>
<![CDATA[
[data-mouse-over-selected='false'] { opacity: 0.7; }
[data-mouse-over-selected='true']  { opacity: 1.0; }
]]>
</style>
<script type="application/ecmascript"><![CDATA[
document.addEventListener('DOMContentLoaded', (event) => {
  highlightEdges();
  highlightAdjacentNodes();
});
]]></script>
</svg>
