<?xml version="1.0" encoding="UTF-8" standalone="no"?>
<!DOCTYPE svg PUBLIC "-//W3C//DTD SVG 1.1//EN"
 "http://www.w3.org/Graphics/SVG/1.1/DTD/svg11.dtd">
<!-- Generated by graphviz version 12.2.1 (20241206.2353)
 -->
<!-- Title: src/main/java/com/hust/ittnk68/cnpm/model/Person.java Pages: 1 -->
<svg width="606pt" height="108pt"
 viewBox="0.00 0.00 605.50 108.00" xmlns="http://www.w3.org/2000/svg" xmlns:xlink="http://www.w3.org/1999/xlink">
<g id="graph0" class="graph" transform="scale(1 1) rotate(0) translate(4 104)">
<title>src/main/java/com/hust/ittnk68/cnpm/model/Person.java</title>
<!-- Node1 -->
<g id="Node000001" class="node">
<title>Node1</title>
<g id="a_Node000001"><a xlink:title=" ">
<polygon fill="#999999" stroke="#666666" points="327.38,-100 168.12,-100 168.12,-68 327.38,-68 327.38,-100"/>
<text text-anchor="start" x="176.12" y="-86.5" font-family="Helvetica,sans-Serif" font-size="10.00">src/main/java/com/hust</text>
<text text-anchor="middle" x="247.75" y="-74.5" font-family="Helvetica,sans-Serif" font-size="10.00">/ittnk68/cnpm/model/Person.java</text>
</a>
</g>
</g>
<!-- Node2 -->
<g id="Node000002" class="node">
<title>Node2</title>
<g id="a_Node000002"><a xlink:title=" ">
<polygon fill="#e0e0e0" stroke="#999999" points="71.5,-26 0,-26 0,-6 71.5,-6 71.5,-26"/>
<text text-anchor="middle" x="35.75" y="-12.5" font-family="Helvetica,sans-Serif" font-size="10.00">java.util.Map</text>
</a>
</g>
</g>
<!-- Node1&#45;&gt;Node2 -->
<g id="edge1_Node000001_Node000002" class="edge">
<title>Node1&#45;&gt;Node2</title>
<g id="a_edge1_Node000001_Node000002"><a xlink:title=" ">
<path fill="none" stroke="#63b8ff" d="M196.11,-67.6C163.06,-57.65 119.3,-44.31 80.75,-32 78.78,-31.37 76.76,-30.72 74.72,-30.06"/>
<polygon fill="#63b8ff" stroke="#63b8ff" points="75.83,-26.74 65.24,-26.94 73.65,-33.39 75.83,-26.74"/>
</a>
</g>
</g>
<!-- Node3 -->
<g id="Node000003" class="node">
<title>Node3</title>
<g id="a_Node000003"><a xlink:title=" ">
<polygon fill="#e0e0e0" stroke="#999999" points="233.88,-26 89.62,-26 89.62,-6 233.88,-6 233.88,-26"/>
<text text-anchor="middle" x="161.75" y="-12.5" font-family="Helvetica,sans-Serif" font-size="10.00">com.hust.ittnk68.cnpm.type.*</text>
</a>
</g>
</g>
<!-- Node1&#45;&gt;Node3 -->
<g id="edge2_Node000001_Node000003" class="edge">
<title>Node1&#45;&gt;Node3</title>
<g id="a_edge2_Node000001_Node000003"><a xlink:title=" ">
<path fill="none" stroke="#63b8ff" d="M227.8,-67.69C214.26,-57.3 196.38,-43.57 182.64,-33.03"/>
<polygon fill="#63b8ff" stroke="#63b8ff" points="185.15,-30.55 175.09,-27.24 180.89,-36.1 185.15,-30.55"/>
</a>
</g>
</g>
<!-- Node4 -->
<g id="Node000004" class="node">
<title>Node4</title>
<g id="a_Node000004"><a xlink:title=" ">
<polygon fill="#e0e0e0" stroke="#999999" points="417.75,-32 251.75,-32 251.75,0 417.75,0 417.75,-32"/>
<text text-anchor="start" x="259.75" y="-18.5" font-family="Helvetica,sans-Serif" font-size="10.00">com.fasterxml.jackson.annotation.</text>
<text text-anchor="middle" x="334.75" y="-6.5" font-family="Helvetica,sans-Serif" font-size="10.00">JsonIgnore</text>
</a>
</g>
</g>
<!-- Node1&#45;&gt;Node4 -->
<g id="edge3_Node000001_Node000004" class="edge">
<title>Node1&#45;&gt;Node4</title>
<g id="a_edge3_Node000001_Node000004"><a xlink:title=" ">
<path fill="none" stroke="#63b8ff" d="M267.93,-67.69C279.05,-59.26 293.06,-48.63 305.37,-39.29"/>
<polygon fill="#63b8ff" stroke="#63b8ff" points="307.32,-42.2 313.17,-33.37 303.09,-36.62 307.32,-42.2"/>
</a>
</g>
</g>
<!-- Node5 -->
<g id="Node000005" class="node">
<title>Node5</title>
<g id="a_Node000005"><a xlink:title=" ">
<polygon fill="#e0e0e0" stroke="#999999" points="597.5,-32 436,-32 436,0 597.5,0 597.5,-32"/>
<text text-anchor="start" x="444" y="-18.5" font-family="Helvetica,sans-Serif" font-size="10.00">com.hust.ittnk68.cnpm.database.</text>
<text text-anchor="middle" x="516.75" y="-6.5" font-family="Helvetica,sans-Serif" font-size="10.00">GetSQLProperties</text>
</a>
</g>
</g>
<!-- Node1&#45;&gt;Node5 -->
<g id="edge4_Node000001_Node000005" class="edge">
<title>Node1&#45;&gt;Node5</title>
<g id="a_edge4_Node000001_Node000005"><a xlink:title=" ">
<path fill="none" stroke="#63b8ff" d="M310.82,-67.53C350.22,-57.86 401.15,-45.36 442.5,-35.22"/>
<polygon fill="#63b8ff" stroke="#63b8ff" points="443.26,-38.63 452.14,-32.85 441.6,-31.84 443.26,-38.63"/>
</a>
</g>
</g>
</g>
</svg>
