<?xml version="1.0" encoding="UTF-8" standalone="no"?>
<!DOCTYPE svg PUBLIC "-//W3C//DTD SVG 1.1//EN"
 "http://www.w3.org/Graphics/SVG/1.1/DTD/svg11.dtd">
<!-- Generated by graphviz version 12.2.1 (20241206.2353)
 -->
<!-- Title: src/main/java/com/hust/ittnk68/cnpm/service/QrCodeService.java Pages: 1 -->
<svg width="1263pt" height="120pt"
 viewBox="0.00 0.00 1263.00 120.00" xmlns="http://www.w3.org/2000/svg" xmlns:xlink="http://www.w3.org/1999/xlink">
<g id="graph0" class="graph" transform="scale(1 1) rotate(0) translate(4 116)">
<title>src/main/java/com/hust/ittnk68/cnpm/service/QrCodeService.java</title>
<!-- Node1 -->
<g id="Node000001" class="node">
<title>Node1</title>
<g id="a_Node000001"><a xlink:title=" ">
<polygon fill="#999999" stroke="#666666" points="663.88,-112 545.88,-112 545.88,-68 663.88,-68 663.88,-112"/>
<text text-anchor="start" x="553.88" y="-98.5" font-family="Helvetica,sans-Serif" font-size="10.00">src/main/java/com/hust</text>
<text text-anchor="start" x="553.88" y="-86.5" font-family="Helvetica,sans-Serif" font-size="10.00">/ittnk68/cnpm/service</text>
<text text-anchor="middle" x="604.88" y="-74.5" font-family="Helvetica,sans-Serif" font-size="10.00">/QrCodeService.java</text>
</a>
</g>
</g>
<!-- Node2 -->
<g id="Node000002" class="node">
<title>Node2</title>
<g id="a_Node000002"><a xlink:title=" ">
<polygon fill="#e0e0e0" stroke="#999999" points="151.75,-26 0,-26 0,-6 151.75,-6 151.75,-26"/>
<text text-anchor="middle" x="75.88" y="-12.5" font-family="Helvetica,sans-Serif" font-size="10.00">java.io.ByteArrayOutputStream</text>
</a>
</g>
</g>
<!-- Node1&#45;&gt;Node2 -->
<g id="edge1_Node000001_Node000002" class="edge">
<title>Node1&#45;&gt;Node2</title>
<g id="a_edge1_Node000001_Node000002"><a xlink:title=" ">
<path fill="none" stroke="#63b8ff" d="M545.72,-82.36C460.34,-72.57 297.69,-53.12 159.88,-32 152.68,-30.9 145.15,-29.67 137.68,-28.39"/>
<polygon fill="#63b8ff" stroke="#63b8ff" points="138.39,-24.96 127.94,-26.71 137.19,-31.86 138.39,-24.96"/>
</a>
</g>
</g>
<!-- Node3 -->
<g id="Node000003" class="node">
<title>Node3</title>
<g id="a_Node000003"><a xlink:title=" ">
<polygon fill="#e0e0e0" stroke="#999999" points="266.38,-26 169.38,-26 169.38,-6 266.38,-6 266.38,-26"/>
<text text-anchor="middle" x="217.88" y="-12.5" font-family="Helvetica,sans-Serif" font-size="10.00">java.util.Hashtable</text>
</a>
</g>
</g>
<!-- Node1&#45;&gt;Node3 -->
<g id="edge2_Node000001_Node000003" class="edge">
<title>Node1&#45;&gt;Node3</title>
<g id="a_edge2_Node000001_Node000003"><a xlink:title=" ">
<path fill="none" stroke="#63b8ff" d="M545.56,-80.33C479.27,-70.28 368.9,-52.45 274.88,-32 270.89,-31.13 266.77,-30.17 262.64,-29.17"/>
<polygon fill="#63b8ff" stroke="#63b8ff" points="263.84,-25.86 253.29,-26.82 262.13,-32.65 263.84,-25.86"/>
</a>
</g>
</g>
<!-- Node4 -->
<g id="Node000004" class="node">
<title>Node4</title>
<g id="a_Node000004"><a xlink:title=" ">
<polygon fill="#e0e0e0" stroke="#999999" points="415.62,-32 284.12,-32 284.12,0 415.62,0 415.62,-32"/>
<text text-anchor="start" x="292.12" y="-18.5" font-family="Helvetica,sans-Serif" font-size="10.00">com.google.zxing.Barcode</text>
<text text-anchor="middle" x="349.88" y="-6.5" font-family="Helvetica,sans-Serif" font-size="10.00">Format</text>
</a>
</g>
</g>
<!-- Node1&#45;&gt;Node4 -->
<g id="edge3_Node000001_Node000004" class="edge">
<title>Node1&#45;&gt;Node4</title>
<g id="a_edge3_Node000001_Node000004"><a xlink:title=" ">
<path fill="none" stroke="#63b8ff" d="M545.41,-72.21C506.53,-61.23 455.72,-46.89 415.64,-35.57"/>
<polygon fill="#63b8ff" stroke="#63b8ff" points="416.67,-32.22 406.09,-32.87 414.77,-38.96 416.67,-32.22"/>
</a>
</g>
</g>
<!-- Node5 -->
<g id="Node000005" class="node">
<title>Node5</title>
<g id="a_Node000005"><a xlink:title=" ">
<polygon fill="#e0e0e0" stroke="#999999" points="601.62,-26 434.12,-26 434.12,-6 601.62,-6 601.62,-26"/>
<text text-anchor="middle" x="517.88" y="-12.5" font-family="Helvetica,sans-Serif" font-size="10.00">com.google.zxing.EncodeHintType</text>
</a>
</g>
</g>
<!-- Node1&#45;&gt;Node5 -->
<g id="edge4_Node000001_Node000005" class="edge">
<title>Node1&#45;&gt;Node5</title>
<g id="a_edge4_Node000001_Node000005"><a xlink:title=" ">
<path fill="none" stroke="#63b8ff" d="M579.24,-67.79C565.98,-56.81 550.04,-43.62 537.73,-33.43"/>
<polygon fill="#63b8ff" stroke="#63b8ff" points="540.23,-30.96 530.29,-27.28 535.76,-36.35 540.23,-30.96"/>
</a>
</g>
</g>
<!-- Node6 -->
<g id="Node000006" class="node">
<title>Node6</title>
<g id="a_Node000006"><a xlink:title=" ">
<polygon fill="#e0e0e0" stroke="#999999" points="766.5,-32 619.25,-32 619.25,0 766.5,0 766.5,-32"/>
<text text-anchor="start" x="627.25" y="-18.5" font-family="Helvetica,sans-Serif" font-size="10.00">com.google.zxing.MultiFormat</text>
<text text-anchor="middle" x="692.88" y="-6.5" font-family="Helvetica,sans-Serif" font-size="10.00">Writer</text>
</a>
</g>
</g>
<!-- Node1&#45;&gt;Node6 -->
<g id="edge5_Node000001_Node000006" class="edge">
<title>Node1&#45;&gt;Node6</title>
<g id="a_edge5_Node000001_Node000006"><a xlink:title=" ">
<path fill="none" stroke="#63b8ff" d="M630.8,-67.79C641.65,-58.91 654.28,-48.58 665.3,-39.56"/>
<polygon fill="#63b8ff" stroke="#63b8ff" points="667.42,-42.35 672.94,-33.31 662.98,-36.93 667.42,-42.35"/>
</a>
</g>
</g>
<!-- Node7 -->
<g id="Node000007" class="node">
<title>Node7</title>
<g id="a_Node000007"><a xlink:title=" ">
<polygon fill="#e0e0e0" stroke="#999999" points="927.25,-32 784.5,-32 784.5,0 927.25,0 927.25,-32"/>
<text text-anchor="start" x="792.5" y="-18.5" font-family="Helvetica,sans-Serif" font-size="10.00">com.google.zxing.client.j2se.</text>
<text text-anchor="middle" x="855.88" y="-6.5" font-family="Helvetica,sans-Serif" font-size="10.00">MatrixToImageWriter</text>
</a>
</g>
</g>
<!-- Node1&#45;&gt;Node7 -->
<g id="edge6_Node000001_Node000007" class="edge">
<title>Node1&#45;&gt;Node7</title>
<g id="a_edge6_Node000001_Node000007"><a xlink:title=" ">
<path fill="none" stroke="#63b8ff" d="M664.36,-71.94C702.44,-61.01 751.86,-46.84 790.96,-35.62"/>
<polygon fill="#63b8ff" stroke="#63b8ff" points="791.85,-39.01 800.5,-32.89 789.92,-32.28 791.85,-39.01"/>
</a>
</g>
</g>
<!-- Node8 -->
<g id="Node000008" class="node">
<title>Node8</title>
<g id="a_Node000008"><a xlink:title=" ">
<polygon fill="#e0e0e0" stroke="#999999" points="1080.88,-32 944.88,-32 944.88,0 1080.88,0 1080.88,-32"/>
<text text-anchor="start" x="952.88" y="-18.5" font-family="Helvetica,sans-Serif" font-size="10.00">com.google.zxing.common.</text>
<text text-anchor="middle" x="1012.88" y="-6.5" font-family="Helvetica,sans-Serif" font-size="10.00">BitMatrix</text>
</a>
</g>
</g>
<!-- Node1&#45;&gt;Node8 -->
<g id="edge7_Node000001_Node000008" class="edge">
<title>Node1&#45;&gt;Node8</title>
<g id="a_edge7_Node000001_Node000008"><a xlink:title=" ">
<path fill="none" stroke="#63b8ff" d="M664.14,-79.2C728.03,-68.54 833.02,-50.76 933.21,-32.47"/>
<polygon fill="#63b8ff" stroke="#63b8ff" points="933.76,-35.93 942.97,-30.68 932.5,-29.04 933.76,-35.93"/>
</a>
</g>
</g>
<!-- Node9 -->
<g id="Node000009" class="node">
<title>Node9</title>
<g id="a_Node000009"><a xlink:title=" ">
<polygon fill="#e0e0e0" stroke="#999999" points="1255,-32 1098.75,-32 1098.75,0 1255,0 1255,-32"/>
<text text-anchor="start" x="1106.75" y="-18.5" font-family="Helvetica,sans-Serif" font-size="10.00">org.springframework.stereotype.</text>
<text text-anchor="middle" x="1176.88" y="-6.5" font-family="Helvetica,sans-Serif" font-size="10.00">Service</text>
</a>
</g>
</g>
<!-- Node1&#45;&gt;Node9 -->
<g id="edge8_Node000001_Node000009" class="edge">
<title>Node1&#45;&gt;Node9</title>
<g id="a_edge8_Node000001_Node000009"><a xlink:title=" ">
<path fill="none" stroke="#63b8ff" d="M664.37,-83.05C753.9,-73.86 928.87,-55.02 1087.73,-32.27"/>
<polygon fill="#63b8ff" stroke="#63b8ff" points="1087.76,-35.8 1097.15,-30.91 1086.76,-28.87 1087.76,-35.8"/>
</a>
</g>
</g>
</g>
</svg>
