<?xml version="1.0" encoding="UTF-8" standalone="no"?>
<!DOCTYPE svg PUBLIC "-//W3C//DTD SVG 1.1//EN"
 "http://www.w3.org/Graphics/SVG/1.1/DTD/svg11.dtd">
<!-- Generated by graphviz version 12.2.1 (20241206.2353)
 -->
<!-- Title: src/main/java/com/hust/ittnk68/cnpm/view/QrImage.java Pages: 1 -->
<svg width="734pt" height="108pt"
 viewBox="0.00 0.00 733.50 108.00" xmlns="http://www.w3.org/2000/svg" xmlns:xlink="http://www.w3.org/1999/xlink">
<g id="graph0" class="graph" transform="scale(1 1) rotate(0) translate(4 104)">
<title>src/main/java/com/hust/ittnk68/cnpm/view/QrImage.java</title>
<!-- Node1 -->
<g id="Node000001" class="node">
<title>Node1</title>
<g id="a_Node000001"><a xlink:title=" ">
<polygon fill="#999999" stroke="#666666" points="443.25,-100 283.25,-100 283.25,-68 443.25,-68 443.25,-100"/>
<text text-anchor="start" x="291.25" y="-86.5" font-family="Helvetica,sans-Serif" font-size="10.00">src/main/java/com/hust</text>
<text text-anchor="middle" x="363.25" y="-74.5" font-family="Helvetica,sans-Serif" font-size="10.00">/ittnk68/cnpm/view/QrImage.java</text>
</a>
</g>
</g>
<!-- Node2 -->
<g id="Node000002" class="node">
<title>Node2</title>
<g id="a_Node000002"><a xlink:title=" ">
<polygon fill="#e0e0e0" stroke="#999999" points="140.5,-32 0,-32 0,0 140.5,0 140.5,-32"/>
<text text-anchor="start" x="8" y="-18.5" font-family="Helvetica,sans-Serif" font-size="10.00">com.hust.ittnk68.cnpm.view.</text>
<text text-anchor="middle" x="70.25" y="-6.5" font-family="Helvetica,sans-Serif" font-size="10.00">QrImage</text>
</a>
</g>
</g>
<!-- Node1&#45;&gt;Node2 -->
<g id="edge1_Node000001_Node000002" class="edge">
<title>Node1&#45;&gt;Node2</title>
<g id="a_edge1_Node000001_Node000002"><a xlink:title=" ">
<path fill="none" stroke="#63b8ff" d="M294.55,-67.53C251.27,-57.78 195.22,-45.15 149.98,-34.96"/>
<polygon fill="#63b8ff" stroke="#63b8ff" points="151.02,-31.61 140.5,-32.82 149.49,-38.44 151.02,-31.61"/>
</a>
</g>
</g>
<!-- Node3 -->
<g id="Node000003" class="node">
<title>Node3</title>
<g id="a_Node000003"><a xlink:title=" ">
<polygon fill="#e0e0e0" stroke="#999999" points="302.38,-26 158.12,-26 158.12,-6 302.38,-6 302.38,-26"/>
<text text-anchor="middle" x="230.25" y="-12.5" font-family="Helvetica,sans-Serif" font-size="10.00">java.io.ByteArrayInputStream</text>
</a>
</g>
</g>
<!-- Node1&#45;&gt;Node3 -->
<g id="edge2_Node000001_Node000003" class="edge">
<title>Node1&#45;&gt;Node3</title>
<g id="a_edge2_Node000001_Node000003"><a xlink:title=" ">
<path fill="none" stroke="#63b8ff" d="M332.07,-67.53C310.13,-56.64 280.97,-42.17 259.48,-31.5"/>
<polygon fill="#63b8ff" stroke="#63b8ff" points="261.18,-28.44 250.67,-27.13 258.07,-34.71 261.18,-28.44"/>
</a>
</g>
</g>
<!-- Node4 -->
<g id="Node000004" class="node">
<title>Node4</title>
<g id="a_Node000004"><a xlink:title=" ">
<polygon fill="#e0e0e0" stroke="#999999" points="406.12,-26 320.38,-26 320.38,-6 406.12,-6 406.12,-26"/>
<text text-anchor="middle" x="363.25" y="-12.5" font-family="Helvetica,sans-Serif" font-size="10.00">java.util.Base64</text>
</a>
</g>
</g>
<!-- Node1&#45;&gt;Node4 -->
<g id="edge3_Node000001_Node000004" class="edge">
<title>Node1&#45;&gt;Node4</title>
<g id="a_edge3_Node000001_Node000004"><a xlink:title=" ">
<path fill="none" stroke="#63b8ff" d="M363.25,-67.69C363.25,-58.8 363.25,-47.46 363.25,-37.77"/>
<polygon fill="#63b8ff" stroke="#63b8ff" points="366.75,-37.83 363.25,-27.83 359.75,-37.83 366.75,-37.83"/>
</a>
</g>
</g>
<!-- Node5 -->
<g id="Node000005" class="node">
<title>Node5</title>
<g id="a_Node000005"><a xlink:title=" ">
<polygon fill="#e0e0e0" stroke="#999999" points="554.62,-26 423.88,-26 423.88,-6 554.62,-6 554.62,-26"/>
<text text-anchor="middle" x="489.25" y="-12.5" font-family="Helvetica,sans-Serif" font-size="10.00">javafx.scene.image.Image</text>
</a>
</g>
</g>
<!-- Node1&#45;&gt;Node5 -->
<g id="edge4_Node000001_Node000005" class="edge">
<title>Node1&#45;&gt;Node5</title>
<g id="a_edge4_Node000001_Node000005"><a xlink:title=" ">
<path fill="none" stroke="#63b8ff" d="M392.79,-67.53C413.38,-56.74 440.7,-42.43 461,-31.8"/>
<polygon fill="#63b8ff" stroke="#63b8ff" points="462.61,-34.9 469.85,-27.16 459.37,-28.7 462.61,-34.9"/>
</a>
</g>
</g>
<!-- Node6 -->
<g id="Node000006" class="node">
<title>Node6</title>
<g id="a_Node000006"><a xlink:title=" ">
<polygon fill="#e0e0e0" stroke="#999999" points="725.5,-26 573,-26 573,-6 725.5,-6 725.5,-26"/>
<text text-anchor="middle" x="649.25" y="-12.5" font-family="Helvetica,sans-Serif" font-size="10.00">javafx.scene.image.ImageView</text>
</a>
</g>
</g>
<!-- Node1&#45;&gt;Node6 -->
<g id="edge5_Node000001_Node000006" class="edge">
<title>Node1&#45;&gt;Node6</title>
<g id="a_edge5_Node000001_Node000006"><a xlink:title=" ">
<path fill="none" stroke="#63b8ff" d="M430.3,-67.53C481.25,-55.77 550.31,-39.83 597.15,-29.02"/>
<polygon fill="#63b8ff" stroke="#63b8ff" points="597.82,-32.46 606.78,-26.8 596.25,-25.64 597.82,-32.46"/>
</a>
</g>
</g>
</g>
</svg>
