<?xml version="1.0" encoding="UTF-8" standalone="no"?>
<!DOCTYPE svg PUBLIC "-//W3C//DTD SVG 1.1//EN"
 "http://www.w3.org/Graphics/SVG/1.1/DTD/svg11.dtd">
<!-- Generated by graphviz version 12.2.1 (20241206.2353)
 -->
<!-- Title: src/main/java/com/hust/ittnk68/cnpm/security/SecurityConfig.java Pages: 1 -->
<svg width="1796pt" height="120pt"
 viewBox="0.00 0.00 1795.50 120.00" xmlns="http://www.w3.org/2000/svg" xmlns:xlink="http://www.w3.org/1999/xlink">
<g id="graph0" class="graph" transform="scale(1 1) rotate(0) translate(4 116)">
<title>src/main/java/com/hust/ittnk68/cnpm/security/SecurityConfig.java</title>
<!-- Node1 -->
<g id="Node000001" class="node">
<title>Node1</title>
<g id="a_Node000001"><a xlink:title=" ">
<polygon fill="#999999" stroke="#666666" points="971.62,-112 853.62,-112 853.62,-68 971.62,-68 971.62,-112"/>
<text text-anchor="start" x="861.62" y="-98.5" font-family="Helvetica,sans-Serif" font-size="10.00">src/main/java/com/hust</text>
<text text-anchor="start" x="861.62" y="-86.5" font-family="Helvetica,sans-Serif" font-size="10.00">/ittnk68/cnpm/security</text>
<text text-anchor="middle" x="912.62" y="-74.5" font-family="Helvetica,sans-Serif" font-size="10.00">/SecurityConfig.java</text>
</a>
</g>
</g>
<!-- Node2 -->
<g id="Node000002" class="node">
<title>Node2</title>
<g id="a_Node000002"><a xlink:title=" ">
<polygon fill="#e0e0e0" stroke="#999999" points="213.25,-26 0,-26 0,-6 213.25,-6 213.25,-26"/>
<text text-anchor="middle" x="106.62" y="-12.5" font-family="Helvetica,sans-Serif" font-size="10.00">org.springframework.context.annotation.Bean</text>
</a>
</g>
</g>
<!-- Node1&#45;&gt;Node2 -->
<g id="edge1_Node000001_Node000002" class="edge">
<title>Node1&#45;&gt;Node2</title>
<g id="a_edge1_Node000001_Node000002"><a xlink:title=" ">
<path fill="none" stroke="#63b8ff" d="M853.47,-85.04C734.05,-76.84 455.71,-56.68 222.62,-32 211.15,-30.78 199.05,-29.37 187.17,-27.9"/>
<polygon fill="#63b8ff" stroke="#63b8ff" points="187.74,-24.45 177.38,-26.68 186.87,-31.39 187.74,-24.45"/>
</a>
</g>
</g>
<!-- Node3 -->
<g id="Node000003" class="node">
<title>Node3</title>
<g id="a_Node000003"><a xlink:title=" ">
<polygon fill="#e0e0e0" stroke="#999999" points="422,-32 231.25,-32 231.25,0 422,0 422,-32"/>
<text text-anchor="start" x="239.25" y="-18.5" font-family="Helvetica,sans-Serif" font-size="10.00">org.springframework.context.annotation.</text>
<text text-anchor="middle" x="326.62" y="-6.5" font-family="Helvetica,sans-Serif" font-size="10.00">Configuration</text>
</a>
</g>
</g>
<!-- Node1&#45;&gt;Node3 -->
<g id="edge2_Node000001_Node000003" class="edge">
<title>Node1&#45;&gt;Node3</title>
<g id="a_edge2_Node000001_Node000003"><a xlink:title=" ">
<path fill="none" stroke="#63b8ff" d="M853.33,-82.44C764.6,-72.51 591.73,-52.78 433.81,-32.27"/>
<polygon fill="#63b8ff" stroke="#63b8ff" points="434.33,-28.8 423.96,-30.98 433.43,-35.75 434.33,-28.8"/>
</a>
</g>
</g>
<!-- Node4 -->
<g id="Node000004" class="node">
<title>Node4</title>
<g id="a_Node000004"><a xlink:title=" ">
<polygon fill="#e0e0e0" stroke="#999999" points="754.88,-32 440.38,-32 440.38,0 754.88,0 754.88,-32"/>
<text text-anchor="start" x="448.38" y="-18.5" font-family="Helvetica,sans-Serif" font-size="10.00">org.springframework.security.config.annotation.method.configuration.</text>
<text text-anchor="middle" x="597.62" y="-6.5" font-family="Helvetica,sans-Serif" font-size="10.00">EnableMethodSecurity</text>
</a>
</g>
</g>
<!-- Node1&#45;&gt;Node4 -->
<g id="edge3_Node000001_Node000004" class="edge">
<title>Node1&#45;&gt;Node4</title>
<g id="a_edge3_Node000001_Node000004"><a xlink:title=" ">
<path fill="none" stroke="#63b8ff" d="M853.38,-75.46C803.36,-64.02 731.32,-47.56 676.44,-35.02"/>
<polygon fill="#63b8ff" stroke="#63b8ff" points="677.36,-31.64 666.83,-32.82 675.8,-38.46 677.36,-31.64"/>
</a>
</g>
</g>
<!-- Node5 -->
<g id="Node000005" class="node">
<title>Node5</title>
<g id="a_Node000005"><a xlink:title=" ">
<polygon fill="#e0e0e0" stroke="#999999" points="1051.88,-32 773.38,-32 773.38,0 1051.88,0 1051.88,-32"/>
<text text-anchor="start" x="781.38" y="-18.5" font-family="Helvetica,sans-Serif" font-size="10.00">org.springframework.security.config.annotation.web.builders.</text>
<text text-anchor="middle" x="912.62" y="-6.5" font-family="Helvetica,sans-Serif" font-size="10.00">HttpSecurity</text>
</a>
</g>
</g>
<!-- Node1&#45;&gt;Node5 -->
<g id="edge4_Node000001_Node000005" class="edge">
<title>Node1&#45;&gt;Node5</title>
<g id="a_edge4_Node000001_Node000005"><a xlink:title=" ">
<path fill="none" stroke="#63b8ff" d="M912.62,-67.79C912.62,-60.18 912.62,-51.52 912.62,-43.52"/>
<polygon fill="#63b8ff" stroke="#63b8ff" points="916.13,-43.64 912.63,-33.64 909.13,-43.64 916.13,-43.64"/>
</a>
</g>
</g>
<!-- Node6 -->
<g id="Node000006" class="node">
<title>Node6</title>
<g id="a_Node000006"><a xlink:title=" ">
<polygon fill="#e0e0e0" stroke="#999999" points="1369.75,-32 1069.5,-32 1069.5,0 1369.75,0 1369.75,-32"/>
<text text-anchor="start" x="1077.5" y="-18.5" font-family="Helvetica,sans-Serif" font-size="10.00">org.springframework.security.config.annotation.web.configuration.</text>
<text text-anchor="middle" x="1219.62" y="-6.5" font-family="Helvetica,sans-Serif" font-size="10.00">EnableWebSecurity</text>
</a>
</g>
</g>
<!-- Node1&#45;&gt;Node6 -->
<g id="edge5_Node000001_Node000006" class="edge">
<title>Node1&#45;&gt;Node6</title>
<g id="a_edge5_Node000001_Node000006"><a xlink:title=" ">
<path fill="none" stroke="#63b8ff" d="M971.82,-75.12C1020.46,-63.71 1089.72,-47.47 1142.66,-35.05"/>
<polygon fill="#63b8ff" stroke="#63b8ff" points="1143.28,-38.5 1152.22,-32.81 1141.69,-31.68 1143.28,-38.5"/>
</a>
</g>
</g>
<!-- Node7 -->
<g id="Node000007" class="node">
<title>Node7</title>
<g id="a_Node000007"><a xlink:title=" ">
<polygon fill="#e0e0e0" stroke="#999999" points="1551.88,-32 1387.38,-32 1387.38,0 1551.88,0 1551.88,-32"/>
<text text-anchor="start" x="1395.38" y="-18.5" font-family="Helvetica,sans-Serif" font-size="10.00">org.springframework.security.web.</text>
<text text-anchor="middle" x="1469.62" y="-6.5" font-family="Helvetica,sans-Serif" font-size="10.00">SecurityFilterChain</text>
</a>
</g>
</g>
<!-- Node1&#45;&gt;Node7 -->
<g id="edge6_Node000001_Node000007" class="edge">
<title>Node1&#45;&gt;Node7</title>
<g id="a_edge6_Node000001_Node000007"><a xlink:title=" ">
<path fill="none" stroke="#63b8ff" d="M971.95,-82.55C1058.42,-72.96 1224.44,-53.89 1375.96,-32.35"/>
<polygon fill="#63b8ff" stroke="#63b8ff" points="1376.41,-35.82 1385.81,-30.94 1375.42,-28.89 1376.41,-35.82"/>
</a>
</g>
</g>
<!-- Node8 -->
<g id="Node000008" class="node">
<title>Node8</title>
<g id="a_Node000008"><a xlink:title=" ">
<polygon fill="#e0e0e0" stroke="#999999" points="1787.5,-32 1569.75,-32 1569.75,0 1787.5,0 1787.5,-32"/>
<text text-anchor="start" x="1577.75" y="-18.5" font-family="Helvetica,sans-Serif" font-size="10.00">org.springframework.security.web.util.matcher.</text>
<text text-anchor="middle" x="1678.62" y="-6.5" font-family="Helvetica,sans-Serif" font-size="10.00">AntPathRequestMatcher</text>
</a>
</g>
</g>
<!-- Node1&#45;&gt;Node8 -->
<g id="edge7_Node000001_Node000008" class="edge">
<title>Node1&#45;&gt;Node8</title>
<g id="a_edge7_Node000001_Node000008"><a xlink:title=" ">
<path fill="none" stroke="#63b8ff" d="M972.11,-84.54C1084.43,-75.96 1335.67,-55.95 1558.11,-32.25"/>
<polygon fill="#63b8ff" stroke="#63b8ff" points="1558.28,-35.75 1567.85,-31.2 1557.53,-28.79 1558.28,-35.75"/>
</a>
</g>
</g>
</g>
</svg>
