<?xml version="1.0" encoding="UTF-8" standalone="no"?>
<!DOCTYPE svg PUBLIC "-//W3C//DTD SVG 1.1//EN"
 "http://www.w3.org/Graphics/SVG/1.1/DTD/svg11.dtd">
<!-- Generated by graphviz version 12.2.1 (20241206.2353)
 -->
<!-- Title: src/main/java/com/hust/ittnk68/cnpm/app/Server.java Pages: 1 -->
<!--zoomable 108 -->

<svg id="main" version="1.1" xmlns="http://www.w3.org/2000/svg" xmlns:xlink="http://www.w3.org/1999/xlink" xml:space="preserve" onload="init(evt)">

<style type="text/css"><![CDATA[
.node, .edge {opacity: 0.7;}
.node.selected, .edge.selected {opacity: 1;}
.edge:hover path { stroke: red; }
.edge:hover polygon { stroke: red; fill: red; }
]]></style>

<defs>
  <circle id="rim" cx="0" cy="0" r="7"/>
  <circle id="rim2" cx="0" cy="0" r="3.5"/>
  <g id="zoomPlus">
    <use xlink:href="#rim" fill="#404040"><set attributeName="fill" to="#808080" begin="zoomplus.mouseover" end="zoomplus.mouseout"/></use>
    <path d="M-4,0h8M0,-4v8" fill="none" stroke="white" stroke-width="1.5" pointer-events="none"/>
  </g>
  <g id="zoomMin">
    <use xlink:href="#rim" fill="#404040"><set attributeName="fill" to="#808080" begin="zoomminus.mouseover" end="zoomminus.mouseout"/></use>
    <path d="M-4,0h8" fill="none" stroke="white" stroke-width="1.5" pointer-events="none"/>
  </g>
  <g id="arrowUp" transform="translate(30 24)">
    <use xlink:href="#rim"/>
    <path pointer-events="none" fill="none" stroke="white" stroke-width="1.5" d="M0,-3.0v7 M-2.5,-0.5L0,-3.0L2.5,-0.5"/>
  </g>
  <g id="arrowRight" transform="rotate(90) translate(36 -43)">
    <use xlink:href="#rim"/>
    <path pointer-events="none" fill="none" stroke="white" stroke-width="1.5" d="M0,-3.0v7 M-2.5,-0.5L0,-3.0L2.5,-0.5"/>
  </g>
  <g id="arrowDown" transform="rotate(180) translate(-30 -48)">
    <use xlink:href="#rim"/>
    <path pointer-events="none" fill="none" stroke="white" stroke-width="1.5" d="M0,-3.0v7 M-2.5,-0.5L0,-3.0L2.5,-0.5"/>
  </g>
  <g id="arrowLeft" transform="rotate(270) translate(-36 17)">
    <use xlink:href="#rim"/>
    <path pointer-events="none" fill="none" stroke="white" stroke-width="1.5" d="M0,-3.0v7 M-2.5,-0.5L0,-3.0L2.5,-0.5"/>
  </g>
  <g id="resetDef">
    <use xlink:href="#rim2" fill="#404040"><set attributeName="fill" to="#808080" begin="reset.mouseover" end="reset.mouseout"/></use>
  </g>
</defs>
<script type="application/ecmascript">
var viewWidth = 6750;
var viewHeight = 108;
var sectionId = 'dynsection-0';
</script>
<script type="application/ecmascript" xlink:href="svg.min.js"/>
<svg id="graph" class="graph">
<g id="viewport">
<title>src/main/java/com/hust/ittnk68/cnpm/app/Server.java</title>
<!-- Node1 -->
<g id="Node000001" class="node">
<title>Node1</title>
<g id="a_Node000001"><a xlink:title=" ">
<polygon fill="#999999" stroke="#666666" points="3407.75,-100 3262,-100 3262,-68 3407.75,-68 3407.75,-100"/>
<text text-anchor="start" x="3270" y="-86.5" font-family="Helvetica,sans-Serif" font-size="10.00">src/main/java/com/hust</text>
<text text-anchor="middle" x="3334.88" y="-74.5" font-family="Helvetica,sans-Serif" font-size="10.00">/ittnk68/cnpm/app/Server.java</text>
</a>
</g>
</g>
<!-- Node2 -->
<g id="Node000002" class="node">
<title>Node2</title>
<g id="a_Node000002"><a xlink:title=" ">
<polygon fill="#e0e0e0" stroke="#999999" points="115.75,-26 0,-26 0,-6 115.75,-6 115.75,-26"/>
<text text-anchor="middle" x="57.88" y="-12.5" font-family="Helvetica,sans-Serif" font-size="10.00">java.sql.SQLException</text>
</a>
</g>
</g>
<!-- Node1&#45;&gt;Node2 -->
<g id="edge1_Node000001_Node000002" class="edge">
<title>Node1&#45;&gt;Node2</title>
<g id="a_edge1_Node000001_Node000002"><a xlink:title=" ">
<path fill="none" stroke="#63b8ff" d="M3261.83,-82.73C2813.73,-80.99 445.38,-70.02 124.88,-32 118.35,-31.23 111.54,-30.09 104.85,-28.79"/>
<polygon fill="#63b8ff" stroke="#63b8ff" points="105.79,-25.41 95.29,-26.77 104.35,-32.26 105.79,-25.41"/>
</a>
</g>
</g>
<!-- Node3 -->
<g id="Node000003" class="node">
<title>Node3</title>
<g id="a_Node000003"><a xlink:title=" ">
<polygon fill="#e0e0e0" stroke="#999999" points="225.75,-26 134,-26 134,-6 225.75,-6 225.75,-26"/>
<text text-anchor="middle" x="179.88" y="-12.5" font-family="Helvetica,sans-Serif" font-size="10.00">java.util.ArrayList</text>
</a>
</g>
</g>
<!-- Node1&#45;&gt;Node3 -->
<g id="edge2_Node000001_Node000003" class="edge">
<title>Node1&#45;&gt;Node3</title>
<g id="a_edge2_Node000001_Node000003"><a xlink:title=" ">
<path fill="none" stroke="#63b8ff" d="M3261.83,-82.89C2822.77,-82.09 542.87,-75.83 234.88,-32 230.13,-31.33 225.22,-30.37 220.37,-29.26"/>
<polygon fill="#63b8ff" stroke="#63b8ff" points="221.3,-25.89 210.74,-26.84 219.59,-32.68 221.3,-25.89"/>
</a>
</g>
</g>
<!-- Node4 -->
<g id="Node000004" class="node">
<title>Node4</title>
<g id="a_Node000004"><a xlink:title=" ">
<polygon fill="#e0e0e0" stroke="#999999" points="312.12,-26 243.62,-26 243.62,-6 312.12,-6 312.12,-26"/>
<text text-anchor="middle" x="277.88" y="-12.5" font-family="Helvetica,sans-Serif" font-size="10.00">java.util.List</text>
</a>
</g>
</g>
<!-- Node1&#45;&gt;Node4 -->
<g id="edge3_Node000001_Node000004" class="edge">
<title>Node1&#45;&gt;Node4</title>
<g id="a_edge3_Node000001_Node000004"><a xlink:title=" ">
<path fill="none" stroke="#63b8ff" d="M3261.72,-83.15C2829.47,-83.88 618.18,-84.96 320.88,-32 317.84,-31.46 314.74,-30.74 311.65,-29.9"/>
<polygon fill="#63b8ff" stroke="#63b8ff" points="312.75,-26.58 302.17,-26.93 310.67,-33.26 312.75,-26.58"/>
</a>
</g>
</g>
<!-- Node5 -->
<g id="Node000005" class="node">
<title>Node5</title>
<g id="a_Node000005"><a xlink:title=" ">
<polygon fill="#e0e0e0" stroke="#999999" points="401.62,-26 330.12,-26 330.12,-6 401.62,-6 401.62,-26"/>
<text text-anchor="middle" x="365.88" y="-12.5" font-family="Helvetica,sans-Serif" font-size="10.00">java.util.Map</text>
</a>
</g>
</g>
<!-- Node1&#45;&gt;Node5 -->
<g id="edge4_Node000001_Node000005" class="edge">
<title>Node1&#45;&gt;Node5</title>
<g id="a_edge4_Node000001_Node000005"><a xlink:title=" ">
<path fill="none" stroke="#63b8ff" d="M3261.83,-83.08C2837.46,-83.38 698.1,-82.36 409.88,-32 406.67,-31.44 403.38,-30.68 400.12,-29.81"/>
<polygon fill="#63b8ff" stroke="#63b8ff" points="401.3,-26.51 390.72,-26.92 399.25,-33.2 401.3,-26.51"/>
</a>
</g>
</g>
<!-- Node6 -->
<g id="Node000006" class="node">
<title>Node6</title>
<g id="a_Node000006"><a xlink:title=" ">
<polygon fill="#e0e0e0" stroke="#999999" points="548.5,-32 419.25,-32 419.25,0 548.5,0 548.5,-32"/>
<text text-anchor="start" x="427.25" y="-18.5" font-family="Helvetica,sans-Serif" font-size="10.00">org.springframework.boot.</text>
<text text-anchor="middle" x="483.88" y="-6.5" font-family="Helvetica,sans-Serif" font-size="10.00">SpringApplication</text>
</a>
</g>
</g>
<!-- Node1&#45;&gt;Node6 -->
<g id="edge5_Node000001_Node000006" class="edge">
<title>Node1&#45;&gt;Node6</title>
<g id="a_edge5_Node000001_Node000006"><a xlink:title=" ">
<path fill="none" stroke="#63b8ff" d="M3261.62,-82.45C2854.96,-79.3 882.11,-62.59 559.92,-31.98"/>
<polygon fill="#63b8ff" stroke="#63b8ff" points="560.55,-28.53 550.25,-31 559.84,-35.49 560.55,-28.53"/>
</a>
</g>
</g>
<!-- Node7 -->
<g id="Node000007" class="node">
<title>Node7</title>
<g id="a_Node000007"><a xlink:title=" ">
<polygon fill="#e0e0e0" stroke="#999999" points="757.25,-32 566.5,-32 566.5,0 757.25,0 757.25,-32"/>
<text text-anchor="start" x="574.5" y="-18.5" font-family="Helvetica,sans-Serif" font-size="10.00">org.springframework.boot.autoconfigure.</text>
<text text-anchor="middle" x="661.88" y="-6.5" font-family="Helvetica,sans-Serif" font-size="10.00">SpringBootApplication</text>
</a>
</g>
</g>
<!-- Node1&#45;&gt;Node7 -->
<g id="edge6_Node000001_Node000007" class="edge">
<title>Node1&#45;&gt;Node7</title>
<g id="a_edge6_Node000001_Node000007"><a xlink:title=" ">
<path fill="none" stroke="#63b8ff" d="M3261.67,-82.77C2899.22,-81.44 1293.71,-73.32 769.03,-32.18"/>
<polygon fill="#63b8ff" stroke="#63b8ff" points="769.35,-28.69 759.1,-31.38 768.79,-35.67 769.35,-28.69"/>
</a>
</g>
</g>
<!-- Node8 -->
<g id="Node000008" class="node">
<title>Node8</title>
<g id="a_Node000008"><a xlink:title=" ">
<polygon fill="#e0e0e0" stroke="#999999" points="944.75,-32 775,-32 775,0 944.75,0 944.75,-32"/>
<text text-anchor="start" x="783" y="-18.5" font-family="Helvetica,sans-Serif" font-size="10.00">org.springframework.context.event.</text>
<text text-anchor="middle" x="859.88" y="-6.5" font-family="Helvetica,sans-Serif" font-size="10.00">ContextClosedEvent</text>
</a>
</g>
</g>
<!-- Node1&#45;&gt;Node8 -->
<g id="edge7_Node000001_Node000008" class="edge">
<title>Node1&#45;&gt;Node8</title>
<g id="a_edge7_Node000001_Node000008"><a xlink:title=" ">
<path fill="none" stroke="#63b8ff" d="M3261.6,-82.78C2915.51,-81.55 1441.58,-73.95 956.39,-32.12"/>
<polygon fill="#63b8ff" stroke="#63b8ff" points="956.89,-28.65 946.62,-31.26 956.28,-35.62 956.89,-28.65"/>
</a>
</g>
</g>
<!-- Node9 -->
<g id="Node000009" class="node">
<title>Node9</title>
<g id="a_Node000009"><a xlink:title=" ">
<polygon fill="#e0e0e0" stroke="#999999" points="1132.75,-32 963,-32 963,0 1132.75,0 1132.75,-32"/>
<text text-anchor="start" x="971" y="-18.5" font-family="Helvetica,sans-Serif" font-size="10.00">org.springframework.context.event.</text>
<text text-anchor="middle" x="1047.88" y="-6.5" font-family="Helvetica,sans-Serif" font-size="10.00">EventListener</text>
</a>
</g>
</g>
<!-- Node1&#45;&gt;Node9 -->
<g id="edge8_Node000001_Node000009" class="edge">
<title>Node1&#45;&gt;Node9</title>
<g id="a_edge8_Node000001_Node000009"><a xlink:title=" ">
<path fill="none" stroke="#63b8ff" d="M3261.67,-82.63C2932.96,-80.75 1590.34,-70.87 1144.45,-32.13"/>
<polygon fill="#63b8ff" stroke="#63b8ff" points="1144.9,-28.65 1134.63,-31.25 1144.28,-35.62 1144.9,-28.65"/>
</a>
</g>
</g>
<!-- Node10 -->
<g id="Node000010" class="node">
<title>Node10</title>
<g id="a_Node000010"><a xlink:title=" ">
<polygon fill="#e0e0e0" stroke="#999999" points="1348.62,-32 1151.12,-32 1151.12,0 1348.62,0 1348.62,-32"/>
<text text-anchor="start" x="1159.12" y="-18.5" font-family="Helvetica,sans-Serif" font-size="10.00">org.springframework.web.bind.annotation.</text>
<text text-anchor="middle" x="1249.88" y="-6.5" font-family="Helvetica,sans-Serif" font-size="10.00">RequestBody</text>
</a>
</g>
</g>
<!-- Node1&#45;&gt;Node10 -->
<g id="edge9_Node000001_Node000010" class="edge">
<title>Node1&#45;&gt;Node10</title>
<g id="a_edge9_Node000001_Node000010"><a xlink:title=" ">
<path fill="none" stroke="#63b8ff" d="M3261.73,-82.21C2953.9,-78.74 1761.57,-63.54 1360.34,-32.12"/>
<polygon fill="#63b8ff" stroke="#63b8ff" points="1360.75,-28.64 1350.5,-31.33 1360.19,-35.62 1360.75,-28.64"/>
</a>
</g>
</g>
<!-- Node11 -->
<g id="Node000011" class="node">
<title>Node11</title>
<g id="a_Node000011"><a xlink:title=" ">
<polygon fill="#e0e0e0" stroke="#999999" points="1564.62,-32 1367.12,-32 1367.12,0 1564.62,0 1564.62,-32"/>
<text text-anchor="start" x="1375.12" y="-18.5" font-family="Helvetica,sans-Serif" font-size="10.00">org.springframework.web.bind.annotation.</text>
<text text-anchor="middle" x="1465.88" y="-6.5" font-family="Helvetica,sans-Serif" font-size="10.00">RequestMapping</text>
</a>
</g>
</g>
<!-- Node1&#45;&gt;Node11 -->
<g id="edge10_Node000001_Node000011" class="edge">
<title>Node1&#45;&gt;Node11</title>
<g id="a_edge10_Node000001_Node000011"><a xlink:title=" ">
<path fill="none" stroke="#63b8ff" d="M3261.57,-81.94C2975.43,-77.66 1932.46,-60.48 1576.35,-32.12"/>
<polygon fill="#63b8ff" stroke="#63b8ff" points="1576.75,-28.64 1566.5,-31.32 1576.18,-35.62 1576.75,-28.64"/>
</a>
</g>
</g>
<!-- Node12 -->
<g id="Node000012" class="node">
<title>Node12</title>
<g id="a_Node000012"><a xlink:title=" ">
<polygon fill="#e0e0e0" stroke="#999999" points="1780.62,-32 1583.12,-32 1583.12,0 1780.62,0 1780.62,-32"/>
<text text-anchor="start" x="1591.12" y="-18.5" font-family="Helvetica,sans-Serif" font-size="10.00">org.springframework.web.bind.annotation.</text>
<text text-anchor="middle" x="1681.88" y="-6.5" font-family="Helvetica,sans-Serif" font-size="10.00">RestController</text>
</a>
</g>
</g>
<!-- Node1&#45;&gt;Node12 -->
<g id="edge11_Node000001_Node000012" class="edge">
<title>Node1&#45;&gt;Node12</title>
<g id="a_edge11_Node000001_Node000012"><a xlink:title=" ">
<path fill="none" stroke="#63b8ff" d="M3261.53,-83.31C3040.89,-83.65 2363.75,-80.46 1792.36,-32.15"/>
<polygon fill="#63b8ff" stroke="#63b8ff" points="1792.76,-28.67 1782.5,-31.31 1792.17,-35.64 1792.76,-28.67"/>
</a>
</g>
</g>
<!-- Node13 -->
<g id="Node000013" class="node">
<title>Node13</title>
<g id="a_Node000013"><a xlink:title=" ">
<polygon fill="#e0e0e0" stroke="#999999" points="1986.75,-32 1799,-32 1799,0 1986.75,0 1986.75,-32"/>
<text text-anchor="start" x="1807" y="-18.5" font-family="Helvetica,sans-Serif" font-size="10.00">com.hust.ittnk68.cnpm.communication.</text>
<text text-anchor="middle" x="1892.88" y="-6.5" font-family="Helvetica,sans-Serif" font-size="10.00">AdminCreateObject</text>
</a>
</g>
</g>
<!-- Node1&#45;&gt;Node13 -->
<g id="edge12_Node000001_Node000013" class="edge">
<title>Node1&#45;&gt;Node13</title>
<g id="a_edge12_Node000001_Node000013"><a xlink:title=" ">
<path fill="none" stroke="#63b8ff" d="M3261.76,-82.95C3061.35,-82.22 2486.24,-76.2 1998.27,-32.15"/>
<polygon fill="#63b8ff" stroke="#63b8ff" points="1998.91,-28.69 1988.63,-31.27 1998.28,-35.67 1998.91,-28.69"/>
</a>
</g>
</g>
<!-- Node14 -->
<g id="Node000014" class="node">
<title>Node14</title>
<g id="a_Node000014"><a xlink:title=" ">
<polygon fill="#e0e0e0" stroke="#999999" points="2192.75,-32 2005,-32 2005,0 2192.75,0 2192.75,-32"/>
<text text-anchor="start" x="2013" y="-18.5" font-family="Helvetica,sans-Serif" font-size="10.00">com.hust.ittnk68.cnpm.communication.</text>
<text text-anchor="middle" x="2098.88" y="-6.5" font-family="Helvetica,sans-Serif" font-size="10.00">AdminDeleteObject</text>
</a>
</g>
</g>
<!-- Node1&#45;&gt;Node14 -->
<g id="edge13_Node000001_Node000014" class="edge">
<title>Node1&#45;&gt;Node14</title>
<g id="a_edge13_Node000001_Node000014"><a xlink:title=" ">
<path fill="none" stroke="#63b8ff" d="M3261.8,-82.23C3083.1,-79.81 2609.66,-70.11 2204.49,-32.18"/>
<polygon fill="#63b8ff" stroke="#63b8ff" points="2204.92,-28.71 2194.64,-31.25 2204.26,-35.68 2204.92,-28.71"/>
</a>
</g>
</g>
<!-- Node15 -->
<g id="Node000015" class="node">
<title>Node15</title>
<g id="a_Node000015"><a xlink:title=" ">
<polygon fill="#e0e0e0" stroke="#999999" points="2398.75,-32 2211,-32 2211,0 2398.75,0 2398.75,-32"/>
<text text-anchor="start" x="2219" y="-18.5" font-family="Helvetica,sans-Serif" font-size="10.00">com.hust.ittnk68.cnpm.communication.</text>
<text text-anchor="middle" x="2304.88" y="-6.5" font-family="Helvetica,sans-Serif" font-size="10.00">AdminFindObject</text>
</a>
</g>
</g>
<!-- Node1&#45;&gt;Node15 -->
<g id="edge14_Node000001_Node000015" class="edge">
<title>Node1&#45;&gt;Node15</title>
<g id="a_edge14_Node000001_Node000015"><a xlink:title=" ">
<path fill="none" stroke="#63b8ff" d="M3261.7,-81.2C3106.62,-76.91 2733.33,-64.03 2410.13,-32.17"/>
<polygon fill="#63b8ff" stroke="#63b8ff" points="2410.94,-28.73 2400.64,-31.22 2410.24,-35.69 2410.94,-28.73"/>
</a>
</g>
</g>
<!-- Node16 -->
<g id="Node000016" class="node">
<title>Node16</title>
<g id="a_Node000016"><a xlink:title=" ">
<polygon fill="#e0e0e0" stroke="#999999" points="2604.75,-32 2417,-32 2417,0 2604.75,0 2604.75,-32"/>
<text text-anchor="start" x="2425" y="-18.5" font-family="Helvetica,sans-Serif" font-size="10.00">com.hust.ittnk68.cnpm.communication.</text>
<text text-anchor="middle" x="2510.88" y="-6.5" font-family="Helvetica,sans-Serif" font-size="10.00">AdminUpdateObject</text>
</a>
</g>
</g>
<!-- Node1&#45;&gt;Node16 -->
<g id="edge15_Node000001_Node000016" class="edge">
<title>Node1&#45;&gt;Node16</title>
<g id="a_edge15_Node000001_Node000016"><a xlink:title=" ">
<path fill="none" stroke="#63b8ff" d="M3261.54,-79.61C3133.01,-73.27 2858.46,-57.98 2616.28,-32.21"/>
<polygon fill="#63b8ff" stroke="#63b8ff" points="2616.96,-28.76 2606.64,-31.17 2616.21,-35.72 2616.96,-28.76"/>
</a>
</g>
</g>
<!-- Node17 -->
<g id="Node000017" class="node">
<title>Node17</title>
<g id="a_Node000017"><a xlink:title=" ">
<polygon fill="#e0e0e0" stroke="#999999" points="2810.75,-32 2623,-32 2623,0 2810.75,0 2810.75,-32"/>
<text text-anchor="start" x="2631" y="-18.5" font-family="Helvetica,sans-Serif" font-size="10.00">com.hust.ittnk68.cnpm.communication.</text>
<text text-anchor="middle" x="2716.88" y="-6.5" font-family="Helvetica,sans-Serif" font-size="10.00">ApiMapping</text>
</a>
</g>
</g>
<!-- Node1&#45;&gt;Node17 -->
<g id="edge16_Node000001_Node000017" class="edge">
<title>Node1&#45;&gt;Node17</title>
<g id="a_edge16_Node000001_Node000017"><a xlink:title=" ">
<path fill="none" stroke="#63b8ff" d="M3261.84,-76.83C3164.16,-68.34 2985.32,-51.97 2822.36,-32.27"/>
<polygon fill="#63b8ff" stroke="#63b8ff" points="2823,-28.82 2812.65,-31.09 2822.16,-35.77 2823,-28.82"/>
</a>
</g>
</g>
<!-- Node18 -->
<g id="Node000018" class="node">
<title>Node18</title>
<g id="a_Node000018"><a xlink:title=" ">
<polygon fill="#e0e0e0" stroke="#999999" points="3016.75,-32 2829,-32 2829,0 3016.75,0 3016.75,-32"/>
<text text-anchor="start" x="2837" y="-18.5" font-family="Helvetica,sans-Serif" font-size="10.00">com.hust.ittnk68.cnpm.communication.</text>
<text text-anchor="middle" x="2922.88" y="-6.5" font-family="Helvetica,sans-Serif" font-size="10.00">ClientMessageStartSession</text>
</a>
</g>
</g>
<!-- Node1&#45;&gt;Node18 -->
<g id="edge17_Node000001_Node000018" class="edge">
<title>Node1&#45;&gt;Node18</title>
<g id="a_edge17_Node000001_Node000018"><a xlink:title=" ">
<path fill="none" stroke="#63b8ff" d="M3261.69,-71.28C3196.81,-60.88 3101.28,-45.58 3028.18,-33.87"/>
<polygon fill="#63b8ff" stroke="#63b8ff" points="3029.03,-30.46 3018.61,-32.34 3027.93,-37.37 3029.03,-30.46"/>
</a>
</g>
</g>
<!-- Node19 -->
<g id="Node000019" class="node">
<title>Node19</title>
<g id="a_Node000019"><a xlink:title=" ">
<polygon fill="#e0e0e0" stroke="#999999" points="3222.75,-32 3035,-32 3035,0 3222.75,0 3222.75,-32"/>
<text text-anchor="start" x="3043" y="-18.5" font-family="Helvetica,sans-Serif" font-size="10.00">com.hust.ittnk68.cnpm.communication.</text>
<text text-anchor="middle" x="3128.88" y="-6.5" font-family="Helvetica,sans-Serif" font-size="10.00">ServerCreateObjectResponse</text>
</a>
</g>
</g>
<!-- Node1&#45;&gt;Node19 -->
<g id="edge18_Node000001_Node000019" class="edge">
<title>Node1&#45;&gt;Node19</title>
<g id="a_edge18_Node000001_Node000019"><a xlink:title=" ">
<path fill="none" stroke="#63b8ff" d="M3286.58,-67.53C3257.11,-58.09 3219.23,-45.95 3187.98,-35.94"/>
<polygon fill="#63b8ff" stroke="#63b8ff" points="3189.26,-32.67 3178.67,-32.95 3187.12,-39.34 3189.26,-32.67"/>
</a>
</g>
</g>
<!-- Node20 -->
<g id="Node000020" class="node">
<title>Node20</title>
<g id="a_Node000020"><a xlink:title=" ">
<polygon fill="#e0e0e0" stroke="#999999" points="3428.75,-32 3241,-32 3241,0 3428.75,0 3428.75,-32"/>
<text text-anchor="start" x="3249" y="-18.5" font-family="Helvetica,sans-Serif" font-size="10.00">com.hust.ittnk68.cnpm.communication.</text>
<text text-anchor="middle" x="3334.88" y="-6.5" font-family="Helvetica,sans-Serif" font-size="10.00">ServerDeleteObjectResponse</text>
</a>
</g>
</g>
<!-- Node1&#45;&gt;Node20 -->
<g id="edge19_Node000001_Node000020" class="edge">
<title>Node1&#45;&gt;Node20</title>
<g id="a_edge19_Node000001_Node000020"><a xlink:title=" ">
<path fill="none" stroke="#63b8ff" d="M3334.88,-67.69C3334.88,-60.53 3334.88,-51.79 3334.88,-43.59"/>
<polygon fill="#63b8ff" stroke="#63b8ff" points="3338.38,-43.74 3334.88,-33.74 3331.38,-43.74 3338.38,-43.74"/>
</a>
</g>
</g>
<!-- Node21 -->
<g id="Node000021" class="node">
<title>Node21</title>
<g id="a_Node000021"><a xlink:title=" ">
<polygon fill="#e0e0e0" stroke="#999999" points="3634.75,-32 3447,-32 3447,0 3634.75,0 3634.75,-32"/>
<text text-anchor="start" x="3455" y="-18.5" font-family="Helvetica,sans-Serif" font-size="10.00">com.hust.ittnk68.cnpm.communication.</text>
<text text-anchor="middle" x="3540.88" y="-6.5" font-family="Helvetica,sans-Serif" font-size="10.00">ServerFindObjectResponse</text>
</a>
</g>
</g>
<!-- Node1&#45;&gt;Node21 -->
<g id="edge20_Node000001_Node000021" class="edge">
<title>Node1&#45;&gt;Node21</title>
<g id="a_edge20_Node000001_Node000021"><a xlink:title=" ">
<path fill="none" stroke="#63b8ff" d="M3383.17,-67.53C3412.64,-58.09 3450.52,-45.95 3481.77,-35.94"/>
<polygon fill="#63b8ff" stroke="#63b8ff" points="3482.63,-39.34 3491.08,-32.95 3480.49,-32.67 3482.63,-39.34"/>
</a>
</g>
</g>
<!-- Node22 -->
<g id="Node000022" class="node">
<title>Node22</title>
<g id="a_Node000022"><a xlink:title=" ">
<polygon fill="#e0e0e0" stroke="#999999" points="3840.75,-32 3653,-32 3653,0 3840.75,0 3840.75,-32"/>
<text text-anchor="start" x="3661" y="-18.5" font-family="Helvetica,sans-Serif" font-size="10.00">com.hust.ittnk68.cnpm.communication.</text>
<text text-anchor="middle" x="3746.88" y="-6.5" font-family="Helvetica,sans-Serif" font-size="10.00">ServerObjectByIdQueryResponse</text>
</a>
</g>
</g>
<!-- Node1&#45;&gt;Node22 -->
<g id="edge21_Node000001_Node000022" class="edge">
<title>Node1&#45;&gt;Node22</title>
<g id="a_edge21_Node000001_Node000022"><a xlink:title=" ">
<path fill="none" stroke="#63b8ff" d="M3408.06,-71.28C3472.94,-60.88 3568.47,-45.58 3641.57,-33.87"/>
<polygon fill="#63b8ff" stroke="#63b8ff" points="3641.82,-37.37 3651.14,-32.34 3640.72,-30.46 3641.82,-37.37"/>
</a>
</g>
</g>
<!-- Node23 -->
<g id="Node000023" class="node">
<title>Node23</title>
<g id="a_Node000023"><a xlink:title=" ">
<polygon fill="#e0e0e0" stroke="#999999" points="4046.75,-32 3859,-32 3859,0 4046.75,0 4046.75,-32"/>
<text text-anchor="start" x="3867" y="-18.5" font-family="Helvetica,sans-Serif" font-size="10.00">com.hust.ittnk68.cnpm.communication.</text>
<text text-anchor="middle" x="3952.88" y="-6.5" font-family="Helvetica,sans-Serif" font-size="10.00">ServerPaymentStatusQueryResponse</text>
</a>
</g>
</g>
<!-- Node1&#45;&gt;Node23 -->
<g id="edge22_Node000001_Node000023" class="edge">
<title>Node1&#45;&gt;Node23</title>
<g id="a_edge22_Node000001_Node000023"><a xlink:title=" ">
<path fill="none" stroke="#63b8ff" d="M3407.91,-76.83C3505.59,-68.34 3684.43,-51.97 3847.39,-32.27"/>
<polygon fill="#63b8ff" stroke="#63b8ff" points="3847.59,-35.77 3857.1,-31.09 3846.75,-28.82 3847.59,-35.77"/>
</a>
</g>
</g>
<!-- Node24 -->
<g id="Node000024" class="node">
<title>Node24</title>
<g id="a_Node000024"><a xlink:title=" ">
<polygon fill="#e0e0e0" stroke="#999999" points="4252.75,-32 4065,-32 4065,0 4252.75,0 4252.75,-32"/>
<text text-anchor="start" x="4073" y="-18.5" font-family="Helvetica,sans-Serif" font-size="10.00">com.hust.ittnk68.cnpm.communication.</text>
<text text-anchor="middle" x="4158.88" y="-6.5" font-family="Helvetica,sans-Serif" font-size="10.00">ServerResponseStartSession</text>
</a>
</g>
</g>
<!-- Node1&#45;&gt;Node24 -->
<g id="edge23_Node000001_Node000024" class="edge">
<title>Node1&#45;&gt;Node24</title>
<g id="a_edge23_Node000001_Node000024"><a xlink:title=" ">
<path fill="none" stroke="#63b8ff" d="M3408.21,-79.61C3536.74,-73.27 3811.29,-57.98 4053.47,-32.21"/>
<polygon fill="#63b8ff" stroke="#63b8ff" points="4053.54,-35.72 4063.11,-31.17 4052.79,-28.76 4053.54,-35.72"/>
</a>
</g>
</g>
<!-- Node25 -->
<g id="Node000025" class="node">
<title>Node25</title>
<g id="a_Node000025"><a xlink:title=" ">
<polygon fill="#e0e0e0" stroke="#999999" points="4458.75,-32 4271,-32 4271,0 4458.75,0 4458.75,-32"/>
<text text-anchor="start" x="4279" y="-18.5" font-family="Helvetica,sans-Serif" font-size="10.00">com.hust.ittnk68.cnpm.communication.</text>
<text text-anchor="middle" x="4364.88" y="-6.5" font-family="Helvetica,sans-Serif" font-size="10.00">ServerUpdateObjectResponse</text>
</a>
</g>
</g>
<!-- Node1&#45;&gt;Node25 -->
<g id="edge24_Node000001_Node000025" class="edge">
<title>Node1&#45;&gt;Node25</title>
<g id="a_edge24_Node000001_Node000025"><a xlink:title=" ">
<path fill="none" stroke="#63b8ff" d="M3408.05,-81.2C3563.13,-76.91 3936.42,-64.03 4259.62,-32.17"/>
<polygon fill="#63b8ff" stroke="#63b8ff" points="4259.51,-35.69 4269.11,-31.22 4258.81,-28.73 4259.51,-35.69"/>
</a>
</g>
</g>
<!-- Node26 -->
<g id="Node000026" class="node">
<title>Node26</title>
<g id="a_Node000026"><a xlink:title=" ">
<polygon fill="#e0e0e0" stroke="#999999" points="4664.75,-32 4477,-32 4477,0 4664.75,0 4664.75,-32"/>
<text text-anchor="start" x="4485" y="-18.5" font-family="Helvetica,sans-Serif" font-size="10.00">com.hust.ittnk68.cnpm.communication.</text>
<text text-anchor="middle" x="4570.88" y="-6.5" font-family="Helvetica,sans-Serif" font-size="10.00">UserQueryObjectById</text>
</a>
</g>
</g>
<!-- Node1&#45;&gt;Node26 -->
<g id="edge25_Node000001_Node000026" class="edge">
<title>Node1&#45;&gt;Node26</title>
<g id="a_edge25_Node000001_Node000026"><a xlink:title=" ">
<path fill="none" stroke="#63b8ff" d="M3407.95,-82.23C3586.65,-79.81 4060.09,-70.11 4465.26,-32.18"/>
<polygon fill="#63b8ff" stroke="#63b8ff" points="4465.49,-35.68 4475.11,-31.25 4464.83,-28.71 4465.49,-35.68"/>
</a>
</g>
</g>
<!-- Node27 -->
<g id="Node000027" class="node">
<title>Node27</title>
<g id="a_Node000027"><a xlink:title=" ">
<polygon fill="#e0e0e0" stroke="#999999" points="4870.75,-32 4683,-32 4683,0 4870.75,0 4870.75,-32"/>
<text text-anchor="start" x="4691" y="-18.5" font-family="Helvetica,sans-Serif" font-size="10.00">com.hust.ittnk68.cnpm.communication.</text>
<text text-anchor="middle" x="4776.88" y="-6.5" font-family="Helvetica,sans-Serif" font-size="10.00">UserQueryPaymentStatus</text>
</a>
</g>
</g>
<!-- Node1&#45;&gt;Node27 -->
<g id="edge26_Node000001_Node000027" class="edge">
<title>Node1&#45;&gt;Node27</title>
<g id="a_edge26_Node000001_Node000027"><a xlink:title=" ">
<path fill="none" stroke="#63b8ff" d="M3407.99,-82.95C3608.4,-82.22 4183.51,-76.2 4671.48,-32.15"/>
<polygon fill="#63b8ff" stroke="#63b8ff" points="4671.47,-35.67 4681.12,-31.27 4670.84,-28.69 4671.47,-35.67"/>
</a>
</g>
</g>
<!-- Node28 -->
<g id="Node000028" class="node">
<title>Node28</title>
<g id="a_Node000028"><a xlink:title=" ">
<polygon fill="#e0e0e0" stroke="#999999" points="5050.62,-32 4889.12,-32 4889.12,0 5050.62,0 5050.62,-32"/>
<text text-anchor="start" x="4897.12" y="-18.5" font-family="Helvetica,sans-Serif" font-size="10.00">com.hust.ittnk68.cnpm.database.</text>
<text text-anchor="middle" x="4969.88" y="-6.5" font-family="Helvetica,sans-Serif" font-size="10.00">GetSQLProperties</text>
</a>
</g>
</g>
<!-- Node1&#45;&gt;Node28 -->
<g id="edge27_Node000001_Node000028" class="edge">
<title>Node1&#45;&gt;Node28</title>
<g id="a_edge27_Node000001_Node000028"><a xlink:title=" ">
<path fill="none" stroke="#63b8ff" d="M3408.11,-81.87C3670.89,-77.61 4566.71,-61.32 4877.73,-32.09"/>
<polygon fill="#63b8ff" stroke="#63b8ff" points="4877.87,-35.59 4887.48,-31.14 4877.19,-28.62 4877.87,-35.59"/>
</a>
</g>
</g>
<!-- Node29 -->
<g id="Node000029" class="node">
<title>Node29</title>
<g id="a_Node000029"><a xlink:title=" ">
<polygon fill="#e0e0e0" stroke="#999999" points="5230.62,-32 5069.12,-32 5069.12,0 5230.62,0 5230.62,-32"/>
<text text-anchor="start" x="5077.12" y="-18.5" font-family="Helvetica,sans-Serif" font-size="10.00">com.hust.ittnk68.cnpm.database.</text>
<text text-anchor="middle" x="5149.88" y="-6.5" font-family="Helvetica,sans-Serif" font-size="10.00">MySQLDatabase</text>
</a>
</g>
</g>
<!-- Node1&#45;&gt;Node29 -->
<g id="edge28_Node000001_Node000029" class="edge">
<title>Node1&#45;&gt;Node29</title>
<g id="a_edge28_Node000001_Node000029"><a xlink:title=" ">
<path fill="none" stroke="#63b8ff" d="M3408.16,-82.16C3690.53,-78.71 4709.14,-64.35 5057.63,-32.09"/>
<polygon fill="#63b8ff" stroke="#63b8ff" points="5057.86,-35.59 5067.48,-31.16 5057.2,-28.62 5057.86,-35.59"/>
</a>
</g>
</g>
<!-- Node30 -->
<g id="Node000030" class="node">
<title>Node30</title>
<g id="a_Node000030"><a xlink:title=" ">
<polygon fill="#e0e0e0" stroke="#999999" points="5412.75,-32 5249,-32 5249,0 5412.75,0 5412.75,-32"/>
<text text-anchor="start" x="5257" y="-18.5" font-family="Helvetica,sans-Serif" font-size="10.00">com.hust.ittnk68.cnpm.exception.</text>
<text text-anchor="middle" x="5330.88" y="-6.5" font-family="Helvetica,sans-Serif" font-size="10.00">UserCreateSecondSession</text>
</a>
</g>
</g>
<!-- Node1&#45;&gt;Node30 -->
<g id="edge29_Node000001_Node000030" class="edge">
<title>Node1&#45;&gt;Node30</title>
<g id="a_edge29_Node000001_Node000030"><a xlink:title=" ">
<path fill="none" stroke="#63b8ff" d="M3408.18,-82.38C3709.18,-79.62 4851.98,-67.08 5237.42,-32.12"/>
<polygon fill="#63b8ff" stroke="#63b8ff" points="5237.46,-35.63 5247.09,-31.22 5236.81,-28.66 5237.46,-35.63"/>
</a>
</g>
</g>
<!-- Node31 -->
<g id="Node000031" class="node">
<title>Node31</title>
<g id="a_Node000031"><a xlink:title=" ">
<polygon fill="#e0e0e0" stroke="#999999" points="5578.88,-32 5430.88,-32 5430.88,0 5578.88,0 5578.88,-32"/>
<text text-anchor="start" x="5438.88" y="-18.5" font-family="Helvetica,sans-Serif" font-size="10.00">com.hust.ittnk68.cnpm.model.</text>
<text text-anchor="middle" x="5504.88" y="-6.5" font-family="Helvetica,sans-Serif" font-size="10.00">Account</text>
</a>
</g>
</g>
<!-- Node1&#45;&gt;Node31 -->
<g id="edge30_Node000001_Node000031" class="edge">
<title>Node1&#45;&gt;Node31</title>
<g id="a_edge30_Node000001_Node000031"><a xlink:title=" ">
<path fill="none" stroke="#63b8ff" d="M3408.03,-82.73C3726.65,-81.31 4995.84,-73.22 5419.37,-32.11"/>
<polygon fill="#63b8ff" stroke="#63b8ff" points="5419.63,-35.61 5429.24,-31.13 5418.94,-28.64 5419.63,-35.61"/>
</a>
</g>
</g>
<!-- Node32 -->
<g id="Node000032" class="node">
<title>Node32</title>
<g id="a_Node000032"><a xlink:title=" ">
<polygon fill="#e0e0e0" stroke="#999999" points="5744.88,-32 5596.88,-32 5596.88,0 5744.88,0 5744.88,-32"/>
<text text-anchor="start" x="5604.88" y="-18.5" font-family="Helvetica,sans-Serif" font-size="10.00">com.hust.ittnk68.cnpm.model.</text>
<text text-anchor="middle" x="5670.88" y="-6.5" font-family="Helvetica,sans-Serif" font-size="10.00">Expense</text>
</a>
</g>
</g>
<!-- Node1&#45;&gt;Node32 -->
<g id="edge31_Node000001_Node000032" class="edge">
<title>Node1&#45;&gt;Node32</title>
<g id="a_edge31_Node000001_Node000032"><a xlink:title=" ">
<path fill="none" stroke="#63b8ff" d="M3408.12,-82.88C3742.54,-82.1 5127.31,-76.29 5585.44,-32.11"/>
<polygon fill="#63b8ff" stroke="#63b8ff" points="5585.63,-35.6 5595.24,-31.14 5584.94,-28.64 5585.63,-35.6"/>
</a>
</g>
</g>
<!-- Node33 -->
<g id="Node000033" class="node">
<title>Node33</title>
<g id="a_Node000033"><a xlink:title=" ">
<polygon fill="#e0e0e0" stroke="#999999" points="5910.88,-32 5762.88,-32 5762.88,0 5910.88,0 5910.88,-32"/>
<text text-anchor="start" x="5770.88" y="-18.5" font-family="Helvetica,sans-Serif" font-size="10.00">com.hust.ittnk68.cnpm.model.</text>
<text text-anchor="middle" x="5836.88" y="-6.5" font-family="Helvetica,sans-Serif" font-size="10.00">PaymentStatus</text>
</a>
</g>
</g>
<!-- Node1&#45;&gt;Node33 -->
<g id="edge32_Node000001_Node000033" class="edge">
<title>Node1&#45;&gt;Node33</title>
<g id="a_edge32_Node000001_Node000033"><a xlink:title=" ">
<path fill="none" stroke="#63b8ff" d="M3408.17,-83.01C3757.69,-82.84 5258.27,-79.37 5751.29,-32.12"/>
<polygon fill="#63b8ff" stroke="#63b8ff" points="5751.63,-35.6 5761.24,-31.14 5750.94,-28.64 5751.63,-35.6"/>
</a>
</g>
</g>
<!-- Node34 -->
<g id="Node000034" class="node">
<title>Node34</title>
<g id="a_Node000034"><a xlink:title=" ">
<polygon fill="#e0e0e0" stroke="#999999" points="6076.88,-32 5928.88,-32 5928.88,0 6076.88,0 6076.88,-32"/>
<text text-anchor="start" x="5936.88" y="-18.5" font-family="Helvetica,sans-Serif" font-size="10.00">com.hust.ittnk68.cnpm.model.</text>
<text text-anchor="middle" x="6002.88" y="-6.5" font-family="Helvetica,sans-Serif" font-size="10.00">Person</text>
</a>
</g>
</g>
<!-- Node1&#45;&gt;Node34 -->
<g id="edge33_Node000001_Node000034" class="edge">
<title>Node1&#45;&gt;Node34</title>
<g id="a_edge33_Node000001_Node000034"><a xlink:title=" ">
<path fill="none" stroke="#63b8ff" d="M3407.96,-83.13C3771.72,-83.53 5390.05,-82.47 5917.63,-32.09"/>
<polygon fill="#63b8ff" stroke="#63b8ff" points="5917.63,-35.6 5927.24,-31.15 5916.95,-28.64 5917.63,-35.6"/>
</a>
</g>
</g>
<!-- Node35 -->
<g id="Node000035" class="node">
<title>Node35</title>
<g id="a_Node000035"><a xlink:title=" ">
<polygon fill="#e0e0e0" stroke="#999999" points="6250.62,-32 6095.12,-32 6095.12,0 6250.62,0 6250.62,-32"/>
<text text-anchor="start" x="6103.12" y="-18.5" font-family="Helvetica,sans-Serif" font-size="10.00">com.hust.ittnk68.cnpm.session.</text>
<text text-anchor="middle" x="6172.88" y="-6.5" font-family="Helvetica,sans-Serif" font-size="10.00">Session</text>
</a>
</g>
</g>
<!-- Node1&#45;&gt;Node35 -->
<g id="edge34_Node000001_Node000035" class="edge">
<title>Node1&#45;&gt;Node35</title>
<g id="a_edge34_Node000001_Node000035"><a xlink:title=" ">
<path fill="none" stroke="#63b8ff" d="M3408.2,-83.15C3786.41,-83.71 5520.41,-83.41 6083.24,-32.12"/>
<polygon fill="#63b8ff" stroke="#63b8ff" points="6083.56,-35.61 6093.19,-31.2 6082.91,-28.64 6083.56,-35.61"/>
</a>
</g>
</g>
<!-- Node36 -->
<g id="Node000036" class="node">
<title>Node36</title>
<g id="a_Node000036"><a xlink:title=" ">
<polygon fill="#e0e0e0" stroke="#999999" points="6424.62,-32 6269.12,-32 6269.12,0 6424.62,0 6424.62,-32"/>
<text text-anchor="start" x="6277.12" y="-18.5" font-family="Helvetica,sans-Serif" font-size="10.00">com.hust.ittnk68.cnpm.session.</text>
<text text-anchor="middle" x="6346.88" y="-6.5" font-family="Helvetica,sans-Serif" font-size="10.00">SessionController</text>
</a>
</g>
</g>
<!-- Node1&#45;&gt;Node36 -->
<g id="edge35_Node000001_Node000036" class="edge">
<title>Node1&#45;&gt;Node36</title>
<g id="a_edge35_Node000001_Node000036"><a xlink:title=" ">
<path fill="none" stroke="#63b8ff" d="M3408.23,-83.25C3800.86,-84.33 5658.07,-86.52 6257.37,-32.11"/>
<polygon fill="#63b8ff" stroke="#63b8ff" points="6257.55,-35.61 6267.19,-31.2 6256.91,-28.64 6257.55,-35.61"/>
</a>
</g>
</g>
<!-- Node37 -->
<g id="Node000037" class="node">
<title>Node37</title>
<g id="a_Node000037"><a xlink:title=" ">
<polygon fill="#e0e0e0" stroke="#999999" points="6583.12,-32 6442.62,-32 6442.62,0 6583.12,0 6583.12,-32"/>
<text text-anchor="start" x="6450.62" y="-18.5" font-family="Helvetica,sans-Serif" font-size="10.00">com.hust.ittnk68.cnpm.type.</text>
<text text-anchor="middle" x="6512.88" y="-6.5" font-family="Helvetica,sans-Serif" font-size="10.00">AccountType</text>
</a>
</g>
</g>
<!-- Node1&#45;&gt;Node37 -->
<g id="edge36_Node000001_Node000037" class="edge">
<title>Node1&#45;&gt;Node37</title>
<g id="a_edge36_Node000001_Node000037"><a xlink:title=" ">
<path fill="none" stroke="#63b8ff" d="M3408.21,-82.55C3842.82,-79.76 6073.67,-64.03 6430.89,-32.11"/>
<polygon fill="#63b8ff" stroke="#63b8ff" points="6431.2,-35.59 6440.82,-31.16 6430.53,-28.63 6431.2,-35.59"/>
</a>
</g>
</g>
<!-- Node38 -->
<g id="Node000038" class="node">
<title>Node38</title>
<g id="a_Node000038"><a xlink:title=" ">
<polygon fill="#e0e0e0" stroke="#999999" points="6742.12,-32 6601.62,-32 6601.62,0 6742.12,0 6742.12,-32"/>
<text text-anchor="start" x="6609.62" y="-18.5" font-family="Helvetica,sans-Serif" font-size="10.00">com.hust.ittnk68.cnpm.type.</text>
<text text-anchor="middle" x="6671.88" y="-6.5" font-family="Helvetica,sans-Serif" font-size="10.00">ResponseStatus</text>
</a>
</g>
</g>
<!-- Node1&#45;&gt;Node38 -->
<g id="edge37_Node000001_Node000038" class="edge">
<title>Node1&#45;&gt;Node38</title>
<g id="a_edge37_Node000001_Node000038"><a xlink:title=" ">
<path fill="none" stroke="#63b8ff" d="M3408.24,-82.6C3856.19,-80.05 6215.6,-65.19 6590.06,-31.97"/>
<polygon fill="#63b8ff" stroke="#63b8ff" points="6590.17,-35.47 6599.79,-31.05 6589.51,-28.5 6590.17,-35.47"/>
</a>
</g>
</g>
</g>
</svg>

<g id="navigator" transform="translate(0 0)" fill="#404254">
  <rect fill="#f2f5e9" fill-opacity="0.5" stroke="#606060" stroke-width=".5" x="0" y="0" width="60" height="60"/>
  <use id="zoomplus" xlink:href="#zoomPlus" x="17" y="9" onmousedown="handleZoom(evt,'in')"/>
  <use id="zoomminus" xlink:href="#zoomMin" x="42" y="9" onmousedown="handleZoom(evt,'out')"/>
  <use id="reset" xlink:href="#resetDef" x="30" y="36" onmousedown="handleReset()"/>
   <use id="arrowup" xlink:href="#arrowUp" x="0" y="0" onmousedown="handlePan(0,-1)"/>
  <use id="arrowright" xlink:href="#arrowRight" x="0" y="0" onmousedown="handlePan(1,0)"/>
  <use id="arrowdown" xlink:href="#arrowDown" x="0" y="0" onmousedown="handlePan(0,1)"/>
  <use id="arrowleft" xlink:href="#arrowLeft" x="0" y="0" onmousedown="handlePan(-1,0)"/>
</g>
<svg viewBox="0 0 15 15" width="100%" height="30px" preserveAspectRatio="xMaxYMin meet">
 <g id="arrow_out" transform="scale(0.3 0.3)">
  <a xlink:href="Server_8java__incl_org.svg" target="_base">
   <rect id="button" ry="5" rx="5" y="6" x="6" height="38" width="38"
        fill="#f2f5e9" fill-opacity="0.5" stroke="#606060" stroke-width="1.0"/>
   <path id="arrow"
     d="M 11.500037,31.436501 C 11.940474,20.09759 22.043105,11.32322 32.158766,21.979434 L 37.068811,17.246167 C 37.068811,17.246167 37.088388,32 37.088388,32 L 22.160133,31.978069 C 22.160133,31.978069 26.997745,27.140456 26.997745,27.140456 C 18.528582,18.264221 13.291696,25.230495 11.500037,31.436501 z"
     style="fill:#404040;"/>
  </a>
 </g>
</svg>

<style type='text/css'>
<![CDATA[
[data-mouse-over-selected='false'] { opacity: 0.7; }
[data-mouse-over-selected='true']  { opacity: 1.0; }
]]>
</style>
<script type="application/ecmascript"><![CDATA[
document.addEventListener('DOMContentLoaded', (event) => {
  highlightEdges();
  highlightAdjacentNodes();
});
]]></script>
</svg>
