<?xml version="1.0" encoding="UTF-8" standalone="no"?>
<!DOCTYPE svg PUBLIC "-//W3C//DTD SVG 1.1//EN"
 "http://www.w3.org/Graphics/SVG/1.1/DTD/svg11.dtd">
<!-- Generated by graphviz version 12.2.1 (20241206.2353)
 -->
<!-- Title: src/main/java/com/hust/ittnk68/cnpm/session/SessionController.java Pages: 1 -->
<svg width="786pt" height="120pt"
 viewBox="0.00 0.00 786.12 120.00" xmlns="http://www.w3.org/2000/svg" xmlns:xlink="http://www.w3.org/1999/xlink">
<g id="graph0" class="graph" transform="scale(1 1) rotate(0) translate(4 116)">
<title>src/main/java/com/hust/ittnk68/cnpm/session/SessionController.java</title>
<!-- Node1 -->
<g id="Node000001" class="node">
<title>Node1</title>
<g id="a_Node000001"><a xlink:title=" ">
<polygon fill="#999999" stroke="#666666" points="357.88,-112 239.88,-112 239.88,-68 357.88,-68 357.88,-112"/>
<text text-anchor="start" x="247.88" y="-98.5" font-family="Helvetica,sans-Serif" font-size="10.00">src/main/java/com/hust</text>
<text text-anchor="start" x="247.88" y="-86.5" font-family="Helvetica,sans-Serif" font-size="10.00">/ittnk68/cnpm/session</text>
<text text-anchor="middle" x="298.88" y="-74.5" font-family="Helvetica,sans-Serif" font-size="10.00">/SessionController.java</text>
</a>
</g>
</g>
<!-- Node2 -->
<g id="Node000002" class="node">
<title>Node2</title>
<g id="a_Node000002"><a xlink:title=" ">
<polygon fill="#e0e0e0" stroke="#999999" points="73.75,-26 0,-26 0,-6 73.75,-6 73.75,-26"/>
<text text-anchor="middle" x="36.88" y="-12.5" font-family="Helvetica,sans-Serif" font-size="10.00">java.util.Date</text>
</a>
</g>
</g>
<!-- Node1&#45;&gt;Node2 -->
<g id="edge1_Node000001_Node000002" class="edge">
<title>Node1&#45;&gt;Node2</title>
<g id="a_edge1_Node000001_Node000002"><a xlink:title=" ">
<path fill="none" stroke="#63b8ff" d="M239.49,-74.3C195.95,-63.29 135.52,-47.51 82.88,-32 80.61,-31.33 78.29,-30.63 75.94,-29.91"/>
<polygon fill="#63b8ff" stroke="#63b8ff" points="77.05,-26.59 66.46,-26.91 74.94,-33.26 77.05,-26.59"/>
</a>
</g>
</g>
<!-- Node3 -->
<g id="Node000003" class="node">
<title>Node3</title>
<g id="a_Node000003"><a xlink:title=" ">
<polygon fill="#e0e0e0" stroke="#999999" points="163.62,-26 92.12,-26 92.12,-6 163.62,-6 163.62,-26"/>
<text text-anchor="middle" x="127.88" y="-12.5" font-family="Helvetica,sans-Serif" font-size="10.00">java.util.Map</text>
</a>
</g>
</g>
<!-- Node1&#45;&gt;Node3 -->
<g id="edge2_Node000001_Node000003" class="edge">
<title>Node1&#45;&gt;Node3</title>
<g id="a_edge2_Node000001_Node000003"><a xlink:title=" ">
<path fill="none" stroke="#63b8ff" d="M248.03,-67.59C219.73,-55.68 185.33,-41.19 160.61,-30.78"/>
<polygon fill="#63b8ff" stroke="#63b8ff" points="162.28,-27.69 151.71,-27.04 159.57,-34.14 162.28,-27.69"/>
</a>
</g>
</g>
<!-- Node4 -->
<g id="Node000004" class="node">
<title>Node4</title>
<g id="a_Node000004"><a xlink:title=" ">
<polygon fill="#e0e0e0" stroke="#999999" points="272.38,-26 181.38,-26 181.38,-6 272.38,-6 272.38,-26"/>
<text text-anchor="middle" x="226.88" y="-12.5" font-family="Helvetica,sans-Serif" font-size="10.00">java.util.TreeMap</text>
</a>
</g>
</g>
<!-- Node1&#45;&gt;Node4 -->
<g id="edge3_Node000001_Node000004" class="edge">
<title>Node1&#45;&gt;Node4</title>
<g id="a_edge3_Node000001_Node000004"><a xlink:title=" ">
<path fill="none" stroke="#63b8ff" d="M277.66,-67.79C267.01,-57.14 254.27,-44.39 244.21,-34.34"/>
<polygon fill="#63b8ff" stroke="#63b8ff" points="246.8,-31.98 237.26,-27.38 241.85,-36.93 246.8,-31.98"/>
</a>
</g>
</g>
<!-- Node5 -->
<g id="Node000005" class="node">
<title>Node5</title>
<g id="a_Node000005"><a xlink:title=" ">
<polygon fill="#e0e0e0" stroke="#999999" points="453.75,-32 290,-32 290,0 453.75,0 453.75,-32"/>
<text text-anchor="start" x="298" y="-18.5" font-family="Helvetica,sans-Serif" font-size="10.00">com.hust.ittnk68.cnpm.exception.</text>
<text text-anchor="middle" x="371.88" y="-6.5" font-family="Helvetica,sans-Serif" font-size="10.00">UserCreateSecondSession</text>
</a>
</g>
</g>
<!-- Node1&#45;&gt;Node5 -->
<g id="edge4_Node000001_Node000005" class="edge">
<title>Node1&#45;&gt;Node5</title>
<g id="a_edge4_Node000001_Node000005"><a xlink:title=" ">
<path fill="none" stroke="#63b8ff" d="M320.38,-67.79C329.18,-59.11 339.38,-49.05 348.37,-40.18"/>
<polygon fill="#63b8ff" stroke="#63b8ff" points="350.8,-42.7 355.46,-33.19 345.88,-37.72 350.8,-42.7"/>
</a>
</g>
</g>
<!-- Node6 -->
<g id="Node000006" class="node">
<title>Node6</title>
<g id="a_Node000006"><a xlink:title=" ">
<polygon fill="#e0e0e0" stroke="#999999" points="619.88,-32 471.88,-32 471.88,0 619.88,0 619.88,-32"/>
<text text-anchor="start" x="479.88" y="-18.5" font-family="Helvetica,sans-Serif" font-size="10.00">com.hust.ittnk68.cnpm.model.</text>
<text text-anchor="middle" x="545.88" y="-6.5" font-family="Helvetica,sans-Serif" font-size="10.00">Account</text>
</a>
</g>
</g>
<!-- Node1&#45;&gt;Node6 -->
<g id="edge5_Node000001_Node000006" class="edge">
<title>Node1&#45;&gt;Node6</title>
<g id="a_edge5_Node000001_Node000006"><a xlink:title=" ">
<path fill="none" stroke="#63b8ff" d="M358.35,-71.66C395.64,-60.79 443.69,-46.79 481.82,-35.67"/>
<polygon fill="#63b8ff" stroke="#63b8ff" points="482.72,-39.05 491.34,-32.9 480.76,-32.33 482.72,-39.05"/>
</a>
</g>
</g>
<!-- Node7 -->
<g id="Node000007" class="node">
<title>Node7</title>
<g id="a_Node000007"><a xlink:title=" ">
<polygon fill="#e0e0e0" stroke="#999999" points="778.12,-32 637.62,-32 637.62,0 778.12,0 778.12,-32"/>
<text text-anchor="start" x="645.62" y="-18.5" font-family="Helvetica,sans-Serif" font-size="10.00">com.hust.ittnk68.cnpm.type.</text>
<text text-anchor="middle" x="707.88" y="-6.5" font-family="Helvetica,sans-Serif" font-size="10.00">AccountType</text>
</a>
</g>
</g>
<!-- Node1&#45;&gt;Node7 -->
<g id="edge6_Node000001_Node000007" class="edge">
<title>Node1&#45;&gt;Node7</title>
<g id="a_edge6_Node000001_Node000007"><a xlink:title=" ">
<path fill="none" stroke="#63b8ff" d="M358.24,-79.05C421.96,-68.3 526.45,-50.48 626.07,-32.49"/>
<polygon fill="#63b8ff" stroke="#63b8ff" points="626.54,-35.96 635.76,-30.74 625.3,-29.08 626.54,-35.96"/>
</a>
</g>
</g>
</g>
</svg>
