<?xml version="1.0" encoding="UTF-8" standalone="no"?>
<!DOCTYPE svg PUBLIC "-//W3C//DTD SVG 1.1//EN"
 "http://www.w3.org/Graphics/SVG/1.1/DTD/svg11.dtd">
<!-- Generated by graphviz version 12.2.1 (20241206.2353)
 -->
<!-- Title: src/main/java/com/hust/ittnk68/cnpm/sms/SmsSender.java Pages: 1 -->
<svg width="611pt" height="108pt"
 viewBox="0.00 0.00 610.62 108.00" xmlns="http://www.w3.org/2000/svg" xmlns:xlink="http://www.w3.org/1999/xlink">
<g id="graph0" class="graph" transform="scale(1 1) rotate(0) translate(4 104)">
<title>src/main/java/com/hust/ittnk68/cnpm/sms/SmsSender.java</title>
<!-- Node1 -->
<g id="Node000001" class="node">
<title>Node1</title>
<g id="a_Node000001"><a xlink:title=" ">
<polygon fill="#999999" stroke="#666666" points="367.62,-100 196.38,-100 196.38,-68 367.62,-68 367.62,-100"/>
<text text-anchor="start" x="204.38" y="-86.5" font-family="Helvetica,sans-Serif" font-size="10.00">src/main/java/com/hust</text>
<text text-anchor="middle" x="282" y="-74.5" font-family="Helvetica,sans-Serif" font-size="10.00">/ittnk68/cnpm/sms/SmsSender.java</text>
</a>
</g>
</g>
<!-- Node2 -->
<g id="Node000002" class="node">
<title>Node2</title>
<g id="a_Node000002"><a xlink:title=" ">
<polygon fill="#e0e0e0" stroke="#999999" points="148,-32 0,-32 0,0 148,0 148,-32"/>
<text text-anchor="start" x="8" y="-18.5" font-family="Helvetica,sans-Serif" font-size="10.00">com.hust.ittnk68.cnpm.config.</text>
<text text-anchor="middle" x="74" y="-6.5" font-family="Helvetica,sans-Serif" font-size="10.00">ConfigFileLoader</text>
</a>
</g>
</g>
<!-- Node1&#45;&gt;Node2 -->
<g id="edge1_Node000001_Node000002" class="edge">
<title>Node1&#45;&gt;Node2</title>
<g id="a_edge1_Node000001_Node000002"><a xlink:title=" ">
<path fill="none" stroke="#63b8ff" d="M233.23,-67.53C203.48,-58.09 165.23,-45.95 133.68,-35.94"/>
<polygon fill="#63b8ff" stroke="#63b8ff" points="134.85,-32.64 124.26,-32.95 132.74,-39.31 134.85,-32.64"/>
</a>
</g>
</g>
<!-- Node3 -->
<g id="Node000003" class="node">
<title>Node3</title>
<g id="a_Node000003"><a xlink:title=" ">
<polygon fill="#e0e0e0" stroke="#999999" points="254,-26 166,-26 166,-6 254,-6 254,-26"/>
<text text-anchor="middle" x="210" y="-12.5" font-family="Helvetica,sans-Serif" font-size="10.00">com.twilio.Twilio</text>
</a>
</g>
</g>
<!-- Node1&#45;&gt;Node3 -->
<g id="edge2_Node000001_Node000003" class="edge">
<title>Node1&#45;&gt;Node3</title>
<g id="a_edge2_Node000001_Node000003"><a xlink:title=" ">
<path fill="none" stroke="#63b8ff" d="M265.3,-67.69C254.29,-57.6 239.85,-44.36 228.49,-33.95"/>
<polygon fill="#63b8ff" stroke="#63b8ff" points="231.02,-31.52 221.28,-27.34 226.29,-36.68 231.02,-31.52"/>
</a>
</g>
</g>
<!-- Node4 -->
<g id="Node000004" class="node">
<title>Node4</title>
<g id="a_Node000004"><a xlink:title=" ">
<polygon fill="#e0e0e0" stroke="#999999" points="437.62,-32 272.38,-32 272.38,0 437.62,0 437.62,-32"/>
<text text-anchor="start" x="280.38" y="-18.5" font-family="Helvetica,sans-Serif" font-size="10.00">com.twilio.rest.api.v2010.account.</text>
<text text-anchor="middle" x="355" y="-6.5" font-family="Helvetica,sans-Serif" font-size="10.00">Message</text>
</a>
</g>
</g>
<!-- Node1&#45;&gt;Node4 -->
<g id="edge3_Node000001_Node000004" class="edge">
<title>Node1&#45;&gt;Node4</title>
<g id="a_edge3_Node000001_Node000004"><a xlink:title=" ">
<path fill="none" stroke="#63b8ff" d="M298.93,-67.69C307.99,-59.5 319.33,-49.25 329.43,-40.12"/>
<polygon fill="#63b8ff" stroke="#63b8ff" points="331.71,-42.77 336.79,-33.47 327.02,-37.58 331.71,-42.77"/>
</a>
</g>
</g>
<!-- Node5 -->
<g id="Node000005" class="node">
<title>Node5</title>
<g id="a_Node000005"><a xlink:title=" ">
<polygon fill="#e0e0e0" stroke="#999999" points="602.62,-26 455.38,-26 455.38,-6 602.62,-6 602.62,-26"/>
<text text-anchor="middle" x="529" y="-12.5" font-family="Helvetica,sans-Serif" font-size="10.00">com.twilio.type.PhoneNumber</text>
</a>
</g>
</g>
<!-- Node1&#45;&gt;Node5 -->
<g id="edge4_Node000001_Node000005" class="edge">
<title>Node1&#45;&gt;Node5</title>
<g id="a_edge4_Node000001_Node000005"><a xlink:title=" ">
<path fill="none" stroke="#63b8ff" d="M339.91,-67.53C383.44,-55.89 442.29,-40.17 482.71,-29.37"/>
<polygon fill="#63b8ff" stroke="#63b8ff" points="483.38,-32.81 492.13,-26.85 481.57,-26.05 483.38,-32.81"/>
</a>
</g>
</g>
</g>
</svg>
