<?xml version="1.0" encoding="UTF-8" standalone="no"?>
<!DOCTYPE svg PUBLIC "-//W3C//DTD SVG 1.1//EN"
 "http://www.w3.org/Graphics/SVG/1.1/DTD/svg11.dtd">
<!-- Generated by graphviz version 12.2.1 (20241206.2353)
 -->
<!-- Title: src/main/java/com/hust/ittnk68/cnpm/security/filter/TokenFilter.java Pages: 1 -->
<svg width="893pt" height="120pt"
 viewBox="0.00 0.00 892.88 120.00" xmlns="http://www.w3.org/2000/svg" xmlns:xlink="http://www.w3.org/1999/xlink">
<g id="graph0" class="graph" transform="scale(1 1) rotate(0) translate(4 116)">
<title>src/main/java/com/hust/ittnk68/cnpm/security/filter/TokenFilter.java</title>
<!-- Node1 -->
<g id="Node000001" class="node">
<title>Node1</title>
<g id="a_Node000001"><a xlink:title=" ">
<polygon fill="#999999" stroke="#666666" points="458.12,-112 340.12,-112 340.12,-68 458.12,-68 458.12,-112"/>
<text text-anchor="start" x="348.12" y="-98.5" font-family="Helvetica,sans-Serif" font-size="10.00">src/main/java/com/hust</text>
<text text-anchor="start" x="348.12" y="-86.5" font-family="Helvetica,sans-Serif" font-size="10.00">/ittnk68/cnpm/security</text>
<text text-anchor="middle" x="399.12" y="-74.5" font-family="Helvetica,sans-Serif" font-size="10.00">/filter/TokenFilter.java</text>
</a>
</g>
</g>
<!-- Node2 -->
<g id="Node000002" class="node">
<title>Node2</title>
<g id="a_Node000002"><a xlink:title=" ">
<polygon fill="#e0e0e0" stroke="#999999" points="84.25,-26 0,-26 0,-6 84.25,-6 84.25,-26"/>
<text text-anchor="middle" x="42.12" y="-12.5" font-family="Helvetica,sans-Serif" font-size="10.00">jakarta.servlet.*</text>
</a>
</g>
</g>
<!-- Node1&#45;&gt;Node2 -->
<g id="edge1_Node000001_Node000002" class="edge">
<title>Node1&#45;&gt;Node2</title>
<g id="a_edge1_Node000001_Node000002"><a xlink:title=" ">
<path fill="none" stroke="#63b8ff" d="M339.8,-79.79C277.88,-69.75 178.13,-52.36 93.12,-32 89.97,-31.24 86.72,-30.41 83.46,-29.54"/>
<polygon fill="#63b8ff" stroke="#63b8ff" points="84.49,-26.2 73.92,-26.88 82.61,-32.94 84.49,-26.2"/>
</a>
</g>
</g>
<!-- Node3 -->
<g id="Node000003" class="node">
<title>Node3</title>
<g id="a_Node000003"><a xlink:title=" ">
<polygon fill="#e0e0e0" stroke="#999999" points="206,-26 102.25,-26 102.25,-6 206,-6 206,-26"/>
<text text-anchor="middle" x="154.12" y="-12.5" font-family="Helvetica,sans-Serif" font-size="10.00">jakarta.servlet.http.*</text>
</a>
</g>
</g>
<!-- Node1&#45;&gt;Node3 -->
<g id="edge2_Node000001_Node000003" class="edge">
<title>Node1&#45;&gt;Node3</title>
<g id="a_edge2_Node000001_Node000003"><a xlink:title=" ">
<path fill="none" stroke="#63b8ff" d="M339.82,-71.57C295.77,-58.63 236.71,-41.27 197.14,-29.64"/>
<polygon fill="#63b8ff" stroke="#63b8ff" points="198.3,-26.33 187.72,-26.87 196.33,-33.05 198.3,-26.33"/>
</a>
</g>
</g>
<!-- Node4 -->
<g id="Node000004" class="node">
<title>Node4</title>
<g id="a_Node000004"><a xlink:title=" ">
<polygon fill="#e0e0e0" stroke="#999999" points="378.5,-32 223.75,-32 223.75,0 378.5,0 378.5,-32"/>
<text text-anchor="start" x="231.75" y="-18.5" font-family="Helvetica,sans-Serif" font-size="10.00">com.hust.ittnk68.cnpm.security.</text>
<text text-anchor="middle" x="301.12" y="-6.5" font-family="Helvetica,sans-Serif" font-size="10.00">TokenAuthentication</text>
</a>
</g>
</g>
<!-- Node1&#45;&gt;Node4 -->
<g id="edge3_Node000001_Node000004" class="edge">
<title>Node1&#45;&gt;Node4</title>
<g id="a_edge3_Node000001_Node000004"><a xlink:title=" ">
<path fill="none" stroke="#63b8ff" d="M369.99,-67.59C357.76,-58.61 343.54,-48.16 331.21,-39.11"/>
<polygon fill="#63b8ff" stroke="#63b8ff" points="333.57,-36.49 323.44,-33.39 329.42,-42.13 333.57,-36.49"/>
</a>
</g>
</g>
<!-- Node5 -->
<g id="Node000005" class="node">
<title>Node5</title>
<g id="a_Node000005"><a xlink:title=" ">
<polygon fill="#e0e0e0" stroke="#999999" points="597.38,-32 396.88,-32 396.88,0 597.38,0 597.38,-32"/>
<text text-anchor="start" x="404.88" y="-18.5" font-family="Helvetica,sans-Serif" font-size="10.00">org.springframework.security.core.context.</text>
<text text-anchor="middle" x="497.12" y="-6.5" font-family="Helvetica,sans-Serif" font-size="10.00">SecurityContextHolder</text>
</a>
</g>
</g>
<!-- Node1&#45;&gt;Node5 -->
<g id="edge4_Node000001_Node000005" class="edge">
<title>Node1&#45;&gt;Node5</title>
<g id="a_edge4_Node000001_Node000005"><a xlink:title=" ">
<path fill="none" stroke="#63b8ff" d="M428.26,-67.59C440.49,-58.61 454.71,-48.16 467.04,-39.11"/>
<polygon fill="#63b8ff" stroke="#63b8ff" points="468.83,-42.13 474.81,-33.39 464.68,-36.49 468.83,-42.13"/>
</a>
</g>
</g>
<!-- Node6 -->
<g id="Node000006" class="node">
<title>Node6</title>
<g id="a_Node000006"><a xlink:title=" ">
<polygon fill="#e0e0e0" stroke="#999999" points="764.88,-32 615.38,-32 615.38,0 764.88,0 764.88,-32"/>
<text text-anchor="start" x="623.38" y="-18.5" font-family="Helvetica,sans-Serif" font-size="10.00">org.springframework.web.filter.</text>
<text text-anchor="middle" x="690.12" y="-6.5" font-family="Helvetica,sans-Serif" font-size="10.00">OncePerRequestFilter</text>
</a>
</g>
</g>
<!-- Node1&#45;&gt;Node6 -->
<g id="edge5_Node000001_Node000006" class="edge">
<title>Node1&#45;&gt;Node6</title>
<g id="a_edge5_Node000001_Node000006"><a xlink:title=" ">
<path fill="none" stroke="#63b8ff" d="M458.36,-74.34C504.08,-63.03 567.57,-47.32 616.54,-35.21"/>
<polygon fill="#63b8ff" stroke="#63b8ff" points="617.36,-38.61 626.23,-32.81 615.68,-31.81 617.36,-38.61"/>
</a>
</g>
</g>
<!-- Node7 -->
<g id="Node000007" class="node">
<title>Node7</title>
<g id="a_Node000007"><a xlink:title=" ">
<polygon fill="#e0e0e0" stroke="#999999" points="884.88,-26 783.38,-26 783.38,-6 884.88,-6 884.88,-26"/>
<text text-anchor="middle" x="834.12" y="-12.5" font-family="Helvetica,sans-Serif" font-size="10.00">java.io.IOException</text>
</a>
</g>
</g>
<!-- Node1&#45;&gt;Node7 -->
<g id="edge6_Node000001_Node000007" class="edge">
<title>Node1&#45;&gt;Node7</title>
<g id="a_edge6_Node000001_Node000007"><a xlink:title=" ">
<path fill="none" stroke="#63b8ff" d="M458.53,-81.73C532.73,-72.24 663.39,-54.21 774.12,-32 778.5,-31.12 783.04,-30.13 787.57,-29.1"/>
<polygon fill="#63b8ff" stroke="#63b8ff" points="788.33,-32.51 797.24,-26.79 786.7,-25.7 788.33,-32.51"/>
</a>
</g>
</g>
</g>
</svg>
