<?xml version="1.0" encoding="UTF-8" standalone="no"?>
<!DOCTYPE svg PUBLIC "-//W3C//DTD SVG 1.1//EN"
 "http://www.w3.org/Graphics/SVG/1.1/DTD/svg11.dtd">
<!-- Generated by graphviz version 12.2.1 (20241206.2353)
 -->
<!-- Title: src/main/java/com/hust/ittnk68/cnpm/security/TokenAuthentication.java Pages: 1 -->
<svg width="471pt" height="120pt"
 viewBox="0.00 0.00 470.75 120.00" xmlns="http://www.w3.org/2000/svg" xmlns:xlink="http://www.w3.org/1999/xlink">
<g id="graph0" class="graph" transform="scale(1 1) rotate(0) translate(4 116)">
<title>src/main/java/com/hust/ittnk68/cnpm/security/TokenAuthentication.java</title>
<!-- Node1 -->
<g id="Node000001" class="node">
<title>Node1</title>
<g id="a_Node000001"><a xlink:title=" ">
<polygon fill="#999999" stroke="#666666" points="329.88,-112 201.38,-112 201.38,-68 329.88,-68 329.88,-112"/>
<text text-anchor="start" x="209.38" y="-98.5" font-family="Helvetica,sans-Serif" font-size="10.00">src/main/java/com/hust</text>
<text text-anchor="start" x="209.38" y="-86.5" font-family="Helvetica,sans-Serif" font-size="10.00">/ittnk68/cnpm/security</text>
<text text-anchor="middle" x="265.62" y="-74.5" font-family="Helvetica,sans-Serif" font-size="10.00">/TokenAuthentication.java</text>
</a>
</g>
</g>
<!-- Node2 -->
<g id="Node000002" class="node">
<title>Node2</title>
<g id="a_Node000002"><a xlink:title=" ">
<polygon fill="#e0e0e0" stroke="#999999" points="165.25,-32 0,-32 0,0 165.25,0 165.25,-32"/>
<text text-anchor="start" x="8" y="-18.5" font-family="Helvetica,sans-Serif" font-size="10.00">org.springframework.security.core.</text>
<text text-anchor="middle" x="82.62" y="-6.5" font-family="Helvetica,sans-Serif" font-size="10.00">Authentication</text>
</a>
</g>
</g>
<!-- Node1&#45;&gt;Node2 -->
<g id="edge1_Node000001_Node000002" class="edge">
<title>Node1&#45;&gt;Node2</title>
<g id="a_edge1_Node000001_Node000002"><a xlink:title=" ">
<path fill="none" stroke="#63b8ff" d="M211.21,-67.59C186.25,-57.77 156.85,-46.2 132.47,-36.61"/>
<polygon fill="#63b8ff" stroke="#63b8ff" points="134.01,-33.45 123.42,-33.05 131.44,-39.97 134.01,-33.45"/>
</a>
</g>
</g>
<!-- Node3 -->
<g id="Node000003" class="node">
<title>Node3</title>
<g id="a_Node000003"><a xlink:title=" ">
<polygon fill="#e0e0e0" stroke="#999999" points="348.25,-32 183,-32 183,0 348.25,0 348.25,-32"/>
<text text-anchor="start" x="191" y="-18.5" font-family="Helvetica,sans-Serif" font-size="10.00">org.springframework.security.core.</text>
<text text-anchor="middle" x="265.62" y="-6.5" font-family="Helvetica,sans-Serif" font-size="10.00">GrantedAuthority</text>
</a>
</g>
</g>
<!-- Node1&#45;&gt;Node3 -->
<g id="edge2_Node000001_Node000003" class="edge">
<title>Node1&#45;&gt;Node3</title>
<g id="a_edge2_Node000001_Node000003"><a xlink:title=" ">
<path fill="none" stroke="#63b8ff" d="M265.62,-67.79C265.62,-60.18 265.62,-51.52 265.62,-43.52"/>
<polygon fill="#63b8ff" stroke="#63b8ff" points="269.13,-43.64 265.63,-33.64 262.13,-43.64 269.13,-43.64"/>
</a>
</g>
</g>
<!-- Node4 -->
<g id="Node000004" class="node">
<title>Node4</title>
<g id="a_Node000004"><a xlink:title=" ">
<polygon fill="#e0e0e0" stroke="#999999" points="462.75,-26 366.5,-26 366.5,-6 462.75,-6 462.75,-26"/>
<text text-anchor="middle" x="414.62" y="-12.5" font-family="Helvetica,sans-Serif" font-size="10.00">java.util.Collection</text>
</a>
</g>
</g>
<!-- Node1&#45;&gt;Node4 -->
<g id="edge3_Node000001_Node000004" class="edge">
<title>Node1&#45;&gt;Node4</title>
<g id="a_edge3_Node000001_Node000004"><a xlink:title=" ">
<path fill="none" stroke="#63b8ff" d="M309.93,-67.59C334.14,-55.89 363.49,-41.71 384.94,-31.35"/>
<polygon fill="#63b8ff" stroke="#63b8ff" points="386.23,-34.61 393.71,-27.11 383.18,-28.31 386.23,-34.61"/>
</a>
</g>
</g>
</g>
</svg>
