<?xml version="1.0" encoding="UTF-8" standalone="no"?>
<!DOCTYPE svg PUBLIC "-//W3C//DTD SVG 1.1//EN"
 "http://www.w3.org/Graphics/SVG/1.1/DTD/svg11.dtd">
<!-- Generated by graphviz version 12.2.1 (20241206.2353)
 -->
<!-- Title: src/main/java/com/hust/ittnk68/cnpm/security/Token.java Pages: 1 -->
<svg width="964pt" height="120pt"
 viewBox="0.00 0.00 963.50 120.00" xmlns="http://www.w3.org/2000/svg" xmlns:xlink="http://www.w3.org/1999/xlink">
<g id="graph0" class="graph" transform="scale(1 1) rotate(0) translate(4 116)">
<title>src/main/java/com/hust/ittnk68/cnpm/security/Token.java</title>
<!-- Node1 -->
<g id="Node000001" class="node">
<title>Node1</title>
<g id="a_Node000001"><a xlink:title=" ">
<polygon fill="#999999" stroke="#666666" points="539.38,-112 421.38,-112 421.38,-68 539.38,-68 539.38,-112"/>
<text text-anchor="start" x="429.38" y="-98.5" font-family="Helvetica,sans-Serif" font-size="10.00">src/main/java/com/hust</text>
<text text-anchor="start" x="429.38" y="-86.5" font-family="Helvetica,sans-Serif" font-size="10.00">/ittnk68/cnpm/security</text>
<text text-anchor="middle" x="480.38" y="-74.5" font-family="Helvetica,sans-Serif" font-size="10.00">/Token.java</text>
</a>
</g>
</g>
<!-- Node2 -->
<g id="Node000002" class="node">
<title>Node2</title>
<g id="a_Node000002"><a xlink:title=" ">
<polygon fill="#e0e0e0" stroke="#999999" points="154.75,-32 0,-32 0,0 154.75,0 154.75,-32"/>
<text text-anchor="start" x="8" y="-18.5" font-family="Helvetica,sans-Serif" font-size="10.00">com.hust.ittnk68.cnpm.security.</text>
<text text-anchor="middle" x="77.38" y="-6.5" font-family="Helvetica,sans-Serif" font-size="10.00">Token</text>
</a>
</g>
</g>
<!-- Node1&#45;&gt;Node2 -->
<g id="edge1_Node000001_Node000002" class="edge">
<title>Node1&#45;&gt;Node2</title>
<g id="a_edge1_Node000001_Node000002"><a xlink:title=" ">
<path fill="none" stroke="#63b8ff" d="M420.91,-78.38C353.71,-66.37 243.64,-46.7 166.24,-32.88"/>
<polygon fill="#63b8ff" stroke="#63b8ff" points="167.01,-29.46 156.55,-31.15 165.78,-36.35 167.01,-29.46"/>
</a>
</g>
</g>
<!-- Node3 -->
<g id="Node000003" class="node">
<title>Node3</title>
<g id="a_Node000003"><a xlink:title=" ">
<polygon fill="#e0e0e0" stroke="#999999" points="380,-32 172.75,-32 172.75,0 380,0 380,-32"/>
<text text-anchor="start" x="180.75" y="-18.5" font-family="Helvetica,sans-Serif" font-size="10.00">org.springframework.security.authentication.</text>
<text text-anchor="middle" x="276.38" y="-6.5" font-family="Helvetica,sans-Serif" font-size="10.00">InsufficientAuthenticationException</text>
</a>
</g>
</g>
<!-- Node1&#45;&gt;Node3 -->
<g id="edge2_Node000001_Node000003" class="edge">
<title>Node1&#45;&gt;Node3</title>
<g id="a_edge2_Node000001_Node000003"><a xlink:title=" ">
<path fill="none" stroke="#63b8ff" d="M421.1,-68.08C392.64,-58.03 358.77,-46.08 330.95,-36.26"/>
<polygon fill="#63b8ff" stroke="#63b8ff" points="332.24,-33.01 321.65,-32.98 329.91,-39.61 332.24,-33.01"/>
</a>
</g>
</g>
<!-- Node4 -->
<g id="Node000004" class="node">
<title>Node4</title>
<g id="a_Node000004"><a xlink:title=" ">
<polygon fill="#e0e0e0" stroke="#999999" points="563,-32 397.75,-32 397.75,0 563,0 563,-32"/>
<text text-anchor="start" x="405.75" y="-18.5" font-family="Helvetica,sans-Serif" font-size="10.00">org.springframework.security.core.</text>
<text text-anchor="middle" x="480.38" y="-6.5" font-family="Helvetica,sans-Serif" font-size="10.00">Authentication</text>
</a>
</g>
</g>
<!-- Node1&#45;&gt;Node4 -->
<g id="edge3_Node000001_Node000004" class="edge">
<title>Node1&#45;&gt;Node4</title>
<g id="a_edge3_Node000001_Node000004"><a xlink:title=" ">
<path fill="none" stroke="#63b8ff" d="M480.38,-67.79C480.38,-60.18 480.38,-51.52 480.38,-43.52"/>
<polygon fill="#63b8ff" stroke="#63b8ff" points="483.88,-43.64 480.38,-33.64 476.88,-43.64 483.88,-43.64"/>
</a>
</g>
</g>
<!-- Node5 -->
<g id="Node000005" class="node">
<title>Node5</title>
<g id="a_Node000005"><a xlink:title=" ">
<polygon fill="#e0e0e0" stroke="#999999" points="781.62,-32 581.12,-32 581.12,0 781.62,0 781.62,-32"/>
<text text-anchor="start" x="589.12" y="-18.5" font-family="Helvetica,sans-Serif" font-size="10.00">org.springframework.security.core.context.</text>
<text text-anchor="middle" x="681.38" y="-6.5" font-family="Helvetica,sans-Serif" font-size="10.00">SecurityContextHolder</text>
</a>
</g>
</g>
<!-- Node1&#45;&gt;Node5 -->
<g id="edge4_Node000001_Node000005" class="edge">
<title>Node1&#45;&gt;Node5</title>
<g id="a_edge4_Node000001_Node000005"><a xlink:title=" ">
<path fill="none" stroke="#63b8ff" d="M539.87,-67.69C567.64,-57.74 600.46,-45.98 627.5,-36.3"/>
<polygon fill="#63b8ff" stroke="#63b8ff" points="628.66,-39.6 636.89,-32.93 626.3,-33.01 628.66,-39.6"/>
</a>
</g>
</g>
<!-- Node6 -->
<g id="Node000006" class="node">
<title>Node6</title>
<g id="a_Node000006"><a xlink:title=" ">
<polygon fill="#e0e0e0" stroke="#999999" points="955.5,-32 799.25,-32 799.25,0 955.5,0 955.5,-32"/>
<text text-anchor="start" x="807.25" y="-18.5" font-family="Helvetica,sans-Serif" font-size="10.00">org.springframework.stereotype.</text>
<text text-anchor="middle" x="877.38" y="-6.5" font-family="Helvetica,sans-Serif" font-size="10.00">Component</text>
</a>
</g>
</g>
<!-- Node1&#45;&gt;Node6 -->
<g id="edge5_Node000001_Node000006" class="edge">
<title>Node1&#45;&gt;Node6</title>
<g id="a_edge5_Node000001_Node000006"><a xlink:title=" ">
<path fill="none" stroke="#63b8ff" d="M539.81,-78.22C605.58,-66.29 712.28,-46.94 788.1,-33.19"/>
<polygon fill="#63b8ff" stroke="#63b8ff" points="788.35,-36.7 797.56,-31.47 787.1,-29.82 788.35,-36.7"/>
</a>
</g>
</g>
</g>
</svg>
