<?xml version="1.0" encoding="UTF-8" standalone="no"?>
<!DOCTYPE svg PUBLIC "-//W3C//DTD SVG 1.1//EN"
 "http://www.w3.org/Graphics/SVG/1.1/DTD/svg11.dtd">
<!-- Generated by graphviz version 12.2.1 (20241206.2353)
 -->
<!-- Title: src/main/java/com/hust/ittnk68/cnpm/model/UpdatePaymentStatusModel.java Pages: 1 -->
<svg width="857pt" height="120pt"
 viewBox="0.00 0.00 857.38 120.00" xmlns="http://www.w3.org/2000/svg" xmlns:xlink="http://www.w3.org/1999/xlink">
<g id="graph0" class="graph" transform="scale(1 1) rotate(0) translate(4 116)">
<title>src/main/java/com/hust/ittnk68/cnpm/model/UpdatePaymentStatusModel.java</title>
<!-- Node1 -->
<g id="Node000001" class="node">
<title>Node1</title>
<g id="a_Node000001"><a xlink:title=" ">
<polygon fill="#999999" stroke="#666666" points="517.5,-112 339.5,-112 339.5,-68 517.5,-68 517.5,-112"/>
<text text-anchor="start" x="347.5" y="-98.5" font-family="Helvetica,sans-Serif" font-size="10.00">src/main/java/com/hust</text>
<text text-anchor="start" x="347.5" y="-86.5" font-family="Helvetica,sans-Serif" font-size="10.00">/ittnk68/cnpm/model/UpdatePayment</text>
<text text-anchor="middle" x="428.5" y="-74.5" font-family="Helvetica,sans-Serif" font-size="10.00">StatusModel.java</text>
</a>
</g>
</g>
<!-- Node2 -->
<g id="Node000002" class="node">
<title>Node2</title>
<g id="a_Node000002"><a xlink:title=" ">
<polygon fill="#e0e0e0" stroke="#999999" points="103,-26 0,-26 0,-6 103,-6 103,-26"/>
<text text-anchor="middle" x="51.5" y="-12.5" font-family="Helvetica,sans-Serif" font-size="10.00">java.time.LocalDate</text>
</a>
</g>
</g>
<!-- Node1&#45;&gt;Node2 -->
<g id="edge1_Node000001_Node000002" class="edge">
<title>Node1&#45;&gt;Node2</title>
<g id="a_edge1_Node000001_Node000002"><a xlink:title=" ">
<path fill="none" stroke="#63b8ff" d="M339.03,-74.56C275.36,-63.88 187.9,-48.4 111.5,-32 107.25,-31.09 102.85,-30.09 98.44,-29.05"/>
<polygon fill="#63b8ff" stroke="#63b8ff" points="99.59,-25.73 89.05,-26.79 97.95,-32.54 99.59,-25.73"/>
</a>
</g>
</g>
<!-- Node3 -->
<g id="Node000003" class="node">
<title>Node3</title>
<g id="a_Node000003"><a xlink:title=" ">
<polygon fill="#e0e0e0" stroke="#999999" points="260.38,-32 120.62,-32 120.62,0 260.38,0 260.38,-32"/>
<text text-anchor="start" x="128.62" y="-18.5" font-family="Helvetica,sans-Serif" font-size="10.00">javafx.beans.property.Object</text>
<text text-anchor="middle" x="190.5" y="-6.5" font-family="Helvetica,sans-Serif" font-size="10.00">Property</text>
</a>
</g>
</g>
<!-- Node1&#45;&gt;Node3 -->
<g id="edge2_Node000001_Node000003" class="edge">
<title>Node1&#45;&gt;Node3</title>
<g id="a_edge2_Node000001_Node000003"><a xlink:title=" ">
<path fill="none" stroke="#63b8ff" d="M357.74,-67.59C324.25,-57.46 284.63,-45.48 252.36,-35.72"/>
<polygon fill="#63b8ff" stroke="#63b8ff" points="253.76,-32.48 243.17,-32.93 251.73,-39.18 253.76,-32.48"/>
</a>
</g>
</g>
<!-- Node4 -->
<g id="Node000004" class="node">
<title>Node4</title>
<g id="a_Node000004"><a xlink:title=" ">
<polygon fill="#e0e0e0" stroke="#999999" points="420.12,-32 278.88,-32 278.88,0 420.12,0 420.12,-32"/>
<text text-anchor="start" x="286.88" y="-18.5" font-family="Helvetica,sans-Serif" font-size="10.00">javafx.beans.property.Simple</text>
<text text-anchor="middle" x="349.5" y="-6.5" font-family="Helvetica,sans-Serif" font-size="10.00">ObjectProperty</text>
</a>
</g>
</g>
<!-- Node1&#45;&gt;Node4 -->
<g id="edge3_Node000001_Node000004" class="edge">
<title>Node1&#45;&gt;Node4</title>
<g id="a_edge3_Node000001_Node000004"><a xlink:title=" ">
<path fill="none" stroke="#63b8ff" d="M405.22,-67.79C395.51,-58.93 384.21,-48.63 374.33,-39.63"/>
<polygon fill="#63b8ff" stroke="#63b8ff" points="376.96,-37.3 367.22,-33.15 372.25,-42.47 376.96,-37.3"/>
</a>
</g>
</g>
<!-- Node5 -->
<g id="Node000005" class="node">
<title>Node5</title>
<g id="a_Node000005"><a xlink:title=" ">
<polygon fill="#e0e0e0" stroke="#999999" points="579.12,-32 437.88,-32 437.88,0 579.12,0 579.12,-32"/>
<text text-anchor="start" x="445.88" y="-18.5" font-family="Helvetica,sans-Serif" font-size="10.00">javafx.beans.property.Simple</text>
<text text-anchor="middle" x="508.5" y="-6.5" font-family="Helvetica,sans-Serif" font-size="10.00">StringProperty</text>
</a>
</g>
</g>
<!-- Node1&#45;&gt;Node5 -->
<g id="edge4_Node000001_Node000005" class="edge">
<title>Node1&#45;&gt;Node5</title>
<g id="a_edge4_Node000001_Node000005"><a xlink:title=" ">
<path fill="none" stroke="#63b8ff" d="M452.07,-67.79C461.91,-58.93 473.35,-48.63 483.35,-39.63"/>
<polygon fill="#63b8ff" stroke="#63b8ff" points="485.48,-42.43 490.57,-33.14 480.79,-37.23 485.48,-42.43"/>
</a>
</g>
</g>
<!-- Node6 -->
<g id="Node000006" class="node">
<title>Node6</title>
<g id="a_Node000006"><a xlink:title=" ">
<polygon fill="#e0e0e0" stroke="#999999" points="733.88,-32 597.12,-32 597.12,0 733.88,0 733.88,-32"/>
<text text-anchor="start" x="605.12" y="-18.5" font-family="Helvetica,sans-Serif" font-size="10.00">javafx.beans.property.String</text>
<text text-anchor="middle" x="665.5" y="-6.5" font-family="Helvetica,sans-Serif" font-size="10.00">Property</text>
</a>
</g>
</g>
<!-- Node1&#45;&gt;Node6 -->
<g id="edge5_Node000001_Node000006" class="edge">
<title>Node1&#45;&gt;Node6</title>
<g id="a_edge5_Node000001_Node000006"><a xlink:title=" ">
<path fill="none" stroke="#63b8ff" d="M498.97,-67.59C532.31,-57.46 571.76,-45.48 603.9,-35.72"/>
<polygon fill="#63b8ff" stroke="#63b8ff" points="604.49,-39.19 613.05,-32.94 602.46,-32.49 604.49,-39.19"/>
</a>
</g>
</g>
<!-- Node7 -->
<g id="Node000007" class="node">
<title>Node7</title>
<g id="a_Node000007"><a xlink:title=" ">
<polygon fill="#e0e0e0" stroke="#999999" points="849.38,-26 751.62,-26 751.62,-6 849.38,-6 849.38,-26"/>
<text text-anchor="middle" x="800.5" y="-12.5" font-family="Helvetica,sans-Serif" font-size="10.00">javafx.stage.Stage</text>
</a>
</g>
</g>
<!-- Node1&#45;&gt;Node7 -->
<g id="edge6_Node000001_Node000007" class="edge">
<title>Node1&#45;&gt;Node7</title>
<g id="a_edge6_Node000001_Node000007"><a xlink:title=" ">
<path fill="none" stroke="#63b8ff" d="M517.84,-74.58C580.86,-63.97 667.15,-48.56 742.5,-32 746.49,-31.12 750.63,-30.16 754.77,-29.16"/>
<polygon fill="#63b8ff" stroke="#63b8ff" points="755.31,-32.63 764.17,-26.82 753.62,-25.84 755.31,-32.63"/>
</a>
</g>
</g>
</g>
</svg>
