<?xml version="1.0" encoding="UTF-8" standalone="no"?>
<!DOCTYPE svg PUBLIC "-//W3C//DTD SVG 1.1//EN"
 "http://www.w3.org/Graphics/SVG/1.1/DTD/svg11.dtd">
<!-- Generated by graphviz version 12.2.1 (20241206.2353)
 -->
<!-- Title: src/main/java/com/hust/ittnk68/cnpm/model/UpdateExpenseModel.java Pages: 1 -->
<svg width="1181pt" height="120pt"
 viewBox="0.00 0.00 1180.75 120.00" xmlns="http://www.w3.org/2000/svg" xmlns:xlink="http://www.w3.org/1999/xlink">
<g id="graph0" class="graph" transform="scale(1 1) rotate(0) translate(4 116)">
<title>src/main/java/com/hust/ittnk68/cnpm/model/UpdateExpenseModel.java</title>
<!-- Node1 -->
<g id="Node000001" class="node">
<title>Node1</title>
<g id="a_Node000001"><a xlink:title=" ">
<polygon fill="#999999" stroke="#666666" points="676.12,-112 498.88,-112 498.88,-68 676.12,-68 676.12,-112"/>
<text text-anchor="start" x="506.88" y="-98.5" font-family="Helvetica,sans-Serif" font-size="10.00">src/main/java/com/hust</text>
<text text-anchor="start" x="506.88" y="-86.5" font-family="Helvetica,sans-Serif" font-size="10.00">/ittnk68/cnpm/model/UpdateExpense</text>
<text text-anchor="middle" x="587.5" y="-74.5" font-family="Helvetica,sans-Serif" font-size="10.00">Model.java</text>
</a>
</g>
</g>
<!-- Node2 -->
<g id="Node000002" class="node">
<title>Node2</title>
<g id="a_Node000002"><a xlink:title=" ">
<polygon fill="#e0e0e0" stroke="#999999" points="103,-26 0,-26 0,-6 103,-6 103,-26"/>
<text text-anchor="middle" x="51.5" y="-12.5" font-family="Helvetica,sans-Serif" font-size="10.00">java.time.LocalDate</text>
</a>
</g>
</g>
<!-- Node1&#45;&gt;Node2 -->
<g id="edge1_Node000001_Node000002" class="edge">
<title>Node1&#45;&gt;Node2</title>
<g id="a_edge1_Node000001_Node000002"><a xlink:title=" ">
<path fill="none" stroke="#63b8ff" d="M498.39,-81.7C402.37,-73.06 245.33,-56.64 111.5,-32 106.87,-31.15 102.06,-30.15 97.27,-29.07"/>
<polygon fill="#63b8ff" stroke="#63b8ff" points="98.25,-25.71 87.71,-26.82 96.64,-32.52 98.25,-25.71"/>
</a>
</g>
</g>
<!-- Node3 -->
<g id="Node000003" class="node">
<title>Node3</title>
<g id="a_Node000003"><a xlink:title=" ">
<polygon fill="#e0e0e0" stroke="#999999" points="260.38,-32 120.62,-32 120.62,0 260.38,0 260.38,-32"/>
<text text-anchor="start" x="128.62" y="-18.5" font-family="Helvetica,sans-Serif" font-size="10.00">javafx.beans.property.Object</text>
<text text-anchor="middle" x="190.5" y="-6.5" font-family="Helvetica,sans-Serif" font-size="10.00">Property</text>
</a>
</g>
</g>
<!-- Node1&#45;&gt;Node3 -->
<g id="edge2_Node000001_Node000003" class="edge">
<title>Node1&#45;&gt;Node3</title>
<g id="a_edge2_Node000001_Node000003"><a xlink:title=" ">
<path fill="none" stroke="#63b8ff" d="M498.7,-73.33C437.64,-62.5 354.38,-47.62 271.82,-32.42"/>
<polygon fill="#63b8ff" stroke="#63b8ff" points="272.66,-29.01 262.19,-30.64 271.39,-35.9 272.66,-29.01"/>
</a>
</g>
</g>
<!-- Node4 -->
<g id="Node000004" class="node">
<title>Node4</title>
<g id="a_Node000004"><a xlink:title=" ">
<polygon fill="#e0e0e0" stroke="#999999" points="420.12,-32 278.88,-32 278.88,0 420.12,0 420.12,-32"/>
<text text-anchor="start" x="286.88" y="-18.5" font-family="Helvetica,sans-Serif" font-size="10.00">javafx.beans.property.Simple</text>
<text text-anchor="middle" x="349.5" y="-6.5" font-family="Helvetica,sans-Serif" font-size="10.00">BooleanProperty</text>
</a>
</g>
</g>
<!-- Node1&#45;&gt;Node4 -->
<g id="edge3_Node000001_Node000004" class="edge">
<title>Node1&#45;&gt;Node4</title>
<g id="a_edge3_Node000001_Node000004"><a xlink:title=" ">
<path fill="none" stroke="#63b8ff" d="M516.74,-67.59C483.25,-57.46 443.63,-45.48 411.36,-35.72"/>
<polygon fill="#63b8ff" stroke="#63b8ff" points="412.76,-32.48 402.17,-32.93 410.73,-39.18 412.76,-32.48"/>
</a>
</g>
</g>
<!-- Node5 -->
<g id="Node000005" class="node">
<title>Node5</title>
<g id="a_Node000005"><a xlink:title=" ">
<polygon fill="#e0e0e0" stroke="#999999" points="579.12,-32 437.88,-32 437.88,0 579.12,0 579.12,-32"/>
<text text-anchor="start" x="445.88" y="-18.5" font-family="Helvetica,sans-Serif" font-size="10.00">javafx.beans.property.Simple</text>
<text text-anchor="middle" x="508.5" y="-6.5" font-family="Helvetica,sans-Serif" font-size="10.00">ObjectProperty</text>
</a>
</g>
</g>
<!-- Node1&#45;&gt;Node5 -->
<g id="edge4_Node000001_Node000005" class="edge">
<title>Node1&#45;&gt;Node5</title>
<g id="a_edge4_Node000001_Node000005"><a xlink:title=" ">
<path fill="none" stroke="#63b8ff" d="M564.22,-67.79C554.51,-58.93 543.21,-48.63 533.33,-39.63"/>
<polygon fill="#63b8ff" stroke="#63b8ff" points="535.96,-37.3 526.22,-33.15 531.25,-42.47 535.96,-37.3"/>
</a>
</g>
</g>
<!-- Node6 -->
<g id="Node000006" class="node">
<title>Node6</title>
<g id="a_Node000006"><a xlink:title=" ">
<polygon fill="#e0e0e0" stroke="#999999" points="738.12,-32 596.88,-32 596.88,0 738.12,0 738.12,-32"/>
<text text-anchor="start" x="604.88" y="-18.5" font-family="Helvetica,sans-Serif" font-size="10.00">javafx.beans.property.Simple</text>
<text text-anchor="middle" x="667.5" y="-6.5" font-family="Helvetica,sans-Serif" font-size="10.00">StringProperty</text>
</a>
</g>
</g>
<!-- Node1&#45;&gt;Node6 -->
<g id="edge5_Node000001_Node000006" class="edge">
<title>Node1&#45;&gt;Node6</title>
<g id="a_edge5_Node000001_Node000006"><a xlink:title=" ">
<path fill="none" stroke="#63b8ff" d="M611.07,-67.79C620.91,-58.93 632.35,-48.63 642.35,-39.63"/>
<polygon fill="#63b8ff" stroke="#63b8ff" points="644.48,-42.43 649.57,-33.14 639.79,-37.23 644.48,-42.43"/>
</a>
</g>
</g>
<!-- Node7 -->
<g id="Node000007" class="node">
<title>Node7</title>
<g id="a_Node000007"><a xlink:title=" ">
<polygon fill="#e0e0e0" stroke="#999999" points="892.88,-32 756.12,-32 756.12,0 892.88,0 892.88,-32"/>
<text text-anchor="start" x="764.12" y="-18.5" font-family="Helvetica,sans-Serif" font-size="10.00">javafx.beans.property.String</text>
<text text-anchor="middle" x="824.5" y="-6.5" font-family="Helvetica,sans-Serif" font-size="10.00">Property</text>
</a>
</g>
</g>
<!-- Node1&#45;&gt;Node7 -->
<g id="edge6_Node000001_Node000007" class="edge">
<title>Node1&#45;&gt;Node7</title>
<g id="a_edge6_Node000001_Node000007"><a xlink:title=" ">
<path fill="none" stroke="#63b8ff" d="M657.97,-67.59C691.31,-57.46 730.76,-45.48 762.9,-35.72"/>
<polygon fill="#63b8ff" stroke="#63b8ff" points="763.49,-39.19 772.05,-32.94 761.46,-32.49 763.49,-39.19"/>
</a>
</g>
</g>
<!-- Node8 -->
<g id="Node000008" class="node">
<title>Node8</title>
<g id="a_Node000008"><a xlink:title=" ">
<polygon fill="#e0e0e0" stroke="#999999" points="1008.38,-26 910.62,-26 910.62,-6 1008.38,-6 1008.38,-26"/>
<text text-anchor="middle" x="959.5" y="-12.5" font-family="Helvetica,sans-Serif" font-size="10.00">javafx.stage.Stage</text>
</a>
</g>
</g>
<!-- Node1&#45;&gt;Node8 -->
<g id="edge7_Node000001_Node000008" class="edge">
<title>Node1&#45;&gt;Node8</title>
<g id="a_edge7_Node000001_Node000008"><a xlink:title=" ">
<path fill="none" stroke="#63b8ff" d="M676.5,-74.64C739.55,-64.02 826.01,-48.59 901.5,-32 905.49,-31.12 909.63,-30.16 913.77,-29.16"/>
<polygon fill="#63b8ff" stroke="#63b8ff" points="914.31,-32.63 923.17,-26.82 912.62,-25.84 914.31,-32.63"/>
</a>
</g>
</g>
<!-- Node9 -->
<g id="Node000009" class="node">
<title>Node9</title>
<g id="a_Node000009"><a xlink:title=" ">
<polygon fill="#e0e0e0" stroke="#999999" points="1172.75,-32 1026.25,-32 1026.25,0 1172.75,0 1172.75,-32"/>
<text text-anchor="start" x="1034.25" y="-18.5" font-family="Helvetica,sans-Serif" font-size="10.00">javafx.beans.property.Boolean</text>
<text text-anchor="middle" x="1099.5" y="-6.5" font-family="Helvetica,sans-Serif" font-size="10.00">Property</text>
</a>
</g>
</g>
<!-- Node1&#45;&gt;Node9 -->
<g id="edge8_Node000001_Node000009" class="edge">
<title>Node1&#45;&gt;Node9</title>
<g id="a_edge8_Node000001_Node000009"><a xlink:title=" ">
<path fill="none" stroke="#63b8ff" d="M676.21,-78.53C760.74,-68.26 891.83,-51.57 1014.67,-32.41"/>
<polygon fill="#63b8ff" stroke="#63b8ff" points="1014.94,-35.91 1024.28,-30.9 1013.85,-28.99 1014.94,-35.91"/>
</a>
</g>
</g>
</g>
</svg>
