<?xml version="1.0" encoding="UTF-8" standalone="no"?>
<!DOCTYPE svg PUBLIC "-//W3C//DTD SVG 1.1//EN"
 "http://www.w3.org/Graphics/SVG/1.1/DTD/svg11.dtd">
<!-- Generated by graphviz version 12.2.1 (20241206.2353)
 -->
<!-- Title: src/main/java/com/hust/ittnk68/cnpm/model/Vehicle.java Pages: 1 -->
<svg width="512pt" height="108pt"
 viewBox="0.00 0.00 512.25 108.00" xmlns="http://www.w3.org/2000/svg" xmlns:xlink="http://www.w3.org/1999/xlink">
<g id="graph0" class="graph" transform="scale(1 1) rotate(0) translate(4 104)">
<title>src/main/java/com/hust/ittnk68/cnpm/model/Vehicle.java</title>
<!-- Node1 -->
<g id="Node000001" class="node">
<title>Node1</title>
<g id="a_Node000001"><a xlink:title=" ">
<polygon fill="#999999" stroke="#666666" points="345.38,-100 184.62,-100 184.62,-68 345.38,-68 345.38,-100"/>
<text text-anchor="start" x="192.62" y="-86.5" font-family="Helvetica,sans-Serif" font-size="10.00">src/main/java/com/hust</text>
<text text-anchor="middle" x="265" y="-74.5" font-family="Helvetica,sans-Serif" font-size="10.00">/ittnk68/cnpm/model/Vehicle.java</text>
</a>
</g>
</g>
<!-- Node2 -->
<g id="Node000002" class="node">
<title>Node2</title>
<g id="a_Node000002"><a xlink:title=" ">
<polygon fill="#e0e0e0" stroke="#999999" points="166,-32 0,-32 0,0 166,0 166,-32"/>
<text text-anchor="start" x="8" y="-18.5" font-family="Helvetica,sans-Serif" font-size="10.00">com.fasterxml.jackson.annotation.</text>
<text text-anchor="middle" x="83" y="-6.5" font-family="Helvetica,sans-Serif" font-size="10.00">JsonIgnore</text>
</a>
</g>
</g>
<!-- Node1&#45;&gt;Node2 -->
<g id="edge1_Node000001_Node000002" class="edge">
<title>Node1&#45;&gt;Node2</title>
<g id="a_edge1_Node000001_Node000002"><a xlink:title=" ">
<path fill="none" stroke="#63b8ff" d="M222.33,-67.53C196.64,-58.21 163.7,-46.27 136.31,-36.33"/>
<polygon fill="#63b8ff" stroke="#63b8ff" points="137.74,-33.13 127.14,-33.01 135.35,-39.71 137.74,-33.13"/>
</a>
</g>
</g>
<!-- Node3 -->
<g id="Node000003" class="node">
<title>Node3</title>
<g id="a_Node000003"><a xlink:title=" ">
<polygon fill="#e0e0e0" stroke="#999999" points="345.75,-32 184.25,-32 184.25,0 345.75,0 345.75,-32"/>
<text text-anchor="start" x="192.25" y="-18.5" font-family="Helvetica,sans-Serif" font-size="10.00">com.hust.ittnk68.cnpm.database.</text>
<text text-anchor="middle" x="265" y="-6.5" font-family="Helvetica,sans-Serif" font-size="10.00">GetSQLProperties</text>
</a>
</g>
</g>
<!-- Node1&#45;&gt;Node3 -->
<g id="edge2_Node000001_Node000003" class="edge">
<title>Node1&#45;&gt;Node3</title>
<g id="a_edge2_Node000001_Node000003"><a xlink:title=" ">
<path fill="none" stroke="#63b8ff" d="M265,-67.69C265,-60.53 265,-51.79 265,-43.59"/>
<polygon fill="#63b8ff" stroke="#63b8ff" points="268.5,-43.74 265,-33.74 261.5,-43.74 268.5,-43.74"/>
</a>
</g>
</g>
<!-- Node4 -->
<g id="Node000004" class="node">
<title>Node4</title>
<g id="a_Node000004"><a xlink:title=" ">
<polygon fill="#e0e0e0" stroke="#999999" points="504.25,-32 363.75,-32 363.75,0 504.25,0 504.25,-32"/>
<text text-anchor="start" x="371.75" y="-18.5" font-family="Helvetica,sans-Serif" font-size="10.00">com.hust.ittnk68.cnpm.type.</text>
<text text-anchor="middle" x="434" y="-6.5" font-family="Helvetica,sans-Serif" font-size="10.00">VehicleType</text>
</a>
</g>
</g>
<!-- Node1&#45;&gt;Node4 -->
<g id="edge3_Node000001_Node000004" class="edge">
<title>Node1&#45;&gt;Node4</title>
<g id="a_edge3_Node000001_Node000004"><a xlink:title=" ">
<path fill="none" stroke="#63b8ff" d="M304.62,-67.53C328.27,-58.29 358.52,-46.48 383.82,-36.6"/>
<polygon fill="#63b8ff" stroke="#63b8ff" points="384.88,-39.94 392.92,-33.04 382.33,-33.42 384.88,-39.94"/>
</a>
</g>
</g>
</g>
</svg>
